G04 #@! TF.GenerationSoftware,KiCad,Pcbnew,(5.1.10)-1*
G04 #@! TF.CreationDate,2021-09-26T16:33:56-04:00*
G04 #@! TF.ProjectId,schematics_main,73636865-6d61-4746-9963-735f6d61696e,rev?*
G04 #@! TF.SameCoordinates,Original*
G04 #@! TF.FileFunction,Copper,L2,Bot*
G04 #@! TF.FilePolarity,Positive*
%FSLAX46Y46*%
G04 Gerber Fmt 4.6, Leading zero omitted, Abs format (unit mm)*
G04 Created by KiCad (PCBNEW (5.1.10)-1) date 2021-09-26 16:33:56*
%MOMM*%
%LPD*%
G01*
G04 APERTURE LIST*
G04 #@! TA.AperFunction,ComponentPad*
%ADD10R,1.524000X1.524000*%
G04 #@! TD*
G04 #@! TA.AperFunction,ComponentPad*
%ADD11C,1.524000*%
G04 #@! TD*
G04 #@! TA.AperFunction,ComponentPad*
%ADD12R,1.800000X1.800000*%
G04 #@! TD*
G04 #@! TA.AperFunction,ComponentPad*
%ADD13O,1.800000X1.800000*%
G04 #@! TD*
G04 #@! TA.AperFunction,ComponentPad*
%ADD14R,1.800000X2.800000*%
G04 #@! TD*
G04 #@! TA.AperFunction,ComponentPad*
%ADD15R,1.700000X1.700000*%
G04 #@! TD*
G04 #@! TA.AperFunction,ComponentPad*
%ADD16O,1.700000X1.700000*%
G04 #@! TD*
G04 #@! TA.AperFunction,ComponentPad*
%ADD17C,2.600000*%
G04 #@! TD*
G04 #@! TA.AperFunction,ComponentPad*
%ADD18O,1.905000X2.000000*%
G04 #@! TD*
G04 #@! TA.AperFunction,ComponentPad*
%ADD19R,1.905000X2.000000*%
G04 #@! TD*
G04 #@! TA.AperFunction,ComponentPad*
%ADD20C,1.600000*%
G04 #@! TD*
G04 #@! TA.AperFunction,ComponentPad*
%ADD21O,1.600000X1.600000*%
G04 #@! TD*
G04 #@! TA.AperFunction,ComponentPad*
%ADD22O,2.200000X2.200000*%
G04 #@! TD*
G04 #@! TA.AperFunction,ComponentPad*
%ADD23R,2.200000X2.200000*%
G04 #@! TD*
G04 #@! TA.AperFunction,ComponentPad*
%ADD24C,3.000000*%
G04 #@! TD*
G04 #@! TA.AperFunction,ComponentPad*
%ADD25C,6.400000*%
G04 #@! TD*
G04 #@! TA.AperFunction,ComponentPad*
%ADD26C,2.000000*%
G04 #@! TD*
G04 #@! TA.AperFunction,ComponentPad*
%ADD27R,3.500000X3.500000*%
G04 #@! TD*
G04 #@! TA.AperFunction,ComponentPad*
%ADD28R,1.600000X1.600000*%
G04 #@! TD*
G04 #@! TA.AperFunction,ViaPad*
%ADD29C,0.800000*%
G04 #@! TD*
G04 #@! TA.AperFunction,Conductor*
%ADD30C,1.000000*%
G04 #@! TD*
G04 #@! TA.AperFunction,Conductor*
%ADD31C,0.700000*%
G04 #@! TD*
G04 #@! TA.AperFunction,Conductor*
%ADD32C,0.300000*%
G04 #@! TD*
G04 #@! TA.AperFunction,Conductor*
%ADD33C,0.254000*%
G04 #@! TD*
G04 #@! TA.AperFunction,Conductor*
%ADD34C,0.100000*%
G04 #@! TD*
G04 APERTURE END LIST*
D10*
X220980000Y-100965000D03*
X205740000Y-100965000D03*
D11*
X210820000Y-100965000D03*
X218440000Y-100965000D03*
X208280000Y-100965000D03*
X223520000Y-100965000D03*
X215900000Y-100965000D03*
X213360000Y-100965000D03*
X226060000Y-100965000D03*
X228600000Y-100965000D03*
X236220000Y-100965000D03*
X241300000Y-100965000D03*
X238760000Y-100965000D03*
X233680000Y-100965000D03*
X231140000Y-100965000D03*
X251460000Y-100965000D03*
X248920000Y-100965000D03*
X246380000Y-100965000D03*
X243840000Y-100965000D03*
X251460000Y-126365000D03*
X248920000Y-126365000D03*
X246380000Y-126365000D03*
X243840000Y-126365000D03*
X241300000Y-126365000D03*
D10*
X238760000Y-126365000D03*
D11*
X236220000Y-126365000D03*
X233680000Y-126365000D03*
X231140000Y-126365000D03*
X228600000Y-126365000D03*
X226060000Y-126365000D03*
X223520000Y-126365000D03*
X220980000Y-126365000D03*
X218440000Y-126365000D03*
X215900000Y-126365000D03*
X213360000Y-126365000D03*
X210820000Y-126365000D03*
X208280000Y-126365000D03*
X205740000Y-126365000D03*
X251460000Y-103505000D03*
X248920000Y-103505000D03*
X223520000Y-103505000D03*
X238760000Y-103505000D03*
X226060000Y-103505000D03*
X228600000Y-103505000D03*
X218440000Y-103505000D03*
X210820000Y-103505000D03*
X233680000Y-103505000D03*
X243840000Y-103505000D03*
X208280000Y-103505000D03*
X246380000Y-103505000D03*
X231140000Y-103505000D03*
X241300000Y-103505000D03*
X213360000Y-103505000D03*
D10*
X205740000Y-103505000D03*
D11*
X215900000Y-103505000D03*
X236220000Y-103505000D03*
D10*
X220980000Y-103505000D03*
D12*
X189865000Y-131445000D03*
D13*
X197485000Y-133985000D03*
D14*
X189865000Y-133485000D03*
D13*
X197485000Y-131445000D03*
D15*
X241300000Y-93345000D03*
D16*
X203200000Y-93345000D03*
D15*
X200660000Y-93345000D03*
D17*
X181690000Y-146050000D03*
X186690000Y-146050000D03*
D18*
X207010000Y-143510000D03*
X209550000Y-143510000D03*
D19*
X212090000Y-143510000D03*
D20*
X248960000Y-129540000D03*
X251460000Y-129540000D03*
D21*
X184785000Y-123825000D03*
D20*
X174625000Y-123825000D03*
D21*
X218440000Y-93345000D03*
D20*
X208280000Y-93345000D03*
D22*
X167640000Y-149225000D03*
D23*
X167640000Y-139065000D03*
D22*
X182880000Y-139065000D03*
D23*
X172720000Y-139065000D03*
D22*
X240030000Y-139065000D03*
D23*
X229870000Y-139065000D03*
D22*
X241300000Y-133350000D03*
D23*
X251460000Y-133350000D03*
D16*
X192405000Y-94615000D03*
X192405000Y-92075000D03*
X189865000Y-94615000D03*
X189865000Y-92075000D03*
X187325000Y-94615000D03*
X187325000Y-92075000D03*
X184785000Y-94615000D03*
X184785000Y-92075000D03*
X182245000Y-94615000D03*
X182245000Y-92075000D03*
X179705000Y-94615000D03*
X179705000Y-92075000D03*
X177165000Y-94615000D03*
X177165000Y-92075000D03*
X174625000Y-94615000D03*
X174625000Y-92075000D03*
X172085000Y-94615000D03*
X172085000Y-92075000D03*
X169545000Y-94615000D03*
D15*
X169545000Y-92075000D03*
D24*
X204470000Y-135890000D03*
X244475000Y-139700000D03*
X167640000Y-133985000D03*
D25*
X248920000Y-147955000D03*
X160020000Y-147955000D03*
X160020000Y-94615000D03*
X248920000Y-94615000D03*
D26*
X229870000Y-149225000D03*
X229880000Y-144145000D03*
G04 #@! TA.AperFunction,ComponentPad*
G36*
G01*
X243065000Y-149705000D02*
X241315000Y-149705000D01*
G75*
G02*
X240440000Y-148830000I0J875000D01*
G01*
X240440000Y-147080000D01*
G75*
G02*
X241315000Y-146205000I875000J0D01*
G01*
X243065000Y-146205000D01*
G75*
G02*
X243940000Y-147080000I0J-875000D01*
G01*
X243940000Y-148830000D01*
G75*
G02*
X243065000Y-149705000I-875000J0D01*
G01*
G37*
G04 #@! TD.AperFunction*
G04 #@! TA.AperFunction,ComponentPad*
G36*
G01*
X238490000Y-152455000D02*
X236490000Y-152455000D01*
G75*
G02*
X235740000Y-151705000I0J750000D01*
G01*
X235740000Y-150205000D01*
G75*
G02*
X236490000Y-149455000I750000J0D01*
G01*
X238490000Y-149455000D01*
G75*
G02*
X239240000Y-150205000I0J-750000D01*
G01*
X239240000Y-151705000D01*
G75*
G02*
X238490000Y-152455000I-750000J0D01*
G01*
G37*
G04 #@! TD.AperFunction*
D27*
X237490000Y-144955000D03*
D20*
X174665000Y-120650000D03*
X177165000Y-120650000D03*
X173990000Y-146685000D03*
D28*
X173990000Y-144185000D03*
X193675000Y-147320000D03*
D20*
X193675000Y-149820000D03*
X185380000Y-120650000D03*
X182880000Y-120650000D03*
X193675000Y-141565000D03*
D28*
X193675000Y-139065000D03*
X223520000Y-146685000D03*
D20*
X223520000Y-149185000D03*
X224750000Y-143510000D03*
X222250000Y-143510000D03*
D29*
X180975000Y-111125000D03*
X220980000Y-111125000D03*
X205740000Y-111125000D03*
X205740000Y-109855000D03*
X223520016Y-109855016D03*
X205740000Y-112395000D03*
X218440000Y-112395000D03*
X189230000Y-114935000D03*
X187960000Y-114935000D03*
X186690000Y-114935000D03*
X171450000Y-114935000D03*
X172720000Y-114935000D03*
X173990000Y-114935000D03*
X175260000Y-114935000D03*
X190500000Y-114935000D03*
D30*
X193675000Y-127635000D02*
X193675000Y-139065000D01*
X189865000Y-123825000D02*
X193675000Y-127635000D01*
X184785000Y-123825000D02*
X189865000Y-123825000D01*
D31*
X203200000Y-112395000D02*
X203200000Y-93345000D01*
X210820000Y-120015000D02*
X203200000Y-112395000D01*
X210820000Y-126365000D02*
X210820000Y-120015000D01*
X200659990Y-93345010D02*
X200660000Y-93345000D01*
X200659990Y-113029990D02*
X200659990Y-93345010D01*
X205740000Y-118110000D02*
X200659990Y-113029990D01*
X205740000Y-126365000D02*
X205740000Y-118110000D01*
D32*
X220980000Y-111125000D02*
X220414315Y-111125000D01*
X220414315Y-111125000D02*
X205740000Y-111125000D01*
X223520000Y-109855000D02*
X223520016Y-109855016D01*
X205740000Y-109855000D02*
X223520000Y-109855000D01*
X205740000Y-112395000D02*
X218440000Y-112395000D01*
X189230000Y-114935000D02*
X187325000Y-113030000D01*
X187325000Y-113030000D02*
X187325000Y-94615000D01*
X187960000Y-114935000D02*
X184785000Y-111760000D01*
X184785000Y-111760000D02*
X184785000Y-94615000D01*
X186690000Y-114465002D02*
X182245000Y-110020002D01*
X186690000Y-114935000D02*
X186690000Y-114465002D01*
X182245000Y-110020002D02*
X182245000Y-94615000D01*
X172085000Y-114300000D02*
X171450000Y-114935000D01*
X172085000Y-94615000D02*
X172085000Y-114300000D01*
X174625000Y-113030000D02*
X172720000Y-114935000D01*
X174625000Y-94615000D02*
X174625000Y-113030000D01*
X177165000Y-111760000D02*
X173990000Y-114935000D01*
X177165000Y-94615000D02*
X177165000Y-111760000D01*
X179705000Y-110490000D02*
X175260000Y-114935000D01*
X179705000Y-94615000D02*
X179705000Y-110490000D01*
X190500000Y-114935000D02*
X189865000Y-114300000D01*
X189865000Y-114300000D02*
X189865000Y-94615000D01*
D33*
X253340001Y-152375000D02*
X239877870Y-152375000D01*
X239875000Y-151240750D01*
X239716250Y-151082000D01*
X237617000Y-151082000D01*
X237617000Y-151102000D01*
X237363000Y-151102000D01*
X237363000Y-151082000D01*
X235263750Y-151082000D01*
X235105000Y-151240750D01*
X235102130Y-152375000D01*
X155600000Y-152375000D01*
X155600000Y-150655881D01*
X157498724Y-150655881D01*
X157858912Y-151145548D01*
X158522882Y-151505849D01*
X159244385Y-151729694D01*
X159995695Y-151808480D01*
X160747938Y-151739178D01*
X161472208Y-151524452D01*
X162140670Y-151172555D01*
X162181088Y-151145548D01*
X162541276Y-150655881D01*
X160020000Y-148134605D01*
X157498724Y-150655881D01*
X155600000Y-150655881D01*
X155600000Y-147930695D01*
X156166520Y-147930695D01*
X156235822Y-148682938D01*
X156450548Y-149407208D01*
X156802445Y-150075670D01*
X156829452Y-150116088D01*
X157319119Y-150476276D01*
X159840395Y-147955000D01*
X160199605Y-147955000D01*
X162720881Y-150476276D01*
X163210548Y-150116088D01*
X163479139Y-149621123D01*
X165950821Y-149621123D01*
X166060558Y-149943054D01*
X166230992Y-150237391D01*
X166455573Y-150492822D01*
X166725671Y-150699531D01*
X167030906Y-150849575D01*
X167243878Y-150914175D01*
X167513000Y-150796125D01*
X167513000Y-149352000D01*
X167767000Y-149352000D01*
X167767000Y-150796125D01*
X168036122Y-150914175D01*
X168249094Y-150849575D01*
X168324104Y-150812702D01*
X192861903Y-150812702D01*
X192933486Y-151056671D01*
X193188996Y-151177571D01*
X193463184Y-151246300D01*
X193745512Y-151260217D01*
X194025130Y-151218787D01*
X194291292Y-151123603D01*
X194416514Y-151056671D01*
X194488097Y-150812702D01*
X193675000Y-149999605D01*
X192861903Y-150812702D01*
X168324104Y-150812702D01*
X168554329Y-150699531D01*
X168824427Y-150492822D01*
X169049008Y-150237391D01*
X169219442Y-149943054D01*
X169237352Y-149890512D01*
X192234783Y-149890512D01*
X192276213Y-150170130D01*
X192371397Y-150436292D01*
X192438329Y-150561514D01*
X192682298Y-150633097D01*
X193495395Y-149820000D01*
X193854605Y-149820000D01*
X194667702Y-150633097D01*
X194911671Y-150561514D01*
X195032571Y-150306004D01*
X195064731Y-150177702D01*
X222706903Y-150177702D01*
X222778486Y-150421671D01*
X223033996Y-150542571D01*
X223308184Y-150611300D01*
X223590512Y-150625217D01*
X223870130Y-150583787D01*
X224136292Y-150488603D01*
X224261514Y-150421671D01*
X224333097Y-150177702D01*
X223520000Y-149364605D01*
X222706903Y-150177702D01*
X195064731Y-150177702D01*
X195101300Y-150031816D01*
X195115217Y-149749488D01*
X195073787Y-149469870D01*
X194978603Y-149203708D01*
X194911671Y-149078486D01*
X194667702Y-149006903D01*
X193854605Y-149820000D01*
X193495395Y-149820000D01*
X192682298Y-149006903D01*
X192438329Y-149078486D01*
X192317429Y-149333996D01*
X192248700Y-149608184D01*
X192234783Y-149890512D01*
X169237352Y-149890512D01*
X169329179Y-149621123D01*
X169211600Y-149352000D01*
X167767000Y-149352000D01*
X167513000Y-149352000D01*
X166068400Y-149352000D01*
X165950821Y-149621123D01*
X163479139Y-149621123D01*
X163570849Y-149452118D01*
X163764208Y-148828877D01*
X165950821Y-148828877D01*
X166068400Y-149098000D01*
X167513000Y-149098000D01*
X167513000Y-147653875D01*
X167767000Y-147653875D01*
X167767000Y-149098000D01*
X169211600Y-149098000D01*
X169329179Y-148828877D01*
X169219442Y-148506946D01*
X169049008Y-148212609D01*
X168824427Y-147957178D01*
X168554329Y-147750469D01*
X168406299Y-147677702D01*
X173176903Y-147677702D01*
X173248486Y-147921671D01*
X173503996Y-148042571D01*
X173778184Y-148111300D01*
X174060512Y-148125217D01*
X174340130Y-148083787D01*
X174606292Y-147988603D01*
X174731514Y-147921671D01*
X174803097Y-147677702D01*
X173990000Y-146864605D01*
X173176903Y-147677702D01*
X168406299Y-147677702D01*
X168249094Y-147600425D01*
X168036122Y-147535825D01*
X167767000Y-147653875D01*
X167513000Y-147653875D01*
X167243878Y-147535825D01*
X167030906Y-147600425D01*
X166725671Y-147750469D01*
X166455573Y-147957178D01*
X166230992Y-148212609D01*
X166060558Y-148506946D01*
X165950821Y-148828877D01*
X163764208Y-148828877D01*
X163794694Y-148730615D01*
X163873480Y-147979305D01*
X163804178Y-147227062D01*
X163664377Y-146755512D01*
X172549783Y-146755512D01*
X172591213Y-147035130D01*
X172686397Y-147301292D01*
X172753329Y-147426514D01*
X172997298Y-147498097D01*
X173810395Y-146685000D01*
X174169605Y-146685000D01*
X174982702Y-147498097D01*
X175226671Y-147426514D01*
X175347571Y-147171004D01*
X175416300Y-146896816D01*
X175430217Y-146614488D01*
X175388787Y-146334870D01*
X175293603Y-146068708D01*
X175226671Y-145943486D01*
X174982702Y-145871903D01*
X174169605Y-146685000D01*
X173810395Y-146685000D01*
X172997298Y-145871903D01*
X172753329Y-145943486D01*
X172632429Y-146198996D01*
X172563700Y-146473184D01*
X172549783Y-146755512D01*
X163664377Y-146755512D01*
X163589452Y-146502792D01*
X163237555Y-145834330D01*
X163210548Y-145793912D01*
X162720881Y-145433724D01*
X160199605Y-147955000D01*
X159840395Y-147955000D01*
X157319119Y-145433724D01*
X156829452Y-145793912D01*
X156469151Y-146457882D01*
X156245306Y-147179385D01*
X156166520Y-147930695D01*
X155600000Y-147930695D01*
X155600000Y-145254119D01*
X157498724Y-145254119D01*
X160020000Y-147775395D01*
X162541276Y-145254119D01*
X162181088Y-144764452D01*
X161517118Y-144404151D01*
X160795615Y-144180306D01*
X160044305Y-144101520D01*
X159292062Y-144170822D01*
X158567792Y-144385548D01*
X157899330Y-144737445D01*
X157858912Y-144764452D01*
X157498724Y-145254119D01*
X155600000Y-145254119D01*
X155600000Y-143385000D01*
X172551928Y-143385000D01*
X172551928Y-144985000D01*
X172564188Y-145109482D01*
X172600498Y-145229180D01*
X172659463Y-145339494D01*
X172738815Y-145436185D01*
X172835506Y-145515537D01*
X172945820Y-145574502D01*
X173065518Y-145610812D01*
X173190000Y-145623072D01*
X173197215Y-145623072D01*
X173176903Y-145692298D01*
X173990000Y-146505395D01*
X174635976Y-145859419D01*
X179755000Y-145859419D01*
X179755000Y-146240581D01*
X179829361Y-146614419D01*
X179975225Y-146966566D01*
X180186987Y-147283491D01*
X180456509Y-147553013D01*
X180773434Y-147764775D01*
X181125581Y-147910639D01*
X181499419Y-147985000D01*
X181880581Y-147985000D01*
X182254419Y-147910639D01*
X182606566Y-147764775D01*
X182923491Y-147553013D01*
X183193013Y-147283491D01*
X183404775Y-146966566D01*
X183550639Y-146614419D01*
X183625000Y-146240581D01*
X183625000Y-145859419D01*
X184755000Y-145859419D01*
X184755000Y-146240581D01*
X184829361Y-146614419D01*
X184975225Y-146966566D01*
X185186987Y-147283491D01*
X185456509Y-147553013D01*
X185773434Y-147764775D01*
X186125581Y-147910639D01*
X186499419Y-147985000D01*
X186880581Y-147985000D01*
X187254419Y-147910639D01*
X187606566Y-147764775D01*
X187923491Y-147553013D01*
X188193013Y-147283491D01*
X188404775Y-146966566D01*
X188550639Y-146614419D01*
X188569420Y-146520000D01*
X192236928Y-146520000D01*
X192236928Y-148120000D01*
X192249188Y-148244482D01*
X192285498Y-148364180D01*
X192344463Y-148474494D01*
X192423815Y-148571185D01*
X192520506Y-148650537D01*
X192630820Y-148709502D01*
X192750518Y-148745812D01*
X192875000Y-148758072D01*
X192882215Y-148758072D01*
X192861903Y-148827298D01*
X193675000Y-149640395D01*
X194488097Y-148827298D01*
X194467785Y-148758072D01*
X194475000Y-148758072D01*
X194599482Y-148745812D01*
X194719180Y-148709502D01*
X194829494Y-148650537D01*
X194926185Y-148571185D01*
X195005537Y-148474494D01*
X195016098Y-148454736D01*
X208176645Y-148454736D01*
X208176645Y-148725264D01*
X208229422Y-148990593D01*
X208332949Y-149240527D01*
X208483246Y-149465463D01*
X208674537Y-149656754D01*
X208899473Y-149807051D01*
X209149407Y-149910578D01*
X209414736Y-149963355D01*
X209685264Y-149963355D01*
X209950593Y-149910578D01*
X210200527Y-149807051D01*
X210425463Y-149656754D01*
X210616754Y-149465463D01*
X210757038Y-149255512D01*
X222079783Y-149255512D01*
X222121213Y-149535130D01*
X222216397Y-149801292D01*
X222283329Y-149926514D01*
X222527298Y-149998097D01*
X223340395Y-149185000D01*
X223699605Y-149185000D01*
X224512702Y-149998097D01*
X224756671Y-149926514D01*
X224877571Y-149671004D01*
X224946300Y-149396816D01*
X224960217Y-149114488D01*
X224952732Y-149063967D01*
X228235000Y-149063967D01*
X228235000Y-149386033D01*
X228297832Y-149701912D01*
X228421082Y-149999463D01*
X228600013Y-150267252D01*
X228827748Y-150494987D01*
X229095537Y-150673918D01*
X229393088Y-150797168D01*
X229708967Y-150860000D01*
X230031033Y-150860000D01*
X230346912Y-150797168D01*
X230644463Y-150673918D01*
X230912252Y-150494987D01*
X231139987Y-150267252D01*
X231318918Y-149999463D01*
X231442168Y-149701912D01*
X231491281Y-149455000D01*
X235101928Y-149455000D01*
X235105000Y-150669250D01*
X235263750Y-150828000D01*
X237363000Y-150828000D01*
X237363000Y-148978750D01*
X237617000Y-148978750D01*
X237617000Y-150828000D01*
X239716250Y-150828000D01*
X239875000Y-150669250D01*
X239875033Y-150655881D01*
X246398724Y-150655881D01*
X246758912Y-151145548D01*
X247422882Y-151505849D01*
X248144385Y-151729694D01*
X248895695Y-151808480D01*
X249647938Y-151739178D01*
X250372208Y-151524452D01*
X251040670Y-151172555D01*
X251081088Y-151145548D01*
X251441276Y-150655881D01*
X248920000Y-148134605D01*
X246398724Y-150655881D01*
X239875033Y-150655881D01*
X239878072Y-149455000D01*
X239865812Y-149330518D01*
X239829502Y-149210820D01*
X239770537Y-149100506D01*
X239691185Y-149003815D01*
X239594494Y-148924463D01*
X239484180Y-148865498D01*
X239364482Y-148829188D01*
X239240000Y-148816928D01*
X237775750Y-148820000D01*
X237617000Y-148978750D01*
X237363000Y-148978750D01*
X237204250Y-148820000D01*
X235740000Y-148816928D01*
X235615518Y-148829188D01*
X235495820Y-148865498D01*
X235385506Y-148924463D01*
X235288815Y-149003815D01*
X235209463Y-149100506D01*
X235150498Y-149210820D01*
X235114188Y-149330518D01*
X235101928Y-149455000D01*
X231491281Y-149455000D01*
X231505000Y-149386033D01*
X231505000Y-149063967D01*
X231442168Y-148748088D01*
X231318918Y-148450537D01*
X231139987Y-148182748D01*
X230912252Y-147955013D01*
X230644463Y-147776082D01*
X230346912Y-147652832D01*
X230031033Y-147590000D01*
X229708967Y-147590000D01*
X229393088Y-147652832D01*
X229095537Y-147776082D01*
X228827748Y-147955013D01*
X228600013Y-148182748D01*
X228421082Y-148450537D01*
X228297832Y-148748088D01*
X228235000Y-149063967D01*
X224952732Y-149063967D01*
X224918787Y-148834870D01*
X224823603Y-148568708D01*
X224756671Y-148443486D01*
X224512702Y-148371903D01*
X223699605Y-149185000D01*
X223340395Y-149185000D01*
X222527298Y-148371903D01*
X222283329Y-148443486D01*
X222162429Y-148698996D01*
X222093700Y-148973184D01*
X222079783Y-149255512D01*
X210757038Y-149255512D01*
X210767051Y-149240527D01*
X210870578Y-148990593D01*
X210923355Y-148725264D01*
X210923355Y-148454736D01*
X210870578Y-148189407D01*
X210767051Y-147939473D01*
X210616754Y-147714537D01*
X210425463Y-147523246D01*
X210200527Y-147372949D01*
X209950593Y-147269422D01*
X209685264Y-147216645D01*
X209414736Y-147216645D01*
X209149407Y-147269422D01*
X208899473Y-147372949D01*
X208674537Y-147523246D01*
X208483246Y-147714537D01*
X208332949Y-147939473D01*
X208229422Y-148189407D01*
X208176645Y-148454736D01*
X195016098Y-148454736D01*
X195064502Y-148364180D01*
X195100812Y-148244482D01*
X195113072Y-148120000D01*
X195113072Y-146520000D01*
X195100812Y-146395518D01*
X195064502Y-146275820D01*
X195005537Y-146165506D01*
X194926185Y-146068815D01*
X194829494Y-145989463D01*
X194719180Y-145930498D01*
X194599482Y-145894188D01*
X194506192Y-145885000D01*
X222081928Y-145885000D01*
X222081928Y-147485000D01*
X222094188Y-147609482D01*
X222130498Y-147729180D01*
X222189463Y-147839494D01*
X222268815Y-147936185D01*
X222365506Y-148015537D01*
X222475820Y-148074502D01*
X222595518Y-148110812D01*
X222720000Y-148123072D01*
X222727215Y-148123072D01*
X222706903Y-148192298D01*
X223520000Y-149005395D01*
X224333097Y-148192298D01*
X224312785Y-148123072D01*
X224320000Y-148123072D01*
X224444482Y-148110812D01*
X224564180Y-148074502D01*
X224674494Y-148015537D01*
X224771185Y-147936185D01*
X224850537Y-147839494D01*
X224909502Y-147729180D01*
X224945812Y-147609482D01*
X224958072Y-147485000D01*
X224958072Y-145885000D01*
X224945812Y-145760518D01*
X224909502Y-145640820D01*
X224850537Y-145530506D01*
X224771185Y-145433815D01*
X224674494Y-145354463D01*
X224564180Y-145295498D01*
X224444482Y-145259188D01*
X224320000Y-145246928D01*
X222720000Y-145246928D01*
X222595518Y-145259188D01*
X222475820Y-145295498D01*
X222365506Y-145354463D01*
X222268815Y-145433815D01*
X222189463Y-145530506D01*
X222130498Y-145640820D01*
X222094188Y-145760518D01*
X222081928Y-145885000D01*
X194506192Y-145885000D01*
X194475000Y-145881928D01*
X192875000Y-145881928D01*
X192750518Y-145894188D01*
X192630820Y-145930498D01*
X192520506Y-145989463D01*
X192423815Y-146068815D01*
X192344463Y-146165506D01*
X192285498Y-146275820D01*
X192249188Y-146395518D01*
X192236928Y-146520000D01*
X188569420Y-146520000D01*
X188625000Y-146240581D01*
X188625000Y-145859419D01*
X188550639Y-145485581D01*
X188404775Y-145133434D01*
X188193013Y-144816509D01*
X187923491Y-144546987D01*
X187606566Y-144335225D01*
X187254419Y-144189361D01*
X186880581Y-144115000D01*
X186499419Y-144115000D01*
X186125581Y-144189361D01*
X185773434Y-144335225D01*
X185456509Y-144546987D01*
X185186987Y-144816509D01*
X184975225Y-145133434D01*
X184829361Y-145485581D01*
X184755000Y-145859419D01*
X183625000Y-145859419D01*
X183550639Y-145485581D01*
X183404775Y-145133434D01*
X183193013Y-144816509D01*
X182923491Y-144546987D01*
X182606566Y-144335225D01*
X182254419Y-144189361D01*
X181880581Y-144115000D01*
X181499419Y-144115000D01*
X181125581Y-144189361D01*
X180773434Y-144335225D01*
X180456509Y-144546987D01*
X180186987Y-144816509D01*
X179975225Y-145133434D01*
X179829361Y-145485581D01*
X179755000Y-145859419D01*
X174635976Y-145859419D01*
X174803097Y-145692298D01*
X174782785Y-145623072D01*
X174790000Y-145623072D01*
X174914482Y-145610812D01*
X175034180Y-145574502D01*
X175144494Y-145515537D01*
X175241185Y-145436185D01*
X175320537Y-145339494D01*
X175379502Y-145229180D01*
X175415812Y-145109482D01*
X175428072Y-144985000D01*
X175428072Y-143385000D01*
X175428025Y-143384514D01*
X205422500Y-143384514D01*
X205422500Y-143635485D01*
X205445470Y-143868703D01*
X205536245Y-144167948D01*
X205683655Y-144443734D01*
X205882037Y-144685463D01*
X206123765Y-144883845D01*
X206399551Y-145031255D01*
X206698796Y-145122030D01*
X207010000Y-145152681D01*
X207321203Y-145122030D01*
X207620448Y-145031255D01*
X207896234Y-144883845D01*
X208137963Y-144685463D01*
X208285163Y-144506101D01*
X208440563Y-144691315D01*
X208683077Y-144885969D01*
X208958906Y-145029571D01*
X209177020Y-145100563D01*
X209423000Y-144980594D01*
X209423000Y-143637000D01*
X209403000Y-143637000D01*
X209403000Y-143383000D01*
X209423000Y-143383000D01*
X209423000Y-142039406D01*
X209677000Y-142039406D01*
X209677000Y-143383000D01*
X209697000Y-143383000D01*
X209697000Y-143637000D01*
X209677000Y-143637000D01*
X209677000Y-144980594D01*
X209922980Y-145100563D01*
X210141094Y-145029571D01*
X210416923Y-144885969D01*
X210557941Y-144772781D01*
X210606963Y-144864494D01*
X210686315Y-144961185D01*
X210783006Y-145040537D01*
X210893320Y-145099502D01*
X211013018Y-145135812D01*
X211137500Y-145148072D01*
X213042500Y-145148072D01*
X213166982Y-145135812D01*
X213286680Y-145099502D01*
X213396994Y-145040537D01*
X213493685Y-144961185D01*
X213573037Y-144864494D01*
X213632002Y-144754180D01*
X213668312Y-144634482D01*
X213680572Y-144510000D01*
X213680572Y-143368665D01*
X220815000Y-143368665D01*
X220815000Y-143651335D01*
X220870147Y-143928574D01*
X220978320Y-144189727D01*
X221135363Y-144424759D01*
X221335241Y-144624637D01*
X221570273Y-144781680D01*
X221831426Y-144889853D01*
X222108665Y-144945000D01*
X222391335Y-144945000D01*
X222668574Y-144889853D01*
X222929727Y-144781680D01*
X223164759Y-144624637D01*
X223286694Y-144502702D01*
X223936903Y-144502702D01*
X224008486Y-144746671D01*
X224263996Y-144867571D01*
X224538184Y-144936300D01*
X224820512Y-144950217D01*
X225100130Y-144908787D01*
X225366292Y-144813603D01*
X225491514Y-144746671D01*
X225563097Y-144502702D01*
X224750000Y-143689605D01*
X223936903Y-144502702D01*
X223286694Y-144502702D01*
X223364637Y-144424759D01*
X223498692Y-144224131D01*
X223513329Y-144251514D01*
X223757298Y-144323097D01*
X224570395Y-143510000D01*
X224929605Y-143510000D01*
X225742702Y-144323097D01*
X225986671Y-144251514D01*
X226107571Y-143996004D01*
X226110588Y-143983967D01*
X228245000Y-143983967D01*
X228245000Y-144306033D01*
X228307832Y-144621912D01*
X228431082Y-144919463D01*
X228610013Y-145187252D01*
X228837748Y-145414987D01*
X229105537Y-145593918D01*
X229403088Y-145717168D01*
X229718967Y-145780000D01*
X230041033Y-145780000D01*
X230356912Y-145717168D01*
X230654463Y-145593918D01*
X230922252Y-145414987D01*
X231149987Y-145187252D01*
X231328918Y-144919463D01*
X231452168Y-144621912D01*
X231515000Y-144306033D01*
X231515000Y-143983967D01*
X231452168Y-143668088D01*
X231328918Y-143370537D01*
X231218310Y-143205000D01*
X235101928Y-143205000D01*
X235101928Y-146705000D01*
X235114188Y-146829482D01*
X235150498Y-146949180D01*
X235209463Y-147059494D01*
X235288815Y-147156185D01*
X235385506Y-147235537D01*
X235495820Y-147294502D01*
X235615518Y-147330812D01*
X235740000Y-147343072D01*
X239240000Y-147343072D01*
X239364482Y-147330812D01*
X239484180Y-147294502D01*
X239594494Y-147235537D01*
X239691185Y-147156185D01*
X239770537Y-147059494D01*
X239811494Y-146982869D01*
X239801928Y-147080000D01*
X239801928Y-148830000D01*
X239831001Y-149125186D01*
X239917104Y-149409028D01*
X240056927Y-149670618D01*
X240245097Y-149899903D01*
X240474382Y-150088073D01*
X240735972Y-150227896D01*
X241019814Y-150313999D01*
X241315000Y-150343072D01*
X243065000Y-150343072D01*
X243360186Y-150313999D01*
X243644028Y-150227896D01*
X243905618Y-150088073D01*
X244134903Y-149899903D01*
X244323073Y-149670618D01*
X244462896Y-149409028D01*
X244548999Y-149125186D01*
X244578072Y-148830000D01*
X244578072Y-147930695D01*
X245066520Y-147930695D01*
X245135822Y-148682938D01*
X245350548Y-149407208D01*
X245702445Y-150075670D01*
X245729452Y-150116088D01*
X246219119Y-150476276D01*
X248740395Y-147955000D01*
X249099605Y-147955000D01*
X251620881Y-150476276D01*
X252110548Y-150116088D01*
X252470849Y-149452118D01*
X252694694Y-148730615D01*
X252773480Y-147979305D01*
X252704178Y-147227062D01*
X252489452Y-146502792D01*
X252137555Y-145834330D01*
X252110548Y-145793912D01*
X251620881Y-145433724D01*
X249099605Y-147955000D01*
X248740395Y-147955000D01*
X246219119Y-145433724D01*
X245729452Y-145793912D01*
X245369151Y-146457882D01*
X245145306Y-147179385D01*
X245066520Y-147930695D01*
X244578072Y-147930695D01*
X244578072Y-147080000D01*
X244548999Y-146784814D01*
X244462896Y-146500972D01*
X244323073Y-146239382D01*
X244134903Y-146010097D01*
X243905618Y-145821927D01*
X243644028Y-145682104D01*
X243360186Y-145596001D01*
X243065000Y-145566928D01*
X241315000Y-145566928D01*
X241019814Y-145596001D01*
X240735972Y-145682104D01*
X240474382Y-145821927D01*
X240245097Y-146010097D01*
X240056927Y-146239382D01*
X239917104Y-146500972D01*
X239878072Y-146629643D01*
X239878072Y-145254119D01*
X246398724Y-145254119D01*
X248920000Y-147775395D01*
X251441276Y-145254119D01*
X251081088Y-144764452D01*
X250417118Y-144404151D01*
X249695615Y-144180306D01*
X248944305Y-144101520D01*
X248192062Y-144170822D01*
X247467792Y-144385548D01*
X246799330Y-144737445D01*
X246758912Y-144764452D01*
X246398724Y-145254119D01*
X239878072Y-145254119D01*
X239878072Y-143205000D01*
X239865812Y-143080518D01*
X239829502Y-142960820D01*
X239770537Y-142850506D01*
X239691185Y-142753815D01*
X239594494Y-142674463D01*
X239484180Y-142615498D01*
X239364482Y-142579188D01*
X239240000Y-142566928D01*
X235740000Y-142566928D01*
X235615518Y-142579188D01*
X235495820Y-142615498D01*
X235385506Y-142674463D01*
X235288815Y-142753815D01*
X235209463Y-142850506D01*
X235150498Y-142960820D01*
X235114188Y-143080518D01*
X235101928Y-143205000D01*
X231218310Y-143205000D01*
X231149987Y-143102748D01*
X230922252Y-142875013D01*
X230654463Y-142696082D01*
X230356912Y-142572832D01*
X230041033Y-142510000D01*
X229718967Y-142510000D01*
X229403088Y-142572832D01*
X229105537Y-142696082D01*
X228837748Y-142875013D01*
X228610013Y-143102748D01*
X228431082Y-143370537D01*
X228307832Y-143668088D01*
X228245000Y-143983967D01*
X226110588Y-143983967D01*
X226176300Y-143721816D01*
X226190217Y-143439488D01*
X226148787Y-143159870D01*
X226053603Y-142893708D01*
X225986671Y-142768486D01*
X225742702Y-142696903D01*
X224929605Y-143510000D01*
X224570395Y-143510000D01*
X223757298Y-142696903D01*
X223513329Y-142768486D01*
X223499676Y-142797341D01*
X223364637Y-142595241D01*
X223286694Y-142517298D01*
X223936903Y-142517298D01*
X224750000Y-143330395D01*
X225563097Y-142517298D01*
X225491514Y-142273329D01*
X225236004Y-142152429D01*
X224961816Y-142083700D01*
X224679488Y-142069783D01*
X224399870Y-142111213D01*
X224133708Y-142206397D01*
X224008486Y-142273329D01*
X223936903Y-142517298D01*
X223286694Y-142517298D01*
X223164759Y-142395363D01*
X222929727Y-142238320D01*
X222668574Y-142130147D01*
X222391335Y-142075000D01*
X222108665Y-142075000D01*
X221831426Y-142130147D01*
X221570273Y-142238320D01*
X221335241Y-142395363D01*
X221135363Y-142595241D01*
X220978320Y-142830273D01*
X220870147Y-143091426D01*
X220815000Y-143368665D01*
X213680572Y-143368665D01*
X213680572Y-142510000D01*
X213668312Y-142385518D01*
X213632002Y-142265820D01*
X213573037Y-142155506D01*
X213493685Y-142058815D01*
X213396994Y-141979463D01*
X213286680Y-141920498D01*
X213166982Y-141884188D01*
X213042500Y-141871928D01*
X211137500Y-141871928D01*
X211013018Y-141884188D01*
X210893320Y-141920498D01*
X210783006Y-141979463D01*
X210686315Y-142058815D01*
X210606963Y-142155506D01*
X210557941Y-142247219D01*
X210416923Y-142134031D01*
X210141094Y-141990429D01*
X209922980Y-141919437D01*
X209677000Y-142039406D01*
X209423000Y-142039406D01*
X209177020Y-141919437D01*
X208958906Y-141990429D01*
X208683077Y-142134031D01*
X208440563Y-142328685D01*
X208285162Y-142513900D01*
X208137963Y-142334537D01*
X207896235Y-142136155D01*
X207620449Y-141988745D01*
X207321204Y-141897970D01*
X207010000Y-141867319D01*
X206698797Y-141897970D01*
X206399552Y-141988745D01*
X206123766Y-142136155D01*
X205882037Y-142334537D01*
X205683655Y-142576265D01*
X205536245Y-142852051D01*
X205445470Y-143151296D01*
X205422500Y-143384514D01*
X175428025Y-143384514D01*
X175415812Y-143260518D01*
X175379502Y-143140820D01*
X175320537Y-143030506D01*
X175241185Y-142933815D01*
X175144494Y-142854463D01*
X175034180Y-142795498D01*
X174914482Y-142759188D01*
X174790000Y-142746928D01*
X173190000Y-142746928D01*
X173065518Y-142759188D01*
X172945820Y-142795498D01*
X172835506Y-142854463D01*
X172738815Y-142933815D01*
X172659463Y-143030506D01*
X172600498Y-143140820D01*
X172564188Y-143260518D01*
X172551928Y-143385000D01*
X155600000Y-143385000D01*
X155600000Y-142557702D01*
X192861903Y-142557702D01*
X192933486Y-142801671D01*
X193188996Y-142922571D01*
X193463184Y-142991300D01*
X193745512Y-143005217D01*
X194025130Y-142963787D01*
X194291292Y-142868603D01*
X194416514Y-142801671D01*
X194488097Y-142557702D01*
X193675000Y-141744605D01*
X192861903Y-142557702D01*
X155600000Y-142557702D01*
X155600000Y-141635512D01*
X192234783Y-141635512D01*
X192276213Y-141915130D01*
X192371397Y-142181292D01*
X192438329Y-142306514D01*
X192682298Y-142378097D01*
X193495395Y-141565000D01*
X193854605Y-141565000D01*
X194667702Y-142378097D01*
X194911671Y-142306514D01*
X195032571Y-142051004D01*
X195101300Y-141776816D01*
X195115217Y-141494488D01*
X195073787Y-141214870D01*
X194978603Y-140948708D01*
X194911671Y-140823486D01*
X194667702Y-140751903D01*
X193854605Y-141565000D01*
X193495395Y-141565000D01*
X192682298Y-140751903D01*
X192438329Y-140823486D01*
X192317429Y-141078996D01*
X192248700Y-141353184D01*
X192234783Y-141635512D01*
X155600000Y-141635512D01*
X155600000Y-137965000D01*
X165901928Y-137965000D01*
X165901928Y-140165000D01*
X165914188Y-140289482D01*
X165950498Y-140409180D01*
X166009463Y-140519494D01*
X166088815Y-140616185D01*
X166185506Y-140695537D01*
X166295820Y-140754502D01*
X166415518Y-140790812D01*
X166540000Y-140803072D01*
X168740000Y-140803072D01*
X168864482Y-140790812D01*
X168984180Y-140754502D01*
X169094494Y-140695537D01*
X169191185Y-140616185D01*
X169270537Y-140519494D01*
X169329502Y-140409180D01*
X169365812Y-140289482D01*
X169378072Y-140165000D01*
X169378072Y-137965000D01*
X170981928Y-137965000D01*
X170981928Y-140165000D01*
X170994188Y-140289482D01*
X171030498Y-140409180D01*
X171089463Y-140519494D01*
X171168815Y-140616185D01*
X171265506Y-140695537D01*
X171375820Y-140754502D01*
X171495518Y-140790812D01*
X171620000Y-140803072D01*
X173820000Y-140803072D01*
X173944482Y-140790812D01*
X174064180Y-140754502D01*
X174174494Y-140695537D01*
X174271185Y-140616185D01*
X174350537Y-140519494D01*
X174409502Y-140409180D01*
X174445812Y-140289482D01*
X174458072Y-140165000D01*
X174458072Y-138894117D01*
X181145000Y-138894117D01*
X181145000Y-139235883D01*
X181211675Y-139571081D01*
X181342463Y-139886831D01*
X181532337Y-140170998D01*
X181774002Y-140412663D01*
X182058169Y-140602537D01*
X182373919Y-140733325D01*
X182709117Y-140800000D01*
X183050883Y-140800000D01*
X183386081Y-140733325D01*
X183701831Y-140602537D01*
X183985998Y-140412663D01*
X184227663Y-140170998D01*
X184417537Y-139886831D01*
X184548325Y-139571081D01*
X184615000Y-139235883D01*
X184615000Y-138894117D01*
X184548325Y-138558919D01*
X184417537Y-138243169D01*
X184227663Y-137959002D01*
X183985998Y-137717337D01*
X183701831Y-137527463D01*
X183386081Y-137396675D01*
X183050883Y-137330000D01*
X182709117Y-137330000D01*
X182373919Y-137396675D01*
X182058169Y-137527463D01*
X181774002Y-137717337D01*
X181532337Y-137959002D01*
X181342463Y-138243169D01*
X181211675Y-138558919D01*
X181145000Y-138894117D01*
X174458072Y-138894117D01*
X174458072Y-137965000D01*
X174445812Y-137840518D01*
X174409502Y-137720820D01*
X174350537Y-137610506D01*
X174271185Y-137513815D01*
X174174494Y-137434463D01*
X174064180Y-137375498D01*
X173944482Y-137339188D01*
X173820000Y-137326928D01*
X171620000Y-137326928D01*
X171495518Y-137339188D01*
X171375820Y-137375498D01*
X171265506Y-137434463D01*
X171168815Y-137513815D01*
X171089463Y-137610506D01*
X171030498Y-137720820D01*
X170994188Y-137840518D01*
X170981928Y-137965000D01*
X169378072Y-137965000D01*
X169365812Y-137840518D01*
X169329502Y-137720820D01*
X169270537Y-137610506D01*
X169191185Y-137513815D01*
X169094494Y-137434463D01*
X168984180Y-137375498D01*
X168864482Y-137339188D01*
X168740000Y-137326928D01*
X166540000Y-137326928D01*
X166415518Y-137339188D01*
X166295820Y-137375498D01*
X166185506Y-137434463D01*
X166088815Y-137513815D01*
X166009463Y-137610506D01*
X165950498Y-137720820D01*
X165914188Y-137840518D01*
X165901928Y-137965000D01*
X155600000Y-137965000D01*
X155600000Y-133774721D01*
X165505000Y-133774721D01*
X165505000Y-134195279D01*
X165587047Y-134607756D01*
X165747988Y-134996302D01*
X165981637Y-135345983D01*
X166279017Y-135643363D01*
X166628698Y-135877012D01*
X167017244Y-136037953D01*
X167429721Y-136120000D01*
X167850279Y-136120000D01*
X168262756Y-136037953D01*
X168651302Y-135877012D01*
X169000983Y-135643363D01*
X169298363Y-135345983D01*
X169532012Y-134996302D01*
X169692953Y-134607756D01*
X169775000Y-134195279D01*
X169775000Y-133774721D01*
X169692953Y-133362244D01*
X169532012Y-132973698D01*
X169298363Y-132624017D01*
X169000983Y-132326637D01*
X168651302Y-132092988D01*
X168262756Y-131932047D01*
X167850279Y-131850000D01*
X167429721Y-131850000D01*
X167017244Y-131932047D01*
X166628698Y-132092988D01*
X166279017Y-132326637D01*
X165981637Y-132624017D01*
X165747988Y-132973698D01*
X165587047Y-133362244D01*
X165505000Y-133774721D01*
X155600000Y-133774721D01*
X155600000Y-130545000D01*
X188326928Y-130545000D01*
X188326928Y-134885000D01*
X188339188Y-135009482D01*
X188375498Y-135129180D01*
X188434463Y-135239494D01*
X188513815Y-135336185D01*
X188610506Y-135415537D01*
X188720820Y-135474502D01*
X188840518Y-135510812D01*
X188965000Y-135523072D01*
X190765000Y-135523072D01*
X190889482Y-135510812D01*
X191009180Y-135474502D01*
X191119494Y-135415537D01*
X191216185Y-135336185D01*
X191295537Y-135239494D01*
X191354502Y-135129180D01*
X191390812Y-135009482D01*
X191403072Y-134885000D01*
X191403072Y-130545000D01*
X191390812Y-130420518D01*
X191354502Y-130300820D01*
X191295537Y-130190506D01*
X191216185Y-130093815D01*
X191119494Y-130014463D01*
X191009180Y-129955498D01*
X190889482Y-129919188D01*
X190765000Y-129906928D01*
X188965000Y-129906928D01*
X188840518Y-129919188D01*
X188720820Y-129955498D01*
X188610506Y-130014463D01*
X188513815Y-130093815D01*
X188434463Y-130190506D01*
X188375498Y-130300820D01*
X188339188Y-130420518D01*
X188326928Y-130545000D01*
X155600000Y-130545000D01*
X155600000Y-123683665D01*
X173190000Y-123683665D01*
X173190000Y-123966335D01*
X173245147Y-124243574D01*
X173353320Y-124504727D01*
X173510363Y-124739759D01*
X173710241Y-124939637D01*
X173945273Y-125096680D01*
X174206426Y-125204853D01*
X174483665Y-125260000D01*
X174766335Y-125260000D01*
X175043574Y-125204853D01*
X175304727Y-125096680D01*
X175539759Y-124939637D01*
X175739637Y-124739759D01*
X175896680Y-124504727D01*
X176004853Y-124243574D01*
X176060000Y-123966335D01*
X176060000Y-123683665D01*
X183350000Y-123683665D01*
X183350000Y-123966335D01*
X183405147Y-124243574D01*
X183513320Y-124504727D01*
X183670363Y-124739759D01*
X183870241Y-124939637D01*
X184105273Y-125096680D01*
X184366426Y-125204853D01*
X184643665Y-125260000D01*
X184926335Y-125260000D01*
X185203574Y-125204853D01*
X185464727Y-125096680D01*
X185669284Y-124960000D01*
X189394869Y-124960000D01*
X192540000Y-128105133D01*
X192540001Y-137724043D01*
X192520506Y-137734463D01*
X192423815Y-137813815D01*
X192344463Y-137910506D01*
X192285498Y-138020820D01*
X192249188Y-138140518D01*
X192236928Y-138265000D01*
X192236928Y-139865000D01*
X192249188Y-139989482D01*
X192285498Y-140109180D01*
X192344463Y-140219494D01*
X192423815Y-140316185D01*
X192520506Y-140395537D01*
X192630820Y-140454502D01*
X192750518Y-140490812D01*
X192875000Y-140503072D01*
X192882215Y-140503072D01*
X192861903Y-140572298D01*
X193675000Y-141385395D01*
X194488097Y-140572298D01*
X194467785Y-140503072D01*
X194475000Y-140503072D01*
X194599482Y-140490812D01*
X194719180Y-140454502D01*
X194829494Y-140395537D01*
X194926185Y-140316185D01*
X195005537Y-140219494D01*
X195064502Y-140109180D01*
X195100812Y-139989482D01*
X195113072Y-139865000D01*
X195113072Y-138265000D01*
X195100812Y-138140518D01*
X195064502Y-138020820D01*
X195005537Y-137910506D01*
X194926185Y-137813815D01*
X194829494Y-137734463D01*
X194810000Y-137724043D01*
X194810000Y-135679721D01*
X202335000Y-135679721D01*
X202335000Y-136100279D01*
X202417047Y-136512756D01*
X202577988Y-136901302D01*
X202811637Y-137250983D01*
X203109017Y-137548363D01*
X203458698Y-137782012D01*
X203847244Y-137942953D01*
X204259721Y-138025000D01*
X204680279Y-138025000D01*
X204981918Y-137965000D01*
X228131928Y-137965000D01*
X228131928Y-140165000D01*
X228144188Y-140289482D01*
X228180498Y-140409180D01*
X228239463Y-140519494D01*
X228318815Y-140616185D01*
X228415506Y-140695537D01*
X228525820Y-140754502D01*
X228645518Y-140790812D01*
X228770000Y-140803072D01*
X230970000Y-140803072D01*
X231094482Y-140790812D01*
X231214180Y-140754502D01*
X231324494Y-140695537D01*
X231421185Y-140616185D01*
X231500537Y-140519494D01*
X231559502Y-140409180D01*
X231595812Y-140289482D01*
X231608072Y-140165000D01*
X231608072Y-138894117D01*
X238295000Y-138894117D01*
X238295000Y-139235883D01*
X238361675Y-139571081D01*
X238492463Y-139886831D01*
X238682337Y-140170998D01*
X238924002Y-140412663D01*
X239208169Y-140602537D01*
X239523919Y-140733325D01*
X239859117Y-140800000D01*
X240200883Y-140800000D01*
X240536081Y-140733325D01*
X240851831Y-140602537D01*
X241135998Y-140412663D01*
X241377663Y-140170998D01*
X241567537Y-139886831D01*
X241698325Y-139571081D01*
X241714508Y-139489721D01*
X242340000Y-139489721D01*
X242340000Y-139910279D01*
X242422047Y-140322756D01*
X242582988Y-140711302D01*
X242816637Y-141060983D01*
X243114017Y-141358363D01*
X243463698Y-141592012D01*
X243852244Y-141752953D01*
X244264721Y-141835000D01*
X244685279Y-141835000D01*
X245097756Y-141752953D01*
X245486302Y-141592012D01*
X245835983Y-141358363D01*
X246133363Y-141060983D01*
X246367012Y-140711302D01*
X246527953Y-140322756D01*
X246610000Y-139910279D01*
X246610000Y-139489721D01*
X246527953Y-139077244D01*
X246367012Y-138688698D01*
X246133363Y-138339017D01*
X245835983Y-138041637D01*
X245486302Y-137807988D01*
X245097756Y-137647047D01*
X244685279Y-137565000D01*
X244264721Y-137565000D01*
X243852244Y-137647047D01*
X243463698Y-137807988D01*
X243114017Y-138041637D01*
X242816637Y-138339017D01*
X242582988Y-138688698D01*
X242422047Y-139077244D01*
X242340000Y-139489721D01*
X241714508Y-139489721D01*
X241765000Y-139235883D01*
X241765000Y-138894117D01*
X241698325Y-138558919D01*
X241567537Y-138243169D01*
X241377663Y-137959002D01*
X241135998Y-137717337D01*
X240851831Y-137527463D01*
X240536081Y-137396675D01*
X240200883Y-137330000D01*
X239859117Y-137330000D01*
X239523919Y-137396675D01*
X239208169Y-137527463D01*
X238924002Y-137717337D01*
X238682337Y-137959002D01*
X238492463Y-138243169D01*
X238361675Y-138558919D01*
X238295000Y-138894117D01*
X231608072Y-138894117D01*
X231608072Y-137965000D01*
X231595812Y-137840518D01*
X231559502Y-137720820D01*
X231500537Y-137610506D01*
X231421185Y-137513815D01*
X231324494Y-137434463D01*
X231214180Y-137375498D01*
X231094482Y-137339188D01*
X230970000Y-137326928D01*
X228770000Y-137326928D01*
X228645518Y-137339188D01*
X228525820Y-137375498D01*
X228415506Y-137434463D01*
X228318815Y-137513815D01*
X228239463Y-137610506D01*
X228180498Y-137720820D01*
X228144188Y-137840518D01*
X228131928Y-137965000D01*
X204981918Y-137965000D01*
X205092756Y-137942953D01*
X205481302Y-137782012D01*
X205830983Y-137548363D01*
X206128363Y-137250983D01*
X206362012Y-136901302D01*
X206522953Y-136512756D01*
X206605000Y-136100279D01*
X206605000Y-135679721D01*
X206522953Y-135267244D01*
X206362012Y-134878698D01*
X206128363Y-134529017D01*
X205830983Y-134231637D01*
X205481302Y-133997988D01*
X205092756Y-133837047D01*
X204680279Y-133755000D01*
X204259721Y-133755000D01*
X203847244Y-133837047D01*
X203458698Y-133997988D01*
X203109017Y-134231637D01*
X202811637Y-134529017D01*
X202577988Y-134878698D01*
X202417047Y-135267244D01*
X202335000Y-135679721D01*
X194810000Y-135679721D01*
X194810000Y-133833816D01*
X195950000Y-133833816D01*
X195950000Y-134136184D01*
X196008989Y-134432743D01*
X196124701Y-134712095D01*
X196292688Y-134963505D01*
X196506495Y-135177312D01*
X196757905Y-135345299D01*
X197037257Y-135461011D01*
X197333816Y-135520000D01*
X197636184Y-135520000D01*
X197932743Y-135461011D01*
X198212095Y-135345299D01*
X198463505Y-135177312D01*
X198677312Y-134963505D01*
X198845299Y-134712095D01*
X198961011Y-134432743D01*
X199020000Y-134136184D01*
X199020000Y-133833816D01*
X198961011Y-133537257D01*
X198845299Y-133257905D01*
X198792655Y-133179117D01*
X239565000Y-133179117D01*
X239565000Y-133520883D01*
X239631675Y-133856081D01*
X239762463Y-134171831D01*
X239952337Y-134455998D01*
X240194002Y-134697663D01*
X240478169Y-134887537D01*
X240793919Y-135018325D01*
X241129117Y-135085000D01*
X241470883Y-135085000D01*
X241806081Y-135018325D01*
X242121831Y-134887537D01*
X242405998Y-134697663D01*
X242647663Y-134455998D01*
X242837537Y-134171831D01*
X242968325Y-133856081D01*
X243035000Y-133520883D01*
X243035000Y-133179117D01*
X242968325Y-132843919D01*
X242837537Y-132528169D01*
X242651671Y-132250000D01*
X249721928Y-132250000D01*
X249721928Y-134450000D01*
X249734188Y-134574482D01*
X249770498Y-134694180D01*
X249829463Y-134804494D01*
X249908815Y-134901185D01*
X250005506Y-134980537D01*
X250115820Y-135039502D01*
X250235518Y-135075812D01*
X250360000Y-135088072D01*
X252560000Y-135088072D01*
X252684482Y-135075812D01*
X252804180Y-135039502D01*
X252914494Y-134980537D01*
X253011185Y-134901185D01*
X253090537Y-134804494D01*
X253149502Y-134694180D01*
X253185812Y-134574482D01*
X253198072Y-134450000D01*
X253198072Y-132250000D01*
X253185812Y-132125518D01*
X253149502Y-132005820D01*
X253090537Y-131895506D01*
X253011185Y-131798815D01*
X252914494Y-131719463D01*
X252804180Y-131660498D01*
X252684482Y-131624188D01*
X252560000Y-131611928D01*
X250360000Y-131611928D01*
X250235518Y-131624188D01*
X250115820Y-131660498D01*
X250005506Y-131719463D01*
X249908815Y-131798815D01*
X249829463Y-131895506D01*
X249770498Y-132005820D01*
X249734188Y-132125518D01*
X249721928Y-132250000D01*
X242651671Y-132250000D01*
X242647663Y-132244002D01*
X242405998Y-132002337D01*
X242121831Y-131812463D01*
X241806081Y-131681675D01*
X241470883Y-131615000D01*
X241129117Y-131615000D01*
X240793919Y-131681675D01*
X240478169Y-131812463D01*
X240194002Y-132002337D01*
X239952337Y-132244002D01*
X239762463Y-132528169D01*
X239631675Y-132843919D01*
X239565000Y-133179117D01*
X198792655Y-133179117D01*
X198677312Y-133006495D01*
X198463505Y-132792688D01*
X198343107Y-132712241D01*
X198392573Y-132682962D01*
X198616649Y-132482116D01*
X198797236Y-132241414D01*
X198927394Y-131970107D01*
X198976036Y-131809740D01*
X198855378Y-131572000D01*
X197612000Y-131572000D01*
X197612000Y-131592000D01*
X197358000Y-131592000D01*
X197358000Y-131572000D01*
X196114622Y-131572000D01*
X195993964Y-131809740D01*
X196042606Y-131970107D01*
X196172764Y-132241414D01*
X196353351Y-132482116D01*
X196577427Y-132682962D01*
X196626893Y-132712241D01*
X196506495Y-132792688D01*
X196292688Y-133006495D01*
X196124701Y-133257905D01*
X196008989Y-133537257D01*
X195950000Y-133833816D01*
X194810000Y-133833816D01*
X194810000Y-131080260D01*
X195993964Y-131080260D01*
X196114622Y-131318000D01*
X197358000Y-131318000D01*
X197358000Y-130074008D01*
X197612000Y-130074008D01*
X197612000Y-131318000D01*
X198855378Y-131318000D01*
X198976036Y-131080260D01*
X198927394Y-130919893D01*
X198797236Y-130648586D01*
X198710294Y-130532702D01*
X248146903Y-130532702D01*
X248218486Y-130776671D01*
X248473996Y-130897571D01*
X248748184Y-130966300D01*
X249030512Y-130980217D01*
X249310130Y-130938787D01*
X249576292Y-130843603D01*
X249701514Y-130776671D01*
X249773097Y-130532702D01*
X248960000Y-129719605D01*
X248146903Y-130532702D01*
X198710294Y-130532702D01*
X198616649Y-130407884D01*
X198392573Y-130207038D01*
X198133620Y-130053766D01*
X197849741Y-129953959D01*
X197612000Y-130074008D01*
X197358000Y-130074008D01*
X197120259Y-129953959D01*
X196836380Y-130053766D01*
X196577427Y-130207038D01*
X196353351Y-130407884D01*
X196172764Y-130648586D01*
X196042606Y-130919893D01*
X195993964Y-131080260D01*
X194810000Y-131080260D01*
X194810000Y-129610512D01*
X247519783Y-129610512D01*
X247561213Y-129890130D01*
X247656397Y-130156292D01*
X247723329Y-130281514D01*
X247967298Y-130353097D01*
X248780395Y-129540000D01*
X249139605Y-129540000D01*
X249952702Y-130353097D01*
X250196671Y-130281514D01*
X250210324Y-130252659D01*
X250345363Y-130454759D01*
X250545241Y-130654637D01*
X250780273Y-130811680D01*
X251041426Y-130919853D01*
X251318665Y-130975000D01*
X251601335Y-130975000D01*
X251878574Y-130919853D01*
X252139727Y-130811680D01*
X252374759Y-130654637D01*
X252574637Y-130454759D01*
X252731680Y-130219727D01*
X252839853Y-129958574D01*
X252895000Y-129681335D01*
X252895000Y-129398665D01*
X252839853Y-129121426D01*
X252731680Y-128860273D01*
X252574637Y-128625241D01*
X252374759Y-128425363D01*
X252139727Y-128268320D01*
X251878574Y-128160147D01*
X251601335Y-128105000D01*
X251318665Y-128105000D01*
X251041426Y-128160147D01*
X250780273Y-128268320D01*
X250545241Y-128425363D01*
X250345363Y-128625241D01*
X250211308Y-128825869D01*
X250196671Y-128798486D01*
X249952702Y-128726903D01*
X249139605Y-129540000D01*
X248780395Y-129540000D01*
X247967298Y-128726903D01*
X247723329Y-128798486D01*
X247602429Y-129053996D01*
X247533700Y-129328184D01*
X247519783Y-129610512D01*
X194810000Y-129610512D01*
X194810000Y-128547298D01*
X248146903Y-128547298D01*
X248960000Y-129360395D01*
X249773097Y-128547298D01*
X249701514Y-128303329D01*
X249446004Y-128182429D01*
X249171816Y-128113700D01*
X248889488Y-128099783D01*
X248609870Y-128141213D01*
X248343708Y-128236397D01*
X248218486Y-128303329D01*
X248146903Y-128547298D01*
X194810000Y-128547298D01*
X194810000Y-127690752D01*
X194815491Y-127635000D01*
X194793577Y-127412501D01*
X194728676Y-127198553D01*
X194623284Y-127001377D01*
X194516989Y-126871856D01*
X194516987Y-126871854D01*
X194481449Y-126828551D01*
X194438146Y-126793013D01*
X190706996Y-123061865D01*
X190671449Y-123018551D01*
X190498623Y-122876716D01*
X190301447Y-122771324D01*
X190087499Y-122706423D01*
X189920752Y-122690000D01*
X189920751Y-122690000D01*
X189865000Y-122684509D01*
X189809249Y-122690000D01*
X185669284Y-122690000D01*
X185464727Y-122553320D01*
X185203574Y-122445147D01*
X184926335Y-122390000D01*
X184643665Y-122390000D01*
X184366426Y-122445147D01*
X184105273Y-122553320D01*
X183870241Y-122710363D01*
X183670363Y-122910241D01*
X183513320Y-123145273D01*
X183405147Y-123406426D01*
X183350000Y-123683665D01*
X176060000Y-123683665D01*
X176004853Y-123406426D01*
X175896680Y-123145273D01*
X175739637Y-122910241D01*
X175539759Y-122710363D01*
X175304727Y-122553320D01*
X175043574Y-122445147D01*
X174766335Y-122390000D01*
X174483665Y-122390000D01*
X174206426Y-122445147D01*
X173945273Y-122553320D01*
X173710241Y-122710363D01*
X173510363Y-122910241D01*
X173353320Y-123145273D01*
X173245147Y-123406426D01*
X173190000Y-123683665D01*
X155600000Y-123683665D01*
X155600000Y-121642702D01*
X173851903Y-121642702D01*
X173923486Y-121886671D01*
X174178996Y-122007571D01*
X174453184Y-122076300D01*
X174735512Y-122090217D01*
X175015130Y-122048787D01*
X175281292Y-121953603D01*
X175406514Y-121886671D01*
X175478097Y-121642702D01*
X174665000Y-120829605D01*
X173851903Y-121642702D01*
X155600000Y-121642702D01*
X155600000Y-120720512D01*
X173224783Y-120720512D01*
X173266213Y-121000130D01*
X173361397Y-121266292D01*
X173428329Y-121391514D01*
X173672298Y-121463097D01*
X174485395Y-120650000D01*
X174844605Y-120650000D01*
X175657702Y-121463097D01*
X175901671Y-121391514D01*
X175915324Y-121362659D01*
X176050363Y-121564759D01*
X176250241Y-121764637D01*
X176485273Y-121921680D01*
X176746426Y-122029853D01*
X177023665Y-122085000D01*
X177306335Y-122085000D01*
X177583574Y-122029853D01*
X177844727Y-121921680D01*
X178079759Y-121764637D01*
X178279637Y-121564759D01*
X178436680Y-121329727D01*
X178544853Y-121068574D01*
X178600000Y-120791335D01*
X178600000Y-120508665D01*
X181445000Y-120508665D01*
X181445000Y-120791335D01*
X181500147Y-121068574D01*
X181608320Y-121329727D01*
X181765363Y-121564759D01*
X181965241Y-121764637D01*
X182200273Y-121921680D01*
X182461426Y-122029853D01*
X182738665Y-122085000D01*
X183021335Y-122085000D01*
X183298574Y-122029853D01*
X183559727Y-121921680D01*
X183794759Y-121764637D01*
X183916694Y-121642702D01*
X184566903Y-121642702D01*
X184638486Y-121886671D01*
X184893996Y-122007571D01*
X185168184Y-122076300D01*
X185450512Y-122090217D01*
X185730130Y-122048787D01*
X185996292Y-121953603D01*
X186121514Y-121886671D01*
X186193097Y-121642702D01*
X185380000Y-120829605D01*
X184566903Y-121642702D01*
X183916694Y-121642702D01*
X183994637Y-121564759D01*
X184128692Y-121364131D01*
X184143329Y-121391514D01*
X184387298Y-121463097D01*
X185200395Y-120650000D01*
X185559605Y-120650000D01*
X186372702Y-121463097D01*
X186616671Y-121391514D01*
X186737571Y-121136004D01*
X186806300Y-120861816D01*
X186820217Y-120579488D01*
X186778787Y-120299870D01*
X186683603Y-120033708D01*
X186616671Y-119908486D01*
X186372702Y-119836903D01*
X185559605Y-120650000D01*
X185200395Y-120650000D01*
X184387298Y-119836903D01*
X184143329Y-119908486D01*
X184129676Y-119937341D01*
X183994637Y-119735241D01*
X183916694Y-119657298D01*
X184566903Y-119657298D01*
X185380000Y-120470395D01*
X186193097Y-119657298D01*
X186121514Y-119413329D01*
X185866004Y-119292429D01*
X185591816Y-119223700D01*
X185309488Y-119209783D01*
X185029870Y-119251213D01*
X184763708Y-119346397D01*
X184638486Y-119413329D01*
X184566903Y-119657298D01*
X183916694Y-119657298D01*
X183794759Y-119535363D01*
X183559727Y-119378320D01*
X183298574Y-119270147D01*
X183021335Y-119215000D01*
X182738665Y-119215000D01*
X182461426Y-119270147D01*
X182200273Y-119378320D01*
X181965241Y-119535363D01*
X181765363Y-119735241D01*
X181608320Y-119970273D01*
X181500147Y-120231426D01*
X181445000Y-120508665D01*
X178600000Y-120508665D01*
X178544853Y-120231426D01*
X178436680Y-119970273D01*
X178279637Y-119735241D01*
X178079759Y-119535363D01*
X177844727Y-119378320D01*
X177583574Y-119270147D01*
X177306335Y-119215000D01*
X177023665Y-119215000D01*
X176746426Y-119270147D01*
X176485273Y-119378320D01*
X176250241Y-119535363D01*
X176050363Y-119735241D01*
X175916308Y-119935869D01*
X175901671Y-119908486D01*
X175657702Y-119836903D01*
X174844605Y-120650000D01*
X174485395Y-120650000D01*
X173672298Y-119836903D01*
X173428329Y-119908486D01*
X173307429Y-120163996D01*
X173238700Y-120438184D01*
X173224783Y-120720512D01*
X155600000Y-120720512D01*
X155600000Y-119657298D01*
X173851903Y-119657298D01*
X174665000Y-120470395D01*
X175478097Y-119657298D01*
X175406514Y-119413329D01*
X175151004Y-119292429D01*
X174876816Y-119223700D01*
X174594488Y-119209783D01*
X174314870Y-119251213D01*
X174048708Y-119346397D01*
X173923486Y-119413329D01*
X173851903Y-119657298D01*
X155600000Y-119657298D01*
X155600000Y-97315881D01*
X157498724Y-97315881D01*
X157858912Y-97805548D01*
X158522882Y-98165849D01*
X159244385Y-98389694D01*
X159995695Y-98468480D01*
X160747938Y-98399178D01*
X161472208Y-98184452D01*
X162140670Y-97832555D01*
X162181088Y-97805548D01*
X162541276Y-97315881D01*
X160020000Y-94794605D01*
X157498724Y-97315881D01*
X155600000Y-97315881D01*
X155600000Y-94590695D01*
X156166520Y-94590695D01*
X156235822Y-95342938D01*
X156450548Y-96067208D01*
X156802445Y-96735670D01*
X156829452Y-96776088D01*
X157319119Y-97136276D01*
X159840395Y-94615000D01*
X160199605Y-94615000D01*
X162720881Y-97136276D01*
X163210548Y-96776088D01*
X163570849Y-96112118D01*
X163794694Y-95390615D01*
X163838603Y-94971891D01*
X168103519Y-94971891D01*
X168200843Y-95246252D01*
X168349822Y-95496355D01*
X168544731Y-95712588D01*
X168778080Y-95886641D01*
X169040901Y-96011825D01*
X169188110Y-96056476D01*
X169418000Y-95935155D01*
X169418000Y-94742000D01*
X168224186Y-94742000D01*
X168103519Y-94971891D01*
X163838603Y-94971891D01*
X163873480Y-94639305D01*
X163804178Y-93887062D01*
X163589452Y-93162792D01*
X163237555Y-92494330D01*
X163210548Y-92453912D01*
X162720881Y-92093724D01*
X160199605Y-94615000D01*
X159840395Y-94615000D01*
X157319119Y-92093724D01*
X156829452Y-92453912D01*
X156469151Y-93117882D01*
X156245306Y-93839385D01*
X156166520Y-94590695D01*
X155600000Y-94590695D01*
X155600000Y-91914119D01*
X157498724Y-91914119D01*
X160020000Y-94435395D01*
X162541276Y-91914119D01*
X162181088Y-91424452D01*
X161813534Y-91225000D01*
X168056928Y-91225000D01*
X168056928Y-92925000D01*
X168069188Y-93049482D01*
X168105498Y-93169180D01*
X168164463Y-93279494D01*
X168243815Y-93376185D01*
X168340506Y-93455537D01*
X168450820Y-93514502D01*
X168526626Y-93537498D01*
X168349822Y-93733645D01*
X168200843Y-93983748D01*
X168103519Y-94258109D01*
X168224186Y-94488000D01*
X169418000Y-94488000D01*
X169418000Y-94468000D01*
X169672000Y-94468000D01*
X169672000Y-94488000D01*
X169692000Y-94488000D01*
X169692000Y-94742000D01*
X169672000Y-94742000D01*
X169672000Y-95935155D01*
X169901890Y-96056476D01*
X170049099Y-96011825D01*
X170311920Y-95886641D01*
X170545269Y-95712588D01*
X170740178Y-95496355D01*
X170809805Y-95379466D01*
X170931525Y-95561632D01*
X171138368Y-95768475D01*
X171300000Y-95876474D01*
X171300001Y-113909560D01*
X171148102Y-113939774D01*
X170959744Y-114017795D01*
X170790226Y-114131063D01*
X170646063Y-114275226D01*
X170532795Y-114444744D01*
X170454774Y-114633102D01*
X170415000Y-114833061D01*
X170415000Y-115036939D01*
X170454774Y-115236898D01*
X170532795Y-115425256D01*
X170646063Y-115594774D01*
X170790226Y-115738937D01*
X170959744Y-115852205D01*
X171148102Y-115930226D01*
X171348061Y-115970000D01*
X171551939Y-115970000D01*
X171751898Y-115930226D01*
X171940256Y-115852205D01*
X172085000Y-115755490D01*
X172229744Y-115852205D01*
X172418102Y-115930226D01*
X172618061Y-115970000D01*
X172821939Y-115970000D01*
X173021898Y-115930226D01*
X173210256Y-115852205D01*
X173355000Y-115755490D01*
X173499744Y-115852205D01*
X173688102Y-115930226D01*
X173888061Y-115970000D01*
X174091939Y-115970000D01*
X174291898Y-115930226D01*
X174480256Y-115852205D01*
X174625000Y-115755490D01*
X174769744Y-115852205D01*
X174958102Y-115930226D01*
X175158061Y-115970000D01*
X175361939Y-115970000D01*
X175561898Y-115930226D01*
X175750256Y-115852205D01*
X175919774Y-115738937D01*
X176063937Y-115594774D01*
X176177205Y-115425256D01*
X176255226Y-115236898D01*
X176295000Y-115036939D01*
X176295000Y-115010157D01*
X180232816Y-111072342D01*
X180262764Y-111047764D01*
X180360862Y-110928233D01*
X180433754Y-110791860D01*
X180478641Y-110643887D01*
X180490000Y-110528561D01*
X180490000Y-110528554D01*
X180493797Y-110490001D01*
X180490000Y-110451448D01*
X180490000Y-95876474D01*
X180651632Y-95768475D01*
X180858475Y-95561632D01*
X180975000Y-95387240D01*
X181091525Y-95561632D01*
X181298368Y-95768475D01*
X181460001Y-95876475D01*
X181460000Y-109981449D01*
X181456203Y-110020002D01*
X181460000Y-110058555D01*
X181460000Y-110058562D01*
X181471359Y-110173888D01*
X181516246Y-110321861D01*
X181589138Y-110458234D01*
X181687236Y-110577766D01*
X181717190Y-110602349D01*
X185710347Y-114595507D01*
X185694774Y-114633102D01*
X185655000Y-114833061D01*
X185655000Y-115036939D01*
X185694774Y-115236898D01*
X185772795Y-115425256D01*
X185886063Y-115594774D01*
X186030226Y-115738937D01*
X186199744Y-115852205D01*
X186388102Y-115930226D01*
X186588061Y-115970000D01*
X186791939Y-115970000D01*
X186991898Y-115930226D01*
X187180256Y-115852205D01*
X187325000Y-115755490D01*
X187469744Y-115852205D01*
X187658102Y-115930226D01*
X187858061Y-115970000D01*
X188061939Y-115970000D01*
X188261898Y-115930226D01*
X188450256Y-115852205D01*
X188595000Y-115755490D01*
X188739744Y-115852205D01*
X188928102Y-115930226D01*
X189128061Y-115970000D01*
X189331939Y-115970000D01*
X189531898Y-115930226D01*
X189720256Y-115852205D01*
X189865000Y-115755490D01*
X190009744Y-115852205D01*
X190198102Y-115930226D01*
X190398061Y-115970000D01*
X190601939Y-115970000D01*
X190801898Y-115930226D01*
X190990256Y-115852205D01*
X191159774Y-115738937D01*
X191303937Y-115594774D01*
X191417205Y-115425256D01*
X191495226Y-115236898D01*
X191535000Y-115036939D01*
X191535000Y-114833061D01*
X191495226Y-114633102D01*
X191417205Y-114444744D01*
X191303937Y-114275226D01*
X191159774Y-114131063D01*
X190990256Y-114017795D01*
X190801898Y-113939774D01*
X190650000Y-113909560D01*
X190650000Y-95876474D01*
X190811632Y-95768475D01*
X191018475Y-95561632D01*
X191135000Y-95387240D01*
X191251525Y-95561632D01*
X191458368Y-95768475D01*
X191701589Y-95930990D01*
X191971842Y-96042932D01*
X192258740Y-96100000D01*
X192551260Y-96100000D01*
X192838158Y-96042932D01*
X193108411Y-95930990D01*
X193351632Y-95768475D01*
X193558475Y-95561632D01*
X193720990Y-95318411D01*
X193832932Y-95048158D01*
X193890000Y-94761260D01*
X193890000Y-94468740D01*
X193832932Y-94181842D01*
X193720990Y-93911589D01*
X193558475Y-93668368D01*
X193351632Y-93461525D01*
X193175594Y-93343900D01*
X193405269Y-93172588D01*
X193600178Y-92956355D01*
X193749157Y-92706252D01*
X193824094Y-92495000D01*
X199171928Y-92495000D01*
X199171928Y-94195000D01*
X199184188Y-94319482D01*
X199220498Y-94439180D01*
X199279463Y-94549494D01*
X199358815Y-94646185D01*
X199455506Y-94725537D01*
X199565820Y-94784502D01*
X199674991Y-94817619D01*
X199674990Y-112981610D01*
X199670225Y-113029990D01*
X199674990Y-113078369D01*
X199689243Y-113223083D01*
X199745566Y-113408756D01*
X199837030Y-113579874D01*
X199960120Y-113729860D01*
X199997706Y-113760706D01*
X204755001Y-118518001D01*
X204755000Y-125374345D01*
X204654880Y-125474465D01*
X204501995Y-125703273D01*
X204396686Y-125957510D01*
X204343000Y-126227408D01*
X204343000Y-126502592D01*
X204396686Y-126772490D01*
X204501995Y-127026727D01*
X204654880Y-127255535D01*
X204849465Y-127450120D01*
X205078273Y-127603005D01*
X205332510Y-127708314D01*
X205602408Y-127762000D01*
X205877592Y-127762000D01*
X206147490Y-127708314D01*
X206401727Y-127603005D01*
X206630535Y-127450120D01*
X206825120Y-127255535D01*
X206978005Y-127026727D01*
X207010000Y-126949485D01*
X207041995Y-127026727D01*
X207194880Y-127255535D01*
X207389465Y-127450120D01*
X207618273Y-127603005D01*
X207872510Y-127708314D01*
X208142408Y-127762000D01*
X208417592Y-127762000D01*
X208687490Y-127708314D01*
X208941727Y-127603005D01*
X209170535Y-127450120D01*
X209365120Y-127255535D01*
X209518005Y-127026727D01*
X209550000Y-126949485D01*
X209581995Y-127026727D01*
X209734880Y-127255535D01*
X209929465Y-127450120D01*
X210158273Y-127603005D01*
X210412510Y-127708314D01*
X210682408Y-127762000D01*
X210957592Y-127762000D01*
X211227490Y-127708314D01*
X211481727Y-127603005D01*
X211710535Y-127450120D01*
X211905120Y-127255535D01*
X212058005Y-127026727D01*
X212090000Y-126949485D01*
X212121995Y-127026727D01*
X212274880Y-127255535D01*
X212469465Y-127450120D01*
X212698273Y-127603005D01*
X212952510Y-127708314D01*
X213222408Y-127762000D01*
X213497592Y-127762000D01*
X213767490Y-127708314D01*
X214021727Y-127603005D01*
X214250535Y-127450120D01*
X214445120Y-127255535D01*
X214598005Y-127026727D01*
X214630000Y-126949485D01*
X214661995Y-127026727D01*
X214814880Y-127255535D01*
X215009465Y-127450120D01*
X215238273Y-127603005D01*
X215492510Y-127708314D01*
X215762408Y-127762000D01*
X216037592Y-127762000D01*
X216307490Y-127708314D01*
X216561727Y-127603005D01*
X216790535Y-127450120D01*
X216985120Y-127255535D01*
X217138005Y-127026727D01*
X217170000Y-126949485D01*
X217201995Y-127026727D01*
X217354880Y-127255535D01*
X217549465Y-127450120D01*
X217778273Y-127603005D01*
X218032510Y-127708314D01*
X218302408Y-127762000D01*
X218577592Y-127762000D01*
X218847490Y-127708314D01*
X219101727Y-127603005D01*
X219330535Y-127450120D01*
X219525120Y-127255535D01*
X219678005Y-127026727D01*
X219710000Y-126949485D01*
X219741995Y-127026727D01*
X219894880Y-127255535D01*
X220089465Y-127450120D01*
X220318273Y-127603005D01*
X220572510Y-127708314D01*
X220842408Y-127762000D01*
X221117592Y-127762000D01*
X221387490Y-127708314D01*
X221641727Y-127603005D01*
X221870535Y-127450120D01*
X222065120Y-127255535D01*
X222218005Y-127026727D01*
X222250000Y-126949485D01*
X222281995Y-127026727D01*
X222434880Y-127255535D01*
X222629465Y-127450120D01*
X222858273Y-127603005D01*
X223112510Y-127708314D01*
X223382408Y-127762000D01*
X223657592Y-127762000D01*
X223927490Y-127708314D01*
X224181727Y-127603005D01*
X224410535Y-127450120D01*
X224605120Y-127255535D01*
X224758005Y-127026727D01*
X224790000Y-126949485D01*
X224821995Y-127026727D01*
X224974880Y-127255535D01*
X225169465Y-127450120D01*
X225398273Y-127603005D01*
X225652510Y-127708314D01*
X225922408Y-127762000D01*
X226197592Y-127762000D01*
X226467490Y-127708314D01*
X226721727Y-127603005D01*
X226950535Y-127450120D01*
X227145120Y-127255535D01*
X227298005Y-127026727D01*
X227330000Y-126949485D01*
X227361995Y-127026727D01*
X227514880Y-127255535D01*
X227709465Y-127450120D01*
X227938273Y-127603005D01*
X228192510Y-127708314D01*
X228462408Y-127762000D01*
X228737592Y-127762000D01*
X229007490Y-127708314D01*
X229261727Y-127603005D01*
X229490535Y-127450120D01*
X229685120Y-127255535D01*
X229838005Y-127026727D01*
X229870000Y-126949485D01*
X229901995Y-127026727D01*
X230054880Y-127255535D01*
X230249465Y-127450120D01*
X230478273Y-127603005D01*
X230732510Y-127708314D01*
X231002408Y-127762000D01*
X231277592Y-127762000D01*
X231547490Y-127708314D01*
X231801727Y-127603005D01*
X232030535Y-127450120D01*
X232225120Y-127255535D01*
X232378005Y-127026727D01*
X232410000Y-126949485D01*
X232441995Y-127026727D01*
X232594880Y-127255535D01*
X232789465Y-127450120D01*
X233018273Y-127603005D01*
X233272510Y-127708314D01*
X233542408Y-127762000D01*
X233817592Y-127762000D01*
X234087490Y-127708314D01*
X234341727Y-127603005D01*
X234570535Y-127450120D01*
X234765120Y-127255535D01*
X234918005Y-127026727D01*
X234950000Y-126949485D01*
X234981995Y-127026727D01*
X235134880Y-127255535D01*
X235329465Y-127450120D01*
X235558273Y-127603005D01*
X235812510Y-127708314D01*
X236082408Y-127762000D01*
X236357592Y-127762000D01*
X236627490Y-127708314D01*
X236881727Y-127603005D01*
X237110535Y-127450120D01*
X237305120Y-127255535D01*
X237363920Y-127167535D01*
X237372188Y-127251482D01*
X237408498Y-127371180D01*
X237467463Y-127481494D01*
X237546815Y-127578185D01*
X237643506Y-127657537D01*
X237753820Y-127716502D01*
X237873518Y-127752812D01*
X237998000Y-127765072D01*
X238474250Y-127762000D01*
X238633000Y-127603250D01*
X238633000Y-126492000D01*
X238613000Y-126492000D01*
X238613000Y-126238000D01*
X238633000Y-126238000D01*
X238633000Y-125126750D01*
X238887000Y-125126750D01*
X238887000Y-126238000D01*
X238907000Y-126238000D01*
X238907000Y-126492000D01*
X238887000Y-126492000D01*
X238887000Y-127603250D01*
X239045750Y-127762000D01*
X239522000Y-127765072D01*
X239646482Y-127752812D01*
X239766180Y-127716502D01*
X239876494Y-127657537D01*
X239973185Y-127578185D01*
X240052537Y-127481494D01*
X240111502Y-127371180D01*
X240147812Y-127251482D01*
X240156080Y-127167535D01*
X240214880Y-127255535D01*
X240409465Y-127450120D01*
X240638273Y-127603005D01*
X240892510Y-127708314D01*
X241162408Y-127762000D01*
X241437592Y-127762000D01*
X241707490Y-127708314D01*
X241961727Y-127603005D01*
X242190535Y-127450120D01*
X242385120Y-127255535D01*
X242538005Y-127026727D01*
X242570000Y-126949485D01*
X242601995Y-127026727D01*
X242754880Y-127255535D01*
X242949465Y-127450120D01*
X243178273Y-127603005D01*
X243432510Y-127708314D01*
X243702408Y-127762000D01*
X243977592Y-127762000D01*
X244247490Y-127708314D01*
X244501727Y-127603005D01*
X244730535Y-127450120D01*
X244925120Y-127255535D01*
X245078005Y-127026727D01*
X245110000Y-126949485D01*
X245141995Y-127026727D01*
X245294880Y-127255535D01*
X245489465Y-127450120D01*
X245718273Y-127603005D01*
X245972510Y-127708314D01*
X246242408Y-127762000D01*
X246517592Y-127762000D01*
X246787490Y-127708314D01*
X247041727Y-127603005D01*
X247270535Y-127450120D01*
X247465120Y-127255535D01*
X247618005Y-127026727D01*
X247650000Y-126949485D01*
X247681995Y-127026727D01*
X247834880Y-127255535D01*
X248029465Y-127450120D01*
X248258273Y-127603005D01*
X248512510Y-127708314D01*
X248782408Y-127762000D01*
X249057592Y-127762000D01*
X249327490Y-127708314D01*
X249581727Y-127603005D01*
X249810535Y-127450120D01*
X250005120Y-127255535D01*
X250158005Y-127026727D01*
X250190000Y-126949485D01*
X250221995Y-127026727D01*
X250374880Y-127255535D01*
X250569465Y-127450120D01*
X250798273Y-127603005D01*
X251052510Y-127708314D01*
X251322408Y-127762000D01*
X251597592Y-127762000D01*
X251867490Y-127708314D01*
X252121727Y-127603005D01*
X252350535Y-127450120D01*
X252545120Y-127255535D01*
X252698005Y-127026727D01*
X252803314Y-126772490D01*
X252857000Y-126502592D01*
X252857000Y-126227408D01*
X252803314Y-125957510D01*
X252698005Y-125703273D01*
X252545120Y-125474465D01*
X252350535Y-125279880D01*
X252121727Y-125126995D01*
X251867490Y-125021686D01*
X251597592Y-124968000D01*
X251322408Y-124968000D01*
X251052510Y-125021686D01*
X250798273Y-125126995D01*
X250569465Y-125279880D01*
X250374880Y-125474465D01*
X250221995Y-125703273D01*
X250190000Y-125780515D01*
X250158005Y-125703273D01*
X250005120Y-125474465D01*
X249810535Y-125279880D01*
X249581727Y-125126995D01*
X249327490Y-125021686D01*
X249057592Y-124968000D01*
X248782408Y-124968000D01*
X248512510Y-125021686D01*
X248258273Y-125126995D01*
X248029465Y-125279880D01*
X247834880Y-125474465D01*
X247681995Y-125703273D01*
X247650000Y-125780515D01*
X247618005Y-125703273D01*
X247465120Y-125474465D01*
X247270535Y-125279880D01*
X247041727Y-125126995D01*
X246787490Y-125021686D01*
X246517592Y-124968000D01*
X246242408Y-124968000D01*
X245972510Y-125021686D01*
X245718273Y-125126995D01*
X245489465Y-125279880D01*
X245294880Y-125474465D01*
X245141995Y-125703273D01*
X245110000Y-125780515D01*
X245078005Y-125703273D01*
X244925120Y-125474465D01*
X244730535Y-125279880D01*
X244501727Y-125126995D01*
X244247490Y-125021686D01*
X243977592Y-124968000D01*
X243702408Y-124968000D01*
X243432510Y-125021686D01*
X243178273Y-125126995D01*
X242949465Y-125279880D01*
X242754880Y-125474465D01*
X242601995Y-125703273D01*
X242570000Y-125780515D01*
X242538005Y-125703273D01*
X242385120Y-125474465D01*
X242190535Y-125279880D01*
X241961727Y-125126995D01*
X241707490Y-125021686D01*
X241437592Y-124968000D01*
X241162408Y-124968000D01*
X240892510Y-125021686D01*
X240638273Y-125126995D01*
X240409465Y-125279880D01*
X240214880Y-125474465D01*
X240156080Y-125562465D01*
X240147812Y-125478518D01*
X240111502Y-125358820D01*
X240052537Y-125248506D01*
X239973185Y-125151815D01*
X239876494Y-125072463D01*
X239766180Y-125013498D01*
X239646482Y-124977188D01*
X239522000Y-124964928D01*
X239045750Y-124968000D01*
X238887000Y-125126750D01*
X238633000Y-125126750D01*
X238474250Y-124968000D01*
X237998000Y-124964928D01*
X237873518Y-124977188D01*
X237753820Y-125013498D01*
X237643506Y-125072463D01*
X237546815Y-125151815D01*
X237467463Y-125248506D01*
X237408498Y-125358820D01*
X237372188Y-125478518D01*
X237363920Y-125562465D01*
X237305120Y-125474465D01*
X237110535Y-125279880D01*
X236881727Y-125126995D01*
X236627490Y-125021686D01*
X236357592Y-124968000D01*
X236082408Y-124968000D01*
X235812510Y-125021686D01*
X235558273Y-125126995D01*
X235329465Y-125279880D01*
X235134880Y-125474465D01*
X234981995Y-125703273D01*
X234950000Y-125780515D01*
X234918005Y-125703273D01*
X234765120Y-125474465D01*
X234570535Y-125279880D01*
X234341727Y-125126995D01*
X234087490Y-125021686D01*
X233817592Y-124968000D01*
X233542408Y-124968000D01*
X233272510Y-125021686D01*
X233018273Y-125126995D01*
X232789465Y-125279880D01*
X232594880Y-125474465D01*
X232441995Y-125703273D01*
X232410000Y-125780515D01*
X232378005Y-125703273D01*
X232225120Y-125474465D01*
X232030535Y-125279880D01*
X231801727Y-125126995D01*
X231547490Y-125021686D01*
X231277592Y-124968000D01*
X231002408Y-124968000D01*
X230732510Y-125021686D01*
X230478273Y-125126995D01*
X230249465Y-125279880D01*
X230054880Y-125474465D01*
X229901995Y-125703273D01*
X229870000Y-125780515D01*
X229838005Y-125703273D01*
X229685120Y-125474465D01*
X229490535Y-125279880D01*
X229261727Y-125126995D01*
X229007490Y-125021686D01*
X228737592Y-124968000D01*
X228462408Y-124968000D01*
X228192510Y-125021686D01*
X227938273Y-125126995D01*
X227709465Y-125279880D01*
X227514880Y-125474465D01*
X227361995Y-125703273D01*
X227330000Y-125780515D01*
X227298005Y-125703273D01*
X227145120Y-125474465D01*
X226950535Y-125279880D01*
X226721727Y-125126995D01*
X226467490Y-125021686D01*
X226197592Y-124968000D01*
X225922408Y-124968000D01*
X225652510Y-125021686D01*
X225398273Y-125126995D01*
X225169465Y-125279880D01*
X224974880Y-125474465D01*
X224821995Y-125703273D01*
X224790000Y-125780515D01*
X224758005Y-125703273D01*
X224605120Y-125474465D01*
X224410535Y-125279880D01*
X224181727Y-125126995D01*
X223927490Y-125021686D01*
X223657592Y-124968000D01*
X223382408Y-124968000D01*
X223112510Y-125021686D01*
X222858273Y-125126995D01*
X222629465Y-125279880D01*
X222434880Y-125474465D01*
X222281995Y-125703273D01*
X222250000Y-125780515D01*
X222218005Y-125703273D01*
X222065120Y-125474465D01*
X221870535Y-125279880D01*
X221641727Y-125126995D01*
X221387490Y-125021686D01*
X221117592Y-124968000D01*
X220842408Y-124968000D01*
X220572510Y-125021686D01*
X220318273Y-125126995D01*
X220089465Y-125279880D01*
X219894880Y-125474465D01*
X219741995Y-125703273D01*
X219710000Y-125780515D01*
X219678005Y-125703273D01*
X219525120Y-125474465D01*
X219330535Y-125279880D01*
X219101727Y-125126995D01*
X218847490Y-125021686D01*
X218577592Y-124968000D01*
X218302408Y-124968000D01*
X218032510Y-125021686D01*
X217778273Y-125126995D01*
X217549465Y-125279880D01*
X217354880Y-125474465D01*
X217201995Y-125703273D01*
X217170000Y-125780515D01*
X217138005Y-125703273D01*
X216985120Y-125474465D01*
X216790535Y-125279880D01*
X216561727Y-125126995D01*
X216307490Y-125021686D01*
X216037592Y-124968000D01*
X215762408Y-124968000D01*
X215492510Y-125021686D01*
X215238273Y-125126995D01*
X215009465Y-125279880D01*
X214814880Y-125474465D01*
X214661995Y-125703273D01*
X214630000Y-125780515D01*
X214598005Y-125703273D01*
X214445120Y-125474465D01*
X214250535Y-125279880D01*
X214021727Y-125126995D01*
X213767490Y-125021686D01*
X213497592Y-124968000D01*
X213222408Y-124968000D01*
X212952510Y-125021686D01*
X212698273Y-125126995D01*
X212469465Y-125279880D01*
X212274880Y-125474465D01*
X212121995Y-125703273D01*
X212090000Y-125780515D01*
X212058005Y-125703273D01*
X211905120Y-125474465D01*
X211805000Y-125374345D01*
X211805000Y-120063379D01*
X211809765Y-120014999D01*
X211790747Y-119821905D01*
X211777638Y-119778691D01*
X211734424Y-119636233D01*
X211642960Y-119465116D01*
X211519870Y-119315130D01*
X211482284Y-119284284D01*
X205625502Y-113427502D01*
X205638061Y-113430000D01*
X205841939Y-113430000D01*
X206041898Y-113390226D01*
X206230256Y-113312205D01*
X206399774Y-113198937D01*
X206418711Y-113180000D01*
X217761289Y-113180000D01*
X217780226Y-113198937D01*
X217949744Y-113312205D01*
X218138102Y-113390226D01*
X218338061Y-113430000D01*
X218541939Y-113430000D01*
X218741898Y-113390226D01*
X218930256Y-113312205D01*
X219099774Y-113198937D01*
X219243937Y-113054774D01*
X219357205Y-112885256D01*
X219435226Y-112696898D01*
X219475000Y-112496939D01*
X219475000Y-112293061D01*
X219435226Y-112093102D01*
X219359382Y-111910000D01*
X220301289Y-111910000D01*
X220320226Y-111928937D01*
X220489744Y-112042205D01*
X220678102Y-112120226D01*
X220878061Y-112160000D01*
X221081939Y-112160000D01*
X221281898Y-112120226D01*
X221470256Y-112042205D01*
X221639774Y-111928937D01*
X221783937Y-111784774D01*
X221897205Y-111615256D01*
X221975226Y-111426898D01*
X222015000Y-111226939D01*
X222015000Y-111023061D01*
X221975226Y-110823102D01*
X221899382Y-110640000D01*
X222841289Y-110640000D01*
X222860242Y-110658953D01*
X223029760Y-110772221D01*
X223218118Y-110850242D01*
X223418077Y-110890016D01*
X223621955Y-110890016D01*
X223821914Y-110850242D01*
X224010272Y-110772221D01*
X224179790Y-110658953D01*
X224323953Y-110514790D01*
X224437221Y-110345272D01*
X224515242Y-110156914D01*
X224555016Y-109956955D01*
X224555016Y-109753077D01*
X224515242Y-109553118D01*
X224437221Y-109364760D01*
X224323953Y-109195242D01*
X224179790Y-109051079D01*
X224010272Y-108937811D01*
X223821914Y-108859790D01*
X223621955Y-108820016D01*
X223418077Y-108820016D01*
X223218118Y-108859790D01*
X223029760Y-108937811D01*
X222860242Y-109051079D01*
X222841321Y-109070000D01*
X206418711Y-109070000D01*
X206399774Y-109051063D01*
X206230256Y-108937795D01*
X206041898Y-108859774D01*
X205841939Y-108820000D01*
X205638061Y-108820000D01*
X205438102Y-108859774D01*
X205249744Y-108937795D01*
X205080226Y-109051063D01*
X204936063Y-109195226D01*
X204822795Y-109364744D01*
X204744774Y-109553102D01*
X204705000Y-109753061D01*
X204705000Y-109956939D01*
X204744774Y-110156898D01*
X204822795Y-110345256D01*
X204919510Y-110490000D01*
X204822795Y-110634744D01*
X204744774Y-110823102D01*
X204705000Y-111023061D01*
X204705000Y-111226939D01*
X204744774Y-111426898D01*
X204822795Y-111615256D01*
X204919510Y-111760000D01*
X204822795Y-111904744D01*
X204744774Y-112093102D01*
X204705000Y-112293061D01*
X204705000Y-112496939D01*
X204707498Y-112509498D01*
X204185000Y-111987000D01*
X204185000Y-104267000D01*
X204339928Y-104267000D01*
X204352188Y-104391482D01*
X204388498Y-104511180D01*
X204447463Y-104621494D01*
X204526815Y-104718185D01*
X204623506Y-104797537D01*
X204733820Y-104856502D01*
X204853518Y-104892812D01*
X204978000Y-104905072D01*
X205454250Y-104902000D01*
X205613000Y-104743250D01*
X205613000Y-103632000D01*
X204501750Y-103632000D01*
X204343000Y-103790750D01*
X204339928Y-104267000D01*
X204185000Y-104267000D01*
X204185000Y-101727000D01*
X204339928Y-101727000D01*
X204352188Y-101851482D01*
X204388498Y-101971180D01*
X204447463Y-102081494D01*
X204526815Y-102178185D01*
X204596044Y-102235000D01*
X204526815Y-102291815D01*
X204447463Y-102388506D01*
X204388498Y-102498820D01*
X204352188Y-102618518D01*
X204339928Y-102743000D01*
X204343000Y-103219250D01*
X204501750Y-103378000D01*
X205613000Y-103378000D01*
X205613000Y-102266750D01*
X205581250Y-102235000D01*
X205613000Y-102203250D01*
X205613000Y-101092000D01*
X204501750Y-101092000D01*
X204343000Y-101250750D01*
X204339928Y-101727000D01*
X204185000Y-101727000D01*
X204185000Y-100203000D01*
X204339928Y-100203000D01*
X204343000Y-100679250D01*
X204501750Y-100838000D01*
X205613000Y-100838000D01*
X205613000Y-99726750D01*
X205867000Y-99726750D01*
X205867000Y-100838000D01*
X205887000Y-100838000D01*
X205887000Y-101092000D01*
X205867000Y-101092000D01*
X205867000Y-102203250D01*
X205898750Y-102235000D01*
X205867000Y-102266750D01*
X205867000Y-103378000D01*
X205887000Y-103378000D01*
X205887000Y-103632000D01*
X205867000Y-103632000D01*
X205867000Y-104743250D01*
X206025750Y-104902000D01*
X206502000Y-104905072D01*
X206626482Y-104892812D01*
X206746180Y-104856502D01*
X206856494Y-104797537D01*
X206953185Y-104718185D01*
X207032537Y-104621494D01*
X207091502Y-104511180D01*
X207127812Y-104391482D01*
X207136080Y-104307535D01*
X207194880Y-104395535D01*
X207389465Y-104590120D01*
X207618273Y-104743005D01*
X207872510Y-104848314D01*
X208142408Y-104902000D01*
X208417592Y-104902000D01*
X208687490Y-104848314D01*
X208941727Y-104743005D01*
X209170535Y-104590120D01*
X209365120Y-104395535D01*
X209518005Y-104166727D01*
X209550000Y-104089485D01*
X209581995Y-104166727D01*
X209734880Y-104395535D01*
X209929465Y-104590120D01*
X210158273Y-104743005D01*
X210412510Y-104848314D01*
X210682408Y-104902000D01*
X210957592Y-104902000D01*
X211227490Y-104848314D01*
X211481727Y-104743005D01*
X211710535Y-104590120D01*
X211905120Y-104395535D01*
X212058005Y-104166727D01*
X212090000Y-104089485D01*
X212121995Y-104166727D01*
X212274880Y-104395535D01*
X212469465Y-104590120D01*
X212698273Y-104743005D01*
X212952510Y-104848314D01*
X213222408Y-104902000D01*
X213497592Y-104902000D01*
X213767490Y-104848314D01*
X214021727Y-104743005D01*
X214250535Y-104590120D01*
X214445120Y-104395535D01*
X214598005Y-104166727D01*
X214630000Y-104089485D01*
X214661995Y-104166727D01*
X214814880Y-104395535D01*
X215009465Y-104590120D01*
X215238273Y-104743005D01*
X215492510Y-104848314D01*
X215762408Y-104902000D01*
X216037592Y-104902000D01*
X216307490Y-104848314D01*
X216561727Y-104743005D01*
X216790535Y-104590120D01*
X216985120Y-104395535D01*
X217138005Y-104166727D01*
X217170000Y-104089485D01*
X217201995Y-104166727D01*
X217354880Y-104395535D01*
X217549465Y-104590120D01*
X217778273Y-104743005D01*
X218032510Y-104848314D01*
X218302408Y-104902000D01*
X218577592Y-104902000D01*
X218847490Y-104848314D01*
X219101727Y-104743005D01*
X219330535Y-104590120D01*
X219525120Y-104395535D01*
X219583920Y-104307535D01*
X219592188Y-104391482D01*
X219628498Y-104511180D01*
X219687463Y-104621494D01*
X219766815Y-104718185D01*
X219863506Y-104797537D01*
X219973820Y-104856502D01*
X220093518Y-104892812D01*
X220218000Y-104905072D01*
X220694250Y-104902000D01*
X220853000Y-104743250D01*
X220853000Y-103632000D01*
X220833000Y-103632000D01*
X220833000Y-103378000D01*
X220853000Y-103378000D01*
X220853000Y-102266750D01*
X220821250Y-102235000D01*
X220853000Y-102203250D01*
X220853000Y-101092000D01*
X220833000Y-101092000D01*
X220833000Y-100838000D01*
X220853000Y-100838000D01*
X220853000Y-99726750D01*
X221107000Y-99726750D01*
X221107000Y-100838000D01*
X221127000Y-100838000D01*
X221127000Y-101092000D01*
X221107000Y-101092000D01*
X221107000Y-102203250D01*
X221138750Y-102235000D01*
X221107000Y-102266750D01*
X221107000Y-103378000D01*
X221127000Y-103378000D01*
X221127000Y-103632000D01*
X221107000Y-103632000D01*
X221107000Y-104743250D01*
X221265750Y-104902000D01*
X221742000Y-104905072D01*
X221866482Y-104892812D01*
X221986180Y-104856502D01*
X222096494Y-104797537D01*
X222193185Y-104718185D01*
X222272537Y-104621494D01*
X222331502Y-104511180D01*
X222367812Y-104391482D01*
X222376080Y-104307535D01*
X222434880Y-104395535D01*
X222629465Y-104590120D01*
X222858273Y-104743005D01*
X223112510Y-104848314D01*
X223382408Y-104902000D01*
X223657592Y-104902000D01*
X223927490Y-104848314D01*
X224181727Y-104743005D01*
X224410535Y-104590120D01*
X224605120Y-104395535D01*
X224758005Y-104166727D01*
X224790000Y-104089485D01*
X224821995Y-104166727D01*
X224974880Y-104395535D01*
X225169465Y-104590120D01*
X225398273Y-104743005D01*
X225652510Y-104848314D01*
X225922408Y-104902000D01*
X226197592Y-104902000D01*
X226467490Y-104848314D01*
X226721727Y-104743005D01*
X226950535Y-104590120D01*
X227145120Y-104395535D01*
X227298005Y-104166727D01*
X227330000Y-104089485D01*
X227361995Y-104166727D01*
X227514880Y-104395535D01*
X227709465Y-104590120D01*
X227938273Y-104743005D01*
X228192510Y-104848314D01*
X228462408Y-104902000D01*
X228737592Y-104902000D01*
X229007490Y-104848314D01*
X229261727Y-104743005D01*
X229490535Y-104590120D01*
X229685120Y-104395535D01*
X229838005Y-104166727D01*
X229870000Y-104089485D01*
X229901995Y-104166727D01*
X230054880Y-104395535D01*
X230249465Y-104590120D01*
X230478273Y-104743005D01*
X230732510Y-104848314D01*
X231002408Y-104902000D01*
X231277592Y-104902000D01*
X231547490Y-104848314D01*
X231801727Y-104743005D01*
X232030535Y-104590120D01*
X232225120Y-104395535D01*
X232378005Y-104166727D01*
X232410000Y-104089485D01*
X232441995Y-104166727D01*
X232594880Y-104395535D01*
X232789465Y-104590120D01*
X233018273Y-104743005D01*
X233272510Y-104848314D01*
X233542408Y-104902000D01*
X233817592Y-104902000D01*
X234087490Y-104848314D01*
X234341727Y-104743005D01*
X234570535Y-104590120D01*
X234765120Y-104395535D01*
X234918005Y-104166727D01*
X234950000Y-104089485D01*
X234981995Y-104166727D01*
X235134880Y-104395535D01*
X235329465Y-104590120D01*
X235558273Y-104743005D01*
X235812510Y-104848314D01*
X236082408Y-104902000D01*
X236357592Y-104902000D01*
X236627490Y-104848314D01*
X236881727Y-104743005D01*
X237110535Y-104590120D01*
X237305120Y-104395535D01*
X237458005Y-104166727D01*
X237490000Y-104089485D01*
X237521995Y-104166727D01*
X237674880Y-104395535D01*
X237869465Y-104590120D01*
X238098273Y-104743005D01*
X238352510Y-104848314D01*
X238622408Y-104902000D01*
X238897592Y-104902000D01*
X239167490Y-104848314D01*
X239421727Y-104743005D01*
X239650535Y-104590120D01*
X239845120Y-104395535D01*
X239998005Y-104166727D01*
X240030000Y-104089485D01*
X240061995Y-104166727D01*
X240214880Y-104395535D01*
X240409465Y-104590120D01*
X240638273Y-104743005D01*
X240892510Y-104848314D01*
X241162408Y-104902000D01*
X241437592Y-104902000D01*
X241707490Y-104848314D01*
X241961727Y-104743005D01*
X242190535Y-104590120D01*
X242385120Y-104395535D01*
X242538005Y-104166727D01*
X242570000Y-104089485D01*
X242601995Y-104166727D01*
X242754880Y-104395535D01*
X242949465Y-104590120D01*
X243178273Y-104743005D01*
X243432510Y-104848314D01*
X243702408Y-104902000D01*
X243977592Y-104902000D01*
X244247490Y-104848314D01*
X244501727Y-104743005D01*
X244730535Y-104590120D01*
X244925120Y-104395535D01*
X245078005Y-104166727D01*
X245110000Y-104089485D01*
X245141995Y-104166727D01*
X245294880Y-104395535D01*
X245489465Y-104590120D01*
X245718273Y-104743005D01*
X245972510Y-104848314D01*
X246242408Y-104902000D01*
X246517592Y-104902000D01*
X246787490Y-104848314D01*
X247041727Y-104743005D01*
X247270535Y-104590120D01*
X247465120Y-104395535D01*
X247618005Y-104166727D01*
X247650000Y-104089485D01*
X247681995Y-104166727D01*
X247834880Y-104395535D01*
X248029465Y-104590120D01*
X248258273Y-104743005D01*
X248512510Y-104848314D01*
X248782408Y-104902000D01*
X249057592Y-104902000D01*
X249327490Y-104848314D01*
X249581727Y-104743005D01*
X249810535Y-104590120D01*
X250005120Y-104395535D01*
X250158005Y-104166727D01*
X250190000Y-104089485D01*
X250221995Y-104166727D01*
X250374880Y-104395535D01*
X250569465Y-104590120D01*
X250798273Y-104743005D01*
X251052510Y-104848314D01*
X251322408Y-104902000D01*
X251597592Y-104902000D01*
X251867490Y-104848314D01*
X252121727Y-104743005D01*
X252350535Y-104590120D01*
X252545120Y-104395535D01*
X252698005Y-104166727D01*
X252803314Y-103912490D01*
X252857000Y-103642592D01*
X252857000Y-103367408D01*
X252803314Y-103097510D01*
X252698005Y-102843273D01*
X252545120Y-102614465D01*
X252350535Y-102419880D01*
X252121727Y-102266995D01*
X252044485Y-102235000D01*
X252121727Y-102203005D01*
X252350535Y-102050120D01*
X252545120Y-101855535D01*
X252698005Y-101626727D01*
X252803314Y-101372490D01*
X252857000Y-101102592D01*
X252857000Y-100827408D01*
X252803314Y-100557510D01*
X252698005Y-100303273D01*
X252545120Y-100074465D01*
X252350535Y-99879880D01*
X252121727Y-99726995D01*
X251867490Y-99621686D01*
X251597592Y-99568000D01*
X251322408Y-99568000D01*
X251052510Y-99621686D01*
X250798273Y-99726995D01*
X250569465Y-99879880D01*
X250374880Y-100074465D01*
X250221995Y-100303273D01*
X250190000Y-100380515D01*
X250158005Y-100303273D01*
X250005120Y-100074465D01*
X249810535Y-99879880D01*
X249581727Y-99726995D01*
X249327490Y-99621686D01*
X249057592Y-99568000D01*
X248782408Y-99568000D01*
X248512510Y-99621686D01*
X248258273Y-99726995D01*
X248029465Y-99879880D01*
X247834880Y-100074465D01*
X247681995Y-100303273D01*
X247650000Y-100380515D01*
X247618005Y-100303273D01*
X247465120Y-100074465D01*
X247270535Y-99879880D01*
X247041727Y-99726995D01*
X246787490Y-99621686D01*
X246517592Y-99568000D01*
X246242408Y-99568000D01*
X245972510Y-99621686D01*
X245718273Y-99726995D01*
X245489465Y-99879880D01*
X245294880Y-100074465D01*
X245141995Y-100303273D01*
X245110000Y-100380515D01*
X245078005Y-100303273D01*
X244925120Y-100074465D01*
X244730535Y-99879880D01*
X244501727Y-99726995D01*
X244247490Y-99621686D01*
X243977592Y-99568000D01*
X243702408Y-99568000D01*
X243432510Y-99621686D01*
X243178273Y-99726995D01*
X242949465Y-99879880D01*
X242754880Y-100074465D01*
X242601995Y-100303273D01*
X242570000Y-100380515D01*
X242538005Y-100303273D01*
X242385120Y-100074465D01*
X242190535Y-99879880D01*
X241961727Y-99726995D01*
X241707490Y-99621686D01*
X241437592Y-99568000D01*
X241162408Y-99568000D01*
X240892510Y-99621686D01*
X240638273Y-99726995D01*
X240409465Y-99879880D01*
X240214880Y-100074465D01*
X240061995Y-100303273D01*
X240030000Y-100380515D01*
X239998005Y-100303273D01*
X239845120Y-100074465D01*
X239650535Y-99879880D01*
X239421727Y-99726995D01*
X239167490Y-99621686D01*
X238897592Y-99568000D01*
X238622408Y-99568000D01*
X238352510Y-99621686D01*
X238098273Y-99726995D01*
X237869465Y-99879880D01*
X237674880Y-100074465D01*
X237521995Y-100303273D01*
X237490000Y-100380515D01*
X237458005Y-100303273D01*
X237305120Y-100074465D01*
X237110535Y-99879880D01*
X236881727Y-99726995D01*
X236627490Y-99621686D01*
X236357592Y-99568000D01*
X236082408Y-99568000D01*
X235812510Y-99621686D01*
X235558273Y-99726995D01*
X235329465Y-99879880D01*
X235134880Y-100074465D01*
X234981995Y-100303273D01*
X234950000Y-100380515D01*
X234918005Y-100303273D01*
X234765120Y-100074465D01*
X234570535Y-99879880D01*
X234341727Y-99726995D01*
X234087490Y-99621686D01*
X233817592Y-99568000D01*
X233542408Y-99568000D01*
X233272510Y-99621686D01*
X233018273Y-99726995D01*
X232789465Y-99879880D01*
X232594880Y-100074465D01*
X232441995Y-100303273D01*
X232410000Y-100380515D01*
X232378005Y-100303273D01*
X232225120Y-100074465D01*
X232030535Y-99879880D01*
X231801727Y-99726995D01*
X231547490Y-99621686D01*
X231277592Y-99568000D01*
X231002408Y-99568000D01*
X230732510Y-99621686D01*
X230478273Y-99726995D01*
X230249465Y-99879880D01*
X230054880Y-100074465D01*
X229901995Y-100303273D01*
X229870000Y-100380515D01*
X229838005Y-100303273D01*
X229685120Y-100074465D01*
X229490535Y-99879880D01*
X229261727Y-99726995D01*
X229007490Y-99621686D01*
X228737592Y-99568000D01*
X228462408Y-99568000D01*
X228192510Y-99621686D01*
X227938273Y-99726995D01*
X227709465Y-99879880D01*
X227514880Y-100074465D01*
X227361995Y-100303273D01*
X227330000Y-100380515D01*
X227298005Y-100303273D01*
X227145120Y-100074465D01*
X226950535Y-99879880D01*
X226721727Y-99726995D01*
X226467490Y-99621686D01*
X226197592Y-99568000D01*
X225922408Y-99568000D01*
X225652510Y-99621686D01*
X225398273Y-99726995D01*
X225169465Y-99879880D01*
X224974880Y-100074465D01*
X224821995Y-100303273D01*
X224790000Y-100380515D01*
X224758005Y-100303273D01*
X224605120Y-100074465D01*
X224410535Y-99879880D01*
X224181727Y-99726995D01*
X223927490Y-99621686D01*
X223657592Y-99568000D01*
X223382408Y-99568000D01*
X223112510Y-99621686D01*
X222858273Y-99726995D01*
X222629465Y-99879880D01*
X222434880Y-100074465D01*
X222376080Y-100162465D01*
X222367812Y-100078518D01*
X222331502Y-99958820D01*
X222272537Y-99848506D01*
X222193185Y-99751815D01*
X222096494Y-99672463D01*
X221986180Y-99613498D01*
X221866482Y-99577188D01*
X221742000Y-99564928D01*
X221265750Y-99568000D01*
X221107000Y-99726750D01*
X220853000Y-99726750D01*
X220694250Y-99568000D01*
X220218000Y-99564928D01*
X220093518Y-99577188D01*
X219973820Y-99613498D01*
X219863506Y-99672463D01*
X219766815Y-99751815D01*
X219687463Y-99848506D01*
X219628498Y-99958820D01*
X219592188Y-100078518D01*
X219583920Y-100162465D01*
X219525120Y-100074465D01*
X219330535Y-99879880D01*
X219101727Y-99726995D01*
X218847490Y-99621686D01*
X218577592Y-99568000D01*
X218302408Y-99568000D01*
X218032510Y-99621686D01*
X217778273Y-99726995D01*
X217549465Y-99879880D01*
X217354880Y-100074465D01*
X217201995Y-100303273D01*
X217170000Y-100380515D01*
X217138005Y-100303273D01*
X216985120Y-100074465D01*
X216790535Y-99879880D01*
X216561727Y-99726995D01*
X216307490Y-99621686D01*
X216037592Y-99568000D01*
X215762408Y-99568000D01*
X215492510Y-99621686D01*
X215238273Y-99726995D01*
X215009465Y-99879880D01*
X214814880Y-100074465D01*
X214661995Y-100303273D01*
X214630000Y-100380515D01*
X214598005Y-100303273D01*
X214445120Y-100074465D01*
X214250535Y-99879880D01*
X214021727Y-99726995D01*
X213767490Y-99621686D01*
X213497592Y-99568000D01*
X213222408Y-99568000D01*
X212952510Y-99621686D01*
X212698273Y-99726995D01*
X212469465Y-99879880D01*
X212274880Y-100074465D01*
X212121995Y-100303273D01*
X212090000Y-100380515D01*
X212058005Y-100303273D01*
X211905120Y-100074465D01*
X211710535Y-99879880D01*
X211481727Y-99726995D01*
X211227490Y-99621686D01*
X210957592Y-99568000D01*
X210682408Y-99568000D01*
X210412510Y-99621686D01*
X210158273Y-99726995D01*
X209929465Y-99879880D01*
X209734880Y-100074465D01*
X209581995Y-100303273D01*
X209550000Y-100380515D01*
X209518005Y-100303273D01*
X209365120Y-100074465D01*
X209170535Y-99879880D01*
X208941727Y-99726995D01*
X208687490Y-99621686D01*
X208417592Y-99568000D01*
X208142408Y-99568000D01*
X207872510Y-99621686D01*
X207618273Y-99726995D01*
X207389465Y-99879880D01*
X207194880Y-100074465D01*
X207136080Y-100162465D01*
X207127812Y-100078518D01*
X207091502Y-99958820D01*
X207032537Y-99848506D01*
X206953185Y-99751815D01*
X206856494Y-99672463D01*
X206746180Y-99613498D01*
X206626482Y-99577188D01*
X206502000Y-99564928D01*
X206025750Y-99568000D01*
X205867000Y-99726750D01*
X205613000Y-99726750D01*
X205454250Y-99568000D01*
X204978000Y-99564928D01*
X204853518Y-99577188D01*
X204733820Y-99613498D01*
X204623506Y-99672463D01*
X204526815Y-99751815D01*
X204447463Y-99848506D01*
X204388498Y-99958820D01*
X204352188Y-100078518D01*
X204339928Y-100203000D01*
X204185000Y-100203000D01*
X204185000Y-97315881D01*
X246398724Y-97315881D01*
X246758912Y-97805548D01*
X247422882Y-98165849D01*
X248144385Y-98389694D01*
X248895695Y-98468480D01*
X249647938Y-98399178D01*
X250372208Y-98184452D01*
X251040670Y-97832555D01*
X251081088Y-97805548D01*
X251441276Y-97315881D01*
X248920000Y-94794605D01*
X246398724Y-97315881D01*
X204185000Y-97315881D01*
X204185000Y-94460107D01*
X204353475Y-94291632D01*
X204515990Y-94048411D01*
X204627932Y-93778158D01*
X204685000Y-93491260D01*
X204685000Y-93203665D01*
X206845000Y-93203665D01*
X206845000Y-93486335D01*
X206900147Y-93763574D01*
X207008320Y-94024727D01*
X207165363Y-94259759D01*
X207365241Y-94459637D01*
X207600273Y-94616680D01*
X207861426Y-94724853D01*
X208138665Y-94780000D01*
X208421335Y-94780000D01*
X208698574Y-94724853D01*
X208959727Y-94616680D01*
X209194759Y-94459637D01*
X209394637Y-94259759D01*
X209551680Y-94024727D01*
X209659853Y-93763574D01*
X209673684Y-93694039D01*
X217048096Y-93694039D01*
X217088754Y-93828087D01*
X217208963Y-94082420D01*
X217376481Y-94308414D01*
X217584869Y-94497385D01*
X217826119Y-94642070D01*
X218090960Y-94736909D01*
X218313000Y-94615624D01*
X218313000Y-93472000D01*
X218567000Y-93472000D01*
X218567000Y-94615624D01*
X218789040Y-94736909D01*
X219053881Y-94642070D01*
X219295131Y-94497385D01*
X219503519Y-94308414D01*
X219671037Y-94082420D01*
X219791246Y-93828087D01*
X219831904Y-93694039D01*
X219709915Y-93472000D01*
X218567000Y-93472000D01*
X218313000Y-93472000D01*
X217170085Y-93472000D01*
X217048096Y-93694039D01*
X209673684Y-93694039D01*
X209715000Y-93486335D01*
X209715000Y-93203665D01*
X209673685Y-92995961D01*
X217048096Y-92995961D01*
X217170085Y-93218000D01*
X218313000Y-93218000D01*
X218313000Y-92074376D01*
X218567000Y-92074376D01*
X218567000Y-93218000D01*
X219709915Y-93218000D01*
X219831904Y-92995961D01*
X219791246Y-92861913D01*
X219671037Y-92607580D01*
X219587588Y-92495000D01*
X239811928Y-92495000D01*
X239811928Y-94195000D01*
X239824188Y-94319482D01*
X239860498Y-94439180D01*
X239919463Y-94549494D01*
X239998815Y-94646185D01*
X240095506Y-94725537D01*
X240205820Y-94784502D01*
X240325518Y-94820812D01*
X240450000Y-94833072D01*
X242150000Y-94833072D01*
X242274482Y-94820812D01*
X242394180Y-94784502D01*
X242504494Y-94725537D01*
X242601185Y-94646185D01*
X242646724Y-94590695D01*
X245066520Y-94590695D01*
X245135822Y-95342938D01*
X245350548Y-96067208D01*
X245702445Y-96735670D01*
X245729452Y-96776088D01*
X246219119Y-97136276D01*
X248740395Y-94615000D01*
X249099605Y-94615000D01*
X251620881Y-97136276D01*
X252110548Y-96776088D01*
X252470849Y-96112118D01*
X252694694Y-95390615D01*
X252773480Y-94639305D01*
X252704178Y-93887062D01*
X252489452Y-93162792D01*
X252137555Y-92494330D01*
X252110548Y-92453912D01*
X251620881Y-92093724D01*
X249099605Y-94615000D01*
X248740395Y-94615000D01*
X246219119Y-92093724D01*
X245729452Y-92453912D01*
X245369151Y-93117882D01*
X245145306Y-93839385D01*
X245066520Y-94590695D01*
X242646724Y-94590695D01*
X242680537Y-94549494D01*
X242739502Y-94439180D01*
X242775812Y-94319482D01*
X242788072Y-94195000D01*
X242788072Y-92495000D01*
X242775812Y-92370518D01*
X242739502Y-92250820D01*
X242680537Y-92140506D01*
X242601185Y-92043815D01*
X242504494Y-91964463D01*
X242410309Y-91914119D01*
X246398724Y-91914119D01*
X248920000Y-94435395D01*
X251441276Y-91914119D01*
X251081088Y-91424452D01*
X250417118Y-91064151D01*
X249695615Y-90840306D01*
X248944305Y-90761520D01*
X248192062Y-90830822D01*
X247467792Y-91045548D01*
X246799330Y-91397445D01*
X246758912Y-91424452D01*
X246398724Y-91914119D01*
X242410309Y-91914119D01*
X242394180Y-91905498D01*
X242274482Y-91869188D01*
X242150000Y-91856928D01*
X240450000Y-91856928D01*
X240325518Y-91869188D01*
X240205820Y-91905498D01*
X240095506Y-91964463D01*
X239998815Y-92043815D01*
X239919463Y-92140506D01*
X239860498Y-92250820D01*
X239824188Y-92370518D01*
X239811928Y-92495000D01*
X219587588Y-92495000D01*
X219503519Y-92381586D01*
X219295131Y-92192615D01*
X219053881Y-92047930D01*
X218789040Y-91953091D01*
X218567000Y-92074376D01*
X218313000Y-92074376D01*
X218090960Y-91953091D01*
X217826119Y-92047930D01*
X217584869Y-92192615D01*
X217376481Y-92381586D01*
X217208963Y-92607580D01*
X217088754Y-92861913D01*
X217048096Y-92995961D01*
X209673685Y-92995961D01*
X209659853Y-92926426D01*
X209551680Y-92665273D01*
X209394637Y-92430241D01*
X209194759Y-92230363D01*
X208959727Y-92073320D01*
X208698574Y-91965147D01*
X208421335Y-91910000D01*
X208138665Y-91910000D01*
X207861426Y-91965147D01*
X207600273Y-92073320D01*
X207365241Y-92230363D01*
X207165363Y-92430241D01*
X207008320Y-92665273D01*
X206900147Y-92926426D01*
X206845000Y-93203665D01*
X204685000Y-93203665D01*
X204685000Y-93198740D01*
X204627932Y-92911842D01*
X204515990Y-92641589D01*
X204353475Y-92398368D01*
X204146632Y-92191525D01*
X203903411Y-92029010D01*
X203633158Y-91917068D01*
X203346260Y-91860000D01*
X203053740Y-91860000D01*
X202766842Y-91917068D01*
X202496589Y-92029010D01*
X202253368Y-92191525D01*
X202121513Y-92323380D01*
X202099502Y-92250820D01*
X202040537Y-92140506D01*
X201961185Y-92043815D01*
X201864494Y-91964463D01*
X201754180Y-91905498D01*
X201634482Y-91869188D01*
X201510000Y-91856928D01*
X199810000Y-91856928D01*
X199685518Y-91869188D01*
X199565820Y-91905498D01*
X199455506Y-91964463D01*
X199358815Y-92043815D01*
X199279463Y-92140506D01*
X199220498Y-92250820D01*
X199184188Y-92370518D01*
X199171928Y-92495000D01*
X193824094Y-92495000D01*
X193846481Y-92431891D01*
X193725814Y-92202000D01*
X192532000Y-92202000D01*
X192532000Y-92222000D01*
X192278000Y-92222000D01*
X192278000Y-92202000D01*
X192258000Y-92202000D01*
X192258000Y-91948000D01*
X192278000Y-91948000D01*
X192278000Y-90754845D01*
X192532000Y-90754845D01*
X192532000Y-91948000D01*
X193725814Y-91948000D01*
X193846481Y-91718109D01*
X193749157Y-91443748D01*
X193600178Y-91193645D01*
X193405269Y-90977412D01*
X193171920Y-90803359D01*
X192909099Y-90678175D01*
X192761890Y-90633524D01*
X192532000Y-90754845D01*
X192278000Y-90754845D01*
X192048110Y-90633524D01*
X191900901Y-90678175D01*
X191638080Y-90803359D01*
X191404731Y-90977412D01*
X191209822Y-91193645D01*
X191140195Y-91310534D01*
X191018475Y-91128368D01*
X190811632Y-90921525D01*
X190568411Y-90759010D01*
X190298158Y-90647068D01*
X190011260Y-90590000D01*
X189718740Y-90590000D01*
X189431842Y-90647068D01*
X189161589Y-90759010D01*
X188918368Y-90921525D01*
X188711525Y-91128368D01*
X188595000Y-91302760D01*
X188478475Y-91128368D01*
X188271632Y-90921525D01*
X188028411Y-90759010D01*
X187758158Y-90647068D01*
X187471260Y-90590000D01*
X187178740Y-90590000D01*
X186891842Y-90647068D01*
X186621589Y-90759010D01*
X186378368Y-90921525D01*
X186171525Y-91128368D01*
X186055000Y-91302760D01*
X185938475Y-91128368D01*
X185731632Y-90921525D01*
X185488411Y-90759010D01*
X185218158Y-90647068D01*
X184931260Y-90590000D01*
X184638740Y-90590000D01*
X184351842Y-90647068D01*
X184081589Y-90759010D01*
X183838368Y-90921525D01*
X183631525Y-91128368D01*
X183515000Y-91302760D01*
X183398475Y-91128368D01*
X183191632Y-90921525D01*
X182948411Y-90759010D01*
X182678158Y-90647068D01*
X182391260Y-90590000D01*
X182098740Y-90590000D01*
X181811842Y-90647068D01*
X181541589Y-90759010D01*
X181298368Y-90921525D01*
X181091525Y-91128368D01*
X180975000Y-91302760D01*
X180858475Y-91128368D01*
X180651632Y-90921525D01*
X180408411Y-90759010D01*
X180138158Y-90647068D01*
X179851260Y-90590000D01*
X179558740Y-90590000D01*
X179271842Y-90647068D01*
X179001589Y-90759010D01*
X178758368Y-90921525D01*
X178551525Y-91128368D01*
X178435000Y-91302760D01*
X178318475Y-91128368D01*
X178111632Y-90921525D01*
X177868411Y-90759010D01*
X177598158Y-90647068D01*
X177311260Y-90590000D01*
X177018740Y-90590000D01*
X176731842Y-90647068D01*
X176461589Y-90759010D01*
X176218368Y-90921525D01*
X176011525Y-91128368D01*
X175895000Y-91302760D01*
X175778475Y-91128368D01*
X175571632Y-90921525D01*
X175328411Y-90759010D01*
X175058158Y-90647068D01*
X174771260Y-90590000D01*
X174478740Y-90590000D01*
X174191842Y-90647068D01*
X173921589Y-90759010D01*
X173678368Y-90921525D01*
X173471525Y-91128368D01*
X173355000Y-91302760D01*
X173238475Y-91128368D01*
X173031632Y-90921525D01*
X172788411Y-90759010D01*
X172518158Y-90647068D01*
X172231260Y-90590000D01*
X171938740Y-90590000D01*
X171651842Y-90647068D01*
X171381589Y-90759010D01*
X171138368Y-90921525D01*
X171006513Y-91053380D01*
X170984502Y-90980820D01*
X170925537Y-90870506D01*
X170846185Y-90773815D01*
X170749494Y-90694463D01*
X170639180Y-90635498D01*
X170519482Y-90599188D01*
X170395000Y-90586928D01*
X168695000Y-90586928D01*
X168570518Y-90599188D01*
X168450820Y-90635498D01*
X168340506Y-90694463D01*
X168243815Y-90773815D01*
X168164463Y-90870506D01*
X168105498Y-90980820D01*
X168069188Y-91100518D01*
X168056928Y-91225000D01*
X161813534Y-91225000D01*
X161517118Y-91064151D01*
X160795615Y-90840306D01*
X160044305Y-90761520D01*
X159292062Y-90830822D01*
X158567792Y-91045548D01*
X157899330Y-91397445D01*
X157858912Y-91424452D01*
X157498724Y-91914119D01*
X155600000Y-91914119D01*
X155600000Y-90195000D01*
X253340000Y-90195000D01*
X253340001Y-152375000D01*
G04 #@! TA.AperFunction,Conductor*
D34*
G36*
X253340001Y-152375000D02*
G01*
X239877870Y-152375000D01*
X239875000Y-151240750D01*
X239716250Y-151082000D01*
X237617000Y-151082000D01*
X237617000Y-151102000D01*
X237363000Y-151102000D01*
X237363000Y-151082000D01*
X235263750Y-151082000D01*
X235105000Y-151240750D01*
X235102130Y-152375000D01*
X155600000Y-152375000D01*
X155600000Y-150655881D01*
X157498724Y-150655881D01*
X157858912Y-151145548D01*
X158522882Y-151505849D01*
X159244385Y-151729694D01*
X159995695Y-151808480D01*
X160747938Y-151739178D01*
X161472208Y-151524452D01*
X162140670Y-151172555D01*
X162181088Y-151145548D01*
X162541276Y-150655881D01*
X160020000Y-148134605D01*
X157498724Y-150655881D01*
X155600000Y-150655881D01*
X155600000Y-147930695D01*
X156166520Y-147930695D01*
X156235822Y-148682938D01*
X156450548Y-149407208D01*
X156802445Y-150075670D01*
X156829452Y-150116088D01*
X157319119Y-150476276D01*
X159840395Y-147955000D01*
X160199605Y-147955000D01*
X162720881Y-150476276D01*
X163210548Y-150116088D01*
X163479139Y-149621123D01*
X165950821Y-149621123D01*
X166060558Y-149943054D01*
X166230992Y-150237391D01*
X166455573Y-150492822D01*
X166725671Y-150699531D01*
X167030906Y-150849575D01*
X167243878Y-150914175D01*
X167513000Y-150796125D01*
X167513000Y-149352000D01*
X167767000Y-149352000D01*
X167767000Y-150796125D01*
X168036122Y-150914175D01*
X168249094Y-150849575D01*
X168324104Y-150812702D01*
X192861903Y-150812702D01*
X192933486Y-151056671D01*
X193188996Y-151177571D01*
X193463184Y-151246300D01*
X193745512Y-151260217D01*
X194025130Y-151218787D01*
X194291292Y-151123603D01*
X194416514Y-151056671D01*
X194488097Y-150812702D01*
X193675000Y-149999605D01*
X192861903Y-150812702D01*
X168324104Y-150812702D01*
X168554329Y-150699531D01*
X168824427Y-150492822D01*
X169049008Y-150237391D01*
X169219442Y-149943054D01*
X169237352Y-149890512D01*
X192234783Y-149890512D01*
X192276213Y-150170130D01*
X192371397Y-150436292D01*
X192438329Y-150561514D01*
X192682298Y-150633097D01*
X193495395Y-149820000D01*
X193854605Y-149820000D01*
X194667702Y-150633097D01*
X194911671Y-150561514D01*
X195032571Y-150306004D01*
X195064731Y-150177702D01*
X222706903Y-150177702D01*
X222778486Y-150421671D01*
X223033996Y-150542571D01*
X223308184Y-150611300D01*
X223590512Y-150625217D01*
X223870130Y-150583787D01*
X224136292Y-150488603D01*
X224261514Y-150421671D01*
X224333097Y-150177702D01*
X223520000Y-149364605D01*
X222706903Y-150177702D01*
X195064731Y-150177702D01*
X195101300Y-150031816D01*
X195115217Y-149749488D01*
X195073787Y-149469870D01*
X194978603Y-149203708D01*
X194911671Y-149078486D01*
X194667702Y-149006903D01*
X193854605Y-149820000D01*
X193495395Y-149820000D01*
X192682298Y-149006903D01*
X192438329Y-149078486D01*
X192317429Y-149333996D01*
X192248700Y-149608184D01*
X192234783Y-149890512D01*
X169237352Y-149890512D01*
X169329179Y-149621123D01*
X169211600Y-149352000D01*
X167767000Y-149352000D01*
X167513000Y-149352000D01*
X166068400Y-149352000D01*
X165950821Y-149621123D01*
X163479139Y-149621123D01*
X163570849Y-149452118D01*
X163764208Y-148828877D01*
X165950821Y-148828877D01*
X166068400Y-149098000D01*
X167513000Y-149098000D01*
X167513000Y-147653875D01*
X167767000Y-147653875D01*
X167767000Y-149098000D01*
X169211600Y-149098000D01*
X169329179Y-148828877D01*
X169219442Y-148506946D01*
X169049008Y-148212609D01*
X168824427Y-147957178D01*
X168554329Y-147750469D01*
X168406299Y-147677702D01*
X173176903Y-147677702D01*
X173248486Y-147921671D01*
X173503996Y-148042571D01*
X173778184Y-148111300D01*
X174060512Y-148125217D01*
X174340130Y-148083787D01*
X174606292Y-147988603D01*
X174731514Y-147921671D01*
X174803097Y-147677702D01*
X173990000Y-146864605D01*
X173176903Y-147677702D01*
X168406299Y-147677702D01*
X168249094Y-147600425D01*
X168036122Y-147535825D01*
X167767000Y-147653875D01*
X167513000Y-147653875D01*
X167243878Y-147535825D01*
X167030906Y-147600425D01*
X166725671Y-147750469D01*
X166455573Y-147957178D01*
X166230992Y-148212609D01*
X166060558Y-148506946D01*
X165950821Y-148828877D01*
X163764208Y-148828877D01*
X163794694Y-148730615D01*
X163873480Y-147979305D01*
X163804178Y-147227062D01*
X163664377Y-146755512D01*
X172549783Y-146755512D01*
X172591213Y-147035130D01*
X172686397Y-147301292D01*
X172753329Y-147426514D01*
X172997298Y-147498097D01*
X173810395Y-146685000D01*
X174169605Y-146685000D01*
X174982702Y-147498097D01*
X175226671Y-147426514D01*
X175347571Y-147171004D01*
X175416300Y-146896816D01*
X175430217Y-146614488D01*
X175388787Y-146334870D01*
X175293603Y-146068708D01*
X175226671Y-145943486D01*
X174982702Y-145871903D01*
X174169605Y-146685000D01*
X173810395Y-146685000D01*
X172997298Y-145871903D01*
X172753329Y-145943486D01*
X172632429Y-146198996D01*
X172563700Y-146473184D01*
X172549783Y-146755512D01*
X163664377Y-146755512D01*
X163589452Y-146502792D01*
X163237555Y-145834330D01*
X163210548Y-145793912D01*
X162720881Y-145433724D01*
X160199605Y-147955000D01*
X159840395Y-147955000D01*
X157319119Y-145433724D01*
X156829452Y-145793912D01*
X156469151Y-146457882D01*
X156245306Y-147179385D01*
X156166520Y-147930695D01*
X155600000Y-147930695D01*
X155600000Y-145254119D01*
X157498724Y-145254119D01*
X160020000Y-147775395D01*
X162541276Y-145254119D01*
X162181088Y-144764452D01*
X161517118Y-144404151D01*
X160795615Y-144180306D01*
X160044305Y-144101520D01*
X159292062Y-144170822D01*
X158567792Y-144385548D01*
X157899330Y-144737445D01*
X157858912Y-144764452D01*
X157498724Y-145254119D01*
X155600000Y-145254119D01*
X155600000Y-143385000D01*
X172551928Y-143385000D01*
X172551928Y-144985000D01*
X172564188Y-145109482D01*
X172600498Y-145229180D01*
X172659463Y-145339494D01*
X172738815Y-145436185D01*
X172835506Y-145515537D01*
X172945820Y-145574502D01*
X173065518Y-145610812D01*
X173190000Y-145623072D01*
X173197215Y-145623072D01*
X173176903Y-145692298D01*
X173990000Y-146505395D01*
X174635976Y-145859419D01*
X179755000Y-145859419D01*
X179755000Y-146240581D01*
X179829361Y-146614419D01*
X179975225Y-146966566D01*
X180186987Y-147283491D01*
X180456509Y-147553013D01*
X180773434Y-147764775D01*
X181125581Y-147910639D01*
X181499419Y-147985000D01*
X181880581Y-147985000D01*
X182254419Y-147910639D01*
X182606566Y-147764775D01*
X182923491Y-147553013D01*
X183193013Y-147283491D01*
X183404775Y-146966566D01*
X183550639Y-146614419D01*
X183625000Y-146240581D01*
X183625000Y-145859419D01*
X184755000Y-145859419D01*
X184755000Y-146240581D01*
X184829361Y-146614419D01*
X184975225Y-146966566D01*
X185186987Y-147283491D01*
X185456509Y-147553013D01*
X185773434Y-147764775D01*
X186125581Y-147910639D01*
X186499419Y-147985000D01*
X186880581Y-147985000D01*
X187254419Y-147910639D01*
X187606566Y-147764775D01*
X187923491Y-147553013D01*
X188193013Y-147283491D01*
X188404775Y-146966566D01*
X188550639Y-146614419D01*
X188569420Y-146520000D01*
X192236928Y-146520000D01*
X192236928Y-148120000D01*
X192249188Y-148244482D01*
X192285498Y-148364180D01*
X192344463Y-148474494D01*
X192423815Y-148571185D01*
X192520506Y-148650537D01*
X192630820Y-148709502D01*
X192750518Y-148745812D01*
X192875000Y-148758072D01*
X192882215Y-148758072D01*
X192861903Y-148827298D01*
X193675000Y-149640395D01*
X194488097Y-148827298D01*
X194467785Y-148758072D01*
X194475000Y-148758072D01*
X194599482Y-148745812D01*
X194719180Y-148709502D01*
X194829494Y-148650537D01*
X194926185Y-148571185D01*
X195005537Y-148474494D01*
X195016098Y-148454736D01*
X208176645Y-148454736D01*
X208176645Y-148725264D01*
X208229422Y-148990593D01*
X208332949Y-149240527D01*
X208483246Y-149465463D01*
X208674537Y-149656754D01*
X208899473Y-149807051D01*
X209149407Y-149910578D01*
X209414736Y-149963355D01*
X209685264Y-149963355D01*
X209950593Y-149910578D01*
X210200527Y-149807051D01*
X210425463Y-149656754D01*
X210616754Y-149465463D01*
X210757038Y-149255512D01*
X222079783Y-149255512D01*
X222121213Y-149535130D01*
X222216397Y-149801292D01*
X222283329Y-149926514D01*
X222527298Y-149998097D01*
X223340395Y-149185000D01*
X223699605Y-149185000D01*
X224512702Y-149998097D01*
X224756671Y-149926514D01*
X224877571Y-149671004D01*
X224946300Y-149396816D01*
X224960217Y-149114488D01*
X224952732Y-149063967D01*
X228235000Y-149063967D01*
X228235000Y-149386033D01*
X228297832Y-149701912D01*
X228421082Y-149999463D01*
X228600013Y-150267252D01*
X228827748Y-150494987D01*
X229095537Y-150673918D01*
X229393088Y-150797168D01*
X229708967Y-150860000D01*
X230031033Y-150860000D01*
X230346912Y-150797168D01*
X230644463Y-150673918D01*
X230912252Y-150494987D01*
X231139987Y-150267252D01*
X231318918Y-149999463D01*
X231442168Y-149701912D01*
X231491281Y-149455000D01*
X235101928Y-149455000D01*
X235105000Y-150669250D01*
X235263750Y-150828000D01*
X237363000Y-150828000D01*
X237363000Y-148978750D01*
X237617000Y-148978750D01*
X237617000Y-150828000D01*
X239716250Y-150828000D01*
X239875000Y-150669250D01*
X239875033Y-150655881D01*
X246398724Y-150655881D01*
X246758912Y-151145548D01*
X247422882Y-151505849D01*
X248144385Y-151729694D01*
X248895695Y-151808480D01*
X249647938Y-151739178D01*
X250372208Y-151524452D01*
X251040670Y-151172555D01*
X251081088Y-151145548D01*
X251441276Y-150655881D01*
X248920000Y-148134605D01*
X246398724Y-150655881D01*
X239875033Y-150655881D01*
X239878072Y-149455000D01*
X239865812Y-149330518D01*
X239829502Y-149210820D01*
X239770537Y-149100506D01*
X239691185Y-149003815D01*
X239594494Y-148924463D01*
X239484180Y-148865498D01*
X239364482Y-148829188D01*
X239240000Y-148816928D01*
X237775750Y-148820000D01*
X237617000Y-148978750D01*
X237363000Y-148978750D01*
X237204250Y-148820000D01*
X235740000Y-148816928D01*
X235615518Y-148829188D01*
X235495820Y-148865498D01*
X235385506Y-148924463D01*
X235288815Y-149003815D01*
X235209463Y-149100506D01*
X235150498Y-149210820D01*
X235114188Y-149330518D01*
X235101928Y-149455000D01*
X231491281Y-149455000D01*
X231505000Y-149386033D01*
X231505000Y-149063967D01*
X231442168Y-148748088D01*
X231318918Y-148450537D01*
X231139987Y-148182748D01*
X230912252Y-147955013D01*
X230644463Y-147776082D01*
X230346912Y-147652832D01*
X230031033Y-147590000D01*
X229708967Y-147590000D01*
X229393088Y-147652832D01*
X229095537Y-147776082D01*
X228827748Y-147955013D01*
X228600013Y-148182748D01*
X228421082Y-148450537D01*
X228297832Y-148748088D01*
X228235000Y-149063967D01*
X224952732Y-149063967D01*
X224918787Y-148834870D01*
X224823603Y-148568708D01*
X224756671Y-148443486D01*
X224512702Y-148371903D01*
X223699605Y-149185000D01*
X223340395Y-149185000D01*
X222527298Y-148371903D01*
X222283329Y-148443486D01*
X222162429Y-148698996D01*
X222093700Y-148973184D01*
X222079783Y-149255512D01*
X210757038Y-149255512D01*
X210767051Y-149240527D01*
X210870578Y-148990593D01*
X210923355Y-148725264D01*
X210923355Y-148454736D01*
X210870578Y-148189407D01*
X210767051Y-147939473D01*
X210616754Y-147714537D01*
X210425463Y-147523246D01*
X210200527Y-147372949D01*
X209950593Y-147269422D01*
X209685264Y-147216645D01*
X209414736Y-147216645D01*
X209149407Y-147269422D01*
X208899473Y-147372949D01*
X208674537Y-147523246D01*
X208483246Y-147714537D01*
X208332949Y-147939473D01*
X208229422Y-148189407D01*
X208176645Y-148454736D01*
X195016098Y-148454736D01*
X195064502Y-148364180D01*
X195100812Y-148244482D01*
X195113072Y-148120000D01*
X195113072Y-146520000D01*
X195100812Y-146395518D01*
X195064502Y-146275820D01*
X195005537Y-146165506D01*
X194926185Y-146068815D01*
X194829494Y-145989463D01*
X194719180Y-145930498D01*
X194599482Y-145894188D01*
X194506192Y-145885000D01*
X222081928Y-145885000D01*
X222081928Y-147485000D01*
X222094188Y-147609482D01*
X222130498Y-147729180D01*
X222189463Y-147839494D01*
X222268815Y-147936185D01*
X222365506Y-148015537D01*
X222475820Y-148074502D01*
X222595518Y-148110812D01*
X222720000Y-148123072D01*
X222727215Y-148123072D01*
X222706903Y-148192298D01*
X223520000Y-149005395D01*
X224333097Y-148192298D01*
X224312785Y-148123072D01*
X224320000Y-148123072D01*
X224444482Y-148110812D01*
X224564180Y-148074502D01*
X224674494Y-148015537D01*
X224771185Y-147936185D01*
X224850537Y-147839494D01*
X224909502Y-147729180D01*
X224945812Y-147609482D01*
X224958072Y-147485000D01*
X224958072Y-145885000D01*
X224945812Y-145760518D01*
X224909502Y-145640820D01*
X224850537Y-145530506D01*
X224771185Y-145433815D01*
X224674494Y-145354463D01*
X224564180Y-145295498D01*
X224444482Y-145259188D01*
X224320000Y-145246928D01*
X222720000Y-145246928D01*
X222595518Y-145259188D01*
X222475820Y-145295498D01*
X222365506Y-145354463D01*
X222268815Y-145433815D01*
X222189463Y-145530506D01*
X222130498Y-145640820D01*
X222094188Y-145760518D01*
X222081928Y-145885000D01*
X194506192Y-145885000D01*
X194475000Y-145881928D01*
X192875000Y-145881928D01*
X192750518Y-145894188D01*
X192630820Y-145930498D01*
X192520506Y-145989463D01*
X192423815Y-146068815D01*
X192344463Y-146165506D01*
X192285498Y-146275820D01*
X192249188Y-146395518D01*
X192236928Y-146520000D01*
X188569420Y-146520000D01*
X188625000Y-146240581D01*
X188625000Y-145859419D01*
X188550639Y-145485581D01*
X188404775Y-145133434D01*
X188193013Y-144816509D01*
X187923491Y-144546987D01*
X187606566Y-144335225D01*
X187254419Y-144189361D01*
X186880581Y-144115000D01*
X186499419Y-144115000D01*
X186125581Y-144189361D01*
X185773434Y-144335225D01*
X185456509Y-144546987D01*
X185186987Y-144816509D01*
X184975225Y-145133434D01*
X184829361Y-145485581D01*
X184755000Y-145859419D01*
X183625000Y-145859419D01*
X183550639Y-145485581D01*
X183404775Y-145133434D01*
X183193013Y-144816509D01*
X182923491Y-144546987D01*
X182606566Y-144335225D01*
X182254419Y-144189361D01*
X181880581Y-144115000D01*
X181499419Y-144115000D01*
X181125581Y-144189361D01*
X180773434Y-144335225D01*
X180456509Y-144546987D01*
X180186987Y-144816509D01*
X179975225Y-145133434D01*
X179829361Y-145485581D01*
X179755000Y-145859419D01*
X174635976Y-145859419D01*
X174803097Y-145692298D01*
X174782785Y-145623072D01*
X174790000Y-145623072D01*
X174914482Y-145610812D01*
X175034180Y-145574502D01*
X175144494Y-145515537D01*
X175241185Y-145436185D01*
X175320537Y-145339494D01*
X175379502Y-145229180D01*
X175415812Y-145109482D01*
X175428072Y-144985000D01*
X175428072Y-143385000D01*
X175428025Y-143384514D01*
X205422500Y-143384514D01*
X205422500Y-143635485D01*
X205445470Y-143868703D01*
X205536245Y-144167948D01*
X205683655Y-144443734D01*
X205882037Y-144685463D01*
X206123765Y-144883845D01*
X206399551Y-145031255D01*
X206698796Y-145122030D01*
X207010000Y-145152681D01*
X207321203Y-145122030D01*
X207620448Y-145031255D01*
X207896234Y-144883845D01*
X208137963Y-144685463D01*
X208285163Y-144506101D01*
X208440563Y-144691315D01*
X208683077Y-144885969D01*
X208958906Y-145029571D01*
X209177020Y-145100563D01*
X209423000Y-144980594D01*
X209423000Y-143637000D01*
X209403000Y-143637000D01*
X209403000Y-143383000D01*
X209423000Y-143383000D01*
X209423000Y-142039406D01*
X209677000Y-142039406D01*
X209677000Y-143383000D01*
X209697000Y-143383000D01*
X209697000Y-143637000D01*
X209677000Y-143637000D01*
X209677000Y-144980594D01*
X209922980Y-145100563D01*
X210141094Y-145029571D01*
X210416923Y-144885969D01*
X210557941Y-144772781D01*
X210606963Y-144864494D01*
X210686315Y-144961185D01*
X210783006Y-145040537D01*
X210893320Y-145099502D01*
X211013018Y-145135812D01*
X211137500Y-145148072D01*
X213042500Y-145148072D01*
X213166982Y-145135812D01*
X213286680Y-145099502D01*
X213396994Y-145040537D01*
X213493685Y-144961185D01*
X213573037Y-144864494D01*
X213632002Y-144754180D01*
X213668312Y-144634482D01*
X213680572Y-144510000D01*
X213680572Y-143368665D01*
X220815000Y-143368665D01*
X220815000Y-143651335D01*
X220870147Y-143928574D01*
X220978320Y-144189727D01*
X221135363Y-144424759D01*
X221335241Y-144624637D01*
X221570273Y-144781680D01*
X221831426Y-144889853D01*
X222108665Y-144945000D01*
X222391335Y-144945000D01*
X222668574Y-144889853D01*
X222929727Y-144781680D01*
X223164759Y-144624637D01*
X223286694Y-144502702D01*
X223936903Y-144502702D01*
X224008486Y-144746671D01*
X224263996Y-144867571D01*
X224538184Y-144936300D01*
X224820512Y-144950217D01*
X225100130Y-144908787D01*
X225366292Y-144813603D01*
X225491514Y-144746671D01*
X225563097Y-144502702D01*
X224750000Y-143689605D01*
X223936903Y-144502702D01*
X223286694Y-144502702D01*
X223364637Y-144424759D01*
X223498692Y-144224131D01*
X223513329Y-144251514D01*
X223757298Y-144323097D01*
X224570395Y-143510000D01*
X224929605Y-143510000D01*
X225742702Y-144323097D01*
X225986671Y-144251514D01*
X226107571Y-143996004D01*
X226110588Y-143983967D01*
X228245000Y-143983967D01*
X228245000Y-144306033D01*
X228307832Y-144621912D01*
X228431082Y-144919463D01*
X228610013Y-145187252D01*
X228837748Y-145414987D01*
X229105537Y-145593918D01*
X229403088Y-145717168D01*
X229718967Y-145780000D01*
X230041033Y-145780000D01*
X230356912Y-145717168D01*
X230654463Y-145593918D01*
X230922252Y-145414987D01*
X231149987Y-145187252D01*
X231328918Y-144919463D01*
X231452168Y-144621912D01*
X231515000Y-144306033D01*
X231515000Y-143983967D01*
X231452168Y-143668088D01*
X231328918Y-143370537D01*
X231218310Y-143205000D01*
X235101928Y-143205000D01*
X235101928Y-146705000D01*
X235114188Y-146829482D01*
X235150498Y-146949180D01*
X235209463Y-147059494D01*
X235288815Y-147156185D01*
X235385506Y-147235537D01*
X235495820Y-147294502D01*
X235615518Y-147330812D01*
X235740000Y-147343072D01*
X239240000Y-147343072D01*
X239364482Y-147330812D01*
X239484180Y-147294502D01*
X239594494Y-147235537D01*
X239691185Y-147156185D01*
X239770537Y-147059494D01*
X239811494Y-146982869D01*
X239801928Y-147080000D01*
X239801928Y-148830000D01*
X239831001Y-149125186D01*
X239917104Y-149409028D01*
X240056927Y-149670618D01*
X240245097Y-149899903D01*
X240474382Y-150088073D01*
X240735972Y-150227896D01*
X241019814Y-150313999D01*
X241315000Y-150343072D01*
X243065000Y-150343072D01*
X243360186Y-150313999D01*
X243644028Y-150227896D01*
X243905618Y-150088073D01*
X244134903Y-149899903D01*
X244323073Y-149670618D01*
X244462896Y-149409028D01*
X244548999Y-149125186D01*
X244578072Y-148830000D01*
X244578072Y-147930695D01*
X245066520Y-147930695D01*
X245135822Y-148682938D01*
X245350548Y-149407208D01*
X245702445Y-150075670D01*
X245729452Y-150116088D01*
X246219119Y-150476276D01*
X248740395Y-147955000D01*
X249099605Y-147955000D01*
X251620881Y-150476276D01*
X252110548Y-150116088D01*
X252470849Y-149452118D01*
X252694694Y-148730615D01*
X252773480Y-147979305D01*
X252704178Y-147227062D01*
X252489452Y-146502792D01*
X252137555Y-145834330D01*
X252110548Y-145793912D01*
X251620881Y-145433724D01*
X249099605Y-147955000D01*
X248740395Y-147955000D01*
X246219119Y-145433724D01*
X245729452Y-145793912D01*
X245369151Y-146457882D01*
X245145306Y-147179385D01*
X245066520Y-147930695D01*
X244578072Y-147930695D01*
X244578072Y-147080000D01*
X244548999Y-146784814D01*
X244462896Y-146500972D01*
X244323073Y-146239382D01*
X244134903Y-146010097D01*
X243905618Y-145821927D01*
X243644028Y-145682104D01*
X243360186Y-145596001D01*
X243065000Y-145566928D01*
X241315000Y-145566928D01*
X241019814Y-145596001D01*
X240735972Y-145682104D01*
X240474382Y-145821927D01*
X240245097Y-146010097D01*
X240056927Y-146239382D01*
X239917104Y-146500972D01*
X239878072Y-146629643D01*
X239878072Y-145254119D01*
X246398724Y-145254119D01*
X248920000Y-147775395D01*
X251441276Y-145254119D01*
X251081088Y-144764452D01*
X250417118Y-144404151D01*
X249695615Y-144180306D01*
X248944305Y-144101520D01*
X248192062Y-144170822D01*
X247467792Y-144385548D01*
X246799330Y-144737445D01*
X246758912Y-144764452D01*
X246398724Y-145254119D01*
X239878072Y-145254119D01*
X239878072Y-143205000D01*
X239865812Y-143080518D01*
X239829502Y-142960820D01*
X239770537Y-142850506D01*
X239691185Y-142753815D01*
X239594494Y-142674463D01*
X239484180Y-142615498D01*
X239364482Y-142579188D01*
X239240000Y-142566928D01*
X235740000Y-142566928D01*
X235615518Y-142579188D01*
X235495820Y-142615498D01*
X235385506Y-142674463D01*
X235288815Y-142753815D01*
X235209463Y-142850506D01*
X235150498Y-142960820D01*
X235114188Y-143080518D01*
X235101928Y-143205000D01*
X231218310Y-143205000D01*
X231149987Y-143102748D01*
X230922252Y-142875013D01*
X230654463Y-142696082D01*
X230356912Y-142572832D01*
X230041033Y-142510000D01*
X229718967Y-142510000D01*
X229403088Y-142572832D01*
X229105537Y-142696082D01*
X228837748Y-142875013D01*
X228610013Y-143102748D01*
X228431082Y-143370537D01*
X228307832Y-143668088D01*
X228245000Y-143983967D01*
X226110588Y-143983967D01*
X226176300Y-143721816D01*
X226190217Y-143439488D01*
X226148787Y-143159870D01*
X226053603Y-142893708D01*
X225986671Y-142768486D01*
X225742702Y-142696903D01*
X224929605Y-143510000D01*
X224570395Y-143510000D01*
X223757298Y-142696903D01*
X223513329Y-142768486D01*
X223499676Y-142797341D01*
X223364637Y-142595241D01*
X223286694Y-142517298D01*
X223936903Y-142517298D01*
X224750000Y-143330395D01*
X225563097Y-142517298D01*
X225491514Y-142273329D01*
X225236004Y-142152429D01*
X224961816Y-142083700D01*
X224679488Y-142069783D01*
X224399870Y-142111213D01*
X224133708Y-142206397D01*
X224008486Y-142273329D01*
X223936903Y-142517298D01*
X223286694Y-142517298D01*
X223164759Y-142395363D01*
X222929727Y-142238320D01*
X222668574Y-142130147D01*
X222391335Y-142075000D01*
X222108665Y-142075000D01*
X221831426Y-142130147D01*
X221570273Y-142238320D01*
X221335241Y-142395363D01*
X221135363Y-142595241D01*
X220978320Y-142830273D01*
X220870147Y-143091426D01*
X220815000Y-143368665D01*
X213680572Y-143368665D01*
X213680572Y-142510000D01*
X213668312Y-142385518D01*
X213632002Y-142265820D01*
X213573037Y-142155506D01*
X213493685Y-142058815D01*
X213396994Y-141979463D01*
X213286680Y-141920498D01*
X213166982Y-141884188D01*
X213042500Y-141871928D01*
X211137500Y-141871928D01*
X211013018Y-141884188D01*
X210893320Y-141920498D01*
X210783006Y-141979463D01*
X210686315Y-142058815D01*
X210606963Y-142155506D01*
X210557941Y-142247219D01*
X210416923Y-142134031D01*
X210141094Y-141990429D01*
X209922980Y-141919437D01*
X209677000Y-142039406D01*
X209423000Y-142039406D01*
X209177020Y-141919437D01*
X208958906Y-141990429D01*
X208683077Y-142134031D01*
X208440563Y-142328685D01*
X208285162Y-142513900D01*
X208137963Y-142334537D01*
X207896235Y-142136155D01*
X207620449Y-141988745D01*
X207321204Y-141897970D01*
X207010000Y-141867319D01*
X206698797Y-141897970D01*
X206399552Y-141988745D01*
X206123766Y-142136155D01*
X205882037Y-142334537D01*
X205683655Y-142576265D01*
X205536245Y-142852051D01*
X205445470Y-143151296D01*
X205422500Y-143384514D01*
X175428025Y-143384514D01*
X175415812Y-143260518D01*
X175379502Y-143140820D01*
X175320537Y-143030506D01*
X175241185Y-142933815D01*
X175144494Y-142854463D01*
X175034180Y-142795498D01*
X174914482Y-142759188D01*
X174790000Y-142746928D01*
X173190000Y-142746928D01*
X173065518Y-142759188D01*
X172945820Y-142795498D01*
X172835506Y-142854463D01*
X172738815Y-142933815D01*
X172659463Y-143030506D01*
X172600498Y-143140820D01*
X172564188Y-143260518D01*
X172551928Y-143385000D01*
X155600000Y-143385000D01*
X155600000Y-142557702D01*
X192861903Y-142557702D01*
X192933486Y-142801671D01*
X193188996Y-142922571D01*
X193463184Y-142991300D01*
X193745512Y-143005217D01*
X194025130Y-142963787D01*
X194291292Y-142868603D01*
X194416514Y-142801671D01*
X194488097Y-142557702D01*
X193675000Y-141744605D01*
X192861903Y-142557702D01*
X155600000Y-142557702D01*
X155600000Y-141635512D01*
X192234783Y-141635512D01*
X192276213Y-141915130D01*
X192371397Y-142181292D01*
X192438329Y-142306514D01*
X192682298Y-142378097D01*
X193495395Y-141565000D01*
X193854605Y-141565000D01*
X194667702Y-142378097D01*
X194911671Y-142306514D01*
X195032571Y-142051004D01*
X195101300Y-141776816D01*
X195115217Y-141494488D01*
X195073787Y-141214870D01*
X194978603Y-140948708D01*
X194911671Y-140823486D01*
X194667702Y-140751903D01*
X193854605Y-141565000D01*
X193495395Y-141565000D01*
X192682298Y-140751903D01*
X192438329Y-140823486D01*
X192317429Y-141078996D01*
X192248700Y-141353184D01*
X192234783Y-141635512D01*
X155600000Y-141635512D01*
X155600000Y-137965000D01*
X165901928Y-137965000D01*
X165901928Y-140165000D01*
X165914188Y-140289482D01*
X165950498Y-140409180D01*
X166009463Y-140519494D01*
X166088815Y-140616185D01*
X166185506Y-140695537D01*
X166295820Y-140754502D01*
X166415518Y-140790812D01*
X166540000Y-140803072D01*
X168740000Y-140803072D01*
X168864482Y-140790812D01*
X168984180Y-140754502D01*
X169094494Y-140695537D01*
X169191185Y-140616185D01*
X169270537Y-140519494D01*
X169329502Y-140409180D01*
X169365812Y-140289482D01*
X169378072Y-140165000D01*
X169378072Y-137965000D01*
X170981928Y-137965000D01*
X170981928Y-140165000D01*
X170994188Y-140289482D01*
X171030498Y-140409180D01*
X171089463Y-140519494D01*
X171168815Y-140616185D01*
X171265506Y-140695537D01*
X171375820Y-140754502D01*
X171495518Y-140790812D01*
X171620000Y-140803072D01*
X173820000Y-140803072D01*
X173944482Y-140790812D01*
X174064180Y-140754502D01*
X174174494Y-140695537D01*
X174271185Y-140616185D01*
X174350537Y-140519494D01*
X174409502Y-140409180D01*
X174445812Y-140289482D01*
X174458072Y-140165000D01*
X174458072Y-138894117D01*
X181145000Y-138894117D01*
X181145000Y-139235883D01*
X181211675Y-139571081D01*
X181342463Y-139886831D01*
X181532337Y-140170998D01*
X181774002Y-140412663D01*
X182058169Y-140602537D01*
X182373919Y-140733325D01*
X182709117Y-140800000D01*
X183050883Y-140800000D01*
X183386081Y-140733325D01*
X183701831Y-140602537D01*
X183985998Y-140412663D01*
X184227663Y-140170998D01*
X184417537Y-139886831D01*
X184548325Y-139571081D01*
X184615000Y-139235883D01*
X184615000Y-138894117D01*
X184548325Y-138558919D01*
X184417537Y-138243169D01*
X184227663Y-137959002D01*
X183985998Y-137717337D01*
X183701831Y-137527463D01*
X183386081Y-137396675D01*
X183050883Y-137330000D01*
X182709117Y-137330000D01*
X182373919Y-137396675D01*
X182058169Y-137527463D01*
X181774002Y-137717337D01*
X181532337Y-137959002D01*
X181342463Y-138243169D01*
X181211675Y-138558919D01*
X181145000Y-138894117D01*
X174458072Y-138894117D01*
X174458072Y-137965000D01*
X174445812Y-137840518D01*
X174409502Y-137720820D01*
X174350537Y-137610506D01*
X174271185Y-137513815D01*
X174174494Y-137434463D01*
X174064180Y-137375498D01*
X173944482Y-137339188D01*
X173820000Y-137326928D01*
X171620000Y-137326928D01*
X171495518Y-137339188D01*
X171375820Y-137375498D01*
X171265506Y-137434463D01*
X171168815Y-137513815D01*
X171089463Y-137610506D01*
X171030498Y-137720820D01*
X170994188Y-137840518D01*
X170981928Y-137965000D01*
X169378072Y-137965000D01*
X169365812Y-137840518D01*
X169329502Y-137720820D01*
X169270537Y-137610506D01*
X169191185Y-137513815D01*
X169094494Y-137434463D01*
X168984180Y-137375498D01*
X168864482Y-137339188D01*
X168740000Y-137326928D01*
X166540000Y-137326928D01*
X166415518Y-137339188D01*
X166295820Y-137375498D01*
X166185506Y-137434463D01*
X166088815Y-137513815D01*
X166009463Y-137610506D01*
X165950498Y-137720820D01*
X165914188Y-137840518D01*
X165901928Y-137965000D01*
X155600000Y-137965000D01*
X155600000Y-133774721D01*
X165505000Y-133774721D01*
X165505000Y-134195279D01*
X165587047Y-134607756D01*
X165747988Y-134996302D01*
X165981637Y-135345983D01*
X166279017Y-135643363D01*
X166628698Y-135877012D01*
X167017244Y-136037953D01*
X167429721Y-136120000D01*
X167850279Y-136120000D01*
X168262756Y-136037953D01*
X168651302Y-135877012D01*
X169000983Y-135643363D01*
X169298363Y-135345983D01*
X169532012Y-134996302D01*
X169692953Y-134607756D01*
X169775000Y-134195279D01*
X169775000Y-133774721D01*
X169692953Y-133362244D01*
X169532012Y-132973698D01*
X169298363Y-132624017D01*
X169000983Y-132326637D01*
X168651302Y-132092988D01*
X168262756Y-131932047D01*
X167850279Y-131850000D01*
X167429721Y-131850000D01*
X167017244Y-131932047D01*
X166628698Y-132092988D01*
X166279017Y-132326637D01*
X165981637Y-132624017D01*
X165747988Y-132973698D01*
X165587047Y-133362244D01*
X165505000Y-133774721D01*
X155600000Y-133774721D01*
X155600000Y-130545000D01*
X188326928Y-130545000D01*
X188326928Y-134885000D01*
X188339188Y-135009482D01*
X188375498Y-135129180D01*
X188434463Y-135239494D01*
X188513815Y-135336185D01*
X188610506Y-135415537D01*
X188720820Y-135474502D01*
X188840518Y-135510812D01*
X188965000Y-135523072D01*
X190765000Y-135523072D01*
X190889482Y-135510812D01*
X191009180Y-135474502D01*
X191119494Y-135415537D01*
X191216185Y-135336185D01*
X191295537Y-135239494D01*
X191354502Y-135129180D01*
X191390812Y-135009482D01*
X191403072Y-134885000D01*
X191403072Y-130545000D01*
X191390812Y-130420518D01*
X191354502Y-130300820D01*
X191295537Y-130190506D01*
X191216185Y-130093815D01*
X191119494Y-130014463D01*
X191009180Y-129955498D01*
X190889482Y-129919188D01*
X190765000Y-129906928D01*
X188965000Y-129906928D01*
X188840518Y-129919188D01*
X188720820Y-129955498D01*
X188610506Y-130014463D01*
X188513815Y-130093815D01*
X188434463Y-130190506D01*
X188375498Y-130300820D01*
X188339188Y-130420518D01*
X188326928Y-130545000D01*
X155600000Y-130545000D01*
X155600000Y-123683665D01*
X173190000Y-123683665D01*
X173190000Y-123966335D01*
X173245147Y-124243574D01*
X173353320Y-124504727D01*
X173510363Y-124739759D01*
X173710241Y-124939637D01*
X173945273Y-125096680D01*
X174206426Y-125204853D01*
X174483665Y-125260000D01*
X174766335Y-125260000D01*
X175043574Y-125204853D01*
X175304727Y-125096680D01*
X175539759Y-124939637D01*
X175739637Y-124739759D01*
X175896680Y-124504727D01*
X176004853Y-124243574D01*
X176060000Y-123966335D01*
X176060000Y-123683665D01*
X183350000Y-123683665D01*
X183350000Y-123966335D01*
X183405147Y-124243574D01*
X183513320Y-124504727D01*
X183670363Y-124739759D01*
X183870241Y-124939637D01*
X184105273Y-125096680D01*
X184366426Y-125204853D01*
X184643665Y-125260000D01*
X184926335Y-125260000D01*
X185203574Y-125204853D01*
X185464727Y-125096680D01*
X185669284Y-124960000D01*
X189394869Y-124960000D01*
X192540000Y-128105133D01*
X192540001Y-137724043D01*
X192520506Y-137734463D01*
X192423815Y-137813815D01*
X192344463Y-137910506D01*
X192285498Y-138020820D01*
X192249188Y-138140518D01*
X192236928Y-138265000D01*
X192236928Y-139865000D01*
X192249188Y-139989482D01*
X192285498Y-140109180D01*
X192344463Y-140219494D01*
X192423815Y-140316185D01*
X192520506Y-140395537D01*
X192630820Y-140454502D01*
X192750518Y-140490812D01*
X192875000Y-140503072D01*
X192882215Y-140503072D01*
X192861903Y-140572298D01*
X193675000Y-141385395D01*
X194488097Y-140572298D01*
X194467785Y-140503072D01*
X194475000Y-140503072D01*
X194599482Y-140490812D01*
X194719180Y-140454502D01*
X194829494Y-140395537D01*
X194926185Y-140316185D01*
X195005537Y-140219494D01*
X195064502Y-140109180D01*
X195100812Y-139989482D01*
X195113072Y-139865000D01*
X195113072Y-138265000D01*
X195100812Y-138140518D01*
X195064502Y-138020820D01*
X195005537Y-137910506D01*
X194926185Y-137813815D01*
X194829494Y-137734463D01*
X194810000Y-137724043D01*
X194810000Y-135679721D01*
X202335000Y-135679721D01*
X202335000Y-136100279D01*
X202417047Y-136512756D01*
X202577988Y-136901302D01*
X202811637Y-137250983D01*
X203109017Y-137548363D01*
X203458698Y-137782012D01*
X203847244Y-137942953D01*
X204259721Y-138025000D01*
X204680279Y-138025000D01*
X204981918Y-137965000D01*
X228131928Y-137965000D01*
X228131928Y-140165000D01*
X228144188Y-140289482D01*
X228180498Y-140409180D01*
X228239463Y-140519494D01*
X228318815Y-140616185D01*
X228415506Y-140695537D01*
X228525820Y-140754502D01*
X228645518Y-140790812D01*
X228770000Y-140803072D01*
X230970000Y-140803072D01*
X231094482Y-140790812D01*
X231214180Y-140754502D01*
X231324494Y-140695537D01*
X231421185Y-140616185D01*
X231500537Y-140519494D01*
X231559502Y-140409180D01*
X231595812Y-140289482D01*
X231608072Y-140165000D01*
X231608072Y-138894117D01*
X238295000Y-138894117D01*
X238295000Y-139235883D01*
X238361675Y-139571081D01*
X238492463Y-139886831D01*
X238682337Y-140170998D01*
X238924002Y-140412663D01*
X239208169Y-140602537D01*
X239523919Y-140733325D01*
X239859117Y-140800000D01*
X240200883Y-140800000D01*
X240536081Y-140733325D01*
X240851831Y-140602537D01*
X241135998Y-140412663D01*
X241377663Y-140170998D01*
X241567537Y-139886831D01*
X241698325Y-139571081D01*
X241714508Y-139489721D01*
X242340000Y-139489721D01*
X242340000Y-139910279D01*
X242422047Y-140322756D01*
X242582988Y-140711302D01*
X242816637Y-141060983D01*
X243114017Y-141358363D01*
X243463698Y-141592012D01*
X243852244Y-141752953D01*
X244264721Y-141835000D01*
X244685279Y-141835000D01*
X245097756Y-141752953D01*
X245486302Y-141592012D01*
X245835983Y-141358363D01*
X246133363Y-141060983D01*
X246367012Y-140711302D01*
X246527953Y-140322756D01*
X246610000Y-139910279D01*
X246610000Y-139489721D01*
X246527953Y-139077244D01*
X246367012Y-138688698D01*
X246133363Y-138339017D01*
X245835983Y-138041637D01*
X245486302Y-137807988D01*
X245097756Y-137647047D01*
X244685279Y-137565000D01*
X244264721Y-137565000D01*
X243852244Y-137647047D01*
X243463698Y-137807988D01*
X243114017Y-138041637D01*
X242816637Y-138339017D01*
X242582988Y-138688698D01*
X242422047Y-139077244D01*
X242340000Y-139489721D01*
X241714508Y-139489721D01*
X241765000Y-139235883D01*
X241765000Y-138894117D01*
X241698325Y-138558919D01*
X241567537Y-138243169D01*
X241377663Y-137959002D01*
X241135998Y-137717337D01*
X240851831Y-137527463D01*
X240536081Y-137396675D01*
X240200883Y-137330000D01*
X239859117Y-137330000D01*
X239523919Y-137396675D01*
X239208169Y-137527463D01*
X238924002Y-137717337D01*
X238682337Y-137959002D01*
X238492463Y-138243169D01*
X238361675Y-138558919D01*
X238295000Y-138894117D01*
X231608072Y-138894117D01*
X231608072Y-137965000D01*
X231595812Y-137840518D01*
X231559502Y-137720820D01*
X231500537Y-137610506D01*
X231421185Y-137513815D01*
X231324494Y-137434463D01*
X231214180Y-137375498D01*
X231094482Y-137339188D01*
X230970000Y-137326928D01*
X228770000Y-137326928D01*
X228645518Y-137339188D01*
X228525820Y-137375498D01*
X228415506Y-137434463D01*
X228318815Y-137513815D01*
X228239463Y-137610506D01*
X228180498Y-137720820D01*
X228144188Y-137840518D01*
X228131928Y-137965000D01*
X204981918Y-137965000D01*
X205092756Y-137942953D01*
X205481302Y-137782012D01*
X205830983Y-137548363D01*
X206128363Y-137250983D01*
X206362012Y-136901302D01*
X206522953Y-136512756D01*
X206605000Y-136100279D01*
X206605000Y-135679721D01*
X206522953Y-135267244D01*
X206362012Y-134878698D01*
X206128363Y-134529017D01*
X205830983Y-134231637D01*
X205481302Y-133997988D01*
X205092756Y-133837047D01*
X204680279Y-133755000D01*
X204259721Y-133755000D01*
X203847244Y-133837047D01*
X203458698Y-133997988D01*
X203109017Y-134231637D01*
X202811637Y-134529017D01*
X202577988Y-134878698D01*
X202417047Y-135267244D01*
X202335000Y-135679721D01*
X194810000Y-135679721D01*
X194810000Y-133833816D01*
X195950000Y-133833816D01*
X195950000Y-134136184D01*
X196008989Y-134432743D01*
X196124701Y-134712095D01*
X196292688Y-134963505D01*
X196506495Y-135177312D01*
X196757905Y-135345299D01*
X197037257Y-135461011D01*
X197333816Y-135520000D01*
X197636184Y-135520000D01*
X197932743Y-135461011D01*
X198212095Y-135345299D01*
X198463505Y-135177312D01*
X198677312Y-134963505D01*
X198845299Y-134712095D01*
X198961011Y-134432743D01*
X199020000Y-134136184D01*
X199020000Y-133833816D01*
X198961011Y-133537257D01*
X198845299Y-133257905D01*
X198792655Y-133179117D01*
X239565000Y-133179117D01*
X239565000Y-133520883D01*
X239631675Y-133856081D01*
X239762463Y-134171831D01*
X239952337Y-134455998D01*
X240194002Y-134697663D01*
X240478169Y-134887537D01*
X240793919Y-135018325D01*
X241129117Y-135085000D01*
X241470883Y-135085000D01*
X241806081Y-135018325D01*
X242121831Y-134887537D01*
X242405998Y-134697663D01*
X242647663Y-134455998D01*
X242837537Y-134171831D01*
X242968325Y-133856081D01*
X243035000Y-133520883D01*
X243035000Y-133179117D01*
X242968325Y-132843919D01*
X242837537Y-132528169D01*
X242651671Y-132250000D01*
X249721928Y-132250000D01*
X249721928Y-134450000D01*
X249734188Y-134574482D01*
X249770498Y-134694180D01*
X249829463Y-134804494D01*
X249908815Y-134901185D01*
X250005506Y-134980537D01*
X250115820Y-135039502D01*
X250235518Y-135075812D01*
X250360000Y-135088072D01*
X252560000Y-135088072D01*
X252684482Y-135075812D01*
X252804180Y-135039502D01*
X252914494Y-134980537D01*
X253011185Y-134901185D01*
X253090537Y-134804494D01*
X253149502Y-134694180D01*
X253185812Y-134574482D01*
X253198072Y-134450000D01*
X253198072Y-132250000D01*
X253185812Y-132125518D01*
X253149502Y-132005820D01*
X253090537Y-131895506D01*
X253011185Y-131798815D01*
X252914494Y-131719463D01*
X252804180Y-131660498D01*
X252684482Y-131624188D01*
X252560000Y-131611928D01*
X250360000Y-131611928D01*
X250235518Y-131624188D01*
X250115820Y-131660498D01*
X250005506Y-131719463D01*
X249908815Y-131798815D01*
X249829463Y-131895506D01*
X249770498Y-132005820D01*
X249734188Y-132125518D01*
X249721928Y-132250000D01*
X242651671Y-132250000D01*
X242647663Y-132244002D01*
X242405998Y-132002337D01*
X242121831Y-131812463D01*
X241806081Y-131681675D01*
X241470883Y-131615000D01*
X241129117Y-131615000D01*
X240793919Y-131681675D01*
X240478169Y-131812463D01*
X240194002Y-132002337D01*
X239952337Y-132244002D01*
X239762463Y-132528169D01*
X239631675Y-132843919D01*
X239565000Y-133179117D01*
X198792655Y-133179117D01*
X198677312Y-133006495D01*
X198463505Y-132792688D01*
X198343107Y-132712241D01*
X198392573Y-132682962D01*
X198616649Y-132482116D01*
X198797236Y-132241414D01*
X198927394Y-131970107D01*
X198976036Y-131809740D01*
X198855378Y-131572000D01*
X197612000Y-131572000D01*
X197612000Y-131592000D01*
X197358000Y-131592000D01*
X197358000Y-131572000D01*
X196114622Y-131572000D01*
X195993964Y-131809740D01*
X196042606Y-131970107D01*
X196172764Y-132241414D01*
X196353351Y-132482116D01*
X196577427Y-132682962D01*
X196626893Y-132712241D01*
X196506495Y-132792688D01*
X196292688Y-133006495D01*
X196124701Y-133257905D01*
X196008989Y-133537257D01*
X195950000Y-133833816D01*
X194810000Y-133833816D01*
X194810000Y-131080260D01*
X195993964Y-131080260D01*
X196114622Y-131318000D01*
X197358000Y-131318000D01*
X197358000Y-130074008D01*
X197612000Y-130074008D01*
X197612000Y-131318000D01*
X198855378Y-131318000D01*
X198976036Y-131080260D01*
X198927394Y-130919893D01*
X198797236Y-130648586D01*
X198710294Y-130532702D01*
X248146903Y-130532702D01*
X248218486Y-130776671D01*
X248473996Y-130897571D01*
X248748184Y-130966300D01*
X249030512Y-130980217D01*
X249310130Y-130938787D01*
X249576292Y-130843603D01*
X249701514Y-130776671D01*
X249773097Y-130532702D01*
X248960000Y-129719605D01*
X248146903Y-130532702D01*
X198710294Y-130532702D01*
X198616649Y-130407884D01*
X198392573Y-130207038D01*
X198133620Y-130053766D01*
X197849741Y-129953959D01*
X197612000Y-130074008D01*
X197358000Y-130074008D01*
X197120259Y-129953959D01*
X196836380Y-130053766D01*
X196577427Y-130207038D01*
X196353351Y-130407884D01*
X196172764Y-130648586D01*
X196042606Y-130919893D01*
X195993964Y-131080260D01*
X194810000Y-131080260D01*
X194810000Y-129610512D01*
X247519783Y-129610512D01*
X247561213Y-129890130D01*
X247656397Y-130156292D01*
X247723329Y-130281514D01*
X247967298Y-130353097D01*
X248780395Y-129540000D01*
X249139605Y-129540000D01*
X249952702Y-130353097D01*
X250196671Y-130281514D01*
X250210324Y-130252659D01*
X250345363Y-130454759D01*
X250545241Y-130654637D01*
X250780273Y-130811680D01*
X251041426Y-130919853D01*
X251318665Y-130975000D01*
X251601335Y-130975000D01*
X251878574Y-130919853D01*
X252139727Y-130811680D01*
X252374759Y-130654637D01*
X252574637Y-130454759D01*
X252731680Y-130219727D01*
X252839853Y-129958574D01*
X252895000Y-129681335D01*
X252895000Y-129398665D01*
X252839853Y-129121426D01*
X252731680Y-128860273D01*
X252574637Y-128625241D01*
X252374759Y-128425363D01*
X252139727Y-128268320D01*
X251878574Y-128160147D01*
X251601335Y-128105000D01*
X251318665Y-128105000D01*
X251041426Y-128160147D01*
X250780273Y-128268320D01*
X250545241Y-128425363D01*
X250345363Y-128625241D01*
X250211308Y-128825869D01*
X250196671Y-128798486D01*
X249952702Y-128726903D01*
X249139605Y-129540000D01*
X248780395Y-129540000D01*
X247967298Y-128726903D01*
X247723329Y-128798486D01*
X247602429Y-129053996D01*
X247533700Y-129328184D01*
X247519783Y-129610512D01*
X194810000Y-129610512D01*
X194810000Y-128547298D01*
X248146903Y-128547298D01*
X248960000Y-129360395D01*
X249773097Y-128547298D01*
X249701514Y-128303329D01*
X249446004Y-128182429D01*
X249171816Y-128113700D01*
X248889488Y-128099783D01*
X248609870Y-128141213D01*
X248343708Y-128236397D01*
X248218486Y-128303329D01*
X248146903Y-128547298D01*
X194810000Y-128547298D01*
X194810000Y-127690752D01*
X194815491Y-127635000D01*
X194793577Y-127412501D01*
X194728676Y-127198553D01*
X194623284Y-127001377D01*
X194516989Y-126871856D01*
X194516987Y-126871854D01*
X194481449Y-126828551D01*
X194438146Y-126793013D01*
X190706996Y-123061865D01*
X190671449Y-123018551D01*
X190498623Y-122876716D01*
X190301447Y-122771324D01*
X190087499Y-122706423D01*
X189920752Y-122690000D01*
X189920751Y-122690000D01*
X189865000Y-122684509D01*
X189809249Y-122690000D01*
X185669284Y-122690000D01*
X185464727Y-122553320D01*
X185203574Y-122445147D01*
X184926335Y-122390000D01*
X184643665Y-122390000D01*
X184366426Y-122445147D01*
X184105273Y-122553320D01*
X183870241Y-122710363D01*
X183670363Y-122910241D01*
X183513320Y-123145273D01*
X183405147Y-123406426D01*
X183350000Y-123683665D01*
X176060000Y-123683665D01*
X176004853Y-123406426D01*
X175896680Y-123145273D01*
X175739637Y-122910241D01*
X175539759Y-122710363D01*
X175304727Y-122553320D01*
X175043574Y-122445147D01*
X174766335Y-122390000D01*
X174483665Y-122390000D01*
X174206426Y-122445147D01*
X173945273Y-122553320D01*
X173710241Y-122710363D01*
X173510363Y-122910241D01*
X173353320Y-123145273D01*
X173245147Y-123406426D01*
X173190000Y-123683665D01*
X155600000Y-123683665D01*
X155600000Y-121642702D01*
X173851903Y-121642702D01*
X173923486Y-121886671D01*
X174178996Y-122007571D01*
X174453184Y-122076300D01*
X174735512Y-122090217D01*
X175015130Y-122048787D01*
X175281292Y-121953603D01*
X175406514Y-121886671D01*
X175478097Y-121642702D01*
X174665000Y-120829605D01*
X173851903Y-121642702D01*
X155600000Y-121642702D01*
X155600000Y-120720512D01*
X173224783Y-120720512D01*
X173266213Y-121000130D01*
X173361397Y-121266292D01*
X173428329Y-121391514D01*
X173672298Y-121463097D01*
X174485395Y-120650000D01*
X174844605Y-120650000D01*
X175657702Y-121463097D01*
X175901671Y-121391514D01*
X175915324Y-121362659D01*
X176050363Y-121564759D01*
X176250241Y-121764637D01*
X176485273Y-121921680D01*
X176746426Y-122029853D01*
X177023665Y-122085000D01*
X177306335Y-122085000D01*
X177583574Y-122029853D01*
X177844727Y-121921680D01*
X178079759Y-121764637D01*
X178279637Y-121564759D01*
X178436680Y-121329727D01*
X178544853Y-121068574D01*
X178600000Y-120791335D01*
X178600000Y-120508665D01*
X181445000Y-120508665D01*
X181445000Y-120791335D01*
X181500147Y-121068574D01*
X181608320Y-121329727D01*
X181765363Y-121564759D01*
X181965241Y-121764637D01*
X182200273Y-121921680D01*
X182461426Y-122029853D01*
X182738665Y-122085000D01*
X183021335Y-122085000D01*
X183298574Y-122029853D01*
X183559727Y-121921680D01*
X183794759Y-121764637D01*
X183916694Y-121642702D01*
X184566903Y-121642702D01*
X184638486Y-121886671D01*
X184893996Y-122007571D01*
X185168184Y-122076300D01*
X185450512Y-122090217D01*
X185730130Y-122048787D01*
X185996292Y-121953603D01*
X186121514Y-121886671D01*
X186193097Y-121642702D01*
X185380000Y-120829605D01*
X184566903Y-121642702D01*
X183916694Y-121642702D01*
X183994637Y-121564759D01*
X184128692Y-121364131D01*
X184143329Y-121391514D01*
X184387298Y-121463097D01*
X185200395Y-120650000D01*
X185559605Y-120650000D01*
X186372702Y-121463097D01*
X186616671Y-121391514D01*
X186737571Y-121136004D01*
X186806300Y-120861816D01*
X186820217Y-120579488D01*
X186778787Y-120299870D01*
X186683603Y-120033708D01*
X186616671Y-119908486D01*
X186372702Y-119836903D01*
X185559605Y-120650000D01*
X185200395Y-120650000D01*
X184387298Y-119836903D01*
X184143329Y-119908486D01*
X184129676Y-119937341D01*
X183994637Y-119735241D01*
X183916694Y-119657298D01*
X184566903Y-119657298D01*
X185380000Y-120470395D01*
X186193097Y-119657298D01*
X186121514Y-119413329D01*
X185866004Y-119292429D01*
X185591816Y-119223700D01*
X185309488Y-119209783D01*
X185029870Y-119251213D01*
X184763708Y-119346397D01*
X184638486Y-119413329D01*
X184566903Y-119657298D01*
X183916694Y-119657298D01*
X183794759Y-119535363D01*
X183559727Y-119378320D01*
X183298574Y-119270147D01*
X183021335Y-119215000D01*
X182738665Y-119215000D01*
X182461426Y-119270147D01*
X182200273Y-119378320D01*
X181965241Y-119535363D01*
X181765363Y-119735241D01*
X181608320Y-119970273D01*
X181500147Y-120231426D01*
X181445000Y-120508665D01*
X178600000Y-120508665D01*
X178544853Y-120231426D01*
X178436680Y-119970273D01*
X178279637Y-119735241D01*
X178079759Y-119535363D01*
X177844727Y-119378320D01*
X177583574Y-119270147D01*
X177306335Y-119215000D01*
X177023665Y-119215000D01*
X176746426Y-119270147D01*
X176485273Y-119378320D01*
X176250241Y-119535363D01*
X176050363Y-119735241D01*
X175916308Y-119935869D01*
X175901671Y-119908486D01*
X175657702Y-119836903D01*
X174844605Y-120650000D01*
X174485395Y-120650000D01*
X173672298Y-119836903D01*
X173428329Y-119908486D01*
X173307429Y-120163996D01*
X173238700Y-120438184D01*
X173224783Y-120720512D01*
X155600000Y-120720512D01*
X155600000Y-119657298D01*
X173851903Y-119657298D01*
X174665000Y-120470395D01*
X175478097Y-119657298D01*
X175406514Y-119413329D01*
X175151004Y-119292429D01*
X174876816Y-119223700D01*
X174594488Y-119209783D01*
X174314870Y-119251213D01*
X174048708Y-119346397D01*
X173923486Y-119413329D01*
X173851903Y-119657298D01*
X155600000Y-119657298D01*
X155600000Y-97315881D01*
X157498724Y-97315881D01*
X157858912Y-97805548D01*
X158522882Y-98165849D01*
X159244385Y-98389694D01*
X159995695Y-98468480D01*
X160747938Y-98399178D01*
X161472208Y-98184452D01*
X162140670Y-97832555D01*
X162181088Y-97805548D01*
X162541276Y-97315881D01*
X160020000Y-94794605D01*
X157498724Y-97315881D01*
X155600000Y-97315881D01*
X155600000Y-94590695D01*
X156166520Y-94590695D01*
X156235822Y-95342938D01*
X156450548Y-96067208D01*
X156802445Y-96735670D01*
X156829452Y-96776088D01*
X157319119Y-97136276D01*
X159840395Y-94615000D01*
X160199605Y-94615000D01*
X162720881Y-97136276D01*
X163210548Y-96776088D01*
X163570849Y-96112118D01*
X163794694Y-95390615D01*
X163838603Y-94971891D01*
X168103519Y-94971891D01*
X168200843Y-95246252D01*
X168349822Y-95496355D01*
X168544731Y-95712588D01*
X168778080Y-95886641D01*
X169040901Y-96011825D01*
X169188110Y-96056476D01*
X169418000Y-95935155D01*
X169418000Y-94742000D01*
X168224186Y-94742000D01*
X168103519Y-94971891D01*
X163838603Y-94971891D01*
X163873480Y-94639305D01*
X163804178Y-93887062D01*
X163589452Y-93162792D01*
X163237555Y-92494330D01*
X163210548Y-92453912D01*
X162720881Y-92093724D01*
X160199605Y-94615000D01*
X159840395Y-94615000D01*
X157319119Y-92093724D01*
X156829452Y-92453912D01*
X156469151Y-93117882D01*
X156245306Y-93839385D01*
X156166520Y-94590695D01*
X155600000Y-94590695D01*
X155600000Y-91914119D01*
X157498724Y-91914119D01*
X160020000Y-94435395D01*
X162541276Y-91914119D01*
X162181088Y-91424452D01*
X161813534Y-91225000D01*
X168056928Y-91225000D01*
X168056928Y-92925000D01*
X168069188Y-93049482D01*
X168105498Y-93169180D01*
X168164463Y-93279494D01*
X168243815Y-93376185D01*
X168340506Y-93455537D01*
X168450820Y-93514502D01*
X168526626Y-93537498D01*
X168349822Y-93733645D01*
X168200843Y-93983748D01*
X168103519Y-94258109D01*
X168224186Y-94488000D01*
X169418000Y-94488000D01*
X169418000Y-94468000D01*
X169672000Y-94468000D01*
X169672000Y-94488000D01*
X169692000Y-94488000D01*
X169692000Y-94742000D01*
X169672000Y-94742000D01*
X169672000Y-95935155D01*
X169901890Y-96056476D01*
X170049099Y-96011825D01*
X170311920Y-95886641D01*
X170545269Y-95712588D01*
X170740178Y-95496355D01*
X170809805Y-95379466D01*
X170931525Y-95561632D01*
X171138368Y-95768475D01*
X171300000Y-95876474D01*
X171300001Y-113909560D01*
X171148102Y-113939774D01*
X170959744Y-114017795D01*
X170790226Y-114131063D01*
X170646063Y-114275226D01*
X170532795Y-114444744D01*
X170454774Y-114633102D01*
X170415000Y-114833061D01*
X170415000Y-115036939D01*
X170454774Y-115236898D01*
X170532795Y-115425256D01*
X170646063Y-115594774D01*
X170790226Y-115738937D01*
X170959744Y-115852205D01*
X171148102Y-115930226D01*
X171348061Y-115970000D01*
X171551939Y-115970000D01*
X171751898Y-115930226D01*
X171940256Y-115852205D01*
X172085000Y-115755490D01*
X172229744Y-115852205D01*
X172418102Y-115930226D01*
X172618061Y-115970000D01*
X172821939Y-115970000D01*
X173021898Y-115930226D01*
X173210256Y-115852205D01*
X173355000Y-115755490D01*
X173499744Y-115852205D01*
X173688102Y-115930226D01*
X173888061Y-115970000D01*
X174091939Y-115970000D01*
X174291898Y-115930226D01*
X174480256Y-115852205D01*
X174625000Y-115755490D01*
X174769744Y-115852205D01*
X174958102Y-115930226D01*
X175158061Y-115970000D01*
X175361939Y-115970000D01*
X175561898Y-115930226D01*
X175750256Y-115852205D01*
X175919774Y-115738937D01*
X176063937Y-115594774D01*
X176177205Y-115425256D01*
X176255226Y-115236898D01*
X176295000Y-115036939D01*
X176295000Y-115010157D01*
X180232816Y-111072342D01*
X180262764Y-111047764D01*
X180360862Y-110928233D01*
X180433754Y-110791860D01*
X180478641Y-110643887D01*
X180490000Y-110528561D01*
X180490000Y-110528554D01*
X180493797Y-110490001D01*
X180490000Y-110451448D01*
X180490000Y-95876474D01*
X180651632Y-95768475D01*
X180858475Y-95561632D01*
X180975000Y-95387240D01*
X181091525Y-95561632D01*
X181298368Y-95768475D01*
X181460001Y-95876475D01*
X181460000Y-109981449D01*
X181456203Y-110020002D01*
X181460000Y-110058555D01*
X181460000Y-110058562D01*
X181471359Y-110173888D01*
X181516246Y-110321861D01*
X181589138Y-110458234D01*
X181687236Y-110577766D01*
X181717190Y-110602349D01*
X185710347Y-114595507D01*
X185694774Y-114633102D01*
X185655000Y-114833061D01*
X185655000Y-115036939D01*
X185694774Y-115236898D01*
X185772795Y-115425256D01*
X185886063Y-115594774D01*
X186030226Y-115738937D01*
X186199744Y-115852205D01*
X186388102Y-115930226D01*
X186588061Y-115970000D01*
X186791939Y-115970000D01*
X186991898Y-115930226D01*
X187180256Y-115852205D01*
X187325000Y-115755490D01*
X187469744Y-115852205D01*
X187658102Y-115930226D01*
X187858061Y-115970000D01*
X188061939Y-115970000D01*
X188261898Y-115930226D01*
X188450256Y-115852205D01*
X188595000Y-115755490D01*
X188739744Y-115852205D01*
X188928102Y-115930226D01*
X189128061Y-115970000D01*
X189331939Y-115970000D01*
X189531898Y-115930226D01*
X189720256Y-115852205D01*
X189865000Y-115755490D01*
X190009744Y-115852205D01*
X190198102Y-115930226D01*
X190398061Y-115970000D01*
X190601939Y-115970000D01*
X190801898Y-115930226D01*
X190990256Y-115852205D01*
X191159774Y-115738937D01*
X191303937Y-115594774D01*
X191417205Y-115425256D01*
X191495226Y-115236898D01*
X191535000Y-115036939D01*
X191535000Y-114833061D01*
X191495226Y-114633102D01*
X191417205Y-114444744D01*
X191303937Y-114275226D01*
X191159774Y-114131063D01*
X190990256Y-114017795D01*
X190801898Y-113939774D01*
X190650000Y-113909560D01*
X190650000Y-95876474D01*
X190811632Y-95768475D01*
X191018475Y-95561632D01*
X191135000Y-95387240D01*
X191251525Y-95561632D01*
X191458368Y-95768475D01*
X191701589Y-95930990D01*
X191971842Y-96042932D01*
X192258740Y-96100000D01*
X192551260Y-96100000D01*
X192838158Y-96042932D01*
X193108411Y-95930990D01*
X193351632Y-95768475D01*
X193558475Y-95561632D01*
X193720990Y-95318411D01*
X193832932Y-95048158D01*
X193890000Y-94761260D01*
X193890000Y-94468740D01*
X193832932Y-94181842D01*
X193720990Y-93911589D01*
X193558475Y-93668368D01*
X193351632Y-93461525D01*
X193175594Y-93343900D01*
X193405269Y-93172588D01*
X193600178Y-92956355D01*
X193749157Y-92706252D01*
X193824094Y-92495000D01*
X199171928Y-92495000D01*
X199171928Y-94195000D01*
X199184188Y-94319482D01*
X199220498Y-94439180D01*
X199279463Y-94549494D01*
X199358815Y-94646185D01*
X199455506Y-94725537D01*
X199565820Y-94784502D01*
X199674991Y-94817619D01*
X199674990Y-112981610D01*
X199670225Y-113029990D01*
X199674990Y-113078369D01*
X199689243Y-113223083D01*
X199745566Y-113408756D01*
X199837030Y-113579874D01*
X199960120Y-113729860D01*
X199997706Y-113760706D01*
X204755001Y-118518001D01*
X204755000Y-125374345D01*
X204654880Y-125474465D01*
X204501995Y-125703273D01*
X204396686Y-125957510D01*
X204343000Y-126227408D01*
X204343000Y-126502592D01*
X204396686Y-126772490D01*
X204501995Y-127026727D01*
X204654880Y-127255535D01*
X204849465Y-127450120D01*
X205078273Y-127603005D01*
X205332510Y-127708314D01*
X205602408Y-127762000D01*
X205877592Y-127762000D01*
X206147490Y-127708314D01*
X206401727Y-127603005D01*
X206630535Y-127450120D01*
X206825120Y-127255535D01*
X206978005Y-127026727D01*
X207010000Y-126949485D01*
X207041995Y-127026727D01*
X207194880Y-127255535D01*
X207389465Y-127450120D01*
X207618273Y-127603005D01*
X207872510Y-127708314D01*
X208142408Y-127762000D01*
X208417592Y-127762000D01*
X208687490Y-127708314D01*
X208941727Y-127603005D01*
X209170535Y-127450120D01*
X209365120Y-127255535D01*
X209518005Y-127026727D01*
X209550000Y-126949485D01*
X209581995Y-127026727D01*
X209734880Y-127255535D01*
X209929465Y-127450120D01*
X210158273Y-127603005D01*
X210412510Y-127708314D01*
X210682408Y-127762000D01*
X210957592Y-127762000D01*
X211227490Y-127708314D01*
X211481727Y-127603005D01*
X211710535Y-127450120D01*
X211905120Y-127255535D01*
X212058005Y-127026727D01*
X212090000Y-126949485D01*
X212121995Y-127026727D01*
X212274880Y-127255535D01*
X212469465Y-127450120D01*
X212698273Y-127603005D01*
X212952510Y-127708314D01*
X213222408Y-127762000D01*
X213497592Y-127762000D01*
X213767490Y-127708314D01*
X214021727Y-127603005D01*
X214250535Y-127450120D01*
X214445120Y-127255535D01*
X214598005Y-127026727D01*
X214630000Y-126949485D01*
X214661995Y-127026727D01*
X214814880Y-127255535D01*
X215009465Y-127450120D01*
X215238273Y-127603005D01*
X215492510Y-127708314D01*
X215762408Y-127762000D01*
X216037592Y-127762000D01*
X216307490Y-127708314D01*
X216561727Y-127603005D01*
X216790535Y-127450120D01*
X216985120Y-127255535D01*
X217138005Y-127026727D01*
X217170000Y-126949485D01*
X217201995Y-127026727D01*
X217354880Y-127255535D01*
X217549465Y-127450120D01*
X217778273Y-127603005D01*
X218032510Y-127708314D01*
X218302408Y-127762000D01*
X218577592Y-127762000D01*
X218847490Y-127708314D01*
X219101727Y-127603005D01*
X219330535Y-127450120D01*
X219525120Y-127255535D01*
X219678005Y-127026727D01*
X219710000Y-126949485D01*
X219741995Y-127026727D01*
X219894880Y-127255535D01*
X220089465Y-127450120D01*
X220318273Y-127603005D01*
X220572510Y-127708314D01*
X220842408Y-127762000D01*
X221117592Y-127762000D01*
X221387490Y-127708314D01*
X221641727Y-127603005D01*
X221870535Y-127450120D01*
X222065120Y-127255535D01*
X222218005Y-127026727D01*
X222250000Y-126949485D01*
X222281995Y-127026727D01*
X222434880Y-127255535D01*
X222629465Y-127450120D01*
X222858273Y-127603005D01*
X223112510Y-127708314D01*
X223382408Y-127762000D01*
X223657592Y-127762000D01*
X223927490Y-127708314D01*
X224181727Y-127603005D01*
X224410535Y-127450120D01*
X224605120Y-127255535D01*
X224758005Y-127026727D01*
X224790000Y-126949485D01*
X224821995Y-127026727D01*
X224974880Y-127255535D01*
X225169465Y-127450120D01*
X225398273Y-127603005D01*
X225652510Y-127708314D01*
X225922408Y-127762000D01*
X226197592Y-127762000D01*
X226467490Y-127708314D01*
X226721727Y-127603005D01*
X226950535Y-127450120D01*
X227145120Y-127255535D01*
X227298005Y-127026727D01*
X227330000Y-126949485D01*
X227361995Y-127026727D01*
X227514880Y-127255535D01*
X227709465Y-127450120D01*
X227938273Y-127603005D01*
X228192510Y-127708314D01*
X228462408Y-127762000D01*
X228737592Y-127762000D01*
X229007490Y-127708314D01*
X229261727Y-127603005D01*
X229490535Y-127450120D01*
X229685120Y-127255535D01*
X229838005Y-127026727D01*
X229870000Y-126949485D01*
X229901995Y-127026727D01*
X230054880Y-127255535D01*
X230249465Y-127450120D01*
X230478273Y-127603005D01*
X230732510Y-127708314D01*
X231002408Y-127762000D01*
X231277592Y-127762000D01*
X231547490Y-127708314D01*
X231801727Y-127603005D01*
X232030535Y-127450120D01*
X232225120Y-127255535D01*
X232378005Y-127026727D01*
X232410000Y-126949485D01*
X232441995Y-127026727D01*
X232594880Y-127255535D01*
X232789465Y-127450120D01*
X233018273Y-127603005D01*
X233272510Y-127708314D01*
X233542408Y-127762000D01*
X233817592Y-127762000D01*
X234087490Y-127708314D01*
X234341727Y-127603005D01*
X234570535Y-127450120D01*
X234765120Y-127255535D01*
X234918005Y-127026727D01*
X234950000Y-126949485D01*
X234981995Y-127026727D01*
X235134880Y-127255535D01*
X235329465Y-127450120D01*
X235558273Y-127603005D01*
X235812510Y-127708314D01*
X236082408Y-127762000D01*
X236357592Y-127762000D01*
X236627490Y-127708314D01*
X236881727Y-127603005D01*
X237110535Y-127450120D01*
X237305120Y-127255535D01*
X237363920Y-127167535D01*
X237372188Y-127251482D01*
X237408498Y-127371180D01*
X237467463Y-127481494D01*
X237546815Y-127578185D01*
X237643506Y-127657537D01*
X237753820Y-127716502D01*
X237873518Y-127752812D01*
X237998000Y-127765072D01*
X238474250Y-127762000D01*
X238633000Y-127603250D01*
X238633000Y-126492000D01*
X238613000Y-126492000D01*
X238613000Y-126238000D01*
X238633000Y-126238000D01*
X238633000Y-125126750D01*
X238887000Y-125126750D01*
X238887000Y-126238000D01*
X238907000Y-126238000D01*
X238907000Y-126492000D01*
X238887000Y-126492000D01*
X238887000Y-127603250D01*
X239045750Y-127762000D01*
X239522000Y-127765072D01*
X239646482Y-127752812D01*
X239766180Y-127716502D01*
X239876494Y-127657537D01*
X239973185Y-127578185D01*
X240052537Y-127481494D01*
X240111502Y-127371180D01*
X240147812Y-127251482D01*
X240156080Y-127167535D01*
X240214880Y-127255535D01*
X240409465Y-127450120D01*
X240638273Y-127603005D01*
X240892510Y-127708314D01*
X241162408Y-127762000D01*
X241437592Y-127762000D01*
X241707490Y-127708314D01*
X241961727Y-127603005D01*
X242190535Y-127450120D01*
X242385120Y-127255535D01*
X242538005Y-127026727D01*
X242570000Y-126949485D01*
X242601995Y-127026727D01*
X242754880Y-127255535D01*
X242949465Y-127450120D01*
X243178273Y-127603005D01*
X243432510Y-127708314D01*
X243702408Y-127762000D01*
X243977592Y-127762000D01*
X244247490Y-127708314D01*
X244501727Y-127603005D01*
X244730535Y-127450120D01*
X244925120Y-127255535D01*
X245078005Y-127026727D01*
X245110000Y-126949485D01*
X245141995Y-127026727D01*
X245294880Y-127255535D01*
X245489465Y-127450120D01*
X245718273Y-127603005D01*
X245972510Y-127708314D01*
X246242408Y-127762000D01*
X246517592Y-127762000D01*
X246787490Y-127708314D01*
X247041727Y-127603005D01*
X247270535Y-127450120D01*
X247465120Y-127255535D01*
X247618005Y-127026727D01*
X247650000Y-126949485D01*
X247681995Y-127026727D01*
X247834880Y-127255535D01*
X248029465Y-127450120D01*
X248258273Y-127603005D01*
X248512510Y-127708314D01*
X248782408Y-127762000D01*
X249057592Y-127762000D01*
X249327490Y-127708314D01*
X249581727Y-127603005D01*
X249810535Y-127450120D01*
X250005120Y-127255535D01*
X250158005Y-127026727D01*
X250190000Y-126949485D01*
X250221995Y-127026727D01*
X250374880Y-127255535D01*
X250569465Y-127450120D01*
X250798273Y-127603005D01*
X251052510Y-127708314D01*
X251322408Y-127762000D01*
X251597592Y-127762000D01*
X251867490Y-127708314D01*
X252121727Y-127603005D01*
X252350535Y-127450120D01*
X252545120Y-127255535D01*
X252698005Y-127026727D01*
X252803314Y-126772490D01*
X252857000Y-126502592D01*
X252857000Y-126227408D01*
X252803314Y-125957510D01*
X252698005Y-125703273D01*
X252545120Y-125474465D01*
X252350535Y-125279880D01*
X252121727Y-125126995D01*
X251867490Y-125021686D01*
X251597592Y-124968000D01*
X251322408Y-124968000D01*
X251052510Y-125021686D01*
X250798273Y-125126995D01*
X250569465Y-125279880D01*
X250374880Y-125474465D01*
X250221995Y-125703273D01*
X250190000Y-125780515D01*
X250158005Y-125703273D01*
X250005120Y-125474465D01*
X249810535Y-125279880D01*
X249581727Y-125126995D01*
X249327490Y-125021686D01*
X249057592Y-124968000D01*
X248782408Y-124968000D01*
X248512510Y-125021686D01*
X248258273Y-125126995D01*
X248029465Y-125279880D01*
X247834880Y-125474465D01*
X247681995Y-125703273D01*
X247650000Y-125780515D01*
X247618005Y-125703273D01*
X247465120Y-125474465D01*
X247270535Y-125279880D01*
X247041727Y-125126995D01*
X246787490Y-125021686D01*
X246517592Y-124968000D01*
X246242408Y-124968000D01*
X245972510Y-125021686D01*
X245718273Y-125126995D01*
X245489465Y-125279880D01*
X245294880Y-125474465D01*
X245141995Y-125703273D01*
X245110000Y-125780515D01*
X245078005Y-125703273D01*
X244925120Y-125474465D01*
X244730535Y-125279880D01*
X244501727Y-125126995D01*
X244247490Y-125021686D01*
X243977592Y-124968000D01*
X243702408Y-124968000D01*
X243432510Y-125021686D01*
X243178273Y-125126995D01*
X242949465Y-125279880D01*
X242754880Y-125474465D01*
X242601995Y-125703273D01*
X242570000Y-125780515D01*
X242538005Y-125703273D01*
X242385120Y-125474465D01*
X242190535Y-125279880D01*
X241961727Y-125126995D01*
X241707490Y-125021686D01*
X241437592Y-124968000D01*
X241162408Y-124968000D01*
X240892510Y-125021686D01*
X240638273Y-125126995D01*
X240409465Y-125279880D01*
X240214880Y-125474465D01*
X240156080Y-125562465D01*
X240147812Y-125478518D01*
X240111502Y-125358820D01*
X240052537Y-125248506D01*
X239973185Y-125151815D01*
X239876494Y-125072463D01*
X239766180Y-125013498D01*
X239646482Y-124977188D01*
X239522000Y-124964928D01*
X239045750Y-124968000D01*
X238887000Y-125126750D01*
X238633000Y-125126750D01*
X238474250Y-124968000D01*
X237998000Y-124964928D01*
X237873518Y-124977188D01*
X237753820Y-125013498D01*
X237643506Y-125072463D01*
X237546815Y-125151815D01*
X237467463Y-125248506D01*
X237408498Y-125358820D01*
X237372188Y-125478518D01*
X237363920Y-125562465D01*
X237305120Y-125474465D01*
X237110535Y-125279880D01*
X236881727Y-125126995D01*
X236627490Y-125021686D01*
X236357592Y-124968000D01*
X236082408Y-124968000D01*
X235812510Y-125021686D01*
X235558273Y-125126995D01*
X235329465Y-125279880D01*
X235134880Y-125474465D01*
X234981995Y-125703273D01*
X234950000Y-125780515D01*
X234918005Y-125703273D01*
X234765120Y-125474465D01*
X234570535Y-125279880D01*
X234341727Y-125126995D01*
X234087490Y-125021686D01*
X233817592Y-124968000D01*
X233542408Y-124968000D01*
X233272510Y-125021686D01*
X233018273Y-125126995D01*
X232789465Y-125279880D01*
X232594880Y-125474465D01*
X232441995Y-125703273D01*
X232410000Y-125780515D01*
X232378005Y-125703273D01*
X232225120Y-125474465D01*
X232030535Y-125279880D01*
X231801727Y-125126995D01*
X231547490Y-125021686D01*
X231277592Y-124968000D01*
X231002408Y-124968000D01*
X230732510Y-125021686D01*
X230478273Y-125126995D01*
X230249465Y-125279880D01*
X230054880Y-125474465D01*
X229901995Y-125703273D01*
X229870000Y-125780515D01*
X229838005Y-125703273D01*
X229685120Y-125474465D01*
X229490535Y-125279880D01*
X229261727Y-125126995D01*
X229007490Y-125021686D01*
X228737592Y-124968000D01*
X228462408Y-124968000D01*
X228192510Y-125021686D01*
X227938273Y-125126995D01*
X227709465Y-125279880D01*
X227514880Y-125474465D01*
X227361995Y-125703273D01*
X227330000Y-125780515D01*
X227298005Y-125703273D01*
X227145120Y-125474465D01*
X226950535Y-125279880D01*
X226721727Y-125126995D01*
X226467490Y-125021686D01*
X226197592Y-124968000D01*
X225922408Y-124968000D01*
X225652510Y-125021686D01*
X225398273Y-125126995D01*
X225169465Y-125279880D01*
X224974880Y-125474465D01*
X224821995Y-125703273D01*
X224790000Y-125780515D01*
X224758005Y-125703273D01*
X224605120Y-125474465D01*
X224410535Y-125279880D01*
X224181727Y-125126995D01*
X223927490Y-125021686D01*
X223657592Y-124968000D01*
X223382408Y-124968000D01*
X223112510Y-125021686D01*
X222858273Y-125126995D01*
X222629465Y-125279880D01*
X222434880Y-125474465D01*
X222281995Y-125703273D01*
X222250000Y-125780515D01*
X222218005Y-125703273D01*
X222065120Y-125474465D01*
X221870535Y-125279880D01*
X221641727Y-125126995D01*
X221387490Y-125021686D01*
X221117592Y-124968000D01*
X220842408Y-124968000D01*
X220572510Y-125021686D01*
X220318273Y-125126995D01*
X220089465Y-125279880D01*
X219894880Y-125474465D01*
X219741995Y-125703273D01*
X219710000Y-125780515D01*
X219678005Y-125703273D01*
X219525120Y-125474465D01*
X219330535Y-125279880D01*
X219101727Y-125126995D01*
X218847490Y-125021686D01*
X218577592Y-124968000D01*
X218302408Y-124968000D01*
X218032510Y-125021686D01*
X217778273Y-125126995D01*
X217549465Y-125279880D01*
X217354880Y-125474465D01*
X217201995Y-125703273D01*
X217170000Y-125780515D01*
X217138005Y-125703273D01*
X216985120Y-125474465D01*
X216790535Y-125279880D01*
X216561727Y-125126995D01*
X216307490Y-125021686D01*
X216037592Y-124968000D01*
X215762408Y-124968000D01*
X215492510Y-125021686D01*
X215238273Y-125126995D01*
X215009465Y-125279880D01*
X214814880Y-125474465D01*
X214661995Y-125703273D01*
X214630000Y-125780515D01*
X214598005Y-125703273D01*
X214445120Y-125474465D01*
X214250535Y-125279880D01*
X214021727Y-125126995D01*
X213767490Y-125021686D01*
X213497592Y-124968000D01*
X213222408Y-124968000D01*
X212952510Y-125021686D01*
X212698273Y-125126995D01*
X212469465Y-125279880D01*
X212274880Y-125474465D01*
X212121995Y-125703273D01*
X212090000Y-125780515D01*
X212058005Y-125703273D01*
X211905120Y-125474465D01*
X211805000Y-125374345D01*
X211805000Y-120063379D01*
X211809765Y-120014999D01*
X211790747Y-119821905D01*
X211777638Y-119778691D01*
X211734424Y-119636233D01*
X211642960Y-119465116D01*
X211519870Y-119315130D01*
X211482284Y-119284284D01*
X205625502Y-113427502D01*
X205638061Y-113430000D01*
X205841939Y-113430000D01*
X206041898Y-113390226D01*
X206230256Y-113312205D01*
X206399774Y-113198937D01*
X206418711Y-113180000D01*
X217761289Y-113180000D01*
X217780226Y-113198937D01*
X217949744Y-113312205D01*
X218138102Y-113390226D01*
X218338061Y-113430000D01*
X218541939Y-113430000D01*
X218741898Y-113390226D01*
X218930256Y-113312205D01*
X219099774Y-113198937D01*
X219243937Y-113054774D01*
X219357205Y-112885256D01*
X219435226Y-112696898D01*
X219475000Y-112496939D01*
X219475000Y-112293061D01*
X219435226Y-112093102D01*
X219359382Y-111910000D01*
X220301289Y-111910000D01*
X220320226Y-111928937D01*
X220489744Y-112042205D01*
X220678102Y-112120226D01*
X220878061Y-112160000D01*
X221081939Y-112160000D01*
X221281898Y-112120226D01*
X221470256Y-112042205D01*
X221639774Y-111928937D01*
X221783937Y-111784774D01*
X221897205Y-111615256D01*
X221975226Y-111426898D01*
X222015000Y-111226939D01*
X222015000Y-111023061D01*
X221975226Y-110823102D01*
X221899382Y-110640000D01*
X222841289Y-110640000D01*
X222860242Y-110658953D01*
X223029760Y-110772221D01*
X223218118Y-110850242D01*
X223418077Y-110890016D01*
X223621955Y-110890016D01*
X223821914Y-110850242D01*
X224010272Y-110772221D01*
X224179790Y-110658953D01*
X224323953Y-110514790D01*
X224437221Y-110345272D01*
X224515242Y-110156914D01*
X224555016Y-109956955D01*
X224555016Y-109753077D01*
X224515242Y-109553118D01*
X224437221Y-109364760D01*
X224323953Y-109195242D01*
X224179790Y-109051079D01*
X224010272Y-108937811D01*
X223821914Y-108859790D01*
X223621955Y-108820016D01*
X223418077Y-108820016D01*
X223218118Y-108859790D01*
X223029760Y-108937811D01*
X222860242Y-109051079D01*
X222841321Y-109070000D01*
X206418711Y-109070000D01*
X206399774Y-109051063D01*
X206230256Y-108937795D01*
X206041898Y-108859774D01*
X205841939Y-108820000D01*
X205638061Y-108820000D01*
X205438102Y-108859774D01*
X205249744Y-108937795D01*
X205080226Y-109051063D01*
X204936063Y-109195226D01*
X204822795Y-109364744D01*
X204744774Y-109553102D01*
X204705000Y-109753061D01*
X204705000Y-109956939D01*
X204744774Y-110156898D01*
X204822795Y-110345256D01*
X204919510Y-110490000D01*
X204822795Y-110634744D01*
X204744774Y-110823102D01*
X204705000Y-111023061D01*
X204705000Y-111226939D01*
X204744774Y-111426898D01*
X204822795Y-111615256D01*
X204919510Y-111760000D01*
X204822795Y-111904744D01*
X204744774Y-112093102D01*
X204705000Y-112293061D01*
X204705000Y-112496939D01*
X204707498Y-112509498D01*
X204185000Y-111987000D01*
X204185000Y-104267000D01*
X204339928Y-104267000D01*
X204352188Y-104391482D01*
X204388498Y-104511180D01*
X204447463Y-104621494D01*
X204526815Y-104718185D01*
X204623506Y-104797537D01*
X204733820Y-104856502D01*
X204853518Y-104892812D01*
X204978000Y-104905072D01*
X205454250Y-104902000D01*
X205613000Y-104743250D01*
X205613000Y-103632000D01*
X204501750Y-103632000D01*
X204343000Y-103790750D01*
X204339928Y-104267000D01*
X204185000Y-104267000D01*
X204185000Y-101727000D01*
X204339928Y-101727000D01*
X204352188Y-101851482D01*
X204388498Y-101971180D01*
X204447463Y-102081494D01*
X204526815Y-102178185D01*
X204596044Y-102235000D01*
X204526815Y-102291815D01*
X204447463Y-102388506D01*
X204388498Y-102498820D01*
X204352188Y-102618518D01*
X204339928Y-102743000D01*
X204343000Y-103219250D01*
X204501750Y-103378000D01*
X205613000Y-103378000D01*
X205613000Y-102266750D01*
X205581250Y-102235000D01*
X205613000Y-102203250D01*
X205613000Y-101092000D01*
X204501750Y-101092000D01*
X204343000Y-101250750D01*
X204339928Y-101727000D01*
X204185000Y-101727000D01*
X204185000Y-100203000D01*
X204339928Y-100203000D01*
X204343000Y-100679250D01*
X204501750Y-100838000D01*
X205613000Y-100838000D01*
X205613000Y-99726750D01*
X205867000Y-99726750D01*
X205867000Y-100838000D01*
X205887000Y-100838000D01*
X205887000Y-101092000D01*
X205867000Y-101092000D01*
X205867000Y-102203250D01*
X205898750Y-102235000D01*
X205867000Y-102266750D01*
X205867000Y-103378000D01*
X205887000Y-103378000D01*
X205887000Y-103632000D01*
X205867000Y-103632000D01*
X205867000Y-104743250D01*
X206025750Y-104902000D01*
X206502000Y-104905072D01*
X206626482Y-104892812D01*
X206746180Y-104856502D01*
X206856494Y-104797537D01*
X206953185Y-104718185D01*
X207032537Y-104621494D01*
X207091502Y-104511180D01*
X207127812Y-104391482D01*
X207136080Y-104307535D01*
X207194880Y-104395535D01*
X207389465Y-104590120D01*
X207618273Y-104743005D01*
X207872510Y-104848314D01*
X208142408Y-104902000D01*
X208417592Y-104902000D01*
X208687490Y-104848314D01*
X208941727Y-104743005D01*
X209170535Y-104590120D01*
X209365120Y-104395535D01*
X209518005Y-104166727D01*
X209550000Y-104089485D01*
X209581995Y-104166727D01*
X209734880Y-104395535D01*
X209929465Y-104590120D01*
X210158273Y-104743005D01*
X210412510Y-104848314D01*
X210682408Y-104902000D01*
X210957592Y-104902000D01*
X211227490Y-104848314D01*
X211481727Y-104743005D01*
X211710535Y-104590120D01*
X211905120Y-104395535D01*
X212058005Y-104166727D01*
X212090000Y-104089485D01*
X212121995Y-104166727D01*
X212274880Y-104395535D01*
X212469465Y-104590120D01*
X212698273Y-104743005D01*
X212952510Y-104848314D01*
X213222408Y-104902000D01*
X213497592Y-104902000D01*
X213767490Y-104848314D01*
X214021727Y-104743005D01*
X214250535Y-104590120D01*
X214445120Y-104395535D01*
X214598005Y-104166727D01*
X214630000Y-104089485D01*
X214661995Y-104166727D01*
X214814880Y-104395535D01*
X215009465Y-104590120D01*
X215238273Y-104743005D01*
X215492510Y-104848314D01*
X215762408Y-104902000D01*
X216037592Y-104902000D01*
X216307490Y-104848314D01*
X216561727Y-104743005D01*
X216790535Y-104590120D01*
X216985120Y-104395535D01*
X217138005Y-104166727D01*
X217170000Y-104089485D01*
X217201995Y-104166727D01*
X217354880Y-104395535D01*
X217549465Y-104590120D01*
X217778273Y-104743005D01*
X218032510Y-104848314D01*
X218302408Y-104902000D01*
X218577592Y-104902000D01*
X218847490Y-104848314D01*
X219101727Y-104743005D01*
X219330535Y-104590120D01*
X219525120Y-104395535D01*
X219583920Y-104307535D01*
X219592188Y-104391482D01*
X219628498Y-104511180D01*
X219687463Y-104621494D01*
X219766815Y-104718185D01*
X219863506Y-104797537D01*
X219973820Y-104856502D01*
X220093518Y-104892812D01*
X220218000Y-104905072D01*
X220694250Y-104902000D01*
X220853000Y-104743250D01*
X220853000Y-103632000D01*
X220833000Y-103632000D01*
X220833000Y-103378000D01*
X220853000Y-103378000D01*
X220853000Y-102266750D01*
X220821250Y-102235000D01*
X220853000Y-102203250D01*
X220853000Y-101092000D01*
X220833000Y-101092000D01*
X220833000Y-100838000D01*
X220853000Y-100838000D01*
X220853000Y-99726750D01*
X221107000Y-99726750D01*
X221107000Y-100838000D01*
X221127000Y-100838000D01*
X221127000Y-101092000D01*
X221107000Y-101092000D01*
X221107000Y-102203250D01*
X221138750Y-102235000D01*
X221107000Y-102266750D01*
X221107000Y-103378000D01*
X221127000Y-103378000D01*
X221127000Y-103632000D01*
X221107000Y-103632000D01*
X221107000Y-104743250D01*
X221265750Y-104902000D01*
X221742000Y-104905072D01*
X221866482Y-104892812D01*
X221986180Y-104856502D01*
X222096494Y-104797537D01*
X222193185Y-104718185D01*
X222272537Y-104621494D01*
X222331502Y-104511180D01*
X222367812Y-104391482D01*
X222376080Y-104307535D01*
X222434880Y-104395535D01*
X222629465Y-104590120D01*
X222858273Y-104743005D01*
X223112510Y-104848314D01*
X223382408Y-104902000D01*
X223657592Y-104902000D01*
X223927490Y-104848314D01*
X224181727Y-104743005D01*
X224410535Y-104590120D01*
X224605120Y-104395535D01*
X224758005Y-104166727D01*
X224790000Y-104089485D01*
X224821995Y-104166727D01*
X224974880Y-104395535D01*
X225169465Y-104590120D01*
X225398273Y-104743005D01*
X225652510Y-104848314D01*
X225922408Y-104902000D01*
X226197592Y-104902000D01*
X226467490Y-104848314D01*
X226721727Y-104743005D01*
X226950535Y-104590120D01*
X227145120Y-104395535D01*
X227298005Y-104166727D01*
X227330000Y-104089485D01*
X227361995Y-104166727D01*
X227514880Y-104395535D01*
X227709465Y-104590120D01*
X227938273Y-104743005D01*
X228192510Y-104848314D01*
X228462408Y-104902000D01*
X228737592Y-104902000D01*
X229007490Y-104848314D01*
X229261727Y-104743005D01*
X229490535Y-104590120D01*
X229685120Y-104395535D01*
X229838005Y-104166727D01*
X229870000Y-104089485D01*
X229901995Y-104166727D01*
X230054880Y-104395535D01*
X230249465Y-104590120D01*
X230478273Y-104743005D01*
X230732510Y-104848314D01*
X231002408Y-104902000D01*
X231277592Y-104902000D01*
X231547490Y-104848314D01*
X231801727Y-104743005D01*
X232030535Y-104590120D01*
X232225120Y-104395535D01*
X232378005Y-104166727D01*
X232410000Y-104089485D01*
X232441995Y-104166727D01*
X232594880Y-104395535D01*
X232789465Y-104590120D01*
X233018273Y-104743005D01*
X233272510Y-104848314D01*
X233542408Y-104902000D01*
X233817592Y-104902000D01*
X234087490Y-104848314D01*
X234341727Y-104743005D01*
X234570535Y-104590120D01*
X234765120Y-104395535D01*
X234918005Y-104166727D01*
X234950000Y-104089485D01*
X234981995Y-104166727D01*
X235134880Y-104395535D01*
X235329465Y-104590120D01*
X235558273Y-104743005D01*
X235812510Y-104848314D01*
X236082408Y-104902000D01*
X236357592Y-104902000D01*
X236627490Y-104848314D01*
X236881727Y-104743005D01*
X237110535Y-104590120D01*
X237305120Y-104395535D01*
X237458005Y-104166727D01*
X237490000Y-104089485D01*
X237521995Y-104166727D01*
X237674880Y-104395535D01*
X237869465Y-104590120D01*
X238098273Y-104743005D01*
X238352510Y-104848314D01*
X238622408Y-104902000D01*
X238897592Y-104902000D01*
X239167490Y-104848314D01*
X239421727Y-104743005D01*
X239650535Y-104590120D01*
X239845120Y-104395535D01*
X239998005Y-104166727D01*
X240030000Y-104089485D01*
X240061995Y-104166727D01*
X240214880Y-104395535D01*
X240409465Y-104590120D01*
X240638273Y-104743005D01*
X240892510Y-104848314D01*
X241162408Y-104902000D01*
X241437592Y-104902000D01*
X241707490Y-104848314D01*
X241961727Y-104743005D01*
X242190535Y-104590120D01*
X242385120Y-104395535D01*
X242538005Y-104166727D01*
X242570000Y-104089485D01*
X242601995Y-104166727D01*
X242754880Y-104395535D01*
X242949465Y-104590120D01*
X243178273Y-104743005D01*
X243432510Y-104848314D01*
X243702408Y-104902000D01*
X243977592Y-104902000D01*
X244247490Y-104848314D01*
X244501727Y-104743005D01*
X244730535Y-104590120D01*
X244925120Y-104395535D01*
X245078005Y-104166727D01*
X245110000Y-104089485D01*
X245141995Y-104166727D01*
X245294880Y-104395535D01*
X245489465Y-104590120D01*
X245718273Y-104743005D01*
X245972510Y-104848314D01*
X246242408Y-104902000D01*
X246517592Y-104902000D01*
X246787490Y-104848314D01*
X247041727Y-104743005D01*
X247270535Y-104590120D01*
X247465120Y-104395535D01*
X247618005Y-104166727D01*
X247650000Y-104089485D01*
X247681995Y-104166727D01*
X247834880Y-104395535D01*
X248029465Y-104590120D01*
X248258273Y-104743005D01*
X248512510Y-104848314D01*
X248782408Y-104902000D01*
X249057592Y-104902000D01*
X249327490Y-104848314D01*
X249581727Y-104743005D01*
X249810535Y-104590120D01*
X250005120Y-104395535D01*
X250158005Y-104166727D01*
X250190000Y-104089485D01*
X250221995Y-104166727D01*
X250374880Y-104395535D01*
X250569465Y-104590120D01*
X250798273Y-104743005D01*
X251052510Y-104848314D01*
X251322408Y-104902000D01*
X251597592Y-104902000D01*
X251867490Y-104848314D01*
X252121727Y-104743005D01*
X252350535Y-104590120D01*
X252545120Y-104395535D01*
X252698005Y-104166727D01*
X252803314Y-103912490D01*
X252857000Y-103642592D01*
X252857000Y-103367408D01*
X252803314Y-103097510D01*
X252698005Y-102843273D01*
X252545120Y-102614465D01*
X252350535Y-102419880D01*
X252121727Y-102266995D01*
X252044485Y-102235000D01*
X252121727Y-102203005D01*
X252350535Y-102050120D01*
X252545120Y-101855535D01*
X252698005Y-101626727D01*
X252803314Y-101372490D01*
X252857000Y-101102592D01*
X252857000Y-100827408D01*
X252803314Y-100557510D01*
X252698005Y-100303273D01*
X252545120Y-100074465D01*
X252350535Y-99879880D01*
X252121727Y-99726995D01*
X251867490Y-99621686D01*
X251597592Y-99568000D01*
X251322408Y-99568000D01*
X251052510Y-99621686D01*
X250798273Y-99726995D01*
X250569465Y-99879880D01*
X250374880Y-100074465D01*
X250221995Y-100303273D01*
X250190000Y-100380515D01*
X250158005Y-100303273D01*
X250005120Y-100074465D01*
X249810535Y-99879880D01*
X249581727Y-99726995D01*
X249327490Y-99621686D01*
X249057592Y-99568000D01*
X248782408Y-99568000D01*
X248512510Y-99621686D01*
X248258273Y-99726995D01*
X248029465Y-99879880D01*
X247834880Y-100074465D01*
X247681995Y-100303273D01*
X247650000Y-100380515D01*
X247618005Y-100303273D01*
X247465120Y-100074465D01*
X247270535Y-99879880D01*
X247041727Y-99726995D01*
X246787490Y-99621686D01*
X246517592Y-99568000D01*
X246242408Y-99568000D01*
X245972510Y-99621686D01*
X245718273Y-99726995D01*
X245489465Y-99879880D01*
X245294880Y-100074465D01*
X245141995Y-100303273D01*
X245110000Y-100380515D01*
X245078005Y-100303273D01*
X244925120Y-100074465D01*
X244730535Y-99879880D01*
X244501727Y-99726995D01*
X244247490Y-99621686D01*
X243977592Y-99568000D01*
X243702408Y-99568000D01*
X243432510Y-99621686D01*
X243178273Y-99726995D01*
X242949465Y-99879880D01*
X242754880Y-100074465D01*
X242601995Y-100303273D01*
X242570000Y-100380515D01*
X242538005Y-100303273D01*
X242385120Y-100074465D01*
X242190535Y-99879880D01*
X241961727Y-99726995D01*
X241707490Y-99621686D01*
X241437592Y-99568000D01*
X241162408Y-99568000D01*
X240892510Y-99621686D01*
X240638273Y-99726995D01*
X240409465Y-99879880D01*
X240214880Y-100074465D01*
X240061995Y-100303273D01*
X240030000Y-100380515D01*
X239998005Y-100303273D01*
X239845120Y-100074465D01*
X239650535Y-99879880D01*
X239421727Y-99726995D01*
X239167490Y-99621686D01*
X238897592Y-99568000D01*
X238622408Y-99568000D01*
X238352510Y-99621686D01*
X238098273Y-99726995D01*
X237869465Y-99879880D01*
X237674880Y-100074465D01*
X237521995Y-100303273D01*
X237490000Y-100380515D01*
X237458005Y-100303273D01*
X237305120Y-100074465D01*
X237110535Y-99879880D01*
X236881727Y-99726995D01*
X236627490Y-99621686D01*
X236357592Y-99568000D01*
X236082408Y-99568000D01*
X235812510Y-99621686D01*
X235558273Y-99726995D01*
X235329465Y-99879880D01*
X235134880Y-100074465D01*
X234981995Y-100303273D01*
X234950000Y-100380515D01*
X234918005Y-100303273D01*
X234765120Y-100074465D01*
X234570535Y-99879880D01*
X234341727Y-99726995D01*
X234087490Y-99621686D01*
X233817592Y-99568000D01*
X233542408Y-99568000D01*
X233272510Y-99621686D01*
X233018273Y-99726995D01*
X232789465Y-99879880D01*
X232594880Y-100074465D01*
X232441995Y-100303273D01*
X232410000Y-100380515D01*
X232378005Y-100303273D01*
X232225120Y-100074465D01*
X232030535Y-99879880D01*
X231801727Y-99726995D01*
X231547490Y-99621686D01*
X231277592Y-99568000D01*
X231002408Y-99568000D01*
X230732510Y-99621686D01*
X230478273Y-99726995D01*
X230249465Y-99879880D01*
X230054880Y-100074465D01*
X229901995Y-100303273D01*
X229870000Y-100380515D01*
X229838005Y-100303273D01*
X229685120Y-100074465D01*
X229490535Y-99879880D01*
X229261727Y-99726995D01*
X229007490Y-99621686D01*
X228737592Y-99568000D01*
X228462408Y-99568000D01*
X228192510Y-99621686D01*
X227938273Y-99726995D01*
X227709465Y-99879880D01*
X227514880Y-100074465D01*
X227361995Y-100303273D01*
X227330000Y-100380515D01*
X227298005Y-100303273D01*
X227145120Y-100074465D01*
X226950535Y-99879880D01*
X226721727Y-99726995D01*
X226467490Y-99621686D01*
X226197592Y-99568000D01*
X225922408Y-99568000D01*
X225652510Y-99621686D01*
X225398273Y-99726995D01*
X225169465Y-99879880D01*
X224974880Y-100074465D01*
X224821995Y-100303273D01*
X224790000Y-100380515D01*
X224758005Y-100303273D01*
X224605120Y-100074465D01*
X224410535Y-99879880D01*
X224181727Y-99726995D01*
X223927490Y-99621686D01*
X223657592Y-99568000D01*
X223382408Y-99568000D01*
X223112510Y-99621686D01*
X222858273Y-99726995D01*
X222629465Y-99879880D01*
X222434880Y-100074465D01*
X222376080Y-100162465D01*
X222367812Y-100078518D01*
X222331502Y-99958820D01*
X222272537Y-99848506D01*
X222193185Y-99751815D01*
X222096494Y-99672463D01*
X221986180Y-99613498D01*
X221866482Y-99577188D01*
X221742000Y-99564928D01*
X221265750Y-99568000D01*
X221107000Y-99726750D01*
X220853000Y-99726750D01*
X220694250Y-99568000D01*
X220218000Y-99564928D01*
X220093518Y-99577188D01*
X219973820Y-99613498D01*
X219863506Y-99672463D01*
X219766815Y-99751815D01*
X219687463Y-99848506D01*
X219628498Y-99958820D01*
X219592188Y-100078518D01*
X219583920Y-100162465D01*
X219525120Y-100074465D01*
X219330535Y-99879880D01*
X219101727Y-99726995D01*
X218847490Y-99621686D01*
X218577592Y-99568000D01*
X218302408Y-99568000D01*
X218032510Y-99621686D01*
X217778273Y-99726995D01*
X217549465Y-99879880D01*
X217354880Y-100074465D01*
X217201995Y-100303273D01*
X217170000Y-100380515D01*
X217138005Y-100303273D01*
X216985120Y-100074465D01*
X216790535Y-99879880D01*
X216561727Y-99726995D01*
X216307490Y-99621686D01*
X216037592Y-99568000D01*
X215762408Y-99568000D01*
X215492510Y-99621686D01*
X215238273Y-99726995D01*
X215009465Y-99879880D01*
X214814880Y-100074465D01*
X214661995Y-100303273D01*
X214630000Y-100380515D01*
X214598005Y-100303273D01*
X214445120Y-100074465D01*
X214250535Y-99879880D01*
X214021727Y-99726995D01*
X213767490Y-99621686D01*
X213497592Y-99568000D01*
X213222408Y-99568000D01*
X212952510Y-99621686D01*
X212698273Y-99726995D01*
X212469465Y-99879880D01*
X212274880Y-100074465D01*
X212121995Y-100303273D01*
X212090000Y-100380515D01*
X212058005Y-100303273D01*
X211905120Y-100074465D01*
X211710535Y-99879880D01*
X211481727Y-99726995D01*
X211227490Y-99621686D01*
X210957592Y-99568000D01*
X210682408Y-99568000D01*
X210412510Y-99621686D01*
X210158273Y-99726995D01*
X209929465Y-99879880D01*
X209734880Y-100074465D01*
X209581995Y-100303273D01*
X209550000Y-100380515D01*
X209518005Y-100303273D01*
X209365120Y-100074465D01*
X209170535Y-99879880D01*
X208941727Y-99726995D01*
X208687490Y-99621686D01*
X208417592Y-99568000D01*
X208142408Y-99568000D01*
X207872510Y-99621686D01*
X207618273Y-99726995D01*
X207389465Y-99879880D01*
X207194880Y-100074465D01*
X207136080Y-100162465D01*
X207127812Y-100078518D01*
X207091502Y-99958820D01*
X207032537Y-99848506D01*
X206953185Y-99751815D01*
X206856494Y-99672463D01*
X206746180Y-99613498D01*
X206626482Y-99577188D01*
X206502000Y-99564928D01*
X206025750Y-99568000D01*
X205867000Y-99726750D01*
X205613000Y-99726750D01*
X205454250Y-99568000D01*
X204978000Y-99564928D01*
X204853518Y-99577188D01*
X204733820Y-99613498D01*
X204623506Y-99672463D01*
X204526815Y-99751815D01*
X204447463Y-99848506D01*
X204388498Y-99958820D01*
X204352188Y-100078518D01*
X204339928Y-100203000D01*
X204185000Y-100203000D01*
X204185000Y-97315881D01*
X246398724Y-97315881D01*
X246758912Y-97805548D01*
X247422882Y-98165849D01*
X248144385Y-98389694D01*
X248895695Y-98468480D01*
X249647938Y-98399178D01*
X250372208Y-98184452D01*
X251040670Y-97832555D01*
X251081088Y-97805548D01*
X251441276Y-97315881D01*
X248920000Y-94794605D01*
X246398724Y-97315881D01*
X204185000Y-97315881D01*
X204185000Y-94460107D01*
X204353475Y-94291632D01*
X204515990Y-94048411D01*
X204627932Y-93778158D01*
X204685000Y-93491260D01*
X204685000Y-93203665D01*
X206845000Y-93203665D01*
X206845000Y-93486335D01*
X206900147Y-93763574D01*
X207008320Y-94024727D01*
X207165363Y-94259759D01*
X207365241Y-94459637D01*
X207600273Y-94616680D01*
X207861426Y-94724853D01*
X208138665Y-94780000D01*
X208421335Y-94780000D01*
X208698574Y-94724853D01*
X208959727Y-94616680D01*
X209194759Y-94459637D01*
X209394637Y-94259759D01*
X209551680Y-94024727D01*
X209659853Y-93763574D01*
X209673684Y-93694039D01*
X217048096Y-93694039D01*
X217088754Y-93828087D01*
X217208963Y-94082420D01*
X217376481Y-94308414D01*
X217584869Y-94497385D01*
X217826119Y-94642070D01*
X218090960Y-94736909D01*
X218313000Y-94615624D01*
X218313000Y-93472000D01*
X218567000Y-93472000D01*
X218567000Y-94615624D01*
X218789040Y-94736909D01*
X219053881Y-94642070D01*
X219295131Y-94497385D01*
X219503519Y-94308414D01*
X219671037Y-94082420D01*
X219791246Y-93828087D01*
X219831904Y-93694039D01*
X219709915Y-93472000D01*
X218567000Y-93472000D01*
X218313000Y-93472000D01*
X217170085Y-93472000D01*
X217048096Y-93694039D01*
X209673684Y-93694039D01*
X209715000Y-93486335D01*
X209715000Y-93203665D01*
X209673685Y-92995961D01*
X217048096Y-92995961D01*
X217170085Y-93218000D01*
X218313000Y-93218000D01*
X218313000Y-92074376D01*
X218567000Y-92074376D01*
X218567000Y-93218000D01*
X219709915Y-93218000D01*
X219831904Y-92995961D01*
X219791246Y-92861913D01*
X219671037Y-92607580D01*
X219587588Y-92495000D01*
X239811928Y-92495000D01*
X239811928Y-94195000D01*
X239824188Y-94319482D01*
X239860498Y-94439180D01*
X239919463Y-94549494D01*
X239998815Y-94646185D01*
X240095506Y-94725537D01*
X240205820Y-94784502D01*
X240325518Y-94820812D01*
X240450000Y-94833072D01*
X242150000Y-94833072D01*
X242274482Y-94820812D01*
X242394180Y-94784502D01*
X242504494Y-94725537D01*
X242601185Y-94646185D01*
X242646724Y-94590695D01*
X245066520Y-94590695D01*
X245135822Y-95342938D01*
X245350548Y-96067208D01*
X245702445Y-96735670D01*
X245729452Y-96776088D01*
X246219119Y-97136276D01*
X248740395Y-94615000D01*
X249099605Y-94615000D01*
X251620881Y-97136276D01*
X252110548Y-96776088D01*
X252470849Y-96112118D01*
X252694694Y-95390615D01*
X252773480Y-94639305D01*
X252704178Y-93887062D01*
X252489452Y-93162792D01*
X252137555Y-92494330D01*
X252110548Y-92453912D01*
X251620881Y-92093724D01*
X249099605Y-94615000D01*
X248740395Y-94615000D01*
X246219119Y-92093724D01*
X245729452Y-92453912D01*
X245369151Y-93117882D01*
X245145306Y-93839385D01*
X245066520Y-94590695D01*
X242646724Y-94590695D01*
X242680537Y-94549494D01*
X242739502Y-94439180D01*
X242775812Y-94319482D01*
X242788072Y-94195000D01*
X242788072Y-92495000D01*
X242775812Y-92370518D01*
X242739502Y-92250820D01*
X242680537Y-92140506D01*
X242601185Y-92043815D01*
X242504494Y-91964463D01*
X242410309Y-91914119D01*
X246398724Y-91914119D01*
X248920000Y-94435395D01*
X251441276Y-91914119D01*
X251081088Y-91424452D01*
X250417118Y-91064151D01*
X249695615Y-90840306D01*
X248944305Y-90761520D01*
X248192062Y-90830822D01*
X247467792Y-91045548D01*
X246799330Y-91397445D01*
X246758912Y-91424452D01*
X246398724Y-91914119D01*
X242410309Y-91914119D01*
X242394180Y-91905498D01*
X242274482Y-91869188D01*
X242150000Y-91856928D01*
X240450000Y-91856928D01*
X240325518Y-91869188D01*
X240205820Y-91905498D01*
X240095506Y-91964463D01*
X239998815Y-92043815D01*
X239919463Y-92140506D01*
X239860498Y-92250820D01*
X239824188Y-92370518D01*
X239811928Y-92495000D01*
X219587588Y-92495000D01*
X219503519Y-92381586D01*
X219295131Y-92192615D01*
X219053881Y-92047930D01*
X218789040Y-91953091D01*
X218567000Y-92074376D01*
X218313000Y-92074376D01*
X218090960Y-91953091D01*
X217826119Y-92047930D01*
X217584869Y-92192615D01*
X217376481Y-92381586D01*
X217208963Y-92607580D01*
X217088754Y-92861913D01*
X217048096Y-92995961D01*
X209673685Y-92995961D01*
X209659853Y-92926426D01*
X209551680Y-92665273D01*
X209394637Y-92430241D01*
X209194759Y-92230363D01*
X208959727Y-92073320D01*
X208698574Y-91965147D01*
X208421335Y-91910000D01*
X208138665Y-91910000D01*
X207861426Y-91965147D01*
X207600273Y-92073320D01*
X207365241Y-92230363D01*
X207165363Y-92430241D01*
X207008320Y-92665273D01*
X206900147Y-92926426D01*
X206845000Y-93203665D01*
X204685000Y-93203665D01*
X204685000Y-93198740D01*
X204627932Y-92911842D01*
X204515990Y-92641589D01*
X204353475Y-92398368D01*
X204146632Y-92191525D01*
X203903411Y-92029010D01*
X203633158Y-91917068D01*
X203346260Y-91860000D01*
X203053740Y-91860000D01*
X202766842Y-91917068D01*
X202496589Y-92029010D01*
X202253368Y-92191525D01*
X202121513Y-92323380D01*
X202099502Y-92250820D01*
X202040537Y-92140506D01*
X201961185Y-92043815D01*
X201864494Y-91964463D01*
X201754180Y-91905498D01*
X201634482Y-91869188D01*
X201510000Y-91856928D01*
X199810000Y-91856928D01*
X199685518Y-91869188D01*
X199565820Y-91905498D01*
X199455506Y-91964463D01*
X199358815Y-92043815D01*
X199279463Y-92140506D01*
X199220498Y-92250820D01*
X199184188Y-92370518D01*
X199171928Y-92495000D01*
X193824094Y-92495000D01*
X193846481Y-92431891D01*
X193725814Y-92202000D01*
X192532000Y-92202000D01*
X192532000Y-92222000D01*
X192278000Y-92222000D01*
X192278000Y-92202000D01*
X192258000Y-92202000D01*
X192258000Y-91948000D01*
X192278000Y-91948000D01*
X192278000Y-90754845D01*
X192532000Y-90754845D01*
X192532000Y-91948000D01*
X193725814Y-91948000D01*
X193846481Y-91718109D01*
X193749157Y-91443748D01*
X193600178Y-91193645D01*
X193405269Y-90977412D01*
X193171920Y-90803359D01*
X192909099Y-90678175D01*
X192761890Y-90633524D01*
X192532000Y-90754845D01*
X192278000Y-90754845D01*
X192048110Y-90633524D01*
X191900901Y-90678175D01*
X191638080Y-90803359D01*
X191404731Y-90977412D01*
X191209822Y-91193645D01*
X191140195Y-91310534D01*
X191018475Y-91128368D01*
X190811632Y-90921525D01*
X190568411Y-90759010D01*
X190298158Y-90647068D01*
X190011260Y-90590000D01*
X189718740Y-90590000D01*
X189431842Y-90647068D01*
X189161589Y-90759010D01*
X188918368Y-90921525D01*
X188711525Y-91128368D01*
X188595000Y-91302760D01*
X188478475Y-91128368D01*
X188271632Y-90921525D01*
X188028411Y-90759010D01*
X187758158Y-90647068D01*
X187471260Y-90590000D01*
X187178740Y-90590000D01*
X186891842Y-90647068D01*
X186621589Y-90759010D01*
X186378368Y-90921525D01*
X186171525Y-91128368D01*
X186055000Y-91302760D01*
X185938475Y-91128368D01*
X185731632Y-90921525D01*
X185488411Y-90759010D01*
X185218158Y-90647068D01*
X184931260Y-90590000D01*
X184638740Y-90590000D01*
X184351842Y-90647068D01*
X184081589Y-90759010D01*
X183838368Y-90921525D01*
X183631525Y-91128368D01*
X183515000Y-91302760D01*
X183398475Y-91128368D01*
X183191632Y-90921525D01*
X182948411Y-90759010D01*
X182678158Y-90647068D01*
X182391260Y-90590000D01*
X182098740Y-90590000D01*
X181811842Y-90647068D01*
X181541589Y-90759010D01*
X181298368Y-90921525D01*
X181091525Y-91128368D01*
X180975000Y-91302760D01*
X180858475Y-91128368D01*
X180651632Y-90921525D01*
X180408411Y-90759010D01*
X180138158Y-90647068D01*
X179851260Y-90590000D01*
X179558740Y-90590000D01*
X179271842Y-90647068D01*
X179001589Y-90759010D01*
X178758368Y-90921525D01*
X178551525Y-91128368D01*
X178435000Y-91302760D01*
X178318475Y-91128368D01*
X178111632Y-90921525D01*
X177868411Y-90759010D01*
X177598158Y-90647068D01*
X177311260Y-90590000D01*
X177018740Y-90590000D01*
X176731842Y-90647068D01*
X176461589Y-90759010D01*
X176218368Y-90921525D01*
X176011525Y-91128368D01*
X175895000Y-91302760D01*
X175778475Y-91128368D01*
X175571632Y-90921525D01*
X175328411Y-90759010D01*
X175058158Y-90647068D01*
X174771260Y-90590000D01*
X174478740Y-90590000D01*
X174191842Y-90647068D01*
X173921589Y-90759010D01*
X173678368Y-90921525D01*
X173471525Y-91128368D01*
X173355000Y-91302760D01*
X173238475Y-91128368D01*
X173031632Y-90921525D01*
X172788411Y-90759010D01*
X172518158Y-90647068D01*
X172231260Y-90590000D01*
X171938740Y-90590000D01*
X171651842Y-90647068D01*
X171381589Y-90759010D01*
X171138368Y-90921525D01*
X171006513Y-91053380D01*
X170984502Y-90980820D01*
X170925537Y-90870506D01*
X170846185Y-90773815D01*
X170749494Y-90694463D01*
X170639180Y-90635498D01*
X170519482Y-90599188D01*
X170395000Y-90586928D01*
X168695000Y-90586928D01*
X168570518Y-90599188D01*
X168450820Y-90635498D01*
X168340506Y-90694463D01*
X168243815Y-90773815D01*
X168164463Y-90870506D01*
X168105498Y-90980820D01*
X168069188Y-91100518D01*
X168056928Y-91225000D01*
X161813534Y-91225000D01*
X161517118Y-91064151D01*
X160795615Y-90840306D01*
X160044305Y-90761520D01*
X159292062Y-90830822D01*
X158567792Y-91045548D01*
X157899330Y-91397445D01*
X157858912Y-91424452D01*
X157498724Y-91914119D01*
X155600000Y-91914119D01*
X155600000Y-90195000D01*
X253340000Y-90195000D01*
X253340001Y-152375000D01*
G37*
G04 #@! TD.AperFunction*
M02*
