G04 #@! TF.GenerationSoftware,KiCad,Pcbnew,(5.1.10)-1*
G04 #@! TF.CreationDate,2021-09-26T16:33:56-04:00*
G04 #@! TF.ProjectId,schematics_main,73636865-6d61-4746-9963-735f6d61696e,rev?*
G04 #@! TF.SameCoordinates,Original*
G04 #@! TF.FileFunction,Legend,Bot*
G04 #@! TF.FilePolarity,Positive*
%FSLAX46Y46*%
G04 Gerber Fmt 4.6, Leading zero omitted, Abs format (unit mm)*
G04 Created by KiCad (PCBNEW (5.1.10)-1) date 2021-09-26 16:33:56*
%MOMM*%
%LPD*%
G01*
G04 APERTURE LIST*
%ADD10R,1.524000X1.524000*%
%ADD11C,1.524000*%
%ADD12R,1.800000X1.800000*%
%ADD13O,1.800000X1.800000*%
%ADD14R,1.800000X2.800000*%
%ADD15R,1.700000X1.700000*%
%ADD16O,1.700000X1.700000*%
%ADD17C,2.600000*%
%ADD18O,1.905000X2.000000*%
%ADD19R,1.905000X2.000000*%
%ADD20C,1.600000*%
%ADD21O,1.600000X1.600000*%
%ADD22O,2.200000X2.200000*%
%ADD23R,2.200000X2.200000*%
%ADD24C,3.000000*%
%ADD25C,6.400000*%
%ADD26C,2.000000*%
%ADD27R,3.500000X3.500000*%
%ADD28R,1.600000X1.600000*%
G04 APERTURE END LIST*
%LPC*%
D10*
X220980000Y-100965000D03*
X205740000Y-100965000D03*
D11*
X210820000Y-100965000D03*
X218440000Y-100965000D03*
X208280000Y-100965000D03*
X223520000Y-100965000D03*
X215900000Y-100965000D03*
X213360000Y-100965000D03*
X226060000Y-100965000D03*
X228600000Y-100965000D03*
X236220000Y-100965000D03*
X241300000Y-100965000D03*
X238760000Y-100965000D03*
X233680000Y-100965000D03*
X231140000Y-100965000D03*
X251460000Y-100965000D03*
X248920000Y-100965000D03*
X246380000Y-100965000D03*
X243840000Y-100965000D03*
X251460000Y-126365000D03*
X248920000Y-126365000D03*
X246380000Y-126365000D03*
X243840000Y-126365000D03*
X241300000Y-126365000D03*
D10*
X238760000Y-126365000D03*
D11*
X236220000Y-126365000D03*
X233680000Y-126365000D03*
X231140000Y-126365000D03*
X228600000Y-126365000D03*
X226060000Y-126365000D03*
X223520000Y-126365000D03*
X220980000Y-126365000D03*
X218440000Y-126365000D03*
X215900000Y-126365000D03*
X213360000Y-126365000D03*
X210820000Y-126365000D03*
X208280000Y-126365000D03*
X205740000Y-126365000D03*
X251460000Y-103505000D03*
X248920000Y-103505000D03*
X223520000Y-103505000D03*
X238760000Y-103505000D03*
X226060000Y-103505000D03*
X228600000Y-103505000D03*
X218440000Y-103505000D03*
X210820000Y-103505000D03*
X233680000Y-103505000D03*
X243840000Y-103505000D03*
X208280000Y-103505000D03*
X246380000Y-103505000D03*
X231140000Y-103505000D03*
X241300000Y-103505000D03*
X213360000Y-103505000D03*
D10*
X205740000Y-103505000D03*
D11*
X215900000Y-103505000D03*
X236220000Y-103505000D03*
D10*
X220980000Y-103505000D03*
D12*
X189865000Y-131445000D03*
D13*
X197485000Y-133985000D03*
D14*
X189865000Y-133485000D03*
D13*
X197485000Y-131445000D03*
D15*
X241300000Y-93345000D03*
D16*
X203200000Y-93345000D03*
D15*
X200660000Y-93345000D03*
D17*
X181690000Y-146050000D03*
X186690000Y-146050000D03*
D18*
X207010000Y-143510000D03*
X209550000Y-143510000D03*
D19*
X212090000Y-143510000D03*
D20*
X248960000Y-129540000D03*
X251460000Y-129540000D03*
D21*
X184785000Y-123825000D03*
D20*
X174625000Y-123825000D03*
D21*
X218440000Y-93345000D03*
D20*
X208280000Y-93345000D03*
D22*
X167640000Y-149225000D03*
D23*
X167640000Y-139065000D03*
D22*
X182880000Y-139065000D03*
D23*
X172720000Y-139065000D03*
D22*
X240030000Y-139065000D03*
D23*
X229870000Y-139065000D03*
D22*
X241300000Y-133350000D03*
D23*
X251460000Y-133350000D03*
D16*
X192405000Y-94615000D03*
X192405000Y-92075000D03*
X189865000Y-94615000D03*
X189865000Y-92075000D03*
X187325000Y-94615000D03*
X187325000Y-92075000D03*
X184785000Y-94615000D03*
X184785000Y-92075000D03*
X182245000Y-94615000D03*
X182245000Y-92075000D03*
X179705000Y-94615000D03*
X179705000Y-92075000D03*
X177165000Y-94615000D03*
X177165000Y-92075000D03*
X174625000Y-94615000D03*
X174625000Y-92075000D03*
X172085000Y-94615000D03*
X172085000Y-92075000D03*
X169545000Y-94615000D03*
D15*
X169545000Y-92075000D03*
D24*
X204470000Y-135890000D03*
X244475000Y-139700000D03*
X167640000Y-133985000D03*
D25*
X248920000Y-147955000D03*
X160020000Y-147955000D03*
X160020000Y-94615000D03*
X248920000Y-94615000D03*
D26*
X229870000Y-149225000D03*
X229880000Y-144145000D03*
G36*
G01*
X243065000Y-149705000D02*
X241315000Y-149705000D01*
G75*
G02*
X240440000Y-148830000I0J875000D01*
G01*
X240440000Y-147080000D01*
G75*
G02*
X241315000Y-146205000I875000J0D01*
G01*
X243065000Y-146205000D01*
G75*
G02*
X243940000Y-147080000I0J-875000D01*
G01*
X243940000Y-148830000D01*
G75*
G02*
X243065000Y-149705000I-875000J0D01*
G01*
G37*
G36*
G01*
X238490000Y-152455000D02*
X236490000Y-152455000D01*
G75*
G02*
X235740000Y-151705000I0J750000D01*
G01*
X235740000Y-150205000D01*
G75*
G02*
X236490000Y-149455000I750000J0D01*
G01*
X238490000Y-149455000D01*
G75*
G02*
X239240000Y-150205000I0J-750000D01*
G01*
X239240000Y-151705000D01*
G75*
G02*
X238490000Y-152455000I-750000J0D01*
G01*
G37*
D27*
X237490000Y-144955000D03*
D20*
X174665000Y-120650000D03*
X177165000Y-120650000D03*
X173990000Y-146685000D03*
D28*
X173990000Y-144185000D03*
X193675000Y-147320000D03*
D20*
X193675000Y-149820000D03*
X185380000Y-120650000D03*
X182880000Y-120650000D03*
X193675000Y-141565000D03*
D28*
X193675000Y-139065000D03*
X223520000Y-146685000D03*
D20*
X223520000Y-149185000D03*
X224750000Y-143510000D03*
X222250000Y-143510000D03*
M02*
