G04 #@! TF.GenerationSoftware,KiCad,Pcbnew,(5.1.10)-1*
G04 #@! TF.CreationDate,2021-08-30T10:02:13-04:00*
G04 #@! TF.ProjectId,schematics,73636865-6d61-4746-9963-732e6b696361,rev?*
G04 #@! TF.SameCoordinates,Original*
G04 #@! TF.FileFunction,Soldermask,Bot*
G04 #@! TF.FilePolarity,Negative*
%FSLAX46Y46*%
G04 Gerber Fmt 4.6, Leading zero omitted, Abs format (unit mm)*
G04 Created by KiCad (PCBNEW (5.1.10)-1) date 2021-08-30 10:02:13*
%MOMM*%
%LPD*%
G01*
G04 APERTURE LIST*
%ADD10R,1.700000X1.700000*%
%ADD11O,1.700000X1.700000*%
%ADD12C,2.600000*%
%ADD13O,1.905000X2.000000*%
%ADD14R,1.905000X2.000000*%
%ADD15C,6.400000*%
%ADD16C,1.600000*%
%ADD17O,1.600000X1.600000*%
%ADD18O,2.200000X2.200000*%
%ADD19R,2.200000X2.200000*%
%ADD20O,1.270000X1.270000*%
%ADD21C,3.000000*%
%ADD22C,2.000000*%
%ADD23R,3.500000X3.500000*%
%ADD24R,1.524000X1.524000*%
%ADD25C,1.524000*%
%ADD26R,1.600000X1.600000*%
G04 APERTURE END LIST*
D10*
X241300000Y-93345000D03*
D11*
X203200000Y-93345000D03*
D10*
X200660000Y-93345000D03*
D12*
X181690000Y-146050000D03*
X186690000Y-146050000D03*
D13*
X211455000Y-143510000D03*
X213995000Y-143510000D03*
D14*
X216535000Y-143510000D03*
D15*
X161490000Y-81320000D03*
D16*
X248960000Y-129540000D03*
X251460000Y-129540000D03*
D17*
X182880000Y-123825000D03*
D16*
X172720000Y-123825000D03*
D17*
X218440000Y-93345000D03*
D16*
X208280000Y-93345000D03*
D18*
X167640000Y-149225000D03*
D19*
X167640000Y-139065000D03*
D18*
X182880000Y-139065000D03*
D19*
X172720000Y-139065000D03*
D18*
X240030000Y-139065000D03*
D19*
X229870000Y-139065000D03*
D18*
X241300000Y-133350000D03*
D19*
X251460000Y-133350000D03*
D11*
X172720000Y-57150000D03*
X170180000Y-57150000D03*
X172720000Y-59690000D03*
X170180000Y-59690000D03*
X172720000Y-62230000D03*
X170180000Y-62230000D03*
X172720000Y-64770000D03*
X170180000Y-64770000D03*
X172720000Y-67310000D03*
X170180000Y-67310000D03*
X172720000Y-69850000D03*
X170180000Y-69850000D03*
X172720000Y-72390000D03*
X170180000Y-72390000D03*
X172720000Y-74930000D03*
X170180000Y-74930000D03*
X172720000Y-77470000D03*
X170180000Y-77470000D03*
X172720000Y-80010000D03*
D10*
X170180000Y-80010000D03*
D20*
X188039035Y-70743820D03*
X186626308Y-69835910D03*
X185526595Y-68566765D03*
X184828987Y-67039204D03*
X184590001Y-65376982D03*
X184828997Y-63714760D03*
X185526615Y-62187204D03*
X186626336Y-60918066D03*
X188039069Y-60010164D03*
X189650361Y-59537051D03*
X191329676Y-59537057D03*
X192940965Y-60010180D03*
X194353692Y-60918090D03*
X195453405Y-62187235D03*
X196151013Y-63714796D03*
X196389999Y-65377018D03*
X196151003Y-67039240D03*
X195453385Y-68566796D03*
X194353664Y-69835934D03*
X192940931Y-70743836D03*
X191329639Y-71216949D03*
X189650324Y-71216943D03*
D11*
X167640000Y-92075000D03*
X167640000Y-94615000D03*
X170180000Y-92075000D03*
X170180000Y-94615000D03*
X172720000Y-92075000D03*
X172720000Y-94615000D03*
X175260000Y-92075000D03*
X175260000Y-94615000D03*
X177800000Y-92075000D03*
X177800000Y-94615000D03*
X180340000Y-92075000D03*
X180340000Y-94615000D03*
X182880000Y-92075000D03*
X182880000Y-94615000D03*
X185420000Y-92075000D03*
X185420000Y-94615000D03*
X187960000Y-92075000D03*
X187960000Y-94615000D03*
X190500000Y-92075000D03*
D10*
X190500000Y-94615000D03*
D21*
X211455000Y-135890000D03*
X244475000Y-139700000D03*
X177800000Y-132715000D03*
D15*
X248920000Y-147955000D03*
X160020000Y-147955000D03*
X160020000Y-94615000D03*
X248920000Y-94615000D03*
D22*
X229870000Y-149225000D03*
X229880000Y-144145000D03*
G36*
G01*
X243065000Y-149705000D02*
X241315000Y-149705000D01*
G75*
G02*
X240440000Y-148830000I0J875000D01*
G01*
X240440000Y-147080000D01*
G75*
G02*
X241315000Y-146205000I875000J0D01*
G01*
X243065000Y-146205000D01*
G75*
G02*
X243940000Y-147080000I0J-875000D01*
G01*
X243940000Y-148830000D01*
G75*
G02*
X243065000Y-149705000I-875000J0D01*
G01*
G37*
G36*
G01*
X238490000Y-152455000D02*
X236490000Y-152455000D01*
G75*
G02*
X235740000Y-151705000I0J750000D01*
G01*
X235740000Y-150205000D01*
G75*
G02*
X236490000Y-149455000I750000J0D01*
G01*
X238490000Y-149455000D01*
G75*
G02*
X239240000Y-150205000I0J-750000D01*
G01*
X239240000Y-151705000D01*
G75*
G02*
X238490000Y-152455000I-750000J0D01*
G01*
G37*
D23*
X237490000Y-144955000D03*
D24*
X220980000Y-100965000D03*
X205740000Y-100965000D03*
D25*
X210820000Y-100965000D03*
X218440000Y-100965000D03*
X208280000Y-100965000D03*
X223520000Y-100965000D03*
X215900000Y-100965000D03*
X213360000Y-100965000D03*
X226060000Y-100965000D03*
X228600000Y-100965000D03*
X236220000Y-100965000D03*
X241300000Y-100965000D03*
X238760000Y-100965000D03*
X233680000Y-100965000D03*
X231140000Y-100965000D03*
X251460000Y-100965000D03*
X248920000Y-100965000D03*
X246380000Y-100965000D03*
X243840000Y-100965000D03*
X251460000Y-126365000D03*
X248920000Y-126365000D03*
X246380000Y-126365000D03*
X243840000Y-126365000D03*
X241300000Y-126365000D03*
D24*
X238760000Y-126365000D03*
D25*
X236220000Y-126365000D03*
X233680000Y-126365000D03*
X231140000Y-126365000D03*
X228600000Y-126365000D03*
X226060000Y-126365000D03*
X223520000Y-126365000D03*
X220980000Y-126365000D03*
X218440000Y-126365000D03*
X215900000Y-126365000D03*
X213360000Y-126365000D03*
X210820000Y-126365000D03*
X208280000Y-126365000D03*
X205740000Y-126365000D03*
D17*
X188595000Y-131445000D03*
X191135000Y-139065000D03*
X191135000Y-131445000D03*
D26*
X188595000Y-139065000D03*
D16*
X172760000Y-120650000D03*
X175260000Y-120650000D03*
X173990000Y-146685000D03*
D26*
X173990000Y-144185000D03*
D16*
X194310000Y-147280000D03*
D26*
X194310000Y-144780000D03*
D16*
X185380000Y-120650000D03*
X182880000Y-120650000D03*
X202565000Y-147280000D03*
D26*
X202565000Y-144780000D03*
D16*
X222885000Y-149185000D03*
D26*
X222885000Y-146685000D03*
D16*
X224115000Y-143510000D03*
X221615000Y-143510000D03*
M02*
