G04 #@! TF.GenerationSoftware,KiCad,Pcbnew,(5.1.10)-1*
G04 #@! TF.CreationDate,2021-09-29T14:01:46-04:00*
G04 #@! TF.ProjectId,schematics_main,73636865-6d61-4746-9963-735f6d61696e,rev?*
G04 #@! TF.SameCoordinates,Original*
G04 #@! TF.FileFunction,Copper,L2,Bot*
G04 #@! TF.FilePolarity,Positive*
%FSLAX46Y46*%
G04 Gerber Fmt 4.6, Leading zero omitted, Abs format (unit mm)*
G04 Created by KiCad (PCBNEW (5.1.10)-1) date 2021-09-29 14:01:46*
%MOMM*%
%LPD*%
G01*
G04 APERTURE LIST*
G04 #@! TA.AperFunction,ComponentPad*
%ADD10R,1.905000X2.000000*%
G04 #@! TD*
G04 #@! TA.AperFunction,ComponentPad*
%ADD11O,1.905000X2.000000*%
G04 #@! TD*
G04 #@! TA.AperFunction,ComponentPad*
%ADD12O,2.400000X2.400000*%
G04 #@! TD*
G04 #@! TA.AperFunction,ComponentPad*
%ADD13R,1.524000X1.524000*%
G04 #@! TD*
G04 #@! TA.AperFunction,ComponentPad*
%ADD14C,1.524000*%
G04 #@! TD*
G04 #@! TA.AperFunction,ComponentPad*
%ADD15C,1.700000*%
G04 #@! TD*
G04 #@! TA.AperFunction,ComponentPad*
%ADD16R,1.800000X1.800000*%
G04 #@! TD*
G04 #@! TA.AperFunction,ComponentPad*
%ADD17O,1.800000X1.800000*%
G04 #@! TD*
G04 #@! TA.AperFunction,ComponentPad*
%ADD18R,1.800000X2.800000*%
G04 #@! TD*
G04 #@! TA.AperFunction,ComponentPad*
%ADD19R,1.700000X1.700000*%
G04 #@! TD*
G04 #@! TA.AperFunction,ComponentPad*
%ADD20O,1.700000X1.700000*%
G04 #@! TD*
G04 #@! TA.AperFunction,ComponentPad*
%ADD21C,2.600000*%
G04 #@! TD*
G04 #@! TA.AperFunction,ComponentPad*
%ADD22C,1.600000*%
G04 #@! TD*
G04 #@! TA.AperFunction,ComponentPad*
%ADD23O,1.600000X1.600000*%
G04 #@! TD*
G04 #@! TA.AperFunction,ComponentPad*
%ADD24O,2.200000X2.200000*%
G04 #@! TD*
G04 #@! TA.AperFunction,ComponentPad*
%ADD25R,2.200000X2.200000*%
G04 #@! TD*
G04 #@! TA.AperFunction,ComponentPad*
%ADD26C,3.000000*%
G04 #@! TD*
G04 #@! TA.AperFunction,ComponentPad*
%ADD27C,6.400000*%
G04 #@! TD*
G04 #@! TA.AperFunction,ComponentPad*
%ADD28C,2.000000*%
G04 #@! TD*
G04 #@! TA.AperFunction,ComponentPad*
%ADD29R,3.500000X3.500000*%
G04 #@! TD*
G04 #@! TA.AperFunction,ComponentPad*
%ADD30R,1.600000X1.600000*%
G04 #@! TD*
G04 #@! TA.AperFunction,ViaPad*
%ADD31C,1.000000*%
G04 #@! TD*
G04 #@! TA.AperFunction,ViaPad*
%ADD32C,0.800000*%
G04 #@! TD*
G04 #@! TA.AperFunction,Conductor*
%ADD33C,1.000000*%
G04 #@! TD*
G04 #@! TA.AperFunction,Conductor*
%ADD34C,0.500000*%
G04 #@! TD*
G04 #@! TA.AperFunction,Conductor*
%ADD35C,0.300000*%
G04 #@! TD*
G04 #@! TA.AperFunction,Conductor*
%ADD36C,0.254000*%
G04 #@! TD*
G04 #@! TA.AperFunction,Conductor*
%ADD37C,0.100000*%
G04 #@! TD*
G04 APERTURE END LIST*
D10*
X212090000Y-143510000D03*
D11*
X209550000Y-143510000D03*
X207010000Y-143510000D03*
D12*
X209550000Y-148590000D03*
D13*
X220980000Y-100965000D03*
X205740000Y-100965000D03*
D14*
X210820000Y-100965000D03*
X218440000Y-100965000D03*
X208280000Y-100965000D03*
X223520000Y-100965000D03*
X215900000Y-100965000D03*
X213360000Y-100965000D03*
X226060000Y-100965000D03*
X228600000Y-100965000D03*
X236220000Y-100965000D03*
X241300000Y-100965000D03*
X238760000Y-100965000D03*
X233680000Y-100965000D03*
X231140000Y-100965000D03*
X251460000Y-100965000D03*
X248920000Y-100965000D03*
X246380000Y-100965000D03*
X243840000Y-100965000D03*
X251460000Y-126365000D03*
X248920000Y-126365000D03*
X246380000Y-126365000D03*
X243840000Y-126365000D03*
X241300000Y-126365000D03*
D13*
X238760000Y-126365000D03*
D14*
X236220000Y-126365000D03*
X233680000Y-126365000D03*
X231140000Y-126365000D03*
X228600000Y-126365000D03*
X226060000Y-126365000D03*
X223520000Y-126365000D03*
X220980000Y-126365000D03*
X218440000Y-126365000D03*
X215900000Y-126365000D03*
X213360000Y-126365000D03*
X210820000Y-126365000D03*
X208280000Y-126365000D03*
X205740000Y-126365000D03*
X251460000Y-103505000D03*
X248920000Y-103505000D03*
X223520000Y-103505000D03*
X238760000Y-103505000D03*
X226060000Y-103505000D03*
X228600000Y-103505000D03*
X218440000Y-103505000D03*
X210820000Y-103505000D03*
X233680000Y-103505000D03*
X243840000Y-103505000D03*
X208280000Y-103505000D03*
X246380000Y-103505000D03*
X231140000Y-103505000D03*
X241300000Y-103505000D03*
X213360000Y-103505000D03*
D13*
X205740000Y-103505000D03*
D14*
X215900000Y-103505000D03*
X236220000Y-103505000D03*
D13*
X220980000Y-103505000D03*
D15*
X192405000Y-93345000D03*
X189865000Y-93345000D03*
X187325000Y-93345000D03*
X184785000Y-93345000D03*
X182245000Y-93345000D03*
X179705000Y-93345000D03*
X177165000Y-93345000D03*
X174625000Y-93345000D03*
X172085000Y-93345000D03*
X169545000Y-93345000D03*
X192405000Y-95885000D03*
X189865000Y-95885000D03*
X187325000Y-95885000D03*
X184785000Y-95885000D03*
X182245000Y-95885000D03*
X179705000Y-95885000D03*
X177165000Y-95885000D03*
X174625000Y-95885000D03*
X172085000Y-95885000D03*
G04 #@! TA.AperFunction,ComponentPad*
G36*
G01*
X170145000Y-96735000D02*
X168945000Y-96735000D01*
G75*
G02*
X168695000Y-96485000I0J250000D01*
G01*
X168695000Y-95285000D01*
G75*
G02*
X168945000Y-95035000I250000J0D01*
G01*
X170145000Y-95035000D01*
G75*
G02*
X170395000Y-95285000I0J-250000D01*
G01*
X170395000Y-96485000D01*
G75*
G02*
X170145000Y-96735000I-250000J0D01*
G01*
G37*
G04 #@! TD.AperFunction*
D16*
X182880000Y-131445000D03*
D17*
X190500000Y-133985000D03*
D18*
X182880000Y-133485000D03*
D17*
X190500000Y-131445000D03*
D19*
X241300000Y-93345000D03*
D20*
X203200000Y-93345000D03*
D19*
X200660000Y-93345000D03*
D21*
X181690000Y-146050000D03*
X186690000Y-146050000D03*
D22*
X248960000Y-129540000D03*
X251460000Y-129540000D03*
D23*
X162560000Y-115570000D03*
D22*
X162560000Y-105410000D03*
D23*
X218440000Y-93345000D03*
D22*
X208280000Y-93345000D03*
D24*
X167640000Y-149225000D03*
D25*
X167640000Y-139065000D03*
D24*
X182880000Y-139065000D03*
D25*
X172720000Y-139065000D03*
D24*
X240030000Y-139065000D03*
D25*
X229870000Y-139065000D03*
D24*
X241300000Y-133350000D03*
D25*
X251460000Y-133350000D03*
D26*
X207010000Y-137160000D03*
X244475000Y-139700000D03*
X167640000Y-133985000D03*
D27*
X248920000Y-147955000D03*
X160020000Y-147955000D03*
X160020000Y-94615000D03*
X248920000Y-94615000D03*
D28*
X229870000Y-149225000D03*
X229880000Y-144145000D03*
D29*
X237490000Y-144955000D03*
G04 #@! TA.AperFunction,ComponentPad*
G36*
G01*
X238490000Y-152455000D02*
X236490000Y-152455000D01*
G75*
G02*
X235740000Y-151705000I0J750000D01*
G01*
X235740000Y-150205000D01*
G75*
G02*
X236490000Y-149455000I750000J0D01*
G01*
X238490000Y-149455000D01*
G75*
G02*
X239240000Y-150205000I0J-750000D01*
G01*
X239240000Y-151705000D01*
G75*
G02*
X238490000Y-152455000I-750000J0D01*
G01*
G37*
G04 #@! TD.AperFunction*
G04 #@! TA.AperFunction,ComponentPad*
G36*
G01*
X243065000Y-149705000D02*
X241315000Y-149705000D01*
G75*
G02*
X240440000Y-148830000I0J875000D01*
G01*
X240440000Y-147080000D01*
G75*
G02*
X241315000Y-146205000I875000J0D01*
G01*
X243065000Y-146205000D01*
G75*
G02*
X243940000Y-147080000I0J-875000D01*
G01*
X243940000Y-148830000D01*
G75*
G02*
X243065000Y-149705000I-875000J0D01*
G01*
G37*
G04 #@! TD.AperFunction*
D22*
X168910000Y-113070000D03*
X168910000Y-115570000D03*
X173990000Y-146685000D03*
D30*
X173990000Y-144185000D03*
X193675000Y-147955000D03*
D22*
X193675000Y-150455000D03*
X168910000Y-105450000D03*
X168910000Y-107950000D03*
X193675000Y-142835000D03*
D30*
X193675000Y-140335000D03*
X223520000Y-146685000D03*
D22*
X223520000Y-149185000D03*
X224750000Y-143510000D03*
X222250000Y-143510000D03*
D31*
X190851997Y-114709999D03*
X207010004Y-110490002D03*
X215264946Y-113030000D03*
D32*
X183515000Y-112395000D03*
X184785000Y-112395000D03*
X178435000Y-112395000D03*
X177165010Y-112395000D03*
X175895000Y-112395000D03*
X174625000Y-112395000D03*
X182245000Y-112395000D03*
X180975000Y-112395000D03*
X179704990Y-112395000D03*
D33*
X172720000Y-119420000D02*
X172720000Y-139065000D01*
X172680000Y-119380000D02*
X172720000Y-119420000D01*
X172680000Y-119340000D02*
X172680000Y-119380000D01*
X168910000Y-115570000D02*
X172680000Y-119340000D01*
X203200000Y-118745000D02*
X210820000Y-126365000D01*
X203200000Y-93345000D02*
X203200000Y-118745000D01*
X200660000Y-121285000D02*
X200660000Y-93345000D01*
X205740000Y-126365000D02*
X200660000Y-121285000D01*
D34*
X208280000Y-109220006D02*
X207010004Y-110490002D01*
X208280000Y-103505000D02*
X208280000Y-109220006D01*
X218440000Y-109854946D02*
X215264946Y-113030000D01*
X218440000Y-103505000D02*
X218440000Y-109854946D01*
D35*
X183515000Y-104140000D02*
X183515000Y-112395000D01*
X189865000Y-97790000D02*
X183515000Y-104140000D01*
X189865000Y-95885000D02*
X189865000Y-97790000D01*
X184785000Y-105410000D02*
X184785000Y-112395000D01*
X192405000Y-97790000D02*
X184785000Y-105410000D01*
X192405000Y-95885000D02*
X192405000Y-97790000D01*
X178435000Y-99060000D02*
X178435000Y-112395000D01*
X179705000Y-95885000D02*
X179705000Y-97790000D01*
X179705000Y-97790000D02*
X178435000Y-99060000D01*
X177165000Y-95885000D02*
X177165000Y-112394990D01*
X177165000Y-112394990D02*
X177165010Y-112395000D01*
X175895000Y-99060000D02*
X175895000Y-112395000D01*
X174625000Y-97790000D02*
X175895000Y-99060000D01*
X174625000Y-95885000D02*
X174625000Y-97790000D01*
X174625000Y-100330000D02*
X174625000Y-112395000D01*
X172085000Y-97790000D02*
X174625000Y-100330000D01*
X172085000Y-95885000D02*
X172085000Y-97790000D01*
X182245000Y-102870000D02*
X182245000Y-112395000D01*
X187325000Y-97790000D02*
X182245000Y-102870000D01*
X187325000Y-95885000D02*
X187325000Y-97790000D01*
X180975000Y-101566041D02*
X180975000Y-112395000D01*
X184785000Y-97756041D02*
X180975000Y-101566041D01*
X184785000Y-95885000D02*
X184785000Y-97756041D01*
X179704990Y-100330010D02*
X179704990Y-112395000D01*
X182245000Y-97790000D02*
X179704990Y-100330010D01*
X182245000Y-95885000D02*
X182245000Y-97790000D01*
D36*
X253340001Y-152375000D02*
X239877870Y-152375000D01*
X239875000Y-151240750D01*
X239716250Y-151082000D01*
X237617000Y-151082000D01*
X237617000Y-151102000D01*
X237363000Y-151102000D01*
X237363000Y-151082000D01*
X235263750Y-151082000D01*
X235105000Y-151240750D01*
X235102130Y-152375000D01*
X155600000Y-152375000D01*
X155600000Y-150655881D01*
X157498724Y-150655881D01*
X157858912Y-151145548D01*
X158522882Y-151505849D01*
X159244385Y-151729694D01*
X159995695Y-151808480D01*
X160747938Y-151739178D01*
X161472208Y-151524452D01*
X161618001Y-151447702D01*
X192861903Y-151447702D01*
X192933486Y-151691671D01*
X193188996Y-151812571D01*
X193463184Y-151881300D01*
X193745512Y-151895217D01*
X194025130Y-151853787D01*
X194291292Y-151758603D01*
X194416514Y-151691671D01*
X194488097Y-151447702D01*
X193675000Y-150634605D01*
X192861903Y-151447702D01*
X161618001Y-151447702D01*
X162140670Y-151172555D01*
X162181088Y-151145548D01*
X162541276Y-150655881D01*
X160020000Y-148134605D01*
X157498724Y-150655881D01*
X155600000Y-150655881D01*
X155600000Y-147930695D01*
X156166520Y-147930695D01*
X156235822Y-148682938D01*
X156450548Y-149407208D01*
X156802445Y-150075670D01*
X156829452Y-150116088D01*
X157319119Y-150476276D01*
X159840395Y-147955000D01*
X160199605Y-147955000D01*
X162720881Y-150476276D01*
X163210548Y-150116088D01*
X163479139Y-149621123D01*
X165950821Y-149621123D01*
X166060558Y-149943054D01*
X166230992Y-150237391D01*
X166455573Y-150492822D01*
X166725671Y-150699531D01*
X167030906Y-150849575D01*
X167243878Y-150914175D01*
X167513000Y-150796125D01*
X167513000Y-149352000D01*
X167767000Y-149352000D01*
X167767000Y-150796125D01*
X168036122Y-150914175D01*
X168249094Y-150849575D01*
X168554329Y-150699531D01*
X168781712Y-150525512D01*
X192234783Y-150525512D01*
X192276213Y-150805130D01*
X192371397Y-151071292D01*
X192438329Y-151196514D01*
X192682298Y-151268097D01*
X193495395Y-150455000D01*
X193854605Y-150455000D01*
X194667702Y-151268097D01*
X194911671Y-151196514D01*
X195032571Y-150941004D01*
X195101300Y-150666816D01*
X195115217Y-150384488D01*
X195073787Y-150104870D01*
X194978603Y-149838708D01*
X194911671Y-149713486D01*
X194667702Y-149641903D01*
X193854605Y-150455000D01*
X193495395Y-150455000D01*
X192682298Y-149641903D01*
X192438329Y-149713486D01*
X192317429Y-149968996D01*
X192248700Y-150243184D01*
X192234783Y-150525512D01*
X168781712Y-150525512D01*
X168824427Y-150492822D01*
X169049008Y-150237391D01*
X169219442Y-149943054D01*
X169329179Y-149621123D01*
X169211600Y-149352000D01*
X167767000Y-149352000D01*
X167513000Y-149352000D01*
X166068400Y-149352000D01*
X165950821Y-149621123D01*
X163479139Y-149621123D01*
X163570849Y-149452118D01*
X163764208Y-148828877D01*
X165950821Y-148828877D01*
X166068400Y-149098000D01*
X167513000Y-149098000D01*
X167513000Y-147653875D01*
X167767000Y-147653875D01*
X167767000Y-149098000D01*
X169211600Y-149098000D01*
X169329179Y-148828877D01*
X169219442Y-148506946D01*
X169049008Y-148212609D01*
X168824427Y-147957178D01*
X168554329Y-147750469D01*
X168406299Y-147677702D01*
X173176903Y-147677702D01*
X173248486Y-147921671D01*
X173503996Y-148042571D01*
X173778184Y-148111300D01*
X174060512Y-148125217D01*
X174340130Y-148083787D01*
X174606292Y-147988603D01*
X174731514Y-147921671D01*
X174803097Y-147677702D01*
X173990000Y-146864605D01*
X173176903Y-147677702D01*
X168406299Y-147677702D01*
X168249094Y-147600425D01*
X168036122Y-147535825D01*
X167767000Y-147653875D01*
X167513000Y-147653875D01*
X167243878Y-147535825D01*
X167030906Y-147600425D01*
X166725671Y-147750469D01*
X166455573Y-147957178D01*
X166230992Y-148212609D01*
X166060558Y-148506946D01*
X165950821Y-148828877D01*
X163764208Y-148828877D01*
X163794694Y-148730615D01*
X163873480Y-147979305D01*
X163804178Y-147227062D01*
X163664377Y-146755512D01*
X172549783Y-146755512D01*
X172591213Y-147035130D01*
X172686397Y-147301292D01*
X172753329Y-147426514D01*
X172997298Y-147498097D01*
X173810395Y-146685000D01*
X174169605Y-146685000D01*
X174982702Y-147498097D01*
X175226671Y-147426514D01*
X175347571Y-147171004D01*
X175416300Y-146896816D01*
X175430217Y-146614488D01*
X175388787Y-146334870D01*
X175293603Y-146068708D01*
X175226671Y-145943486D01*
X174982702Y-145871903D01*
X174169605Y-146685000D01*
X173810395Y-146685000D01*
X172997298Y-145871903D01*
X172753329Y-145943486D01*
X172632429Y-146198996D01*
X172563700Y-146473184D01*
X172549783Y-146755512D01*
X163664377Y-146755512D01*
X163589452Y-146502792D01*
X163237555Y-145834330D01*
X163210548Y-145793912D01*
X162720881Y-145433724D01*
X160199605Y-147955000D01*
X159840395Y-147955000D01*
X157319119Y-145433724D01*
X156829452Y-145793912D01*
X156469151Y-146457882D01*
X156245306Y-147179385D01*
X156166520Y-147930695D01*
X155600000Y-147930695D01*
X155600000Y-145254119D01*
X157498724Y-145254119D01*
X160020000Y-147775395D01*
X162541276Y-145254119D01*
X162181088Y-144764452D01*
X161517118Y-144404151D01*
X160795615Y-144180306D01*
X160044305Y-144101520D01*
X159292062Y-144170822D01*
X158567792Y-144385548D01*
X157899330Y-144737445D01*
X157858912Y-144764452D01*
X157498724Y-145254119D01*
X155600000Y-145254119D01*
X155600000Y-143385000D01*
X172551928Y-143385000D01*
X172551928Y-144985000D01*
X172564188Y-145109482D01*
X172600498Y-145229180D01*
X172659463Y-145339494D01*
X172738815Y-145436185D01*
X172835506Y-145515537D01*
X172945820Y-145574502D01*
X173065518Y-145610812D01*
X173190000Y-145623072D01*
X173197215Y-145623072D01*
X173176903Y-145692298D01*
X173990000Y-146505395D01*
X174635976Y-145859419D01*
X179755000Y-145859419D01*
X179755000Y-146240581D01*
X179829361Y-146614419D01*
X179975225Y-146966566D01*
X180186987Y-147283491D01*
X180456509Y-147553013D01*
X180773434Y-147764775D01*
X181125581Y-147910639D01*
X181499419Y-147985000D01*
X181880581Y-147985000D01*
X182254419Y-147910639D01*
X182606566Y-147764775D01*
X182923491Y-147553013D01*
X183193013Y-147283491D01*
X183404775Y-146966566D01*
X183550639Y-146614419D01*
X183625000Y-146240581D01*
X183625000Y-145859419D01*
X184755000Y-145859419D01*
X184755000Y-146240581D01*
X184829361Y-146614419D01*
X184975225Y-146966566D01*
X185186987Y-147283491D01*
X185456509Y-147553013D01*
X185773434Y-147764775D01*
X186125581Y-147910639D01*
X186499419Y-147985000D01*
X186880581Y-147985000D01*
X187254419Y-147910639D01*
X187606566Y-147764775D01*
X187923491Y-147553013D01*
X188193013Y-147283491D01*
X188278867Y-147155000D01*
X192236928Y-147155000D01*
X192236928Y-148755000D01*
X192249188Y-148879482D01*
X192285498Y-148999180D01*
X192344463Y-149109494D01*
X192423815Y-149206185D01*
X192520506Y-149285537D01*
X192630820Y-149344502D01*
X192750518Y-149380812D01*
X192875000Y-149393072D01*
X192882215Y-149393072D01*
X192861903Y-149462298D01*
X193675000Y-150275395D01*
X194488097Y-149462298D01*
X194467785Y-149393072D01*
X194475000Y-149393072D01*
X194599482Y-149380812D01*
X194719180Y-149344502D01*
X194829494Y-149285537D01*
X194926185Y-149206185D01*
X195005537Y-149109494D01*
X195063098Y-149001805D01*
X207761805Y-149001805D01*
X207834379Y-149241066D01*
X207994361Y-149563257D01*
X208214125Y-149848046D01*
X208485226Y-150084489D01*
X208797246Y-150263500D01*
X209138194Y-150378199D01*
X209423000Y-150261854D01*
X209423000Y-148717000D01*
X209677000Y-148717000D01*
X209677000Y-150261854D01*
X209961806Y-150378199D01*
X210302754Y-150263500D01*
X210452301Y-150177702D01*
X222706903Y-150177702D01*
X222778486Y-150421671D01*
X223033996Y-150542571D01*
X223308184Y-150611300D01*
X223590512Y-150625217D01*
X223870130Y-150583787D01*
X224136292Y-150488603D01*
X224261514Y-150421671D01*
X224333097Y-150177702D01*
X223520000Y-149364605D01*
X222706903Y-150177702D01*
X210452301Y-150177702D01*
X210614774Y-150084489D01*
X210885875Y-149848046D01*
X211105639Y-149563257D01*
X211258447Y-149255512D01*
X222079783Y-149255512D01*
X222121213Y-149535130D01*
X222216397Y-149801292D01*
X222283329Y-149926514D01*
X222527298Y-149998097D01*
X223340395Y-149185000D01*
X223699605Y-149185000D01*
X224512702Y-149998097D01*
X224756671Y-149926514D01*
X224877571Y-149671004D01*
X224946300Y-149396816D01*
X224960217Y-149114488D01*
X224952732Y-149063967D01*
X228235000Y-149063967D01*
X228235000Y-149386033D01*
X228297832Y-149701912D01*
X228421082Y-149999463D01*
X228600013Y-150267252D01*
X228827748Y-150494987D01*
X229095537Y-150673918D01*
X229393088Y-150797168D01*
X229708967Y-150860000D01*
X230031033Y-150860000D01*
X230346912Y-150797168D01*
X230644463Y-150673918D01*
X230912252Y-150494987D01*
X231139987Y-150267252D01*
X231318918Y-149999463D01*
X231442168Y-149701912D01*
X231491281Y-149455000D01*
X235101928Y-149455000D01*
X235105000Y-150669250D01*
X235263750Y-150828000D01*
X237363000Y-150828000D01*
X237363000Y-148978750D01*
X237617000Y-148978750D01*
X237617000Y-150828000D01*
X239716250Y-150828000D01*
X239875000Y-150669250D01*
X239875033Y-150655881D01*
X246398724Y-150655881D01*
X246758912Y-151145548D01*
X247422882Y-151505849D01*
X248144385Y-151729694D01*
X248895695Y-151808480D01*
X249647938Y-151739178D01*
X250372208Y-151524452D01*
X251040670Y-151172555D01*
X251081088Y-151145548D01*
X251441276Y-150655881D01*
X248920000Y-148134605D01*
X246398724Y-150655881D01*
X239875033Y-150655881D01*
X239878072Y-149455000D01*
X239865812Y-149330518D01*
X239829502Y-149210820D01*
X239770537Y-149100506D01*
X239691185Y-149003815D01*
X239594494Y-148924463D01*
X239484180Y-148865498D01*
X239364482Y-148829188D01*
X239240000Y-148816928D01*
X237775750Y-148820000D01*
X237617000Y-148978750D01*
X237363000Y-148978750D01*
X237204250Y-148820000D01*
X235740000Y-148816928D01*
X235615518Y-148829188D01*
X235495820Y-148865498D01*
X235385506Y-148924463D01*
X235288815Y-149003815D01*
X235209463Y-149100506D01*
X235150498Y-149210820D01*
X235114188Y-149330518D01*
X235101928Y-149455000D01*
X231491281Y-149455000D01*
X231505000Y-149386033D01*
X231505000Y-149063967D01*
X231442168Y-148748088D01*
X231318918Y-148450537D01*
X231139987Y-148182748D01*
X230912252Y-147955013D01*
X230644463Y-147776082D01*
X230346912Y-147652832D01*
X230031033Y-147590000D01*
X229708967Y-147590000D01*
X229393088Y-147652832D01*
X229095537Y-147776082D01*
X228827748Y-147955013D01*
X228600013Y-148182748D01*
X228421082Y-148450537D01*
X228297832Y-148748088D01*
X228235000Y-149063967D01*
X224952732Y-149063967D01*
X224918787Y-148834870D01*
X224823603Y-148568708D01*
X224756671Y-148443486D01*
X224512702Y-148371903D01*
X223699605Y-149185000D01*
X223340395Y-149185000D01*
X222527298Y-148371903D01*
X222283329Y-148443486D01*
X222162429Y-148698996D01*
X222093700Y-148973184D01*
X222079783Y-149255512D01*
X211258447Y-149255512D01*
X211265621Y-149241066D01*
X211338195Y-149001805D01*
X211221432Y-148717000D01*
X209677000Y-148717000D01*
X209423000Y-148717000D01*
X207878568Y-148717000D01*
X207761805Y-149001805D01*
X195063098Y-149001805D01*
X195064502Y-148999180D01*
X195100812Y-148879482D01*
X195113072Y-148755000D01*
X195113072Y-148178195D01*
X207761805Y-148178195D01*
X207878568Y-148463000D01*
X209423000Y-148463000D01*
X209423000Y-146918146D01*
X209677000Y-146918146D01*
X209677000Y-148463000D01*
X211221432Y-148463000D01*
X211338195Y-148178195D01*
X211265621Y-147938934D01*
X211105639Y-147616743D01*
X210885875Y-147331954D01*
X210614774Y-147095511D01*
X210302754Y-146916500D01*
X209961806Y-146801801D01*
X209677000Y-146918146D01*
X209423000Y-146918146D01*
X209138194Y-146801801D01*
X208797246Y-146916500D01*
X208485226Y-147095511D01*
X208214125Y-147331954D01*
X207994361Y-147616743D01*
X207834379Y-147938934D01*
X207761805Y-148178195D01*
X195113072Y-148178195D01*
X195113072Y-147155000D01*
X195100812Y-147030518D01*
X195064502Y-146910820D01*
X195005537Y-146800506D01*
X194926185Y-146703815D01*
X194829494Y-146624463D01*
X194719180Y-146565498D01*
X194599482Y-146529188D01*
X194475000Y-146516928D01*
X192875000Y-146516928D01*
X192750518Y-146529188D01*
X192630820Y-146565498D01*
X192520506Y-146624463D01*
X192423815Y-146703815D01*
X192344463Y-146800506D01*
X192285498Y-146910820D01*
X192249188Y-147030518D01*
X192236928Y-147155000D01*
X188278867Y-147155000D01*
X188404775Y-146966566D01*
X188550639Y-146614419D01*
X188625000Y-146240581D01*
X188625000Y-145885000D01*
X222081928Y-145885000D01*
X222081928Y-147485000D01*
X222094188Y-147609482D01*
X222130498Y-147729180D01*
X222189463Y-147839494D01*
X222268815Y-147936185D01*
X222365506Y-148015537D01*
X222475820Y-148074502D01*
X222595518Y-148110812D01*
X222720000Y-148123072D01*
X222727215Y-148123072D01*
X222706903Y-148192298D01*
X223520000Y-149005395D01*
X224333097Y-148192298D01*
X224312785Y-148123072D01*
X224320000Y-148123072D01*
X224444482Y-148110812D01*
X224564180Y-148074502D01*
X224674494Y-148015537D01*
X224771185Y-147936185D01*
X224850537Y-147839494D01*
X224909502Y-147729180D01*
X224945812Y-147609482D01*
X224958072Y-147485000D01*
X224958072Y-145885000D01*
X224945812Y-145760518D01*
X224909502Y-145640820D01*
X224850537Y-145530506D01*
X224771185Y-145433815D01*
X224674494Y-145354463D01*
X224564180Y-145295498D01*
X224444482Y-145259188D01*
X224320000Y-145246928D01*
X222720000Y-145246928D01*
X222595518Y-145259188D01*
X222475820Y-145295498D01*
X222365506Y-145354463D01*
X222268815Y-145433815D01*
X222189463Y-145530506D01*
X222130498Y-145640820D01*
X222094188Y-145760518D01*
X222081928Y-145885000D01*
X188625000Y-145885000D01*
X188625000Y-145859419D01*
X188550639Y-145485581D01*
X188404775Y-145133434D01*
X188193013Y-144816509D01*
X187923491Y-144546987D01*
X187606566Y-144335225D01*
X187254419Y-144189361D01*
X186880581Y-144115000D01*
X186499419Y-144115000D01*
X186125581Y-144189361D01*
X185773434Y-144335225D01*
X185456509Y-144546987D01*
X185186987Y-144816509D01*
X184975225Y-145133434D01*
X184829361Y-145485581D01*
X184755000Y-145859419D01*
X183625000Y-145859419D01*
X183550639Y-145485581D01*
X183404775Y-145133434D01*
X183193013Y-144816509D01*
X182923491Y-144546987D01*
X182606566Y-144335225D01*
X182254419Y-144189361D01*
X181880581Y-144115000D01*
X181499419Y-144115000D01*
X181125581Y-144189361D01*
X180773434Y-144335225D01*
X180456509Y-144546987D01*
X180186987Y-144816509D01*
X179975225Y-145133434D01*
X179829361Y-145485581D01*
X179755000Y-145859419D01*
X174635976Y-145859419D01*
X174803097Y-145692298D01*
X174782785Y-145623072D01*
X174790000Y-145623072D01*
X174914482Y-145610812D01*
X175034180Y-145574502D01*
X175144494Y-145515537D01*
X175241185Y-145436185D01*
X175320537Y-145339494D01*
X175379502Y-145229180D01*
X175415812Y-145109482D01*
X175428072Y-144985000D01*
X175428072Y-143827702D01*
X192861903Y-143827702D01*
X192933486Y-144071671D01*
X193188996Y-144192571D01*
X193463184Y-144261300D01*
X193745512Y-144275217D01*
X194025130Y-144233787D01*
X194291292Y-144138603D01*
X194416514Y-144071671D01*
X194488097Y-143827702D01*
X193675000Y-143014605D01*
X192861903Y-143827702D01*
X175428072Y-143827702D01*
X175428072Y-143385000D01*
X175415812Y-143260518D01*
X175379502Y-143140820D01*
X175320537Y-143030506D01*
X175241185Y-142933815D01*
X175206698Y-142905512D01*
X192234783Y-142905512D01*
X192276213Y-143185130D01*
X192371397Y-143451292D01*
X192438329Y-143576514D01*
X192682298Y-143648097D01*
X193495395Y-142835000D01*
X193854605Y-142835000D01*
X194667702Y-143648097D01*
X194911671Y-143576514D01*
X195002519Y-143384514D01*
X205422500Y-143384514D01*
X205422500Y-143635485D01*
X205445470Y-143868703D01*
X205536245Y-144167948D01*
X205683655Y-144443734D01*
X205882037Y-144685463D01*
X206123765Y-144883845D01*
X206399551Y-145031255D01*
X206698796Y-145122030D01*
X207010000Y-145152681D01*
X207321203Y-145122030D01*
X207620448Y-145031255D01*
X207896234Y-144883845D01*
X208137963Y-144685463D01*
X208285163Y-144506101D01*
X208440563Y-144691315D01*
X208683077Y-144885969D01*
X208958906Y-145029571D01*
X209177020Y-145100563D01*
X209423000Y-144980594D01*
X209423000Y-143637000D01*
X209403000Y-143637000D01*
X209403000Y-143383000D01*
X209423000Y-143383000D01*
X209423000Y-142039406D01*
X209677000Y-142039406D01*
X209677000Y-143383000D01*
X209697000Y-143383000D01*
X209697000Y-143637000D01*
X209677000Y-143637000D01*
X209677000Y-144980594D01*
X209922980Y-145100563D01*
X210141094Y-145029571D01*
X210416923Y-144885969D01*
X210557941Y-144772781D01*
X210606963Y-144864494D01*
X210686315Y-144961185D01*
X210783006Y-145040537D01*
X210893320Y-145099502D01*
X211013018Y-145135812D01*
X211137500Y-145148072D01*
X213042500Y-145148072D01*
X213166982Y-145135812D01*
X213286680Y-145099502D01*
X213396994Y-145040537D01*
X213493685Y-144961185D01*
X213573037Y-144864494D01*
X213632002Y-144754180D01*
X213668312Y-144634482D01*
X213680572Y-144510000D01*
X213680572Y-143368665D01*
X220815000Y-143368665D01*
X220815000Y-143651335D01*
X220870147Y-143928574D01*
X220978320Y-144189727D01*
X221135363Y-144424759D01*
X221335241Y-144624637D01*
X221570273Y-144781680D01*
X221831426Y-144889853D01*
X222108665Y-144945000D01*
X222391335Y-144945000D01*
X222668574Y-144889853D01*
X222929727Y-144781680D01*
X223164759Y-144624637D01*
X223286694Y-144502702D01*
X223936903Y-144502702D01*
X224008486Y-144746671D01*
X224263996Y-144867571D01*
X224538184Y-144936300D01*
X224820512Y-144950217D01*
X225100130Y-144908787D01*
X225366292Y-144813603D01*
X225491514Y-144746671D01*
X225563097Y-144502702D01*
X224750000Y-143689605D01*
X223936903Y-144502702D01*
X223286694Y-144502702D01*
X223364637Y-144424759D01*
X223498692Y-144224131D01*
X223513329Y-144251514D01*
X223757298Y-144323097D01*
X224570395Y-143510000D01*
X224929605Y-143510000D01*
X225742702Y-144323097D01*
X225986671Y-144251514D01*
X226107571Y-143996004D01*
X226110588Y-143983967D01*
X228245000Y-143983967D01*
X228245000Y-144306033D01*
X228307832Y-144621912D01*
X228431082Y-144919463D01*
X228610013Y-145187252D01*
X228837748Y-145414987D01*
X229105537Y-145593918D01*
X229403088Y-145717168D01*
X229718967Y-145780000D01*
X230041033Y-145780000D01*
X230356912Y-145717168D01*
X230654463Y-145593918D01*
X230922252Y-145414987D01*
X231149987Y-145187252D01*
X231328918Y-144919463D01*
X231452168Y-144621912D01*
X231515000Y-144306033D01*
X231515000Y-143983967D01*
X231452168Y-143668088D01*
X231328918Y-143370537D01*
X231218310Y-143205000D01*
X235101928Y-143205000D01*
X235101928Y-146705000D01*
X235114188Y-146829482D01*
X235150498Y-146949180D01*
X235209463Y-147059494D01*
X235288815Y-147156185D01*
X235385506Y-147235537D01*
X235495820Y-147294502D01*
X235615518Y-147330812D01*
X235740000Y-147343072D01*
X239240000Y-147343072D01*
X239364482Y-147330812D01*
X239484180Y-147294502D01*
X239594494Y-147235537D01*
X239691185Y-147156185D01*
X239770537Y-147059494D01*
X239811494Y-146982869D01*
X239801928Y-147080000D01*
X239801928Y-148830000D01*
X239831001Y-149125186D01*
X239917104Y-149409028D01*
X240056927Y-149670618D01*
X240245097Y-149899903D01*
X240474382Y-150088073D01*
X240735972Y-150227896D01*
X241019814Y-150313999D01*
X241315000Y-150343072D01*
X243065000Y-150343072D01*
X243360186Y-150313999D01*
X243644028Y-150227896D01*
X243905618Y-150088073D01*
X244134903Y-149899903D01*
X244323073Y-149670618D01*
X244462896Y-149409028D01*
X244548999Y-149125186D01*
X244578072Y-148830000D01*
X244578072Y-147930695D01*
X245066520Y-147930695D01*
X245135822Y-148682938D01*
X245350548Y-149407208D01*
X245702445Y-150075670D01*
X245729452Y-150116088D01*
X246219119Y-150476276D01*
X248740395Y-147955000D01*
X249099605Y-147955000D01*
X251620881Y-150476276D01*
X252110548Y-150116088D01*
X252470849Y-149452118D01*
X252694694Y-148730615D01*
X252773480Y-147979305D01*
X252704178Y-147227062D01*
X252489452Y-146502792D01*
X252137555Y-145834330D01*
X252110548Y-145793912D01*
X251620881Y-145433724D01*
X249099605Y-147955000D01*
X248740395Y-147955000D01*
X246219119Y-145433724D01*
X245729452Y-145793912D01*
X245369151Y-146457882D01*
X245145306Y-147179385D01*
X245066520Y-147930695D01*
X244578072Y-147930695D01*
X244578072Y-147080000D01*
X244548999Y-146784814D01*
X244462896Y-146500972D01*
X244323073Y-146239382D01*
X244134903Y-146010097D01*
X243905618Y-145821927D01*
X243644028Y-145682104D01*
X243360186Y-145596001D01*
X243065000Y-145566928D01*
X241315000Y-145566928D01*
X241019814Y-145596001D01*
X240735972Y-145682104D01*
X240474382Y-145821927D01*
X240245097Y-146010097D01*
X240056927Y-146239382D01*
X239917104Y-146500972D01*
X239878072Y-146629643D01*
X239878072Y-145254119D01*
X246398724Y-145254119D01*
X248920000Y-147775395D01*
X251441276Y-145254119D01*
X251081088Y-144764452D01*
X250417118Y-144404151D01*
X249695615Y-144180306D01*
X248944305Y-144101520D01*
X248192062Y-144170822D01*
X247467792Y-144385548D01*
X246799330Y-144737445D01*
X246758912Y-144764452D01*
X246398724Y-145254119D01*
X239878072Y-145254119D01*
X239878072Y-143205000D01*
X239865812Y-143080518D01*
X239829502Y-142960820D01*
X239770537Y-142850506D01*
X239691185Y-142753815D01*
X239594494Y-142674463D01*
X239484180Y-142615498D01*
X239364482Y-142579188D01*
X239240000Y-142566928D01*
X235740000Y-142566928D01*
X235615518Y-142579188D01*
X235495820Y-142615498D01*
X235385506Y-142674463D01*
X235288815Y-142753815D01*
X235209463Y-142850506D01*
X235150498Y-142960820D01*
X235114188Y-143080518D01*
X235101928Y-143205000D01*
X231218310Y-143205000D01*
X231149987Y-143102748D01*
X230922252Y-142875013D01*
X230654463Y-142696082D01*
X230356912Y-142572832D01*
X230041033Y-142510000D01*
X229718967Y-142510000D01*
X229403088Y-142572832D01*
X229105537Y-142696082D01*
X228837748Y-142875013D01*
X228610013Y-143102748D01*
X228431082Y-143370537D01*
X228307832Y-143668088D01*
X228245000Y-143983967D01*
X226110588Y-143983967D01*
X226176300Y-143721816D01*
X226190217Y-143439488D01*
X226148787Y-143159870D01*
X226053603Y-142893708D01*
X225986671Y-142768486D01*
X225742702Y-142696903D01*
X224929605Y-143510000D01*
X224570395Y-143510000D01*
X223757298Y-142696903D01*
X223513329Y-142768486D01*
X223499676Y-142797341D01*
X223364637Y-142595241D01*
X223286694Y-142517298D01*
X223936903Y-142517298D01*
X224750000Y-143330395D01*
X225563097Y-142517298D01*
X225491514Y-142273329D01*
X225236004Y-142152429D01*
X224961816Y-142083700D01*
X224679488Y-142069783D01*
X224399870Y-142111213D01*
X224133708Y-142206397D01*
X224008486Y-142273329D01*
X223936903Y-142517298D01*
X223286694Y-142517298D01*
X223164759Y-142395363D01*
X222929727Y-142238320D01*
X222668574Y-142130147D01*
X222391335Y-142075000D01*
X222108665Y-142075000D01*
X221831426Y-142130147D01*
X221570273Y-142238320D01*
X221335241Y-142395363D01*
X221135363Y-142595241D01*
X220978320Y-142830273D01*
X220870147Y-143091426D01*
X220815000Y-143368665D01*
X213680572Y-143368665D01*
X213680572Y-142510000D01*
X213668312Y-142385518D01*
X213632002Y-142265820D01*
X213573037Y-142155506D01*
X213493685Y-142058815D01*
X213396994Y-141979463D01*
X213286680Y-141920498D01*
X213166982Y-141884188D01*
X213042500Y-141871928D01*
X211137500Y-141871928D01*
X211013018Y-141884188D01*
X210893320Y-141920498D01*
X210783006Y-141979463D01*
X210686315Y-142058815D01*
X210606963Y-142155506D01*
X210557941Y-142247219D01*
X210416923Y-142134031D01*
X210141094Y-141990429D01*
X209922980Y-141919437D01*
X209677000Y-142039406D01*
X209423000Y-142039406D01*
X209177020Y-141919437D01*
X208958906Y-141990429D01*
X208683077Y-142134031D01*
X208440563Y-142328685D01*
X208285162Y-142513900D01*
X208137963Y-142334537D01*
X207896235Y-142136155D01*
X207620449Y-141988745D01*
X207321204Y-141897970D01*
X207010000Y-141867319D01*
X206698797Y-141897970D01*
X206399552Y-141988745D01*
X206123766Y-142136155D01*
X205882037Y-142334537D01*
X205683655Y-142576265D01*
X205536245Y-142852051D01*
X205445470Y-143151296D01*
X205422500Y-143384514D01*
X195002519Y-143384514D01*
X195032571Y-143321004D01*
X195101300Y-143046816D01*
X195115217Y-142764488D01*
X195073787Y-142484870D01*
X194978603Y-142218708D01*
X194911671Y-142093486D01*
X194667702Y-142021903D01*
X193854605Y-142835000D01*
X193495395Y-142835000D01*
X192682298Y-142021903D01*
X192438329Y-142093486D01*
X192317429Y-142348996D01*
X192248700Y-142623184D01*
X192234783Y-142905512D01*
X175206698Y-142905512D01*
X175144494Y-142854463D01*
X175034180Y-142795498D01*
X174914482Y-142759188D01*
X174790000Y-142746928D01*
X173190000Y-142746928D01*
X173065518Y-142759188D01*
X172945820Y-142795498D01*
X172835506Y-142854463D01*
X172738815Y-142933815D01*
X172659463Y-143030506D01*
X172600498Y-143140820D01*
X172564188Y-143260518D01*
X172551928Y-143385000D01*
X155600000Y-143385000D01*
X155600000Y-137965000D01*
X165901928Y-137965000D01*
X165901928Y-140165000D01*
X165914188Y-140289482D01*
X165950498Y-140409180D01*
X166009463Y-140519494D01*
X166088815Y-140616185D01*
X166185506Y-140695537D01*
X166295820Y-140754502D01*
X166415518Y-140790812D01*
X166540000Y-140803072D01*
X168740000Y-140803072D01*
X168864482Y-140790812D01*
X168984180Y-140754502D01*
X169094494Y-140695537D01*
X169191185Y-140616185D01*
X169270537Y-140519494D01*
X169329502Y-140409180D01*
X169365812Y-140289482D01*
X169378072Y-140165000D01*
X169378072Y-137965000D01*
X169365812Y-137840518D01*
X169329502Y-137720820D01*
X169270537Y-137610506D01*
X169191185Y-137513815D01*
X169094494Y-137434463D01*
X168984180Y-137375498D01*
X168864482Y-137339188D01*
X168740000Y-137326928D01*
X166540000Y-137326928D01*
X166415518Y-137339188D01*
X166295820Y-137375498D01*
X166185506Y-137434463D01*
X166088815Y-137513815D01*
X166009463Y-137610506D01*
X165950498Y-137720820D01*
X165914188Y-137840518D01*
X165901928Y-137965000D01*
X155600000Y-137965000D01*
X155600000Y-133774721D01*
X165505000Y-133774721D01*
X165505000Y-134195279D01*
X165587047Y-134607756D01*
X165747988Y-134996302D01*
X165981637Y-135345983D01*
X166279017Y-135643363D01*
X166628698Y-135877012D01*
X167017244Y-136037953D01*
X167429721Y-136120000D01*
X167850279Y-136120000D01*
X168262756Y-136037953D01*
X168651302Y-135877012D01*
X169000983Y-135643363D01*
X169298363Y-135345983D01*
X169532012Y-134996302D01*
X169692953Y-134607756D01*
X169775000Y-134195279D01*
X169775000Y-133774721D01*
X169692953Y-133362244D01*
X169532012Y-132973698D01*
X169298363Y-132624017D01*
X169000983Y-132326637D01*
X168651302Y-132092988D01*
X168262756Y-131932047D01*
X167850279Y-131850000D01*
X167429721Y-131850000D01*
X167017244Y-131932047D01*
X166628698Y-132092988D01*
X166279017Y-132326637D01*
X165981637Y-132624017D01*
X165747988Y-132973698D01*
X165587047Y-133362244D01*
X165505000Y-133774721D01*
X155600000Y-133774721D01*
X155600000Y-115428665D01*
X161125000Y-115428665D01*
X161125000Y-115711335D01*
X161180147Y-115988574D01*
X161288320Y-116249727D01*
X161445363Y-116484759D01*
X161645241Y-116684637D01*
X161880273Y-116841680D01*
X162141426Y-116949853D01*
X162418665Y-117005000D01*
X162701335Y-117005000D01*
X162978574Y-116949853D01*
X163239727Y-116841680D01*
X163474759Y-116684637D01*
X163674637Y-116484759D01*
X163831680Y-116249727D01*
X163939853Y-115988574D01*
X163995000Y-115711335D01*
X163995000Y-115428665D01*
X167475000Y-115428665D01*
X167475000Y-115711335D01*
X167530147Y-115988574D01*
X167638320Y-116249727D01*
X167795363Y-116484759D01*
X167995241Y-116684637D01*
X168230273Y-116841680D01*
X168491426Y-116949853D01*
X168732719Y-116997850D01*
X171585000Y-119850132D01*
X171585001Y-137330375D01*
X171495518Y-137339188D01*
X171375820Y-137375498D01*
X171265506Y-137434463D01*
X171168815Y-137513815D01*
X171089463Y-137610506D01*
X171030498Y-137720820D01*
X170994188Y-137840518D01*
X170981928Y-137965000D01*
X170981928Y-140165000D01*
X170994188Y-140289482D01*
X171030498Y-140409180D01*
X171089463Y-140519494D01*
X171168815Y-140616185D01*
X171265506Y-140695537D01*
X171375820Y-140754502D01*
X171495518Y-140790812D01*
X171620000Y-140803072D01*
X173820000Y-140803072D01*
X173944482Y-140790812D01*
X174064180Y-140754502D01*
X174174494Y-140695537D01*
X174271185Y-140616185D01*
X174350537Y-140519494D01*
X174409502Y-140409180D01*
X174445812Y-140289482D01*
X174458072Y-140165000D01*
X174458072Y-138894117D01*
X181145000Y-138894117D01*
X181145000Y-139235883D01*
X181211675Y-139571081D01*
X181342463Y-139886831D01*
X181532337Y-140170998D01*
X181774002Y-140412663D01*
X182058169Y-140602537D01*
X182373919Y-140733325D01*
X182709117Y-140800000D01*
X183050883Y-140800000D01*
X183386081Y-140733325D01*
X183701831Y-140602537D01*
X183985998Y-140412663D01*
X184227663Y-140170998D01*
X184417537Y-139886831D01*
X184548325Y-139571081D01*
X184555501Y-139535000D01*
X192236928Y-139535000D01*
X192236928Y-141135000D01*
X192249188Y-141259482D01*
X192285498Y-141379180D01*
X192344463Y-141489494D01*
X192423815Y-141586185D01*
X192520506Y-141665537D01*
X192630820Y-141724502D01*
X192750518Y-141760812D01*
X192875000Y-141773072D01*
X192882215Y-141773072D01*
X192861903Y-141842298D01*
X193675000Y-142655395D01*
X194488097Y-141842298D01*
X194467785Y-141773072D01*
X194475000Y-141773072D01*
X194599482Y-141760812D01*
X194719180Y-141724502D01*
X194829494Y-141665537D01*
X194926185Y-141586185D01*
X195005537Y-141489494D01*
X195064502Y-141379180D01*
X195100812Y-141259482D01*
X195113072Y-141135000D01*
X195113072Y-139535000D01*
X195100812Y-139410518D01*
X195064502Y-139290820D01*
X195005537Y-139180506D01*
X194926185Y-139083815D01*
X194829494Y-139004463D01*
X194719180Y-138945498D01*
X194599482Y-138909188D01*
X194475000Y-138896928D01*
X192875000Y-138896928D01*
X192750518Y-138909188D01*
X192630820Y-138945498D01*
X192520506Y-139004463D01*
X192423815Y-139083815D01*
X192344463Y-139180506D01*
X192285498Y-139290820D01*
X192249188Y-139410518D01*
X192236928Y-139535000D01*
X184555501Y-139535000D01*
X184615000Y-139235883D01*
X184615000Y-138894117D01*
X184548325Y-138558919D01*
X184417537Y-138243169D01*
X184227663Y-137959002D01*
X183985998Y-137717337D01*
X183701831Y-137527463D01*
X183386081Y-137396675D01*
X183050883Y-137330000D01*
X182709117Y-137330000D01*
X182373919Y-137396675D01*
X182058169Y-137527463D01*
X181774002Y-137717337D01*
X181532337Y-137959002D01*
X181342463Y-138243169D01*
X181211675Y-138558919D01*
X181145000Y-138894117D01*
X174458072Y-138894117D01*
X174458072Y-137965000D01*
X174445812Y-137840518D01*
X174409502Y-137720820D01*
X174350537Y-137610506D01*
X174271185Y-137513815D01*
X174174494Y-137434463D01*
X174064180Y-137375498D01*
X173944482Y-137339188D01*
X173855000Y-137330375D01*
X173855000Y-136949721D01*
X204875000Y-136949721D01*
X204875000Y-137370279D01*
X204957047Y-137782756D01*
X205117988Y-138171302D01*
X205351637Y-138520983D01*
X205649017Y-138818363D01*
X205998698Y-139052012D01*
X206387244Y-139212953D01*
X206799721Y-139295000D01*
X207220279Y-139295000D01*
X207632756Y-139212953D01*
X208021302Y-139052012D01*
X208370983Y-138818363D01*
X208668363Y-138520983D01*
X208902012Y-138171302D01*
X208987465Y-137965000D01*
X228131928Y-137965000D01*
X228131928Y-140165000D01*
X228144188Y-140289482D01*
X228180498Y-140409180D01*
X228239463Y-140519494D01*
X228318815Y-140616185D01*
X228415506Y-140695537D01*
X228525820Y-140754502D01*
X228645518Y-140790812D01*
X228770000Y-140803072D01*
X230970000Y-140803072D01*
X231094482Y-140790812D01*
X231214180Y-140754502D01*
X231324494Y-140695537D01*
X231421185Y-140616185D01*
X231500537Y-140519494D01*
X231559502Y-140409180D01*
X231595812Y-140289482D01*
X231608072Y-140165000D01*
X231608072Y-138894117D01*
X238295000Y-138894117D01*
X238295000Y-139235883D01*
X238361675Y-139571081D01*
X238492463Y-139886831D01*
X238682337Y-140170998D01*
X238924002Y-140412663D01*
X239208169Y-140602537D01*
X239523919Y-140733325D01*
X239859117Y-140800000D01*
X240200883Y-140800000D01*
X240536081Y-140733325D01*
X240851831Y-140602537D01*
X241135998Y-140412663D01*
X241377663Y-140170998D01*
X241567537Y-139886831D01*
X241698325Y-139571081D01*
X241714508Y-139489721D01*
X242340000Y-139489721D01*
X242340000Y-139910279D01*
X242422047Y-140322756D01*
X242582988Y-140711302D01*
X242816637Y-141060983D01*
X243114017Y-141358363D01*
X243463698Y-141592012D01*
X243852244Y-141752953D01*
X244264721Y-141835000D01*
X244685279Y-141835000D01*
X245097756Y-141752953D01*
X245486302Y-141592012D01*
X245835983Y-141358363D01*
X246133363Y-141060983D01*
X246367012Y-140711302D01*
X246527953Y-140322756D01*
X246610000Y-139910279D01*
X246610000Y-139489721D01*
X246527953Y-139077244D01*
X246367012Y-138688698D01*
X246133363Y-138339017D01*
X245835983Y-138041637D01*
X245486302Y-137807988D01*
X245097756Y-137647047D01*
X244685279Y-137565000D01*
X244264721Y-137565000D01*
X243852244Y-137647047D01*
X243463698Y-137807988D01*
X243114017Y-138041637D01*
X242816637Y-138339017D01*
X242582988Y-138688698D01*
X242422047Y-139077244D01*
X242340000Y-139489721D01*
X241714508Y-139489721D01*
X241765000Y-139235883D01*
X241765000Y-138894117D01*
X241698325Y-138558919D01*
X241567537Y-138243169D01*
X241377663Y-137959002D01*
X241135998Y-137717337D01*
X240851831Y-137527463D01*
X240536081Y-137396675D01*
X240200883Y-137330000D01*
X239859117Y-137330000D01*
X239523919Y-137396675D01*
X239208169Y-137527463D01*
X238924002Y-137717337D01*
X238682337Y-137959002D01*
X238492463Y-138243169D01*
X238361675Y-138558919D01*
X238295000Y-138894117D01*
X231608072Y-138894117D01*
X231608072Y-137965000D01*
X231595812Y-137840518D01*
X231559502Y-137720820D01*
X231500537Y-137610506D01*
X231421185Y-137513815D01*
X231324494Y-137434463D01*
X231214180Y-137375498D01*
X231094482Y-137339188D01*
X230970000Y-137326928D01*
X228770000Y-137326928D01*
X228645518Y-137339188D01*
X228525820Y-137375498D01*
X228415506Y-137434463D01*
X228318815Y-137513815D01*
X228239463Y-137610506D01*
X228180498Y-137720820D01*
X228144188Y-137840518D01*
X228131928Y-137965000D01*
X208987465Y-137965000D01*
X209062953Y-137782756D01*
X209145000Y-137370279D01*
X209145000Y-136949721D01*
X209062953Y-136537244D01*
X208902012Y-136148698D01*
X208668363Y-135799017D01*
X208370983Y-135501637D01*
X208021302Y-135267988D01*
X207632756Y-135107047D01*
X207220279Y-135025000D01*
X206799721Y-135025000D01*
X206387244Y-135107047D01*
X205998698Y-135267988D01*
X205649017Y-135501637D01*
X205351637Y-135799017D01*
X205117988Y-136148698D01*
X204957047Y-136537244D01*
X204875000Y-136949721D01*
X173855000Y-136949721D01*
X173855000Y-130545000D01*
X181341928Y-130545000D01*
X181341928Y-134885000D01*
X181354188Y-135009482D01*
X181390498Y-135129180D01*
X181449463Y-135239494D01*
X181528815Y-135336185D01*
X181625506Y-135415537D01*
X181735820Y-135474502D01*
X181855518Y-135510812D01*
X181980000Y-135523072D01*
X183780000Y-135523072D01*
X183904482Y-135510812D01*
X184024180Y-135474502D01*
X184134494Y-135415537D01*
X184231185Y-135336185D01*
X184310537Y-135239494D01*
X184369502Y-135129180D01*
X184405812Y-135009482D01*
X184418072Y-134885000D01*
X184418072Y-133833816D01*
X188965000Y-133833816D01*
X188965000Y-134136184D01*
X189023989Y-134432743D01*
X189139701Y-134712095D01*
X189307688Y-134963505D01*
X189521495Y-135177312D01*
X189772905Y-135345299D01*
X190052257Y-135461011D01*
X190348816Y-135520000D01*
X190651184Y-135520000D01*
X190947743Y-135461011D01*
X191227095Y-135345299D01*
X191478505Y-135177312D01*
X191692312Y-134963505D01*
X191860299Y-134712095D01*
X191976011Y-134432743D01*
X192035000Y-134136184D01*
X192035000Y-133833816D01*
X191976011Y-133537257D01*
X191860299Y-133257905D01*
X191807655Y-133179117D01*
X239565000Y-133179117D01*
X239565000Y-133520883D01*
X239631675Y-133856081D01*
X239762463Y-134171831D01*
X239952337Y-134455998D01*
X240194002Y-134697663D01*
X240478169Y-134887537D01*
X240793919Y-135018325D01*
X241129117Y-135085000D01*
X241470883Y-135085000D01*
X241806081Y-135018325D01*
X242121831Y-134887537D01*
X242405998Y-134697663D01*
X242647663Y-134455998D01*
X242837537Y-134171831D01*
X242968325Y-133856081D01*
X243035000Y-133520883D01*
X243035000Y-133179117D01*
X242968325Y-132843919D01*
X242837537Y-132528169D01*
X242651671Y-132250000D01*
X249721928Y-132250000D01*
X249721928Y-134450000D01*
X249734188Y-134574482D01*
X249770498Y-134694180D01*
X249829463Y-134804494D01*
X249908815Y-134901185D01*
X250005506Y-134980537D01*
X250115820Y-135039502D01*
X250235518Y-135075812D01*
X250360000Y-135088072D01*
X252560000Y-135088072D01*
X252684482Y-135075812D01*
X252804180Y-135039502D01*
X252914494Y-134980537D01*
X253011185Y-134901185D01*
X253090537Y-134804494D01*
X253149502Y-134694180D01*
X253185812Y-134574482D01*
X253198072Y-134450000D01*
X253198072Y-132250000D01*
X253185812Y-132125518D01*
X253149502Y-132005820D01*
X253090537Y-131895506D01*
X253011185Y-131798815D01*
X252914494Y-131719463D01*
X252804180Y-131660498D01*
X252684482Y-131624188D01*
X252560000Y-131611928D01*
X250360000Y-131611928D01*
X250235518Y-131624188D01*
X250115820Y-131660498D01*
X250005506Y-131719463D01*
X249908815Y-131798815D01*
X249829463Y-131895506D01*
X249770498Y-132005820D01*
X249734188Y-132125518D01*
X249721928Y-132250000D01*
X242651671Y-132250000D01*
X242647663Y-132244002D01*
X242405998Y-132002337D01*
X242121831Y-131812463D01*
X241806081Y-131681675D01*
X241470883Y-131615000D01*
X241129117Y-131615000D01*
X240793919Y-131681675D01*
X240478169Y-131812463D01*
X240194002Y-132002337D01*
X239952337Y-132244002D01*
X239762463Y-132528169D01*
X239631675Y-132843919D01*
X239565000Y-133179117D01*
X191807655Y-133179117D01*
X191692312Y-133006495D01*
X191478505Y-132792688D01*
X191358107Y-132712241D01*
X191407573Y-132682962D01*
X191631649Y-132482116D01*
X191812236Y-132241414D01*
X191942394Y-131970107D01*
X191991036Y-131809740D01*
X191870378Y-131572000D01*
X190627000Y-131572000D01*
X190627000Y-131592000D01*
X190373000Y-131592000D01*
X190373000Y-131572000D01*
X189129622Y-131572000D01*
X189008964Y-131809740D01*
X189057606Y-131970107D01*
X189187764Y-132241414D01*
X189368351Y-132482116D01*
X189592427Y-132682962D01*
X189641893Y-132712241D01*
X189521495Y-132792688D01*
X189307688Y-133006495D01*
X189139701Y-133257905D01*
X189023989Y-133537257D01*
X188965000Y-133833816D01*
X184418072Y-133833816D01*
X184418072Y-131080260D01*
X189008964Y-131080260D01*
X189129622Y-131318000D01*
X190373000Y-131318000D01*
X190373000Y-130074008D01*
X190627000Y-130074008D01*
X190627000Y-131318000D01*
X191870378Y-131318000D01*
X191991036Y-131080260D01*
X191942394Y-130919893D01*
X191812236Y-130648586D01*
X191725294Y-130532702D01*
X248146903Y-130532702D01*
X248218486Y-130776671D01*
X248473996Y-130897571D01*
X248748184Y-130966300D01*
X249030512Y-130980217D01*
X249310130Y-130938787D01*
X249576292Y-130843603D01*
X249701514Y-130776671D01*
X249773097Y-130532702D01*
X248960000Y-129719605D01*
X248146903Y-130532702D01*
X191725294Y-130532702D01*
X191631649Y-130407884D01*
X191407573Y-130207038D01*
X191148620Y-130053766D01*
X190864741Y-129953959D01*
X190627000Y-130074008D01*
X190373000Y-130074008D01*
X190135259Y-129953959D01*
X189851380Y-130053766D01*
X189592427Y-130207038D01*
X189368351Y-130407884D01*
X189187764Y-130648586D01*
X189057606Y-130919893D01*
X189008964Y-131080260D01*
X184418072Y-131080260D01*
X184418072Y-130545000D01*
X184405812Y-130420518D01*
X184369502Y-130300820D01*
X184310537Y-130190506D01*
X184231185Y-130093815D01*
X184134494Y-130014463D01*
X184024180Y-129955498D01*
X183904482Y-129919188D01*
X183780000Y-129906928D01*
X181980000Y-129906928D01*
X181855518Y-129919188D01*
X181735820Y-129955498D01*
X181625506Y-130014463D01*
X181528815Y-130093815D01*
X181449463Y-130190506D01*
X181390498Y-130300820D01*
X181354188Y-130420518D01*
X181341928Y-130545000D01*
X173855000Y-130545000D01*
X173855000Y-129610512D01*
X247519783Y-129610512D01*
X247561213Y-129890130D01*
X247656397Y-130156292D01*
X247723329Y-130281514D01*
X247967298Y-130353097D01*
X248780395Y-129540000D01*
X249139605Y-129540000D01*
X249952702Y-130353097D01*
X250196671Y-130281514D01*
X250210324Y-130252659D01*
X250345363Y-130454759D01*
X250545241Y-130654637D01*
X250780273Y-130811680D01*
X251041426Y-130919853D01*
X251318665Y-130975000D01*
X251601335Y-130975000D01*
X251878574Y-130919853D01*
X252139727Y-130811680D01*
X252374759Y-130654637D01*
X252574637Y-130454759D01*
X252731680Y-130219727D01*
X252839853Y-129958574D01*
X252895000Y-129681335D01*
X252895000Y-129398665D01*
X252839853Y-129121426D01*
X252731680Y-128860273D01*
X252574637Y-128625241D01*
X252374759Y-128425363D01*
X252139727Y-128268320D01*
X251878574Y-128160147D01*
X251601335Y-128105000D01*
X251318665Y-128105000D01*
X251041426Y-128160147D01*
X250780273Y-128268320D01*
X250545241Y-128425363D01*
X250345363Y-128625241D01*
X250211308Y-128825869D01*
X250196671Y-128798486D01*
X249952702Y-128726903D01*
X249139605Y-129540000D01*
X248780395Y-129540000D01*
X247967298Y-128726903D01*
X247723329Y-128798486D01*
X247602429Y-129053996D01*
X247533700Y-129328184D01*
X247519783Y-129610512D01*
X173855000Y-129610512D01*
X173855000Y-128547298D01*
X248146903Y-128547298D01*
X248960000Y-129360395D01*
X249773097Y-128547298D01*
X249701514Y-128303329D01*
X249446004Y-128182429D01*
X249171816Y-128113700D01*
X248889488Y-128099783D01*
X248609870Y-128141213D01*
X248343708Y-128236397D01*
X248218486Y-128303329D01*
X248146903Y-128547298D01*
X173855000Y-128547298D01*
X173855000Y-119475752D01*
X173860491Y-119420000D01*
X173838577Y-119197502D01*
X173833707Y-119181447D01*
X173773676Y-118983553D01*
X173737299Y-118915495D01*
X173733676Y-118903553D01*
X173628284Y-118706377D01*
X173486449Y-118533551D01*
X173443141Y-118498009D01*
X170337850Y-115392719D01*
X170289853Y-115151426D01*
X170181680Y-114890273D01*
X170024637Y-114655241D01*
X169824759Y-114455363D01*
X169624131Y-114321308D01*
X169651514Y-114306671D01*
X169723097Y-114062702D01*
X168910000Y-113249605D01*
X168096903Y-114062702D01*
X168168486Y-114306671D01*
X168197341Y-114320324D01*
X167995241Y-114455363D01*
X167795363Y-114655241D01*
X167638320Y-114890273D01*
X167530147Y-115151426D01*
X167475000Y-115428665D01*
X163995000Y-115428665D01*
X163939853Y-115151426D01*
X163831680Y-114890273D01*
X163674637Y-114655241D01*
X163474759Y-114455363D01*
X163239727Y-114298320D01*
X162978574Y-114190147D01*
X162701335Y-114135000D01*
X162418665Y-114135000D01*
X162141426Y-114190147D01*
X161880273Y-114298320D01*
X161645241Y-114455363D01*
X161445363Y-114655241D01*
X161288320Y-114890273D01*
X161180147Y-115151426D01*
X161125000Y-115428665D01*
X155600000Y-115428665D01*
X155600000Y-113140512D01*
X167469783Y-113140512D01*
X167511213Y-113420130D01*
X167606397Y-113686292D01*
X167673329Y-113811514D01*
X167917298Y-113883097D01*
X168730395Y-113070000D01*
X169089605Y-113070000D01*
X169902702Y-113883097D01*
X170146671Y-113811514D01*
X170267571Y-113556004D01*
X170336300Y-113281816D01*
X170350217Y-112999488D01*
X170308787Y-112719870D01*
X170213603Y-112453708D01*
X170146671Y-112328486D01*
X169902702Y-112256903D01*
X169089605Y-113070000D01*
X168730395Y-113070000D01*
X167917298Y-112256903D01*
X167673329Y-112328486D01*
X167552429Y-112583996D01*
X167483700Y-112858184D01*
X167469783Y-113140512D01*
X155600000Y-113140512D01*
X155600000Y-112077298D01*
X168096903Y-112077298D01*
X168910000Y-112890395D01*
X169723097Y-112077298D01*
X169651514Y-111833329D01*
X169396004Y-111712429D01*
X169121816Y-111643700D01*
X168839488Y-111629783D01*
X168559870Y-111671213D01*
X168293708Y-111766397D01*
X168168486Y-111833329D01*
X168096903Y-112077298D01*
X155600000Y-112077298D01*
X155600000Y-107808665D01*
X167475000Y-107808665D01*
X167475000Y-108091335D01*
X167530147Y-108368574D01*
X167638320Y-108629727D01*
X167795363Y-108864759D01*
X167995241Y-109064637D01*
X168230273Y-109221680D01*
X168491426Y-109329853D01*
X168768665Y-109385000D01*
X169051335Y-109385000D01*
X169328574Y-109329853D01*
X169589727Y-109221680D01*
X169824759Y-109064637D01*
X170024637Y-108864759D01*
X170181680Y-108629727D01*
X170289853Y-108368574D01*
X170345000Y-108091335D01*
X170345000Y-107808665D01*
X170289853Y-107531426D01*
X170181680Y-107270273D01*
X170024637Y-107035241D01*
X169824759Y-106835363D01*
X169624131Y-106701308D01*
X169651514Y-106686671D01*
X169723097Y-106442702D01*
X168910000Y-105629605D01*
X168096903Y-106442702D01*
X168168486Y-106686671D01*
X168197341Y-106700324D01*
X167995241Y-106835363D01*
X167795363Y-107035241D01*
X167638320Y-107270273D01*
X167530147Y-107531426D01*
X167475000Y-107808665D01*
X155600000Y-107808665D01*
X155600000Y-105268665D01*
X161125000Y-105268665D01*
X161125000Y-105551335D01*
X161180147Y-105828574D01*
X161288320Y-106089727D01*
X161445363Y-106324759D01*
X161645241Y-106524637D01*
X161880273Y-106681680D01*
X162141426Y-106789853D01*
X162418665Y-106845000D01*
X162701335Y-106845000D01*
X162978574Y-106789853D01*
X163239727Y-106681680D01*
X163474759Y-106524637D01*
X163674637Y-106324759D01*
X163831680Y-106089727D01*
X163939853Y-105828574D01*
X163995000Y-105551335D01*
X163995000Y-105520512D01*
X167469783Y-105520512D01*
X167511213Y-105800130D01*
X167606397Y-106066292D01*
X167673329Y-106191514D01*
X167917298Y-106263097D01*
X168730395Y-105450000D01*
X169089605Y-105450000D01*
X169902702Y-106263097D01*
X170146671Y-106191514D01*
X170267571Y-105936004D01*
X170336300Y-105661816D01*
X170350217Y-105379488D01*
X170308787Y-105099870D01*
X170213603Y-104833708D01*
X170146671Y-104708486D01*
X169902702Y-104636903D01*
X169089605Y-105450000D01*
X168730395Y-105450000D01*
X167917298Y-104636903D01*
X167673329Y-104708486D01*
X167552429Y-104963996D01*
X167483700Y-105238184D01*
X167469783Y-105520512D01*
X163995000Y-105520512D01*
X163995000Y-105268665D01*
X163939853Y-104991426D01*
X163831680Y-104730273D01*
X163674637Y-104495241D01*
X163636694Y-104457298D01*
X168096903Y-104457298D01*
X168910000Y-105270395D01*
X169723097Y-104457298D01*
X169651514Y-104213329D01*
X169396004Y-104092429D01*
X169121816Y-104023700D01*
X168839488Y-104009783D01*
X168559870Y-104051213D01*
X168293708Y-104146397D01*
X168168486Y-104213329D01*
X168096903Y-104457298D01*
X163636694Y-104457298D01*
X163474759Y-104295363D01*
X163239727Y-104138320D01*
X162978574Y-104030147D01*
X162701335Y-103975000D01*
X162418665Y-103975000D01*
X162141426Y-104030147D01*
X161880273Y-104138320D01*
X161645241Y-104295363D01*
X161445363Y-104495241D01*
X161288320Y-104730273D01*
X161180147Y-104991426D01*
X161125000Y-105268665D01*
X155600000Y-105268665D01*
X155600000Y-97315881D01*
X157498724Y-97315881D01*
X157858912Y-97805548D01*
X158522882Y-98165849D01*
X159244385Y-98389694D01*
X159995695Y-98468480D01*
X160747938Y-98399178D01*
X161472208Y-98184452D01*
X162140670Y-97832555D01*
X162181088Y-97805548D01*
X162541276Y-97315881D01*
X160020000Y-94794605D01*
X157498724Y-97315881D01*
X155600000Y-97315881D01*
X155600000Y-94253380D01*
X156349349Y-93504031D01*
X156245306Y-93839385D01*
X156166520Y-94590695D01*
X156235822Y-95342938D01*
X156450548Y-96067208D01*
X156802445Y-96735670D01*
X156829452Y-96776088D01*
X157319119Y-97136276D01*
X159840395Y-94615000D01*
X160199605Y-94615000D01*
X162720881Y-97136276D01*
X163210548Y-96776088D01*
X163232844Y-96735000D01*
X168056928Y-96735000D01*
X168069188Y-96859482D01*
X168105498Y-96979180D01*
X168164463Y-97089494D01*
X168243815Y-97186185D01*
X168340506Y-97265537D01*
X168450820Y-97324502D01*
X168570518Y-97360812D01*
X168695000Y-97373072D01*
X169259250Y-97370000D01*
X169418000Y-97211250D01*
X169418000Y-96012000D01*
X168218750Y-96012000D01*
X168060000Y-96170750D01*
X168056928Y-96735000D01*
X163232844Y-96735000D01*
X163570849Y-96112118D01*
X163794694Y-95390615D01*
X163831985Y-95035000D01*
X168056928Y-95035000D01*
X168060000Y-95599250D01*
X168218750Y-95758000D01*
X169418000Y-95758000D01*
X169418000Y-95738000D01*
X169672000Y-95738000D01*
X169672000Y-95758000D01*
X169692000Y-95758000D01*
X169692000Y-96012000D01*
X169672000Y-96012000D01*
X169672000Y-97211250D01*
X169830750Y-97370000D01*
X170395000Y-97373072D01*
X170519482Y-97360812D01*
X170639180Y-97324502D01*
X170749494Y-97265537D01*
X170846185Y-97186185D01*
X170925537Y-97089494D01*
X170984502Y-96979180D01*
X171006513Y-96906620D01*
X171138368Y-97038475D01*
X171300001Y-97146474D01*
X171300001Y-97751438D01*
X171296203Y-97790000D01*
X171311359Y-97943886D01*
X171356246Y-98091859D01*
X171356247Y-98091860D01*
X171429139Y-98228233D01*
X171464403Y-98271202D01*
X171502655Y-98317812D01*
X171502656Y-98317813D01*
X171527237Y-98347764D01*
X171557185Y-98372342D01*
X173840000Y-100655158D01*
X173840001Y-111716288D01*
X173821063Y-111735226D01*
X173707795Y-111904744D01*
X173629774Y-112093102D01*
X173590000Y-112293061D01*
X173590000Y-112496939D01*
X173629774Y-112696898D01*
X173707795Y-112885256D01*
X173821063Y-113054774D01*
X173965226Y-113198937D01*
X174134744Y-113312205D01*
X174323102Y-113390226D01*
X174523061Y-113430000D01*
X174726939Y-113430000D01*
X174926898Y-113390226D01*
X175115256Y-113312205D01*
X175260000Y-113215490D01*
X175404744Y-113312205D01*
X175593102Y-113390226D01*
X175793061Y-113430000D01*
X175996939Y-113430000D01*
X176196898Y-113390226D01*
X176385256Y-113312205D01*
X176530005Y-113215487D01*
X176674754Y-113312205D01*
X176863112Y-113390226D01*
X177063071Y-113430000D01*
X177266949Y-113430000D01*
X177466908Y-113390226D01*
X177655266Y-113312205D01*
X177800005Y-113215494D01*
X177944744Y-113312205D01*
X178133102Y-113390226D01*
X178333061Y-113430000D01*
X178536939Y-113430000D01*
X178736898Y-113390226D01*
X178925256Y-113312205D01*
X179069995Y-113215494D01*
X179214734Y-113312205D01*
X179403092Y-113390226D01*
X179603051Y-113430000D01*
X179806929Y-113430000D01*
X180006888Y-113390226D01*
X180195246Y-113312205D01*
X180339995Y-113215487D01*
X180484744Y-113312205D01*
X180673102Y-113390226D01*
X180873061Y-113430000D01*
X181076939Y-113430000D01*
X181276898Y-113390226D01*
X181465256Y-113312205D01*
X181610000Y-113215490D01*
X181754744Y-113312205D01*
X181943102Y-113390226D01*
X182143061Y-113430000D01*
X182346939Y-113430000D01*
X182546898Y-113390226D01*
X182735256Y-113312205D01*
X182880000Y-113215490D01*
X183024744Y-113312205D01*
X183213102Y-113390226D01*
X183413061Y-113430000D01*
X183616939Y-113430000D01*
X183816898Y-113390226D01*
X184005256Y-113312205D01*
X184150000Y-113215490D01*
X184294744Y-113312205D01*
X184483102Y-113390226D01*
X184683061Y-113430000D01*
X184886939Y-113430000D01*
X185086898Y-113390226D01*
X185275256Y-113312205D01*
X185444774Y-113198937D01*
X185588937Y-113054774D01*
X185702205Y-112885256D01*
X185780226Y-112696898D01*
X185820000Y-112496939D01*
X185820000Y-112293061D01*
X185780226Y-112093102D01*
X185702205Y-111904744D01*
X185588937Y-111735226D01*
X185570000Y-111716289D01*
X185570000Y-105735157D01*
X192932816Y-98372342D01*
X192962764Y-98347764D01*
X192987346Y-98317812D01*
X193011450Y-98288441D01*
X193060862Y-98228233D01*
X193133754Y-98091860D01*
X193178641Y-97943887D01*
X193190000Y-97828561D01*
X193190000Y-97828554D01*
X193193797Y-97790001D01*
X193190000Y-97751448D01*
X193190000Y-97146474D01*
X193351632Y-97038475D01*
X193558475Y-96831632D01*
X193720990Y-96588411D01*
X193832932Y-96318158D01*
X193890000Y-96031260D01*
X193890000Y-95738740D01*
X193832932Y-95451842D01*
X193720990Y-95181589D01*
X193558475Y-94938368D01*
X193351632Y-94731525D01*
X193178271Y-94615689D01*
X193253792Y-94373397D01*
X192405000Y-93524605D01*
X191556208Y-94373397D01*
X191631729Y-94615689D01*
X191458368Y-94731525D01*
X191251525Y-94938368D01*
X191135000Y-95112760D01*
X191018475Y-94938368D01*
X190811632Y-94731525D01*
X190637240Y-94615000D01*
X190811632Y-94498475D01*
X191018475Y-94291632D01*
X191134311Y-94118271D01*
X191376603Y-94193792D01*
X192225395Y-93345000D01*
X192584605Y-93345000D01*
X193433397Y-94193792D01*
X193682472Y-94116157D01*
X193808371Y-93852117D01*
X193880339Y-93568589D01*
X193895611Y-93276469D01*
X193853599Y-92986981D01*
X193755919Y-92711253D01*
X193682472Y-92573843D01*
X193433397Y-92496208D01*
X192584605Y-93345000D01*
X192225395Y-93345000D01*
X191376603Y-92496208D01*
X191134311Y-92571729D01*
X191018475Y-92398368D01*
X190936710Y-92316603D01*
X191556208Y-92316603D01*
X192405000Y-93165395D01*
X193075395Y-92495000D01*
X199171928Y-92495000D01*
X199171928Y-94195000D01*
X199184188Y-94319482D01*
X199220498Y-94439180D01*
X199279463Y-94549494D01*
X199358815Y-94646185D01*
X199455506Y-94725537D01*
X199525001Y-94762683D01*
X199525000Y-121229249D01*
X199519509Y-121285000D01*
X199525000Y-121340751D01*
X199541423Y-121507498D01*
X199606324Y-121721446D01*
X199711716Y-121918623D01*
X199853551Y-122091449D01*
X199896865Y-122126996D01*
X204360515Y-126590647D01*
X204396686Y-126772490D01*
X204501995Y-127026727D01*
X204654880Y-127255535D01*
X204849465Y-127450120D01*
X205078273Y-127603005D01*
X205332510Y-127708314D01*
X205602408Y-127762000D01*
X205877592Y-127762000D01*
X206147490Y-127708314D01*
X206401727Y-127603005D01*
X206630535Y-127450120D01*
X206825120Y-127255535D01*
X206978005Y-127026727D01*
X207010000Y-126949485D01*
X207041995Y-127026727D01*
X207194880Y-127255535D01*
X207389465Y-127450120D01*
X207618273Y-127603005D01*
X207872510Y-127708314D01*
X208142408Y-127762000D01*
X208417592Y-127762000D01*
X208687490Y-127708314D01*
X208941727Y-127603005D01*
X209170535Y-127450120D01*
X209365120Y-127255535D01*
X209518005Y-127026727D01*
X209550000Y-126949485D01*
X209581995Y-127026727D01*
X209734880Y-127255535D01*
X209929465Y-127450120D01*
X210158273Y-127603005D01*
X210412510Y-127708314D01*
X210682408Y-127762000D01*
X210957592Y-127762000D01*
X211227490Y-127708314D01*
X211481727Y-127603005D01*
X211710535Y-127450120D01*
X211905120Y-127255535D01*
X212058005Y-127026727D01*
X212090000Y-126949485D01*
X212121995Y-127026727D01*
X212274880Y-127255535D01*
X212469465Y-127450120D01*
X212698273Y-127603005D01*
X212952510Y-127708314D01*
X213222408Y-127762000D01*
X213497592Y-127762000D01*
X213767490Y-127708314D01*
X214021727Y-127603005D01*
X214250535Y-127450120D01*
X214445120Y-127255535D01*
X214598005Y-127026727D01*
X214630000Y-126949485D01*
X214661995Y-127026727D01*
X214814880Y-127255535D01*
X215009465Y-127450120D01*
X215238273Y-127603005D01*
X215492510Y-127708314D01*
X215762408Y-127762000D01*
X216037592Y-127762000D01*
X216307490Y-127708314D01*
X216561727Y-127603005D01*
X216790535Y-127450120D01*
X216985120Y-127255535D01*
X217138005Y-127026727D01*
X217170000Y-126949485D01*
X217201995Y-127026727D01*
X217354880Y-127255535D01*
X217549465Y-127450120D01*
X217778273Y-127603005D01*
X218032510Y-127708314D01*
X218302408Y-127762000D01*
X218577592Y-127762000D01*
X218847490Y-127708314D01*
X219101727Y-127603005D01*
X219330535Y-127450120D01*
X219525120Y-127255535D01*
X219678005Y-127026727D01*
X219710000Y-126949485D01*
X219741995Y-127026727D01*
X219894880Y-127255535D01*
X220089465Y-127450120D01*
X220318273Y-127603005D01*
X220572510Y-127708314D01*
X220842408Y-127762000D01*
X221117592Y-127762000D01*
X221387490Y-127708314D01*
X221641727Y-127603005D01*
X221870535Y-127450120D01*
X222065120Y-127255535D01*
X222218005Y-127026727D01*
X222250000Y-126949485D01*
X222281995Y-127026727D01*
X222434880Y-127255535D01*
X222629465Y-127450120D01*
X222858273Y-127603005D01*
X223112510Y-127708314D01*
X223382408Y-127762000D01*
X223657592Y-127762000D01*
X223927490Y-127708314D01*
X224181727Y-127603005D01*
X224410535Y-127450120D01*
X224605120Y-127255535D01*
X224758005Y-127026727D01*
X224790000Y-126949485D01*
X224821995Y-127026727D01*
X224974880Y-127255535D01*
X225169465Y-127450120D01*
X225398273Y-127603005D01*
X225652510Y-127708314D01*
X225922408Y-127762000D01*
X226197592Y-127762000D01*
X226467490Y-127708314D01*
X226721727Y-127603005D01*
X226950535Y-127450120D01*
X227145120Y-127255535D01*
X227298005Y-127026727D01*
X227330000Y-126949485D01*
X227361995Y-127026727D01*
X227514880Y-127255535D01*
X227709465Y-127450120D01*
X227938273Y-127603005D01*
X228192510Y-127708314D01*
X228462408Y-127762000D01*
X228737592Y-127762000D01*
X229007490Y-127708314D01*
X229261727Y-127603005D01*
X229490535Y-127450120D01*
X229685120Y-127255535D01*
X229838005Y-127026727D01*
X229870000Y-126949485D01*
X229901995Y-127026727D01*
X230054880Y-127255535D01*
X230249465Y-127450120D01*
X230478273Y-127603005D01*
X230732510Y-127708314D01*
X231002408Y-127762000D01*
X231277592Y-127762000D01*
X231547490Y-127708314D01*
X231801727Y-127603005D01*
X232030535Y-127450120D01*
X232225120Y-127255535D01*
X232378005Y-127026727D01*
X232410000Y-126949485D01*
X232441995Y-127026727D01*
X232594880Y-127255535D01*
X232789465Y-127450120D01*
X233018273Y-127603005D01*
X233272510Y-127708314D01*
X233542408Y-127762000D01*
X233817592Y-127762000D01*
X234087490Y-127708314D01*
X234341727Y-127603005D01*
X234570535Y-127450120D01*
X234765120Y-127255535D01*
X234918005Y-127026727D01*
X234950000Y-126949485D01*
X234981995Y-127026727D01*
X235134880Y-127255535D01*
X235329465Y-127450120D01*
X235558273Y-127603005D01*
X235812510Y-127708314D01*
X236082408Y-127762000D01*
X236357592Y-127762000D01*
X236627490Y-127708314D01*
X236881727Y-127603005D01*
X237110535Y-127450120D01*
X237305120Y-127255535D01*
X237363920Y-127167535D01*
X237372188Y-127251482D01*
X237408498Y-127371180D01*
X237467463Y-127481494D01*
X237546815Y-127578185D01*
X237643506Y-127657537D01*
X237753820Y-127716502D01*
X237873518Y-127752812D01*
X237998000Y-127765072D01*
X238474250Y-127762000D01*
X238633000Y-127603250D01*
X238633000Y-126492000D01*
X238613000Y-126492000D01*
X238613000Y-126238000D01*
X238633000Y-126238000D01*
X238633000Y-125126750D01*
X238887000Y-125126750D01*
X238887000Y-126238000D01*
X238907000Y-126238000D01*
X238907000Y-126492000D01*
X238887000Y-126492000D01*
X238887000Y-127603250D01*
X239045750Y-127762000D01*
X239522000Y-127765072D01*
X239646482Y-127752812D01*
X239766180Y-127716502D01*
X239876494Y-127657537D01*
X239973185Y-127578185D01*
X240052537Y-127481494D01*
X240111502Y-127371180D01*
X240147812Y-127251482D01*
X240156080Y-127167535D01*
X240214880Y-127255535D01*
X240409465Y-127450120D01*
X240638273Y-127603005D01*
X240892510Y-127708314D01*
X241162408Y-127762000D01*
X241437592Y-127762000D01*
X241707490Y-127708314D01*
X241961727Y-127603005D01*
X242190535Y-127450120D01*
X242385120Y-127255535D01*
X242538005Y-127026727D01*
X242570000Y-126949485D01*
X242601995Y-127026727D01*
X242754880Y-127255535D01*
X242949465Y-127450120D01*
X243178273Y-127603005D01*
X243432510Y-127708314D01*
X243702408Y-127762000D01*
X243977592Y-127762000D01*
X244247490Y-127708314D01*
X244501727Y-127603005D01*
X244730535Y-127450120D01*
X244925120Y-127255535D01*
X245078005Y-127026727D01*
X245110000Y-126949485D01*
X245141995Y-127026727D01*
X245294880Y-127255535D01*
X245489465Y-127450120D01*
X245718273Y-127603005D01*
X245972510Y-127708314D01*
X246242408Y-127762000D01*
X246517592Y-127762000D01*
X246787490Y-127708314D01*
X247041727Y-127603005D01*
X247270535Y-127450120D01*
X247465120Y-127255535D01*
X247618005Y-127026727D01*
X247650000Y-126949485D01*
X247681995Y-127026727D01*
X247834880Y-127255535D01*
X248029465Y-127450120D01*
X248258273Y-127603005D01*
X248512510Y-127708314D01*
X248782408Y-127762000D01*
X249057592Y-127762000D01*
X249327490Y-127708314D01*
X249581727Y-127603005D01*
X249810535Y-127450120D01*
X250005120Y-127255535D01*
X250158005Y-127026727D01*
X250190000Y-126949485D01*
X250221995Y-127026727D01*
X250374880Y-127255535D01*
X250569465Y-127450120D01*
X250798273Y-127603005D01*
X251052510Y-127708314D01*
X251322408Y-127762000D01*
X251597592Y-127762000D01*
X251867490Y-127708314D01*
X252121727Y-127603005D01*
X252350535Y-127450120D01*
X252545120Y-127255535D01*
X252698005Y-127026727D01*
X252803314Y-126772490D01*
X252857000Y-126502592D01*
X252857000Y-126227408D01*
X252803314Y-125957510D01*
X252698005Y-125703273D01*
X252545120Y-125474465D01*
X252350535Y-125279880D01*
X252121727Y-125126995D01*
X251867490Y-125021686D01*
X251597592Y-124968000D01*
X251322408Y-124968000D01*
X251052510Y-125021686D01*
X250798273Y-125126995D01*
X250569465Y-125279880D01*
X250374880Y-125474465D01*
X250221995Y-125703273D01*
X250190000Y-125780515D01*
X250158005Y-125703273D01*
X250005120Y-125474465D01*
X249810535Y-125279880D01*
X249581727Y-125126995D01*
X249327490Y-125021686D01*
X249057592Y-124968000D01*
X248782408Y-124968000D01*
X248512510Y-125021686D01*
X248258273Y-125126995D01*
X248029465Y-125279880D01*
X247834880Y-125474465D01*
X247681995Y-125703273D01*
X247650000Y-125780515D01*
X247618005Y-125703273D01*
X247465120Y-125474465D01*
X247270535Y-125279880D01*
X247041727Y-125126995D01*
X246787490Y-125021686D01*
X246517592Y-124968000D01*
X246242408Y-124968000D01*
X245972510Y-125021686D01*
X245718273Y-125126995D01*
X245489465Y-125279880D01*
X245294880Y-125474465D01*
X245141995Y-125703273D01*
X245110000Y-125780515D01*
X245078005Y-125703273D01*
X244925120Y-125474465D01*
X244730535Y-125279880D01*
X244501727Y-125126995D01*
X244247490Y-125021686D01*
X243977592Y-124968000D01*
X243702408Y-124968000D01*
X243432510Y-125021686D01*
X243178273Y-125126995D01*
X242949465Y-125279880D01*
X242754880Y-125474465D01*
X242601995Y-125703273D01*
X242570000Y-125780515D01*
X242538005Y-125703273D01*
X242385120Y-125474465D01*
X242190535Y-125279880D01*
X241961727Y-125126995D01*
X241707490Y-125021686D01*
X241437592Y-124968000D01*
X241162408Y-124968000D01*
X240892510Y-125021686D01*
X240638273Y-125126995D01*
X240409465Y-125279880D01*
X240214880Y-125474465D01*
X240156080Y-125562465D01*
X240147812Y-125478518D01*
X240111502Y-125358820D01*
X240052537Y-125248506D01*
X239973185Y-125151815D01*
X239876494Y-125072463D01*
X239766180Y-125013498D01*
X239646482Y-124977188D01*
X239522000Y-124964928D01*
X239045750Y-124968000D01*
X238887000Y-125126750D01*
X238633000Y-125126750D01*
X238474250Y-124968000D01*
X237998000Y-124964928D01*
X237873518Y-124977188D01*
X237753820Y-125013498D01*
X237643506Y-125072463D01*
X237546815Y-125151815D01*
X237467463Y-125248506D01*
X237408498Y-125358820D01*
X237372188Y-125478518D01*
X237363920Y-125562465D01*
X237305120Y-125474465D01*
X237110535Y-125279880D01*
X236881727Y-125126995D01*
X236627490Y-125021686D01*
X236357592Y-124968000D01*
X236082408Y-124968000D01*
X235812510Y-125021686D01*
X235558273Y-125126995D01*
X235329465Y-125279880D01*
X235134880Y-125474465D01*
X234981995Y-125703273D01*
X234950000Y-125780515D01*
X234918005Y-125703273D01*
X234765120Y-125474465D01*
X234570535Y-125279880D01*
X234341727Y-125126995D01*
X234087490Y-125021686D01*
X233817592Y-124968000D01*
X233542408Y-124968000D01*
X233272510Y-125021686D01*
X233018273Y-125126995D01*
X232789465Y-125279880D01*
X232594880Y-125474465D01*
X232441995Y-125703273D01*
X232410000Y-125780515D01*
X232378005Y-125703273D01*
X232225120Y-125474465D01*
X232030535Y-125279880D01*
X231801727Y-125126995D01*
X231547490Y-125021686D01*
X231277592Y-124968000D01*
X231002408Y-124968000D01*
X230732510Y-125021686D01*
X230478273Y-125126995D01*
X230249465Y-125279880D01*
X230054880Y-125474465D01*
X229901995Y-125703273D01*
X229870000Y-125780515D01*
X229838005Y-125703273D01*
X229685120Y-125474465D01*
X229490535Y-125279880D01*
X229261727Y-125126995D01*
X229007490Y-125021686D01*
X228737592Y-124968000D01*
X228462408Y-124968000D01*
X228192510Y-125021686D01*
X227938273Y-125126995D01*
X227709465Y-125279880D01*
X227514880Y-125474465D01*
X227361995Y-125703273D01*
X227330000Y-125780515D01*
X227298005Y-125703273D01*
X227145120Y-125474465D01*
X226950535Y-125279880D01*
X226721727Y-125126995D01*
X226467490Y-125021686D01*
X226197592Y-124968000D01*
X225922408Y-124968000D01*
X225652510Y-125021686D01*
X225398273Y-125126995D01*
X225169465Y-125279880D01*
X224974880Y-125474465D01*
X224821995Y-125703273D01*
X224790000Y-125780515D01*
X224758005Y-125703273D01*
X224605120Y-125474465D01*
X224410535Y-125279880D01*
X224181727Y-125126995D01*
X223927490Y-125021686D01*
X223657592Y-124968000D01*
X223382408Y-124968000D01*
X223112510Y-125021686D01*
X222858273Y-125126995D01*
X222629465Y-125279880D01*
X222434880Y-125474465D01*
X222281995Y-125703273D01*
X222250000Y-125780515D01*
X222218005Y-125703273D01*
X222065120Y-125474465D01*
X221870535Y-125279880D01*
X221641727Y-125126995D01*
X221387490Y-125021686D01*
X221117592Y-124968000D01*
X220842408Y-124968000D01*
X220572510Y-125021686D01*
X220318273Y-125126995D01*
X220089465Y-125279880D01*
X219894880Y-125474465D01*
X219741995Y-125703273D01*
X219710000Y-125780515D01*
X219678005Y-125703273D01*
X219525120Y-125474465D01*
X219330535Y-125279880D01*
X219101727Y-125126995D01*
X218847490Y-125021686D01*
X218577592Y-124968000D01*
X218302408Y-124968000D01*
X218032510Y-125021686D01*
X217778273Y-125126995D01*
X217549465Y-125279880D01*
X217354880Y-125474465D01*
X217201995Y-125703273D01*
X217170000Y-125780515D01*
X217138005Y-125703273D01*
X216985120Y-125474465D01*
X216790535Y-125279880D01*
X216561727Y-125126995D01*
X216307490Y-125021686D01*
X216037592Y-124968000D01*
X215762408Y-124968000D01*
X215492510Y-125021686D01*
X215238273Y-125126995D01*
X215009465Y-125279880D01*
X214814880Y-125474465D01*
X214661995Y-125703273D01*
X214630000Y-125780515D01*
X214598005Y-125703273D01*
X214445120Y-125474465D01*
X214250535Y-125279880D01*
X214021727Y-125126995D01*
X213767490Y-125021686D01*
X213497592Y-124968000D01*
X213222408Y-124968000D01*
X212952510Y-125021686D01*
X212698273Y-125126995D01*
X212469465Y-125279880D01*
X212274880Y-125474465D01*
X212121995Y-125703273D01*
X212090000Y-125780515D01*
X212058005Y-125703273D01*
X211905120Y-125474465D01*
X211710535Y-125279880D01*
X211481727Y-125126995D01*
X211227490Y-125021686D01*
X211045647Y-124985515D01*
X204335000Y-118274869D01*
X204335000Y-104267000D01*
X204339928Y-104267000D01*
X204352188Y-104391482D01*
X204388498Y-104511180D01*
X204447463Y-104621494D01*
X204526815Y-104718185D01*
X204623506Y-104797537D01*
X204733820Y-104856502D01*
X204853518Y-104892812D01*
X204978000Y-104905072D01*
X205454250Y-104902000D01*
X205613000Y-104743250D01*
X205613000Y-103632000D01*
X204501750Y-103632000D01*
X204343000Y-103790750D01*
X204339928Y-104267000D01*
X204335000Y-104267000D01*
X204335000Y-101727000D01*
X204339928Y-101727000D01*
X204352188Y-101851482D01*
X204388498Y-101971180D01*
X204447463Y-102081494D01*
X204526815Y-102178185D01*
X204596044Y-102235000D01*
X204526815Y-102291815D01*
X204447463Y-102388506D01*
X204388498Y-102498820D01*
X204352188Y-102618518D01*
X204339928Y-102743000D01*
X204343000Y-103219250D01*
X204501750Y-103378000D01*
X205613000Y-103378000D01*
X205613000Y-102266750D01*
X205581250Y-102235000D01*
X205613000Y-102203250D01*
X205613000Y-101092000D01*
X204501750Y-101092000D01*
X204343000Y-101250750D01*
X204339928Y-101727000D01*
X204335000Y-101727000D01*
X204335000Y-100203000D01*
X204339928Y-100203000D01*
X204343000Y-100679250D01*
X204501750Y-100838000D01*
X205613000Y-100838000D01*
X205613000Y-99726750D01*
X205867000Y-99726750D01*
X205867000Y-100838000D01*
X205887000Y-100838000D01*
X205887000Y-101092000D01*
X205867000Y-101092000D01*
X205867000Y-102203250D01*
X205898750Y-102235000D01*
X205867000Y-102266750D01*
X205867000Y-103378000D01*
X205887000Y-103378000D01*
X205887000Y-103632000D01*
X205867000Y-103632000D01*
X205867000Y-104743250D01*
X206025750Y-104902000D01*
X206502000Y-104905072D01*
X206626482Y-104892812D01*
X206746180Y-104856502D01*
X206856494Y-104797537D01*
X206953185Y-104718185D01*
X207032537Y-104621494D01*
X207091502Y-104511180D01*
X207127812Y-104391482D01*
X207136080Y-104307535D01*
X207194880Y-104395535D01*
X207389465Y-104590120D01*
X207395000Y-104593819D01*
X207395001Y-108853426D01*
X206892236Y-109356191D01*
X206678937Y-109398619D01*
X206472380Y-109484178D01*
X206286484Y-109608390D01*
X206128392Y-109766482D01*
X206004180Y-109952378D01*
X205918621Y-110158935D01*
X205875004Y-110378214D01*
X205875004Y-110601790D01*
X205918621Y-110821069D01*
X206004180Y-111027626D01*
X206128392Y-111213522D01*
X206286484Y-111371614D01*
X206472380Y-111495826D01*
X206678937Y-111581385D01*
X206898216Y-111625002D01*
X207121792Y-111625002D01*
X207341071Y-111581385D01*
X207547628Y-111495826D01*
X207733524Y-111371614D01*
X207891616Y-111213522D01*
X208015828Y-111027626D01*
X208101387Y-110821069D01*
X208143815Y-110607770D01*
X208875049Y-109876536D01*
X208908817Y-109848823D01*
X209019411Y-109714065D01*
X209075895Y-109608390D01*
X209101589Y-109560320D01*
X209152195Y-109393496D01*
X209153032Y-109385000D01*
X209165000Y-109263483D01*
X209165000Y-109263475D01*
X209169281Y-109220006D01*
X209165000Y-109176537D01*
X209165000Y-104593818D01*
X209170535Y-104590120D01*
X209365120Y-104395535D01*
X209518005Y-104166727D01*
X209550000Y-104089485D01*
X209581995Y-104166727D01*
X209734880Y-104395535D01*
X209929465Y-104590120D01*
X210158273Y-104743005D01*
X210412510Y-104848314D01*
X210682408Y-104902000D01*
X210957592Y-104902000D01*
X211227490Y-104848314D01*
X211481727Y-104743005D01*
X211710535Y-104590120D01*
X211905120Y-104395535D01*
X212058005Y-104166727D01*
X212090000Y-104089485D01*
X212121995Y-104166727D01*
X212274880Y-104395535D01*
X212469465Y-104590120D01*
X212698273Y-104743005D01*
X212952510Y-104848314D01*
X213222408Y-104902000D01*
X213497592Y-104902000D01*
X213767490Y-104848314D01*
X214021727Y-104743005D01*
X214250535Y-104590120D01*
X214445120Y-104395535D01*
X214598005Y-104166727D01*
X214630000Y-104089485D01*
X214661995Y-104166727D01*
X214814880Y-104395535D01*
X215009465Y-104590120D01*
X215238273Y-104743005D01*
X215492510Y-104848314D01*
X215762408Y-104902000D01*
X216037592Y-104902000D01*
X216307490Y-104848314D01*
X216561727Y-104743005D01*
X216790535Y-104590120D01*
X216985120Y-104395535D01*
X217138005Y-104166727D01*
X217170000Y-104089485D01*
X217201995Y-104166727D01*
X217354880Y-104395535D01*
X217549465Y-104590120D01*
X217555000Y-104593818D01*
X217555001Y-109488366D01*
X215147178Y-111896189D01*
X214933879Y-111938617D01*
X214727322Y-112024176D01*
X214541426Y-112148388D01*
X214383334Y-112306480D01*
X214259122Y-112492376D01*
X214173563Y-112698933D01*
X214129946Y-112918212D01*
X214129946Y-113141788D01*
X214173563Y-113361067D01*
X214259122Y-113567624D01*
X214383334Y-113753520D01*
X214541426Y-113911612D01*
X214727322Y-114035824D01*
X214933879Y-114121383D01*
X215153158Y-114165000D01*
X215376734Y-114165000D01*
X215596013Y-114121383D01*
X215802570Y-114035824D01*
X215988466Y-113911612D01*
X216146558Y-113753520D01*
X216270770Y-113567624D01*
X216356329Y-113361067D01*
X216398757Y-113147768D01*
X219035049Y-110511476D01*
X219068817Y-110483763D01*
X219179411Y-110349005D01*
X219261589Y-110195259D01*
X219312195Y-110028436D01*
X219325000Y-109898423D01*
X219325000Y-109898413D01*
X219329281Y-109854947D01*
X219325000Y-109811481D01*
X219325000Y-104593818D01*
X219330535Y-104590120D01*
X219525120Y-104395535D01*
X219583920Y-104307535D01*
X219592188Y-104391482D01*
X219628498Y-104511180D01*
X219687463Y-104621494D01*
X219766815Y-104718185D01*
X219863506Y-104797537D01*
X219973820Y-104856502D01*
X220093518Y-104892812D01*
X220218000Y-104905072D01*
X220694250Y-104902000D01*
X220853000Y-104743250D01*
X220853000Y-103632000D01*
X220833000Y-103632000D01*
X220833000Y-103378000D01*
X220853000Y-103378000D01*
X220853000Y-102266750D01*
X220821250Y-102235000D01*
X220853000Y-102203250D01*
X220853000Y-101092000D01*
X220833000Y-101092000D01*
X220833000Y-100838000D01*
X220853000Y-100838000D01*
X220853000Y-99726750D01*
X221107000Y-99726750D01*
X221107000Y-100838000D01*
X221127000Y-100838000D01*
X221127000Y-101092000D01*
X221107000Y-101092000D01*
X221107000Y-102203250D01*
X221138750Y-102235000D01*
X221107000Y-102266750D01*
X221107000Y-103378000D01*
X221127000Y-103378000D01*
X221127000Y-103632000D01*
X221107000Y-103632000D01*
X221107000Y-104743250D01*
X221265750Y-104902000D01*
X221742000Y-104905072D01*
X221866482Y-104892812D01*
X221986180Y-104856502D01*
X222096494Y-104797537D01*
X222193185Y-104718185D01*
X222272537Y-104621494D01*
X222331502Y-104511180D01*
X222367812Y-104391482D01*
X222376080Y-104307535D01*
X222434880Y-104395535D01*
X222629465Y-104590120D01*
X222858273Y-104743005D01*
X223112510Y-104848314D01*
X223382408Y-104902000D01*
X223657592Y-104902000D01*
X223927490Y-104848314D01*
X224181727Y-104743005D01*
X224410535Y-104590120D01*
X224605120Y-104395535D01*
X224758005Y-104166727D01*
X224790000Y-104089485D01*
X224821995Y-104166727D01*
X224974880Y-104395535D01*
X225169465Y-104590120D01*
X225398273Y-104743005D01*
X225652510Y-104848314D01*
X225922408Y-104902000D01*
X226197592Y-104902000D01*
X226467490Y-104848314D01*
X226721727Y-104743005D01*
X226950535Y-104590120D01*
X227145120Y-104395535D01*
X227298005Y-104166727D01*
X227330000Y-104089485D01*
X227361995Y-104166727D01*
X227514880Y-104395535D01*
X227709465Y-104590120D01*
X227938273Y-104743005D01*
X228192510Y-104848314D01*
X228462408Y-104902000D01*
X228737592Y-104902000D01*
X229007490Y-104848314D01*
X229261727Y-104743005D01*
X229490535Y-104590120D01*
X229685120Y-104395535D01*
X229838005Y-104166727D01*
X229870000Y-104089485D01*
X229901995Y-104166727D01*
X230054880Y-104395535D01*
X230249465Y-104590120D01*
X230478273Y-104743005D01*
X230732510Y-104848314D01*
X231002408Y-104902000D01*
X231277592Y-104902000D01*
X231547490Y-104848314D01*
X231801727Y-104743005D01*
X232030535Y-104590120D01*
X232225120Y-104395535D01*
X232378005Y-104166727D01*
X232410000Y-104089485D01*
X232441995Y-104166727D01*
X232594880Y-104395535D01*
X232789465Y-104590120D01*
X233018273Y-104743005D01*
X233272510Y-104848314D01*
X233542408Y-104902000D01*
X233817592Y-104902000D01*
X234087490Y-104848314D01*
X234341727Y-104743005D01*
X234570535Y-104590120D01*
X234765120Y-104395535D01*
X234918005Y-104166727D01*
X234950000Y-104089485D01*
X234981995Y-104166727D01*
X235134880Y-104395535D01*
X235329465Y-104590120D01*
X235558273Y-104743005D01*
X235812510Y-104848314D01*
X236082408Y-104902000D01*
X236357592Y-104902000D01*
X236627490Y-104848314D01*
X236881727Y-104743005D01*
X237110535Y-104590120D01*
X237305120Y-104395535D01*
X237458005Y-104166727D01*
X237490000Y-104089485D01*
X237521995Y-104166727D01*
X237674880Y-104395535D01*
X237869465Y-104590120D01*
X238098273Y-104743005D01*
X238352510Y-104848314D01*
X238622408Y-104902000D01*
X238897592Y-104902000D01*
X239167490Y-104848314D01*
X239421727Y-104743005D01*
X239650535Y-104590120D01*
X239845120Y-104395535D01*
X239998005Y-104166727D01*
X240030000Y-104089485D01*
X240061995Y-104166727D01*
X240214880Y-104395535D01*
X240409465Y-104590120D01*
X240638273Y-104743005D01*
X240892510Y-104848314D01*
X241162408Y-104902000D01*
X241437592Y-104902000D01*
X241707490Y-104848314D01*
X241961727Y-104743005D01*
X242190535Y-104590120D01*
X242385120Y-104395535D01*
X242538005Y-104166727D01*
X242570000Y-104089485D01*
X242601995Y-104166727D01*
X242754880Y-104395535D01*
X242949465Y-104590120D01*
X243178273Y-104743005D01*
X243432510Y-104848314D01*
X243702408Y-104902000D01*
X243977592Y-104902000D01*
X244247490Y-104848314D01*
X244501727Y-104743005D01*
X244730535Y-104590120D01*
X244925120Y-104395535D01*
X245078005Y-104166727D01*
X245110000Y-104089485D01*
X245141995Y-104166727D01*
X245294880Y-104395535D01*
X245489465Y-104590120D01*
X245718273Y-104743005D01*
X245972510Y-104848314D01*
X246242408Y-104902000D01*
X246517592Y-104902000D01*
X246787490Y-104848314D01*
X247041727Y-104743005D01*
X247270535Y-104590120D01*
X247465120Y-104395535D01*
X247618005Y-104166727D01*
X247650000Y-104089485D01*
X247681995Y-104166727D01*
X247834880Y-104395535D01*
X248029465Y-104590120D01*
X248258273Y-104743005D01*
X248512510Y-104848314D01*
X248782408Y-104902000D01*
X249057592Y-104902000D01*
X249327490Y-104848314D01*
X249581727Y-104743005D01*
X249810535Y-104590120D01*
X250005120Y-104395535D01*
X250158005Y-104166727D01*
X250190000Y-104089485D01*
X250221995Y-104166727D01*
X250374880Y-104395535D01*
X250569465Y-104590120D01*
X250798273Y-104743005D01*
X251052510Y-104848314D01*
X251322408Y-104902000D01*
X251597592Y-104902000D01*
X251867490Y-104848314D01*
X252121727Y-104743005D01*
X252350535Y-104590120D01*
X252545120Y-104395535D01*
X252698005Y-104166727D01*
X252803314Y-103912490D01*
X252857000Y-103642592D01*
X252857000Y-103367408D01*
X252803314Y-103097510D01*
X252698005Y-102843273D01*
X252545120Y-102614465D01*
X252350535Y-102419880D01*
X252121727Y-102266995D01*
X252044485Y-102235000D01*
X252121727Y-102203005D01*
X252350535Y-102050120D01*
X252545120Y-101855535D01*
X252698005Y-101626727D01*
X252803314Y-101372490D01*
X252857000Y-101102592D01*
X252857000Y-100827408D01*
X252803314Y-100557510D01*
X252698005Y-100303273D01*
X252545120Y-100074465D01*
X252350535Y-99879880D01*
X252121727Y-99726995D01*
X251867490Y-99621686D01*
X251597592Y-99568000D01*
X251322408Y-99568000D01*
X251052510Y-99621686D01*
X250798273Y-99726995D01*
X250569465Y-99879880D01*
X250374880Y-100074465D01*
X250221995Y-100303273D01*
X250190000Y-100380515D01*
X250158005Y-100303273D01*
X250005120Y-100074465D01*
X249810535Y-99879880D01*
X249581727Y-99726995D01*
X249327490Y-99621686D01*
X249057592Y-99568000D01*
X248782408Y-99568000D01*
X248512510Y-99621686D01*
X248258273Y-99726995D01*
X248029465Y-99879880D01*
X247834880Y-100074465D01*
X247681995Y-100303273D01*
X247650000Y-100380515D01*
X247618005Y-100303273D01*
X247465120Y-100074465D01*
X247270535Y-99879880D01*
X247041727Y-99726995D01*
X246787490Y-99621686D01*
X246517592Y-99568000D01*
X246242408Y-99568000D01*
X245972510Y-99621686D01*
X245718273Y-99726995D01*
X245489465Y-99879880D01*
X245294880Y-100074465D01*
X245141995Y-100303273D01*
X245110000Y-100380515D01*
X245078005Y-100303273D01*
X244925120Y-100074465D01*
X244730535Y-99879880D01*
X244501727Y-99726995D01*
X244247490Y-99621686D01*
X243977592Y-99568000D01*
X243702408Y-99568000D01*
X243432510Y-99621686D01*
X243178273Y-99726995D01*
X242949465Y-99879880D01*
X242754880Y-100074465D01*
X242601995Y-100303273D01*
X242570000Y-100380515D01*
X242538005Y-100303273D01*
X242385120Y-100074465D01*
X242190535Y-99879880D01*
X241961727Y-99726995D01*
X241707490Y-99621686D01*
X241437592Y-99568000D01*
X241162408Y-99568000D01*
X240892510Y-99621686D01*
X240638273Y-99726995D01*
X240409465Y-99879880D01*
X240214880Y-100074465D01*
X240061995Y-100303273D01*
X240030000Y-100380515D01*
X239998005Y-100303273D01*
X239845120Y-100074465D01*
X239650535Y-99879880D01*
X239421727Y-99726995D01*
X239167490Y-99621686D01*
X238897592Y-99568000D01*
X238622408Y-99568000D01*
X238352510Y-99621686D01*
X238098273Y-99726995D01*
X237869465Y-99879880D01*
X237674880Y-100074465D01*
X237521995Y-100303273D01*
X237490000Y-100380515D01*
X237458005Y-100303273D01*
X237305120Y-100074465D01*
X237110535Y-99879880D01*
X236881727Y-99726995D01*
X236627490Y-99621686D01*
X236357592Y-99568000D01*
X236082408Y-99568000D01*
X235812510Y-99621686D01*
X235558273Y-99726995D01*
X235329465Y-99879880D01*
X235134880Y-100074465D01*
X234981995Y-100303273D01*
X234950000Y-100380515D01*
X234918005Y-100303273D01*
X234765120Y-100074465D01*
X234570535Y-99879880D01*
X234341727Y-99726995D01*
X234087490Y-99621686D01*
X233817592Y-99568000D01*
X233542408Y-99568000D01*
X233272510Y-99621686D01*
X233018273Y-99726995D01*
X232789465Y-99879880D01*
X232594880Y-100074465D01*
X232441995Y-100303273D01*
X232410000Y-100380515D01*
X232378005Y-100303273D01*
X232225120Y-100074465D01*
X232030535Y-99879880D01*
X231801727Y-99726995D01*
X231547490Y-99621686D01*
X231277592Y-99568000D01*
X231002408Y-99568000D01*
X230732510Y-99621686D01*
X230478273Y-99726995D01*
X230249465Y-99879880D01*
X230054880Y-100074465D01*
X229901995Y-100303273D01*
X229870000Y-100380515D01*
X229838005Y-100303273D01*
X229685120Y-100074465D01*
X229490535Y-99879880D01*
X229261727Y-99726995D01*
X229007490Y-99621686D01*
X228737592Y-99568000D01*
X228462408Y-99568000D01*
X228192510Y-99621686D01*
X227938273Y-99726995D01*
X227709465Y-99879880D01*
X227514880Y-100074465D01*
X227361995Y-100303273D01*
X227330000Y-100380515D01*
X227298005Y-100303273D01*
X227145120Y-100074465D01*
X226950535Y-99879880D01*
X226721727Y-99726995D01*
X226467490Y-99621686D01*
X226197592Y-99568000D01*
X225922408Y-99568000D01*
X225652510Y-99621686D01*
X225398273Y-99726995D01*
X225169465Y-99879880D01*
X224974880Y-100074465D01*
X224821995Y-100303273D01*
X224790000Y-100380515D01*
X224758005Y-100303273D01*
X224605120Y-100074465D01*
X224410535Y-99879880D01*
X224181727Y-99726995D01*
X223927490Y-99621686D01*
X223657592Y-99568000D01*
X223382408Y-99568000D01*
X223112510Y-99621686D01*
X222858273Y-99726995D01*
X222629465Y-99879880D01*
X222434880Y-100074465D01*
X222376080Y-100162465D01*
X222367812Y-100078518D01*
X222331502Y-99958820D01*
X222272537Y-99848506D01*
X222193185Y-99751815D01*
X222096494Y-99672463D01*
X221986180Y-99613498D01*
X221866482Y-99577188D01*
X221742000Y-99564928D01*
X221265750Y-99568000D01*
X221107000Y-99726750D01*
X220853000Y-99726750D01*
X220694250Y-99568000D01*
X220218000Y-99564928D01*
X220093518Y-99577188D01*
X219973820Y-99613498D01*
X219863506Y-99672463D01*
X219766815Y-99751815D01*
X219687463Y-99848506D01*
X219628498Y-99958820D01*
X219592188Y-100078518D01*
X219583920Y-100162465D01*
X219525120Y-100074465D01*
X219330535Y-99879880D01*
X219101727Y-99726995D01*
X218847490Y-99621686D01*
X218577592Y-99568000D01*
X218302408Y-99568000D01*
X218032510Y-99621686D01*
X217778273Y-99726995D01*
X217549465Y-99879880D01*
X217354880Y-100074465D01*
X217201995Y-100303273D01*
X217170000Y-100380515D01*
X217138005Y-100303273D01*
X216985120Y-100074465D01*
X216790535Y-99879880D01*
X216561727Y-99726995D01*
X216307490Y-99621686D01*
X216037592Y-99568000D01*
X215762408Y-99568000D01*
X215492510Y-99621686D01*
X215238273Y-99726995D01*
X215009465Y-99879880D01*
X214814880Y-100074465D01*
X214661995Y-100303273D01*
X214630000Y-100380515D01*
X214598005Y-100303273D01*
X214445120Y-100074465D01*
X214250535Y-99879880D01*
X214021727Y-99726995D01*
X213767490Y-99621686D01*
X213497592Y-99568000D01*
X213222408Y-99568000D01*
X212952510Y-99621686D01*
X212698273Y-99726995D01*
X212469465Y-99879880D01*
X212274880Y-100074465D01*
X212121995Y-100303273D01*
X212090000Y-100380515D01*
X212058005Y-100303273D01*
X211905120Y-100074465D01*
X211710535Y-99879880D01*
X211481727Y-99726995D01*
X211227490Y-99621686D01*
X210957592Y-99568000D01*
X210682408Y-99568000D01*
X210412510Y-99621686D01*
X210158273Y-99726995D01*
X209929465Y-99879880D01*
X209734880Y-100074465D01*
X209581995Y-100303273D01*
X209550000Y-100380515D01*
X209518005Y-100303273D01*
X209365120Y-100074465D01*
X209170535Y-99879880D01*
X208941727Y-99726995D01*
X208687490Y-99621686D01*
X208417592Y-99568000D01*
X208142408Y-99568000D01*
X207872510Y-99621686D01*
X207618273Y-99726995D01*
X207389465Y-99879880D01*
X207194880Y-100074465D01*
X207136080Y-100162465D01*
X207127812Y-100078518D01*
X207091502Y-99958820D01*
X207032537Y-99848506D01*
X206953185Y-99751815D01*
X206856494Y-99672463D01*
X206746180Y-99613498D01*
X206626482Y-99577188D01*
X206502000Y-99564928D01*
X206025750Y-99568000D01*
X205867000Y-99726750D01*
X205613000Y-99726750D01*
X205454250Y-99568000D01*
X204978000Y-99564928D01*
X204853518Y-99577188D01*
X204733820Y-99613498D01*
X204623506Y-99672463D01*
X204526815Y-99751815D01*
X204447463Y-99848506D01*
X204388498Y-99958820D01*
X204352188Y-100078518D01*
X204339928Y-100203000D01*
X204335000Y-100203000D01*
X204335000Y-97315881D01*
X246398724Y-97315881D01*
X246758912Y-97805548D01*
X247422882Y-98165849D01*
X248144385Y-98389694D01*
X248895695Y-98468480D01*
X249647938Y-98399178D01*
X250372208Y-98184452D01*
X251040670Y-97832555D01*
X251081088Y-97805548D01*
X251441276Y-97315881D01*
X248920000Y-94794605D01*
X246398724Y-97315881D01*
X204335000Y-97315881D01*
X204335000Y-94310107D01*
X204353475Y-94291632D01*
X204515990Y-94048411D01*
X204627932Y-93778158D01*
X204685000Y-93491260D01*
X204685000Y-93203665D01*
X206845000Y-93203665D01*
X206845000Y-93486335D01*
X206900147Y-93763574D01*
X207008320Y-94024727D01*
X207165363Y-94259759D01*
X207365241Y-94459637D01*
X207600273Y-94616680D01*
X207861426Y-94724853D01*
X208138665Y-94780000D01*
X208421335Y-94780000D01*
X208698574Y-94724853D01*
X208959727Y-94616680D01*
X209194759Y-94459637D01*
X209394637Y-94259759D01*
X209551680Y-94024727D01*
X209659853Y-93763574D01*
X209673684Y-93694039D01*
X217048096Y-93694039D01*
X217088754Y-93828087D01*
X217208963Y-94082420D01*
X217376481Y-94308414D01*
X217584869Y-94497385D01*
X217826119Y-94642070D01*
X218090960Y-94736909D01*
X218313000Y-94615624D01*
X218313000Y-93472000D01*
X218567000Y-93472000D01*
X218567000Y-94615624D01*
X218789040Y-94736909D01*
X219053881Y-94642070D01*
X219295131Y-94497385D01*
X219503519Y-94308414D01*
X219671037Y-94082420D01*
X219791246Y-93828087D01*
X219831904Y-93694039D01*
X219709915Y-93472000D01*
X218567000Y-93472000D01*
X218313000Y-93472000D01*
X217170085Y-93472000D01*
X217048096Y-93694039D01*
X209673684Y-93694039D01*
X209715000Y-93486335D01*
X209715000Y-93203665D01*
X209673685Y-92995961D01*
X217048096Y-92995961D01*
X217170085Y-93218000D01*
X218313000Y-93218000D01*
X218313000Y-92074376D01*
X218567000Y-92074376D01*
X218567000Y-93218000D01*
X219709915Y-93218000D01*
X219831904Y-92995961D01*
X219791246Y-92861913D01*
X219671037Y-92607580D01*
X219587588Y-92495000D01*
X239811928Y-92495000D01*
X239811928Y-94195000D01*
X239824188Y-94319482D01*
X239860498Y-94439180D01*
X239919463Y-94549494D01*
X239998815Y-94646185D01*
X240095506Y-94725537D01*
X240205820Y-94784502D01*
X240325518Y-94820812D01*
X240450000Y-94833072D01*
X242150000Y-94833072D01*
X242274482Y-94820812D01*
X242394180Y-94784502D01*
X242504494Y-94725537D01*
X242601185Y-94646185D01*
X242646724Y-94590695D01*
X245066520Y-94590695D01*
X245135822Y-95342938D01*
X245350548Y-96067208D01*
X245702445Y-96735670D01*
X245729452Y-96776088D01*
X246219119Y-97136276D01*
X248740395Y-94615000D01*
X249099605Y-94615000D01*
X251620881Y-97136276D01*
X252110548Y-96776088D01*
X252470849Y-96112118D01*
X252694694Y-95390615D01*
X252773480Y-94639305D01*
X252704178Y-93887062D01*
X252489452Y-93162792D01*
X252137555Y-92494330D01*
X252110548Y-92453912D01*
X251620881Y-92093724D01*
X249099605Y-94615000D01*
X248740395Y-94615000D01*
X246219119Y-92093724D01*
X245729452Y-92453912D01*
X245369151Y-93117882D01*
X245145306Y-93839385D01*
X245066520Y-94590695D01*
X242646724Y-94590695D01*
X242680537Y-94549494D01*
X242739502Y-94439180D01*
X242775812Y-94319482D01*
X242788072Y-94195000D01*
X242788072Y-92495000D01*
X242775812Y-92370518D01*
X242739502Y-92250820D01*
X242680537Y-92140506D01*
X242601185Y-92043815D01*
X242504494Y-91964463D01*
X242410309Y-91914119D01*
X246398724Y-91914119D01*
X248920000Y-94435395D01*
X251441276Y-91914119D01*
X251081088Y-91424452D01*
X250417118Y-91064151D01*
X249695615Y-90840306D01*
X248944305Y-90761520D01*
X248192062Y-90830822D01*
X247467792Y-91045548D01*
X246799330Y-91397445D01*
X246758912Y-91424452D01*
X246398724Y-91914119D01*
X242410309Y-91914119D01*
X242394180Y-91905498D01*
X242274482Y-91869188D01*
X242150000Y-91856928D01*
X240450000Y-91856928D01*
X240325518Y-91869188D01*
X240205820Y-91905498D01*
X240095506Y-91964463D01*
X239998815Y-92043815D01*
X239919463Y-92140506D01*
X239860498Y-92250820D01*
X239824188Y-92370518D01*
X239811928Y-92495000D01*
X219587588Y-92495000D01*
X219503519Y-92381586D01*
X219295131Y-92192615D01*
X219053881Y-92047930D01*
X218789040Y-91953091D01*
X218567000Y-92074376D01*
X218313000Y-92074376D01*
X218090960Y-91953091D01*
X217826119Y-92047930D01*
X217584869Y-92192615D01*
X217376481Y-92381586D01*
X217208963Y-92607580D01*
X217088754Y-92861913D01*
X217048096Y-92995961D01*
X209673685Y-92995961D01*
X209659853Y-92926426D01*
X209551680Y-92665273D01*
X209394637Y-92430241D01*
X209194759Y-92230363D01*
X208959727Y-92073320D01*
X208698574Y-91965147D01*
X208421335Y-91910000D01*
X208138665Y-91910000D01*
X207861426Y-91965147D01*
X207600273Y-92073320D01*
X207365241Y-92230363D01*
X207165363Y-92430241D01*
X207008320Y-92665273D01*
X206900147Y-92926426D01*
X206845000Y-93203665D01*
X204685000Y-93203665D01*
X204685000Y-93198740D01*
X204627932Y-92911842D01*
X204515990Y-92641589D01*
X204353475Y-92398368D01*
X204146632Y-92191525D01*
X203903411Y-92029010D01*
X203633158Y-91917068D01*
X203346260Y-91860000D01*
X203053740Y-91860000D01*
X202766842Y-91917068D01*
X202496589Y-92029010D01*
X202253368Y-92191525D01*
X202121513Y-92323380D01*
X202099502Y-92250820D01*
X202040537Y-92140506D01*
X201961185Y-92043815D01*
X201864494Y-91964463D01*
X201754180Y-91905498D01*
X201634482Y-91869188D01*
X201510000Y-91856928D01*
X199810000Y-91856928D01*
X199685518Y-91869188D01*
X199565820Y-91905498D01*
X199455506Y-91964463D01*
X199358815Y-92043815D01*
X199279463Y-92140506D01*
X199220498Y-92250820D01*
X199184188Y-92370518D01*
X199171928Y-92495000D01*
X193075395Y-92495000D01*
X193253792Y-92316603D01*
X193176157Y-92067528D01*
X192912117Y-91941629D01*
X192628589Y-91869661D01*
X192336469Y-91854389D01*
X192046981Y-91896401D01*
X191771253Y-91994081D01*
X191633843Y-92067528D01*
X191556208Y-92316603D01*
X190936710Y-92316603D01*
X190811632Y-92191525D01*
X190568411Y-92029010D01*
X190298158Y-91917068D01*
X190011260Y-91860000D01*
X189718740Y-91860000D01*
X189431842Y-91917068D01*
X189161589Y-92029010D01*
X188918368Y-92191525D01*
X188711525Y-92398368D01*
X188595000Y-92572760D01*
X188478475Y-92398368D01*
X188271632Y-92191525D01*
X188028411Y-92029010D01*
X187758158Y-91917068D01*
X187471260Y-91860000D01*
X187178740Y-91860000D01*
X186891842Y-91917068D01*
X186621589Y-92029010D01*
X186378368Y-92191525D01*
X186171525Y-92398368D01*
X186055000Y-92572760D01*
X185938475Y-92398368D01*
X185731632Y-92191525D01*
X185488411Y-92029010D01*
X185218158Y-91917068D01*
X184931260Y-91860000D01*
X184638740Y-91860000D01*
X184351842Y-91917068D01*
X184081589Y-92029010D01*
X183838368Y-92191525D01*
X183631525Y-92398368D01*
X183515000Y-92572760D01*
X183398475Y-92398368D01*
X183191632Y-92191525D01*
X182948411Y-92029010D01*
X182678158Y-91917068D01*
X182391260Y-91860000D01*
X182098740Y-91860000D01*
X181811842Y-91917068D01*
X181541589Y-92029010D01*
X181298368Y-92191525D01*
X181091525Y-92398368D01*
X180975000Y-92572760D01*
X180858475Y-92398368D01*
X180651632Y-92191525D01*
X180408411Y-92029010D01*
X180138158Y-91917068D01*
X179851260Y-91860000D01*
X179558740Y-91860000D01*
X179271842Y-91917068D01*
X179001589Y-92029010D01*
X178758368Y-92191525D01*
X178551525Y-92398368D01*
X178435000Y-92572760D01*
X178318475Y-92398368D01*
X178111632Y-92191525D01*
X177868411Y-92029010D01*
X177598158Y-91917068D01*
X177311260Y-91860000D01*
X177018740Y-91860000D01*
X176731842Y-91917068D01*
X176461589Y-92029010D01*
X176218368Y-92191525D01*
X176011525Y-92398368D01*
X175895000Y-92572760D01*
X175778475Y-92398368D01*
X175571632Y-92191525D01*
X175328411Y-92029010D01*
X175058158Y-91917068D01*
X174771260Y-91860000D01*
X174478740Y-91860000D01*
X174191842Y-91917068D01*
X173921589Y-92029010D01*
X173678368Y-92191525D01*
X173471525Y-92398368D01*
X173355000Y-92572760D01*
X173238475Y-92398368D01*
X173031632Y-92191525D01*
X172788411Y-92029010D01*
X172518158Y-91917068D01*
X172231260Y-91860000D01*
X171938740Y-91860000D01*
X171651842Y-91917068D01*
X171381589Y-92029010D01*
X171138368Y-92191525D01*
X170931525Y-92398368D01*
X170815000Y-92572760D01*
X170698475Y-92398368D01*
X170491632Y-92191525D01*
X170248411Y-92029010D01*
X169978158Y-91917068D01*
X169691260Y-91860000D01*
X169398740Y-91860000D01*
X169111842Y-91917068D01*
X168841589Y-92029010D01*
X168598368Y-92191525D01*
X168391525Y-92398368D01*
X168229010Y-92641589D01*
X168117068Y-92911842D01*
X168060000Y-93198740D01*
X168060000Y-93491260D01*
X168117068Y-93778158D01*
X168229010Y-94048411D01*
X168391525Y-94291632D01*
X168523380Y-94423487D01*
X168450820Y-94445498D01*
X168340506Y-94504463D01*
X168243815Y-94583815D01*
X168164463Y-94680506D01*
X168105498Y-94790820D01*
X168069188Y-94910518D01*
X168056928Y-95035000D01*
X163831985Y-95035000D01*
X163873480Y-94639305D01*
X163804178Y-93887062D01*
X163589452Y-93162792D01*
X163237555Y-92494330D01*
X163210548Y-92453912D01*
X162720881Y-92093724D01*
X160199605Y-94615000D01*
X159840395Y-94615000D01*
X159826253Y-94600858D01*
X160005858Y-94421253D01*
X160020000Y-94435395D01*
X162541276Y-91914119D01*
X162181088Y-91424452D01*
X161517118Y-91064151D01*
X160795615Y-90840306D01*
X160044305Y-90761520D01*
X159292062Y-90830822D01*
X158908987Y-90944393D01*
X159658380Y-90195000D01*
X253340000Y-90195000D01*
X253340001Y-152375000D01*
G04 #@! TA.AperFunction,Conductor*
D37*
G36*
X253340001Y-152375000D02*
G01*
X239877870Y-152375000D01*
X239875000Y-151240750D01*
X239716250Y-151082000D01*
X237617000Y-151082000D01*
X237617000Y-151102000D01*
X237363000Y-151102000D01*
X237363000Y-151082000D01*
X235263750Y-151082000D01*
X235105000Y-151240750D01*
X235102130Y-152375000D01*
X155600000Y-152375000D01*
X155600000Y-150655881D01*
X157498724Y-150655881D01*
X157858912Y-151145548D01*
X158522882Y-151505849D01*
X159244385Y-151729694D01*
X159995695Y-151808480D01*
X160747938Y-151739178D01*
X161472208Y-151524452D01*
X161618001Y-151447702D01*
X192861903Y-151447702D01*
X192933486Y-151691671D01*
X193188996Y-151812571D01*
X193463184Y-151881300D01*
X193745512Y-151895217D01*
X194025130Y-151853787D01*
X194291292Y-151758603D01*
X194416514Y-151691671D01*
X194488097Y-151447702D01*
X193675000Y-150634605D01*
X192861903Y-151447702D01*
X161618001Y-151447702D01*
X162140670Y-151172555D01*
X162181088Y-151145548D01*
X162541276Y-150655881D01*
X160020000Y-148134605D01*
X157498724Y-150655881D01*
X155600000Y-150655881D01*
X155600000Y-147930695D01*
X156166520Y-147930695D01*
X156235822Y-148682938D01*
X156450548Y-149407208D01*
X156802445Y-150075670D01*
X156829452Y-150116088D01*
X157319119Y-150476276D01*
X159840395Y-147955000D01*
X160199605Y-147955000D01*
X162720881Y-150476276D01*
X163210548Y-150116088D01*
X163479139Y-149621123D01*
X165950821Y-149621123D01*
X166060558Y-149943054D01*
X166230992Y-150237391D01*
X166455573Y-150492822D01*
X166725671Y-150699531D01*
X167030906Y-150849575D01*
X167243878Y-150914175D01*
X167513000Y-150796125D01*
X167513000Y-149352000D01*
X167767000Y-149352000D01*
X167767000Y-150796125D01*
X168036122Y-150914175D01*
X168249094Y-150849575D01*
X168554329Y-150699531D01*
X168781712Y-150525512D01*
X192234783Y-150525512D01*
X192276213Y-150805130D01*
X192371397Y-151071292D01*
X192438329Y-151196514D01*
X192682298Y-151268097D01*
X193495395Y-150455000D01*
X193854605Y-150455000D01*
X194667702Y-151268097D01*
X194911671Y-151196514D01*
X195032571Y-150941004D01*
X195101300Y-150666816D01*
X195115217Y-150384488D01*
X195073787Y-150104870D01*
X194978603Y-149838708D01*
X194911671Y-149713486D01*
X194667702Y-149641903D01*
X193854605Y-150455000D01*
X193495395Y-150455000D01*
X192682298Y-149641903D01*
X192438329Y-149713486D01*
X192317429Y-149968996D01*
X192248700Y-150243184D01*
X192234783Y-150525512D01*
X168781712Y-150525512D01*
X168824427Y-150492822D01*
X169049008Y-150237391D01*
X169219442Y-149943054D01*
X169329179Y-149621123D01*
X169211600Y-149352000D01*
X167767000Y-149352000D01*
X167513000Y-149352000D01*
X166068400Y-149352000D01*
X165950821Y-149621123D01*
X163479139Y-149621123D01*
X163570849Y-149452118D01*
X163764208Y-148828877D01*
X165950821Y-148828877D01*
X166068400Y-149098000D01*
X167513000Y-149098000D01*
X167513000Y-147653875D01*
X167767000Y-147653875D01*
X167767000Y-149098000D01*
X169211600Y-149098000D01*
X169329179Y-148828877D01*
X169219442Y-148506946D01*
X169049008Y-148212609D01*
X168824427Y-147957178D01*
X168554329Y-147750469D01*
X168406299Y-147677702D01*
X173176903Y-147677702D01*
X173248486Y-147921671D01*
X173503996Y-148042571D01*
X173778184Y-148111300D01*
X174060512Y-148125217D01*
X174340130Y-148083787D01*
X174606292Y-147988603D01*
X174731514Y-147921671D01*
X174803097Y-147677702D01*
X173990000Y-146864605D01*
X173176903Y-147677702D01*
X168406299Y-147677702D01*
X168249094Y-147600425D01*
X168036122Y-147535825D01*
X167767000Y-147653875D01*
X167513000Y-147653875D01*
X167243878Y-147535825D01*
X167030906Y-147600425D01*
X166725671Y-147750469D01*
X166455573Y-147957178D01*
X166230992Y-148212609D01*
X166060558Y-148506946D01*
X165950821Y-148828877D01*
X163764208Y-148828877D01*
X163794694Y-148730615D01*
X163873480Y-147979305D01*
X163804178Y-147227062D01*
X163664377Y-146755512D01*
X172549783Y-146755512D01*
X172591213Y-147035130D01*
X172686397Y-147301292D01*
X172753329Y-147426514D01*
X172997298Y-147498097D01*
X173810395Y-146685000D01*
X174169605Y-146685000D01*
X174982702Y-147498097D01*
X175226671Y-147426514D01*
X175347571Y-147171004D01*
X175416300Y-146896816D01*
X175430217Y-146614488D01*
X175388787Y-146334870D01*
X175293603Y-146068708D01*
X175226671Y-145943486D01*
X174982702Y-145871903D01*
X174169605Y-146685000D01*
X173810395Y-146685000D01*
X172997298Y-145871903D01*
X172753329Y-145943486D01*
X172632429Y-146198996D01*
X172563700Y-146473184D01*
X172549783Y-146755512D01*
X163664377Y-146755512D01*
X163589452Y-146502792D01*
X163237555Y-145834330D01*
X163210548Y-145793912D01*
X162720881Y-145433724D01*
X160199605Y-147955000D01*
X159840395Y-147955000D01*
X157319119Y-145433724D01*
X156829452Y-145793912D01*
X156469151Y-146457882D01*
X156245306Y-147179385D01*
X156166520Y-147930695D01*
X155600000Y-147930695D01*
X155600000Y-145254119D01*
X157498724Y-145254119D01*
X160020000Y-147775395D01*
X162541276Y-145254119D01*
X162181088Y-144764452D01*
X161517118Y-144404151D01*
X160795615Y-144180306D01*
X160044305Y-144101520D01*
X159292062Y-144170822D01*
X158567792Y-144385548D01*
X157899330Y-144737445D01*
X157858912Y-144764452D01*
X157498724Y-145254119D01*
X155600000Y-145254119D01*
X155600000Y-143385000D01*
X172551928Y-143385000D01*
X172551928Y-144985000D01*
X172564188Y-145109482D01*
X172600498Y-145229180D01*
X172659463Y-145339494D01*
X172738815Y-145436185D01*
X172835506Y-145515537D01*
X172945820Y-145574502D01*
X173065518Y-145610812D01*
X173190000Y-145623072D01*
X173197215Y-145623072D01*
X173176903Y-145692298D01*
X173990000Y-146505395D01*
X174635976Y-145859419D01*
X179755000Y-145859419D01*
X179755000Y-146240581D01*
X179829361Y-146614419D01*
X179975225Y-146966566D01*
X180186987Y-147283491D01*
X180456509Y-147553013D01*
X180773434Y-147764775D01*
X181125581Y-147910639D01*
X181499419Y-147985000D01*
X181880581Y-147985000D01*
X182254419Y-147910639D01*
X182606566Y-147764775D01*
X182923491Y-147553013D01*
X183193013Y-147283491D01*
X183404775Y-146966566D01*
X183550639Y-146614419D01*
X183625000Y-146240581D01*
X183625000Y-145859419D01*
X184755000Y-145859419D01*
X184755000Y-146240581D01*
X184829361Y-146614419D01*
X184975225Y-146966566D01*
X185186987Y-147283491D01*
X185456509Y-147553013D01*
X185773434Y-147764775D01*
X186125581Y-147910639D01*
X186499419Y-147985000D01*
X186880581Y-147985000D01*
X187254419Y-147910639D01*
X187606566Y-147764775D01*
X187923491Y-147553013D01*
X188193013Y-147283491D01*
X188278867Y-147155000D01*
X192236928Y-147155000D01*
X192236928Y-148755000D01*
X192249188Y-148879482D01*
X192285498Y-148999180D01*
X192344463Y-149109494D01*
X192423815Y-149206185D01*
X192520506Y-149285537D01*
X192630820Y-149344502D01*
X192750518Y-149380812D01*
X192875000Y-149393072D01*
X192882215Y-149393072D01*
X192861903Y-149462298D01*
X193675000Y-150275395D01*
X194488097Y-149462298D01*
X194467785Y-149393072D01*
X194475000Y-149393072D01*
X194599482Y-149380812D01*
X194719180Y-149344502D01*
X194829494Y-149285537D01*
X194926185Y-149206185D01*
X195005537Y-149109494D01*
X195063098Y-149001805D01*
X207761805Y-149001805D01*
X207834379Y-149241066D01*
X207994361Y-149563257D01*
X208214125Y-149848046D01*
X208485226Y-150084489D01*
X208797246Y-150263500D01*
X209138194Y-150378199D01*
X209423000Y-150261854D01*
X209423000Y-148717000D01*
X209677000Y-148717000D01*
X209677000Y-150261854D01*
X209961806Y-150378199D01*
X210302754Y-150263500D01*
X210452301Y-150177702D01*
X222706903Y-150177702D01*
X222778486Y-150421671D01*
X223033996Y-150542571D01*
X223308184Y-150611300D01*
X223590512Y-150625217D01*
X223870130Y-150583787D01*
X224136292Y-150488603D01*
X224261514Y-150421671D01*
X224333097Y-150177702D01*
X223520000Y-149364605D01*
X222706903Y-150177702D01*
X210452301Y-150177702D01*
X210614774Y-150084489D01*
X210885875Y-149848046D01*
X211105639Y-149563257D01*
X211258447Y-149255512D01*
X222079783Y-149255512D01*
X222121213Y-149535130D01*
X222216397Y-149801292D01*
X222283329Y-149926514D01*
X222527298Y-149998097D01*
X223340395Y-149185000D01*
X223699605Y-149185000D01*
X224512702Y-149998097D01*
X224756671Y-149926514D01*
X224877571Y-149671004D01*
X224946300Y-149396816D01*
X224960217Y-149114488D01*
X224952732Y-149063967D01*
X228235000Y-149063967D01*
X228235000Y-149386033D01*
X228297832Y-149701912D01*
X228421082Y-149999463D01*
X228600013Y-150267252D01*
X228827748Y-150494987D01*
X229095537Y-150673918D01*
X229393088Y-150797168D01*
X229708967Y-150860000D01*
X230031033Y-150860000D01*
X230346912Y-150797168D01*
X230644463Y-150673918D01*
X230912252Y-150494987D01*
X231139987Y-150267252D01*
X231318918Y-149999463D01*
X231442168Y-149701912D01*
X231491281Y-149455000D01*
X235101928Y-149455000D01*
X235105000Y-150669250D01*
X235263750Y-150828000D01*
X237363000Y-150828000D01*
X237363000Y-148978750D01*
X237617000Y-148978750D01*
X237617000Y-150828000D01*
X239716250Y-150828000D01*
X239875000Y-150669250D01*
X239875033Y-150655881D01*
X246398724Y-150655881D01*
X246758912Y-151145548D01*
X247422882Y-151505849D01*
X248144385Y-151729694D01*
X248895695Y-151808480D01*
X249647938Y-151739178D01*
X250372208Y-151524452D01*
X251040670Y-151172555D01*
X251081088Y-151145548D01*
X251441276Y-150655881D01*
X248920000Y-148134605D01*
X246398724Y-150655881D01*
X239875033Y-150655881D01*
X239878072Y-149455000D01*
X239865812Y-149330518D01*
X239829502Y-149210820D01*
X239770537Y-149100506D01*
X239691185Y-149003815D01*
X239594494Y-148924463D01*
X239484180Y-148865498D01*
X239364482Y-148829188D01*
X239240000Y-148816928D01*
X237775750Y-148820000D01*
X237617000Y-148978750D01*
X237363000Y-148978750D01*
X237204250Y-148820000D01*
X235740000Y-148816928D01*
X235615518Y-148829188D01*
X235495820Y-148865498D01*
X235385506Y-148924463D01*
X235288815Y-149003815D01*
X235209463Y-149100506D01*
X235150498Y-149210820D01*
X235114188Y-149330518D01*
X235101928Y-149455000D01*
X231491281Y-149455000D01*
X231505000Y-149386033D01*
X231505000Y-149063967D01*
X231442168Y-148748088D01*
X231318918Y-148450537D01*
X231139987Y-148182748D01*
X230912252Y-147955013D01*
X230644463Y-147776082D01*
X230346912Y-147652832D01*
X230031033Y-147590000D01*
X229708967Y-147590000D01*
X229393088Y-147652832D01*
X229095537Y-147776082D01*
X228827748Y-147955013D01*
X228600013Y-148182748D01*
X228421082Y-148450537D01*
X228297832Y-148748088D01*
X228235000Y-149063967D01*
X224952732Y-149063967D01*
X224918787Y-148834870D01*
X224823603Y-148568708D01*
X224756671Y-148443486D01*
X224512702Y-148371903D01*
X223699605Y-149185000D01*
X223340395Y-149185000D01*
X222527298Y-148371903D01*
X222283329Y-148443486D01*
X222162429Y-148698996D01*
X222093700Y-148973184D01*
X222079783Y-149255512D01*
X211258447Y-149255512D01*
X211265621Y-149241066D01*
X211338195Y-149001805D01*
X211221432Y-148717000D01*
X209677000Y-148717000D01*
X209423000Y-148717000D01*
X207878568Y-148717000D01*
X207761805Y-149001805D01*
X195063098Y-149001805D01*
X195064502Y-148999180D01*
X195100812Y-148879482D01*
X195113072Y-148755000D01*
X195113072Y-148178195D01*
X207761805Y-148178195D01*
X207878568Y-148463000D01*
X209423000Y-148463000D01*
X209423000Y-146918146D01*
X209677000Y-146918146D01*
X209677000Y-148463000D01*
X211221432Y-148463000D01*
X211338195Y-148178195D01*
X211265621Y-147938934D01*
X211105639Y-147616743D01*
X210885875Y-147331954D01*
X210614774Y-147095511D01*
X210302754Y-146916500D01*
X209961806Y-146801801D01*
X209677000Y-146918146D01*
X209423000Y-146918146D01*
X209138194Y-146801801D01*
X208797246Y-146916500D01*
X208485226Y-147095511D01*
X208214125Y-147331954D01*
X207994361Y-147616743D01*
X207834379Y-147938934D01*
X207761805Y-148178195D01*
X195113072Y-148178195D01*
X195113072Y-147155000D01*
X195100812Y-147030518D01*
X195064502Y-146910820D01*
X195005537Y-146800506D01*
X194926185Y-146703815D01*
X194829494Y-146624463D01*
X194719180Y-146565498D01*
X194599482Y-146529188D01*
X194475000Y-146516928D01*
X192875000Y-146516928D01*
X192750518Y-146529188D01*
X192630820Y-146565498D01*
X192520506Y-146624463D01*
X192423815Y-146703815D01*
X192344463Y-146800506D01*
X192285498Y-146910820D01*
X192249188Y-147030518D01*
X192236928Y-147155000D01*
X188278867Y-147155000D01*
X188404775Y-146966566D01*
X188550639Y-146614419D01*
X188625000Y-146240581D01*
X188625000Y-145885000D01*
X222081928Y-145885000D01*
X222081928Y-147485000D01*
X222094188Y-147609482D01*
X222130498Y-147729180D01*
X222189463Y-147839494D01*
X222268815Y-147936185D01*
X222365506Y-148015537D01*
X222475820Y-148074502D01*
X222595518Y-148110812D01*
X222720000Y-148123072D01*
X222727215Y-148123072D01*
X222706903Y-148192298D01*
X223520000Y-149005395D01*
X224333097Y-148192298D01*
X224312785Y-148123072D01*
X224320000Y-148123072D01*
X224444482Y-148110812D01*
X224564180Y-148074502D01*
X224674494Y-148015537D01*
X224771185Y-147936185D01*
X224850537Y-147839494D01*
X224909502Y-147729180D01*
X224945812Y-147609482D01*
X224958072Y-147485000D01*
X224958072Y-145885000D01*
X224945812Y-145760518D01*
X224909502Y-145640820D01*
X224850537Y-145530506D01*
X224771185Y-145433815D01*
X224674494Y-145354463D01*
X224564180Y-145295498D01*
X224444482Y-145259188D01*
X224320000Y-145246928D01*
X222720000Y-145246928D01*
X222595518Y-145259188D01*
X222475820Y-145295498D01*
X222365506Y-145354463D01*
X222268815Y-145433815D01*
X222189463Y-145530506D01*
X222130498Y-145640820D01*
X222094188Y-145760518D01*
X222081928Y-145885000D01*
X188625000Y-145885000D01*
X188625000Y-145859419D01*
X188550639Y-145485581D01*
X188404775Y-145133434D01*
X188193013Y-144816509D01*
X187923491Y-144546987D01*
X187606566Y-144335225D01*
X187254419Y-144189361D01*
X186880581Y-144115000D01*
X186499419Y-144115000D01*
X186125581Y-144189361D01*
X185773434Y-144335225D01*
X185456509Y-144546987D01*
X185186987Y-144816509D01*
X184975225Y-145133434D01*
X184829361Y-145485581D01*
X184755000Y-145859419D01*
X183625000Y-145859419D01*
X183550639Y-145485581D01*
X183404775Y-145133434D01*
X183193013Y-144816509D01*
X182923491Y-144546987D01*
X182606566Y-144335225D01*
X182254419Y-144189361D01*
X181880581Y-144115000D01*
X181499419Y-144115000D01*
X181125581Y-144189361D01*
X180773434Y-144335225D01*
X180456509Y-144546987D01*
X180186987Y-144816509D01*
X179975225Y-145133434D01*
X179829361Y-145485581D01*
X179755000Y-145859419D01*
X174635976Y-145859419D01*
X174803097Y-145692298D01*
X174782785Y-145623072D01*
X174790000Y-145623072D01*
X174914482Y-145610812D01*
X175034180Y-145574502D01*
X175144494Y-145515537D01*
X175241185Y-145436185D01*
X175320537Y-145339494D01*
X175379502Y-145229180D01*
X175415812Y-145109482D01*
X175428072Y-144985000D01*
X175428072Y-143827702D01*
X192861903Y-143827702D01*
X192933486Y-144071671D01*
X193188996Y-144192571D01*
X193463184Y-144261300D01*
X193745512Y-144275217D01*
X194025130Y-144233787D01*
X194291292Y-144138603D01*
X194416514Y-144071671D01*
X194488097Y-143827702D01*
X193675000Y-143014605D01*
X192861903Y-143827702D01*
X175428072Y-143827702D01*
X175428072Y-143385000D01*
X175415812Y-143260518D01*
X175379502Y-143140820D01*
X175320537Y-143030506D01*
X175241185Y-142933815D01*
X175206698Y-142905512D01*
X192234783Y-142905512D01*
X192276213Y-143185130D01*
X192371397Y-143451292D01*
X192438329Y-143576514D01*
X192682298Y-143648097D01*
X193495395Y-142835000D01*
X193854605Y-142835000D01*
X194667702Y-143648097D01*
X194911671Y-143576514D01*
X195002519Y-143384514D01*
X205422500Y-143384514D01*
X205422500Y-143635485D01*
X205445470Y-143868703D01*
X205536245Y-144167948D01*
X205683655Y-144443734D01*
X205882037Y-144685463D01*
X206123765Y-144883845D01*
X206399551Y-145031255D01*
X206698796Y-145122030D01*
X207010000Y-145152681D01*
X207321203Y-145122030D01*
X207620448Y-145031255D01*
X207896234Y-144883845D01*
X208137963Y-144685463D01*
X208285163Y-144506101D01*
X208440563Y-144691315D01*
X208683077Y-144885969D01*
X208958906Y-145029571D01*
X209177020Y-145100563D01*
X209423000Y-144980594D01*
X209423000Y-143637000D01*
X209403000Y-143637000D01*
X209403000Y-143383000D01*
X209423000Y-143383000D01*
X209423000Y-142039406D01*
X209677000Y-142039406D01*
X209677000Y-143383000D01*
X209697000Y-143383000D01*
X209697000Y-143637000D01*
X209677000Y-143637000D01*
X209677000Y-144980594D01*
X209922980Y-145100563D01*
X210141094Y-145029571D01*
X210416923Y-144885969D01*
X210557941Y-144772781D01*
X210606963Y-144864494D01*
X210686315Y-144961185D01*
X210783006Y-145040537D01*
X210893320Y-145099502D01*
X211013018Y-145135812D01*
X211137500Y-145148072D01*
X213042500Y-145148072D01*
X213166982Y-145135812D01*
X213286680Y-145099502D01*
X213396994Y-145040537D01*
X213493685Y-144961185D01*
X213573037Y-144864494D01*
X213632002Y-144754180D01*
X213668312Y-144634482D01*
X213680572Y-144510000D01*
X213680572Y-143368665D01*
X220815000Y-143368665D01*
X220815000Y-143651335D01*
X220870147Y-143928574D01*
X220978320Y-144189727D01*
X221135363Y-144424759D01*
X221335241Y-144624637D01*
X221570273Y-144781680D01*
X221831426Y-144889853D01*
X222108665Y-144945000D01*
X222391335Y-144945000D01*
X222668574Y-144889853D01*
X222929727Y-144781680D01*
X223164759Y-144624637D01*
X223286694Y-144502702D01*
X223936903Y-144502702D01*
X224008486Y-144746671D01*
X224263996Y-144867571D01*
X224538184Y-144936300D01*
X224820512Y-144950217D01*
X225100130Y-144908787D01*
X225366292Y-144813603D01*
X225491514Y-144746671D01*
X225563097Y-144502702D01*
X224750000Y-143689605D01*
X223936903Y-144502702D01*
X223286694Y-144502702D01*
X223364637Y-144424759D01*
X223498692Y-144224131D01*
X223513329Y-144251514D01*
X223757298Y-144323097D01*
X224570395Y-143510000D01*
X224929605Y-143510000D01*
X225742702Y-144323097D01*
X225986671Y-144251514D01*
X226107571Y-143996004D01*
X226110588Y-143983967D01*
X228245000Y-143983967D01*
X228245000Y-144306033D01*
X228307832Y-144621912D01*
X228431082Y-144919463D01*
X228610013Y-145187252D01*
X228837748Y-145414987D01*
X229105537Y-145593918D01*
X229403088Y-145717168D01*
X229718967Y-145780000D01*
X230041033Y-145780000D01*
X230356912Y-145717168D01*
X230654463Y-145593918D01*
X230922252Y-145414987D01*
X231149987Y-145187252D01*
X231328918Y-144919463D01*
X231452168Y-144621912D01*
X231515000Y-144306033D01*
X231515000Y-143983967D01*
X231452168Y-143668088D01*
X231328918Y-143370537D01*
X231218310Y-143205000D01*
X235101928Y-143205000D01*
X235101928Y-146705000D01*
X235114188Y-146829482D01*
X235150498Y-146949180D01*
X235209463Y-147059494D01*
X235288815Y-147156185D01*
X235385506Y-147235537D01*
X235495820Y-147294502D01*
X235615518Y-147330812D01*
X235740000Y-147343072D01*
X239240000Y-147343072D01*
X239364482Y-147330812D01*
X239484180Y-147294502D01*
X239594494Y-147235537D01*
X239691185Y-147156185D01*
X239770537Y-147059494D01*
X239811494Y-146982869D01*
X239801928Y-147080000D01*
X239801928Y-148830000D01*
X239831001Y-149125186D01*
X239917104Y-149409028D01*
X240056927Y-149670618D01*
X240245097Y-149899903D01*
X240474382Y-150088073D01*
X240735972Y-150227896D01*
X241019814Y-150313999D01*
X241315000Y-150343072D01*
X243065000Y-150343072D01*
X243360186Y-150313999D01*
X243644028Y-150227896D01*
X243905618Y-150088073D01*
X244134903Y-149899903D01*
X244323073Y-149670618D01*
X244462896Y-149409028D01*
X244548999Y-149125186D01*
X244578072Y-148830000D01*
X244578072Y-147930695D01*
X245066520Y-147930695D01*
X245135822Y-148682938D01*
X245350548Y-149407208D01*
X245702445Y-150075670D01*
X245729452Y-150116088D01*
X246219119Y-150476276D01*
X248740395Y-147955000D01*
X249099605Y-147955000D01*
X251620881Y-150476276D01*
X252110548Y-150116088D01*
X252470849Y-149452118D01*
X252694694Y-148730615D01*
X252773480Y-147979305D01*
X252704178Y-147227062D01*
X252489452Y-146502792D01*
X252137555Y-145834330D01*
X252110548Y-145793912D01*
X251620881Y-145433724D01*
X249099605Y-147955000D01*
X248740395Y-147955000D01*
X246219119Y-145433724D01*
X245729452Y-145793912D01*
X245369151Y-146457882D01*
X245145306Y-147179385D01*
X245066520Y-147930695D01*
X244578072Y-147930695D01*
X244578072Y-147080000D01*
X244548999Y-146784814D01*
X244462896Y-146500972D01*
X244323073Y-146239382D01*
X244134903Y-146010097D01*
X243905618Y-145821927D01*
X243644028Y-145682104D01*
X243360186Y-145596001D01*
X243065000Y-145566928D01*
X241315000Y-145566928D01*
X241019814Y-145596001D01*
X240735972Y-145682104D01*
X240474382Y-145821927D01*
X240245097Y-146010097D01*
X240056927Y-146239382D01*
X239917104Y-146500972D01*
X239878072Y-146629643D01*
X239878072Y-145254119D01*
X246398724Y-145254119D01*
X248920000Y-147775395D01*
X251441276Y-145254119D01*
X251081088Y-144764452D01*
X250417118Y-144404151D01*
X249695615Y-144180306D01*
X248944305Y-144101520D01*
X248192062Y-144170822D01*
X247467792Y-144385548D01*
X246799330Y-144737445D01*
X246758912Y-144764452D01*
X246398724Y-145254119D01*
X239878072Y-145254119D01*
X239878072Y-143205000D01*
X239865812Y-143080518D01*
X239829502Y-142960820D01*
X239770537Y-142850506D01*
X239691185Y-142753815D01*
X239594494Y-142674463D01*
X239484180Y-142615498D01*
X239364482Y-142579188D01*
X239240000Y-142566928D01*
X235740000Y-142566928D01*
X235615518Y-142579188D01*
X235495820Y-142615498D01*
X235385506Y-142674463D01*
X235288815Y-142753815D01*
X235209463Y-142850506D01*
X235150498Y-142960820D01*
X235114188Y-143080518D01*
X235101928Y-143205000D01*
X231218310Y-143205000D01*
X231149987Y-143102748D01*
X230922252Y-142875013D01*
X230654463Y-142696082D01*
X230356912Y-142572832D01*
X230041033Y-142510000D01*
X229718967Y-142510000D01*
X229403088Y-142572832D01*
X229105537Y-142696082D01*
X228837748Y-142875013D01*
X228610013Y-143102748D01*
X228431082Y-143370537D01*
X228307832Y-143668088D01*
X228245000Y-143983967D01*
X226110588Y-143983967D01*
X226176300Y-143721816D01*
X226190217Y-143439488D01*
X226148787Y-143159870D01*
X226053603Y-142893708D01*
X225986671Y-142768486D01*
X225742702Y-142696903D01*
X224929605Y-143510000D01*
X224570395Y-143510000D01*
X223757298Y-142696903D01*
X223513329Y-142768486D01*
X223499676Y-142797341D01*
X223364637Y-142595241D01*
X223286694Y-142517298D01*
X223936903Y-142517298D01*
X224750000Y-143330395D01*
X225563097Y-142517298D01*
X225491514Y-142273329D01*
X225236004Y-142152429D01*
X224961816Y-142083700D01*
X224679488Y-142069783D01*
X224399870Y-142111213D01*
X224133708Y-142206397D01*
X224008486Y-142273329D01*
X223936903Y-142517298D01*
X223286694Y-142517298D01*
X223164759Y-142395363D01*
X222929727Y-142238320D01*
X222668574Y-142130147D01*
X222391335Y-142075000D01*
X222108665Y-142075000D01*
X221831426Y-142130147D01*
X221570273Y-142238320D01*
X221335241Y-142395363D01*
X221135363Y-142595241D01*
X220978320Y-142830273D01*
X220870147Y-143091426D01*
X220815000Y-143368665D01*
X213680572Y-143368665D01*
X213680572Y-142510000D01*
X213668312Y-142385518D01*
X213632002Y-142265820D01*
X213573037Y-142155506D01*
X213493685Y-142058815D01*
X213396994Y-141979463D01*
X213286680Y-141920498D01*
X213166982Y-141884188D01*
X213042500Y-141871928D01*
X211137500Y-141871928D01*
X211013018Y-141884188D01*
X210893320Y-141920498D01*
X210783006Y-141979463D01*
X210686315Y-142058815D01*
X210606963Y-142155506D01*
X210557941Y-142247219D01*
X210416923Y-142134031D01*
X210141094Y-141990429D01*
X209922980Y-141919437D01*
X209677000Y-142039406D01*
X209423000Y-142039406D01*
X209177020Y-141919437D01*
X208958906Y-141990429D01*
X208683077Y-142134031D01*
X208440563Y-142328685D01*
X208285162Y-142513900D01*
X208137963Y-142334537D01*
X207896235Y-142136155D01*
X207620449Y-141988745D01*
X207321204Y-141897970D01*
X207010000Y-141867319D01*
X206698797Y-141897970D01*
X206399552Y-141988745D01*
X206123766Y-142136155D01*
X205882037Y-142334537D01*
X205683655Y-142576265D01*
X205536245Y-142852051D01*
X205445470Y-143151296D01*
X205422500Y-143384514D01*
X195002519Y-143384514D01*
X195032571Y-143321004D01*
X195101300Y-143046816D01*
X195115217Y-142764488D01*
X195073787Y-142484870D01*
X194978603Y-142218708D01*
X194911671Y-142093486D01*
X194667702Y-142021903D01*
X193854605Y-142835000D01*
X193495395Y-142835000D01*
X192682298Y-142021903D01*
X192438329Y-142093486D01*
X192317429Y-142348996D01*
X192248700Y-142623184D01*
X192234783Y-142905512D01*
X175206698Y-142905512D01*
X175144494Y-142854463D01*
X175034180Y-142795498D01*
X174914482Y-142759188D01*
X174790000Y-142746928D01*
X173190000Y-142746928D01*
X173065518Y-142759188D01*
X172945820Y-142795498D01*
X172835506Y-142854463D01*
X172738815Y-142933815D01*
X172659463Y-143030506D01*
X172600498Y-143140820D01*
X172564188Y-143260518D01*
X172551928Y-143385000D01*
X155600000Y-143385000D01*
X155600000Y-137965000D01*
X165901928Y-137965000D01*
X165901928Y-140165000D01*
X165914188Y-140289482D01*
X165950498Y-140409180D01*
X166009463Y-140519494D01*
X166088815Y-140616185D01*
X166185506Y-140695537D01*
X166295820Y-140754502D01*
X166415518Y-140790812D01*
X166540000Y-140803072D01*
X168740000Y-140803072D01*
X168864482Y-140790812D01*
X168984180Y-140754502D01*
X169094494Y-140695537D01*
X169191185Y-140616185D01*
X169270537Y-140519494D01*
X169329502Y-140409180D01*
X169365812Y-140289482D01*
X169378072Y-140165000D01*
X169378072Y-137965000D01*
X169365812Y-137840518D01*
X169329502Y-137720820D01*
X169270537Y-137610506D01*
X169191185Y-137513815D01*
X169094494Y-137434463D01*
X168984180Y-137375498D01*
X168864482Y-137339188D01*
X168740000Y-137326928D01*
X166540000Y-137326928D01*
X166415518Y-137339188D01*
X166295820Y-137375498D01*
X166185506Y-137434463D01*
X166088815Y-137513815D01*
X166009463Y-137610506D01*
X165950498Y-137720820D01*
X165914188Y-137840518D01*
X165901928Y-137965000D01*
X155600000Y-137965000D01*
X155600000Y-133774721D01*
X165505000Y-133774721D01*
X165505000Y-134195279D01*
X165587047Y-134607756D01*
X165747988Y-134996302D01*
X165981637Y-135345983D01*
X166279017Y-135643363D01*
X166628698Y-135877012D01*
X167017244Y-136037953D01*
X167429721Y-136120000D01*
X167850279Y-136120000D01*
X168262756Y-136037953D01*
X168651302Y-135877012D01*
X169000983Y-135643363D01*
X169298363Y-135345983D01*
X169532012Y-134996302D01*
X169692953Y-134607756D01*
X169775000Y-134195279D01*
X169775000Y-133774721D01*
X169692953Y-133362244D01*
X169532012Y-132973698D01*
X169298363Y-132624017D01*
X169000983Y-132326637D01*
X168651302Y-132092988D01*
X168262756Y-131932047D01*
X167850279Y-131850000D01*
X167429721Y-131850000D01*
X167017244Y-131932047D01*
X166628698Y-132092988D01*
X166279017Y-132326637D01*
X165981637Y-132624017D01*
X165747988Y-132973698D01*
X165587047Y-133362244D01*
X165505000Y-133774721D01*
X155600000Y-133774721D01*
X155600000Y-115428665D01*
X161125000Y-115428665D01*
X161125000Y-115711335D01*
X161180147Y-115988574D01*
X161288320Y-116249727D01*
X161445363Y-116484759D01*
X161645241Y-116684637D01*
X161880273Y-116841680D01*
X162141426Y-116949853D01*
X162418665Y-117005000D01*
X162701335Y-117005000D01*
X162978574Y-116949853D01*
X163239727Y-116841680D01*
X163474759Y-116684637D01*
X163674637Y-116484759D01*
X163831680Y-116249727D01*
X163939853Y-115988574D01*
X163995000Y-115711335D01*
X163995000Y-115428665D01*
X167475000Y-115428665D01*
X167475000Y-115711335D01*
X167530147Y-115988574D01*
X167638320Y-116249727D01*
X167795363Y-116484759D01*
X167995241Y-116684637D01*
X168230273Y-116841680D01*
X168491426Y-116949853D01*
X168732719Y-116997850D01*
X171585000Y-119850132D01*
X171585001Y-137330375D01*
X171495518Y-137339188D01*
X171375820Y-137375498D01*
X171265506Y-137434463D01*
X171168815Y-137513815D01*
X171089463Y-137610506D01*
X171030498Y-137720820D01*
X170994188Y-137840518D01*
X170981928Y-137965000D01*
X170981928Y-140165000D01*
X170994188Y-140289482D01*
X171030498Y-140409180D01*
X171089463Y-140519494D01*
X171168815Y-140616185D01*
X171265506Y-140695537D01*
X171375820Y-140754502D01*
X171495518Y-140790812D01*
X171620000Y-140803072D01*
X173820000Y-140803072D01*
X173944482Y-140790812D01*
X174064180Y-140754502D01*
X174174494Y-140695537D01*
X174271185Y-140616185D01*
X174350537Y-140519494D01*
X174409502Y-140409180D01*
X174445812Y-140289482D01*
X174458072Y-140165000D01*
X174458072Y-138894117D01*
X181145000Y-138894117D01*
X181145000Y-139235883D01*
X181211675Y-139571081D01*
X181342463Y-139886831D01*
X181532337Y-140170998D01*
X181774002Y-140412663D01*
X182058169Y-140602537D01*
X182373919Y-140733325D01*
X182709117Y-140800000D01*
X183050883Y-140800000D01*
X183386081Y-140733325D01*
X183701831Y-140602537D01*
X183985998Y-140412663D01*
X184227663Y-140170998D01*
X184417537Y-139886831D01*
X184548325Y-139571081D01*
X184555501Y-139535000D01*
X192236928Y-139535000D01*
X192236928Y-141135000D01*
X192249188Y-141259482D01*
X192285498Y-141379180D01*
X192344463Y-141489494D01*
X192423815Y-141586185D01*
X192520506Y-141665537D01*
X192630820Y-141724502D01*
X192750518Y-141760812D01*
X192875000Y-141773072D01*
X192882215Y-141773072D01*
X192861903Y-141842298D01*
X193675000Y-142655395D01*
X194488097Y-141842298D01*
X194467785Y-141773072D01*
X194475000Y-141773072D01*
X194599482Y-141760812D01*
X194719180Y-141724502D01*
X194829494Y-141665537D01*
X194926185Y-141586185D01*
X195005537Y-141489494D01*
X195064502Y-141379180D01*
X195100812Y-141259482D01*
X195113072Y-141135000D01*
X195113072Y-139535000D01*
X195100812Y-139410518D01*
X195064502Y-139290820D01*
X195005537Y-139180506D01*
X194926185Y-139083815D01*
X194829494Y-139004463D01*
X194719180Y-138945498D01*
X194599482Y-138909188D01*
X194475000Y-138896928D01*
X192875000Y-138896928D01*
X192750518Y-138909188D01*
X192630820Y-138945498D01*
X192520506Y-139004463D01*
X192423815Y-139083815D01*
X192344463Y-139180506D01*
X192285498Y-139290820D01*
X192249188Y-139410518D01*
X192236928Y-139535000D01*
X184555501Y-139535000D01*
X184615000Y-139235883D01*
X184615000Y-138894117D01*
X184548325Y-138558919D01*
X184417537Y-138243169D01*
X184227663Y-137959002D01*
X183985998Y-137717337D01*
X183701831Y-137527463D01*
X183386081Y-137396675D01*
X183050883Y-137330000D01*
X182709117Y-137330000D01*
X182373919Y-137396675D01*
X182058169Y-137527463D01*
X181774002Y-137717337D01*
X181532337Y-137959002D01*
X181342463Y-138243169D01*
X181211675Y-138558919D01*
X181145000Y-138894117D01*
X174458072Y-138894117D01*
X174458072Y-137965000D01*
X174445812Y-137840518D01*
X174409502Y-137720820D01*
X174350537Y-137610506D01*
X174271185Y-137513815D01*
X174174494Y-137434463D01*
X174064180Y-137375498D01*
X173944482Y-137339188D01*
X173855000Y-137330375D01*
X173855000Y-136949721D01*
X204875000Y-136949721D01*
X204875000Y-137370279D01*
X204957047Y-137782756D01*
X205117988Y-138171302D01*
X205351637Y-138520983D01*
X205649017Y-138818363D01*
X205998698Y-139052012D01*
X206387244Y-139212953D01*
X206799721Y-139295000D01*
X207220279Y-139295000D01*
X207632756Y-139212953D01*
X208021302Y-139052012D01*
X208370983Y-138818363D01*
X208668363Y-138520983D01*
X208902012Y-138171302D01*
X208987465Y-137965000D01*
X228131928Y-137965000D01*
X228131928Y-140165000D01*
X228144188Y-140289482D01*
X228180498Y-140409180D01*
X228239463Y-140519494D01*
X228318815Y-140616185D01*
X228415506Y-140695537D01*
X228525820Y-140754502D01*
X228645518Y-140790812D01*
X228770000Y-140803072D01*
X230970000Y-140803072D01*
X231094482Y-140790812D01*
X231214180Y-140754502D01*
X231324494Y-140695537D01*
X231421185Y-140616185D01*
X231500537Y-140519494D01*
X231559502Y-140409180D01*
X231595812Y-140289482D01*
X231608072Y-140165000D01*
X231608072Y-138894117D01*
X238295000Y-138894117D01*
X238295000Y-139235883D01*
X238361675Y-139571081D01*
X238492463Y-139886831D01*
X238682337Y-140170998D01*
X238924002Y-140412663D01*
X239208169Y-140602537D01*
X239523919Y-140733325D01*
X239859117Y-140800000D01*
X240200883Y-140800000D01*
X240536081Y-140733325D01*
X240851831Y-140602537D01*
X241135998Y-140412663D01*
X241377663Y-140170998D01*
X241567537Y-139886831D01*
X241698325Y-139571081D01*
X241714508Y-139489721D01*
X242340000Y-139489721D01*
X242340000Y-139910279D01*
X242422047Y-140322756D01*
X242582988Y-140711302D01*
X242816637Y-141060983D01*
X243114017Y-141358363D01*
X243463698Y-141592012D01*
X243852244Y-141752953D01*
X244264721Y-141835000D01*
X244685279Y-141835000D01*
X245097756Y-141752953D01*
X245486302Y-141592012D01*
X245835983Y-141358363D01*
X246133363Y-141060983D01*
X246367012Y-140711302D01*
X246527953Y-140322756D01*
X246610000Y-139910279D01*
X246610000Y-139489721D01*
X246527953Y-139077244D01*
X246367012Y-138688698D01*
X246133363Y-138339017D01*
X245835983Y-138041637D01*
X245486302Y-137807988D01*
X245097756Y-137647047D01*
X244685279Y-137565000D01*
X244264721Y-137565000D01*
X243852244Y-137647047D01*
X243463698Y-137807988D01*
X243114017Y-138041637D01*
X242816637Y-138339017D01*
X242582988Y-138688698D01*
X242422047Y-139077244D01*
X242340000Y-139489721D01*
X241714508Y-139489721D01*
X241765000Y-139235883D01*
X241765000Y-138894117D01*
X241698325Y-138558919D01*
X241567537Y-138243169D01*
X241377663Y-137959002D01*
X241135998Y-137717337D01*
X240851831Y-137527463D01*
X240536081Y-137396675D01*
X240200883Y-137330000D01*
X239859117Y-137330000D01*
X239523919Y-137396675D01*
X239208169Y-137527463D01*
X238924002Y-137717337D01*
X238682337Y-137959002D01*
X238492463Y-138243169D01*
X238361675Y-138558919D01*
X238295000Y-138894117D01*
X231608072Y-138894117D01*
X231608072Y-137965000D01*
X231595812Y-137840518D01*
X231559502Y-137720820D01*
X231500537Y-137610506D01*
X231421185Y-137513815D01*
X231324494Y-137434463D01*
X231214180Y-137375498D01*
X231094482Y-137339188D01*
X230970000Y-137326928D01*
X228770000Y-137326928D01*
X228645518Y-137339188D01*
X228525820Y-137375498D01*
X228415506Y-137434463D01*
X228318815Y-137513815D01*
X228239463Y-137610506D01*
X228180498Y-137720820D01*
X228144188Y-137840518D01*
X228131928Y-137965000D01*
X208987465Y-137965000D01*
X209062953Y-137782756D01*
X209145000Y-137370279D01*
X209145000Y-136949721D01*
X209062953Y-136537244D01*
X208902012Y-136148698D01*
X208668363Y-135799017D01*
X208370983Y-135501637D01*
X208021302Y-135267988D01*
X207632756Y-135107047D01*
X207220279Y-135025000D01*
X206799721Y-135025000D01*
X206387244Y-135107047D01*
X205998698Y-135267988D01*
X205649017Y-135501637D01*
X205351637Y-135799017D01*
X205117988Y-136148698D01*
X204957047Y-136537244D01*
X204875000Y-136949721D01*
X173855000Y-136949721D01*
X173855000Y-130545000D01*
X181341928Y-130545000D01*
X181341928Y-134885000D01*
X181354188Y-135009482D01*
X181390498Y-135129180D01*
X181449463Y-135239494D01*
X181528815Y-135336185D01*
X181625506Y-135415537D01*
X181735820Y-135474502D01*
X181855518Y-135510812D01*
X181980000Y-135523072D01*
X183780000Y-135523072D01*
X183904482Y-135510812D01*
X184024180Y-135474502D01*
X184134494Y-135415537D01*
X184231185Y-135336185D01*
X184310537Y-135239494D01*
X184369502Y-135129180D01*
X184405812Y-135009482D01*
X184418072Y-134885000D01*
X184418072Y-133833816D01*
X188965000Y-133833816D01*
X188965000Y-134136184D01*
X189023989Y-134432743D01*
X189139701Y-134712095D01*
X189307688Y-134963505D01*
X189521495Y-135177312D01*
X189772905Y-135345299D01*
X190052257Y-135461011D01*
X190348816Y-135520000D01*
X190651184Y-135520000D01*
X190947743Y-135461011D01*
X191227095Y-135345299D01*
X191478505Y-135177312D01*
X191692312Y-134963505D01*
X191860299Y-134712095D01*
X191976011Y-134432743D01*
X192035000Y-134136184D01*
X192035000Y-133833816D01*
X191976011Y-133537257D01*
X191860299Y-133257905D01*
X191807655Y-133179117D01*
X239565000Y-133179117D01*
X239565000Y-133520883D01*
X239631675Y-133856081D01*
X239762463Y-134171831D01*
X239952337Y-134455998D01*
X240194002Y-134697663D01*
X240478169Y-134887537D01*
X240793919Y-135018325D01*
X241129117Y-135085000D01*
X241470883Y-135085000D01*
X241806081Y-135018325D01*
X242121831Y-134887537D01*
X242405998Y-134697663D01*
X242647663Y-134455998D01*
X242837537Y-134171831D01*
X242968325Y-133856081D01*
X243035000Y-133520883D01*
X243035000Y-133179117D01*
X242968325Y-132843919D01*
X242837537Y-132528169D01*
X242651671Y-132250000D01*
X249721928Y-132250000D01*
X249721928Y-134450000D01*
X249734188Y-134574482D01*
X249770498Y-134694180D01*
X249829463Y-134804494D01*
X249908815Y-134901185D01*
X250005506Y-134980537D01*
X250115820Y-135039502D01*
X250235518Y-135075812D01*
X250360000Y-135088072D01*
X252560000Y-135088072D01*
X252684482Y-135075812D01*
X252804180Y-135039502D01*
X252914494Y-134980537D01*
X253011185Y-134901185D01*
X253090537Y-134804494D01*
X253149502Y-134694180D01*
X253185812Y-134574482D01*
X253198072Y-134450000D01*
X253198072Y-132250000D01*
X253185812Y-132125518D01*
X253149502Y-132005820D01*
X253090537Y-131895506D01*
X253011185Y-131798815D01*
X252914494Y-131719463D01*
X252804180Y-131660498D01*
X252684482Y-131624188D01*
X252560000Y-131611928D01*
X250360000Y-131611928D01*
X250235518Y-131624188D01*
X250115820Y-131660498D01*
X250005506Y-131719463D01*
X249908815Y-131798815D01*
X249829463Y-131895506D01*
X249770498Y-132005820D01*
X249734188Y-132125518D01*
X249721928Y-132250000D01*
X242651671Y-132250000D01*
X242647663Y-132244002D01*
X242405998Y-132002337D01*
X242121831Y-131812463D01*
X241806081Y-131681675D01*
X241470883Y-131615000D01*
X241129117Y-131615000D01*
X240793919Y-131681675D01*
X240478169Y-131812463D01*
X240194002Y-132002337D01*
X239952337Y-132244002D01*
X239762463Y-132528169D01*
X239631675Y-132843919D01*
X239565000Y-133179117D01*
X191807655Y-133179117D01*
X191692312Y-133006495D01*
X191478505Y-132792688D01*
X191358107Y-132712241D01*
X191407573Y-132682962D01*
X191631649Y-132482116D01*
X191812236Y-132241414D01*
X191942394Y-131970107D01*
X191991036Y-131809740D01*
X191870378Y-131572000D01*
X190627000Y-131572000D01*
X190627000Y-131592000D01*
X190373000Y-131592000D01*
X190373000Y-131572000D01*
X189129622Y-131572000D01*
X189008964Y-131809740D01*
X189057606Y-131970107D01*
X189187764Y-132241414D01*
X189368351Y-132482116D01*
X189592427Y-132682962D01*
X189641893Y-132712241D01*
X189521495Y-132792688D01*
X189307688Y-133006495D01*
X189139701Y-133257905D01*
X189023989Y-133537257D01*
X188965000Y-133833816D01*
X184418072Y-133833816D01*
X184418072Y-131080260D01*
X189008964Y-131080260D01*
X189129622Y-131318000D01*
X190373000Y-131318000D01*
X190373000Y-130074008D01*
X190627000Y-130074008D01*
X190627000Y-131318000D01*
X191870378Y-131318000D01*
X191991036Y-131080260D01*
X191942394Y-130919893D01*
X191812236Y-130648586D01*
X191725294Y-130532702D01*
X248146903Y-130532702D01*
X248218486Y-130776671D01*
X248473996Y-130897571D01*
X248748184Y-130966300D01*
X249030512Y-130980217D01*
X249310130Y-130938787D01*
X249576292Y-130843603D01*
X249701514Y-130776671D01*
X249773097Y-130532702D01*
X248960000Y-129719605D01*
X248146903Y-130532702D01*
X191725294Y-130532702D01*
X191631649Y-130407884D01*
X191407573Y-130207038D01*
X191148620Y-130053766D01*
X190864741Y-129953959D01*
X190627000Y-130074008D01*
X190373000Y-130074008D01*
X190135259Y-129953959D01*
X189851380Y-130053766D01*
X189592427Y-130207038D01*
X189368351Y-130407884D01*
X189187764Y-130648586D01*
X189057606Y-130919893D01*
X189008964Y-131080260D01*
X184418072Y-131080260D01*
X184418072Y-130545000D01*
X184405812Y-130420518D01*
X184369502Y-130300820D01*
X184310537Y-130190506D01*
X184231185Y-130093815D01*
X184134494Y-130014463D01*
X184024180Y-129955498D01*
X183904482Y-129919188D01*
X183780000Y-129906928D01*
X181980000Y-129906928D01*
X181855518Y-129919188D01*
X181735820Y-129955498D01*
X181625506Y-130014463D01*
X181528815Y-130093815D01*
X181449463Y-130190506D01*
X181390498Y-130300820D01*
X181354188Y-130420518D01*
X181341928Y-130545000D01*
X173855000Y-130545000D01*
X173855000Y-129610512D01*
X247519783Y-129610512D01*
X247561213Y-129890130D01*
X247656397Y-130156292D01*
X247723329Y-130281514D01*
X247967298Y-130353097D01*
X248780395Y-129540000D01*
X249139605Y-129540000D01*
X249952702Y-130353097D01*
X250196671Y-130281514D01*
X250210324Y-130252659D01*
X250345363Y-130454759D01*
X250545241Y-130654637D01*
X250780273Y-130811680D01*
X251041426Y-130919853D01*
X251318665Y-130975000D01*
X251601335Y-130975000D01*
X251878574Y-130919853D01*
X252139727Y-130811680D01*
X252374759Y-130654637D01*
X252574637Y-130454759D01*
X252731680Y-130219727D01*
X252839853Y-129958574D01*
X252895000Y-129681335D01*
X252895000Y-129398665D01*
X252839853Y-129121426D01*
X252731680Y-128860273D01*
X252574637Y-128625241D01*
X252374759Y-128425363D01*
X252139727Y-128268320D01*
X251878574Y-128160147D01*
X251601335Y-128105000D01*
X251318665Y-128105000D01*
X251041426Y-128160147D01*
X250780273Y-128268320D01*
X250545241Y-128425363D01*
X250345363Y-128625241D01*
X250211308Y-128825869D01*
X250196671Y-128798486D01*
X249952702Y-128726903D01*
X249139605Y-129540000D01*
X248780395Y-129540000D01*
X247967298Y-128726903D01*
X247723329Y-128798486D01*
X247602429Y-129053996D01*
X247533700Y-129328184D01*
X247519783Y-129610512D01*
X173855000Y-129610512D01*
X173855000Y-128547298D01*
X248146903Y-128547298D01*
X248960000Y-129360395D01*
X249773097Y-128547298D01*
X249701514Y-128303329D01*
X249446004Y-128182429D01*
X249171816Y-128113700D01*
X248889488Y-128099783D01*
X248609870Y-128141213D01*
X248343708Y-128236397D01*
X248218486Y-128303329D01*
X248146903Y-128547298D01*
X173855000Y-128547298D01*
X173855000Y-119475752D01*
X173860491Y-119420000D01*
X173838577Y-119197502D01*
X173833707Y-119181447D01*
X173773676Y-118983553D01*
X173737299Y-118915495D01*
X173733676Y-118903553D01*
X173628284Y-118706377D01*
X173486449Y-118533551D01*
X173443141Y-118498009D01*
X170337850Y-115392719D01*
X170289853Y-115151426D01*
X170181680Y-114890273D01*
X170024637Y-114655241D01*
X169824759Y-114455363D01*
X169624131Y-114321308D01*
X169651514Y-114306671D01*
X169723097Y-114062702D01*
X168910000Y-113249605D01*
X168096903Y-114062702D01*
X168168486Y-114306671D01*
X168197341Y-114320324D01*
X167995241Y-114455363D01*
X167795363Y-114655241D01*
X167638320Y-114890273D01*
X167530147Y-115151426D01*
X167475000Y-115428665D01*
X163995000Y-115428665D01*
X163939853Y-115151426D01*
X163831680Y-114890273D01*
X163674637Y-114655241D01*
X163474759Y-114455363D01*
X163239727Y-114298320D01*
X162978574Y-114190147D01*
X162701335Y-114135000D01*
X162418665Y-114135000D01*
X162141426Y-114190147D01*
X161880273Y-114298320D01*
X161645241Y-114455363D01*
X161445363Y-114655241D01*
X161288320Y-114890273D01*
X161180147Y-115151426D01*
X161125000Y-115428665D01*
X155600000Y-115428665D01*
X155600000Y-113140512D01*
X167469783Y-113140512D01*
X167511213Y-113420130D01*
X167606397Y-113686292D01*
X167673329Y-113811514D01*
X167917298Y-113883097D01*
X168730395Y-113070000D01*
X169089605Y-113070000D01*
X169902702Y-113883097D01*
X170146671Y-113811514D01*
X170267571Y-113556004D01*
X170336300Y-113281816D01*
X170350217Y-112999488D01*
X170308787Y-112719870D01*
X170213603Y-112453708D01*
X170146671Y-112328486D01*
X169902702Y-112256903D01*
X169089605Y-113070000D01*
X168730395Y-113070000D01*
X167917298Y-112256903D01*
X167673329Y-112328486D01*
X167552429Y-112583996D01*
X167483700Y-112858184D01*
X167469783Y-113140512D01*
X155600000Y-113140512D01*
X155600000Y-112077298D01*
X168096903Y-112077298D01*
X168910000Y-112890395D01*
X169723097Y-112077298D01*
X169651514Y-111833329D01*
X169396004Y-111712429D01*
X169121816Y-111643700D01*
X168839488Y-111629783D01*
X168559870Y-111671213D01*
X168293708Y-111766397D01*
X168168486Y-111833329D01*
X168096903Y-112077298D01*
X155600000Y-112077298D01*
X155600000Y-107808665D01*
X167475000Y-107808665D01*
X167475000Y-108091335D01*
X167530147Y-108368574D01*
X167638320Y-108629727D01*
X167795363Y-108864759D01*
X167995241Y-109064637D01*
X168230273Y-109221680D01*
X168491426Y-109329853D01*
X168768665Y-109385000D01*
X169051335Y-109385000D01*
X169328574Y-109329853D01*
X169589727Y-109221680D01*
X169824759Y-109064637D01*
X170024637Y-108864759D01*
X170181680Y-108629727D01*
X170289853Y-108368574D01*
X170345000Y-108091335D01*
X170345000Y-107808665D01*
X170289853Y-107531426D01*
X170181680Y-107270273D01*
X170024637Y-107035241D01*
X169824759Y-106835363D01*
X169624131Y-106701308D01*
X169651514Y-106686671D01*
X169723097Y-106442702D01*
X168910000Y-105629605D01*
X168096903Y-106442702D01*
X168168486Y-106686671D01*
X168197341Y-106700324D01*
X167995241Y-106835363D01*
X167795363Y-107035241D01*
X167638320Y-107270273D01*
X167530147Y-107531426D01*
X167475000Y-107808665D01*
X155600000Y-107808665D01*
X155600000Y-105268665D01*
X161125000Y-105268665D01*
X161125000Y-105551335D01*
X161180147Y-105828574D01*
X161288320Y-106089727D01*
X161445363Y-106324759D01*
X161645241Y-106524637D01*
X161880273Y-106681680D01*
X162141426Y-106789853D01*
X162418665Y-106845000D01*
X162701335Y-106845000D01*
X162978574Y-106789853D01*
X163239727Y-106681680D01*
X163474759Y-106524637D01*
X163674637Y-106324759D01*
X163831680Y-106089727D01*
X163939853Y-105828574D01*
X163995000Y-105551335D01*
X163995000Y-105520512D01*
X167469783Y-105520512D01*
X167511213Y-105800130D01*
X167606397Y-106066292D01*
X167673329Y-106191514D01*
X167917298Y-106263097D01*
X168730395Y-105450000D01*
X169089605Y-105450000D01*
X169902702Y-106263097D01*
X170146671Y-106191514D01*
X170267571Y-105936004D01*
X170336300Y-105661816D01*
X170350217Y-105379488D01*
X170308787Y-105099870D01*
X170213603Y-104833708D01*
X170146671Y-104708486D01*
X169902702Y-104636903D01*
X169089605Y-105450000D01*
X168730395Y-105450000D01*
X167917298Y-104636903D01*
X167673329Y-104708486D01*
X167552429Y-104963996D01*
X167483700Y-105238184D01*
X167469783Y-105520512D01*
X163995000Y-105520512D01*
X163995000Y-105268665D01*
X163939853Y-104991426D01*
X163831680Y-104730273D01*
X163674637Y-104495241D01*
X163636694Y-104457298D01*
X168096903Y-104457298D01*
X168910000Y-105270395D01*
X169723097Y-104457298D01*
X169651514Y-104213329D01*
X169396004Y-104092429D01*
X169121816Y-104023700D01*
X168839488Y-104009783D01*
X168559870Y-104051213D01*
X168293708Y-104146397D01*
X168168486Y-104213329D01*
X168096903Y-104457298D01*
X163636694Y-104457298D01*
X163474759Y-104295363D01*
X163239727Y-104138320D01*
X162978574Y-104030147D01*
X162701335Y-103975000D01*
X162418665Y-103975000D01*
X162141426Y-104030147D01*
X161880273Y-104138320D01*
X161645241Y-104295363D01*
X161445363Y-104495241D01*
X161288320Y-104730273D01*
X161180147Y-104991426D01*
X161125000Y-105268665D01*
X155600000Y-105268665D01*
X155600000Y-97315881D01*
X157498724Y-97315881D01*
X157858912Y-97805548D01*
X158522882Y-98165849D01*
X159244385Y-98389694D01*
X159995695Y-98468480D01*
X160747938Y-98399178D01*
X161472208Y-98184452D01*
X162140670Y-97832555D01*
X162181088Y-97805548D01*
X162541276Y-97315881D01*
X160020000Y-94794605D01*
X157498724Y-97315881D01*
X155600000Y-97315881D01*
X155600000Y-94253380D01*
X156349349Y-93504031D01*
X156245306Y-93839385D01*
X156166520Y-94590695D01*
X156235822Y-95342938D01*
X156450548Y-96067208D01*
X156802445Y-96735670D01*
X156829452Y-96776088D01*
X157319119Y-97136276D01*
X159840395Y-94615000D01*
X160199605Y-94615000D01*
X162720881Y-97136276D01*
X163210548Y-96776088D01*
X163232844Y-96735000D01*
X168056928Y-96735000D01*
X168069188Y-96859482D01*
X168105498Y-96979180D01*
X168164463Y-97089494D01*
X168243815Y-97186185D01*
X168340506Y-97265537D01*
X168450820Y-97324502D01*
X168570518Y-97360812D01*
X168695000Y-97373072D01*
X169259250Y-97370000D01*
X169418000Y-97211250D01*
X169418000Y-96012000D01*
X168218750Y-96012000D01*
X168060000Y-96170750D01*
X168056928Y-96735000D01*
X163232844Y-96735000D01*
X163570849Y-96112118D01*
X163794694Y-95390615D01*
X163831985Y-95035000D01*
X168056928Y-95035000D01*
X168060000Y-95599250D01*
X168218750Y-95758000D01*
X169418000Y-95758000D01*
X169418000Y-95738000D01*
X169672000Y-95738000D01*
X169672000Y-95758000D01*
X169692000Y-95758000D01*
X169692000Y-96012000D01*
X169672000Y-96012000D01*
X169672000Y-97211250D01*
X169830750Y-97370000D01*
X170395000Y-97373072D01*
X170519482Y-97360812D01*
X170639180Y-97324502D01*
X170749494Y-97265537D01*
X170846185Y-97186185D01*
X170925537Y-97089494D01*
X170984502Y-96979180D01*
X171006513Y-96906620D01*
X171138368Y-97038475D01*
X171300001Y-97146474D01*
X171300001Y-97751438D01*
X171296203Y-97790000D01*
X171311359Y-97943886D01*
X171356246Y-98091859D01*
X171356247Y-98091860D01*
X171429139Y-98228233D01*
X171464403Y-98271202D01*
X171502655Y-98317812D01*
X171502656Y-98317813D01*
X171527237Y-98347764D01*
X171557185Y-98372342D01*
X173840000Y-100655158D01*
X173840001Y-111716288D01*
X173821063Y-111735226D01*
X173707795Y-111904744D01*
X173629774Y-112093102D01*
X173590000Y-112293061D01*
X173590000Y-112496939D01*
X173629774Y-112696898D01*
X173707795Y-112885256D01*
X173821063Y-113054774D01*
X173965226Y-113198937D01*
X174134744Y-113312205D01*
X174323102Y-113390226D01*
X174523061Y-113430000D01*
X174726939Y-113430000D01*
X174926898Y-113390226D01*
X175115256Y-113312205D01*
X175260000Y-113215490D01*
X175404744Y-113312205D01*
X175593102Y-113390226D01*
X175793061Y-113430000D01*
X175996939Y-113430000D01*
X176196898Y-113390226D01*
X176385256Y-113312205D01*
X176530005Y-113215487D01*
X176674754Y-113312205D01*
X176863112Y-113390226D01*
X177063071Y-113430000D01*
X177266949Y-113430000D01*
X177466908Y-113390226D01*
X177655266Y-113312205D01*
X177800005Y-113215494D01*
X177944744Y-113312205D01*
X178133102Y-113390226D01*
X178333061Y-113430000D01*
X178536939Y-113430000D01*
X178736898Y-113390226D01*
X178925256Y-113312205D01*
X179069995Y-113215494D01*
X179214734Y-113312205D01*
X179403092Y-113390226D01*
X179603051Y-113430000D01*
X179806929Y-113430000D01*
X180006888Y-113390226D01*
X180195246Y-113312205D01*
X180339995Y-113215487D01*
X180484744Y-113312205D01*
X180673102Y-113390226D01*
X180873061Y-113430000D01*
X181076939Y-113430000D01*
X181276898Y-113390226D01*
X181465256Y-113312205D01*
X181610000Y-113215490D01*
X181754744Y-113312205D01*
X181943102Y-113390226D01*
X182143061Y-113430000D01*
X182346939Y-113430000D01*
X182546898Y-113390226D01*
X182735256Y-113312205D01*
X182880000Y-113215490D01*
X183024744Y-113312205D01*
X183213102Y-113390226D01*
X183413061Y-113430000D01*
X183616939Y-113430000D01*
X183816898Y-113390226D01*
X184005256Y-113312205D01*
X184150000Y-113215490D01*
X184294744Y-113312205D01*
X184483102Y-113390226D01*
X184683061Y-113430000D01*
X184886939Y-113430000D01*
X185086898Y-113390226D01*
X185275256Y-113312205D01*
X185444774Y-113198937D01*
X185588937Y-113054774D01*
X185702205Y-112885256D01*
X185780226Y-112696898D01*
X185820000Y-112496939D01*
X185820000Y-112293061D01*
X185780226Y-112093102D01*
X185702205Y-111904744D01*
X185588937Y-111735226D01*
X185570000Y-111716289D01*
X185570000Y-105735157D01*
X192932816Y-98372342D01*
X192962764Y-98347764D01*
X192987346Y-98317812D01*
X193011450Y-98288441D01*
X193060862Y-98228233D01*
X193133754Y-98091860D01*
X193178641Y-97943887D01*
X193190000Y-97828561D01*
X193190000Y-97828554D01*
X193193797Y-97790001D01*
X193190000Y-97751448D01*
X193190000Y-97146474D01*
X193351632Y-97038475D01*
X193558475Y-96831632D01*
X193720990Y-96588411D01*
X193832932Y-96318158D01*
X193890000Y-96031260D01*
X193890000Y-95738740D01*
X193832932Y-95451842D01*
X193720990Y-95181589D01*
X193558475Y-94938368D01*
X193351632Y-94731525D01*
X193178271Y-94615689D01*
X193253792Y-94373397D01*
X192405000Y-93524605D01*
X191556208Y-94373397D01*
X191631729Y-94615689D01*
X191458368Y-94731525D01*
X191251525Y-94938368D01*
X191135000Y-95112760D01*
X191018475Y-94938368D01*
X190811632Y-94731525D01*
X190637240Y-94615000D01*
X190811632Y-94498475D01*
X191018475Y-94291632D01*
X191134311Y-94118271D01*
X191376603Y-94193792D01*
X192225395Y-93345000D01*
X192584605Y-93345000D01*
X193433397Y-94193792D01*
X193682472Y-94116157D01*
X193808371Y-93852117D01*
X193880339Y-93568589D01*
X193895611Y-93276469D01*
X193853599Y-92986981D01*
X193755919Y-92711253D01*
X193682472Y-92573843D01*
X193433397Y-92496208D01*
X192584605Y-93345000D01*
X192225395Y-93345000D01*
X191376603Y-92496208D01*
X191134311Y-92571729D01*
X191018475Y-92398368D01*
X190936710Y-92316603D01*
X191556208Y-92316603D01*
X192405000Y-93165395D01*
X193075395Y-92495000D01*
X199171928Y-92495000D01*
X199171928Y-94195000D01*
X199184188Y-94319482D01*
X199220498Y-94439180D01*
X199279463Y-94549494D01*
X199358815Y-94646185D01*
X199455506Y-94725537D01*
X199525001Y-94762683D01*
X199525000Y-121229249D01*
X199519509Y-121285000D01*
X199525000Y-121340751D01*
X199541423Y-121507498D01*
X199606324Y-121721446D01*
X199711716Y-121918623D01*
X199853551Y-122091449D01*
X199896865Y-122126996D01*
X204360515Y-126590647D01*
X204396686Y-126772490D01*
X204501995Y-127026727D01*
X204654880Y-127255535D01*
X204849465Y-127450120D01*
X205078273Y-127603005D01*
X205332510Y-127708314D01*
X205602408Y-127762000D01*
X205877592Y-127762000D01*
X206147490Y-127708314D01*
X206401727Y-127603005D01*
X206630535Y-127450120D01*
X206825120Y-127255535D01*
X206978005Y-127026727D01*
X207010000Y-126949485D01*
X207041995Y-127026727D01*
X207194880Y-127255535D01*
X207389465Y-127450120D01*
X207618273Y-127603005D01*
X207872510Y-127708314D01*
X208142408Y-127762000D01*
X208417592Y-127762000D01*
X208687490Y-127708314D01*
X208941727Y-127603005D01*
X209170535Y-127450120D01*
X209365120Y-127255535D01*
X209518005Y-127026727D01*
X209550000Y-126949485D01*
X209581995Y-127026727D01*
X209734880Y-127255535D01*
X209929465Y-127450120D01*
X210158273Y-127603005D01*
X210412510Y-127708314D01*
X210682408Y-127762000D01*
X210957592Y-127762000D01*
X211227490Y-127708314D01*
X211481727Y-127603005D01*
X211710535Y-127450120D01*
X211905120Y-127255535D01*
X212058005Y-127026727D01*
X212090000Y-126949485D01*
X212121995Y-127026727D01*
X212274880Y-127255535D01*
X212469465Y-127450120D01*
X212698273Y-127603005D01*
X212952510Y-127708314D01*
X213222408Y-127762000D01*
X213497592Y-127762000D01*
X213767490Y-127708314D01*
X214021727Y-127603005D01*
X214250535Y-127450120D01*
X214445120Y-127255535D01*
X214598005Y-127026727D01*
X214630000Y-126949485D01*
X214661995Y-127026727D01*
X214814880Y-127255535D01*
X215009465Y-127450120D01*
X215238273Y-127603005D01*
X215492510Y-127708314D01*
X215762408Y-127762000D01*
X216037592Y-127762000D01*
X216307490Y-127708314D01*
X216561727Y-127603005D01*
X216790535Y-127450120D01*
X216985120Y-127255535D01*
X217138005Y-127026727D01*
X217170000Y-126949485D01*
X217201995Y-127026727D01*
X217354880Y-127255535D01*
X217549465Y-127450120D01*
X217778273Y-127603005D01*
X218032510Y-127708314D01*
X218302408Y-127762000D01*
X218577592Y-127762000D01*
X218847490Y-127708314D01*
X219101727Y-127603005D01*
X219330535Y-127450120D01*
X219525120Y-127255535D01*
X219678005Y-127026727D01*
X219710000Y-126949485D01*
X219741995Y-127026727D01*
X219894880Y-127255535D01*
X220089465Y-127450120D01*
X220318273Y-127603005D01*
X220572510Y-127708314D01*
X220842408Y-127762000D01*
X221117592Y-127762000D01*
X221387490Y-127708314D01*
X221641727Y-127603005D01*
X221870535Y-127450120D01*
X222065120Y-127255535D01*
X222218005Y-127026727D01*
X222250000Y-126949485D01*
X222281995Y-127026727D01*
X222434880Y-127255535D01*
X222629465Y-127450120D01*
X222858273Y-127603005D01*
X223112510Y-127708314D01*
X223382408Y-127762000D01*
X223657592Y-127762000D01*
X223927490Y-127708314D01*
X224181727Y-127603005D01*
X224410535Y-127450120D01*
X224605120Y-127255535D01*
X224758005Y-127026727D01*
X224790000Y-126949485D01*
X224821995Y-127026727D01*
X224974880Y-127255535D01*
X225169465Y-127450120D01*
X225398273Y-127603005D01*
X225652510Y-127708314D01*
X225922408Y-127762000D01*
X226197592Y-127762000D01*
X226467490Y-127708314D01*
X226721727Y-127603005D01*
X226950535Y-127450120D01*
X227145120Y-127255535D01*
X227298005Y-127026727D01*
X227330000Y-126949485D01*
X227361995Y-127026727D01*
X227514880Y-127255535D01*
X227709465Y-127450120D01*
X227938273Y-127603005D01*
X228192510Y-127708314D01*
X228462408Y-127762000D01*
X228737592Y-127762000D01*
X229007490Y-127708314D01*
X229261727Y-127603005D01*
X229490535Y-127450120D01*
X229685120Y-127255535D01*
X229838005Y-127026727D01*
X229870000Y-126949485D01*
X229901995Y-127026727D01*
X230054880Y-127255535D01*
X230249465Y-127450120D01*
X230478273Y-127603005D01*
X230732510Y-127708314D01*
X231002408Y-127762000D01*
X231277592Y-127762000D01*
X231547490Y-127708314D01*
X231801727Y-127603005D01*
X232030535Y-127450120D01*
X232225120Y-127255535D01*
X232378005Y-127026727D01*
X232410000Y-126949485D01*
X232441995Y-127026727D01*
X232594880Y-127255535D01*
X232789465Y-127450120D01*
X233018273Y-127603005D01*
X233272510Y-127708314D01*
X233542408Y-127762000D01*
X233817592Y-127762000D01*
X234087490Y-127708314D01*
X234341727Y-127603005D01*
X234570535Y-127450120D01*
X234765120Y-127255535D01*
X234918005Y-127026727D01*
X234950000Y-126949485D01*
X234981995Y-127026727D01*
X235134880Y-127255535D01*
X235329465Y-127450120D01*
X235558273Y-127603005D01*
X235812510Y-127708314D01*
X236082408Y-127762000D01*
X236357592Y-127762000D01*
X236627490Y-127708314D01*
X236881727Y-127603005D01*
X237110535Y-127450120D01*
X237305120Y-127255535D01*
X237363920Y-127167535D01*
X237372188Y-127251482D01*
X237408498Y-127371180D01*
X237467463Y-127481494D01*
X237546815Y-127578185D01*
X237643506Y-127657537D01*
X237753820Y-127716502D01*
X237873518Y-127752812D01*
X237998000Y-127765072D01*
X238474250Y-127762000D01*
X238633000Y-127603250D01*
X238633000Y-126492000D01*
X238613000Y-126492000D01*
X238613000Y-126238000D01*
X238633000Y-126238000D01*
X238633000Y-125126750D01*
X238887000Y-125126750D01*
X238887000Y-126238000D01*
X238907000Y-126238000D01*
X238907000Y-126492000D01*
X238887000Y-126492000D01*
X238887000Y-127603250D01*
X239045750Y-127762000D01*
X239522000Y-127765072D01*
X239646482Y-127752812D01*
X239766180Y-127716502D01*
X239876494Y-127657537D01*
X239973185Y-127578185D01*
X240052537Y-127481494D01*
X240111502Y-127371180D01*
X240147812Y-127251482D01*
X240156080Y-127167535D01*
X240214880Y-127255535D01*
X240409465Y-127450120D01*
X240638273Y-127603005D01*
X240892510Y-127708314D01*
X241162408Y-127762000D01*
X241437592Y-127762000D01*
X241707490Y-127708314D01*
X241961727Y-127603005D01*
X242190535Y-127450120D01*
X242385120Y-127255535D01*
X242538005Y-127026727D01*
X242570000Y-126949485D01*
X242601995Y-127026727D01*
X242754880Y-127255535D01*
X242949465Y-127450120D01*
X243178273Y-127603005D01*
X243432510Y-127708314D01*
X243702408Y-127762000D01*
X243977592Y-127762000D01*
X244247490Y-127708314D01*
X244501727Y-127603005D01*
X244730535Y-127450120D01*
X244925120Y-127255535D01*
X245078005Y-127026727D01*
X245110000Y-126949485D01*
X245141995Y-127026727D01*
X245294880Y-127255535D01*
X245489465Y-127450120D01*
X245718273Y-127603005D01*
X245972510Y-127708314D01*
X246242408Y-127762000D01*
X246517592Y-127762000D01*
X246787490Y-127708314D01*
X247041727Y-127603005D01*
X247270535Y-127450120D01*
X247465120Y-127255535D01*
X247618005Y-127026727D01*
X247650000Y-126949485D01*
X247681995Y-127026727D01*
X247834880Y-127255535D01*
X248029465Y-127450120D01*
X248258273Y-127603005D01*
X248512510Y-127708314D01*
X248782408Y-127762000D01*
X249057592Y-127762000D01*
X249327490Y-127708314D01*
X249581727Y-127603005D01*
X249810535Y-127450120D01*
X250005120Y-127255535D01*
X250158005Y-127026727D01*
X250190000Y-126949485D01*
X250221995Y-127026727D01*
X250374880Y-127255535D01*
X250569465Y-127450120D01*
X250798273Y-127603005D01*
X251052510Y-127708314D01*
X251322408Y-127762000D01*
X251597592Y-127762000D01*
X251867490Y-127708314D01*
X252121727Y-127603005D01*
X252350535Y-127450120D01*
X252545120Y-127255535D01*
X252698005Y-127026727D01*
X252803314Y-126772490D01*
X252857000Y-126502592D01*
X252857000Y-126227408D01*
X252803314Y-125957510D01*
X252698005Y-125703273D01*
X252545120Y-125474465D01*
X252350535Y-125279880D01*
X252121727Y-125126995D01*
X251867490Y-125021686D01*
X251597592Y-124968000D01*
X251322408Y-124968000D01*
X251052510Y-125021686D01*
X250798273Y-125126995D01*
X250569465Y-125279880D01*
X250374880Y-125474465D01*
X250221995Y-125703273D01*
X250190000Y-125780515D01*
X250158005Y-125703273D01*
X250005120Y-125474465D01*
X249810535Y-125279880D01*
X249581727Y-125126995D01*
X249327490Y-125021686D01*
X249057592Y-124968000D01*
X248782408Y-124968000D01*
X248512510Y-125021686D01*
X248258273Y-125126995D01*
X248029465Y-125279880D01*
X247834880Y-125474465D01*
X247681995Y-125703273D01*
X247650000Y-125780515D01*
X247618005Y-125703273D01*
X247465120Y-125474465D01*
X247270535Y-125279880D01*
X247041727Y-125126995D01*
X246787490Y-125021686D01*
X246517592Y-124968000D01*
X246242408Y-124968000D01*
X245972510Y-125021686D01*
X245718273Y-125126995D01*
X245489465Y-125279880D01*
X245294880Y-125474465D01*
X245141995Y-125703273D01*
X245110000Y-125780515D01*
X245078005Y-125703273D01*
X244925120Y-125474465D01*
X244730535Y-125279880D01*
X244501727Y-125126995D01*
X244247490Y-125021686D01*
X243977592Y-124968000D01*
X243702408Y-124968000D01*
X243432510Y-125021686D01*
X243178273Y-125126995D01*
X242949465Y-125279880D01*
X242754880Y-125474465D01*
X242601995Y-125703273D01*
X242570000Y-125780515D01*
X242538005Y-125703273D01*
X242385120Y-125474465D01*
X242190535Y-125279880D01*
X241961727Y-125126995D01*
X241707490Y-125021686D01*
X241437592Y-124968000D01*
X241162408Y-124968000D01*
X240892510Y-125021686D01*
X240638273Y-125126995D01*
X240409465Y-125279880D01*
X240214880Y-125474465D01*
X240156080Y-125562465D01*
X240147812Y-125478518D01*
X240111502Y-125358820D01*
X240052537Y-125248506D01*
X239973185Y-125151815D01*
X239876494Y-125072463D01*
X239766180Y-125013498D01*
X239646482Y-124977188D01*
X239522000Y-124964928D01*
X239045750Y-124968000D01*
X238887000Y-125126750D01*
X238633000Y-125126750D01*
X238474250Y-124968000D01*
X237998000Y-124964928D01*
X237873518Y-124977188D01*
X237753820Y-125013498D01*
X237643506Y-125072463D01*
X237546815Y-125151815D01*
X237467463Y-125248506D01*
X237408498Y-125358820D01*
X237372188Y-125478518D01*
X237363920Y-125562465D01*
X237305120Y-125474465D01*
X237110535Y-125279880D01*
X236881727Y-125126995D01*
X236627490Y-125021686D01*
X236357592Y-124968000D01*
X236082408Y-124968000D01*
X235812510Y-125021686D01*
X235558273Y-125126995D01*
X235329465Y-125279880D01*
X235134880Y-125474465D01*
X234981995Y-125703273D01*
X234950000Y-125780515D01*
X234918005Y-125703273D01*
X234765120Y-125474465D01*
X234570535Y-125279880D01*
X234341727Y-125126995D01*
X234087490Y-125021686D01*
X233817592Y-124968000D01*
X233542408Y-124968000D01*
X233272510Y-125021686D01*
X233018273Y-125126995D01*
X232789465Y-125279880D01*
X232594880Y-125474465D01*
X232441995Y-125703273D01*
X232410000Y-125780515D01*
X232378005Y-125703273D01*
X232225120Y-125474465D01*
X232030535Y-125279880D01*
X231801727Y-125126995D01*
X231547490Y-125021686D01*
X231277592Y-124968000D01*
X231002408Y-124968000D01*
X230732510Y-125021686D01*
X230478273Y-125126995D01*
X230249465Y-125279880D01*
X230054880Y-125474465D01*
X229901995Y-125703273D01*
X229870000Y-125780515D01*
X229838005Y-125703273D01*
X229685120Y-125474465D01*
X229490535Y-125279880D01*
X229261727Y-125126995D01*
X229007490Y-125021686D01*
X228737592Y-124968000D01*
X228462408Y-124968000D01*
X228192510Y-125021686D01*
X227938273Y-125126995D01*
X227709465Y-125279880D01*
X227514880Y-125474465D01*
X227361995Y-125703273D01*
X227330000Y-125780515D01*
X227298005Y-125703273D01*
X227145120Y-125474465D01*
X226950535Y-125279880D01*
X226721727Y-125126995D01*
X226467490Y-125021686D01*
X226197592Y-124968000D01*
X225922408Y-124968000D01*
X225652510Y-125021686D01*
X225398273Y-125126995D01*
X225169465Y-125279880D01*
X224974880Y-125474465D01*
X224821995Y-125703273D01*
X224790000Y-125780515D01*
X224758005Y-125703273D01*
X224605120Y-125474465D01*
X224410535Y-125279880D01*
X224181727Y-125126995D01*
X223927490Y-125021686D01*
X223657592Y-124968000D01*
X223382408Y-124968000D01*
X223112510Y-125021686D01*
X222858273Y-125126995D01*
X222629465Y-125279880D01*
X222434880Y-125474465D01*
X222281995Y-125703273D01*
X222250000Y-125780515D01*
X222218005Y-125703273D01*
X222065120Y-125474465D01*
X221870535Y-125279880D01*
X221641727Y-125126995D01*
X221387490Y-125021686D01*
X221117592Y-124968000D01*
X220842408Y-124968000D01*
X220572510Y-125021686D01*
X220318273Y-125126995D01*
X220089465Y-125279880D01*
X219894880Y-125474465D01*
X219741995Y-125703273D01*
X219710000Y-125780515D01*
X219678005Y-125703273D01*
X219525120Y-125474465D01*
X219330535Y-125279880D01*
X219101727Y-125126995D01*
X218847490Y-125021686D01*
X218577592Y-124968000D01*
X218302408Y-124968000D01*
X218032510Y-125021686D01*
X217778273Y-125126995D01*
X217549465Y-125279880D01*
X217354880Y-125474465D01*
X217201995Y-125703273D01*
X217170000Y-125780515D01*
X217138005Y-125703273D01*
X216985120Y-125474465D01*
X216790535Y-125279880D01*
X216561727Y-125126995D01*
X216307490Y-125021686D01*
X216037592Y-124968000D01*
X215762408Y-124968000D01*
X215492510Y-125021686D01*
X215238273Y-125126995D01*
X215009465Y-125279880D01*
X214814880Y-125474465D01*
X214661995Y-125703273D01*
X214630000Y-125780515D01*
X214598005Y-125703273D01*
X214445120Y-125474465D01*
X214250535Y-125279880D01*
X214021727Y-125126995D01*
X213767490Y-125021686D01*
X213497592Y-124968000D01*
X213222408Y-124968000D01*
X212952510Y-125021686D01*
X212698273Y-125126995D01*
X212469465Y-125279880D01*
X212274880Y-125474465D01*
X212121995Y-125703273D01*
X212090000Y-125780515D01*
X212058005Y-125703273D01*
X211905120Y-125474465D01*
X211710535Y-125279880D01*
X211481727Y-125126995D01*
X211227490Y-125021686D01*
X211045647Y-124985515D01*
X204335000Y-118274869D01*
X204335000Y-104267000D01*
X204339928Y-104267000D01*
X204352188Y-104391482D01*
X204388498Y-104511180D01*
X204447463Y-104621494D01*
X204526815Y-104718185D01*
X204623506Y-104797537D01*
X204733820Y-104856502D01*
X204853518Y-104892812D01*
X204978000Y-104905072D01*
X205454250Y-104902000D01*
X205613000Y-104743250D01*
X205613000Y-103632000D01*
X204501750Y-103632000D01*
X204343000Y-103790750D01*
X204339928Y-104267000D01*
X204335000Y-104267000D01*
X204335000Y-101727000D01*
X204339928Y-101727000D01*
X204352188Y-101851482D01*
X204388498Y-101971180D01*
X204447463Y-102081494D01*
X204526815Y-102178185D01*
X204596044Y-102235000D01*
X204526815Y-102291815D01*
X204447463Y-102388506D01*
X204388498Y-102498820D01*
X204352188Y-102618518D01*
X204339928Y-102743000D01*
X204343000Y-103219250D01*
X204501750Y-103378000D01*
X205613000Y-103378000D01*
X205613000Y-102266750D01*
X205581250Y-102235000D01*
X205613000Y-102203250D01*
X205613000Y-101092000D01*
X204501750Y-101092000D01*
X204343000Y-101250750D01*
X204339928Y-101727000D01*
X204335000Y-101727000D01*
X204335000Y-100203000D01*
X204339928Y-100203000D01*
X204343000Y-100679250D01*
X204501750Y-100838000D01*
X205613000Y-100838000D01*
X205613000Y-99726750D01*
X205867000Y-99726750D01*
X205867000Y-100838000D01*
X205887000Y-100838000D01*
X205887000Y-101092000D01*
X205867000Y-101092000D01*
X205867000Y-102203250D01*
X205898750Y-102235000D01*
X205867000Y-102266750D01*
X205867000Y-103378000D01*
X205887000Y-103378000D01*
X205887000Y-103632000D01*
X205867000Y-103632000D01*
X205867000Y-104743250D01*
X206025750Y-104902000D01*
X206502000Y-104905072D01*
X206626482Y-104892812D01*
X206746180Y-104856502D01*
X206856494Y-104797537D01*
X206953185Y-104718185D01*
X207032537Y-104621494D01*
X207091502Y-104511180D01*
X207127812Y-104391482D01*
X207136080Y-104307535D01*
X207194880Y-104395535D01*
X207389465Y-104590120D01*
X207395000Y-104593819D01*
X207395001Y-108853426D01*
X206892236Y-109356191D01*
X206678937Y-109398619D01*
X206472380Y-109484178D01*
X206286484Y-109608390D01*
X206128392Y-109766482D01*
X206004180Y-109952378D01*
X205918621Y-110158935D01*
X205875004Y-110378214D01*
X205875004Y-110601790D01*
X205918621Y-110821069D01*
X206004180Y-111027626D01*
X206128392Y-111213522D01*
X206286484Y-111371614D01*
X206472380Y-111495826D01*
X206678937Y-111581385D01*
X206898216Y-111625002D01*
X207121792Y-111625002D01*
X207341071Y-111581385D01*
X207547628Y-111495826D01*
X207733524Y-111371614D01*
X207891616Y-111213522D01*
X208015828Y-111027626D01*
X208101387Y-110821069D01*
X208143815Y-110607770D01*
X208875049Y-109876536D01*
X208908817Y-109848823D01*
X209019411Y-109714065D01*
X209075895Y-109608390D01*
X209101589Y-109560320D01*
X209152195Y-109393496D01*
X209153032Y-109385000D01*
X209165000Y-109263483D01*
X209165000Y-109263475D01*
X209169281Y-109220006D01*
X209165000Y-109176537D01*
X209165000Y-104593818D01*
X209170535Y-104590120D01*
X209365120Y-104395535D01*
X209518005Y-104166727D01*
X209550000Y-104089485D01*
X209581995Y-104166727D01*
X209734880Y-104395535D01*
X209929465Y-104590120D01*
X210158273Y-104743005D01*
X210412510Y-104848314D01*
X210682408Y-104902000D01*
X210957592Y-104902000D01*
X211227490Y-104848314D01*
X211481727Y-104743005D01*
X211710535Y-104590120D01*
X211905120Y-104395535D01*
X212058005Y-104166727D01*
X212090000Y-104089485D01*
X212121995Y-104166727D01*
X212274880Y-104395535D01*
X212469465Y-104590120D01*
X212698273Y-104743005D01*
X212952510Y-104848314D01*
X213222408Y-104902000D01*
X213497592Y-104902000D01*
X213767490Y-104848314D01*
X214021727Y-104743005D01*
X214250535Y-104590120D01*
X214445120Y-104395535D01*
X214598005Y-104166727D01*
X214630000Y-104089485D01*
X214661995Y-104166727D01*
X214814880Y-104395535D01*
X215009465Y-104590120D01*
X215238273Y-104743005D01*
X215492510Y-104848314D01*
X215762408Y-104902000D01*
X216037592Y-104902000D01*
X216307490Y-104848314D01*
X216561727Y-104743005D01*
X216790535Y-104590120D01*
X216985120Y-104395535D01*
X217138005Y-104166727D01*
X217170000Y-104089485D01*
X217201995Y-104166727D01*
X217354880Y-104395535D01*
X217549465Y-104590120D01*
X217555000Y-104593818D01*
X217555001Y-109488366D01*
X215147178Y-111896189D01*
X214933879Y-111938617D01*
X214727322Y-112024176D01*
X214541426Y-112148388D01*
X214383334Y-112306480D01*
X214259122Y-112492376D01*
X214173563Y-112698933D01*
X214129946Y-112918212D01*
X214129946Y-113141788D01*
X214173563Y-113361067D01*
X214259122Y-113567624D01*
X214383334Y-113753520D01*
X214541426Y-113911612D01*
X214727322Y-114035824D01*
X214933879Y-114121383D01*
X215153158Y-114165000D01*
X215376734Y-114165000D01*
X215596013Y-114121383D01*
X215802570Y-114035824D01*
X215988466Y-113911612D01*
X216146558Y-113753520D01*
X216270770Y-113567624D01*
X216356329Y-113361067D01*
X216398757Y-113147768D01*
X219035049Y-110511476D01*
X219068817Y-110483763D01*
X219179411Y-110349005D01*
X219261589Y-110195259D01*
X219312195Y-110028436D01*
X219325000Y-109898423D01*
X219325000Y-109898413D01*
X219329281Y-109854947D01*
X219325000Y-109811481D01*
X219325000Y-104593818D01*
X219330535Y-104590120D01*
X219525120Y-104395535D01*
X219583920Y-104307535D01*
X219592188Y-104391482D01*
X219628498Y-104511180D01*
X219687463Y-104621494D01*
X219766815Y-104718185D01*
X219863506Y-104797537D01*
X219973820Y-104856502D01*
X220093518Y-104892812D01*
X220218000Y-104905072D01*
X220694250Y-104902000D01*
X220853000Y-104743250D01*
X220853000Y-103632000D01*
X220833000Y-103632000D01*
X220833000Y-103378000D01*
X220853000Y-103378000D01*
X220853000Y-102266750D01*
X220821250Y-102235000D01*
X220853000Y-102203250D01*
X220853000Y-101092000D01*
X220833000Y-101092000D01*
X220833000Y-100838000D01*
X220853000Y-100838000D01*
X220853000Y-99726750D01*
X221107000Y-99726750D01*
X221107000Y-100838000D01*
X221127000Y-100838000D01*
X221127000Y-101092000D01*
X221107000Y-101092000D01*
X221107000Y-102203250D01*
X221138750Y-102235000D01*
X221107000Y-102266750D01*
X221107000Y-103378000D01*
X221127000Y-103378000D01*
X221127000Y-103632000D01*
X221107000Y-103632000D01*
X221107000Y-104743250D01*
X221265750Y-104902000D01*
X221742000Y-104905072D01*
X221866482Y-104892812D01*
X221986180Y-104856502D01*
X222096494Y-104797537D01*
X222193185Y-104718185D01*
X222272537Y-104621494D01*
X222331502Y-104511180D01*
X222367812Y-104391482D01*
X222376080Y-104307535D01*
X222434880Y-104395535D01*
X222629465Y-104590120D01*
X222858273Y-104743005D01*
X223112510Y-104848314D01*
X223382408Y-104902000D01*
X223657592Y-104902000D01*
X223927490Y-104848314D01*
X224181727Y-104743005D01*
X224410535Y-104590120D01*
X224605120Y-104395535D01*
X224758005Y-104166727D01*
X224790000Y-104089485D01*
X224821995Y-104166727D01*
X224974880Y-104395535D01*
X225169465Y-104590120D01*
X225398273Y-104743005D01*
X225652510Y-104848314D01*
X225922408Y-104902000D01*
X226197592Y-104902000D01*
X226467490Y-104848314D01*
X226721727Y-104743005D01*
X226950535Y-104590120D01*
X227145120Y-104395535D01*
X227298005Y-104166727D01*
X227330000Y-104089485D01*
X227361995Y-104166727D01*
X227514880Y-104395535D01*
X227709465Y-104590120D01*
X227938273Y-104743005D01*
X228192510Y-104848314D01*
X228462408Y-104902000D01*
X228737592Y-104902000D01*
X229007490Y-104848314D01*
X229261727Y-104743005D01*
X229490535Y-104590120D01*
X229685120Y-104395535D01*
X229838005Y-104166727D01*
X229870000Y-104089485D01*
X229901995Y-104166727D01*
X230054880Y-104395535D01*
X230249465Y-104590120D01*
X230478273Y-104743005D01*
X230732510Y-104848314D01*
X231002408Y-104902000D01*
X231277592Y-104902000D01*
X231547490Y-104848314D01*
X231801727Y-104743005D01*
X232030535Y-104590120D01*
X232225120Y-104395535D01*
X232378005Y-104166727D01*
X232410000Y-104089485D01*
X232441995Y-104166727D01*
X232594880Y-104395535D01*
X232789465Y-104590120D01*
X233018273Y-104743005D01*
X233272510Y-104848314D01*
X233542408Y-104902000D01*
X233817592Y-104902000D01*
X234087490Y-104848314D01*
X234341727Y-104743005D01*
X234570535Y-104590120D01*
X234765120Y-104395535D01*
X234918005Y-104166727D01*
X234950000Y-104089485D01*
X234981995Y-104166727D01*
X235134880Y-104395535D01*
X235329465Y-104590120D01*
X235558273Y-104743005D01*
X235812510Y-104848314D01*
X236082408Y-104902000D01*
X236357592Y-104902000D01*
X236627490Y-104848314D01*
X236881727Y-104743005D01*
X237110535Y-104590120D01*
X237305120Y-104395535D01*
X237458005Y-104166727D01*
X237490000Y-104089485D01*
X237521995Y-104166727D01*
X237674880Y-104395535D01*
X237869465Y-104590120D01*
X238098273Y-104743005D01*
X238352510Y-104848314D01*
X238622408Y-104902000D01*
X238897592Y-104902000D01*
X239167490Y-104848314D01*
X239421727Y-104743005D01*
X239650535Y-104590120D01*
X239845120Y-104395535D01*
X239998005Y-104166727D01*
X240030000Y-104089485D01*
X240061995Y-104166727D01*
X240214880Y-104395535D01*
X240409465Y-104590120D01*
X240638273Y-104743005D01*
X240892510Y-104848314D01*
X241162408Y-104902000D01*
X241437592Y-104902000D01*
X241707490Y-104848314D01*
X241961727Y-104743005D01*
X242190535Y-104590120D01*
X242385120Y-104395535D01*
X242538005Y-104166727D01*
X242570000Y-104089485D01*
X242601995Y-104166727D01*
X242754880Y-104395535D01*
X242949465Y-104590120D01*
X243178273Y-104743005D01*
X243432510Y-104848314D01*
X243702408Y-104902000D01*
X243977592Y-104902000D01*
X244247490Y-104848314D01*
X244501727Y-104743005D01*
X244730535Y-104590120D01*
X244925120Y-104395535D01*
X245078005Y-104166727D01*
X245110000Y-104089485D01*
X245141995Y-104166727D01*
X245294880Y-104395535D01*
X245489465Y-104590120D01*
X245718273Y-104743005D01*
X245972510Y-104848314D01*
X246242408Y-104902000D01*
X246517592Y-104902000D01*
X246787490Y-104848314D01*
X247041727Y-104743005D01*
X247270535Y-104590120D01*
X247465120Y-104395535D01*
X247618005Y-104166727D01*
X247650000Y-104089485D01*
X247681995Y-104166727D01*
X247834880Y-104395535D01*
X248029465Y-104590120D01*
X248258273Y-104743005D01*
X248512510Y-104848314D01*
X248782408Y-104902000D01*
X249057592Y-104902000D01*
X249327490Y-104848314D01*
X249581727Y-104743005D01*
X249810535Y-104590120D01*
X250005120Y-104395535D01*
X250158005Y-104166727D01*
X250190000Y-104089485D01*
X250221995Y-104166727D01*
X250374880Y-104395535D01*
X250569465Y-104590120D01*
X250798273Y-104743005D01*
X251052510Y-104848314D01*
X251322408Y-104902000D01*
X251597592Y-104902000D01*
X251867490Y-104848314D01*
X252121727Y-104743005D01*
X252350535Y-104590120D01*
X252545120Y-104395535D01*
X252698005Y-104166727D01*
X252803314Y-103912490D01*
X252857000Y-103642592D01*
X252857000Y-103367408D01*
X252803314Y-103097510D01*
X252698005Y-102843273D01*
X252545120Y-102614465D01*
X252350535Y-102419880D01*
X252121727Y-102266995D01*
X252044485Y-102235000D01*
X252121727Y-102203005D01*
X252350535Y-102050120D01*
X252545120Y-101855535D01*
X252698005Y-101626727D01*
X252803314Y-101372490D01*
X252857000Y-101102592D01*
X252857000Y-100827408D01*
X252803314Y-100557510D01*
X252698005Y-100303273D01*
X252545120Y-100074465D01*
X252350535Y-99879880D01*
X252121727Y-99726995D01*
X251867490Y-99621686D01*
X251597592Y-99568000D01*
X251322408Y-99568000D01*
X251052510Y-99621686D01*
X250798273Y-99726995D01*
X250569465Y-99879880D01*
X250374880Y-100074465D01*
X250221995Y-100303273D01*
X250190000Y-100380515D01*
X250158005Y-100303273D01*
X250005120Y-100074465D01*
X249810535Y-99879880D01*
X249581727Y-99726995D01*
X249327490Y-99621686D01*
X249057592Y-99568000D01*
X248782408Y-99568000D01*
X248512510Y-99621686D01*
X248258273Y-99726995D01*
X248029465Y-99879880D01*
X247834880Y-100074465D01*
X247681995Y-100303273D01*
X247650000Y-100380515D01*
X247618005Y-100303273D01*
X247465120Y-100074465D01*
X247270535Y-99879880D01*
X247041727Y-99726995D01*
X246787490Y-99621686D01*
X246517592Y-99568000D01*
X246242408Y-99568000D01*
X245972510Y-99621686D01*
X245718273Y-99726995D01*
X245489465Y-99879880D01*
X245294880Y-100074465D01*
X245141995Y-100303273D01*
X245110000Y-100380515D01*
X245078005Y-100303273D01*
X244925120Y-100074465D01*
X244730535Y-99879880D01*
X244501727Y-99726995D01*
X244247490Y-99621686D01*
X243977592Y-99568000D01*
X243702408Y-99568000D01*
X243432510Y-99621686D01*
X243178273Y-99726995D01*
X242949465Y-99879880D01*
X242754880Y-100074465D01*
X242601995Y-100303273D01*
X242570000Y-100380515D01*
X242538005Y-100303273D01*
X242385120Y-100074465D01*
X242190535Y-99879880D01*
X241961727Y-99726995D01*
X241707490Y-99621686D01*
X241437592Y-99568000D01*
X241162408Y-99568000D01*
X240892510Y-99621686D01*
X240638273Y-99726995D01*
X240409465Y-99879880D01*
X240214880Y-100074465D01*
X240061995Y-100303273D01*
X240030000Y-100380515D01*
X239998005Y-100303273D01*
X239845120Y-100074465D01*
X239650535Y-99879880D01*
X239421727Y-99726995D01*
X239167490Y-99621686D01*
X238897592Y-99568000D01*
X238622408Y-99568000D01*
X238352510Y-99621686D01*
X238098273Y-99726995D01*
X237869465Y-99879880D01*
X237674880Y-100074465D01*
X237521995Y-100303273D01*
X237490000Y-100380515D01*
X237458005Y-100303273D01*
X237305120Y-100074465D01*
X237110535Y-99879880D01*
X236881727Y-99726995D01*
X236627490Y-99621686D01*
X236357592Y-99568000D01*
X236082408Y-99568000D01*
X235812510Y-99621686D01*
X235558273Y-99726995D01*
X235329465Y-99879880D01*
X235134880Y-100074465D01*
X234981995Y-100303273D01*
X234950000Y-100380515D01*
X234918005Y-100303273D01*
X234765120Y-100074465D01*
X234570535Y-99879880D01*
X234341727Y-99726995D01*
X234087490Y-99621686D01*
X233817592Y-99568000D01*
X233542408Y-99568000D01*
X233272510Y-99621686D01*
X233018273Y-99726995D01*
X232789465Y-99879880D01*
X232594880Y-100074465D01*
X232441995Y-100303273D01*
X232410000Y-100380515D01*
X232378005Y-100303273D01*
X232225120Y-100074465D01*
X232030535Y-99879880D01*
X231801727Y-99726995D01*
X231547490Y-99621686D01*
X231277592Y-99568000D01*
X231002408Y-99568000D01*
X230732510Y-99621686D01*
X230478273Y-99726995D01*
X230249465Y-99879880D01*
X230054880Y-100074465D01*
X229901995Y-100303273D01*
X229870000Y-100380515D01*
X229838005Y-100303273D01*
X229685120Y-100074465D01*
X229490535Y-99879880D01*
X229261727Y-99726995D01*
X229007490Y-99621686D01*
X228737592Y-99568000D01*
X228462408Y-99568000D01*
X228192510Y-99621686D01*
X227938273Y-99726995D01*
X227709465Y-99879880D01*
X227514880Y-100074465D01*
X227361995Y-100303273D01*
X227330000Y-100380515D01*
X227298005Y-100303273D01*
X227145120Y-100074465D01*
X226950535Y-99879880D01*
X226721727Y-99726995D01*
X226467490Y-99621686D01*
X226197592Y-99568000D01*
X225922408Y-99568000D01*
X225652510Y-99621686D01*
X225398273Y-99726995D01*
X225169465Y-99879880D01*
X224974880Y-100074465D01*
X224821995Y-100303273D01*
X224790000Y-100380515D01*
X224758005Y-100303273D01*
X224605120Y-100074465D01*
X224410535Y-99879880D01*
X224181727Y-99726995D01*
X223927490Y-99621686D01*
X223657592Y-99568000D01*
X223382408Y-99568000D01*
X223112510Y-99621686D01*
X222858273Y-99726995D01*
X222629465Y-99879880D01*
X222434880Y-100074465D01*
X222376080Y-100162465D01*
X222367812Y-100078518D01*
X222331502Y-99958820D01*
X222272537Y-99848506D01*
X222193185Y-99751815D01*
X222096494Y-99672463D01*
X221986180Y-99613498D01*
X221866482Y-99577188D01*
X221742000Y-99564928D01*
X221265750Y-99568000D01*
X221107000Y-99726750D01*
X220853000Y-99726750D01*
X220694250Y-99568000D01*
X220218000Y-99564928D01*
X220093518Y-99577188D01*
X219973820Y-99613498D01*
X219863506Y-99672463D01*
X219766815Y-99751815D01*
X219687463Y-99848506D01*
X219628498Y-99958820D01*
X219592188Y-100078518D01*
X219583920Y-100162465D01*
X219525120Y-100074465D01*
X219330535Y-99879880D01*
X219101727Y-99726995D01*
X218847490Y-99621686D01*
X218577592Y-99568000D01*
X218302408Y-99568000D01*
X218032510Y-99621686D01*
X217778273Y-99726995D01*
X217549465Y-99879880D01*
X217354880Y-100074465D01*
X217201995Y-100303273D01*
X217170000Y-100380515D01*
X217138005Y-100303273D01*
X216985120Y-100074465D01*
X216790535Y-99879880D01*
X216561727Y-99726995D01*
X216307490Y-99621686D01*
X216037592Y-99568000D01*
X215762408Y-99568000D01*
X215492510Y-99621686D01*
X215238273Y-99726995D01*
X215009465Y-99879880D01*
X214814880Y-100074465D01*
X214661995Y-100303273D01*
X214630000Y-100380515D01*
X214598005Y-100303273D01*
X214445120Y-100074465D01*
X214250535Y-99879880D01*
X214021727Y-99726995D01*
X213767490Y-99621686D01*
X213497592Y-99568000D01*
X213222408Y-99568000D01*
X212952510Y-99621686D01*
X212698273Y-99726995D01*
X212469465Y-99879880D01*
X212274880Y-100074465D01*
X212121995Y-100303273D01*
X212090000Y-100380515D01*
X212058005Y-100303273D01*
X211905120Y-100074465D01*
X211710535Y-99879880D01*
X211481727Y-99726995D01*
X211227490Y-99621686D01*
X210957592Y-99568000D01*
X210682408Y-99568000D01*
X210412510Y-99621686D01*
X210158273Y-99726995D01*
X209929465Y-99879880D01*
X209734880Y-100074465D01*
X209581995Y-100303273D01*
X209550000Y-100380515D01*
X209518005Y-100303273D01*
X209365120Y-100074465D01*
X209170535Y-99879880D01*
X208941727Y-99726995D01*
X208687490Y-99621686D01*
X208417592Y-99568000D01*
X208142408Y-99568000D01*
X207872510Y-99621686D01*
X207618273Y-99726995D01*
X207389465Y-99879880D01*
X207194880Y-100074465D01*
X207136080Y-100162465D01*
X207127812Y-100078518D01*
X207091502Y-99958820D01*
X207032537Y-99848506D01*
X206953185Y-99751815D01*
X206856494Y-99672463D01*
X206746180Y-99613498D01*
X206626482Y-99577188D01*
X206502000Y-99564928D01*
X206025750Y-99568000D01*
X205867000Y-99726750D01*
X205613000Y-99726750D01*
X205454250Y-99568000D01*
X204978000Y-99564928D01*
X204853518Y-99577188D01*
X204733820Y-99613498D01*
X204623506Y-99672463D01*
X204526815Y-99751815D01*
X204447463Y-99848506D01*
X204388498Y-99958820D01*
X204352188Y-100078518D01*
X204339928Y-100203000D01*
X204335000Y-100203000D01*
X204335000Y-97315881D01*
X246398724Y-97315881D01*
X246758912Y-97805548D01*
X247422882Y-98165849D01*
X248144385Y-98389694D01*
X248895695Y-98468480D01*
X249647938Y-98399178D01*
X250372208Y-98184452D01*
X251040670Y-97832555D01*
X251081088Y-97805548D01*
X251441276Y-97315881D01*
X248920000Y-94794605D01*
X246398724Y-97315881D01*
X204335000Y-97315881D01*
X204335000Y-94310107D01*
X204353475Y-94291632D01*
X204515990Y-94048411D01*
X204627932Y-93778158D01*
X204685000Y-93491260D01*
X204685000Y-93203665D01*
X206845000Y-93203665D01*
X206845000Y-93486335D01*
X206900147Y-93763574D01*
X207008320Y-94024727D01*
X207165363Y-94259759D01*
X207365241Y-94459637D01*
X207600273Y-94616680D01*
X207861426Y-94724853D01*
X208138665Y-94780000D01*
X208421335Y-94780000D01*
X208698574Y-94724853D01*
X208959727Y-94616680D01*
X209194759Y-94459637D01*
X209394637Y-94259759D01*
X209551680Y-94024727D01*
X209659853Y-93763574D01*
X209673684Y-93694039D01*
X217048096Y-93694039D01*
X217088754Y-93828087D01*
X217208963Y-94082420D01*
X217376481Y-94308414D01*
X217584869Y-94497385D01*
X217826119Y-94642070D01*
X218090960Y-94736909D01*
X218313000Y-94615624D01*
X218313000Y-93472000D01*
X218567000Y-93472000D01*
X218567000Y-94615624D01*
X218789040Y-94736909D01*
X219053881Y-94642070D01*
X219295131Y-94497385D01*
X219503519Y-94308414D01*
X219671037Y-94082420D01*
X219791246Y-93828087D01*
X219831904Y-93694039D01*
X219709915Y-93472000D01*
X218567000Y-93472000D01*
X218313000Y-93472000D01*
X217170085Y-93472000D01*
X217048096Y-93694039D01*
X209673684Y-93694039D01*
X209715000Y-93486335D01*
X209715000Y-93203665D01*
X209673685Y-92995961D01*
X217048096Y-92995961D01*
X217170085Y-93218000D01*
X218313000Y-93218000D01*
X218313000Y-92074376D01*
X218567000Y-92074376D01*
X218567000Y-93218000D01*
X219709915Y-93218000D01*
X219831904Y-92995961D01*
X219791246Y-92861913D01*
X219671037Y-92607580D01*
X219587588Y-92495000D01*
X239811928Y-92495000D01*
X239811928Y-94195000D01*
X239824188Y-94319482D01*
X239860498Y-94439180D01*
X239919463Y-94549494D01*
X239998815Y-94646185D01*
X240095506Y-94725537D01*
X240205820Y-94784502D01*
X240325518Y-94820812D01*
X240450000Y-94833072D01*
X242150000Y-94833072D01*
X242274482Y-94820812D01*
X242394180Y-94784502D01*
X242504494Y-94725537D01*
X242601185Y-94646185D01*
X242646724Y-94590695D01*
X245066520Y-94590695D01*
X245135822Y-95342938D01*
X245350548Y-96067208D01*
X245702445Y-96735670D01*
X245729452Y-96776088D01*
X246219119Y-97136276D01*
X248740395Y-94615000D01*
X249099605Y-94615000D01*
X251620881Y-97136276D01*
X252110548Y-96776088D01*
X252470849Y-96112118D01*
X252694694Y-95390615D01*
X252773480Y-94639305D01*
X252704178Y-93887062D01*
X252489452Y-93162792D01*
X252137555Y-92494330D01*
X252110548Y-92453912D01*
X251620881Y-92093724D01*
X249099605Y-94615000D01*
X248740395Y-94615000D01*
X246219119Y-92093724D01*
X245729452Y-92453912D01*
X245369151Y-93117882D01*
X245145306Y-93839385D01*
X245066520Y-94590695D01*
X242646724Y-94590695D01*
X242680537Y-94549494D01*
X242739502Y-94439180D01*
X242775812Y-94319482D01*
X242788072Y-94195000D01*
X242788072Y-92495000D01*
X242775812Y-92370518D01*
X242739502Y-92250820D01*
X242680537Y-92140506D01*
X242601185Y-92043815D01*
X242504494Y-91964463D01*
X242410309Y-91914119D01*
X246398724Y-91914119D01*
X248920000Y-94435395D01*
X251441276Y-91914119D01*
X251081088Y-91424452D01*
X250417118Y-91064151D01*
X249695615Y-90840306D01*
X248944305Y-90761520D01*
X248192062Y-90830822D01*
X247467792Y-91045548D01*
X246799330Y-91397445D01*
X246758912Y-91424452D01*
X246398724Y-91914119D01*
X242410309Y-91914119D01*
X242394180Y-91905498D01*
X242274482Y-91869188D01*
X242150000Y-91856928D01*
X240450000Y-91856928D01*
X240325518Y-91869188D01*
X240205820Y-91905498D01*
X240095506Y-91964463D01*
X239998815Y-92043815D01*
X239919463Y-92140506D01*
X239860498Y-92250820D01*
X239824188Y-92370518D01*
X239811928Y-92495000D01*
X219587588Y-92495000D01*
X219503519Y-92381586D01*
X219295131Y-92192615D01*
X219053881Y-92047930D01*
X218789040Y-91953091D01*
X218567000Y-92074376D01*
X218313000Y-92074376D01*
X218090960Y-91953091D01*
X217826119Y-92047930D01*
X217584869Y-92192615D01*
X217376481Y-92381586D01*
X217208963Y-92607580D01*
X217088754Y-92861913D01*
X217048096Y-92995961D01*
X209673685Y-92995961D01*
X209659853Y-92926426D01*
X209551680Y-92665273D01*
X209394637Y-92430241D01*
X209194759Y-92230363D01*
X208959727Y-92073320D01*
X208698574Y-91965147D01*
X208421335Y-91910000D01*
X208138665Y-91910000D01*
X207861426Y-91965147D01*
X207600273Y-92073320D01*
X207365241Y-92230363D01*
X207165363Y-92430241D01*
X207008320Y-92665273D01*
X206900147Y-92926426D01*
X206845000Y-93203665D01*
X204685000Y-93203665D01*
X204685000Y-93198740D01*
X204627932Y-92911842D01*
X204515990Y-92641589D01*
X204353475Y-92398368D01*
X204146632Y-92191525D01*
X203903411Y-92029010D01*
X203633158Y-91917068D01*
X203346260Y-91860000D01*
X203053740Y-91860000D01*
X202766842Y-91917068D01*
X202496589Y-92029010D01*
X202253368Y-92191525D01*
X202121513Y-92323380D01*
X202099502Y-92250820D01*
X202040537Y-92140506D01*
X201961185Y-92043815D01*
X201864494Y-91964463D01*
X201754180Y-91905498D01*
X201634482Y-91869188D01*
X201510000Y-91856928D01*
X199810000Y-91856928D01*
X199685518Y-91869188D01*
X199565820Y-91905498D01*
X199455506Y-91964463D01*
X199358815Y-92043815D01*
X199279463Y-92140506D01*
X199220498Y-92250820D01*
X199184188Y-92370518D01*
X199171928Y-92495000D01*
X193075395Y-92495000D01*
X193253792Y-92316603D01*
X193176157Y-92067528D01*
X192912117Y-91941629D01*
X192628589Y-91869661D01*
X192336469Y-91854389D01*
X192046981Y-91896401D01*
X191771253Y-91994081D01*
X191633843Y-92067528D01*
X191556208Y-92316603D01*
X190936710Y-92316603D01*
X190811632Y-92191525D01*
X190568411Y-92029010D01*
X190298158Y-91917068D01*
X190011260Y-91860000D01*
X189718740Y-91860000D01*
X189431842Y-91917068D01*
X189161589Y-92029010D01*
X188918368Y-92191525D01*
X188711525Y-92398368D01*
X188595000Y-92572760D01*
X188478475Y-92398368D01*
X188271632Y-92191525D01*
X188028411Y-92029010D01*
X187758158Y-91917068D01*
X187471260Y-91860000D01*
X187178740Y-91860000D01*
X186891842Y-91917068D01*
X186621589Y-92029010D01*
X186378368Y-92191525D01*
X186171525Y-92398368D01*
X186055000Y-92572760D01*
X185938475Y-92398368D01*
X185731632Y-92191525D01*
X185488411Y-92029010D01*
X185218158Y-91917068D01*
X184931260Y-91860000D01*
X184638740Y-91860000D01*
X184351842Y-91917068D01*
X184081589Y-92029010D01*
X183838368Y-92191525D01*
X183631525Y-92398368D01*
X183515000Y-92572760D01*
X183398475Y-92398368D01*
X183191632Y-92191525D01*
X182948411Y-92029010D01*
X182678158Y-91917068D01*
X182391260Y-91860000D01*
X182098740Y-91860000D01*
X181811842Y-91917068D01*
X181541589Y-92029010D01*
X181298368Y-92191525D01*
X181091525Y-92398368D01*
X180975000Y-92572760D01*
X180858475Y-92398368D01*
X180651632Y-92191525D01*
X180408411Y-92029010D01*
X180138158Y-91917068D01*
X179851260Y-91860000D01*
X179558740Y-91860000D01*
X179271842Y-91917068D01*
X179001589Y-92029010D01*
X178758368Y-92191525D01*
X178551525Y-92398368D01*
X178435000Y-92572760D01*
X178318475Y-92398368D01*
X178111632Y-92191525D01*
X177868411Y-92029010D01*
X177598158Y-91917068D01*
X177311260Y-91860000D01*
X177018740Y-91860000D01*
X176731842Y-91917068D01*
X176461589Y-92029010D01*
X176218368Y-92191525D01*
X176011525Y-92398368D01*
X175895000Y-92572760D01*
X175778475Y-92398368D01*
X175571632Y-92191525D01*
X175328411Y-92029010D01*
X175058158Y-91917068D01*
X174771260Y-91860000D01*
X174478740Y-91860000D01*
X174191842Y-91917068D01*
X173921589Y-92029010D01*
X173678368Y-92191525D01*
X173471525Y-92398368D01*
X173355000Y-92572760D01*
X173238475Y-92398368D01*
X173031632Y-92191525D01*
X172788411Y-92029010D01*
X172518158Y-91917068D01*
X172231260Y-91860000D01*
X171938740Y-91860000D01*
X171651842Y-91917068D01*
X171381589Y-92029010D01*
X171138368Y-92191525D01*
X170931525Y-92398368D01*
X170815000Y-92572760D01*
X170698475Y-92398368D01*
X170491632Y-92191525D01*
X170248411Y-92029010D01*
X169978158Y-91917068D01*
X169691260Y-91860000D01*
X169398740Y-91860000D01*
X169111842Y-91917068D01*
X168841589Y-92029010D01*
X168598368Y-92191525D01*
X168391525Y-92398368D01*
X168229010Y-92641589D01*
X168117068Y-92911842D01*
X168060000Y-93198740D01*
X168060000Y-93491260D01*
X168117068Y-93778158D01*
X168229010Y-94048411D01*
X168391525Y-94291632D01*
X168523380Y-94423487D01*
X168450820Y-94445498D01*
X168340506Y-94504463D01*
X168243815Y-94583815D01*
X168164463Y-94680506D01*
X168105498Y-94790820D01*
X168069188Y-94910518D01*
X168056928Y-95035000D01*
X163831985Y-95035000D01*
X163873480Y-94639305D01*
X163804178Y-93887062D01*
X163589452Y-93162792D01*
X163237555Y-92494330D01*
X163210548Y-92453912D01*
X162720881Y-92093724D01*
X160199605Y-94615000D01*
X159840395Y-94615000D01*
X159826253Y-94600858D01*
X160005858Y-94421253D01*
X160020000Y-94435395D01*
X162541276Y-91914119D01*
X162181088Y-91424452D01*
X161517118Y-91064151D01*
X160795615Y-90840306D01*
X160044305Y-90761520D01*
X159292062Y-90830822D01*
X158908987Y-90944393D01*
X159658380Y-90195000D01*
X253340000Y-90195000D01*
X253340001Y-152375000D01*
G37*
G04 #@! TD.AperFunction*
M02*
