G04 #@! TF.GenerationSoftware,KiCad,Pcbnew,(5.1.10)-1*
G04 #@! TF.CreationDate,2021-08-30T10:02:13-04:00*
G04 #@! TF.ProjectId,schematics,73636865-6d61-4746-9963-732e6b696361,rev?*
G04 #@! TF.SameCoordinates,Original*
G04 #@! TF.FileFunction,Legend,Top*
G04 #@! TF.FilePolarity,Positive*
%FSLAX46Y46*%
G04 Gerber Fmt 4.6, Leading zero omitted, Abs format (unit mm)*
G04 Created by KiCad (PCBNEW (5.1.10)-1) date 2021-08-30 10:02:13*
%MOMM*%
%LPD*%
G01*
G04 APERTURE LIST*
%ADD10C,0.150000*%
%ADD11C,0.300000*%
%ADD12C,0.120000*%
%ADD13R,1.700000X1.700000*%
%ADD14O,1.700000X1.700000*%
%ADD15C,2.600000*%
%ADD16O,1.905000X2.000000*%
%ADD17R,1.905000X2.000000*%
%ADD18C,6.400000*%
%ADD19C,1.600000*%
%ADD20O,1.600000X1.600000*%
%ADD21O,2.200000X2.200000*%
%ADD22R,2.200000X2.200000*%
%ADD23O,1.270000X1.270000*%
%ADD24C,3.000000*%
%ADD25C,2.000000*%
%ADD26R,3.500000X3.500000*%
%ADD27R,1.524000X1.524000*%
%ADD28C,1.524000*%
%ADD29R,1.600000X1.600000*%
G04 APERTURE END LIST*
D10*
X157742380Y-70635000D02*
X156742380Y-70635000D01*
X157218571Y-70635000D02*
X157218571Y-70063571D01*
X157742380Y-70063571D02*
X156742380Y-70063571D01*
X157742380Y-69587380D02*
X157075714Y-69587380D01*
X156742380Y-69587380D02*
X156790000Y-69635000D01*
X156837619Y-69587380D01*
X156790000Y-69539761D01*
X156742380Y-69587380D01*
X156837619Y-69587380D01*
X157742380Y-69111190D02*
X157075714Y-69111190D01*
X157266190Y-69111190D02*
X157170952Y-69063571D01*
X157123333Y-69015952D01*
X157075714Y-68920714D01*
X157075714Y-68825476D01*
X157742380Y-68349285D02*
X157694761Y-68444523D01*
X157647142Y-68492142D01*
X157551904Y-68539761D01*
X157266190Y-68539761D01*
X157170952Y-68492142D01*
X157123333Y-68444523D01*
X157075714Y-68349285D01*
X157075714Y-68206428D01*
X157123333Y-68111190D01*
X157170952Y-68063571D01*
X157266190Y-68015952D01*
X157551904Y-68015952D01*
X157647142Y-68063571D01*
X157694761Y-68111190D01*
X157742380Y-68206428D01*
X157742380Y-68349285D01*
X157075714Y-67730238D02*
X157075714Y-67349285D01*
X156742380Y-67587380D02*
X157599523Y-67587380D01*
X157694761Y-67539761D01*
X157742380Y-67444523D01*
X157742380Y-67349285D01*
X157742380Y-66873095D02*
X157694761Y-66968333D01*
X157647142Y-67015952D01*
X157551904Y-67063571D01*
X157266190Y-67063571D01*
X157170952Y-67015952D01*
X157123333Y-66968333D01*
X157075714Y-66873095D01*
X157075714Y-66730238D01*
X157123333Y-66635000D01*
X157170952Y-66587380D01*
X157266190Y-66539761D01*
X157551904Y-66539761D01*
X157647142Y-66587380D01*
X157694761Y-66635000D01*
X157742380Y-66730238D01*
X157742380Y-66873095D01*
X157742380Y-65349285D02*
X156742380Y-65349285D01*
X157742380Y-64777857D02*
X157170952Y-65206428D01*
X156742380Y-64777857D02*
X157313809Y-65349285D01*
X157742380Y-63920714D02*
X157218571Y-63920714D01*
X157123333Y-63968333D01*
X157075714Y-64063571D01*
X157075714Y-64254047D01*
X157123333Y-64349285D01*
X157694761Y-63920714D02*
X157742380Y-64015952D01*
X157742380Y-64254047D01*
X157694761Y-64349285D01*
X157599523Y-64396904D01*
X157504285Y-64396904D01*
X157409047Y-64349285D01*
X157361428Y-64254047D01*
X157361428Y-64015952D01*
X157313809Y-63920714D01*
X157742380Y-63444523D02*
X156742380Y-63444523D01*
X157361428Y-63349285D02*
X157742380Y-63063571D01*
X157075714Y-63063571D02*
X157456666Y-63444523D01*
X157075714Y-62206428D02*
X157742380Y-62206428D01*
X157075714Y-62635000D02*
X157599523Y-62635000D01*
X157694761Y-62587380D01*
X157742380Y-62492142D01*
X157742380Y-62349285D01*
X157694761Y-62254047D01*
X157647142Y-62206428D01*
X156837619Y-61015952D02*
X156790000Y-60968333D01*
X156742380Y-60873095D01*
X156742380Y-60635000D01*
X156790000Y-60539761D01*
X156837619Y-60492142D01*
X156932857Y-60444523D01*
X157028095Y-60444523D01*
X157170952Y-60492142D01*
X157742380Y-61063571D01*
X157742380Y-60444523D01*
X156742380Y-59825476D02*
X156742380Y-59730238D01*
X156790000Y-59635000D01*
X156837619Y-59587380D01*
X156932857Y-59539761D01*
X157123333Y-59492142D01*
X157361428Y-59492142D01*
X157551904Y-59539761D01*
X157647142Y-59587380D01*
X157694761Y-59635000D01*
X157742380Y-59730238D01*
X157742380Y-59825476D01*
X157694761Y-59920714D01*
X157647142Y-59968333D01*
X157551904Y-60015952D01*
X157361428Y-60063571D01*
X157123333Y-60063571D01*
X156932857Y-60015952D01*
X156837619Y-59968333D01*
X156790000Y-59920714D01*
X156742380Y-59825476D01*
X156837619Y-59111190D02*
X156790000Y-59063571D01*
X156742380Y-58968333D01*
X156742380Y-58730238D01*
X156790000Y-58635000D01*
X156837619Y-58587380D01*
X156932857Y-58539761D01*
X157028095Y-58539761D01*
X157170952Y-58587380D01*
X157742380Y-59158809D01*
X157742380Y-58539761D01*
X157742380Y-57587380D02*
X157742380Y-58158809D01*
X157742380Y-57873095D02*
X156742380Y-57873095D01*
X156885238Y-57968333D01*
X156980476Y-58063571D01*
X157028095Y-58158809D01*
X159297142Y-71158809D02*
X159344761Y-71206428D01*
X159392380Y-71349285D01*
X159392380Y-71444523D01*
X159344761Y-71587380D01*
X159249523Y-71682619D01*
X159154285Y-71730238D01*
X158963809Y-71777857D01*
X158820952Y-71777857D01*
X158630476Y-71730238D01*
X158535238Y-71682619D01*
X158440000Y-71587380D01*
X158392380Y-71444523D01*
X158392380Y-71349285D01*
X158440000Y-71206428D01*
X158487619Y-71158809D01*
X159392380Y-70301666D02*
X158868571Y-70301666D01*
X158773333Y-70349285D01*
X158725714Y-70444523D01*
X158725714Y-70635000D01*
X158773333Y-70730238D01*
X159344761Y-70301666D02*
X159392380Y-70396904D01*
X159392380Y-70635000D01*
X159344761Y-70730238D01*
X159249523Y-70777857D01*
X159154285Y-70777857D01*
X159059047Y-70730238D01*
X159011428Y-70635000D01*
X159011428Y-70396904D01*
X158963809Y-70301666D01*
X159392380Y-69682619D02*
X159344761Y-69777857D01*
X159249523Y-69825476D01*
X158392380Y-69825476D01*
X159392380Y-69158809D02*
X159344761Y-69254047D01*
X159249523Y-69301666D01*
X158392380Y-69301666D01*
X159392380Y-68777857D02*
X158725714Y-68777857D01*
X158392380Y-68777857D02*
X158440000Y-68825476D01*
X158487619Y-68777857D01*
X158440000Y-68730238D01*
X158392380Y-68777857D01*
X158487619Y-68777857D01*
X159344761Y-68349285D02*
X159392380Y-68254047D01*
X159392380Y-68063571D01*
X159344761Y-67968333D01*
X159249523Y-67920714D01*
X159201904Y-67920714D01*
X159106666Y-67968333D01*
X159059047Y-68063571D01*
X159059047Y-68206428D01*
X159011428Y-68301666D01*
X158916190Y-68349285D01*
X158868571Y-68349285D01*
X158773333Y-68301666D01*
X158725714Y-68206428D01*
X158725714Y-68063571D01*
X158773333Y-67968333D01*
X158725714Y-67635000D02*
X158725714Y-67254047D01*
X158392380Y-67492142D02*
X159249523Y-67492142D01*
X159344761Y-67444523D01*
X159392380Y-67349285D01*
X159392380Y-67254047D01*
X159392380Y-66777857D02*
X159344761Y-66873095D01*
X159297142Y-66920714D01*
X159201904Y-66968333D01*
X158916190Y-66968333D01*
X158820952Y-66920714D01*
X158773333Y-66873095D01*
X158725714Y-66777857D01*
X158725714Y-66635000D01*
X158773333Y-66539761D01*
X158820952Y-66492142D01*
X158916190Y-66444523D01*
X159201904Y-66444523D01*
X159297142Y-66492142D01*
X159344761Y-66539761D01*
X159392380Y-66635000D01*
X159392380Y-66777857D01*
X159011428Y-65254047D02*
X159011428Y-64492142D01*
X158392380Y-63396904D02*
X158392380Y-62825476D01*
X159392380Y-63111190D02*
X158392380Y-63111190D01*
X158725714Y-62063571D02*
X159392380Y-62063571D01*
X158725714Y-62492142D02*
X159249523Y-62492142D01*
X159344761Y-62444523D01*
X159392380Y-62349285D01*
X159392380Y-62206428D01*
X159344761Y-62111190D01*
X159297142Y-62063571D01*
X159392380Y-61587380D02*
X158392380Y-61587380D01*
X158773333Y-61587380D02*
X158725714Y-61492142D01*
X158725714Y-61301666D01*
X158773333Y-61206428D01*
X158820952Y-61158809D01*
X158916190Y-61111190D01*
X159201904Y-61111190D01*
X159297142Y-61158809D01*
X159344761Y-61206428D01*
X159392380Y-61301666D01*
X159392380Y-61492142D01*
X159344761Y-61587380D01*
X159344761Y-60301666D02*
X159392380Y-60396904D01*
X159392380Y-60587380D01*
X159344761Y-60682619D01*
X159249523Y-60730238D01*
X158868571Y-60730238D01*
X158773333Y-60682619D01*
X158725714Y-60587380D01*
X158725714Y-60396904D01*
X158773333Y-60301666D01*
X158868571Y-60254047D01*
X158963809Y-60254047D01*
X159059047Y-60730238D01*
X159392380Y-59063571D02*
X158392380Y-59063571D01*
X158392380Y-58682619D01*
X158440000Y-58587380D01*
X158487619Y-58539761D01*
X158582857Y-58492142D01*
X158725714Y-58492142D01*
X158820952Y-58539761D01*
X158868571Y-58587380D01*
X158916190Y-58682619D01*
X158916190Y-59063571D01*
X159297142Y-57492142D02*
X159344761Y-57539761D01*
X159392380Y-57682619D01*
X159392380Y-57777857D01*
X159344761Y-57920714D01*
X159249523Y-58015952D01*
X159154285Y-58063571D01*
X158963809Y-58111190D01*
X158820952Y-58111190D01*
X158630476Y-58063571D01*
X158535238Y-58015952D01*
X158440000Y-57920714D01*
X158392380Y-57777857D01*
X158392380Y-57682619D01*
X158440000Y-57539761D01*
X158487619Y-57492142D01*
X158868571Y-56730238D02*
X158916190Y-56587380D01*
X158963809Y-56539761D01*
X159059047Y-56492142D01*
X159201904Y-56492142D01*
X159297142Y-56539761D01*
X159344761Y-56587380D01*
X159392380Y-56682619D01*
X159392380Y-57063571D01*
X158392380Y-57063571D01*
X158392380Y-56730238D01*
X158440000Y-56635000D01*
X158487619Y-56587380D01*
X158582857Y-56539761D01*
X158678095Y-56539761D01*
X158773333Y-56587380D01*
X158820952Y-56635000D01*
X158868571Y-56730238D01*
X158868571Y-57063571D01*
X157742380Y-139215000D02*
X156742380Y-139215000D01*
X157218571Y-139215000D02*
X157218571Y-138643571D01*
X157742380Y-138643571D02*
X156742380Y-138643571D01*
X157742380Y-138167380D02*
X157075714Y-138167380D01*
X156742380Y-138167380D02*
X156790000Y-138215000D01*
X156837619Y-138167380D01*
X156790000Y-138119761D01*
X156742380Y-138167380D01*
X156837619Y-138167380D01*
X157742380Y-137691190D02*
X157075714Y-137691190D01*
X157266190Y-137691190D02*
X157170952Y-137643571D01*
X157123333Y-137595952D01*
X157075714Y-137500714D01*
X157075714Y-137405476D01*
X157742380Y-136929285D02*
X157694761Y-137024523D01*
X157647142Y-137072142D01*
X157551904Y-137119761D01*
X157266190Y-137119761D01*
X157170952Y-137072142D01*
X157123333Y-137024523D01*
X157075714Y-136929285D01*
X157075714Y-136786428D01*
X157123333Y-136691190D01*
X157170952Y-136643571D01*
X157266190Y-136595952D01*
X157551904Y-136595952D01*
X157647142Y-136643571D01*
X157694761Y-136691190D01*
X157742380Y-136786428D01*
X157742380Y-136929285D01*
X157075714Y-136310238D02*
X157075714Y-135929285D01*
X156742380Y-136167380D02*
X157599523Y-136167380D01*
X157694761Y-136119761D01*
X157742380Y-136024523D01*
X157742380Y-135929285D01*
X157742380Y-135453095D02*
X157694761Y-135548333D01*
X157647142Y-135595952D01*
X157551904Y-135643571D01*
X157266190Y-135643571D01*
X157170952Y-135595952D01*
X157123333Y-135548333D01*
X157075714Y-135453095D01*
X157075714Y-135310238D01*
X157123333Y-135215000D01*
X157170952Y-135167380D01*
X157266190Y-135119761D01*
X157551904Y-135119761D01*
X157647142Y-135167380D01*
X157694761Y-135215000D01*
X157742380Y-135310238D01*
X157742380Y-135453095D01*
X157742380Y-133929285D02*
X156742380Y-133929285D01*
X157742380Y-133357857D02*
X157170952Y-133786428D01*
X156742380Y-133357857D02*
X157313809Y-133929285D01*
X157742380Y-132500714D02*
X157218571Y-132500714D01*
X157123333Y-132548333D01*
X157075714Y-132643571D01*
X157075714Y-132834047D01*
X157123333Y-132929285D01*
X157694761Y-132500714D02*
X157742380Y-132595952D01*
X157742380Y-132834047D01*
X157694761Y-132929285D01*
X157599523Y-132976904D01*
X157504285Y-132976904D01*
X157409047Y-132929285D01*
X157361428Y-132834047D01*
X157361428Y-132595952D01*
X157313809Y-132500714D01*
X157742380Y-132024523D02*
X156742380Y-132024523D01*
X157361428Y-131929285D02*
X157742380Y-131643571D01*
X157075714Y-131643571D02*
X157456666Y-132024523D01*
X157075714Y-130786428D02*
X157742380Y-130786428D01*
X157075714Y-131215000D02*
X157599523Y-131215000D01*
X157694761Y-131167380D01*
X157742380Y-131072142D01*
X157742380Y-130929285D01*
X157694761Y-130834047D01*
X157647142Y-130786428D01*
X156837619Y-129595952D02*
X156790000Y-129548333D01*
X156742380Y-129453095D01*
X156742380Y-129215000D01*
X156790000Y-129119761D01*
X156837619Y-129072142D01*
X156932857Y-129024523D01*
X157028095Y-129024523D01*
X157170952Y-129072142D01*
X157742380Y-129643571D01*
X157742380Y-129024523D01*
X156742380Y-128405476D02*
X156742380Y-128310238D01*
X156790000Y-128215000D01*
X156837619Y-128167380D01*
X156932857Y-128119761D01*
X157123333Y-128072142D01*
X157361428Y-128072142D01*
X157551904Y-128119761D01*
X157647142Y-128167380D01*
X157694761Y-128215000D01*
X157742380Y-128310238D01*
X157742380Y-128405476D01*
X157694761Y-128500714D01*
X157647142Y-128548333D01*
X157551904Y-128595952D01*
X157361428Y-128643571D01*
X157123333Y-128643571D01*
X156932857Y-128595952D01*
X156837619Y-128548333D01*
X156790000Y-128500714D01*
X156742380Y-128405476D01*
X156837619Y-127691190D02*
X156790000Y-127643571D01*
X156742380Y-127548333D01*
X156742380Y-127310238D01*
X156790000Y-127215000D01*
X156837619Y-127167380D01*
X156932857Y-127119761D01*
X157028095Y-127119761D01*
X157170952Y-127167380D01*
X157742380Y-127738809D01*
X157742380Y-127119761D01*
X157742380Y-126167380D02*
X157742380Y-126738809D01*
X157742380Y-126453095D02*
X156742380Y-126453095D01*
X156885238Y-126548333D01*
X156980476Y-126643571D01*
X157028095Y-126738809D01*
X159297142Y-140405476D02*
X159344761Y-140453095D01*
X159392380Y-140595952D01*
X159392380Y-140691190D01*
X159344761Y-140834047D01*
X159249523Y-140929285D01*
X159154285Y-140976904D01*
X158963809Y-141024523D01*
X158820952Y-141024523D01*
X158630476Y-140976904D01*
X158535238Y-140929285D01*
X158440000Y-140834047D01*
X158392380Y-140691190D01*
X158392380Y-140595952D01*
X158440000Y-140453095D01*
X158487619Y-140405476D01*
X159392380Y-139548333D02*
X158868571Y-139548333D01*
X158773333Y-139595952D01*
X158725714Y-139691190D01*
X158725714Y-139881666D01*
X158773333Y-139976904D01*
X159344761Y-139548333D02*
X159392380Y-139643571D01*
X159392380Y-139881666D01*
X159344761Y-139976904D01*
X159249523Y-140024523D01*
X159154285Y-140024523D01*
X159059047Y-139976904D01*
X159011428Y-139881666D01*
X159011428Y-139643571D01*
X158963809Y-139548333D01*
X159392380Y-138929285D02*
X159344761Y-139024523D01*
X159249523Y-139072142D01*
X158392380Y-139072142D01*
X159392380Y-138405476D02*
X159344761Y-138500714D01*
X159249523Y-138548333D01*
X158392380Y-138548333D01*
X159392380Y-138024523D02*
X158725714Y-138024523D01*
X158392380Y-138024523D02*
X158440000Y-138072142D01*
X158487619Y-138024523D01*
X158440000Y-137976904D01*
X158392380Y-138024523D01*
X158487619Y-138024523D01*
X159344761Y-137595952D02*
X159392380Y-137500714D01*
X159392380Y-137310238D01*
X159344761Y-137215000D01*
X159249523Y-137167380D01*
X159201904Y-137167380D01*
X159106666Y-137215000D01*
X159059047Y-137310238D01*
X159059047Y-137453095D01*
X159011428Y-137548333D01*
X158916190Y-137595952D01*
X158868571Y-137595952D01*
X158773333Y-137548333D01*
X158725714Y-137453095D01*
X158725714Y-137310238D01*
X158773333Y-137215000D01*
X158725714Y-136881666D02*
X158725714Y-136500714D01*
X158392380Y-136738809D02*
X159249523Y-136738809D01*
X159344761Y-136691190D01*
X159392380Y-136595952D01*
X159392380Y-136500714D01*
X159392380Y-136024523D02*
X159344761Y-136119761D01*
X159297142Y-136167380D01*
X159201904Y-136215000D01*
X158916190Y-136215000D01*
X158820952Y-136167380D01*
X158773333Y-136119761D01*
X158725714Y-136024523D01*
X158725714Y-135881666D01*
X158773333Y-135786428D01*
X158820952Y-135738809D01*
X158916190Y-135691190D01*
X159201904Y-135691190D01*
X159297142Y-135738809D01*
X159344761Y-135786428D01*
X159392380Y-135881666D01*
X159392380Y-136024523D01*
X159011428Y-134500714D02*
X159011428Y-133738809D01*
X159392380Y-132500714D02*
X158392380Y-132500714D01*
X159106666Y-132167380D01*
X158392380Y-131834047D01*
X159392380Y-131834047D01*
X159392380Y-130929285D02*
X158868571Y-130929285D01*
X158773333Y-130976904D01*
X158725714Y-131072142D01*
X158725714Y-131262619D01*
X158773333Y-131357857D01*
X159344761Y-130929285D02*
X159392380Y-131024523D01*
X159392380Y-131262619D01*
X159344761Y-131357857D01*
X159249523Y-131405476D01*
X159154285Y-131405476D01*
X159059047Y-131357857D01*
X159011428Y-131262619D01*
X159011428Y-131024523D01*
X158963809Y-130929285D01*
X159392380Y-130453095D02*
X158725714Y-130453095D01*
X158392380Y-130453095D02*
X158440000Y-130500714D01*
X158487619Y-130453095D01*
X158440000Y-130405476D01*
X158392380Y-130453095D01*
X158487619Y-130453095D01*
X158725714Y-129976904D02*
X159392380Y-129976904D01*
X158820952Y-129976904D02*
X158773333Y-129929285D01*
X158725714Y-129834047D01*
X158725714Y-129691190D01*
X158773333Y-129595952D01*
X158868571Y-129548333D01*
X159392380Y-129548333D01*
X158868571Y-127976904D02*
X158916190Y-127834047D01*
X158963809Y-127786428D01*
X159059047Y-127738809D01*
X159201904Y-127738809D01*
X159297142Y-127786428D01*
X159344761Y-127834047D01*
X159392380Y-127929285D01*
X159392380Y-128310238D01*
X158392380Y-128310238D01*
X158392380Y-127976904D01*
X158440000Y-127881666D01*
X158487619Y-127834047D01*
X158582857Y-127786428D01*
X158678095Y-127786428D01*
X158773333Y-127834047D01*
X158820952Y-127881666D01*
X158868571Y-127976904D01*
X158868571Y-128310238D01*
X159392380Y-127167380D02*
X159344761Y-127262619D01*
X159297142Y-127310238D01*
X159201904Y-127357857D01*
X158916190Y-127357857D01*
X158820952Y-127310238D01*
X158773333Y-127262619D01*
X158725714Y-127167380D01*
X158725714Y-127024523D01*
X158773333Y-126929285D01*
X158820952Y-126881666D01*
X158916190Y-126834047D01*
X159201904Y-126834047D01*
X159297142Y-126881666D01*
X159344761Y-126929285D01*
X159392380Y-127024523D01*
X159392380Y-127167380D01*
X159392380Y-125976904D02*
X158868571Y-125976904D01*
X158773333Y-126024523D01*
X158725714Y-126119761D01*
X158725714Y-126310238D01*
X158773333Y-126405476D01*
X159344761Y-125976904D02*
X159392380Y-126072142D01*
X159392380Y-126310238D01*
X159344761Y-126405476D01*
X159249523Y-126453095D01*
X159154285Y-126453095D01*
X159059047Y-126405476D01*
X159011428Y-126310238D01*
X159011428Y-126072142D01*
X158963809Y-125976904D01*
X159392380Y-125500714D02*
X158725714Y-125500714D01*
X158916190Y-125500714D02*
X158820952Y-125453095D01*
X158773333Y-125405476D01*
X158725714Y-125310238D01*
X158725714Y-125215000D01*
X159392380Y-124453095D02*
X158392380Y-124453095D01*
X159344761Y-124453095D02*
X159392380Y-124548333D01*
X159392380Y-124738809D01*
X159344761Y-124834047D01*
X159297142Y-124881666D01*
X159201904Y-124929285D01*
X158916190Y-124929285D01*
X158820952Y-124881666D01*
X158773333Y-124834047D01*
X158725714Y-124738809D01*
X158725714Y-124548333D01*
X158773333Y-124453095D01*
D11*
X246614285Y-140378571D02*
X246900000Y-140378571D01*
X247042857Y-140307142D01*
X247114285Y-140235714D01*
X247257142Y-140021428D01*
X247328571Y-139735714D01*
X247328571Y-139164285D01*
X247257142Y-139021428D01*
X247185714Y-138950000D01*
X247042857Y-138878571D01*
X246757142Y-138878571D01*
X246614285Y-138950000D01*
X246542857Y-139021428D01*
X246471428Y-139164285D01*
X246471428Y-139521428D01*
X246542857Y-139664285D01*
X246614285Y-139735714D01*
X246757142Y-139807142D01*
X247042857Y-139807142D01*
X247185714Y-139735714D01*
X247257142Y-139664285D01*
X247328571Y-139521428D01*
X247757142Y-138878571D02*
X248257142Y-140378571D01*
X248757142Y-138878571D01*
X249257142Y-140378571D02*
X249257142Y-138878571D01*
X249614285Y-138878571D01*
X249828571Y-138950000D01*
X249971428Y-139092857D01*
X250042857Y-139235714D01*
X250114285Y-139521428D01*
X250114285Y-139735714D01*
X250042857Y-140021428D01*
X249971428Y-140164285D01*
X249828571Y-140307142D01*
X249614285Y-140378571D01*
X249257142Y-140378571D01*
X251614285Y-140235714D02*
X251542857Y-140307142D01*
X251328571Y-140378571D01*
X251185714Y-140378571D01*
X250971428Y-140307142D01*
X250828571Y-140164285D01*
X250757142Y-140021428D01*
X250685714Y-139735714D01*
X250685714Y-139521428D01*
X250757142Y-139235714D01*
X250828571Y-139092857D01*
X250971428Y-138950000D01*
X251185714Y-138878571D01*
X251328571Y-138878571D01*
X251542857Y-138950000D01*
X251614285Y-139021428D01*
X170922142Y-130618571D02*
X171422142Y-132118571D01*
X171922142Y-130618571D01*
X172922142Y-131332857D02*
X173136428Y-131404285D01*
X173207857Y-131475714D01*
X173279285Y-131618571D01*
X173279285Y-131832857D01*
X173207857Y-131975714D01*
X173136428Y-132047142D01*
X172993571Y-132118571D01*
X172422142Y-132118571D01*
X172422142Y-130618571D01*
X172922142Y-130618571D01*
X173065000Y-130690000D01*
X173136428Y-130761428D01*
X173207857Y-130904285D01*
X173207857Y-131047142D01*
X173136428Y-131190000D01*
X173065000Y-131261428D01*
X172922142Y-131332857D01*
X172422142Y-131332857D01*
X174422142Y-131332857D02*
X174636428Y-131404285D01*
X174707857Y-131475714D01*
X174779285Y-131618571D01*
X174779285Y-131832857D01*
X174707857Y-131975714D01*
X174636428Y-132047142D01*
X174493571Y-132118571D01*
X173922142Y-132118571D01*
X173922142Y-130618571D01*
X174422142Y-130618571D01*
X174565000Y-130690000D01*
X174636428Y-130761428D01*
X174707857Y-130904285D01*
X174707857Y-131047142D01*
X174636428Y-131190000D01*
X174565000Y-131261428D01*
X174422142Y-131332857D01*
X173922142Y-131332857D01*
X161993571Y-135240000D02*
X161922142Y-135168571D01*
X161779285Y-134954285D01*
X161707857Y-134811428D01*
X161636428Y-134597142D01*
X161565000Y-134240000D01*
X161565000Y-133954285D01*
X161636428Y-133597142D01*
X161707857Y-133382857D01*
X161779285Y-133240000D01*
X161922142Y-133025714D01*
X161993571Y-132954285D01*
X162493571Y-133311428D02*
X162565000Y-133240000D01*
X162707857Y-133168571D01*
X163065000Y-133168571D01*
X163207857Y-133240000D01*
X163279285Y-133311428D01*
X163350714Y-133454285D01*
X163350714Y-133597142D01*
X163279285Y-133811428D01*
X162422142Y-134668571D01*
X163350714Y-134668571D01*
X164279285Y-133168571D02*
X164422142Y-133168571D01*
X164565000Y-133240000D01*
X164636428Y-133311428D01*
X164707857Y-133454285D01*
X164779285Y-133740000D01*
X164779285Y-134097142D01*
X164707857Y-134382857D01*
X164636428Y-134525714D01*
X164565000Y-134597142D01*
X164422142Y-134668571D01*
X164279285Y-134668571D01*
X164136428Y-134597142D01*
X164065000Y-134525714D01*
X163993571Y-134382857D01*
X163922142Y-134097142D01*
X163922142Y-133740000D01*
X163993571Y-133454285D01*
X164065000Y-133311428D01*
X164136428Y-133240000D01*
X164279285Y-133168571D01*
X165422142Y-134097142D02*
X166565000Y-134097142D01*
X167136428Y-133168571D02*
X168065000Y-133168571D01*
X167565000Y-133740000D01*
X167779285Y-133740000D01*
X167922142Y-133811428D01*
X167993571Y-133882857D01*
X168065000Y-134025714D01*
X168065000Y-134382857D01*
X167993571Y-134525714D01*
X167922142Y-134597142D01*
X167779285Y-134668571D01*
X167350714Y-134668571D01*
X167207857Y-134597142D01*
X167136428Y-134525714D01*
X168993571Y-133168571D02*
X169136428Y-133168571D01*
X169279285Y-133240000D01*
X169350714Y-133311428D01*
X169422142Y-133454285D01*
X169493571Y-133740000D01*
X169493571Y-134097142D01*
X169422142Y-134382857D01*
X169350714Y-134525714D01*
X169279285Y-134597142D01*
X169136428Y-134668571D01*
X168993571Y-134668571D01*
X168850714Y-134597142D01*
X168779285Y-134525714D01*
X168707857Y-134382857D01*
X168636428Y-134097142D01*
X168636428Y-133740000D01*
X168707857Y-133454285D01*
X168779285Y-133311428D01*
X168850714Y-133240000D01*
X168993571Y-133168571D01*
X169922142Y-133168571D02*
X170422142Y-134668571D01*
X170922142Y-133168571D01*
X171422142Y-134668571D02*
X171422142Y-133168571D01*
X171779285Y-133168571D01*
X171993571Y-133240000D01*
X172136428Y-133382857D01*
X172207857Y-133525714D01*
X172279285Y-133811428D01*
X172279285Y-134025714D01*
X172207857Y-134311428D01*
X172136428Y-134454285D01*
X171993571Y-134597142D01*
X171779285Y-134668571D01*
X171422142Y-134668571D01*
X173779285Y-134525714D02*
X173707857Y-134597142D01*
X173493571Y-134668571D01*
X173350714Y-134668571D01*
X173136428Y-134597142D01*
X172993571Y-134454285D01*
X172922142Y-134311428D01*
X172850714Y-134025714D01*
X172850714Y-133811428D01*
X172922142Y-133525714D01*
X172993571Y-133382857D01*
X173136428Y-133240000D01*
X173350714Y-133168571D01*
X173493571Y-133168571D01*
X173707857Y-133240000D01*
X173779285Y-133311428D01*
X174279285Y-135240000D02*
X174350714Y-135168571D01*
X174493571Y-134954285D01*
X174565000Y-134811428D01*
X174636428Y-134597142D01*
X174707857Y-134240000D01*
X174707857Y-133954285D01*
X174636428Y-133597142D01*
X174565000Y-133382857D01*
X174493571Y-133240000D01*
X174350714Y-133025714D01*
X174279285Y-132954285D01*
X209455000Y-129348571D02*
X209955000Y-130848571D01*
X210455000Y-129348571D01*
X211812142Y-130705714D02*
X211740714Y-130777142D01*
X211526428Y-130848571D01*
X211383571Y-130848571D01*
X211169285Y-130777142D01*
X211026428Y-130634285D01*
X210955000Y-130491428D01*
X210883571Y-130205714D01*
X210883571Y-129991428D01*
X210955000Y-129705714D01*
X211026428Y-129562857D01*
X211169285Y-129420000D01*
X211383571Y-129348571D01*
X211526428Y-129348571D01*
X211740714Y-129420000D01*
X211812142Y-129491428D01*
X213312142Y-130705714D02*
X213240714Y-130777142D01*
X213026428Y-130848571D01*
X212883571Y-130848571D01*
X212669285Y-130777142D01*
X212526428Y-130634285D01*
X212455000Y-130491428D01*
X212383571Y-130205714D01*
X212383571Y-129991428D01*
X212455000Y-129705714D01*
X212526428Y-129562857D01*
X212669285Y-129420000D01*
X212883571Y-129348571D01*
X213026428Y-129348571D01*
X213240714Y-129420000D01*
X213312142Y-129491428D01*
X208383571Y-133970000D02*
X208312142Y-133898571D01*
X208169285Y-133684285D01*
X208097857Y-133541428D01*
X208026428Y-133327142D01*
X207955000Y-132970000D01*
X207955000Y-132684285D01*
X208026428Y-132327142D01*
X208097857Y-132112857D01*
X208169285Y-131970000D01*
X208312142Y-131755714D01*
X208383571Y-131684285D01*
X209669285Y-131898571D02*
X208955000Y-131898571D01*
X208883571Y-132612857D01*
X208955000Y-132541428D01*
X209097857Y-132470000D01*
X209455000Y-132470000D01*
X209597857Y-132541428D01*
X209669285Y-132612857D01*
X209740714Y-132755714D01*
X209740714Y-133112857D01*
X209669285Y-133255714D01*
X209597857Y-133327142D01*
X209455000Y-133398571D01*
X209097857Y-133398571D01*
X208955000Y-133327142D01*
X208883571Y-133255714D01*
X210169285Y-131898571D02*
X210669285Y-133398571D01*
X211169285Y-131898571D01*
X211669285Y-133398571D02*
X211669285Y-131898571D01*
X212026428Y-131898571D01*
X212240714Y-131970000D01*
X212383571Y-132112857D01*
X212455000Y-132255714D01*
X212526428Y-132541428D01*
X212526428Y-132755714D01*
X212455000Y-133041428D01*
X212383571Y-133184285D01*
X212240714Y-133327142D01*
X212026428Y-133398571D01*
X211669285Y-133398571D01*
X214026428Y-133255714D02*
X213955000Y-133327142D01*
X213740714Y-133398571D01*
X213597857Y-133398571D01*
X213383571Y-133327142D01*
X213240714Y-133184285D01*
X213169285Y-133041428D01*
X213097857Y-132755714D01*
X213097857Y-132541428D01*
X213169285Y-132255714D01*
X213240714Y-132112857D01*
X213383571Y-131970000D01*
X213597857Y-131898571D01*
X213740714Y-131898571D01*
X213955000Y-131970000D01*
X214026428Y-132041428D01*
X214526428Y-133970000D02*
X214597857Y-133898571D01*
X214740714Y-133684285D01*
X214812142Y-133541428D01*
X214883571Y-133327142D01*
X214955000Y-132970000D01*
X214955000Y-132684285D01*
X214883571Y-132327142D01*
X214812142Y-132112857D01*
X214740714Y-131970000D01*
X214597857Y-131755714D01*
X214526428Y-131684285D01*
D12*
X239970000Y-92015000D02*
X241300000Y-92015000D01*
X239970000Y-93345000D02*
X239970000Y-92015000D01*
X239970000Y-94615000D02*
X242630000Y-94615000D01*
X242630000Y-94615000D02*
X242630000Y-94675000D01*
X239970000Y-94615000D02*
X239970000Y-94675000D01*
X239970000Y-94675000D02*
X242630000Y-94675000D01*
X199330000Y-94675000D02*
X199330000Y-93345000D01*
X200660000Y-94675000D02*
X199330000Y-94675000D01*
X201930000Y-94675000D02*
X201930000Y-92015000D01*
X201930000Y-92015000D02*
X204530000Y-92015000D01*
X201930000Y-94675000D02*
X204530000Y-94675000D01*
X204530000Y-94675000D02*
X204530000Y-92015000D01*
X189060000Y-146050000D02*
G75*
G03*
X189060000Y-146050000I-4870000J0D01*
G01*
X219115000Y-146780000D02*
X208875000Y-146780000D01*
X219115000Y-142139000D02*
X208875000Y-142139000D01*
X219115000Y-146780000D02*
X219115000Y-142139000D01*
X208875000Y-146780000D02*
X208875000Y-142139000D01*
X219115000Y-145270000D02*
X208875000Y-145270000D01*
X215845000Y-146780000D02*
X215845000Y-145270000D01*
X212144000Y-146780000D02*
X212144000Y-145270000D01*
X250839000Y-130460000D02*
X249581000Y-130460000D01*
X250839000Y-128620000D02*
X249581000Y-128620000D01*
X174530000Y-122455000D02*
X174530000Y-125195000D01*
X174530000Y-125195000D02*
X181070000Y-125195000D01*
X181070000Y-125195000D02*
X181070000Y-122455000D01*
X181070000Y-122455000D02*
X174530000Y-122455000D01*
X173760000Y-123825000D02*
X174530000Y-123825000D01*
X181840000Y-123825000D02*
X181070000Y-123825000D01*
X210090000Y-91975000D02*
X210090000Y-94715000D01*
X210090000Y-94715000D02*
X216630000Y-94715000D01*
X216630000Y-94715000D02*
X216630000Y-91975000D01*
X216630000Y-91975000D02*
X210090000Y-91975000D01*
X209320000Y-93345000D02*
X210090000Y-93345000D01*
X217400000Y-93345000D02*
X216630000Y-93345000D01*
X169110000Y-141425000D02*
X166170000Y-141425000D01*
X166170000Y-141425000D02*
X166170000Y-146865000D01*
X166170000Y-146865000D02*
X169110000Y-146865000D01*
X169110000Y-146865000D02*
X169110000Y-141425000D01*
X167640000Y-140405000D02*
X167640000Y-141425000D01*
X167640000Y-147885000D02*
X167640000Y-146865000D01*
X169110000Y-142325000D02*
X166170000Y-142325000D01*
X169110000Y-142445000D02*
X166170000Y-142445000D01*
X169110000Y-142205000D02*
X166170000Y-142205000D01*
X175080000Y-137595000D02*
X175080000Y-140535000D01*
X175080000Y-140535000D02*
X180520000Y-140535000D01*
X180520000Y-140535000D02*
X180520000Y-137595000D01*
X180520000Y-137595000D02*
X175080000Y-137595000D01*
X174060000Y-139065000D02*
X175080000Y-139065000D01*
X181540000Y-139065000D02*
X180520000Y-139065000D01*
X175980000Y-137595000D02*
X175980000Y-140535000D01*
X176100000Y-137595000D02*
X176100000Y-140535000D01*
X175860000Y-137595000D02*
X175860000Y-140535000D01*
X232230000Y-137595000D02*
X232230000Y-140535000D01*
X232230000Y-140535000D02*
X237670000Y-140535000D01*
X237670000Y-140535000D02*
X237670000Y-137595000D01*
X237670000Y-137595000D02*
X232230000Y-137595000D01*
X231210000Y-139065000D02*
X232230000Y-139065000D01*
X238690000Y-139065000D02*
X237670000Y-139065000D01*
X233130000Y-137595000D02*
X233130000Y-140535000D01*
X233250000Y-137595000D02*
X233250000Y-140535000D01*
X233010000Y-137595000D02*
X233010000Y-140535000D01*
X249100000Y-134820000D02*
X249100000Y-131880000D01*
X249100000Y-131880000D02*
X243660000Y-131880000D01*
X243660000Y-131880000D02*
X243660000Y-134820000D01*
X243660000Y-134820000D02*
X249100000Y-134820000D01*
X250120000Y-133350000D02*
X249100000Y-133350000D01*
X242640000Y-133350000D02*
X243660000Y-133350000D01*
X248200000Y-134820000D02*
X248200000Y-131880000D01*
X248080000Y-134820000D02*
X248080000Y-131880000D01*
X248320000Y-134820000D02*
X248320000Y-131880000D01*
X174050000Y-81340000D02*
X171450000Y-81340000D01*
X174050000Y-81340000D02*
X174050000Y-55820000D01*
X174050000Y-55820000D02*
X168850000Y-55820000D01*
X168850000Y-78740000D02*
X168850000Y-55820000D01*
X171450000Y-78740000D02*
X168850000Y-78740000D01*
X171450000Y-81340000D02*
X171450000Y-78740000D01*
X168850000Y-81340000D02*
X168850000Y-80010000D01*
X170180000Y-81340000D02*
X168850000Y-81340000D01*
X199610000Y-65377000D02*
G75*
G03*
X199610000Y-65377000I-9120000J0D01*
G01*
X191830000Y-90745000D02*
X191830000Y-93345000D01*
X191830000Y-90745000D02*
X166310000Y-90745000D01*
X166310000Y-90745000D02*
X166310000Y-95945000D01*
X189230000Y-95945000D02*
X166310000Y-95945000D01*
X189230000Y-93345000D02*
X189230000Y-95945000D01*
X191830000Y-93345000D02*
X189230000Y-93345000D01*
X191830000Y-95945000D02*
X190500000Y-95945000D01*
X191830000Y-94615000D02*
X191830000Y-95945000D01*
X179050000Y-118625000D02*
X181360000Y-118625000D01*
X181360000Y-118625000D02*
X181360000Y-118350000D01*
X179050000Y-118625000D02*
X176740000Y-118625000D01*
X176740000Y-118625000D02*
X176740000Y-118350000D01*
X179050000Y-108705000D02*
X181360000Y-108705000D01*
X181360000Y-108705000D02*
X181360000Y-108980000D01*
X179050000Y-108705000D02*
X176740000Y-108705000D01*
X176740000Y-108705000D02*
X176740000Y-108980000D01*
X176740000Y-108980000D02*
X175450000Y-108980000D01*
X213155000Y-135890000D02*
G75*
G03*
X213155000Y-135890000I-1700000J0D01*
G01*
X246175000Y-139700000D02*
G75*
G03*
X246175000Y-139700000I-1700000J0D01*
G01*
X179500000Y-132715000D02*
G75*
G03*
X179500000Y-132715000I-1700000J0D01*
G01*
X232000000Y-142315000D02*
X232000000Y-151055000D01*
X232000000Y-142315000D02*
X227760000Y-142315000D01*
X227760000Y-151055000D02*
X232000000Y-151055000D01*
X227760000Y-151055000D02*
X227760000Y-142315000D01*
X233740000Y-143855000D02*
X232690000Y-143855000D01*
X232690000Y-144905000D02*
X232690000Y-143855000D01*
X242090000Y-149955000D02*
X242090000Y-158755000D01*
X242090000Y-158755000D02*
X232890000Y-158755000D01*
X239390000Y-144055000D02*
X242090000Y-144055000D01*
X242090000Y-144055000D02*
X242090000Y-145955000D01*
X232890000Y-158755000D02*
X232890000Y-144055000D01*
X232890000Y-144055000D02*
X235490000Y-144055000D01*
X198300000Y-105915000D02*
X198300000Y-121415000D01*
X204500000Y-105915000D02*
X198300000Y-105915000D01*
X204500000Y-99715000D02*
X204500000Y-105915000D01*
X252700000Y-99715000D02*
X204500000Y-99715000D01*
X252700000Y-127615000D02*
X252700000Y-99715000D01*
X204500000Y-127615000D02*
X252700000Y-127615000D01*
X204500000Y-121415000D02*
X204500000Y-127615000D01*
X198300000Y-121415000D02*
X204500000Y-121415000D01*
X187265000Y-136255000D02*
X187265000Y-137905000D01*
X187265000Y-137905000D02*
X192465000Y-137905000D01*
X192465000Y-137905000D02*
X192465000Y-132605000D01*
X192465000Y-132605000D02*
X187265000Y-132605000D01*
X187265000Y-132605000D02*
X187265000Y-134255000D01*
X187265000Y-134255000D02*
G75*
G02*
X187265000Y-136255000I0J-1000000D01*
G01*
X174639000Y-121570000D02*
X173381000Y-121570000D01*
X174639000Y-119730000D02*
X173381000Y-119730000D01*
X177260000Y-145435000D02*
G75*
G03*
X177260000Y-145435000I-3270000J0D01*
G01*
X177220000Y-145435000D02*
X170760000Y-145435000D01*
X177220000Y-145475000D02*
X170760000Y-145475000D01*
X177220000Y-145515000D02*
X170760000Y-145515000D01*
X177218000Y-145555000D02*
X170762000Y-145555000D01*
X177217000Y-145595000D02*
X170763000Y-145595000D01*
X177214000Y-145635000D02*
X170766000Y-145635000D01*
X177212000Y-145675000D02*
X175030000Y-145675000D01*
X172950000Y-145675000D02*
X170768000Y-145675000D01*
X177208000Y-145715000D02*
X175030000Y-145715000D01*
X172950000Y-145715000D02*
X170772000Y-145715000D01*
X177205000Y-145755000D02*
X175030000Y-145755000D01*
X172950000Y-145755000D02*
X170775000Y-145755000D01*
X177201000Y-145795000D02*
X175030000Y-145795000D01*
X172950000Y-145795000D02*
X170779000Y-145795000D01*
X177196000Y-145835000D02*
X175030000Y-145835000D01*
X172950000Y-145835000D02*
X170784000Y-145835000D01*
X177191000Y-145875000D02*
X175030000Y-145875000D01*
X172950000Y-145875000D02*
X170789000Y-145875000D01*
X177185000Y-145915000D02*
X175030000Y-145915000D01*
X172950000Y-145915000D02*
X170795000Y-145915000D01*
X177179000Y-145955000D02*
X175030000Y-145955000D01*
X172950000Y-145955000D02*
X170801000Y-145955000D01*
X177172000Y-145995000D02*
X175030000Y-145995000D01*
X172950000Y-145995000D02*
X170808000Y-145995000D01*
X177165000Y-146035000D02*
X175030000Y-146035000D01*
X172950000Y-146035000D02*
X170815000Y-146035000D01*
X177157000Y-146075000D02*
X175030000Y-146075000D01*
X172950000Y-146075000D02*
X170823000Y-146075000D01*
X177149000Y-146115000D02*
X175030000Y-146115000D01*
X172950000Y-146115000D02*
X170831000Y-146115000D01*
X177140000Y-146156000D02*
X175030000Y-146156000D01*
X172950000Y-146156000D02*
X170840000Y-146156000D01*
X177131000Y-146196000D02*
X175030000Y-146196000D01*
X172950000Y-146196000D02*
X170849000Y-146196000D01*
X177121000Y-146236000D02*
X175030000Y-146236000D01*
X172950000Y-146236000D02*
X170859000Y-146236000D01*
X177111000Y-146276000D02*
X175030000Y-146276000D01*
X172950000Y-146276000D02*
X170869000Y-146276000D01*
X177100000Y-146316000D02*
X175030000Y-146316000D01*
X172950000Y-146316000D02*
X170880000Y-146316000D01*
X177088000Y-146356000D02*
X175030000Y-146356000D01*
X172950000Y-146356000D02*
X170892000Y-146356000D01*
X177076000Y-146396000D02*
X175030000Y-146396000D01*
X172950000Y-146396000D02*
X170904000Y-146396000D01*
X177064000Y-146436000D02*
X175030000Y-146436000D01*
X172950000Y-146436000D02*
X170916000Y-146436000D01*
X177051000Y-146476000D02*
X175030000Y-146476000D01*
X172950000Y-146476000D02*
X170929000Y-146476000D01*
X177037000Y-146516000D02*
X175030000Y-146516000D01*
X172950000Y-146516000D02*
X170943000Y-146516000D01*
X177023000Y-146556000D02*
X175030000Y-146556000D01*
X172950000Y-146556000D02*
X170957000Y-146556000D01*
X177008000Y-146596000D02*
X175030000Y-146596000D01*
X172950000Y-146596000D02*
X170972000Y-146596000D01*
X176992000Y-146636000D02*
X175030000Y-146636000D01*
X172950000Y-146636000D02*
X170988000Y-146636000D01*
X176976000Y-146676000D02*
X175030000Y-146676000D01*
X172950000Y-146676000D02*
X171004000Y-146676000D01*
X176960000Y-146716000D02*
X175030000Y-146716000D01*
X172950000Y-146716000D02*
X171020000Y-146716000D01*
X176942000Y-146756000D02*
X175030000Y-146756000D01*
X172950000Y-146756000D02*
X171038000Y-146756000D01*
X176924000Y-146796000D02*
X175030000Y-146796000D01*
X172950000Y-146796000D02*
X171056000Y-146796000D01*
X176906000Y-146836000D02*
X175030000Y-146836000D01*
X172950000Y-146836000D02*
X171074000Y-146836000D01*
X176886000Y-146876000D02*
X175030000Y-146876000D01*
X172950000Y-146876000D02*
X171094000Y-146876000D01*
X176866000Y-146916000D02*
X175030000Y-146916000D01*
X172950000Y-146916000D02*
X171114000Y-146916000D01*
X176846000Y-146956000D02*
X175030000Y-146956000D01*
X172950000Y-146956000D02*
X171134000Y-146956000D01*
X176824000Y-146996000D02*
X175030000Y-146996000D01*
X172950000Y-146996000D02*
X171156000Y-146996000D01*
X176802000Y-147036000D02*
X175030000Y-147036000D01*
X172950000Y-147036000D02*
X171178000Y-147036000D01*
X176780000Y-147076000D02*
X175030000Y-147076000D01*
X172950000Y-147076000D02*
X171200000Y-147076000D01*
X176756000Y-147116000D02*
X175030000Y-147116000D01*
X172950000Y-147116000D02*
X171224000Y-147116000D01*
X176732000Y-147156000D02*
X175030000Y-147156000D01*
X172950000Y-147156000D02*
X171248000Y-147156000D01*
X176706000Y-147196000D02*
X175030000Y-147196000D01*
X172950000Y-147196000D02*
X171274000Y-147196000D01*
X176680000Y-147236000D02*
X175030000Y-147236000D01*
X172950000Y-147236000D02*
X171300000Y-147236000D01*
X176654000Y-147276000D02*
X175030000Y-147276000D01*
X172950000Y-147276000D02*
X171326000Y-147276000D01*
X176626000Y-147316000D02*
X175030000Y-147316000D01*
X172950000Y-147316000D02*
X171354000Y-147316000D01*
X176597000Y-147356000D02*
X175030000Y-147356000D01*
X172950000Y-147356000D02*
X171383000Y-147356000D01*
X176568000Y-147396000D02*
X175030000Y-147396000D01*
X172950000Y-147396000D02*
X171412000Y-147396000D01*
X176538000Y-147436000D02*
X175030000Y-147436000D01*
X172950000Y-147436000D02*
X171442000Y-147436000D01*
X176506000Y-147476000D02*
X175030000Y-147476000D01*
X172950000Y-147476000D02*
X171474000Y-147476000D01*
X176474000Y-147516000D02*
X175030000Y-147516000D01*
X172950000Y-147516000D02*
X171506000Y-147516000D01*
X176440000Y-147556000D02*
X175030000Y-147556000D01*
X172950000Y-147556000D02*
X171540000Y-147556000D01*
X176406000Y-147596000D02*
X175030000Y-147596000D01*
X172950000Y-147596000D02*
X171574000Y-147596000D01*
X176370000Y-147636000D02*
X175030000Y-147636000D01*
X172950000Y-147636000D02*
X171610000Y-147636000D01*
X176333000Y-147676000D02*
X175030000Y-147676000D01*
X172950000Y-147676000D02*
X171647000Y-147676000D01*
X176295000Y-147716000D02*
X175030000Y-147716000D01*
X172950000Y-147716000D02*
X171685000Y-147716000D01*
X176255000Y-147756000D02*
X171725000Y-147756000D01*
X176214000Y-147796000D02*
X171766000Y-147796000D01*
X176172000Y-147836000D02*
X171808000Y-147836000D01*
X176127000Y-147876000D02*
X171853000Y-147876000D01*
X176082000Y-147916000D02*
X171898000Y-147916000D01*
X176034000Y-147956000D02*
X171946000Y-147956000D01*
X175985000Y-147996000D02*
X171995000Y-147996000D01*
X175934000Y-148036000D02*
X172046000Y-148036000D01*
X175880000Y-148076000D02*
X172100000Y-148076000D01*
X175824000Y-148116000D02*
X172156000Y-148116000D01*
X175766000Y-148156000D02*
X172214000Y-148156000D01*
X175704000Y-148196000D02*
X172276000Y-148196000D01*
X175640000Y-148236000D02*
X172340000Y-148236000D01*
X175571000Y-148276000D02*
X172409000Y-148276000D01*
X175499000Y-148316000D02*
X172481000Y-148316000D01*
X175422000Y-148356000D02*
X172558000Y-148356000D01*
X175340000Y-148396000D02*
X172640000Y-148396000D01*
X175252000Y-148436000D02*
X172728000Y-148436000D01*
X175155000Y-148476000D02*
X172825000Y-148476000D01*
X175049000Y-148516000D02*
X172931000Y-148516000D01*
X174930000Y-148556000D02*
X173050000Y-148556000D01*
X174792000Y-148596000D02*
X173188000Y-148596000D01*
X174623000Y-148636000D02*
X173357000Y-148636000D01*
X174392000Y-148676000D02*
X173588000Y-148676000D01*
X175829000Y-141934759D02*
X175829000Y-142564759D01*
X176144000Y-142249759D02*
X175514000Y-142249759D01*
X196930000Y-146030000D02*
G75*
G03*
X196930000Y-146030000I-2620000J0D01*
G01*
X196890000Y-146030000D02*
X191730000Y-146030000D01*
X196890000Y-146070000D02*
X191730000Y-146070000D01*
X196889000Y-146110000D02*
X191731000Y-146110000D01*
X196888000Y-146150000D02*
X191732000Y-146150000D01*
X196886000Y-146190000D02*
X191734000Y-146190000D01*
X196883000Y-146230000D02*
X191737000Y-146230000D01*
X196879000Y-146270000D02*
X195350000Y-146270000D01*
X193270000Y-146270000D02*
X191741000Y-146270000D01*
X196875000Y-146310000D02*
X195350000Y-146310000D01*
X193270000Y-146310000D02*
X191745000Y-146310000D01*
X196871000Y-146350000D02*
X195350000Y-146350000D01*
X193270000Y-146350000D02*
X191749000Y-146350000D01*
X196866000Y-146390000D02*
X195350000Y-146390000D01*
X193270000Y-146390000D02*
X191754000Y-146390000D01*
X196860000Y-146430000D02*
X195350000Y-146430000D01*
X193270000Y-146430000D02*
X191760000Y-146430000D01*
X196853000Y-146470000D02*
X195350000Y-146470000D01*
X193270000Y-146470000D02*
X191767000Y-146470000D01*
X196846000Y-146510000D02*
X195350000Y-146510000D01*
X193270000Y-146510000D02*
X191774000Y-146510000D01*
X196838000Y-146550000D02*
X195350000Y-146550000D01*
X193270000Y-146550000D02*
X191782000Y-146550000D01*
X196830000Y-146590000D02*
X195350000Y-146590000D01*
X193270000Y-146590000D02*
X191790000Y-146590000D01*
X196821000Y-146630000D02*
X195350000Y-146630000D01*
X193270000Y-146630000D02*
X191799000Y-146630000D01*
X196811000Y-146670000D02*
X195350000Y-146670000D01*
X193270000Y-146670000D02*
X191809000Y-146670000D01*
X196801000Y-146710000D02*
X195350000Y-146710000D01*
X193270000Y-146710000D02*
X191819000Y-146710000D01*
X196790000Y-146751000D02*
X195350000Y-146751000D01*
X193270000Y-146751000D02*
X191830000Y-146751000D01*
X196778000Y-146791000D02*
X195350000Y-146791000D01*
X193270000Y-146791000D02*
X191842000Y-146791000D01*
X196765000Y-146831000D02*
X195350000Y-146831000D01*
X193270000Y-146831000D02*
X191855000Y-146831000D01*
X196752000Y-146871000D02*
X195350000Y-146871000D01*
X193270000Y-146871000D02*
X191868000Y-146871000D01*
X196738000Y-146911000D02*
X195350000Y-146911000D01*
X193270000Y-146911000D02*
X191882000Y-146911000D01*
X196724000Y-146951000D02*
X195350000Y-146951000D01*
X193270000Y-146951000D02*
X191896000Y-146951000D01*
X196708000Y-146991000D02*
X195350000Y-146991000D01*
X193270000Y-146991000D02*
X191912000Y-146991000D01*
X196692000Y-147031000D02*
X195350000Y-147031000D01*
X193270000Y-147031000D02*
X191928000Y-147031000D01*
X196675000Y-147071000D02*
X195350000Y-147071000D01*
X193270000Y-147071000D02*
X191945000Y-147071000D01*
X196658000Y-147111000D02*
X195350000Y-147111000D01*
X193270000Y-147111000D02*
X191962000Y-147111000D01*
X196639000Y-147151000D02*
X195350000Y-147151000D01*
X193270000Y-147151000D02*
X191981000Y-147151000D01*
X196620000Y-147191000D02*
X195350000Y-147191000D01*
X193270000Y-147191000D02*
X192000000Y-147191000D01*
X196600000Y-147231000D02*
X195350000Y-147231000D01*
X193270000Y-147231000D02*
X192020000Y-147231000D01*
X196578000Y-147271000D02*
X195350000Y-147271000D01*
X193270000Y-147271000D02*
X192042000Y-147271000D01*
X196557000Y-147311000D02*
X195350000Y-147311000D01*
X193270000Y-147311000D02*
X192063000Y-147311000D01*
X196534000Y-147351000D02*
X195350000Y-147351000D01*
X193270000Y-147351000D02*
X192086000Y-147351000D01*
X196510000Y-147391000D02*
X195350000Y-147391000D01*
X193270000Y-147391000D02*
X192110000Y-147391000D01*
X196485000Y-147431000D02*
X195350000Y-147431000D01*
X193270000Y-147431000D02*
X192135000Y-147431000D01*
X196459000Y-147471000D02*
X195350000Y-147471000D01*
X193270000Y-147471000D02*
X192161000Y-147471000D01*
X196432000Y-147511000D02*
X195350000Y-147511000D01*
X193270000Y-147511000D02*
X192188000Y-147511000D01*
X196405000Y-147551000D02*
X195350000Y-147551000D01*
X193270000Y-147551000D02*
X192215000Y-147551000D01*
X196375000Y-147591000D02*
X195350000Y-147591000D01*
X193270000Y-147591000D02*
X192245000Y-147591000D01*
X196345000Y-147631000D02*
X195350000Y-147631000D01*
X193270000Y-147631000D02*
X192275000Y-147631000D01*
X196314000Y-147671000D02*
X195350000Y-147671000D01*
X193270000Y-147671000D02*
X192306000Y-147671000D01*
X196281000Y-147711000D02*
X195350000Y-147711000D01*
X193270000Y-147711000D02*
X192339000Y-147711000D01*
X196247000Y-147751000D02*
X195350000Y-147751000D01*
X193270000Y-147751000D02*
X192373000Y-147751000D01*
X196211000Y-147791000D02*
X195350000Y-147791000D01*
X193270000Y-147791000D02*
X192409000Y-147791000D01*
X196174000Y-147831000D02*
X195350000Y-147831000D01*
X193270000Y-147831000D02*
X192446000Y-147831000D01*
X196136000Y-147871000D02*
X195350000Y-147871000D01*
X193270000Y-147871000D02*
X192484000Y-147871000D01*
X196095000Y-147911000D02*
X195350000Y-147911000D01*
X193270000Y-147911000D02*
X192525000Y-147911000D01*
X196053000Y-147951000D02*
X195350000Y-147951000D01*
X193270000Y-147951000D02*
X192567000Y-147951000D01*
X196009000Y-147991000D02*
X195350000Y-147991000D01*
X193270000Y-147991000D02*
X192611000Y-147991000D01*
X195963000Y-148031000D02*
X195350000Y-148031000D01*
X193270000Y-148031000D02*
X192657000Y-148031000D01*
X195915000Y-148071000D02*
X195350000Y-148071000D01*
X193270000Y-148071000D02*
X192705000Y-148071000D01*
X195864000Y-148111000D02*
X195350000Y-148111000D01*
X193270000Y-148111000D02*
X192756000Y-148111000D01*
X195810000Y-148151000D02*
X195350000Y-148151000D01*
X193270000Y-148151000D02*
X192810000Y-148151000D01*
X195753000Y-148191000D02*
X195350000Y-148191000D01*
X193270000Y-148191000D02*
X192867000Y-148191000D01*
X195693000Y-148231000D02*
X195350000Y-148231000D01*
X193270000Y-148231000D02*
X192927000Y-148231000D01*
X195629000Y-148271000D02*
X195350000Y-148271000D01*
X193270000Y-148271000D02*
X192991000Y-148271000D01*
X195561000Y-148311000D02*
X195350000Y-148311000D01*
X193270000Y-148311000D02*
X193059000Y-148311000D01*
X195488000Y-148351000D02*
X193132000Y-148351000D01*
X195408000Y-148391000D02*
X193212000Y-148391000D01*
X195321000Y-148431000D02*
X193299000Y-148431000D01*
X195225000Y-148471000D02*
X193395000Y-148471000D01*
X195115000Y-148511000D02*
X193505000Y-148511000D01*
X194987000Y-148551000D02*
X193633000Y-148551000D01*
X194828000Y-148591000D02*
X193792000Y-148591000D01*
X194594000Y-148631000D02*
X194026000Y-148631000D01*
X195785000Y-143225225D02*
X195785000Y-143725225D01*
X196035000Y-143475225D02*
X195535000Y-143475225D01*
X183501000Y-119730000D02*
X184759000Y-119730000D01*
X183501000Y-121570000D02*
X184759000Y-121570000D01*
X205835000Y-146030000D02*
G75*
G03*
X205835000Y-146030000I-3270000J0D01*
G01*
X205795000Y-146030000D02*
X199335000Y-146030000D01*
X205795000Y-146070000D02*
X199335000Y-146070000D01*
X205795000Y-146110000D02*
X199335000Y-146110000D01*
X205793000Y-146150000D02*
X199337000Y-146150000D01*
X205792000Y-146190000D02*
X199338000Y-146190000D01*
X205789000Y-146230000D02*
X199341000Y-146230000D01*
X205787000Y-146270000D02*
X203605000Y-146270000D01*
X201525000Y-146270000D02*
X199343000Y-146270000D01*
X205783000Y-146310000D02*
X203605000Y-146310000D01*
X201525000Y-146310000D02*
X199347000Y-146310000D01*
X205780000Y-146350000D02*
X203605000Y-146350000D01*
X201525000Y-146350000D02*
X199350000Y-146350000D01*
X205776000Y-146390000D02*
X203605000Y-146390000D01*
X201525000Y-146390000D02*
X199354000Y-146390000D01*
X205771000Y-146430000D02*
X203605000Y-146430000D01*
X201525000Y-146430000D02*
X199359000Y-146430000D01*
X205766000Y-146470000D02*
X203605000Y-146470000D01*
X201525000Y-146470000D02*
X199364000Y-146470000D01*
X205760000Y-146510000D02*
X203605000Y-146510000D01*
X201525000Y-146510000D02*
X199370000Y-146510000D01*
X205754000Y-146550000D02*
X203605000Y-146550000D01*
X201525000Y-146550000D02*
X199376000Y-146550000D01*
X205747000Y-146590000D02*
X203605000Y-146590000D01*
X201525000Y-146590000D02*
X199383000Y-146590000D01*
X205740000Y-146630000D02*
X203605000Y-146630000D01*
X201525000Y-146630000D02*
X199390000Y-146630000D01*
X205732000Y-146670000D02*
X203605000Y-146670000D01*
X201525000Y-146670000D02*
X199398000Y-146670000D01*
X205724000Y-146710000D02*
X203605000Y-146710000D01*
X201525000Y-146710000D02*
X199406000Y-146710000D01*
X205715000Y-146751000D02*
X203605000Y-146751000D01*
X201525000Y-146751000D02*
X199415000Y-146751000D01*
X205706000Y-146791000D02*
X203605000Y-146791000D01*
X201525000Y-146791000D02*
X199424000Y-146791000D01*
X205696000Y-146831000D02*
X203605000Y-146831000D01*
X201525000Y-146831000D02*
X199434000Y-146831000D01*
X205686000Y-146871000D02*
X203605000Y-146871000D01*
X201525000Y-146871000D02*
X199444000Y-146871000D01*
X205675000Y-146911000D02*
X203605000Y-146911000D01*
X201525000Y-146911000D02*
X199455000Y-146911000D01*
X205663000Y-146951000D02*
X203605000Y-146951000D01*
X201525000Y-146951000D02*
X199467000Y-146951000D01*
X205651000Y-146991000D02*
X203605000Y-146991000D01*
X201525000Y-146991000D02*
X199479000Y-146991000D01*
X205639000Y-147031000D02*
X203605000Y-147031000D01*
X201525000Y-147031000D02*
X199491000Y-147031000D01*
X205626000Y-147071000D02*
X203605000Y-147071000D01*
X201525000Y-147071000D02*
X199504000Y-147071000D01*
X205612000Y-147111000D02*
X203605000Y-147111000D01*
X201525000Y-147111000D02*
X199518000Y-147111000D01*
X205598000Y-147151000D02*
X203605000Y-147151000D01*
X201525000Y-147151000D02*
X199532000Y-147151000D01*
X205583000Y-147191000D02*
X203605000Y-147191000D01*
X201525000Y-147191000D02*
X199547000Y-147191000D01*
X205567000Y-147231000D02*
X203605000Y-147231000D01*
X201525000Y-147231000D02*
X199563000Y-147231000D01*
X205551000Y-147271000D02*
X203605000Y-147271000D01*
X201525000Y-147271000D02*
X199579000Y-147271000D01*
X205535000Y-147311000D02*
X203605000Y-147311000D01*
X201525000Y-147311000D02*
X199595000Y-147311000D01*
X205517000Y-147351000D02*
X203605000Y-147351000D01*
X201525000Y-147351000D02*
X199613000Y-147351000D01*
X205499000Y-147391000D02*
X203605000Y-147391000D01*
X201525000Y-147391000D02*
X199631000Y-147391000D01*
X205481000Y-147431000D02*
X203605000Y-147431000D01*
X201525000Y-147431000D02*
X199649000Y-147431000D01*
X205461000Y-147471000D02*
X203605000Y-147471000D01*
X201525000Y-147471000D02*
X199669000Y-147471000D01*
X205441000Y-147511000D02*
X203605000Y-147511000D01*
X201525000Y-147511000D02*
X199689000Y-147511000D01*
X205421000Y-147551000D02*
X203605000Y-147551000D01*
X201525000Y-147551000D02*
X199709000Y-147551000D01*
X205399000Y-147591000D02*
X203605000Y-147591000D01*
X201525000Y-147591000D02*
X199731000Y-147591000D01*
X205377000Y-147631000D02*
X203605000Y-147631000D01*
X201525000Y-147631000D02*
X199753000Y-147631000D01*
X205355000Y-147671000D02*
X203605000Y-147671000D01*
X201525000Y-147671000D02*
X199775000Y-147671000D01*
X205331000Y-147711000D02*
X203605000Y-147711000D01*
X201525000Y-147711000D02*
X199799000Y-147711000D01*
X205307000Y-147751000D02*
X203605000Y-147751000D01*
X201525000Y-147751000D02*
X199823000Y-147751000D01*
X205281000Y-147791000D02*
X203605000Y-147791000D01*
X201525000Y-147791000D02*
X199849000Y-147791000D01*
X205255000Y-147831000D02*
X203605000Y-147831000D01*
X201525000Y-147831000D02*
X199875000Y-147831000D01*
X205229000Y-147871000D02*
X203605000Y-147871000D01*
X201525000Y-147871000D02*
X199901000Y-147871000D01*
X205201000Y-147911000D02*
X203605000Y-147911000D01*
X201525000Y-147911000D02*
X199929000Y-147911000D01*
X205172000Y-147951000D02*
X203605000Y-147951000D01*
X201525000Y-147951000D02*
X199958000Y-147951000D01*
X205143000Y-147991000D02*
X203605000Y-147991000D01*
X201525000Y-147991000D02*
X199987000Y-147991000D01*
X205113000Y-148031000D02*
X203605000Y-148031000D01*
X201525000Y-148031000D02*
X200017000Y-148031000D01*
X205081000Y-148071000D02*
X203605000Y-148071000D01*
X201525000Y-148071000D02*
X200049000Y-148071000D01*
X205049000Y-148111000D02*
X203605000Y-148111000D01*
X201525000Y-148111000D02*
X200081000Y-148111000D01*
X205015000Y-148151000D02*
X203605000Y-148151000D01*
X201525000Y-148151000D02*
X200115000Y-148151000D01*
X204981000Y-148191000D02*
X203605000Y-148191000D01*
X201525000Y-148191000D02*
X200149000Y-148191000D01*
X204945000Y-148231000D02*
X203605000Y-148231000D01*
X201525000Y-148231000D02*
X200185000Y-148231000D01*
X204908000Y-148271000D02*
X203605000Y-148271000D01*
X201525000Y-148271000D02*
X200222000Y-148271000D01*
X204870000Y-148311000D02*
X203605000Y-148311000D01*
X201525000Y-148311000D02*
X200260000Y-148311000D01*
X204830000Y-148351000D02*
X200300000Y-148351000D01*
X204789000Y-148391000D02*
X200341000Y-148391000D01*
X204747000Y-148431000D02*
X200383000Y-148431000D01*
X204702000Y-148471000D02*
X200428000Y-148471000D01*
X204657000Y-148511000D02*
X200473000Y-148511000D01*
X204609000Y-148551000D02*
X200521000Y-148551000D01*
X204560000Y-148591000D02*
X200570000Y-148591000D01*
X204509000Y-148631000D02*
X200621000Y-148631000D01*
X204455000Y-148671000D02*
X200675000Y-148671000D01*
X204399000Y-148711000D02*
X200731000Y-148711000D01*
X204341000Y-148751000D02*
X200789000Y-148751000D01*
X204279000Y-148791000D02*
X200851000Y-148791000D01*
X204215000Y-148831000D02*
X200915000Y-148831000D01*
X204146000Y-148871000D02*
X200984000Y-148871000D01*
X204074000Y-148911000D02*
X201056000Y-148911000D01*
X203997000Y-148951000D02*
X201133000Y-148951000D01*
X203915000Y-148991000D02*
X201215000Y-148991000D01*
X203827000Y-149031000D02*
X201303000Y-149031000D01*
X203730000Y-149071000D02*
X201400000Y-149071000D01*
X203624000Y-149111000D02*
X201506000Y-149111000D01*
X203505000Y-149151000D02*
X201625000Y-149151000D01*
X203367000Y-149191000D02*
X201763000Y-149191000D01*
X203198000Y-149231000D02*
X201932000Y-149231000D01*
X202967000Y-149271000D02*
X202163000Y-149271000D01*
X204404000Y-142529759D02*
X204404000Y-143159759D01*
X204719000Y-142844759D02*
X204089000Y-142844759D01*
X225505000Y-147935000D02*
G75*
G03*
X225505000Y-147935000I-2620000J0D01*
G01*
X225465000Y-147935000D02*
X220305000Y-147935000D01*
X225465000Y-147975000D02*
X220305000Y-147975000D01*
X225464000Y-148015000D02*
X220306000Y-148015000D01*
X225463000Y-148055000D02*
X220307000Y-148055000D01*
X225461000Y-148095000D02*
X220309000Y-148095000D01*
X225458000Y-148135000D02*
X220312000Y-148135000D01*
X225454000Y-148175000D02*
X223925000Y-148175000D01*
X221845000Y-148175000D02*
X220316000Y-148175000D01*
X225450000Y-148215000D02*
X223925000Y-148215000D01*
X221845000Y-148215000D02*
X220320000Y-148215000D01*
X225446000Y-148255000D02*
X223925000Y-148255000D01*
X221845000Y-148255000D02*
X220324000Y-148255000D01*
X225441000Y-148295000D02*
X223925000Y-148295000D01*
X221845000Y-148295000D02*
X220329000Y-148295000D01*
X225435000Y-148335000D02*
X223925000Y-148335000D01*
X221845000Y-148335000D02*
X220335000Y-148335000D01*
X225428000Y-148375000D02*
X223925000Y-148375000D01*
X221845000Y-148375000D02*
X220342000Y-148375000D01*
X225421000Y-148415000D02*
X223925000Y-148415000D01*
X221845000Y-148415000D02*
X220349000Y-148415000D01*
X225413000Y-148455000D02*
X223925000Y-148455000D01*
X221845000Y-148455000D02*
X220357000Y-148455000D01*
X225405000Y-148495000D02*
X223925000Y-148495000D01*
X221845000Y-148495000D02*
X220365000Y-148495000D01*
X225396000Y-148535000D02*
X223925000Y-148535000D01*
X221845000Y-148535000D02*
X220374000Y-148535000D01*
X225386000Y-148575000D02*
X223925000Y-148575000D01*
X221845000Y-148575000D02*
X220384000Y-148575000D01*
X225376000Y-148615000D02*
X223925000Y-148615000D01*
X221845000Y-148615000D02*
X220394000Y-148615000D01*
X225365000Y-148656000D02*
X223925000Y-148656000D01*
X221845000Y-148656000D02*
X220405000Y-148656000D01*
X225353000Y-148696000D02*
X223925000Y-148696000D01*
X221845000Y-148696000D02*
X220417000Y-148696000D01*
X225340000Y-148736000D02*
X223925000Y-148736000D01*
X221845000Y-148736000D02*
X220430000Y-148736000D01*
X225327000Y-148776000D02*
X223925000Y-148776000D01*
X221845000Y-148776000D02*
X220443000Y-148776000D01*
X225313000Y-148816000D02*
X223925000Y-148816000D01*
X221845000Y-148816000D02*
X220457000Y-148816000D01*
X225299000Y-148856000D02*
X223925000Y-148856000D01*
X221845000Y-148856000D02*
X220471000Y-148856000D01*
X225283000Y-148896000D02*
X223925000Y-148896000D01*
X221845000Y-148896000D02*
X220487000Y-148896000D01*
X225267000Y-148936000D02*
X223925000Y-148936000D01*
X221845000Y-148936000D02*
X220503000Y-148936000D01*
X225250000Y-148976000D02*
X223925000Y-148976000D01*
X221845000Y-148976000D02*
X220520000Y-148976000D01*
X225233000Y-149016000D02*
X223925000Y-149016000D01*
X221845000Y-149016000D02*
X220537000Y-149016000D01*
X225214000Y-149056000D02*
X223925000Y-149056000D01*
X221845000Y-149056000D02*
X220556000Y-149056000D01*
X225195000Y-149096000D02*
X223925000Y-149096000D01*
X221845000Y-149096000D02*
X220575000Y-149096000D01*
X225175000Y-149136000D02*
X223925000Y-149136000D01*
X221845000Y-149136000D02*
X220595000Y-149136000D01*
X225153000Y-149176000D02*
X223925000Y-149176000D01*
X221845000Y-149176000D02*
X220617000Y-149176000D01*
X225132000Y-149216000D02*
X223925000Y-149216000D01*
X221845000Y-149216000D02*
X220638000Y-149216000D01*
X225109000Y-149256000D02*
X223925000Y-149256000D01*
X221845000Y-149256000D02*
X220661000Y-149256000D01*
X225085000Y-149296000D02*
X223925000Y-149296000D01*
X221845000Y-149296000D02*
X220685000Y-149296000D01*
X225060000Y-149336000D02*
X223925000Y-149336000D01*
X221845000Y-149336000D02*
X220710000Y-149336000D01*
X225034000Y-149376000D02*
X223925000Y-149376000D01*
X221845000Y-149376000D02*
X220736000Y-149376000D01*
X225007000Y-149416000D02*
X223925000Y-149416000D01*
X221845000Y-149416000D02*
X220763000Y-149416000D01*
X224980000Y-149456000D02*
X223925000Y-149456000D01*
X221845000Y-149456000D02*
X220790000Y-149456000D01*
X224950000Y-149496000D02*
X223925000Y-149496000D01*
X221845000Y-149496000D02*
X220820000Y-149496000D01*
X224920000Y-149536000D02*
X223925000Y-149536000D01*
X221845000Y-149536000D02*
X220850000Y-149536000D01*
X224889000Y-149576000D02*
X223925000Y-149576000D01*
X221845000Y-149576000D02*
X220881000Y-149576000D01*
X224856000Y-149616000D02*
X223925000Y-149616000D01*
X221845000Y-149616000D02*
X220914000Y-149616000D01*
X224822000Y-149656000D02*
X223925000Y-149656000D01*
X221845000Y-149656000D02*
X220948000Y-149656000D01*
X224786000Y-149696000D02*
X223925000Y-149696000D01*
X221845000Y-149696000D02*
X220984000Y-149696000D01*
X224749000Y-149736000D02*
X223925000Y-149736000D01*
X221845000Y-149736000D02*
X221021000Y-149736000D01*
X224711000Y-149776000D02*
X223925000Y-149776000D01*
X221845000Y-149776000D02*
X221059000Y-149776000D01*
X224670000Y-149816000D02*
X223925000Y-149816000D01*
X221845000Y-149816000D02*
X221100000Y-149816000D01*
X224628000Y-149856000D02*
X223925000Y-149856000D01*
X221845000Y-149856000D02*
X221142000Y-149856000D01*
X224584000Y-149896000D02*
X223925000Y-149896000D01*
X221845000Y-149896000D02*
X221186000Y-149896000D01*
X224538000Y-149936000D02*
X223925000Y-149936000D01*
X221845000Y-149936000D02*
X221232000Y-149936000D01*
X224490000Y-149976000D02*
X223925000Y-149976000D01*
X221845000Y-149976000D02*
X221280000Y-149976000D01*
X224439000Y-150016000D02*
X223925000Y-150016000D01*
X221845000Y-150016000D02*
X221331000Y-150016000D01*
X224385000Y-150056000D02*
X223925000Y-150056000D01*
X221845000Y-150056000D02*
X221385000Y-150056000D01*
X224328000Y-150096000D02*
X223925000Y-150096000D01*
X221845000Y-150096000D02*
X221442000Y-150096000D01*
X224268000Y-150136000D02*
X223925000Y-150136000D01*
X221845000Y-150136000D02*
X221502000Y-150136000D01*
X224204000Y-150176000D02*
X223925000Y-150176000D01*
X221845000Y-150176000D02*
X221566000Y-150176000D01*
X224136000Y-150216000D02*
X223925000Y-150216000D01*
X221845000Y-150216000D02*
X221634000Y-150216000D01*
X224063000Y-150256000D02*
X221707000Y-150256000D01*
X223983000Y-150296000D02*
X221787000Y-150296000D01*
X223896000Y-150336000D02*
X221874000Y-150336000D01*
X223800000Y-150376000D02*
X221970000Y-150376000D01*
X223690000Y-150416000D02*
X222080000Y-150416000D01*
X223562000Y-150456000D02*
X222208000Y-150456000D01*
X223403000Y-150496000D02*
X222367000Y-150496000D01*
X223169000Y-150536000D02*
X222601000Y-150536000D01*
X224360000Y-145130225D02*
X224360000Y-145630225D01*
X224610000Y-145380225D02*
X224110000Y-145380225D01*
X222236000Y-142590000D02*
X223494000Y-142590000D01*
X222236000Y-144430000D02*
X223494000Y-144430000D01*
D10*
X240038095Y-90467380D02*
X240609523Y-90467380D01*
X240323809Y-91467380D02*
X240323809Y-90467380D01*
X240942857Y-91467380D02*
X240942857Y-90467380D01*
X241323809Y-90467380D01*
X241419047Y-90515000D01*
X241466666Y-90562619D01*
X241514285Y-90657857D01*
X241514285Y-90800714D01*
X241466666Y-90895952D01*
X241419047Y-90943571D01*
X241323809Y-90991190D01*
X240942857Y-90991190D01*
X242466666Y-91467380D02*
X241895238Y-91467380D01*
X242180952Y-91467380D02*
X242180952Y-90467380D01*
X242085714Y-90610238D01*
X241990476Y-90705476D01*
X241895238Y-90753095D01*
X198782380Y-93511666D02*
X198306190Y-93845000D01*
X198782380Y-94083095D02*
X197782380Y-94083095D01*
X197782380Y-93702142D01*
X197830000Y-93606904D01*
X197877619Y-93559285D01*
X197972857Y-93511666D01*
X198115714Y-93511666D01*
X198210952Y-93559285D01*
X198258571Y-93606904D01*
X198306190Y-93702142D01*
X198306190Y-94083095D01*
X198782380Y-92559285D02*
X198782380Y-93130714D01*
X198782380Y-92845000D02*
X197782380Y-92845000D01*
X197925238Y-92940238D01*
X198020476Y-93035476D01*
X198068095Y-93130714D01*
X184642380Y-152312666D02*
X184642380Y-152788857D01*
X183642380Y-152788857D01*
X184642380Y-151455523D02*
X184642380Y-152026952D01*
X184642380Y-151741238D02*
X183642380Y-151741238D01*
X183785238Y-151836476D01*
X183880476Y-151931714D01*
X183928095Y-152026952D01*
X213233095Y-140422380D02*
X213233095Y-141231904D01*
X213280714Y-141327142D01*
X213328333Y-141374761D01*
X213423571Y-141422380D01*
X213614047Y-141422380D01*
X213709285Y-141374761D01*
X213756904Y-141327142D01*
X213804523Y-141231904D01*
X213804523Y-140422380D01*
X214233095Y-140517619D02*
X214280714Y-140470000D01*
X214375952Y-140422380D01*
X214614047Y-140422380D01*
X214709285Y-140470000D01*
X214756904Y-140517619D01*
X214804523Y-140612857D01*
X214804523Y-140708095D01*
X214756904Y-140850952D01*
X214185476Y-141422380D01*
X214804523Y-141422380D01*
X246213333Y-129897142D02*
X246165714Y-129944761D01*
X246022857Y-129992380D01*
X245927619Y-129992380D01*
X245784761Y-129944761D01*
X245689523Y-129849523D01*
X245641904Y-129754285D01*
X245594285Y-129563809D01*
X245594285Y-129420952D01*
X245641904Y-129230476D01*
X245689523Y-129135238D01*
X245784761Y-129040000D01*
X245927619Y-128992380D01*
X246022857Y-128992380D01*
X246165714Y-129040000D01*
X246213333Y-129087619D01*
X246784761Y-129420952D02*
X246689523Y-129373333D01*
X246641904Y-129325714D01*
X246594285Y-129230476D01*
X246594285Y-129182857D01*
X246641904Y-129087619D01*
X246689523Y-129040000D01*
X246784761Y-128992380D01*
X246975238Y-128992380D01*
X247070476Y-129040000D01*
X247118095Y-129087619D01*
X247165714Y-129182857D01*
X247165714Y-129230476D01*
X247118095Y-129325714D01*
X247070476Y-129373333D01*
X246975238Y-129420952D01*
X246784761Y-129420952D01*
X246689523Y-129468571D01*
X246641904Y-129516190D01*
X246594285Y-129611428D01*
X246594285Y-129801904D01*
X246641904Y-129897142D01*
X246689523Y-129944761D01*
X246784761Y-129992380D01*
X246975238Y-129992380D01*
X247070476Y-129944761D01*
X247118095Y-129897142D01*
X247165714Y-129801904D01*
X247165714Y-129611428D01*
X247118095Y-129516190D01*
X247070476Y-129468571D01*
X246975238Y-129420952D01*
X177633333Y-121907380D02*
X177300000Y-121431190D01*
X177061904Y-121907380D02*
X177061904Y-120907380D01*
X177442857Y-120907380D01*
X177538095Y-120955000D01*
X177585714Y-121002619D01*
X177633333Y-121097857D01*
X177633333Y-121240714D01*
X177585714Y-121335952D01*
X177538095Y-121383571D01*
X177442857Y-121431190D01*
X177061904Y-121431190D01*
X177966666Y-120907380D02*
X178585714Y-120907380D01*
X178252380Y-121288333D01*
X178395238Y-121288333D01*
X178490476Y-121335952D01*
X178538095Y-121383571D01*
X178585714Y-121478809D01*
X178585714Y-121716904D01*
X178538095Y-121812142D01*
X178490476Y-121859761D01*
X178395238Y-121907380D01*
X178109523Y-121907380D01*
X178014285Y-121859761D01*
X177966666Y-121812142D01*
X213193333Y-91427380D02*
X212860000Y-90951190D01*
X212621904Y-91427380D02*
X212621904Y-90427380D01*
X213002857Y-90427380D01*
X213098095Y-90475000D01*
X213145714Y-90522619D01*
X213193333Y-90617857D01*
X213193333Y-90760714D01*
X213145714Y-90855952D01*
X213098095Y-90903571D01*
X213002857Y-90951190D01*
X212621904Y-90951190D01*
X213574285Y-90522619D02*
X213621904Y-90475000D01*
X213717142Y-90427380D01*
X213955238Y-90427380D01*
X214050476Y-90475000D01*
X214098095Y-90522619D01*
X214145714Y-90617857D01*
X214145714Y-90713095D01*
X214098095Y-90855952D01*
X213526666Y-91427380D01*
X214145714Y-91427380D01*
X165552380Y-144883095D02*
X164552380Y-144883095D01*
X164552380Y-144645000D01*
X164600000Y-144502142D01*
X164695238Y-144406904D01*
X164790476Y-144359285D01*
X164980952Y-144311666D01*
X165123809Y-144311666D01*
X165314285Y-144359285D01*
X165409523Y-144406904D01*
X165504761Y-144502142D01*
X165552380Y-144645000D01*
X165552380Y-144883095D01*
X164885714Y-143454523D02*
X165552380Y-143454523D01*
X164504761Y-143692619D02*
X165219047Y-143930714D01*
X165219047Y-143311666D01*
X170192380Y-139326904D02*
X169192380Y-139326904D01*
X170192380Y-138755476D02*
X169620952Y-139184047D01*
X169192380Y-138755476D02*
X169763809Y-139326904D01*
X177061904Y-137047380D02*
X177061904Y-136047380D01*
X177300000Y-136047380D01*
X177442857Y-136095000D01*
X177538095Y-136190238D01*
X177585714Y-136285476D01*
X177633333Y-136475952D01*
X177633333Y-136618809D01*
X177585714Y-136809285D01*
X177538095Y-136904523D01*
X177442857Y-136999761D01*
X177300000Y-137047380D01*
X177061904Y-137047380D01*
X177966666Y-136047380D02*
X178585714Y-136047380D01*
X178252380Y-136428333D01*
X178395238Y-136428333D01*
X178490476Y-136475952D01*
X178538095Y-136523571D01*
X178585714Y-136618809D01*
X178585714Y-136856904D01*
X178538095Y-136952142D01*
X178490476Y-136999761D01*
X178395238Y-137047380D01*
X178109523Y-137047380D01*
X178014285Y-136999761D01*
X177966666Y-136952142D01*
X172458095Y-137417380D02*
X172458095Y-136417380D01*
X173029523Y-137417380D02*
X172600952Y-136845952D01*
X173029523Y-136417380D02*
X172458095Y-136988809D01*
X234211904Y-142057380D02*
X234211904Y-141057380D01*
X234450000Y-141057380D01*
X234592857Y-141105000D01*
X234688095Y-141200238D01*
X234735714Y-141295476D01*
X234783333Y-141485952D01*
X234783333Y-141628809D01*
X234735714Y-141819285D01*
X234688095Y-141914523D01*
X234592857Y-142009761D01*
X234450000Y-142057380D01*
X234211904Y-142057380D01*
X235164285Y-141152619D02*
X235211904Y-141105000D01*
X235307142Y-141057380D01*
X235545238Y-141057380D01*
X235640476Y-141105000D01*
X235688095Y-141152619D01*
X235735714Y-141247857D01*
X235735714Y-141343095D01*
X235688095Y-141485952D01*
X235116666Y-142057380D01*
X235735714Y-142057380D01*
X229608095Y-137417380D02*
X229608095Y-136417380D01*
X230179523Y-137417380D02*
X229750952Y-136845952D01*
X230179523Y-136417380D02*
X229608095Y-136988809D01*
X248181904Y-136342380D02*
X248181904Y-135342380D01*
X248420000Y-135342380D01*
X248562857Y-135390000D01*
X248658095Y-135485238D01*
X248705714Y-135580476D01*
X248753333Y-135770952D01*
X248753333Y-135913809D01*
X248705714Y-136104285D01*
X248658095Y-136199523D01*
X248562857Y-136294761D01*
X248420000Y-136342380D01*
X248181904Y-136342380D01*
X249705714Y-136342380D02*
X249134285Y-136342380D01*
X249420000Y-136342380D02*
X249420000Y-135342380D01*
X249324761Y-135485238D01*
X249229523Y-135580476D01*
X249134285Y-135628095D01*
X251198095Y-135902380D02*
X251198095Y-134902380D01*
X251769523Y-135902380D02*
X251340952Y-135330952D01*
X251769523Y-134902380D02*
X251198095Y-135473809D01*
X171116666Y-82232380D02*
X171116666Y-82946666D01*
X171069047Y-83089523D01*
X170973809Y-83184761D01*
X170830952Y-83232380D01*
X170735714Y-83232380D01*
X171497619Y-82232380D02*
X172116666Y-82232380D01*
X171783333Y-82613333D01*
X171926190Y-82613333D01*
X172021428Y-82660952D01*
X172069047Y-82708571D01*
X172116666Y-82803809D01*
X172116666Y-83041904D01*
X172069047Y-83137142D01*
X172021428Y-83184761D01*
X171926190Y-83232380D01*
X171640476Y-83232380D01*
X171545238Y-83184761D01*
X171497619Y-83137142D01*
X189275714Y-66029380D02*
X189275714Y-65029380D01*
X189513809Y-65029380D01*
X189656666Y-65077000D01*
X189751904Y-65172238D01*
X189799523Y-65267476D01*
X189847142Y-65457952D01*
X189847142Y-65600809D01*
X189799523Y-65791285D01*
X189751904Y-65886523D01*
X189656666Y-65981761D01*
X189513809Y-66029380D01*
X189275714Y-66029380D01*
X190228095Y-65981761D02*
X190370952Y-66029380D01*
X190609047Y-66029380D01*
X190704285Y-65981761D01*
X190751904Y-65934142D01*
X190799523Y-65838904D01*
X190799523Y-65743666D01*
X190751904Y-65648428D01*
X190704285Y-65600809D01*
X190609047Y-65553190D01*
X190418571Y-65505571D01*
X190323333Y-65457952D01*
X190275714Y-65410333D01*
X190228095Y-65315095D01*
X190228095Y-65219857D01*
X190275714Y-65124619D01*
X190323333Y-65077000D01*
X190418571Y-65029380D01*
X190656666Y-65029380D01*
X190799523Y-65077000D01*
X191751904Y-66029380D02*
X191180476Y-66029380D01*
X191466190Y-66029380D02*
X191466190Y-65029380D01*
X191370952Y-65172238D01*
X191275714Y-65267476D01*
X191180476Y-65315095D01*
X189180476Y-57409380D02*
X189751904Y-57409380D01*
X189466190Y-58409380D02*
X189466190Y-57409380D01*
X190275714Y-57409380D02*
X190466190Y-57409380D01*
X190561428Y-57457000D01*
X190656666Y-57552238D01*
X190704285Y-57742714D01*
X190704285Y-58076047D01*
X190656666Y-58266523D01*
X190561428Y-58361761D01*
X190466190Y-58409380D01*
X190275714Y-58409380D01*
X190180476Y-58361761D01*
X190085238Y-58266523D01*
X190037619Y-58076047D01*
X190037619Y-57742714D01*
X190085238Y-57552238D01*
X190180476Y-57457000D01*
X190275714Y-57409380D01*
X191132857Y-58409380D02*
X191132857Y-57409380D01*
X191513809Y-57409380D01*
X191609047Y-57457000D01*
X191656666Y-57504619D01*
X191704285Y-57599857D01*
X191704285Y-57742714D01*
X191656666Y-57837952D01*
X191609047Y-57885571D01*
X191513809Y-57933190D01*
X191132857Y-57933190D01*
X198048571Y-67190714D02*
X198048571Y-67524047D01*
X198572380Y-67524047D02*
X197572380Y-67524047D01*
X197572380Y-67047857D01*
X198572380Y-66095476D02*
X198096190Y-66428809D01*
X198572380Y-66666904D02*
X197572380Y-66666904D01*
X197572380Y-66285952D01*
X197620000Y-66190714D01*
X197667619Y-66143095D01*
X197762857Y-66095476D01*
X197905714Y-66095476D01*
X198000952Y-66143095D01*
X198048571Y-66190714D01*
X198096190Y-66285952D01*
X198096190Y-66666904D01*
X197572380Y-65476428D02*
X197572380Y-65285952D01*
X197620000Y-65190714D01*
X197715238Y-65095476D01*
X197905714Y-65047857D01*
X198239047Y-65047857D01*
X198429523Y-65095476D01*
X198524761Y-65190714D01*
X198572380Y-65285952D01*
X198572380Y-65476428D01*
X198524761Y-65571666D01*
X198429523Y-65666904D01*
X198239047Y-65714523D01*
X197905714Y-65714523D01*
X197715238Y-65666904D01*
X197620000Y-65571666D01*
X197572380Y-65476428D01*
X198572380Y-64619285D02*
X197572380Y-64619285D01*
X198572380Y-64047857D01*
X197572380Y-64047857D01*
X197572380Y-63714523D02*
X197572380Y-63143095D01*
X198572380Y-63428809D02*
X197572380Y-63428809D01*
X192722380Y-93678333D02*
X193436666Y-93678333D01*
X193579523Y-93725952D01*
X193674761Y-93821190D01*
X193722380Y-93964047D01*
X193722380Y-94059285D01*
X192817619Y-93249761D02*
X192770000Y-93202142D01*
X192722380Y-93106904D01*
X192722380Y-92868809D01*
X192770000Y-92773571D01*
X192817619Y-92725952D01*
X192912857Y-92678333D01*
X193008095Y-92678333D01*
X193150952Y-92725952D01*
X193722380Y-93297380D01*
X193722380Y-92678333D01*
X178288095Y-107317380D02*
X178288095Y-108126904D01*
X178335714Y-108222142D01*
X178383333Y-108269761D01*
X178478571Y-108317380D01*
X178669047Y-108317380D01*
X178764285Y-108269761D01*
X178811904Y-108222142D01*
X178859523Y-108126904D01*
X178859523Y-107317380D01*
X179240476Y-107317380D02*
X179859523Y-107317380D01*
X179526190Y-107698333D01*
X179669047Y-107698333D01*
X179764285Y-107745952D01*
X179811904Y-107793571D01*
X179859523Y-107888809D01*
X179859523Y-108126904D01*
X179811904Y-108222142D01*
X179764285Y-108269761D01*
X179669047Y-108317380D01*
X179383333Y-108317380D01*
X179288095Y-108269761D01*
X179240476Y-108222142D01*
X229800666Y-151820571D02*
X229467333Y-151820571D01*
X229467333Y-152344380D02*
X229467333Y-151344380D01*
X229943523Y-151344380D01*
X230848285Y-152344380D02*
X230276857Y-152344380D01*
X230562571Y-152344380D02*
X230562571Y-151344380D01*
X230467333Y-151487238D01*
X230372095Y-151582476D01*
X230276857Y-151630095D01*
X240966666Y-142327380D02*
X240966666Y-143041666D01*
X240919047Y-143184523D01*
X240823809Y-143279761D01*
X240680952Y-143327380D01*
X240585714Y-143327380D01*
X241966666Y-143327380D02*
X241395238Y-143327380D01*
X241680952Y-143327380D02*
X241680952Y-142327380D01*
X241585714Y-142470238D01*
X241490476Y-142565476D01*
X241395238Y-142613095D01*
X216622380Y-114426904D02*
X217431904Y-114426904D01*
X217527142Y-114379285D01*
X217574761Y-114331666D01*
X217622380Y-114236428D01*
X217622380Y-114045952D01*
X217574761Y-113950714D01*
X217527142Y-113903095D01*
X217431904Y-113855476D01*
X216622380Y-113855476D01*
X217622380Y-112855476D02*
X217622380Y-113426904D01*
X217622380Y-113141190D02*
X216622380Y-113141190D01*
X216765238Y-113236428D01*
X216860476Y-113331666D01*
X216908095Y-113426904D01*
X189142619Y-141700238D02*
X189095000Y-141795476D01*
X188999761Y-141890714D01*
X188856904Y-142033571D01*
X188809285Y-142128809D01*
X188809285Y-142224047D01*
X189047380Y-142176428D02*
X188999761Y-142271666D01*
X188904523Y-142366904D01*
X188714047Y-142414523D01*
X188380714Y-142414523D01*
X188190238Y-142366904D01*
X188095000Y-142271666D01*
X188047380Y-142176428D01*
X188047380Y-141985952D01*
X188095000Y-141890714D01*
X188190238Y-141795476D01*
X188380714Y-141747857D01*
X188714047Y-141747857D01*
X188904523Y-141795476D01*
X188999761Y-141890714D01*
X189047380Y-141985952D01*
X189047380Y-142176428D01*
X189047380Y-140795476D02*
X189047380Y-141366904D01*
X189047380Y-141081190D02*
X188047380Y-141081190D01*
X188190238Y-141176428D01*
X188285476Y-141271666D01*
X188333095Y-141366904D01*
X171212142Y-120816666D02*
X171259761Y-120864285D01*
X171307380Y-121007142D01*
X171307380Y-121102380D01*
X171259761Y-121245238D01*
X171164523Y-121340476D01*
X171069285Y-121388095D01*
X170878809Y-121435714D01*
X170735952Y-121435714D01*
X170545476Y-121388095D01*
X170450238Y-121340476D01*
X170355000Y-121245238D01*
X170307380Y-121102380D01*
X170307380Y-121007142D01*
X170355000Y-120864285D01*
X170402619Y-120816666D01*
X170307380Y-120483333D02*
X170307380Y-119816666D01*
X171307380Y-120245238D01*
X173823333Y-150217142D02*
X173775714Y-150264761D01*
X173632857Y-150312380D01*
X173537619Y-150312380D01*
X173394761Y-150264761D01*
X173299523Y-150169523D01*
X173251904Y-150074285D01*
X173204285Y-149883809D01*
X173204285Y-149740952D01*
X173251904Y-149550476D01*
X173299523Y-149455238D01*
X173394761Y-149360000D01*
X173537619Y-149312380D01*
X173632857Y-149312380D01*
X173775714Y-149360000D01*
X173823333Y-149407619D01*
X174680476Y-149312380D02*
X174490000Y-149312380D01*
X174394761Y-149360000D01*
X174347142Y-149407619D01*
X174251904Y-149550476D01*
X174204285Y-149740952D01*
X174204285Y-150121904D01*
X174251904Y-150217142D01*
X174299523Y-150264761D01*
X174394761Y-150312380D01*
X174585238Y-150312380D01*
X174680476Y-150264761D01*
X174728095Y-150217142D01*
X174775714Y-150121904D01*
X174775714Y-149883809D01*
X174728095Y-149788571D01*
X174680476Y-149740952D01*
X174585238Y-149693333D01*
X174394761Y-149693333D01*
X174299523Y-149740952D01*
X174251904Y-149788571D01*
X174204285Y-149883809D01*
X194143333Y-150217142D02*
X194095714Y-150264761D01*
X193952857Y-150312380D01*
X193857619Y-150312380D01*
X193714761Y-150264761D01*
X193619523Y-150169523D01*
X193571904Y-150074285D01*
X193524285Y-149883809D01*
X193524285Y-149740952D01*
X193571904Y-149550476D01*
X193619523Y-149455238D01*
X193714761Y-149360000D01*
X193857619Y-149312380D01*
X193952857Y-149312380D01*
X194095714Y-149360000D01*
X194143333Y-149407619D01*
X195048095Y-149312380D02*
X194571904Y-149312380D01*
X194524285Y-149788571D01*
X194571904Y-149740952D01*
X194667142Y-149693333D01*
X194905238Y-149693333D01*
X195000476Y-149740952D01*
X195048095Y-149788571D01*
X195095714Y-149883809D01*
X195095714Y-150121904D01*
X195048095Y-150217142D01*
X195000476Y-150264761D01*
X194905238Y-150312380D01*
X194667142Y-150312380D01*
X194571904Y-150264761D01*
X194524285Y-150217142D01*
X187793333Y-121007142D02*
X187745714Y-121054761D01*
X187602857Y-121102380D01*
X187507619Y-121102380D01*
X187364761Y-121054761D01*
X187269523Y-120959523D01*
X187221904Y-120864285D01*
X187174285Y-120673809D01*
X187174285Y-120530952D01*
X187221904Y-120340476D01*
X187269523Y-120245238D01*
X187364761Y-120150000D01*
X187507619Y-120102380D01*
X187602857Y-120102380D01*
X187745714Y-120150000D01*
X187793333Y-120197619D01*
X188650476Y-120435714D02*
X188650476Y-121102380D01*
X188412380Y-120054761D02*
X188174285Y-120769047D01*
X188793333Y-120769047D01*
X207322142Y-146196666D02*
X207369761Y-146244285D01*
X207417380Y-146387142D01*
X207417380Y-146482380D01*
X207369761Y-146625238D01*
X207274523Y-146720476D01*
X207179285Y-146768095D01*
X206988809Y-146815714D01*
X206845952Y-146815714D01*
X206655476Y-146768095D01*
X206560238Y-146720476D01*
X206465000Y-146625238D01*
X206417380Y-146482380D01*
X206417380Y-146387142D01*
X206465000Y-146244285D01*
X206512619Y-146196666D01*
X206417380Y-145863333D02*
X206417380Y-145244285D01*
X206798333Y-145577619D01*
X206798333Y-145434761D01*
X206845952Y-145339523D01*
X206893571Y-145291904D01*
X206988809Y-145244285D01*
X207226904Y-145244285D01*
X207322142Y-145291904D01*
X207369761Y-145339523D01*
X207417380Y-145434761D01*
X207417380Y-145720476D01*
X207369761Y-145815714D01*
X207322142Y-145863333D01*
X222718333Y-152122142D02*
X222670714Y-152169761D01*
X222527857Y-152217380D01*
X222432619Y-152217380D01*
X222289761Y-152169761D01*
X222194523Y-152074523D01*
X222146904Y-151979285D01*
X222099285Y-151788809D01*
X222099285Y-151645952D01*
X222146904Y-151455476D01*
X222194523Y-151360238D01*
X222289761Y-151265000D01*
X222432619Y-151217380D01*
X222527857Y-151217380D01*
X222670714Y-151265000D01*
X222718333Y-151312619D01*
X223099285Y-151312619D02*
X223146904Y-151265000D01*
X223242142Y-151217380D01*
X223480238Y-151217380D01*
X223575476Y-151265000D01*
X223623095Y-151312619D01*
X223670714Y-151407857D01*
X223670714Y-151503095D01*
X223623095Y-151645952D01*
X223051666Y-152217380D01*
X223670714Y-152217380D01*
X226417142Y-143676666D02*
X226464761Y-143724285D01*
X226512380Y-143867142D01*
X226512380Y-143962380D01*
X226464761Y-144105238D01*
X226369523Y-144200476D01*
X226274285Y-144248095D01*
X226083809Y-144295714D01*
X225940952Y-144295714D01*
X225750476Y-144248095D01*
X225655238Y-144200476D01*
X225560000Y-144105238D01*
X225512380Y-143962380D01*
X225512380Y-143867142D01*
X225560000Y-143724285D01*
X225607619Y-143676666D01*
X226512380Y-142724285D02*
X226512380Y-143295714D01*
X226512380Y-143010000D02*
X225512380Y-143010000D01*
X225655238Y-143105238D01*
X225750476Y-143200476D01*
X225798095Y-143295714D01*
%LPC*%
D13*
X241300000Y-93345000D03*
D14*
X203200000Y-93345000D03*
D13*
X200660000Y-93345000D03*
D15*
X181690000Y-146050000D03*
X186690000Y-146050000D03*
D16*
X211455000Y-143510000D03*
X213995000Y-143510000D03*
D17*
X216535000Y-143510000D03*
D18*
X161490000Y-81320000D03*
D19*
X248960000Y-129540000D03*
X251460000Y-129540000D03*
D20*
X182880000Y-123825000D03*
D19*
X172720000Y-123825000D03*
D20*
X218440000Y-93345000D03*
D19*
X208280000Y-93345000D03*
D21*
X167640000Y-149225000D03*
D22*
X167640000Y-139065000D03*
D21*
X182880000Y-139065000D03*
D22*
X172720000Y-139065000D03*
D21*
X240030000Y-139065000D03*
D22*
X229870000Y-139065000D03*
D21*
X241300000Y-133350000D03*
D22*
X251460000Y-133350000D03*
D14*
X172720000Y-57150000D03*
X170180000Y-57150000D03*
X172720000Y-59690000D03*
X170180000Y-59690000D03*
X172720000Y-62230000D03*
X170180000Y-62230000D03*
X172720000Y-64770000D03*
X170180000Y-64770000D03*
X172720000Y-67310000D03*
X170180000Y-67310000D03*
X172720000Y-69850000D03*
X170180000Y-69850000D03*
X172720000Y-72390000D03*
X170180000Y-72390000D03*
X172720000Y-74930000D03*
X170180000Y-74930000D03*
X172720000Y-77470000D03*
X170180000Y-77470000D03*
X172720000Y-80010000D03*
D13*
X170180000Y-80010000D03*
D23*
X188039035Y-70743820D03*
X186626308Y-69835910D03*
X185526595Y-68566765D03*
X184828987Y-67039204D03*
X184590001Y-65376982D03*
X184828997Y-63714760D03*
X185526615Y-62187204D03*
X186626336Y-60918066D03*
X188039069Y-60010164D03*
X189650361Y-59537051D03*
X191329676Y-59537057D03*
X192940965Y-60010180D03*
X194353692Y-60918090D03*
X195453405Y-62187235D03*
X196151013Y-63714796D03*
X196389999Y-65377018D03*
X196151003Y-67039240D03*
X195453385Y-68566796D03*
X194353664Y-69835934D03*
X192940931Y-70743836D03*
X191329639Y-71216949D03*
X189650324Y-71216943D03*
D14*
X167640000Y-92075000D03*
X167640000Y-94615000D03*
X170180000Y-92075000D03*
X170180000Y-94615000D03*
X172720000Y-92075000D03*
X172720000Y-94615000D03*
X175260000Y-92075000D03*
X175260000Y-94615000D03*
X177800000Y-92075000D03*
X177800000Y-94615000D03*
X180340000Y-92075000D03*
X180340000Y-94615000D03*
X182880000Y-92075000D03*
X182880000Y-94615000D03*
X185420000Y-92075000D03*
X185420000Y-94615000D03*
X187960000Y-92075000D03*
X187960000Y-94615000D03*
X190500000Y-92075000D03*
D13*
X190500000Y-94615000D03*
G36*
G01*
X181175000Y-109540000D02*
X181175000Y-109340000D01*
G75*
G02*
X181275000Y-109240000I100000J0D01*
G01*
X182550000Y-109240000D01*
G75*
G02*
X182650000Y-109340000I0J-100000D01*
G01*
X182650000Y-109540000D01*
G75*
G02*
X182550000Y-109640000I-100000J0D01*
G01*
X181275000Y-109640000D01*
G75*
G02*
X181175000Y-109540000I0J100000D01*
G01*
G37*
G36*
G01*
X181175000Y-110190000D02*
X181175000Y-109990000D01*
G75*
G02*
X181275000Y-109890000I100000J0D01*
G01*
X182550000Y-109890000D01*
G75*
G02*
X182650000Y-109990000I0J-100000D01*
G01*
X182650000Y-110190000D01*
G75*
G02*
X182550000Y-110290000I-100000J0D01*
G01*
X181275000Y-110290000D01*
G75*
G02*
X181175000Y-110190000I0J100000D01*
G01*
G37*
G36*
G01*
X181175000Y-110840000D02*
X181175000Y-110640000D01*
G75*
G02*
X181275000Y-110540000I100000J0D01*
G01*
X182550000Y-110540000D01*
G75*
G02*
X182650000Y-110640000I0J-100000D01*
G01*
X182650000Y-110840000D01*
G75*
G02*
X182550000Y-110940000I-100000J0D01*
G01*
X181275000Y-110940000D01*
G75*
G02*
X181175000Y-110840000I0J100000D01*
G01*
G37*
G36*
G01*
X181175000Y-111490000D02*
X181175000Y-111290000D01*
G75*
G02*
X181275000Y-111190000I100000J0D01*
G01*
X182550000Y-111190000D01*
G75*
G02*
X182650000Y-111290000I0J-100000D01*
G01*
X182650000Y-111490000D01*
G75*
G02*
X182550000Y-111590000I-100000J0D01*
G01*
X181275000Y-111590000D01*
G75*
G02*
X181175000Y-111490000I0J100000D01*
G01*
G37*
G36*
G01*
X181175000Y-112140000D02*
X181175000Y-111940000D01*
G75*
G02*
X181275000Y-111840000I100000J0D01*
G01*
X182550000Y-111840000D01*
G75*
G02*
X182650000Y-111940000I0J-100000D01*
G01*
X182650000Y-112140000D01*
G75*
G02*
X182550000Y-112240000I-100000J0D01*
G01*
X181275000Y-112240000D01*
G75*
G02*
X181175000Y-112140000I0J100000D01*
G01*
G37*
G36*
G01*
X181175000Y-112790000D02*
X181175000Y-112590000D01*
G75*
G02*
X181275000Y-112490000I100000J0D01*
G01*
X182550000Y-112490000D01*
G75*
G02*
X182650000Y-112590000I0J-100000D01*
G01*
X182650000Y-112790000D01*
G75*
G02*
X182550000Y-112890000I-100000J0D01*
G01*
X181275000Y-112890000D01*
G75*
G02*
X181175000Y-112790000I0J100000D01*
G01*
G37*
G36*
G01*
X181175000Y-113440000D02*
X181175000Y-113240000D01*
G75*
G02*
X181275000Y-113140000I100000J0D01*
G01*
X182550000Y-113140000D01*
G75*
G02*
X182650000Y-113240000I0J-100000D01*
G01*
X182650000Y-113440000D01*
G75*
G02*
X182550000Y-113540000I-100000J0D01*
G01*
X181275000Y-113540000D01*
G75*
G02*
X181175000Y-113440000I0J100000D01*
G01*
G37*
G36*
G01*
X181175000Y-114090000D02*
X181175000Y-113890000D01*
G75*
G02*
X181275000Y-113790000I100000J0D01*
G01*
X182550000Y-113790000D01*
G75*
G02*
X182650000Y-113890000I0J-100000D01*
G01*
X182650000Y-114090000D01*
G75*
G02*
X182550000Y-114190000I-100000J0D01*
G01*
X181275000Y-114190000D01*
G75*
G02*
X181175000Y-114090000I0J100000D01*
G01*
G37*
G36*
G01*
X181175000Y-114740000D02*
X181175000Y-114540000D01*
G75*
G02*
X181275000Y-114440000I100000J0D01*
G01*
X182550000Y-114440000D01*
G75*
G02*
X182650000Y-114540000I0J-100000D01*
G01*
X182650000Y-114740000D01*
G75*
G02*
X182550000Y-114840000I-100000J0D01*
G01*
X181275000Y-114840000D01*
G75*
G02*
X181175000Y-114740000I0J100000D01*
G01*
G37*
G36*
G01*
X181175000Y-115390000D02*
X181175000Y-115190000D01*
G75*
G02*
X181275000Y-115090000I100000J0D01*
G01*
X182550000Y-115090000D01*
G75*
G02*
X182650000Y-115190000I0J-100000D01*
G01*
X182650000Y-115390000D01*
G75*
G02*
X182550000Y-115490000I-100000J0D01*
G01*
X181275000Y-115490000D01*
G75*
G02*
X181175000Y-115390000I0J100000D01*
G01*
G37*
G36*
G01*
X181175000Y-116040000D02*
X181175000Y-115840000D01*
G75*
G02*
X181275000Y-115740000I100000J0D01*
G01*
X182550000Y-115740000D01*
G75*
G02*
X182650000Y-115840000I0J-100000D01*
G01*
X182650000Y-116040000D01*
G75*
G02*
X182550000Y-116140000I-100000J0D01*
G01*
X181275000Y-116140000D01*
G75*
G02*
X181175000Y-116040000I0J100000D01*
G01*
G37*
G36*
G01*
X181175000Y-116690000D02*
X181175000Y-116490000D01*
G75*
G02*
X181275000Y-116390000I100000J0D01*
G01*
X182550000Y-116390000D01*
G75*
G02*
X182650000Y-116490000I0J-100000D01*
G01*
X182650000Y-116690000D01*
G75*
G02*
X182550000Y-116790000I-100000J0D01*
G01*
X181275000Y-116790000D01*
G75*
G02*
X181175000Y-116690000I0J100000D01*
G01*
G37*
G36*
G01*
X181175000Y-117340000D02*
X181175000Y-117140000D01*
G75*
G02*
X181275000Y-117040000I100000J0D01*
G01*
X182550000Y-117040000D01*
G75*
G02*
X182650000Y-117140000I0J-100000D01*
G01*
X182650000Y-117340000D01*
G75*
G02*
X182550000Y-117440000I-100000J0D01*
G01*
X181275000Y-117440000D01*
G75*
G02*
X181175000Y-117340000I0J100000D01*
G01*
G37*
G36*
G01*
X181175000Y-117990000D02*
X181175000Y-117790000D01*
G75*
G02*
X181275000Y-117690000I100000J0D01*
G01*
X182550000Y-117690000D01*
G75*
G02*
X182650000Y-117790000I0J-100000D01*
G01*
X182650000Y-117990000D01*
G75*
G02*
X182550000Y-118090000I-100000J0D01*
G01*
X181275000Y-118090000D01*
G75*
G02*
X181175000Y-117990000I0J100000D01*
G01*
G37*
G36*
G01*
X175450000Y-117990000D02*
X175450000Y-117790000D01*
G75*
G02*
X175550000Y-117690000I100000J0D01*
G01*
X176825000Y-117690000D01*
G75*
G02*
X176925000Y-117790000I0J-100000D01*
G01*
X176925000Y-117990000D01*
G75*
G02*
X176825000Y-118090000I-100000J0D01*
G01*
X175550000Y-118090000D01*
G75*
G02*
X175450000Y-117990000I0J100000D01*
G01*
G37*
G36*
G01*
X175450000Y-117340000D02*
X175450000Y-117140000D01*
G75*
G02*
X175550000Y-117040000I100000J0D01*
G01*
X176825000Y-117040000D01*
G75*
G02*
X176925000Y-117140000I0J-100000D01*
G01*
X176925000Y-117340000D01*
G75*
G02*
X176825000Y-117440000I-100000J0D01*
G01*
X175550000Y-117440000D01*
G75*
G02*
X175450000Y-117340000I0J100000D01*
G01*
G37*
G36*
G01*
X175450000Y-116690000D02*
X175450000Y-116490000D01*
G75*
G02*
X175550000Y-116390000I100000J0D01*
G01*
X176825000Y-116390000D01*
G75*
G02*
X176925000Y-116490000I0J-100000D01*
G01*
X176925000Y-116690000D01*
G75*
G02*
X176825000Y-116790000I-100000J0D01*
G01*
X175550000Y-116790000D01*
G75*
G02*
X175450000Y-116690000I0J100000D01*
G01*
G37*
G36*
G01*
X175450000Y-116040000D02*
X175450000Y-115840000D01*
G75*
G02*
X175550000Y-115740000I100000J0D01*
G01*
X176825000Y-115740000D01*
G75*
G02*
X176925000Y-115840000I0J-100000D01*
G01*
X176925000Y-116040000D01*
G75*
G02*
X176825000Y-116140000I-100000J0D01*
G01*
X175550000Y-116140000D01*
G75*
G02*
X175450000Y-116040000I0J100000D01*
G01*
G37*
G36*
G01*
X175450000Y-115390000D02*
X175450000Y-115190000D01*
G75*
G02*
X175550000Y-115090000I100000J0D01*
G01*
X176825000Y-115090000D01*
G75*
G02*
X176925000Y-115190000I0J-100000D01*
G01*
X176925000Y-115390000D01*
G75*
G02*
X176825000Y-115490000I-100000J0D01*
G01*
X175550000Y-115490000D01*
G75*
G02*
X175450000Y-115390000I0J100000D01*
G01*
G37*
G36*
G01*
X175450000Y-114740000D02*
X175450000Y-114540000D01*
G75*
G02*
X175550000Y-114440000I100000J0D01*
G01*
X176825000Y-114440000D01*
G75*
G02*
X176925000Y-114540000I0J-100000D01*
G01*
X176925000Y-114740000D01*
G75*
G02*
X176825000Y-114840000I-100000J0D01*
G01*
X175550000Y-114840000D01*
G75*
G02*
X175450000Y-114740000I0J100000D01*
G01*
G37*
G36*
G01*
X175450000Y-114090000D02*
X175450000Y-113890000D01*
G75*
G02*
X175550000Y-113790000I100000J0D01*
G01*
X176825000Y-113790000D01*
G75*
G02*
X176925000Y-113890000I0J-100000D01*
G01*
X176925000Y-114090000D01*
G75*
G02*
X176825000Y-114190000I-100000J0D01*
G01*
X175550000Y-114190000D01*
G75*
G02*
X175450000Y-114090000I0J100000D01*
G01*
G37*
G36*
G01*
X175450000Y-113440000D02*
X175450000Y-113240000D01*
G75*
G02*
X175550000Y-113140000I100000J0D01*
G01*
X176825000Y-113140000D01*
G75*
G02*
X176925000Y-113240000I0J-100000D01*
G01*
X176925000Y-113440000D01*
G75*
G02*
X176825000Y-113540000I-100000J0D01*
G01*
X175550000Y-113540000D01*
G75*
G02*
X175450000Y-113440000I0J100000D01*
G01*
G37*
G36*
G01*
X175450000Y-112790000D02*
X175450000Y-112590000D01*
G75*
G02*
X175550000Y-112490000I100000J0D01*
G01*
X176825000Y-112490000D01*
G75*
G02*
X176925000Y-112590000I0J-100000D01*
G01*
X176925000Y-112790000D01*
G75*
G02*
X176825000Y-112890000I-100000J0D01*
G01*
X175550000Y-112890000D01*
G75*
G02*
X175450000Y-112790000I0J100000D01*
G01*
G37*
G36*
G01*
X175450000Y-112140000D02*
X175450000Y-111940000D01*
G75*
G02*
X175550000Y-111840000I100000J0D01*
G01*
X176825000Y-111840000D01*
G75*
G02*
X176925000Y-111940000I0J-100000D01*
G01*
X176925000Y-112140000D01*
G75*
G02*
X176825000Y-112240000I-100000J0D01*
G01*
X175550000Y-112240000D01*
G75*
G02*
X175450000Y-112140000I0J100000D01*
G01*
G37*
G36*
G01*
X175450000Y-111490000D02*
X175450000Y-111290000D01*
G75*
G02*
X175550000Y-111190000I100000J0D01*
G01*
X176825000Y-111190000D01*
G75*
G02*
X176925000Y-111290000I0J-100000D01*
G01*
X176925000Y-111490000D01*
G75*
G02*
X176825000Y-111590000I-100000J0D01*
G01*
X175550000Y-111590000D01*
G75*
G02*
X175450000Y-111490000I0J100000D01*
G01*
G37*
G36*
G01*
X175450000Y-110840000D02*
X175450000Y-110640000D01*
G75*
G02*
X175550000Y-110540000I100000J0D01*
G01*
X176825000Y-110540000D01*
G75*
G02*
X176925000Y-110640000I0J-100000D01*
G01*
X176925000Y-110840000D01*
G75*
G02*
X176825000Y-110940000I-100000J0D01*
G01*
X175550000Y-110940000D01*
G75*
G02*
X175450000Y-110840000I0J100000D01*
G01*
G37*
G36*
G01*
X175450000Y-110190000D02*
X175450000Y-109990000D01*
G75*
G02*
X175550000Y-109890000I100000J0D01*
G01*
X176825000Y-109890000D01*
G75*
G02*
X176925000Y-109990000I0J-100000D01*
G01*
X176925000Y-110190000D01*
G75*
G02*
X176825000Y-110290000I-100000J0D01*
G01*
X175550000Y-110290000D01*
G75*
G02*
X175450000Y-110190000I0J100000D01*
G01*
G37*
G36*
G01*
X175450000Y-109540000D02*
X175450000Y-109340000D01*
G75*
G02*
X175550000Y-109240000I100000J0D01*
G01*
X176825000Y-109240000D01*
G75*
G02*
X176925000Y-109340000I0J-100000D01*
G01*
X176925000Y-109540000D01*
G75*
G02*
X176825000Y-109640000I-100000J0D01*
G01*
X175550000Y-109640000D01*
G75*
G02*
X175450000Y-109540000I0J100000D01*
G01*
G37*
D24*
X211455000Y-135890000D03*
X244475000Y-139700000D03*
X177800000Y-132715000D03*
D18*
X248920000Y-147955000D03*
X160020000Y-147955000D03*
X160020000Y-94615000D03*
X248920000Y-94615000D03*
D25*
X229870000Y-149225000D03*
X229880000Y-144145000D03*
G36*
G01*
X243065000Y-149705000D02*
X241315000Y-149705000D01*
G75*
G02*
X240440000Y-148830000I0J875000D01*
G01*
X240440000Y-147080000D01*
G75*
G02*
X241315000Y-146205000I875000J0D01*
G01*
X243065000Y-146205000D01*
G75*
G02*
X243940000Y-147080000I0J-875000D01*
G01*
X243940000Y-148830000D01*
G75*
G02*
X243065000Y-149705000I-875000J0D01*
G01*
G37*
G36*
G01*
X238490000Y-152455000D02*
X236490000Y-152455000D01*
G75*
G02*
X235740000Y-151705000I0J750000D01*
G01*
X235740000Y-150205000D01*
G75*
G02*
X236490000Y-149455000I750000J0D01*
G01*
X238490000Y-149455000D01*
G75*
G02*
X239240000Y-150205000I0J-750000D01*
G01*
X239240000Y-151705000D01*
G75*
G02*
X238490000Y-152455000I-750000J0D01*
G01*
G37*
D26*
X237490000Y-144955000D03*
D27*
X220980000Y-100965000D03*
X205740000Y-100965000D03*
D28*
X210820000Y-100965000D03*
X218440000Y-100965000D03*
X208280000Y-100965000D03*
X223520000Y-100965000D03*
X215900000Y-100965000D03*
X213360000Y-100965000D03*
X226060000Y-100965000D03*
X228600000Y-100965000D03*
X236220000Y-100965000D03*
X241300000Y-100965000D03*
X238760000Y-100965000D03*
X233680000Y-100965000D03*
X231140000Y-100965000D03*
X251460000Y-100965000D03*
X248920000Y-100965000D03*
X246380000Y-100965000D03*
X243840000Y-100965000D03*
X251460000Y-126365000D03*
X248920000Y-126365000D03*
X246380000Y-126365000D03*
X243840000Y-126365000D03*
X241300000Y-126365000D03*
D27*
X238760000Y-126365000D03*
D28*
X236220000Y-126365000D03*
X233680000Y-126365000D03*
X231140000Y-126365000D03*
X228600000Y-126365000D03*
X226060000Y-126365000D03*
X223520000Y-126365000D03*
X220980000Y-126365000D03*
X218440000Y-126365000D03*
X215900000Y-126365000D03*
X213360000Y-126365000D03*
X210820000Y-126365000D03*
X208280000Y-126365000D03*
X205740000Y-126365000D03*
D20*
X188595000Y-131445000D03*
X191135000Y-139065000D03*
X191135000Y-131445000D03*
D29*
X188595000Y-139065000D03*
D19*
X172760000Y-120650000D03*
X175260000Y-120650000D03*
X173990000Y-146685000D03*
D29*
X173990000Y-144185000D03*
D19*
X194310000Y-147280000D03*
D29*
X194310000Y-144780000D03*
D19*
X185380000Y-120650000D03*
X182880000Y-120650000D03*
X202565000Y-147280000D03*
D29*
X202565000Y-144780000D03*
D19*
X222885000Y-149185000D03*
D29*
X222885000Y-146685000D03*
D19*
X224115000Y-143510000D03*
X221615000Y-143510000D03*
M02*
