G04 #@! TF.GenerationSoftware,KiCad,Pcbnew,(5.1.10)-1*
G04 #@! TF.CreationDate,2021-08-30T10:02:13-04:00*
G04 #@! TF.ProjectId,schematics,73636865-6d61-4746-9963-732e6b696361,rev?*
G04 #@! TF.SameCoordinates,Original*
G04 #@! TF.FileFunction,Paste,Top*
G04 #@! TF.FilePolarity,Positive*
%FSLAX46Y46*%
G04 Gerber Fmt 4.6, Leading zero omitted, Abs format (unit mm)*
G04 Created by KiCad (PCBNEW (5.1.10)-1) date 2021-08-30 10:02:13*
%MOMM*%
%LPD*%
G01*
G04 APERTURE LIST*
G04 APERTURE END LIST*
G36*
G01*
X181175000Y-109540000D02*
X181175000Y-109340000D01*
G75*
G02*
X181275000Y-109240000I100000J0D01*
G01*
X182550000Y-109240000D01*
G75*
G02*
X182650000Y-109340000I0J-100000D01*
G01*
X182650000Y-109540000D01*
G75*
G02*
X182550000Y-109640000I-100000J0D01*
G01*
X181275000Y-109640000D01*
G75*
G02*
X181175000Y-109540000I0J100000D01*
G01*
G37*
G36*
G01*
X181175000Y-110190000D02*
X181175000Y-109990000D01*
G75*
G02*
X181275000Y-109890000I100000J0D01*
G01*
X182550000Y-109890000D01*
G75*
G02*
X182650000Y-109990000I0J-100000D01*
G01*
X182650000Y-110190000D01*
G75*
G02*
X182550000Y-110290000I-100000J0D01*
G01*
X181275000Y-110290000D01*
G75*
G02*
X181175000Y-110190000I0J100000D01*
G01*
G37*
G36*
G01*
X181175000Y-110840000D02*
X181175000Y-110640000D01*
G75*
G02*
X181275000Y-110540000I100000J0D01*
G01*
X182550000Y-110540000D01*
G75*
G02*
X182650000Y-110640000I0J-100000D01*
G01*
X182650000Y-110840000D01*
G75*
G02*
X182550000Y-110940000I-100000J0D01*
G01*
X181275000Y-110940000D01*
G75*
G02*
X181175000Y-110840000I0J100000D01*
G01*
G37*
G36*
G01*
X181175000Y-111490000D02*
X181175000Y-111290000D01*
G75*
G02*
X181275000Y-111190000I100000J0D01*
G01*
X182550000Y-111190000D01*
G75*
G02*
X182650000Y-111290000I0J-100000D01*
G01*
X182650000Y-111490000D01*
G75*
G02*
X182550000Y-111590000I-100000J0D01*
G01*
X181275000Y-111590000D01*
G75*
G02*
X181175000Y-111490000I0J100000D01*
G01*
G37*
G36*
G01*
X181175000Y-112140000D02*
X181175000Y-111940000D01*
G75*
G02*
X181275000Y-111840000I100000J0D01*
G01*
X182550000Y-111840000D01*
G75*
G02*
X182650000Y-111940000I0J-100000D01*
G01*
X182650000Y-112140000D01*
G75*
G02*
X182550000Y-112240000I-100000J0D01*
G01*
X181275000Y-112240000D01*
G75*
G02*
X181175000Y-112140000I0J100000D01*
G01*
G37*
G36*
G01*
X181175000Y-112790000D02*
X181175000Y-112590000D01*
G75*
G02*
X181275000Y-112490000I100000J0D01*
G01*
X182550000Y-112490000D01*
G75*
G02*
X182650000Y-112590000I0J-100000D01*
G01*
X182650000Y-112790000D01*
G75*
G02*
X182550000Y-112890000I-100000J0D01*
G01*
X181275000Y-112890000D01*
G75*
G02*
X181175000Y-112790000I0J100000D01*
G01*
G37*
G36*
G01*
X181175000Y-113440000D02*
X181175000Y-113240000D01*
G75*
G02*
X181275000Y-113140000I100000J0D01*
G01*
X182550000Y-113140000D01*
G75*
G02*
X182650000Y-113240000I0J-100000D01*
G01*
X182650000Y-113440000D01*
G75*
G02*
X182550000Y-113540000I-100000J0D01*
G01*
X181275000Y-113540000D01*
G75*
G02*
X181175000Y-113440000I0J100000D01*
G01*
G37*
G36*
G01*
X181175000Y-114090000D02*
X181175000Y-113890000D01*
G75*
G02*
X181275000Y-113790000I100000J0D01*
G01*
X182550000Y-113790000D01*
G75*
G02*
X182650000Y-113890000I0J-100000D01*
G01*
X182650000Y-114090000D01*
G75*
G02*
X182550000Y-114190000I-100000J0D01*
G01*
X181275000Y-114190000D01*
G75*
G02*
X181175000Y-114090000I0J100000D01*
G01*
G37*
G36*
G01*
X181175000Y-114740000D02*
X181175000Y-114540000D01*
G75*
G02*
X181275000Y-114440000I100000J0D01*
G01*
X182550000Y-114440000D01*
G75*
G02*
X182650000Y-114540000I0J-100000D01*
G01*
X182650000Y-114740000D01*
G75*
G02*
X182550000Y-114840000I-100000J0D01*
G01*
X181275000Y-114840000D01*
G75*
G02*
X181175000Y-114740000I0J100000D01*
G01*
G37*
G36*
G01*
X181175000Y-115390000D02*
X181175000Y-115190000D01*
G75*
G02*
X181275000Y-115090000I100000J0D01*
G01*
X182550000Y-115090000D01*
G75*
G02*
X182650000Y-115190000I0J-100000D01*
G01*
X182650000Y-115390000D01*
G75*
G02*
X182550000Y-115490000I-100000J0D01*
G01*
X181275000Y-115490000D01*
G75*
G02*
X181175000Y-115390000I0J100000D01*
G01*
G37*
G36*
G01*
X181175000Y-116040000D02*
X181175000Y-115840000D01*
G75*
G02*
X181275000Y-115740000I100000J0D01*
G01*
X182550000Y-115740000D01*
G75*
G02*
X182650000Y-115840000I0J-100000D01*
G01*
X182650000Y-116040000D01*
G75*
G02*
X182550000Y-116140000I-100000J0D01*
G01*
X181275000Y-116140000D01*
G75*
G02*
X181175000Y-116040000I0J100000D01*
G01*
G37*
G36*
G01*
X181175000Y-116690000D02*
X181175000Y-116490000D01*
G75*
G02*
X181275000Y-116390000I100000J0D01*
G01*
X182550000Y-116390000D01*
G75*
G02*
X182650000Y-116490000I0J-100000D01*
G01*
X182650000Y-116690000D01*
G75*
G02*
X182550000Y-116790000I-100000J0D01*
G01*
X181275000Y-116790000D01*
G75*
G02*
X181175000Y-116690000I0J100000D01*
G01*
G37*
G36*
G01*
X181175000Y-117340000D02*
X181175000Y-117140000D01*
G75*
G02*
X181275000Y-117040000I100000J0D01*
G01*
X182550000Y-117040000D01*
G75*
G02*
X182650000Y-117140000I0J-100000D01*
G01*
X182650000Y-117340000D01*
G75*
G02*
X182550000Y-117440000I-100000J0D01*
G01*
X181275000Y-117440000D01*
G75*
G02*
X181175000Y-117340000I0J100000D01*
G01*
G37*
G36*
G01*
X181175000Y-117990000D02*
X181175000Y-117790000D01*
G75*
G02*
X181275000Y-117690000I100000J0D01*
G01*
X182550000Y-117690000D01*
G75*
G02*
X182650000Y-117790000I0J-100000D01*
G01*
X182650000Y-117990000D01*
G75*
G02*
X182550000Y-118090000I-100000J0D01*
G01*
X181275000Y-118090000D01*
G75*
G02*
X181175000Y-117990000I0J100000D01*
G01*
G37*
G36*
G01*
X175450000Y-117990000D02*
X175450000Y-117790000D01*
G75*
G02*
X175550000Y-117690000I100000J0D01*
G01*
X176825000Y-117690000D01*
G75*
G02*
X176925000Y-117790000I0J-100000D01*
G01*
X176925000Y-117990000D01*
G75*
G02*
X176825000Y-118090000I-100000J0D01*
G01*
X175550000Y-118090000D01*
G75*
G02*
X175450000Y-117990000I0J100000D01*
G01*
G37*
G36*
G01*
X175450000Y-117340000D02*
X175450000Y-117140000D01*
G75*
G02*
X175550000Y-117040000I100000J0D01*
G01*
X176825000Y-117040000D01*
G75*
G02*
X176925000Y-117140000I0J-100000D01*
G01*
X176925000Y-117340000D01*
G75*
G02*
X176825000Y-117440000I-100000J0D01*
G01*
X175550000Y-117440000D01*
G75*
G02*
X175450000Y-117340000I0J100000D01*
G01*
G37*
G36*
G01*
X175450000Y-116690000D02*
X175450000Y-116490000D01*
G75*
G02*
X175550000Y-116390000I100000J0D01*
G01*
X176825000Y-116390000D01*
G75*
G02*
X176925000Y-116490000I0J-100000D01*
G01*
X176925000Y-116690000D01*
G75*
G02*
X176825000Y-116790000I-100000J0D01*
G01*
X175550000Y-116790000D01*
G75*
G02*
X175450000Y-116690000I0J100000D01*
G01*
G37*
G36*
G01*
X175450000Y-116040000D02*
X175450000Y-115840000D01*
G75*
G02*
X175550000Y-115740000I100000J0D01*
G01*
X176825000Y-115740000D01*
G75*
G02*
X176925000Y-115840000I0J-100000D01*
G01*
X176925000Y-116040000D01*
G75*
G02*
X176825000Y-116140000I-100000J0D01*
G01*
X175550000Y-116140000D01*
G75*
G02*
X175450000Y-116040000I0J100000D01*
G01*
G37*
G36*
G01*
X175450000Y-115390000D02*
X175450000Y-115190000D01*
G75*
G02*
X175550000Y-115090000I100000J0D01*
G01*
X176825000Y-115090000D01*
G75*
G02*
X176925000Y-115190000I0J-100000D01*
G01*
X176925000Y-115390000D01*
G75*
G02*
X176825000Y-115490000I-100000J0D01*
G01*
X175550000Y-115490000D01*
G75*
G02*
X175450000Y-115390000I0J100000D01*
G01*
G37*
G36*
G01*
X175450000Y-114740000D02*
X175450000Y-114540000D01*
G75*
G02*
X175550000Y-114440000I100000J0D01*
G01*
X176825000Y-114440000D01*
G75*
G02*
X176925000Y-114540000I0J-100000D01*
G01*
X176925000Y-114740000D01*
G75*
G02*
X176825000Y-114840000I-100000J0D01*
G01*
X175550000Y-114840000D01*
G75*
G02*
X175450000Y-114740000I0J100000D01*
G01*
G37*
G36*
G01*
X175450000Y-114090000D02*
X175450000Y-113890000D01*
G75*
G02*
X175550000Y-113790000I100000J0D01*
G01*
X176825000Y-113790000D01*
G75*
G02*
X176925000Y-113890000I0J-100000D01*
G01*
X176925000Y-114090000D01*
G75*
G02*
X176825000Y-114190000I-100000J0D01*
G01*
X175550000Y-114190000D01*
G75*
G02*
X175450000Y-114090000I0J100000D01*
G01*
G37*
G36*
G01*
X175450000Y-113440000D02*
X175450000Y-113240000D01*
G75*
G02*
X175550000Y-113140000I100000J0D01*
G01*
X176825000Y-113140000D01*
G75*
G02*
X176925000Y-113240000I0J-100000D01*
G01*
X176925000Y-113440000D01*
G75*
G02*
X176825000Y-113540000I-100000J0D01*
G01*
X175550000Y-113540000D01*
G75*
G02*
X175450000Y-113440000I0J100000D01*
G01*
G37*
G36*
G01*
X175450000Y-112790000D02*
X175450000Y-112590000D01*
G75*
G02*
X175550000Y-112490000I100000J0D01*
G01*
X176825000Y-112490000D01*
G75*
G02*
X176925000Y-112590000I0J-100000D01*
G01*
X176925000Y-112790000D01*
G75*
G02*
X176825000Y-112890000I-100000J0D01*
G01*
X175550000Y-112890000D01*
G75*
G02*
X175450000Y-112790000I0J100000D01*
G01*
G37*
G36*
G01*
X175450000Y-112140000D02*
X175450000Y-111940000D01*
G75*
G02*
X175550000Y-111840000I100000J0D01*
G01*
X176825000Y-111840000D01*
G75*
G02*
X176925000Y-111940000I0J-100000D01*
G01*
X176925000Y-112140000D01*
G75*
G02*
X176825000Y-112240000I-100000J0D01*
G01*
X175550000Y-112240000D01*
G75*
G02*
X175450000Y-112140000I0J100000D01*
G01*
G37*
G36*
G01*
X175450000Y-111490000D02*
X175450000Y-111290000D01*
G75*
G02*
X175550000Y-111190000I100000J0D01*
G01*
X176825000Y-111190000D01*
G75*
G02*
X176925000Y-111290000I0J-100000D01*
G01*
X176925000Y-111490000D01*
G75*
G02*
X176825000Y-111590000I-100000J0D01*
G01*
X175550000Y-111590000D01*
G75*
G02*
X175450000Y-111490000I0J100000D01*
G01*
G37*
G36*
G01*
X175450000Y-110840000D02*
X175450000Y-110640000D01*
G75*
G02*
X175550000Y-110540000I100000J0D01*
G01*
X176825000Y-110540000D01*
G75*
G02*
X176925000Y-110640000I0J-100000D01*
G01*
X176925000Y-110840000D01*
G75*
G02*
X176825000Y-110940000I-100000J0D01*
G01*
X175550000Y-110940000D01*
G75*
G02*
X175450000Y-110840000I0J100000D01*
G01*
G37*
G36*
G01*
X175450000Y-110190000D02*
X175450000Y-109990000D01*
G75*
G02*
X175550000Y-109890000I100000J0D01*
G01*
X176825000Y-109890000D01*
G75*
G02*
X176925000Y-109990000I0J-100000D01*
G01*
X176925000Y-110190000D01*
G75*
G02*
X176825000Y-110290000I-100000J0D01*
G01*
X175550000Y-110290000D01*
G75*
G02*
X175450000Y-110190000I0J100000D01*
G01*
G37*
G36*
G01*
X175450000Y-109540000D02*
X175450000Y-109340000D01*
G75*
G02*
X175550000Y-109240000I100000J0D01*
G01*
X176825000Y-109240000D01*
G75*
G02*
X176925000Y-109340000I0J-100000D01*
G01*
X176925000Y-109540000D01*
G75*
G02*
X176825000Y-109640000I-100000J0D01*
G01*
X175550000Y-109640000D01*
G75*
G02*
X175450000Y-109540000I0J100000D01*
G01*
G37*
M02*
