G04 #@! TF.GenerationSoftware,KiCad,Pcbnew,(5.1.10)-1*
G04 #@! TF.CreationDate,2021-09-26T16:33:56-04:00*
G04 #@! TF.ProjectId,schematics_main,73636865-6d61-4746-9963-735f6d61696e,rev?*
G04 #@! TF.SameCoordinates,Original*
G04 #@! TF.FileFunction,Copper,L1,Top*
G04 #@! TF.FilePolarity,Positive*
%FSLAX46Y46*%
G04 Gerber Fmt 4.6, Leading zero omitted, Abs format (unit mm)*
G04 Created by KiCad (PCBNEW (5.1.10)-1) date 2021-09-26 16:33:56*
%MOMM*%
%LPD*%
G01*
G04 APERTURE LIST*
G04 #@! TA.AperFunction,ComponentPad*
%ADD10R,1.524000X1.524000*%
G04 #@! TD*
G04 #@! TA.AperFunction,ComponentPad*
%ADD11C,1.524000*%
G04 #@! TD*
G04 #@! TA.AperFunction,ComponentPad*
%ADD12R,1.800000X1.800000*%
G04 #@! TD*
G04 #@! TA.AperFunction,ComponentPad*
%ADD13O,1.800000X1.800000*%
G04 #@! TD*
G04 #@! TA.AperFunction,ComponentPad*
%ADD14R,1.800000X2.800000*%
G04 #@! TD*
G04 #@! TA.AperFunction,ComponentPad*
%ADD15R,1.700000X1.700000*%
G04 #@! TD*
G04 #@! TA.AperFunction,ComponentPad*
%ADD16O,1.700000X1.700000*%
G04 #@! TD*
G04 #@! TA.AperFunction,ComponentPad*
%ADD17C,2.600000*%
G04 #@! TD*
G04 #@! TA.AperFunction,ComponentPad*
%ADD18O,1.905000X2.000000*%
G04 #@! TD*
G04 #@! TA.AperFunction,ComponentPad*
%ADD19R,1.905000X2.000000*%
G04 #@! TD*
G04 #@! TA.AperFunction,ComponentPad*
%ADD20C,1.600000*%
G04 #@! TD*
G04 #@! TA.AperFunction,ComponentPad*
%ADD21O,1.600000X1.600000*%
G04 #@! TD*
G04 #@! TA.AperFunction,ComponentPad*
%ADD22O,2.200000X2.200000*%
G04 #@! TD*
G04 #@! TA.AperFunction,ComponentPad*
%ADD23R,2.200000X2.200000*%
G04 #@! TD*
G04 #@! TA.AperFunction,ComponentPad*
%ADD24C,3.000000*%
G04 #@! TD*
G04 #@! TA.AperFunction,ComponentPad*
%ADD25C,6.400000*%
G04 #@! TD*
G04 #@! TA.AperFunction,ComponentPad*
%ADD26C,2.000000*%
G04 #@! TD*
G04 #@! TA.AperFunction,ComponentPad*
%ADD27R,3.500000X3.500000*%
G04 #@! TD*
G04 #@! TA.AperFunction,ComponentPad*
%ADD28R,1.600000X1.600000*%
G04 #@! TD*
G04 #@! TA.AperFunction,ViaPad*
%ADD29C,0.800000*%
G04 #@! TD*
G04 #@! TA.AperFunction,Conductor*
%ADD30C,1.000000*%
G04 #@! TD*
G04 #@! TA.AperFunction,Conductor*
%ADD31C,0.300000*%
G04 #@! TD*
G04 #@! TA.AperFunction,Conductor*
%ADD32C,0.700000*%
G04 #@! TD*
G04 APERTURE END LIST*
D10*
X220980000Y-100965000D03*
X205740000Y-100965000D03*
D11*
X210820000Y-100965000D03*
X218440000Y-100965000D03*
X208280000Y-100965000D03*
X223520000Y-100965000D03*
X215900000Y-100965000D03*
X213360000Y-100965000D03*
X226060000Y-100965000D03*
X228600000Y-100965000D03*
X236220000Y-100965000D03*
X241300000Y-100965000D03*
X238760000Y-100965000D03*
X233680000Y-100965000D03*
X231140000Y-100965000D03*
X251460000Y-100965000D03*
X248920000Y-100965000D03*
X246380000Y-100965000D03*
X243840000Y-100965000D03*
X251460000Y-126365000D03*
X248920000Y-126365000D03*
X246380000Y-126365000D03*
X243840000Y-126365000D03*
X241300000Y-126365000D03*
D10*
X238760000Y-126365000D03*
D11*
X236220000Y-126365000D03*
X233680000Y-126365000D03*
X231140000Y-126365000D03*
X228600000Y-126365000D03*
X226060000Y-126365000D03*
X223520000Y-126365000D03*
X220980000Y-126365000D03*
X218440000Y-126365000D03*
X215900000Y-126365000D03*
X213360000Y-126365000D03*
X210820000Y-126365000D03*
X208280000Y-126365000D03*
X205740000Y-126365000D03*
X251460000Y-103505000D03*
X248920000Y-103505000D03*
X223520000Y-103505000D03*
X238760000Y-103505000D03*
X226060000Y-103505000D03*
X228600000Y-103505000D03*
X218440000Y-103505000D03*
X210820000Y-103505000D03*
X233680000Y-103505000D03*
X243840000Y-103505000D03*
X208280000Y-103505000D03*
X246380000Y-103505000D03*
X231140000Y-103505000D03*
X241300000Y-103505000D03*
X213360000Y-103505000D03*
D10*
X205740000Y-103505000D03*
D11*
X215900000Y-103505000D03*
X236220000Y-103505000D03*
D10*
X220980000Y-103505000D03*
D12*
X189865000Y-131445000D03*
D13*
X197485000Y-133985000D03*
D14*
X189865000Y-133485000D03*
D13*
X197485000Y-131445000D03*
D15*
X241300000Y-93345000D03*
D16*
X203200000Y-93345000D03*
D15*
X200660000Y-93345000D03*
D17*
X181690000Y-146050000D03*
X186690000Y-146050000D03*
D18*
X207010000Y-143510000D03*
X209550000Y-143510000D03*
D19*
X212090000Y-143510000D03*
D20*
X248960000Y-129540000D03*
X251460000Y-129540000D03*
D21*
X184785000Y-123825000D03*
D20*
X174625000Y-123825000D03*
D21*
X218440000Y-93345000D03*
D20*
X208280000Y-93345000D03*
D22*
X167640000Y-149225000D03*
D23*
X167640000Y-139065000D03*
D22*
X182880000Y-139065000D03*
D23*
X172720000Y-139065000D03*
D22*
X240030000Y-139065000D03*
D23*
X229870000Y-139065000D03*
D22*
X241300000Y-133350000D03*
D23*
X251460000Y-133350000D03*
D16*
X192405000Y-94615000D03*
X192405000Y-92075000D03*
X189865000Y-94615000D03*
X189865000Y-92075000D03*
X187325000Y-94615000D03*
X187325000Y-92075000D03*
X184785000Y-94615000D03*
X184785000Y-92075000D03*
X182245000Y-94615000D03*
X182245000Y-92075000D03*
X179705000Y-94615000D03*
X179705000Y-92075000D03*
X177165000Y-94615000D03*
X177165000Y-92075000D03*
X174625000Y-94615000D03*
X174625000Y-92075000D03*
X172085000Y-94615000D03*
X172085000Y-92075000D03*
X169545000Y-94615000D03*
D15*
X169545000Y-92075000D03*
G04 #@! TA.AperFunction,SMDPad,CuDef*
G36*
G01*
X183080000Y-109540000D02*
X183080000Y-109340000D01*
G75*
G02*
X183180000Y-109240000I100000J0D01*
G01*
X184455000Y-109240000D01*
G75*
G02*
X184555000Y-109340000I0J-100000D01*
G01*
X184555000Y-109540000D01*
G75*
G02*
X184455000Y-109640000I-100000J0D01*
G01*
X183180000Y-109640000D01*
G75*
G02*
X183080000Y-109540000I0J100000D01*
G01*
G37*
G04 #@! TD.AperFunction*
G04 #@! TA.AperFunction,SMDPad,CuDef*
G36*
G01*
X183080000Y-110190000D02*
X183080000Y-109990000D01*
G75*
G02*
X183180000Y-109890000I100000J0D01*
G01*
X184455000Y-109890000D01*
G75*
G02*
X184555000Y-109990000I0J-100000D01*
G01*
X184555000Y-110190000D01*
G75*
G02*
X184455000Y-110290000I-100000J0D01*
G01*
X183180000Y-110290000D01*
G75*
G02*
X183080000Y-110190000I0J100000D01*
G01*
G37*
G04 #@! TD.AperFunction*
G04 #@! TA.AperFunction,SMDPad,CuDef*
G36*
G01*
X183080000Y-110840000D02*
X183080000Y-110640000D01*
G75*
G02*
X183180000Y-110540000I100000J0D01*
G01*
X184455000Y-110540000D01*
G75*
G02*
X184555000Y-110640000I0J-100000D01*
G01*
X184555000Y-110840000D01*
G75*
G02*
X184455000Y-110940000I-100000J0D01*
G01*
X183180000Y-110940000D01*
G75*
G02*
X183080000Y-110840000I0J100000D01*
G01*
G37*
G04 #@! TD.AperFunction*
G04 #@! TA.AperFunction,SMDPad,CuDef*
G36*
G01*
X183080000Y-111490000D02*
X183080000Y-111290000D01*
G75*
G02*
X183180000Y-111190000I100000J0D01*
G01*
X184455000Y-111190000D01*
G75*
G02*
X184555000Y-111290000I0J-100000D01*
G01*
X184555000Y-111490000D01*
G75*
G02*
X184455000Y-111590000I-100000J0D01*
G01*
X183180000Y-111590000D01*
G75*
G02*
X183080000Y-111490000I0J100000D01*
G01*
G37*
G04 #@! TD.AperFunction*
G04 #@! TA.AperFunction,SMDPad,CuDef*
G36*
G01*
X183080000Y-112140000D02*
X183080000Y-111940000D01*
G75*
G02*
X183180000Y-111840000I100000J0D01*
G01*
X184455000Y-111840000D01*
G75*
G02*
X184555000Y-111940000I0J-100000D01*
G01*
X184555000Y-112140000D01*
G75*
G02*
X184455000Y-112240000I-100000J0D01*
G01*
X183180000Y-112240000D01*
G75*
G02*
X183080000Y-112140000I0J100000D01*
G01*
G37*
G04 #@! TD.AperFunction*
G04 #@! TA.AperFunction,SMDPad,CuDef*
G36*
G01*
X183080000Y-112790000D02*
X183080000Y-112590000D01*
G75*
G02*
X183180000Y-112490000I100000J0D01*
G01*
X184455000Y-112490000D01*
G75*
G02*
X184555000Y-112590000I0J-100000D01*
G01*
X184555000Y-112790000D01*
G75*
G02*
X184455000Y-112890000I-100000J0D01*
G01*
X183180000Y-112890000D01*
G75*
G02*
X183080000Y-112790000I0J100000D01*
G01*
G37*
G04 #@! TD.AperFunction*
G04 #@! TA.AperFunction,SMDPad,CuDef*
G36*
G01*
X183080000Y-113440000D02*
X183080000Y-113240000D01*
G75*
G02*
X183180000Y-113140000I100000J0D01*
G01*
X184455000Y-113140000D01*
G75*
G02*
X184555000Y-113240000I0J-100000D01*
G01*
X184555000Y-113440000D01*
G75*
G02*
X184455000Y-113540000I-100000J0D01*
G01*
X183180000Y-113540000D01*
G75*
G02*
X183080000Y-113440000I0J100000D01*
G01*
G37*
G04 #@! TD.AperFunction*
G04 #@! TA.AperFunction,SMDPad,CuDef*
G36*
G01*
X183080000Y-114090000D02*
X183080000Y-113890000D01*
G75*
G02*
X183180000Y-113790000I100000J0D01*
G01*
X184455000Y-113790000D01*
G75*
G02*
X184555000Y-113890000I0J-100000D01*
G01*
X184555000Y-114090000D01*
G75*
G02*
X184455000Y-114190000I-100000J0D01*
G01*
X183180000Y-114190000D01*
G75*
G02*
X183080000Y-114090000I0J100000D01*
G01*
G37*
G04 #@! TD.AperFunction*
G04 #@! TA.AperFunction,SMDPad,CuDef*
G36*
G01*
X183080000Y-114740000D02*
X183080000Y-114540000D01*
G75*
G02*
X183180000Y-114440000I100000J0D01*
G01*
X184455000Y-114440000D01*
G75*
G02*
X184555000Y-114540000I0J-100000D01*
G01*
X184555000Y-114740000D01*
G75*
G02*
X184455000Y-114840000I-100000J0D01*
G01*
X183180000Y-114840000D01*
G75*
G02*
X183080000Y-114740000I0J100000D01*
G01*
G37*
G04 #@! TD.AperFunction*
G04 #@! TA.AperFunction,SMDPad,CuDef*
G36*
G01*
X183080000Y-115390000D02*
X183080000Y-115190000D01*
G75*
G02*
X183180000Y-115090000I100000J0D01*
G01*
X184455000Y-115090000D01*
G75*
G02*
X184555000Y-115190000I0J-100000D01*
G01*
X184555000Y-115390000D01*
G75*
G02*
X184455000Y-115490000I-100000J0D01*
G01*
X183180000Y-115490000D01*
G75*
G02*
X183080000Y-115390000I0J100000D01*
G01*
G37*
G04 #@! TD.AperFunction*
G04 #@! TA.AperFunction,SMDPad,CuDef*
G36*
G01*
X183080000Y-116040000D02*
X183080000Y-115840000D01*
G75*
G02*
X183180000Y-115740000I100000J0D01*
G01*
X184455000Y-115740000D01*
G75*
G02*
X184555000Y-115840000I0J-100000D01*
G01*
X184555000Y-116040000D01*
G75*
G02*
X184455000Y-116140000I-100000J0D01*
G01*
X183180000Y-116140000D01*
G75*
G02*
X183080000Y-116040000I0J100000D01*
G01*
G37*
G04 #@! TD.AperFunction*
G04 #@! TA.AperFunction,SMDPad,CuDef*
G36*
G01*
X183080000Y-116690000D02*
X183080000Y-116490000D01*
G75*
G02*
X183180000Y-116390000I100000J0D01*
G01*
X184455000Y-116390000D01*
G75*
G02*
X184555000Y-116490000I0J-100000D01*
G01*
X184555000Y-116690000D01*
G75*
G02*
X184455000Y-116790000I-100000J0D01*
G01*
X183180000Y-116790000D01*
G75*
G02*
X183080000Y-116690000I0J100000D01*
G01*
G37*
G04 #@! TD.AperFunction*
G04 #@! TA.AperFunction,SMDPad,CuDef*
G36*
G01*
X183080000Y-117340000D02*
X183080000Y-117140000D01*
G75*
G02*
X183180000Y-117040000I100000J0D01*
G01*
X184455000Y-117040000D01*
G75*
G02*
X184555000Y-117140000I0J-100000D01*
G01*
X184555000Y-117340000D01*
G75*
G02*
X184455000Y-117440000I-100000J0D01*
G01*
X183180000Y-117440000D01*
G75*
G02*
X183080000Y-117340000I0J100000D01*
G01*
G37*
G04 #@! TD.AperFunction*
G04 #@! TA.AperFunction,SMDPad,CuDef*
G36*
G01*
X183080000Y-117990000D02*
X183080000Y-117790000D01*
G75*
G02*
X183180000Y-117690000I100000J0D01*
G01*
X184455000Y-117690000D01*
G75*
G02*
X184555000Y-117790000I0J-100000D01*
G01*
X184555000Y-117990000D01*
G75*
G02*
X184455000Y-118090000I-100000J0D01*
G01*
X183180000Y-118090000D01*
G75*
G02*
X183080000Y-117990000I0J100000D01*
G01*
G37*
G04 #@! TD.AperFunction*
G04 #@! TA.AperFunction,SMDPad,CuDef*
G36*
G01*
X177355000Y-117990000D02*
X177355000Y-117790000D01*
G75*
G02*
X177455000Y-117690000I100000J0D01*
G01*
X178730000Y-117690000D01*
G75*
G02*
X178830000Y-117790000I0J-100000D01*
G01*
X178830000Y-117990000D01*
G75*
G02*
X178730000Y-118090000I-100000J0D01*
G01*
X177455000Y-118090000D01*
G75*
G02*
X177355000Y-117990000I0J100000D01*
G01*
G37*
G04 #@! TD.AperFunction*
G04 #@! TA.AperFunction,SMDPad,CuDef*
G36*
G01*
X177355000Y-117340000D02*
X177355000Y-117140000D01*
G75*
G02*
X177455000Y-117040000I100000J0D01*
G01*
X178730000Y-117040000D01*
G75*
G02*
X178830000Y-117140000I0J-100000D01*
G01*
X178830000Y-117340000D01*
G75*
G02*
X178730000Y-117440000I-100000J0D01*
G01*
X177455000Y-117440000D01*
G75*
G02*
X177355000Y-117340000I0J100000D01*
G01*
G37*
G04 #@! TD.AperFunction*
G04 #@! TA.AperFunction,SMDPad,CuDef*
G36*
G01*
X177355000Y-116690000D02*
X177355000Y-116490000D01*
G75*
G02*
X177455000Y-116390000I100000J0D01*
G01*
X178730000Y-116390000D01*
G75*
G02*
X178830000Y-116490000I0J-100000D01*
G01*
X178830000Y-116690000D01*
G75*
G02*
X178730000Y-116790000I-100000J0D01*
G01*
X177455000Y-116790000D01*
G75*
G02*
X177355000Y-116690000I0J100000D01*
G01*
G37*
G04 #@! TD.AperFunction*
G04 #@! TA.AperFunction,SMDPad,CuDef*
G36*
G01*
X177355000Y-116040000D02*
X177355000Y-115840000D01*
G75*
G02*
X177455000Y-115740000I100000J0D01*
G01*
X178730000Y-115740000D01*
G75*
G02*
X178830000Y-115840000I0J-100000D01*
G01*
X178830000Y-116040000D01*
G75*
G02*
X178730000Y-116140000I-100000J0D01*
G01*
X177455000Y-116140000D01*
G75*
G02*
X177355000Y-116040000I0J100000D01*
G01*
G37*
G04 #@! TD.AperFunction*
G04 #@! TA.AperFunction,SMDPad,CuDef*
G36*
G01*
X177355000Y-115390000D02*
X177355000Y-115190000D01*
G75*
G02*
X177455000Y-115090000I100000J0D01*
G01*
X178730000Y-115090000D01*
G75*
G02*
X178830000Y-115190000I0J-100000D01*
G01*
X178830000Y-115390000D01*
G75*
G02*
X178730000Y-115490000I-100000J0D01*
G01*
X177455000Y-115490000D01*
G75*
G02*
X177355000Y-115390000I0J100000D01*
G01*
G37*
G04 #@! TD.AperFunction*
G04 #@! TA.AperFunction,SMDPad,CuDef*
G36*
G01*
X177355000Y-114740000D02*
X177355000Y-114540000D01*
G75*
G02*
X177455000Y-114440000I100000J0D01*
G01*
X178730000Y-114440000D01*
G75*
G02*
X178830000Y-114540000I0J-100000D01*
G01*
X178830000Y-114740000D01*
G75*
G02*
X178730000Y-114840000I-100000J0D01*
G01*
X177455000Y-114840000D01*
G75*
G02*
X177355000Y-114740000I0J100000D01*
G01*
G37*
G04 #@! TD.AperFunction*
G04 #@! TA.AperFunction,SMDPad,CuDef*
G36*
G01*
X177355000Y-114090000D02*
X177355000Y-113890000D01*
G75*
G02*
X177455000Y-113790000I100000J0D01*
G01*
X178730000Y-113790000D01*
G75*
G02*
X178830000Y-113890000I0J-100000D01*
G01*
X178830000Y-114090000D01*
G75*
G02*
X178730000Y-114190000I-100000J0D01*
G01*
X177455000Y-114190000D01*
G75*
G02*
X177355000Y-114090000I0J100000D01*
G01*
G37*
G04 #@! TD.AperFunction*
G04 #@! TA.AperFunction,SMDPad,CuDef*
G36*
G01*
X177355000Y-113440000D02*
X177355000Y-113240000D01*
G75*
G02*
X177455000Y-113140000I100000J0D01*
G01*
X178730000Y-113140000D01*
G75*
G02*
X178830000Y-113240000I0J-100000D01*
G01*
X178830000Y-113440000D01*
G75*
G02*
X178730000Y-113540000I-100000J0D01*
G01*
X177455000Y-113540000D01*
G75*
G02*
X177355000Y-113440000I0J100000D01*
G01*
G37*
G04 #@! TD.AperFunction*
G04 #@! TA.AperFunction,SMDPad,CuDef*
G36*
G01*
X177355000Y-112790000D02*
X177355000Y-112590000D01*
G75*
G02*
X177455000Y-112490000I100000J0D01*
G01*
X178730000Y-112490000D01*
G75*
G02*
X178830000Y-112590000I0J-100000D01*
G01*
X178830000Y-112790000D01*
G75*
G02*
X178730000Y-112890000I-100000J0D01*
G01*
X177455000Y-112890000D01*
G75*
G02*
X177355000Y-112790000I0J100000D01*
G01*
G37*
G04 #@! TD.AperFunction*
G04 #@! TA.AperFunction,SMDPad,CuDef*
G36*
G01*
X177355000Y-112140000D02*
X177355000Y-111940000D01*
G75*
G02*
X177455000Y-111840000I100000J0D01*
G01*
X178730000Y-111840000D01*
G75*
G02*
X178830000Y-111940000I0J-100000D01*
G01*
X178830000Y-112140000D01*
G75*
G02*
X178730000Y-112240000I-100000J0D01*
G01*
X177455000Y-112240000D01*
G75*
G02*
X177355000Y-112140000I0J100000D01*
G01*
G37*
G04 #@! TD.AperFunction*
G04 #@! TA.AperFunction,SMDPad,CuDef*
G36*
G01*
X177355000Y-111490000D02*
X177355000Y-111290000D01*
G75*
G02*
X177455000Y-111190000I100000J0D01*
G01*
X178730000Y-111190000D01*
G75*
G02*
X178830000Y-111290000I0J-100000D01*
G01*
X178830000Y-111490000D01*
G75*
G02*
X178730000Y-111590000I-100000J0D01*
G01*
X177455000Y-111590000D01*
G75*
G02*
X177355000Y-111490000I0J100000D01*
G01*
G37*
G04 #@! TD.AperFunction*
G04 #@! TA.AperFunction,SMDPad,CuDef*
G36*
G01*
X177355000Y-110840000D02*
X177355000Y-110640000D01*
G75*
G02*
X177455000Y-110540000I100000J0D01*
G01*
X178730000Y-110540000D01*
G75*
G02*
X178830000Y-110640000I0J-100000D01*
G01*
X178830000Y-110840000D01*
G75*
G02*
X178730000Y-110940000I-100000J0D01*
G01*
X177455000Y-110940000D01*
G75*
G02*
X177355000Y-110840000I0J100000D01*
G01*
G37*
G04 #@! TD.AperFunction*
G04 #@! TA.AperFunction,SMDPad,CuDef*
G36*
G01*
X177355000Y-110190000D02*
X177355000Y-109990000D01*
G75*
G02*
X177455000Y-109890000I100000J0D01*
G01*
X178730000Y-109890000D01*
G75*
G02*
X178830000Y-109990000I0J-100000D01*
G01*
X178830000Y-110190000D01*
G75*
G02*
X178730000Y-110290000I-100000J0D01*
G01*
X177455000Y-110290000D01*
G75*
G02*
X177355000Y-110190000I0J100000D01*
G01*
G37*
G04 #@! TD.AperFunction*
G04 #@! TA.AperFunction,SMDPad,CuDef*
G36*
G01*
X177355000Y-109540000D02*
X177355000Y-109340000D01*
G75*
G02*
X177455000Y-109240000I100000J0D01*
G01*
X178730000Y-109240000D01*
G75*
G02*
X178830000Y-109340000I0J-100000D01*
G01*
X178830000Y-109540000D01*
G75*
G02*
X178730000Y-109640000I-100000J0D01*
G01*
X177455000Y-109640000D01*
G75*
G02*
X177355000Y-109540000I0J100000D01*
G01*
G37*
G04 #@! TD.AperFunction*
D24*
X204470000Y-135890000D03*
X244475000Y-139700000D03*
X167640000Y-133985000D03*
D25*
X248920000Y-147955000D03*
X160020000Y-147955000D03*
X160020000Y-94615000D03*
X248920000Y-94615000D03*
D26*
X229870000Y-149225000D03*
X229880000Y-144145000D03*
G04 #@! TA.AperFunction,ComponentPad*
G36*
G01*
X243065000Y-149705000D02*
X241315000Y-149705000D01*
G75*
G02*
X240440000Y-148830000I0J875000D01*
G01*
X240440000Y-147080000D01*
G75*
G02*
X241315000Y-146205000I875000J0D01*
G01*
X243065000Y-146205000D01*
G75*
G02*
X243940000Y-147080000I0J-875000D01*
G01*
X243940000Y-148830000D01*
G75*
G02*
X243065000Y-149705000I-875000J0D01*
G01*
G37*
G04 #@! TD.AperFunction*
G04 #@! TA.AperFunction,ComponentPad*
G36*
G01*
X238490000Y-152455000D02*
X236490000Y-152455000D01*
G75*
G02*
X235740000Y-151705000I0J750000D01*
G01*
X235740000Y-150205000D01*
G75*
G02*
X236490000Y-149455000I750000J0D01*
G01*
X238490000Y-149455000D01*
G75*
G02*
X239240000Y-150205000I0J-750000D01*
G01*
X239240000Y-151705000D01*
G75*
G02*
X238490000Y-152455000I-750000J0D01*
G01*
G37*
G04 #@! TD.AperFunction*
D27*
X237490000Y-144955000D03*
D20*
X174665000Y-120650000D03*
X177165000Y-120650000D03*
X173990000Y-146685000D03*
D28*
X173990000Y-144185000D03*
X193675000Y-147320000D03*
D20*
X193675000Y-149820000D03*
X185380000Y-120650000D03*
X182880000Y-120650000D03*
X193675000Y-141565000D03*
D28*
X193675000Y-139065000D03*
X223520000Y-146685000D03*
D20*
X223520000Y-149185000D03*
X224750000Y-143510000D03*
X222250000Y-143510000D03*
D29*
X180975000Y-111125000D03*
X220980000Y-111125000D03*
X205740000Y-111125000D03*
X205740000Y-109855000D03*
X223520016Y-109855016D03*
X205740000Y-112395000D03*
X218440000Y-112395000D03*
X189230000Y-114935000D03*
X187960000Y-114935000D03*
X186690000Y-114935000D03*
X171450000Y-114935000D03*
X172720000Y-114935000D03*
X173990000Y-114935000D03*
X175260000Y-114935000D03*
X190500000Y-114935000D03*
D30*
X205740000Y-100965000D02*
X205740000Y-103505000D01*
X220980000Y-103505000D02*
X220980000Y-100965000D01*
D31*
X180975000Y-112720000D02*
X180975000Y-111125000D01*
X182245000Y-113990000D02*
X180975000Y-112720000D01*
X183817500Y-113990000D02*
X182245000Y-113990000D01*
D30*
X232410000Y-136525000D02*
X229870000Y-139065000D01*
X241300000Y-136525000D02*
X232410000Y-136525000D01*
X244475000Y-139700000D02*
X241300000Y-136525000D01*
X216535000Y-139065000D02*
X212090000Y-143510000D01*
X229870000Y-139065000D02*
X216535000Y-139065000D01*
X212090000Y-143510000D02*
X222250000Y-143510000D01*
X187325000Y-145415000D02*
X186690000Y-146050000D01*
X210185000Y-145415000D02*
X187325000Y-145415000D01*
X212090000Y-143510000D02*
X210185000Y-145415000D01*
X193675000Y-147320000D02*
X193675000Y-145415000D01*
X212090000Y-143510000D02*
X215900000Y-143510000D01*
X215900000Y-143510000D02*
X219075000Y-146685000D01*
X219075000Y-146685000D02*
X223520000Y-146685000D01*
X207010000Y-143510000D02*
X207010000Y-138430000D01*
X198120000Y-143510000D02*
X193675000Y-139065000D01*
X207010000Y-143510000D02*
X198120000Y-143510000D01*
X207010000Y-138430000D02*
X204470000Y-135890000D01*
X212090000Y-133350000D02*
X241300000Y-133350000D01*
X207010000Y-138430000D02*
X212090000Y-133350000D01*
D31*
X180340000Y-121285000D02*
X182880000Y-123825000D01*
X179307878Y-113340000D02*
X180340000Y-114372122D01*
X182880000Y-123825000D02*
X184785000Y-123825000D01*
X178092500Y-113340000D02*
X179307878Y-113340000D01*
X182880000Y-120650000D02*
X180340000Y-120650000D01*
X180340000Y-120650000D02*
X180340000Y-121285000D01*
X180340000Y-114372122D02*
X180340000Y-120650000D01*
D30*
X172720000Y-139065000D02*
X167640000Y-139065000D01*
X172720000Y-142915000D02*
X173990000Y-144185000D01*
X172720000Y-139065000D02*
X172720000Y-142915000D01*
D31*
X179705000Y-132080000D02*
X172720000Y-139065000D01*
X179250758Y-113990000D02*
X179705000Y-114444242D01*
X178092500Y-113990000D02*
X179250758Y-113990000D01*
X177165000Y-120650000D02*
X179705000Y-120650000D01*
X179705000Y-120650000D02*
X179705000Y-132080000D01*
X179705000Y-114444242D02*
X179705000Y-120650000D01*
D30*
X172720000Y-139065000D02*
X167640000Y-133985000D01*
X237490000Y-139065000D02*
X240030000Y-139065000D01*
X232410000Y-144145000D02*
X237490000Y-139065000D01*
X229870000Y-144145000D02*
X232410000Y-144145000D01*
X181690000Y-140255000D02*
X182880000Y-139065000D01*
X181690000Y-146050000D02*
X181690000Y-140255000D01*
X187960000Y-135890000D02*
X187960000Y-132715000D01*
X184785000Y-139065000D02*
X187960000Y-135890000D01*
X182880000Y-139065000D02*
X184785000Y-139065000D01*
X189230000Y-131445000D02*
X187960000Y-132715000D01*
X189865000Y-131445000D02*
X189230000Y-131445000D01*
X189865000Y-133985000D02*
X187960000Y-135890000D01*
X233220000Y-149225000D02*
X237490000Y-144955000D01*
X229860000Y-149225000D02*
X233220000Y-149225000D01*
D32*
X217170000Y-130175000D02*
X220980000Y-126365000D01*
X201295000Y-130175000D02*
X217170000Y-130175000D01*
X197485000Y-133985000D02*
X201295000Y-130175000D01*
X203200000Y-93345000D02*
X208280000Y-93345000D01*
X200659990Y-93345010D02*
X200660000Y-93345000D01*
X243840000Y-95885000D02*
X241300000Y-93345000D01*
X243840000Y-100965000D02*
X243840000Y-95885000D01*
D30*
X243840000Y-103505000D02*
X243840000Y-100965000D01*
X210820000Y-103505000D02*
X210820000Y-100965000D01*
X208280000Y-100965000D02*
X208280000Y-103505000D01*
D31*
X179365000Y-112690000D02*
X178092500Y-112690000D01*
X182880000Y-118745000D02*
X180975000Y-116840000D01*
X180975000Y-116840000D02*
X180975000Y-114300000D01*
X203835000Y-118745000D02*
X182880000Y-118745000D01*
X180975000Y-114300000D02*
X179365000Y-112690000D01*
X208280000Y-114300000D02*
X203835000Y-118745000D01*
X208280000Y-103505000D02*
X208280000Y-114300000D01*
D30*
X215900000Y-103505000D02*
X215900000Y-100965000D01*
X213360000Y-100965000D02*
X213360000Y-103505000D01*
X226060000Y-100965000D02*
X226060000Y-103505000D01*
D31*
X183817500Y-113340000D02*
X185110000Y-113340000D01*
X185110000Y-113340000D02*
X187325000Y-111125000D01*
X187325000Y-111125000D02*
X205740000Y-111125000D01*
X226060000Y-103505000D02*
X220980000Y-108585000D01*
X220980000Y-108585000D02*
X220980000Y-111125000D01*
D30*
X228600000Y-103505000D02*
X228600000Y-100965000D01*
D31*
X183817500Y-112690000D02*
X184555000Y-112690000D01*
X184555000Y-112690000D02*
X187390000Y-109855000D01*
X187390000Y-109855000D02*
X205740000Y-109855000D01*
X228600000Y-103505000D02*
X223520016Y-108584984D01*
X223520016Y-108584984D02*
X223520016Y-109855016D01*
D30*
X236220000Y-100965000D02*
X236220000Y-103505000D01*
X241300000Y-100965000D02*
X241300000Y-103505000D01*
X238760000Y-103505000D02*
X238760000Y-100965000D01*
X231140000Y-100965000D02*
X231140000Y-103505000D01*
X251460000Y-100965000D02*
X251460000Y-103505000D01*
X248920000Y-103505000D02*
X248920000Y-100965000D01*
X246380000Y-100965000D02*
X246380000Y-103505000D01*
X218440000Y-100965000D02*
X218440000Y-103505000D01*
D31*
X183817500Y-114640000D02*
X185080000Y-114640000D01*
X185080000Y-114640000D02*
X187325000Y-112395000D01*
X187325000Y-112395000D02*
X205740000Y-112395000D01*
X218440000Y-103505000D02*
X218440000Y-112395000D01*
D30*
X233680000Y-103505000D02*
X233680000Y-100965000D01*
D31*
X177254346Y-111390000D02*
X173355000Y-107490654D01*
X178092500Y-111390000D02*
X177254346Y-111390000D01*
X173355000Y-107490654D02*
X173355000Y-93345000D01*
X173355000Y-93345000D02*
X174625000Y-92075000D01*
X177311466Y-110740000D02*
X175895000Y-109323534D01*
X178092500Y-110740000D02*
X177311466Y-110740000D01*
X175895000Y-109323534D02*
X175895000Y-93345000D01*
X175895000Y-93345000D02*
X177165000Y-92075000D01*
X178092500Y-110090000D02*
X177368586Y-110090000D01*
X176530000Y-108585000D02*
X178504999Y-106610001D01*
X176530000Y-109251414D02*
X176530000Y-108585000D01*
X177368586Y-110090000D02*
X176530000Y-109251414D01*
X178504999Y-106610001D02*
X178504999Y-93275001D01*
X178504999Y-93275001D02*
X179705000Y-92075000D01*
X178092500Y-109440000D02*
X180975000Y-106557500D01*
X180975000Y-106557500D02*
X180975000Y-93345000D01*
X180975000Y-93345000D02*
X182245000Y-92075000D01*
X183817500Y-109440000D02*
X183515000Y-109137500D01*
X183515000Y-109137500D02*
X183515000Y-93345000D01*
X183515000Y-93345000D02*
X184785000Y-92075000D01*
X177197226Y-112040000D02*
X178092500Y-112040000D01*
X170815000Y-105657774D02*
X177197226Y-112040000D01*
X170815000Y-93345000D02*
X170815000Y-105657774D01*
X172085000Y-92075000D02*
X170815000Y-93345000D01*
X184541414Y-110090000D02*
X186055000Y-108576414D01*
X183817500Y-110090000D02*
X184541414Y-110090000D01*
X186055000Y-108576414D02*
X186055000Y-93345000D01*
X186055000Y-93345000D02*
X187325000Y-92075000D01*
X184598534Y-110740000D02*
X188595000Y-106743534D01*
X183817500Y-110740000D02*
X184598534Y-110740000D01*
X188595000Y-93345000D02*
X189865000Y-92075000D01*
X188595000Y-106743534D02*
X188595000Y-93345000D01*
X191135000Y-95885000D02*
X192405000Y-94615000D01*
X191135000Y-104910654D02*
X191135000Y-95885000D01*
X184655654Y-111390000D02*
X191135000Y-104910654D01*
X183817500Y-111390000D02*
X184655654Y-111390000D01*
X187575000Y-116590000D02*
X189230000Y-114935000D01*
X183817500Y-116590000D02*
X187575000Y-116590000D01*
X187800002Y-114935000D02*
X187960000Y-114935000D01*
X186795002Y-115940000D02*
X187800002Y-114935000D01*
X183817500Y-115940000D02*
X186795002Y-115940000D01*
X186335000Y-115290000D02*
X186690000Y-114935000D01*
X183817500Y-115290000D02*
X186335000Y-115290000D01*
X173755000Y-117240000D02*
X171450000Y-114935000D01*
X178092500Y-117240000D02*
X173755000Y-117240000D01*
X174375000Y-116590000D02*
X172720000Y-114935000D01*
X178092500Y-116590000D02*
X174375000Y-116590000D01*
X174995000Y-115940000D02*
X173990000Y-114935000D01*
X178092500Y-115940000D02*
X174995000Y-115940000D01*
X175615000Y-115290000D02*
X175260000Y-114935000D01*
X178092500Y-115290000D02*
X175615000Y-115290000D01*
X188195000Y-117240000D02*
X190500000Y-114935000D01*
X183817500Y-117240000D02*
X188195000Y-117240000D01*
D30*
X251460000Y-126365000D02*
X251460000Y-133350000D01*
D31*
X223520000Y-101340762D02*
X223520000Y-100589238D01*
D30*
X223520000Y-100965000D02*
X223520000Y-103505000D01*
X170815000Y-123825000D02*
X174625000Y-123825000D01*
X167005000Y-120015000D02*
X170815000Y-123825000D01*
X167005000Y-94615000D02*
X167005000Y-120015000D01*
X169545000Y-92075000D02*
X167005000Y-94615000D01*
M02*
