G04 #@! TF.GenerationSoftware,KiCad,Pcbnew,(5.1.10)-1*
G04 #@! TF.CreationDate,2021-09-29T14:01:46-04:00*
G04 #@! TF.ProjectId,schematics_main,73636865-6d61-4746-9963-735f6d61696e,rev?*
G04 #@! TF.SameCoordinates,Original*
G04 #@! TF.FileFunction,Paste,Top*
G04 #@! TF.FilePolarity,Positive*
%FSLAX46Y46*%
G04 Gerber Fmt 4.6, Leading zero omitted, Abs format (unit mm)*
G04 Created by KiCad (PCBNEW (5.1.10)-1) date 2021-09-29 14:01:46*
%MOMM*%
%LPD*%
G01*
G04 APERTURE LIST*
G04 APERTURE END LIST*
G36*
G01*
X172870000Y-115735000D02*
X172570000Y-115735000D01*
G75*
G02*
X172420000Y-115585000I0J150000D01*
G01*
X172420000Y-113835000D01*
G75*
G02*
X172570000Y-113685000I150000J0D01*
G01*
X172870000Y-113685000D01*
G75*
G02*
X173020000Y-113835000I0J-150000D01*
G01*
X173020000Y-115585000D01*
G75*
G02*
X172870000Y-115735000I-150000J0D01*
G01*
G37*
G36*
G01*
X174140000Y-115735000D02*
X173840000Y-115735000D01*
G75*
G02*
X173690000Y-115585000I0J150000D01*
G01*
X173690000Y-113835000D01*
G75*
G02*
X173840000Y-113685000I150000J0D01*
G01*
X174140000Y-113685000D01*
G75*
G02*
X174290000Y-113835000I0J-150000D01*
G01*
X174290000Y-115585000D01*
G75*
G02*
X174140000Y-115735000I-150000J0D01*
G01*
G37*
G36*
G01*
X175410000Y-115735000D02*
X175110000Y-115735000D01*
G75*
G02*
X174960000Y-115585000I0J150000D01*
G01*
X174960000Y-113835000D01*
G75*
G02*
X175110000Y-113685000I150000J0D01*
G01*
X175410000Y-113685000D01*
G75*
G02*
X175560000Y-113835000I0J-150000D01*
G01*
X175560000Y-115585000D01*
G75*
G02*
X175410000Y-115735000I-150000J0D01*
G01*
G37*
G36*
G01*
X176680000Y-115735000D02*
X176380000Y-115735000D01*
G75*
G02*
X176230000Y-115585000I0J150000D01*
G01*
X176230000Y-113835000D01*
G75*
G02*
X176380000Y-113685000I150000J0D01*
G01*
X176680000Y-113685000D01*
G75*
G02*
X176830000Y-113835000I0J-150000D01*
G01*
X176830000Y-115585000D01*
G75*
G02*
X176680000Y-115735000I-150000J0D01*
G01*
G37*
G36*
G01*
X177950000Y-115735000D02*
X177650000Y-115735000D01*
G75*
G02*
X177500000Y-115585000I0J150000D01*
G01*
X177500000Y-113835000D01*
G75*
G02*
X177650000Y-113685000I150000J0D01*
G01*
X177950000Y-113685000D01*
G75*
G02*
X178100000Y-113835000I0J-150000D01*
G01*
X178100000Y-115585000D01*
G75*
G02*
X177950000Y-115735000I-150000J0D01*
G01*
G37*
G36*
G01*
X179220000Y-115735000D02*
X178920000Y-115735000D01*
G75*
G02*
X178770000Y-115585000I0J150000D01*
G01*
X178770000Y-113835000D01*
G75*
G02*
X178920000Y-113685000I150000J0D01*
G01*
X179220000Y-113685000D01*
G75*
G02*
X179370000Y-113835000I0J-150000D01*
G01*
X179370000Y-115585000D01*
G75*
G02*
X179220000Y-115735000I-150000J0D01*
G01*
G37*
G36*
G01*
X180490000Y-115735000D02*
X180190000Y-115735000D01*
G75*
G02*
X180040000Y-115585000I0J150000D01*
G01*
X180040000Y-113835000D01*
G75*
G02*
X180190000Y-113685000I150000J0D01*
G01*
X180490000Y-113685000D01*
G75*
G02*
X180640000Y-113835000I0J-150000D01*
G01*
X180640000Y-115585000D01*
G75*
G02*
X180490000Y-115735000I-150000J0D01*
G01*
G37*
G36*
G01*
X181760000Y-115735000D02*
X181460000Y-115735000D01*
G75*
G02*
X181310000Y-115585000I0J150000D01*
G01*
X181310000Y-113835000D01*
G75*
G02*
X181460000Y-113685000I150000J0D01*
G01*
X181760000Y-113685000D01*
G75*
G02*
X181910000Y-113835000I0J-150000D01*
G01*
X181910000Y-115585000D01*
G75*
G02*
X181760000Y-115735000I-150000J0D01*
G01*
G37*
G36*
G01*
X183030000Y-115735000D02*
X182730000Y-115735000D01*
G75*
G02*
X182580000Y-115585000I0J150000D01*
G01*
X182580000Y-113835000D01*
G75*
G02*
X182730000Y-113685000I150000J0D01*
G01*
X183030000Y-113685000D01*
G75*
G02*
X183180000Y-113835000I0J-150000D01*
G01*
X183180000Y-115585000D01*
G75*
G02*
X183030000Y-115735000I-150000J0D01*
G01*
G37*
G36*
G01*
X184300000Y-115735000D02*
X184000000Y-115735000D01*
G75*
G02*
X183850000Y-115585000I0J150000D01*
G01*
X183850000Y-113835000D01*
G75*
G02*
X184000000Y-113685000I150000J0D01*
G01*
X184300000Y-113685000D01*
G75*
G02*
X184450000Y-113835000I0J-150000D01*
G01*
X184450000Y-115585000D01*
G75*
G02*
X184300000Y-115735000I-150000J0D01*
G01*
G37*
G36*
G01*
X185570000Y-115735000D02*
X185270000Y-115735000D01*
G75*
G02*
X185120000Y-115585000I0J150000D01*
G01*
X185120000Y-113835000D01*
G75*
G02*
X185270000Y-113685000I150000J0D01*
G01*
X185570000Y-113685000D01*
G75*
G02*
X185720000Y-113835000I0J-150000D01*
G01*
X185720000Y-115585000D01*
G75*
G02*
X185570000Y-115735000I-150000J0D01*
G01*
G37*
G36*
G01*
X186840000Y-115735000D02*
X186540000Y-115735000D01*
G75*
G02*
X186390000Y-115585000I0J150000D01*
G01*
X186390000Y-113835000D01*
G75*
G02*
X186540000Y-113685000I150000J0D01*
G01*
X186840000Y-113685000D01*
G75*
G02*
X186990000Y-113835000I0J-150000D01*
G01*
X186990000Y-115585000D01*
G75*
G02*
X186840000Y-115735000I-150000J0D01*
G01*
G37*
G36*
G01*
X188110000Y-115735000D02*
X187810000Y-115735000D01*
G75*
G02*
X187660000Y-115585000I0J150000D01*
G01*
X187660000Y-113835000D01*
G75*
G02*
X187810000Y-113685000I150000J0D01*
G01*
X188110000Y-113685000D01*
G75*
G02*
X188260000Y-113835000I0J-150000D01*
G01*
X188260000Y-115585000D01*
G75*
G02*
X188110000Y-115735000I-150000J0D01*
G01*
G37*
G36*
G01*
X189380000Y-115735000D02*
X189080000Y-115735000D01*
G75*
G02*
X188930000Y-115585000I0J150000D01*
G01*
X188930000Y-113835000D01*
G75*
G02*
X189080000Y-113685000I150000J0D01*
G01*
X189380000Y-113685000D01*
G75*
G02*
X189530000Y-113835000I0J-150000D01*
G01*
X189530000Y-115585000D01*
G75*
G02*
X189380000Y-115735000I-150000J0D01*
G01*
G37*
G36*
G01*
X189380000Y-106435000D02*
X189080000Y-106435000D01*
G75*
G02*
X188930000Y-106285000I0J150000D01*
G01*
X188930000Y-104535000D01*
G75*
G02*
X189080000Y-104385000I150000J0D01*
G01*
X189380000Y-104385000D01*
G75*
G02*
X189530000Y-104535000I0J-150000D01*
G01*
X189530000Y-106285000D01*
G75*
G02*
X189380000Y-106435000I-150000J0D01*
G01*
G37*
G36*
G01*
X188110000Y-106435000D02*
X187810000Y-106435000D01*
G75*
G02*
X187660000Y-106285000I0J150000D01*
G01*
X187660000Y-104535000D01*
G75*
G02*
X187810000Y-104385000I150000J0D01*
G01*
X188110000Y-104385000D01*
G75*
G02*
X188260000Y-104535000I0J-150000D01*
G01*
X188260000Y-106285000D01*
G75*
G02*
X188110000Y-106435000I-150000J0D01*
G01*
G37*
G36*
G01*
X186840000Y-106435000D02*
X186540000Y-106435000D01*
G75*
G02*
X186390000Y-106285000I0J150000D01*
G01*
X186390000Y-104535000D01*
G75*
G02*
X186540000Y-104385000I150000J0D01*
G01*
X186840000Y-104385000D01*
G75*
G02*
X186990000Y-104535000I0J-150000D01*
G01*
X186990000Y-106285000D01*
G75*
G02*
X186840000Y-106435000I-150000J0D01*
G01*
G37*
G36*
G01*
X185570000Y-106435000D02*
X185270000Y-106435000D01*
G75*
G02*
X185120000Y-106285000I0J150000D01*
G01*
X185120000Y-104535000D01*
G75*
G02*
X185270000Y-104385000I150000J0D01*
G01*
X185570000Y-104385000D01*
G75*
G02*
X185720000Y-104535000I0J-150000D01*
G01*
X185720000Y-106285000D01*
G75*
G02*
X185570000Y-106435000I-150000J0D01*
G01*
G37*
G36*
G01*
X184300000Y-106435000D02*
X184000000Y-106435000D01*
G75*
G02*
X183850000Y-106285000I0J150000D01*
G01*
X183850000Y-104535000D01*
G75*
G02*
X184000000Y-104385000I150000J0D01*
G01*
X184300000Y-104385000D01*
G75*
G02*
X184450000Y-104535000I0J-150000D01*
G01*
X184450000Y-106285000D01*
G75*
G02*
X184300000Y-106435000I-150000J0D01*
G01*
G37*
G36*
G01*
X183030000Y-106435000D02*
X182730000Y-106435000D01*
G75*
G02*
X182580000Y-106285000I0J150000D01*
G01*
X182580000Y-104535000D01*
G75*
G02*
X182730000Y-104385000I150000J0D01*
G01*
X183030000Y-104385000D01*
G75*
G02*
X183180000Y-104535000I0J-150000D01*
G01*
X183180000Y-106285000D01*
G75*
G02*
X183030000Y-106435000I-150000J0D01*
G01*
G37*
G36*
G01*
X181760000Y-106435000D02*
X181460000Y-106435000D01*
G75*
G02*
X181310000Y-106285000I0J150000D01*
G01*
X181310000Y-104535000D01*
G75*
G02*
X181460000Y-104385000I150000J0D01*
G01*
X181760000Y-104385000D01*
G75*
G02*
X181910000Y-104535000I0J-150000D01*
G01*
X181910000Y-106285000D01*
G75*
G02*
X181760000Y-106435000I-150000J0D01*
G01*
G37*
G36*
G01*
X180490000Y-106435000D02*
X180190000Y-106435000D01*
G75*
G02*
X180040000Y-106285000I0J150000D01*
G01*
X180040000Y-104535000D01*
G75*
G02*
X180190000Y-104385000I150000J0D01*
G01*
X180490000Y-104385000D01*
G75*
G02*
X180640000Y-104535000I0J-150000D01*
G01*
X180640000Y-106285000D01*
G75*
G02*
X180490000Y-106435000I-150000J0D01*
G01*
G37*
G36*
G01*
X179220000Y-106435000D02*
X178920000Y-106435000D01*
G75*
G02*
X178770000Y-106285000I0J150000D01*
G01*
X178770000Y-104535000D01*
G75*
G02*
X178920000Y-104385000I150000J0D01*
G01*
X179220000Y-104385000D01*
G75*
G02*
X179370000Y-104535000I0J-150000D01*
G01*
X179370000Y-106285000D01*
G75*
G02*
X179220000Y-106435000I-150000J0D01*
G01*
G37*
G36*
G01*
X177950000Y-106435000D02*
X177650000Y-106435000D01*
G75*
G02*
X177500000Y-106285000I0J150000D01*
G01*
X177500000Y-104535000D01*
G75*
G02*
X177650000Y-104385000I150000J0D01*
G01*
X177950000Y-104385000D01*
G75*
G02*
X178100000Y-104535000I0J-150000D01*
G01*
X178100000Y-106285000D01*
G75*
G02*
X177950000Y-106435000I-150000J0D01*
G01*
G37*
G36*
G01*
X176680000Y-106435000D02*
X176380000Y-106435000D01*
G75*
G02*
X176230000Y-106285000I0J150000D01*
G01*
X176230000Y-104535000D01*
G75*
G02*
X176380000Y-104385000I150000J0D01*
G01*
X176680000Y-104385000D01*
G75*
G02*
X176830000Y-104535000I0J-150000D01*
G01*
X176830000Y-106285000D01*
G75*
G02*
X176680000Y-106435000I-150000J0D01*
G01*
G37*
G36*
G01*
X175410000Y-106435000D02*
X175110000Y-106435000D01*
G75*
G02*
X174960000Y-106285000I0J150000D01*
G01*
X174960000Y-104535000D01*
G75*
G02*
X175110000Y-104385000I150000J0D01*
G01*
X175410000Y-104385000D01*
G75*
G02*
X175560000Y-104535000I0J-150000D01*
G01*
X175560000Y-106285000D01*
G75*
G02*
X175410000Y-106435000I-150000J0D01*
G01*
G37*
G36*
G01*
X174140000Y-106435000D02*
X173840000Y-106435000D01*
G75*
G02*
X173690000Y-106285000I0J150000D01*
G01*
X173690000Y-104535000D01*
G75*
G02*
X173840000Y-104385000I150000J0D01*
G01*
X174140000Y-104385000D01*
G75*
G02*
X174290000Y-104535000I0J-150000D01*
G01*
X174290000Y-106285000D01*
G75*
G02*
X174140000Y-106435000I-150000J0D01*
G01*
G37*
G36*
G01*
X172870000Y-106435000D02*
X172570000Y-106435000D01*
G75*
G02*
X172420000Y-106285000I0J150000D01*
G01*
X172420000Y-104535000D01*
G75*
G02*
X172570000Y-104385000I150000J0D01*
G01*
X172870000Y-104385000D01*
G75*
G02*
X173020000Y-104535000I0J-150000D01*
G01*
X173020000Y-106285000D01*
G75*
G02*
X172870000Y-106435000I-150000J0D01*
G01*
G37*
M02*
