G04 #@! TF.GenerationSoftware,KiCad,Pcbnew,(5.1.10)-1*
G04 #@! TF.CreationDate,2021-09-26T16:33:56-04:00*
G04 #@! TF.ProjectId,schematics_main,73636865-6d61-4746-9963-735f6d61696e,rev?*
G04 #@! TF.SameCoordinates,Original*
G04 #@! TF.FileFunction,Paste,Top*
G04 #@! TF.FilePolarity,Positive*
%FSLAX46Y46*%
G04 Gerber Fmt 4.6, Leading zero omitted, Abs format (unit mm)*
G04 Created by KiCad (PCBNEW (5.1.10)-1) date 2021-09-26 16:33:56*
%MOMM*%
%LPD*%
G01*
G04 APERTURE LIST*
G04 APERTURE END LIST*
G36*
G01*
X183080000Y-109540000D02*
X183080000Y-109340000D01*
G75*
G02*
X183180000Y-109240000I100000J0D01*
G01*
X184455000Y-109240000D01*
G75*
G02*
X184555000Y-109340000I0J-100000D01*
G01*
X184555000Y-109540000D01*
G75*
G02*
X184455000Y-109640000I-100000J0D01*
G01*
X183180000Y-109640000D01*
G75*
G02*
X183080000Y-109540000I0J100000D01*
G01*
G37*
G36*
G01*
X183080000Y-110190000D02*
X183080000Y-109990000D01*
G75*
G02*
X183180000Y-109890000I100000J0D01*
G01*
X184455000Y-109890000D01*
G75*
G02*
X184555000Y-109990000I0J-100000D01*
G01*
X184555000Y-110190000D01*
G75*
G02*
X184455000Y-110290000I-100000J0D01*
G01*
X183180000Y-110290000D01*
G75*
G02*
X183080000Y-110190000I0J100000D01*
G01*
G37*
G36*
G01*
X183080000Y-110840000D02*
X183080000Y-110640000D01*
G75*
G02*
X183180000Y-110540000I100000J0D01*
G01*
X184455000Y-110540000D01*
G75*
G02*
X184555000Y-110640000I0J-100000D01*
G01*
X184555000Y-110840000D01*
G75*
G02*
X184455000Y-110940000I-100000J0D01*
G01*
X183180000Y-110940000D01*
G75*
G02*
X183080000Y-110840000I0J100000D01*
G01*
G37*
G36*
G01*
X183080000Y-111490000D02*
X183080000Y-111290000D01*
G75*
G02*
X183180000Y-111190000I100000J0D01*
G01*
X184455000Y-111190000D01*
G75*
G02*
X184555000Y-111290000I0J-100000D01*
G01*
X184555000Y-111490000D01*
G75*
G02*
X184455000Y-111590000I-100000J0D01*
G01*
X183180000Y-111590000D01*
G75*
G02*
X183080000Y-111490000I0J100000D01*
G01*
G37*
G36*
G01*
X183080000Y-112140000D02*
X183080000Y-111940000D01*
G75*
G02*
X183180000Y-111840000I100000J0D01*
G01*
X184455000Y-111840000D01*
G75*
G02*
X184555000Y-111940000I0J-100000D01*
G01*
X184555000Y-112140000D01*
G75*
G02*
X184455000Y-112240000I-100000J0D01*
G01*
X183180000Y-112240000D01*
G75*
G02*
X183080000Y-112140000I0J100000D01*
G01*
G37*
G36*
G01*
X183080000Y-112790000D02*
X183080000Y-112590000D01*
G75*
G02*
X183180000Y-112490000I100000J0D01*
G01*
X184455000Y-112490000D01*
G75*
G02*
X184555000Y-112590000I0J-100000D01*
G01*
X184555000Y-112790000D01*
G75*
G02*
X184455000Y-112890000I-100000J0D01*
G01*
X183180000Y-112890000D01*
G75*
G02*
X183080000Y-112790000I0J100000D01*
G01*
G37*
G36*
G01*
X183080000Y-113440000D02*
X183080000Y-113240000D01*
G75*
G02*
X183180000Y-113140000I100000J0D01*
G01*
X184455000Y-113140000D01*
G75*
G02*
X184555000Y-113240000I0J-100000D01*
G01*
X184555000Y-113440000D01*
G75*
G02*
X184455000Y-113540000I-100000J0D01*
G01*
X183180000Y-113540000D01*
G75*
G02*
X183080000Y-113440000I0J100000D01*
G01*
G37*
G36*
G01*
X183080000Y-114090000D02*
X183080000Y-113890000D01*
G75*
G02*
X183180000Y-113790000I100000J0D01*
G01*
X184455000Y-113790000D01*
G75*
G02*
X184555000Y-113890000I0J-100000D01*
G01*
X184555000Y-114090000D01*
G75*
G02*
X184455000Y-114190000I-100000J0D01*
G01*
X183180000Y-114190000D01*
G75*
G02*
X183080000Y-114090000I0J100000D01*
G01*
G37*
G36*
G01*
X183080000Y-114740000D02*
X183080000Y-114540000D01*
G75*
G02*
X183180000Y-114440000I100000J0D01*
G01*
X184455000Y-114440000D01*
G75*
G02*
X184555000Y-114540000I0J-100000D01*
G01*
X184555000Y-114740000D01*
G75*
G02*
X184455000Y-114840000I-100000J0D01*
G01*
X183180000Y-114840000D01*
G75*
G02*
X183080000Y-114740000I0J100000D01*
G01*
G37*
G36*
G01*
X183080000Y-115390000D02*
X183080000Y-115190000D01*
G75*
G02*
X183180000Y-115090000I100000J0D01*
G01*
X184455000Y-115090000D01*
G75*
G02*
X184555000Y-115190000I0J-100000D01*
G01*
X184555000Y-115390000D01*
G75*
G02*
X184455000Y-115490000I-100000J0D01*
G01*
X183180000Y-115490000D01*
G75*
G02*
X183080000Y-115390000I0J100000D01*
G01*
G37*
G36*
G01*
X183080000Y-116040000D02*
X183080000Y-115840000D01*
G75*
G02*
X183180000Y-115740000I100000J0D01*
G01*
X184455000Y-115740000D01*
G75*
G02*
X184555000Y-115840000I0J-100000D01*
G01*
X184555000Y-116040000D01*
G75*
G02*
X184455000Y-116140000I-100000J0D01*
G01*
X183180000Y-116140000D01*
G75*
G02*
X183080000Y-116040000I0J100000D01*
G01*
G37*
G36*
G01*
X183080000Y-116690000D02*
X183080000Y-116490000D01*
G75*
G02*
X183180000Y-116390000I100000J0D01*
G01*
X184455000Y-116390000D01*
G75*
G02*
X184555000Y-116490000I0J-100000D01*
G01*
X184555000Y-116690000D01*
G75*
G02*
X184455000Y-116790000I-100000J0D01*
G01*
X183180000Y-116790000D01*
G75*
G02*
X183080000Y-116690000I0J100000D01*
G01*
G37*
G36*
G01*
X183080000Y-117340000D02*
X183080000Y-117140000D01*
G75*
G02*
X183180000Y-117040000I100000J0D01*
G01*
X184455000Y-117040000D01*
G75*
G02*
X184555000Y-117140000I0J-100000D01*
G01*
X184555000Y-117340000D01*
G75*
G02*
X184455000Y-117440000I-100000J0D01*
G01*
X183180000Y-117440000D01*
G75*
G02*
X183080000Y-117340000I0J100000D01*
G01*
G37*
G36*
G01*
X183080000Y-117990000D02*
X183080000Y-117790000D01*
G75*
G02*
X183180000Y-117690000I100000J0D01*
G01*
X184455000Y-117690000D01*
G75*
G02*
X184555000Y-117790000I0J-100000D01*
G01*
X184555000Y-117990000D01*
G75*
G02*
X184455000Y-118090000I-100000J0D01*
G01*
X183180000Y-118090000D01*
G75*
G02*
X183080000Y-117990000I0J100000D01*
G01*
G37*
G36*
G01*
X177355000Y-117990000D02*
X177355000Y-117790000D01*
G75*
G02*
X177455000Y-117690000I100000J0D01*
G01*
X178730000Y-117690000D01*
G75*
G02*
X178830000Y-117790000I0J-100000D01*
G01*
X178830000Y-117990000D01*
G75*
G02*
X178730000Y-118090000I-100000J0D01*
G01*
X177455000Y-118090000D01*
G75*
G02*
X177355000Y-117990000I0J100000D01*
G01*
G37*
G36*
G01*
X177355000Y-117340000D02*
X177355000Y-117140000D01*
G75*
G02*
X177455000Y-117040000I100000J0D01*
G01*
X178730000Y-117040000D01*
G75*
G02*
X178830000Y-117140000I0J-100000D01*
G01*
X178830000Y-117340000D01*
G75*
G02*
X178730000Y-117440000I-100000J0D01*
G01*
X177455000Y-117440000D01*
G75*
G02*
X177355000Y-117340000I0J100000D01*
G01*
G37*
G36*
G01*
X177355000Y-116690000D02*
X177355000Y-116490000D01*
G75*
G02*
X177455000Y-116390000I100000J0D01*
G01*
X178730000Y-116390000D01*
G75*
G02*
X178830000Y-116490000I0J-100000D01*
G01*
X178830000Y-116690000D01*
G75*
G02*
X178730000Y-116790000I-100000J0D01*
G01*
X177455000Y-116790000D01*
G75*
G02*
X177355000Y-116690000I0J100000D01*
G01*
G37*
G36*
G01*
X177355000Y-116040000D02*
X177355000Y-115840000D01*
G75*
G02*
X177455000Y-115740000I100000J0D01*
G01*
X178730000Y-115740000D01*
G75*
G02*
X178830000Y-115840000I0J-100000D01*
G01*
X178830000Y-116040000D01*
G75*
G02*
X178730000Y-116140000I-100000J0D01*
G01*
X177455000Y-116140000D01*
G75*
G02*
X177355000Y-116040000I0J100000D01*
G01*
G37*
G36*
G01*
X177355000Y-115390000D02*
X177355000Y-115190000D01*
G75*
G02*
X177455000Y-115090000I100000J0D01*
G01*
X178730000Y-115090000D01*
G75*
G02*
X178830000Y-115190000I0J-100000D01*
G01*
X178830000Y-115390000D01*
G75*
G02*
X178730000Y-115490000I-100000J0D01*
G01*
X177455000Y-115490000D01*
G75*
G02*
X177355000Y-115390000I0J100000D01*
G01*
G37*
G36*
G01*
X177355000Y-114740000D02*
X177355000Y-114540000D01*
G75*
G02*
X177455000Y-114440000I100000J0D01*
G01*
X178730000Y-114440000D01*
G75*
G02*
X178830000Y-114540000I0J-100000D01*
G01*
X178830000Y-114740000D01*
G75*
G02*
X178730000Y-114840000I-100000J0D01*
G01*
X177455000Y-114840000D01*
G75*
G02*
X177355000Y-114740000I0J100000D01*
G01*
G37*
G36*
G01*
X177355000Y-114090000D02*
X177355000Y-113890000D01*
G75*
G02*
X177455000Y-113790000I100000J0D01*
G01*
X178730000Y-113790000D01*
G75*
G02*
X178830000Y-113890000I0J-100000D01*
G01*
X178830000Y-114090000D01*
G75*
G02*
X178730000Y-114190000I-100000J0D01*
G01*
X177455000Y-114190000D01*
G75*
G02*
X177355000Y-114090000I0J100000D01*
G01*
G37*
G36*
G01*
X177355000Y-113440000D02*
X177355000Y-113240000D01*
G75*
G02*
X177455000Y-113140000I100000J0D01*
G01*
X178730000Y-113140000D01*
G75*
G02*
X178830000Y-113240000I0J-100000D01*
G01*
X178830000Y-113440000D01*
G75*
G02*
X178730000Y-113540000I-100000J0D01*
G01*
X177455000Y-113540000D01*
G75*
G02*
X177355000Y-113440000I0J100000D01*
G01*
G37*
G36*
G01*
X177355000Y-112790000D02*
X177355000Y-112590000D01*
G75*
G02*
X177455000Y-112490000I100000J0D01*
G01*
X178730000Y-112490000D01*
G75*
G02*
X178830000Y-112590000I0J-100000D01*
G01*
X178830000Y-112790000D01*
G75*
G02*
X178730000Y-112890000I-100000J0D01*
G01*
X177455000Y-112890000D01*
G75*
G02*
X177355000Y-112790000I0J100000D01*
G01*
G37*
G36*
G01*
X177355000Y-112140000D02*
X177355000Y-111940000D01*
G75*
G02*
X177455000Y-111840000I100000J0D01*
G01*
X178730000Y-111840000D01*
G75*
G02*
X178830000Y-111940000I0J-100000D01*
G01*
X178830000Y-112140000D01*
G75*
G02*
X178730000Y-112240000I-100000J0D01*
G01*
X177455000Y-112240000D01*
G75*
G02*
X177355000Y-112140000I0J100000D01*
G01*
G37*
G36*
G01*
X177355000Y-111490000D02*
X177355000Y-111290000D01*
G75*
G02*
X177455000Y-111190000I100000J0D01*
G01*
X178730000Y-111190000D01*
G75*
G02*
X178830000Y-111290000I0J-100000D01*
G01*
X178830000Y-111490000D01*
G75*
G02*
X178730000Y-111590000I-100000J0D01*
G01*
X177455000Y-111590000D01*
G75*
G02*
X177355000Y-111490000I0J100000D01*
G01*
G37*
G36*
G01*
X177355000Y-110840000D02*
X177355000Y-110640000D01*
G75*
G02*
X177455000Y-110540000I100000J0D01*
G01*
X178730000Y-110540000D01*
G75*
G02*
X178830000Y-110640000I0J-100000D01*
G01*
X178830000Y-110840000D01*
G75*
G02*
X178730000Y-110940000I-100000J0D01*
G01*
X177455000Y-110940000D01*
G75*
G02*
X177355000Y-110840000I0J100000D01*
G01*
G37*
G36*
G01*
X177355000Y-110190000D02*
X177355000Y-109990000D01*
G75*
G02*
X177455000Y-109890000I100000J0D01*
G01*
X178730000Y-109890000D01*
G75*
G02*
X178830000Y-109990000I0J-100000D01*
G01*
X178830000Y-110190000D01*
G75*
G02*
X178730000Y-110290000I-100000J0D01*
G01*
X177455000Y-110290000D01*
G75*
G02*
X177355000Y-110190000I0J100000D01*
G01*
G37*
G36*
G01*
X177355000Y-109540000D02*
X177355000Y-109340000D01*
G75*
G02*
X177455000Y-109240000I100000J0D01*
G01*
X178730000Y-109240000D01*
G75*
G02*
X178830000Y-109340000I0J-100000D01*
G01*
X178830000Y-109540000D01*
G75*
G02*
X178730000Y-109640000I-100000J0D01*
G01*
X177455000Y-109640000D01*
G75*
G02*
X177355000Y-109540000I0J100000D01*
G01*
G37*
M02*
