G04 #@! TF.GenerationSoftware,KiCad,Pcbnew,(5.1.10)-1*
G04 #@! TF.CreationDate,2021-09-29T14:01:46-04:00*
G04 #@! TF.ProjectId,schematics_main,73636865-6d61-4746-9963-735f6d61696e,rev?*
G04 #@! TF.SameCoordinates,Original*
G04 #@! TF.FileFunction,Copper,L1,Top*
G04 #@! TF.FilePolarity,Positive*
%FSLAX46Y46*%
G04 Gerber Fmt 4.6, Leading zero omitted, Abs format (unit mm)*
G04 Created by KiCad (PCBNEW (5.1.10)-1) date 2021-09-29 14:01:46*
%MOMM*%
%LPD*%
G01*
G04 APERTURE LIST*
G04 #@! TA.AperFunction,ComponentPad*
%ADD10R,1.905000X2.000000*%
G04 #@! TD*
G04 #@! TA.AperFunction,ComponentPad*
%ADD11O,1.905000X2.000000*%
G04 #@! TD*
G04 #@! TA.AperFunction,ComponentPad*
%ADD12O,2.400000X2.400000*%
G04 #@! TD*
G04 #@! TA.AperFunction,ComponentPad*
%ADD13R,1.524000X1.524000*%
G04 #@! TD*
G04 #@! TA.AperFunction,ComponentPad*
%ADD14C,1.524000*%
G04 #@! TD*
G04 #@! TA.AperFunction,ComponentPad*
%ADD15C,1.700000*%
G04 #@! TD*
G04 #@! TA.AperFunction,ComponentPad*
%ADD16R,1.800000X1.800000*%
G04 #@! TD*
G04 #@! TA.AperFunction,ComponentPad*
%ADD17O,1.800000X1.800000*%
G04 #@! TD*
G04 #@! TA.AperFunction,ComponentPad*
%ADD18R,1.800000X2.800000*%
G04 #@! TD*
G04 #@! TA.AperFunction,ComponentPad*
%ADD19R,1.700000X1.700000*%
G04 #@! TD*
G04 #@! TA.AperFunction,ComponentPad*
%ADD20O,1.700000X1.700000*%
G04 #@! TD*
G04 #@! TA.AperFunction,ComponentPad*
%ADD21C,2.600000*%
G04 #@! TD*
G04 #@! TA.AperFunction,ComponentPad*
%ADD22C,1.600000*%
G04 #@! TD*
G04 #@! TA.AperFunction,ComponentPad*
%ADD23O,1.600000X1.600000*%
G04 #@! TD*
G04 #@! TA.AperFunction,ComponentPad*
%ADD24O,2.200000X2.200000*%
G04 #@! TD*
G04 #@! TA.AperFunction,ComponentPad*
%ADD25R,2.200000X2.200000*%
G04 #@! TD*
G04 #@! TA.AperFunction,ComponentPad*
%ADD26C,3.000000*%
G04 #@! TD*
G04 #@! TA.AperFunction,ComponentPad*
%ADD27C,6.400000*%
G04 #@! TD*
G04 #@! TA.AperFunction,ComponentPad*
%ADD28C,2.000000*%
G04 #@! TD*
G04 #@! TA.AperFunction,ComponentPad*
%ADD29R,3.500000X3.500000*%
G04 #@! TD*
G04 #@! TA.AperFunction,ComponentPad*
%ADD30R,1.600000X1.600000*%
G04 #@! TD*
G04 #@! TA.AperFunction,ViaPad*
%ADD31C,1.000000*%
G04 #@! TD*
G04 #@! TA.AperFunction,ViaPad*
%ADD32C,0.800000*%
G04 #@! TD*
G04 #@! TA.AperFunction,Conductor*
%ADD33C,1.000000*%
G04 #@! TD*
G04 #@! TA.AperFunction,Conductor*
%ADD34C,0.500000*%
G04 #@! TD*
G04 #@! TA.AperFunction,Conductor*
%ADD35C,0.700000*%
G04 #@! TD*
G04 #@! TA.AperFunction,Conductor*
%ADD36C,0.300000*%
G04 #@! TD*
G04 APERTURE END LIST*
D10*
X212090000Y-143510000D03*
D11*
X209550000Y-143510000D03*
X207010000Y-143510000D03*
D12*
X209550000Y-148590000D03*
D13*
X220980000Y-100965000D03*
X205740000Y-100965000D03*
D14*
X210820000Y-100965000D03*
X218440000Y-100965000D03*
X208280000Y-100965000D03*
X223520000Y-100965000D03*
X215900000Y-100965000D03*
X213360000Y-100965000D03*
X226060000Y-100965000D03*
X228600000Y-100965000D03*
X236220000Y-100965000D03*
X241300000Y-100965000D03*
X238760000Y-100965000D03*
X233680000Y-100965000D03*
X231140000Y-100965000D03*
X251460000Y-100965000D03*
X248920000Y-100965000D03*
X246380000Y-100965000D03*
X243840000Y-100965000D03*
X251460000Y-126365000D03*
X248920000Y-126365000D03*
X246380000Y-126365000D03*
X243840000Y-126365000D03*
X241300000Y-126365000D03*
D13*
X238760000Y-126365000D03*
D14*
X236220000Y-126365000D03*
X233680000Y-126365000D03*
X231140000Y-126365000D03*
X228600000Y-126365000D03*
X226060000Y-126365000D03*
X223520000Y-126365000D03*
X220980000Y-126365000D03*
X218440000Y-126365000D03*
X215900000Y-126365000D03*
X213360000Y-126365000D03*
X210820000Y-126365000D03*
X208280000Y-126365000D03*
X205740000Y-126365000D03*
X251460000Y-103505000D03*
X248920000Y-103505000D03*
X223520000Y-103505000D03*
X238760000Y-103505000D03*
X226060000Y-103505000D03*
X228600000Y-103505000D03*
X218440000Y-103505000D03*
X210820000Y-103505000D03*
X233680000Y-103505000D03*
X243840000Y-103505000D03*
X208280000Y-103505000D03*
X246380000Y-103505000D03*
X231140000Y-103505000D03*
X241300000Y-103505000D03*
X213360000Y-103505000D03*
D13*
X205740000Y-103505000D03*
D14*
X215900000Y-103505000D03*
X236220000Y-103505000D03*
D13*
X220980000Y-103505000D03*
G04 #@! TA.AperFunction,SMDPad,CuDef*
G36*
G01*
X172870000Y-115735000D02*
X172570000Y-115735000D01*
G75*
G02*
X172420000Y-115585000I0J150000D01*
G01*
X172420000Y-113835000D01*
G75*
G02*
X172570000Y-113685000I150000J0D01*
G01*
X172870000Y-113685000D01*
G75*
G02*
X173020000Y-113835000I0J-150000D01*
G01*
X173020000Y-115585000D01*
G75*
G02*
X172870000Y-115735000I-150000J0D01*
G01*
G37*
G04 #@! TD.AperFunction*
G04 #@! TA.AperFunction,SMDPad,CuDef*
G36*
G01*
X174140000Y-115735000D02*
X173840000Y-115735000D01*
G75*
G02*
X173690000Y-115585000I0J150000D01*
G01*
X173690000Y-113835000D01*
G75*
G02*
X173840000Y-113685000I150000J0D01*
G01*
X174140000Y-113685000D01*
G75*
G02*
X174290000Y-113835000I0J-150000D01*
G01*
X174290000Y-115585000D01*
G75*
G02*
X174140000Y-115735000I-150000J0D01*
G01*
G37*
G04 #@! TD.AperFunction*
G04 #@! TA.AperFunction,SMDPad,CuDef*
G36*
G01*
X175410000Y-115735000D02*
X175110000Y-115735000D01*
G75*
G02*
X174960000Y-115585000I0J150000D01*
G01*
X174960000Y-113835000D01*
G75*
G02*
X175110000Y-113685000I150000J0D01*
G01*
X175410000Y-113685000D01*
G75*
G02*
X175560000Y-113835000I0J-150000D01*
G01*
X175560000Y-115585000D01*
G75*
G02*
X175410000Y-115735000I-150000J0D01*
G01*
G37*
G04 #@! TD.AperFunction*
G04 #@! TA.AperFunction,SMDPad,CuDef*
G36*
G01*
X176680000Y-115735000D02*
X176380000Y-115735000D01*
G75*
G02*
X176230000Y-115585000I0J150000D01*
G01*
X176230000Y-113835000D01*
G75*
G02*
X176380000Y-113685000I150000J0D01*
G01*
X176680000Y-113685000D01*
G75*
G02*
X176830000Y-113835000I0J-150000D01*
G01*
X176830000Y-115585000D01*
G75*
G02*
X176680000Y-115735000I-150000J0D01*
G01*
G37*
G04 #@! TD.AperFunction*
G04 #@! TA.AperFunction,SMDPad,CuDef*
G36*
G01*
X177950000Y-115735000D02*
X177650000Y-115735000D01*
G75*
G02*
X177500000Y-115585000I0J150000D01*
G01*
X177500000Y-113835000D01*
G75*
G02*
X177650000Y-113685000I150000J0D01*
G01*
X177950000Y-113685000D01*
G75*
G02*
X178100000Y-113835000I0J-150000D01*
G01*
X178100000Y-115585000D01*
G75*
G02*
X177950000Y-115735000I-150000J0D01*
G01*
G37*
G04 #@! TD.AperFunction*
G04 #@! TA.AperFunction,SMDPad,CuDef*
G36*
G01*
X179220000Y-115735000D02*
X178920000Y-115735000D01*
G75*
G02*
X178770000Y-115585000I0J150000D01*
G01*
X178770000Y-113835000D01*
G75*
G02*
X178920000Y-113685000I150000J0D01*
G01*
X179220000Y-113685000D01*
G75*
G02*
X179370000Y-113835000I0J-150000D01*
G01*
X179370000Y-115585000D01*
G75*
G02*
X179220000Y-115735000I-150000J0D01*
G01*
G37*
G04 #@! TD.AperFunction*
G04 #@! TA.AperFunction,SMDPad,CuDef*
G36*
G01*
X180490000Y-115735000D02*
X180190000Y-115735000D01*
G75*
G02*
X180040000Y-115585000I0J150000D01*
G01*
X180040000Y-113835000D01*
G75*
G02*
X180190000Y-113685000I150000J0D01*
G01*
X180490000Y-113685000D01*
G75*
G02*
X180640000Y-113835000I0J-150000D01*
G01*
X180640000Y-115585000D01*
G75*
G02*
X180490000Y-115735000I-150000J0D01*
G01*
G37*
G04 #@! TD.AperFunction*
G04 #@! TA.AperFunction,SMDPad,CuDef*
G36*
G01*
X181760000Y-115735000D02*
X181460000Y-115735000D01*
G75*
G02*
X181310000Y-115585000I0J150000D01*
G01*
X181310000Y-113835000D01*
G75*
G02*
X181460000Y-113685000I150000J0D01*
G01*
X181760000Y-113685000D01*
G75*
G02*
X181910000Y-113835000I0J-150000D01*
G01*
X181910000Y-115585000D01*
G75*
G02*
X181760000Y-115735000I-150000J0D01*
G01*
G37*
G04 #@! TD.AperFunction*
G04 #@! TA.AperFunction,SMDPad,CuDef*
G36*
G01*
X183030000Y-115735000D02*
X182730000Y-115735000D01*
G75*
G02*
X182580000Y-115585000I0J150000D01*
G01*
X182580000Y-113835000D01*
G75*
G02*
X182730000Y-113685000I150000J0D01*
G01*
X183030000Y-113685000D01*
G75*
G02*
X183180000Y-113835000I0J-150000D01*
G01*
X183180000Y-115585000D01*
G75*
G02*
X183030000Y-115735000I-150000J0D01*
G01*
G37*
G04 #@! TD.AperFunction*
G04 #@! TA.AperFunction,SMDPad,CuDef*
G36*
G01*
X184300000Y-115735000D02*
X184000000Y-115735000D01*
G75*
G02*
X183850000Y-115585000I0J150000D01*
G01*
X183850000Y-113835000D01*
G75*
G02*
X184000000Y-113685000I150000J0D01*
G01*
X184300000Y-113685000D01*
G75*
G02*
X184450000Y-113835000I0J-150000D01*
G01*
X184450000Y-115585000D01*
G75*
G02*
X184300000Y-115735000I-150000J0D01*
G01*
G37*
G04 #@! TD.AperFunction*
G04 #@! TA.AperFunction,SMDPad,CuDef*
G36*
G01*
X185570000Y-115735000D02*
X185270000Y-115735000D01*
G75*
G02*
X185120000Y-115585000I0J150000D01*
G01*
X185120000Y-113835000D01*
G75*
G02*
X185270000Y-113685000I150000J0D01*
G01*
X185570000Y-113685000D01*
G75*
G02*
X185720000Y-113835000I0J-150000D01*
G01*
X185720000Y-115585000D01*
G75*
G02*
X185570000Y-115735000I-150000J0D01*
G01*
G37*
G04 #@! TD.AperFunction*
G04 #@! TA.AperFunction,SMDPad,CuDef*
G36*
G01*
X186840000Y-115735000D02*
X186540000Y-115735000D01*
G75*
G02*
X186390000Y-115585000I0J150000D01*
G01*
X186390000Y-113835000D01*
G75*
G02*
X186540000Y-113685000I150000J0D01*
G01*
X186840000Y-113685000D01*
G75*
G02*
X186990000Y-113835000I0J-150000D01*
G01*
X186990000Y-115585000D01*
G75*
G02*
X186840000Y-115735000I-150000J0D01*
G01*
G37*
G04 #@! TD.AperFunction*
G04 #@! TA.AperFunction,SMDPad,CuDef*
G36*
G01*
X188110000Y-115735000D02*
X187810000Y-115735000D01*
G75*
G02*
X187660000Y-115585000I0J150000D01*
G01*
X187660000Y-113835000D01*
G75*
G02*
X187810000Y-113685000I150000J0D01*
G01*
X188110000Y-113685000D01*
G75*
G02*
X188260000Y-113835000I0J-150000D01*
G01*
X188260000Y-115585000D01*
G75*
G02*
X188110000Y-115735000I-150000J0D01*
G01*
G37*
G04 #@! TD.AperFunction*
G04 #@! TA.AperFunction,SMDPad,CuDef*
G36*
G01*
X189380000Y-115735000D02*
X189080000Y-115735000D01*
G75*
G02*
X188930000Y-115585000I0J150000D01*
G01*
X188930000Y-113835000D01*
G75*
G02*
X189080000Y-113685000I150000J0D01*
G01*
X189380000Y-113685000D01*
G75*
G02*
X189530000Y-113835000I0J-150000D01*
G01*
X189530000Y-115585000D01*
G75*
G02*
X189380000Y-115735000I-150000J0D01*
G01*
G37*
G04 #@! TD.AperFunction*
G04 #@! TA.AperFunction,SMDPad,CuDef*
G36*
G01*
X189380000Y-106435000D02*
X189080000Y-106435000D01*
G75*
G02*
X188930000Y-106285000I0J150000D01*
G01*
X188930000Y-104535000D01*
G75*
G02*
X189080000Y-104385000I150000J0D01*
G01*
X189380000Y-104385000D01*
G75*
G02*
X189530000Y-104535000I0J-150000D01*
G01*
X189530000Y-106285000D01*
G75*
G02*
X189380000Y-106435000I-150000J0D01*
G01*
G37*
G04 #@! TD.AperFunction*
G04 #@! TA.AperFunction,SMDPad,CuDef*
G36*
G01*
X188110000Y-106435000D02*
X187810000Y-106435000D01*
G75*
G02*
X187660000Y-106285000I0J150000D01*
G01*
X187660000Y-104535000D01*
G75*
G02*
X187810000Y-104385000I150000J0D01*
G01*
X188110000Y-104385000D01*
G75*
G02*
X188260000Y-104535000I0J-150000D01*
G01*
X188260000Y-106285000D01*
G75*
G02*
X188110000Y-106435000I-150000J0D01*
G01*
G37*
G04 #@! TD.AperFunction*
G04 #@! TA.AperFunction,SMDPad,CuDef*
G36*
G01*
X186840000Y-106435000D02*
X186540000Y-106435000D01*
G75*
G02*
X186390000Y-106285000I0J150000D01*
G01*
X186390000Y-104535000D01*
G75*
G02*
X186540000Y-104385000I150000J0D01*
G01*
X186840000Y-104385000D01*
G75*
G02*
X186990000Y-104535000I0J-150000D01*
G01*
X186990000Y-106285000D01*
G75*
G02*
X186840000Y-106435000I-150000J0D01*
G01*
G37*
G04 #@! TD.AperFunction*
G04 #@! TA.AperFunction,SMDPad,CuDef*
G36*
G01*
X185570000Y-106435000D02*
X185270000Y-106435000D01*
G75*
G02*
X185120000Y-106285000I0J150000D01*
G01*
X185120000Y-104535000D01*
G75*
G02*
X185270000Y-104385000I150000J0D01*
G01*
X185570000Y-104385000D01*
G75*
G02*
X185720000Y-104535000I0J-150000D01*
G01*
X185720000Y-106285000D01*
G75*
G02*
X185570000Y-106435000I-150000J0D01*
G01*
G37*
G04 #@! TD.AperFunction*
G04 #@! TA.AperFunction,SMDPad,CuDef*
G36*
G01*
X184300000Y-106435000D02*
X184000000Y-106435000D01*
G75*
G02*
X183850000Y-106285000I0J150000D01*
G01*
X183850000Y-104535000D01*
G75*
G02*
X184000000Y-104385000I150000J0D01*
G01*
X184300000Y-104385000D01*
G75*
G02*
X184450000Y-104535000I0J-150000D01*
G01*
X184450000Y-106285000D01*
G75*
G02*
X184300000Y-106435000I-150000J0D01*
G01*
G37*
G04 #@! TD.AperFunction*
G04 #@! TA.AperFunction,SMDPad,CuDef*
G36*
G01*
X183030000Y-106435000D02*
X182730000Y-106435000D01*
G75*
G02*
X182580000Y-106285000I0J150000D01*
G01*
X182580000Y-104535000D01*
G75*
G02*
X182730000Y-104385000I150000J0D01*
G01*
X183030000Y-104385000D01*
G75*
G02*
X183180000Y-104535000I0J-150000D01*
G01*
X183180000Y-106285000D01*
G75*
G02*
X183030000Y-106435000I-150000J0D01*
G01*
G37*
G04 #@! TD.AperFunction*
G04 #@! TA.AperFunction,SMDPad,CuDef*
G36*
G01*
X181760000Y-106435000D02*
X181460000Y-106435000D01*
G75*
G02*
X181310000Y-106285000I0J150000D01*
G01*
X181310000Y-104535000D01*
G75*
G02*
X181460000Y-104385000I150000J0D01*
G01*
X181760000Y-104385000D01*
G75*
G02*
X181910000Y-104535000I0J-150000D01*
G01*
X181910000Y-106285000D01*
G75*
G02*
X181760000Y-106435000I-150000J0D01*
G01*
G37*
G04 #@! TD.AperFunction*
G04 #@! TA.AperFunction,SMDPad,CuDef*
G36*
G01*
X180490000Y-106435000D02*
X180190000Y-106435000D01*
G75*
G02*
X180040000Y-106285000I0J150000D01*
G01*
X180040000Y-104535000D01*
G75*
G02*
X180190000Y-104385000I150000J0D01*
G01*
X180490000Y-104385000D01*
G75*
G02*
X180640000Y-104535000I0J-150000D01*
G01*
X180640000Y-106285000D01*
G75*
G02*
X180490000Y-106435000I-150000J0D01*
G01*
G37*
G04 #@! TD.AperFunction*
G04 #@! TA.AperFunction,SMDPad,CuDef*
G36*
G01*
X179220000Y-106435000D02*
X178920000Y-106435000D01*
G75*
G02*
X178770000Y-106285000I0J150000D01*
G01*
X178770000Y-104535000D01*
G75*
G02*
X178920000Y-104385000I150000J0D01*
G01*
X179220000Y-104385000D01*
G75*
G02*
X179370000Y-104535000I0J-150000D01*
G01*
X179370000Y-106285000D01*
G75*
G02*
X179220000Y-106435000I-150000J0D01*
G01*
G37*
G04 #@! TD.AperFunction*
G04 #@! TA.AperFunction,SMDPad,CuDef*
G36*
G01*
X177950000Y-106435000D02*
X177650000Y-106435000D01*
G75*
G02*
X177500000Y-106285000I0J150000D01*
G01*
X177500000Y-104535000D01*
G75*
G02*
X177650000Y-104385000I150000J0D01*
G01*
X177950000Y-104385000D01*
G75*
G02*
X178100000Y-104535000I0J-150000D01*
G01*
X178100000Y-106285000D01*
G75*
G02*
X177950000Y-106435000I-150000J0D01*
G01*
G37*
G04 #@! TD.AperFunction*
G04 #@! TA.AperFunction,SMDPad,CuDef*
G36*
G01*
X176680000Y-106435000D02*
X176380000Y-106435000D01*
G75*
G02*
X176230000Y-106285000I0J150000D01*
G01*
X176230000Y-104535000D01*
G75*
G02*
X176380000Y-104385000I150000J0D01*
G01*
X176680000Y-104385000D01*
G75*
G02*
X176830000Y-104535000I0J-150000D01*
G01*
X176830000Y-106285000D01*
G75*
G02*
X176680000Y-106435000I-150000J0D01*
G01*
G37*
G04 #@! TD.AperFunction*
G04 #@! TA.AperFunction,SMDPad,CuDef*
G36*
G01*
X175410000Y-106435000D02*
X175110000Y-106435000D01*
G75*
G02*
X174960000Y-106285000I0J150000D01*
G01*
X174960000Y-104535000D01*
G75*
G02*
X175110000Y-104385000I150000J0D01*
G01*
X175410000Y-104385000D01*
G75*
G02*
X175560000Y-104535000I0J-150000D01*
G01*
X175560000Y-106285000D01*
G75*
G02*
X175410000Y-106435000I-150000J0D01*
G01*
G37*
G04 #@! TD.AperFunction*
G04 #@! TA.AperFunction,SMDPad,CuDef*
G36*
G01*
X174140000Y-106435000D02*
X173840000Y-106435000D01*
G75*
G02*
X173690000Y-106285000I0J150000D01*
G01*
X173690000Y-104535000D01*
G75*
G02*
X173840000Y-104385000I150000J0D01*
G01*
X174140000Y-104385000D01*
G75*
G02*
X174290000Y-104535000I0J-150000D01*
G01*
X174290000Y-106285000D01*
G75*
G02*
X174140000Y-106435000I-150000J0D01*
G01*
G37*
G04 #@! TD.AperFunction*
G04 #@! TA.AperFunction,SMDPad,CuDef*
G36*
G01*
X172870000Y-106435000D02*
X172570000Y-106435000D01*
G75*
G02*
X172420000Y-106285000I0J150000D01*
G01*
X172420000Y-104535000D01*
G75*
G02*
X172570000Y-104385000I150000J0D01*
G01*
X172870000Y-104385000D01*
G75*
G02*
X173020000Y-104535000I0J-150000D01*
G01*
X173020000Y-106285000D01*
G75*
G02*
X172870000Y-106435000I-150000J0D01*
G01*
G37*
G04 #@! TD.AperFunction*
D15*
X192405000Y-93345000D03*
X189865000Y-93345000D03*
X187325000Y-93345000D03*
X184785000Y-93345000D03*
X182245000Y-93345000D03*
X179705000Y-93345000D03*
X177165000Y-93345000D03*
X174625000Y-93345000D03*
X172085000Y-93345000D03*
X169545000Y-93345000D03*
X192405000Y-95885000D03*
X189865000Y-95885000D03*
X187325000Y-95885000D03*
X184785000Y-95885000D03*
X182245000Y-95885000D03*
X179705000Y-95885000D03*
X177165000Y-95885000D03*
X174625000Y-95885000D03*
X172085000Y-95885000D03*
G04 #@! TA.AperFunction,ComponentPad*
G36*
G01*
X170145000Y-96735000D02*
X168945000Y-96735000D01*
G75*
G02*
X168695000Y-96485000I0J250000D01*
G01*
X168695000Y-95285000D01*
G75*
G02*
X168945000Y-95035000I250000J0D01*
G01*
X170145000Y-95035000D01*
G75*
G02*
X170395000Y-95285000I0J-250000D01*
G01*
X170395000Y-96485000D01*
G75*
G02*
X170145000Y-96735000I-250000J0D01*
G01*
G37*
G04 #@! TD.AperFunction*
D16*
X182880000Y-131445000D03*
D17*
X190500000Y-133985000D03*
D18*
X182880000Y-133485000D03*
D17*
X190500000Y-131445000D03*
D19*
X241300000Y-93345000D03*
D20*
X203200000Y-93345000D03*
D19*
X200660000Y-93345000D03*
D21*
X181690000Y-146050000D03*
X186690000Y-146050000D03*
D22*
X248960000Y-129540000D03*
X251460000Y-129540000D03*
D23*
X162560000Y-115570000D03*
D22*
X162560000Y-105410000D03*
D23*
X218440000Y-93345000D03*
D22*
X208280000Y-93345000D03*
D24*
X167640000Y-149225000D03*
D25*
X167640000Y-139065000D03*
D24*
X182880000Y-139065000D03*
D25*
X172720000Y-139065000D03*
D24*
X240030000Y-139065000D03*
D25*
X229870000Y-139065000D03*
D24*
X241300000Y-133350000D03*
D25*
X251460000Y-133350000D03*
D26*
X207010000Y-137160000D03*
X244475000Y-139700000D03*
X167640000Y-133985000D03*
D27*
X248920000Y-147955000D03*
X160020000Y-147955000D03*
X160020000Y-94615000D03*
X248920000Y-94615000D03*
D28*
X229870000Y-149225000D03*
X229880000Y-144145000D03*
D29*
X237490000Y-144955000D03*
G04 #@! TA.AperFunction,ComponentPad*
G36*
G01*
X238490000Y-152455000D02*
X236490000Y-152455000D01*
G75*
G02*
X235740000Y-151705000I0J750000D01*
G01*
X235740000Y-150205000D01*
G75*
G02*
X236490000Y-149455000I750000J0D01*
G01*
X238490000Y-149455000D01*
G75*
G02*
X239240000Y-150205000I0J-750000D01*
G01*
X239240000Y-151705000D01*
G75*
G02*
X238490000Y-152455000I-750000J0D01*
G01*
G37*
G04 #@! TD.AperFunction*
G04 #@! TA.AperFunction,ComponentPad*
G36*
G01*
X243065000Y-149705000D02*
X241315000Y-149705000D01*
G75*
G02*
X240440000Y-148830000I0J875000D01*
G01*
X240440000Y-147080000D01*
G75*
G02*
X241315000Y-146205000I875000J0D01*
G01*
X243065000Y-146205000D01*
G75*
G02*
X243940000Y-147080000I0J-875000D01*
G01*
X243940000Y-148830000D01*
G75*
G02*
X243065000Y-149705000I-875000J0D01*
G01*
G37*
G04 #@! TD.AperFunction*
D22*
X168910000Y-113070000D03*
X168910000Y-115570000D03*
X173990000Y-146685000D03*
D30*
X173990000Y-144185000D03*
X193675000Y-147955000D03*
D22*
X193675000Y-150455000D03*
X168910000Y-105450000D03*
X168910000Y-107950000D03*
X193675000Y-142835000D03*
D30*
X193675000Y-140335000D03*
X223520000Y-146685000D03*
D22*
X223520000Y-149185000D03*
X224750000Y-143510000D03*
X222250000Y-143510000D03*
D31*
X190851997Y-114709999D03*
X207010004Y-110490002D03*
X215264946Y-113030000D03*
D32*
X183515000Y-112395000D03*
X184785000Y-112395000D03*
X178435000Y-112395000D03*
X177165010Y-112395000D03*
X175895000Y-112395000D03*
X174625000Y-112395000D03*
X182245000Y-112395000D03*
X180975000Y-112395000D03*
X179704990Y-112395000D03*
D33*
X205740000Y-100965000D02*
X205740000Y-103505000D01*
X220980000Y-103505000D02*
X220980000Y-100965000D01*
D34*
X190851996Y-114710000D02*
X190851997Y-114709999D01*
X189230000Y-114710000D02*
X190851996Y-114710000D01*
D33*
X232410000Y-136525000D02*
X229870000Y-139065000D01*
X241300000Y-136525000D02*
X232410000Y-136525000D01*
X244475000Y-139700000D02*
X241300000Y-136525000D01*
X216535000Y-139065000D02*
X212090000Y-143510000D01*
X229870000Y-139065000D02*
X216535000Y-139065000D01*
X209550000Y-146050000D02*
X186690000Y-146050000D01*
X212090000Y-143510000D02*
X209550000Y-146050000D01*
X191770000Y-146050000D02*
X193675000Y-147955000D01*
X186690000Y-146050000D02*
X191770000Y-146050000D01*
X221615000Y-146685000D02*
X218440000Y-143510000D01*
X223520000Y-146685000D02*
X221615000Y-146685000D01*
X218440000Y-143510000D02*
X222250000Y-143510000D01*
X212090000Y-143510000D02*
X218440000Y-143510000D01*
X217170000Y-133350000D02*
X207010000Y-143510000D01*
X241300000Y-133350000D02*
X217170000Y-133350000D01*
X203835000Y-140335000D02*
X207010000Y-143510000D01*
X193675000Y-140335000D02*
X203835000Y-140335000D01*
X207010000Y-137160000D02*
X207010000Y-143510000D01*
X180340000Y-123190000D02*
X170180000Y-123190000D01*
X186690000Y-135890000D02*
X186690000Y-129540000D01*
X191135000Y-140335000D02*
X186690000Y-135890000D01*
X186690000Y-129540000D02*
X180340000Y-123190000D01*
X193675000Y-140335000D02*
X191135000Y-140335000D01*
X165100000Y-118110000D02*
X162560000Y-115570000D01*
X170180000Y-123190000D02*
X165100000Y-118110000D01*
D35*
X171450000Y-105410000D02*
X168910000Y-107950000D01*
X172720000Y-105410000D02*
X171450000Y-105410000D01*
D33*
X168910000Y-109220000D02*
X166370000Y-111760000D01*
X166370000Y-111760000D02*
X162560000Y-115570000D01*
X168910000Y-107950000D02*
X168910000Y-109220000D01*
X172720000Y-139065000D02*
X167640000Y-139065000D01*
X172720000Y-142915000D02*
X173990000Y-144185000D01*
X172720000Y-139065000D02*
X172720000Y-142915000D01*
X172720000Y-139065000D02*
X167640000Y-133985000D01*
D35*
X169770000Y-114710000D02*
X168910000Y-115570000D01*
X172720000Y-114710000D02*
X169770000Y-114710000D01*
D33*
X237490000Y-139065000D02*
X240030000Y-139065000D01*
X232410000Y-144145000D02*
X237490000Y-139065000D01*
X229870000Y-144145000D02*
X232410000Y-144145000D01*
X181690000Y-140255000D02*
X182880000Y-139065000D01*
X181690000Y-146050000D02*
X181690000Y-140255000D01*
X182880000Y-131445000D02*
X182880000Y-139065000D01*
X233220000Y-149225000D02*
X237490000Y-144955000D01*
X229860000Y-149225000D02*
X233220000Y-149225000D01*
X215195009Y-132149991D02*
X220980000Y-126365000D01*
X192335009Y-132149991D02*
X215195009Y-132149991D01*
X190500000Y-133985000D02*
X192335009Y-132149991D01*
X208280000Y-93345000D02*
X203200000Y-93345000D01*
D35*
X200659990Y-93345010D02*
X200660000Y-93345000D01*
D33*
X243840000Y-103505000D02*
X243840000Y-100965000D01*
X243840000Y-95885000D02*
X241300000Y-93345000D01*
X243840000Y-100965000D02*
X243840000Y-95885000D01*
X210820000Y-103505000D02*
X210820000Y-100965000D01*
X208280000Y-100965000D02*
X208280000Y-103505000D01*
D34*
X178045002Y-110490002D02*
X207010004Y-110490002D01*
X173990000Y-106435000D02*
X178045002Y-110490002D01*
X173990000Y-105410000D02*
X173990000Y-106435000D01*
D33*
X215900000Y-103505000D02*
X215900000Y-100965000D01*
X213360000Y-100965000D02*
X213360000Y-103505000D01*
X226060000Y-100965000D02*
X226060000Y-103505000D01*
D34*
X224155000Y-105410000D02*
X189230000Y-105410000D01*
X226060000Y-103505000D02*
X224155000Y-105410000D01*
D33*
X228600000Y-103505000D02*
X228600000Y-100965000D01*
D34*
X187960000Y-106435000D02*
X187960000Y-105410000D01*
X189475000Y-107950000D02*
X187960000Y-106435000D01*
X224155000Y-107950000D02*
X189475000Y-107950000D01*
X228600000Y-103505000D02*
X224155000Y-107950000D01*
D33*
X236220000Y-100965000D02*
X236220000Y-103505000D01*
X241300000Y-100965000D02*
X241300000Y-103505000D01*
X238760000Y-103505000D02*
X238760000Y-100965000D01*
X231140000Y-100965000D02*
X231140000Y-103505000D01*
X251460000Y-100965000D02*
X251460000Y-103505000D01*
X248920000Y-103505000D02*
X248920000Y-100965000D01*
X246380000Y-100965000D02*
X246380000Y-103505000D01*
X218440000Y-100965000D02*
X218440000Y-103505000D01*
D34*
X187960000Y-114106456D02*
X187960000Y-114710000D01*
X189036456Y-113030000D02*
X187960000Y-114106456D01*
X215264946Y-113030000D02*
X189036456Y-113030000D01*
D33*
X233680000Y-103505000D02*
X233680000Y-100965000D01*
D36*
X176530000Y-98425000D02*
X176530000Y-105410000D01*
X175895000Y-97790000D02*
X176530000Y-98425000D01*
X175895000Y-94615000D02*
X175895000Y-97790000D01*
X174625000Y-93345000D02*
X175895000Y-94615000D01*
X178435000Y-94615000D02*
X177165000Y-93345000D01*
X178435000Y-97790000D02*
X178435000Y-94615000D01*
X177800000Y-98425000D02*
X178435000Y-97790000D01*
X177800000Y-105410000D02*
X177800000Y-98425000D01*
X180905001Y-94545001D02*
X179705000Y-93345000D01*
X180905001Y-97859999D02*
X180905001Y-94545001D01*
X179070000Y-99695000D02*
X180905001Y-97859999D01*
X179070000Y-105410000D02*
X179070000Y-99695000D01*
X183515000Y-94615000D02*
X182245000Y-93345000D01*
X183515000Y-97790000D02*
X183515000Y-94615000D01*
X180340000Y-100965000D02*
X183515000Y-97790000D01*
X180340000Y-105410000D02*
X180340000Y-100965000D01*
X186055000Y-94615000D02*
X184785000Y-93345000D01*
X186055000Y-97790000D02*
X186055000Y-94615000D01*
X181610000Y-102235000D02*
X186055000Y-97790000D01*
X181610000Y-105410000D02*
X181610000Y-102235000D01*
X173355000Y-94615000D02*
X172085000Y-93345000D01*
X173355000Y-97790000D02*
X173355000Y-94615000D01*
X175260000Y-99695000D02*
X173355000Y-97790000D01*
X175260000Y-105410000D02*
X175260000Y-99695000D01*
X188595000Y-97790000D02*
X188595000Y-94615000D01*
X188595000Y-94615000D02*
X187325000Y-93345000D01*
X182880000Y-103505000D02*
X188595000Y-97790000D01*
X182880000Y-105410000D02*
X182880000Y-103505000D01*
X191135000Y-94615000D02*
X189865000Y-93345000D01*
X191135000Y-97790000D02*
X191135000Y-94615000D01*
X184150000Y-104775000D02*
X191135000Y-97790000D01*
X184150000Y-105410000D02*
X184150000Y-104775000D01*
X184150000Y-114710000D02*
X184150000Y-113030000D01*
X184150000Y-113030000D02*
X183515000Y-112395000D01*
X185420000Y-113030000D02*
X184785000Y-112395000D01*
X185420000Y-114710000D02*
X185420000Y-113030000D01*
X179070000Y-113030000D02*
X178435000Y-112395000D01*
X179070000Y-114710000D02*
X179070000Y-113030000D01*
X177800000Y-113029990D02*
X177165010Y-112395000D01*
X177800000Y-114710000D02*
X177800000Y-113029990D01*
X176530000Y-113030000D02*
X175895000Y-112395000D01*
X176530000Y-114710000D02*
X176530000Y-113030000D01*
X175260000Y-114710000D02*
X175260000Y-113030000D01*
X175260000Y-113030000D02*
X174625000Y-112395000D01*
X182880000Y-113030000D02*
X182245000Y-112395000D01*
X182880000Y-114710000D02*
X182880000Y-113030000D01*
D33*
X251460000Y-126365000D02*
X251460000Y-133350000D01*
D36*
X223520000Y-101340762D02*
X223520000Y-100589238D01*
D33*
X223520000Y-100965000D02*
X223520000Y-103505000D01*
X168275000Y-93345000D02*
X169545000Y-93345000D01*
X162560000Y-99060000D02*
X168275000Y-93345000D01*
X162560000Y-105410000D02*
X162560000Y-99060000D01*
D36*
X181610000Y-113030000D02*
X180975000Y-112395000D01*
X181610000Y-114710000D02*
X181610000Y-113030000D01*
X180340000Y-113030010D02*
X179704990Y-112395000D01*
X180340000Y-114710000D02*
X180340000Y-113030010D01*
M02*
