G04 #@! TF.GenerationSoftware,KiCad,Pcbnew,(5.1.10)-1*
G04 #@! TF.CreationDate,2021-08-30T10:02:13-04:00*
G04 #@! TF.ProjectId,schematics,73636865-6d61-4746-9963-732e6b696361,rev?*
G04 #@! TF.SameCoordinates,Original*
G04 #@! TF.FileFunction,Copper,L1,Top*
G04 #@! TF.FilePolarity,Positive*
%FSLAX46Y46*%
G04 Gerber Fmt 4.6, Leading zero omitted, Abs format (unit mm)*
G04 Created by KiCad (PCBNEW (5.1.10)-1) date 2021-08-30 10:02:13*
%MOMM*%
%LPD*%
G01*
G04 APERTURE LIST*
G04 #@! TA.AperFunction,ComponentPad*
%ADD10R,1.700000X1.700000*%
G04 #@! TD*
G04 #@! TA.AperFunction,ComponentPad*
%ADD11O,1.700000X1.700000*%
G04 #@! TD*
G04 #@! TA.AperFunction,ComponentPad*
%ADD12C,2.600000*%
G04 #@! TD*
G04 #@! TA.AperFunction,ComponentPad*
%ADD13O,1.905000X2.000000*%
G04 #@! TD*
G04 #@! TA.AperFunction,ComponentPad*
%ADD14R,1.905000X2.000000*%
G04 #@! TD*
G04 #@! TA.AperFunction,ComponentPad*
%ADD15C,6.400000*%
G04 #@! TD*
G04 #@! TA.AperFunction,ComponentPad*
%ADD16C,1.600000*%
G04 #@! TD*
G04 #@! TA.AperFunction,ComponentPad*
%ADD17O,1.600000X1.600000*%
G04 #@! TD*
G04 #@! TA.AperFunction,ComponentPad*
%ADD18O,2.200000X2.200000*%
G04 #@! TD*
G04 #@! TA.AperFunction,ComponentPad*
%ADD19R,2.200000X2.200000*%
G04 #@! TD*
G04 #@! TA.AperFunction,ComponentPad*
%ADD20O,1.270000X1.270000*%
G04 #@! TD*
G04 #@! TA.AperFunction,ComponentPad*
%ADD21C,3.000000*%
G04 #@! TD*
G04 #@! TA.AperFunction,ComponentPad*
%ADD22C,2.000000*%
G04 #@! TD*
G04 #@! TA.AperFunction,ComponentPad*
%ADD23R,3.500000X3.500000*%
G04 #@! TD*
G04 #@! TA.AperFunction,ComponentPad*
%ADD24R,1.524000X1.524000*%
G04 #@! TD*
G04 #@! TA.AperFunction,ComponentPad*
%ADD25C,1.524000*%
G04 #@! TD*
G04 #@! TA.AperFunction,ComponentPad*
%ADD26R,1.600000X1.600000*%
G04 #@! TD*
G04 #@! TA.AperFunction,ViaPad*
%ADD27C,0.800000*%
G04 #@! TD*
G04 #@! TA.AperFunction,Conductor*
%ADD28C,0.300000*%
G04 #@! TD*
G04 #@! TA.AperFunction,Conductor*
%ADD29C,1.000000*%
G04 #@! TD*
G04 #@! TA.AperFunction,Conductor*
%ADD30C,0.500000*%
G04 #@! TD*
G04 #@! TA.AperFunction,Conductor*
%ADD31C,0.700000*%
G04 #@! TD*
G04 APERTURE END LIST*
D10*
X241300000Y-93345000D03*
D11*
X203200000Y-93345000D03*
D10*
X200660000Y-93345000D03*
D12*
X181690000Y-146050000D03*
X186690000Y-146050000D03*
D13*
X211455000Y-143510000D03*
X213995000Y-143510000D03*
D14*
X216535000Y-143510000D03*
D15*
X161490000Y-81320000D03*
D16*
X248960000Y-129540000D03*
X251460000Y-129540000D03*
D17*
X182880000Y-123825000D03*
D16*
X172720000Y-123825000D03*
D17*
X218440000Y-93345000D03*
D16*
X208280000Y-93345000D03*
D18*
X167640000Y-149225000D03*
D19*
X167640000Y-139065000D03*
D18*
X182880000Y-139065000D03*
D19*
X172720000Y-139065000D03*
D18*
X240030000Y-139065000D03*
D19*
X229870000Y-139065000D03*
D18*
X241300000Y-133350000D03*
D19*
X251460000Y-133350000D03*
D11*
X172720000Y-57150000D03*
X170180000Y-57150000D03*
X172720000Y-59690000D03*
X170180000Y-59690000D03*
X172720000Y-62230000D03*
X170180000Y-62230000D03*
X172720000Y-64770000D03*
X170180000Y-64770000D03*
X172720000Y-67310000D03*
X170180000Y-67310000D03*
X172720000Y-69850000D03*
X170180000Y-69850000D03*
X172720000Y-72390000D03*
X170180000Y-72390000D03*
X172720000Y-74930000D03*
X170180000Y-74930000D03*
X172720000Y-77470000D03*
X170180000Y-77470000D03*
X172720000Y-80010000D03*
D10*
X170180000Y-80010000D03*
D20*
X188039035Y-70743820D03*
X186626308Y-69835910D03*
X185526595Y-68566765D03*
X184828987Y-67039204D03*
X184590001Y-65376982D03*
X184828997Y-63714760D03*
X185526615Y-62187204D03*
X186626336Y-60918066D03*
X188039069Y-60010164D03*
X189650361Y-59537051D03*
X191329676Y-59537057D03*
X192940965Y-60010180D03*
X194353692Y-60918090D03*
X195453405Y-62187235D03*
X196151013Y-63714796D03*
X196389999Y-65377018D03*
X196151003Y-67039240D03*
X195453385Y-68566796D03*
X194353664Y-69835934D03*
X192940931Y-70743836D03*
X191329639Y-71216949D03*
X189650324Y-71216943D03*
D11*
X167640000Y-92075000D03*
X167640000Y-94615000D03*
X170180000Y-92075000D03*
X170180000Y-94615000D03*
X172720000Y-92075000D03*
X172720000Y-94615000D03*
X175260000Y-92075000D03*
X175260000Y-94615000D03*
X177800000Y-92075000D03*
X177800000Y-94615000D03*
X180340000Y-92075000D03*
X180340000Y-94615000D03*
X182880000Y-92075000D03*
X182880000Y-94615000D03*
X185420000Y-92075000D03*
X185420000Y-94615000D03*
X187960000Y-92075000D03*
X187960000Y-94615000D03*
X190500000Y-92075000D03*
D10*
X190500000Y-94615000D03*
G04 #@! TA.AperFunction,SMDPad,CuDef*
G36*
G01*
X181175000Y-109540000D02*
X181175000Y-109340000D01*
G75*
G02*
X181275000Y-109240000I100000J0D01*
G01*
X182550000Y-109240000D01*
G75*
G02*
X182650000Y-109340000I0J-100000D01*
G01*
X182650000Y-109540000D01*
G75*
G02*
X182550000Y-109640000I-100000J0D01*
G01*
X181275000Y-109640000D01*
G75*
G02*
X181175000Y-109540000I0J100000D01*
G01*
G37*
G04 #@! TD.AperFunction*
G04 #@! TA.AperFunction,SMDPad,CuDef*
G36*
G01*
X181175000Y-110190000D02*
X181175000Y-109990000D01*
G75*
G02*
X181275000Y-109890000I100000J0D01*
G01*
X182550000Y-109890000D01*
G75*
G02*
X182650000Y-109990000I0J-100000D01*
G01*
X182650000Y-110190000D01*
G75*
G02*
X182550000Y-110290000I-100000J0D01*
G01*
X181275000Y-110290000D01*
G75*
G02*
X181175000Y-110190000I0J100000D01*
G01*
G37*
G04 #@! TD.AperFunction*
G04 #@! TA.AperFunction,SMDPad,CuDef*
G36*
G01*
X181175000Y-110840000D02*
X181175000Y-110640000D01*
G75*
G02*
X181275000Y-110540000I100000J0D01*
G01*
X182550000Y-110540000D01*
G75*
G02*
X182650000Y-110640000I0J-100000D01*
G01*
X182650000Y-110840000D01*
G75*
G02*
X182550000Y-110940000I-100000J0D01*
G01*
X181275000Y-110940000D01*
G75*
G02*
X181175000Y-110840000I0J100000D01*
G01*
G37*
G04 #@! TD.AperFunction*
G04 #@! TA.AperFunction,SMDPad,CuDef*
G36*
G01*
X181175000Y-111490000D02*
X181175000Y-111290000D01*
G75*
G02*
X181275000Y-111190000I100000J0D01*
G01*
X182550000Y-111190000D01*
G75*
G02*
X182650000Y-111290000I0J-100000D01*
G01*
X182650000Y-111490000D01*
G75*
G02*
X182550000Y-111590000I-100000J0D01*
G01*
X181275000Y-111590000D01*
G75*
G02*
X181175000Y-111490000I0J100000D01*
G01*
G37*
G04 #@! TD.AperFunction*
G04 #@! TA.AperFunction,SMDPad,CuDef*
G36*
G01*
X181175000Y-112140000D02*
X181175000Y-111940000D01*
G75*
G02*
X181275000Y-111840000I100000J0D01*
G01*
X182550000Y-111840000D01*
G75*
G02*
X182650000Y-111940000I0J-100000D01*
G01*
X182650000Y-112140000D01*
G75*
G02*
X182550000Y-112240000I-100000J0D01*
G01*
X181275000Y-112240000D01*
G75*
G02*
X181175000Y-112140000I0J100000D01*
G01*
G37*
G04 #@! TD.AperFunction*
G04 #@! TA.AperFunction,SMDPad,CuDef*
G36*
G01*
X181175000Y-112790000D02*
X181175000Y-112590000D01*
G75*
G02*
X181275000Y-112490000I100000J0D01*
G01*
X182550000Y-112490000D01*
G75*
G02*
X182650000Y-112590000I0J-100000D01*
G01*
X182650000Y-112790000D01*
G75*
G02*
X182550000Y-112890000I-100000J0D01*
G01*
X181275000Y-112890000D01*
G75*
G02*
X181175000Y-112790000I0J100000D01*
G01*
G37*
G04 #@! TD.AperFunction*
G04 #@! TA.AperFunction,SMDPad,CuDef*
G36*
G01*
X181175000Y-113440000D02*
X181175000Y-113240000D01*
G75*
G02*
X181275000Y-113140000I100000J0D01*
G01*
X182550000Y-113140000D01*
G75*
G02*
X182650000Y-113240000I0J-100000D01*
G01*
X182650000Y-113440000D01*
G75*
G02*
X182550000Y-113540000I-100000J0D01*
G01*
X181275000Y-113540000D01*
G75*
G02*
X181175000Y-113440000I0J100000D01*
G01*
G37*
G04 #@! TD.AperFunction*
G04 #@! TA.AperFunction,SMDPad,CuDef*
G36*
G01*
X181175000Y-114090000D02*
X181175000Y-113890000D01*
G75*
G02*
X181275000Y-113790000I100000J0D01*
G01*
X182550000Y-113790000D01*
G75*
G02*
X182650000Y-113890000I0J-100000D01*
G01*
X182650000Y-114090000D01*
G75*
G02*
X182550000Y-114190000I-100000J0D01*
G01*
X181275000Y-114190000D01*
G75*
G02*
X181175000Y-114090000I0J100000D01*
G01*
G37*
G04 #@! TD.AperFunction*
G04 #@! TA.AperFunction,SMDPad,CuDef*
G36*
G01*
X181175000Y-114740000D02*
X181175000Y-114540000D01*
G75*
G02*
X181275000Y-114440000I100000J0D01*
G01*
X182550000Y-114440000D01*
G75*
G02*
X182650000Y-114540000I0J-100000D01*
G01*
X182650000Y-114740000D01*
G75*
G02*
X182550000Y-114840000I-100000J0D01*
G01*
X181275000Y-114840000D01*
G75*
G02*
X181175000Y-114740000I0J100000D01*
G01*
G37*
G04 #@! TD.AperFunction*
G04 #@! TA.AperFunction,SMDPad,CuDef*
G36*
G01*
X181175000Y-115390000D02*
X181175000Y-115190000D01*
G75*
G02*
X181275000Y-115090000I100000J0D01*
G01*
X182550000Y-115090000D01*
G75*
G02*
X182650000Y-115190000I0J-100000D01*
G01*
X182650000Y-115390000D01*
G75*
G02*
X182550000Y-115490000I-100000J0D01*
G01*
X181275000Y-115490000D01*
G75*
G02*
X181175000Y-115390000I0J100000D01*
G01*
G37*
G04 #@! TD.AperFunction*
G04 #@! TA.AperFunction,SMDPad,CuDef*
G36*
G01*
X181175000Y-116040000D02*
X181175000Y-115840000D01*
G75*
G02*
X181275000Y-115740000I100000J0D01*
G01*
X182550000Y-115740000D01*
G75*
G02*
X182650000Y-115840000I0J-100000D01*
G01*
X182650000Y-116040000D01*
G75*
G02*
X182550000Y-116140000I-100000J0D01*
G01*
X181275000Y-116140000D01*
G75*
G02*
X181175000Y-116040000I0J100000D01*
G01*
G37*
G04 #@! TD.AperFunction*
G04 #@! TA.AperFunction,SMDPad,CuDef*
G36*
G01*
X181175000Y-116690000D02*
X181175000Y-116490000D01*
G75*
G02*
X181275000Y-116390000I100000J0D01*
G01*
X182550000Y-116390000D01*
G75*
G02*
X182650000Y-116490000I0J-100000D01*
G01*
X182650000Y-116690000D01*
G75*
G02*
X182550000Y-116790000I-100000J0D01*
G01*
X181275000Y-116790000D01*
G75*
G02*
X181175000Y-116690000I0J100000D01*
G01*
G37*
G04 #@! TD.AperFunction*
G04 #@! TA.AperFunction,SMDPad,CuDef*
G36*
G01*
X181175000Y-117340000D02*
X181175000Y-117140000D01*
G75*
G02*
X181275000Y-117040000I100000J0D01*
G01*
X182550000Y-117040000D01*
G75*
G02*
X182650000Y-117140000I0J-100000D01*
G01*
X182650000Y-117340000D01*
G75*
G02*
X182550000Y-117440000I-100000J0D01*
G01*
X181275000Y-117440000D01*
G75*
G02*
X181175000Y-117340000I0J100000D01*
G01*
G37*
G04 #@! TD.AperFunction*
G04 #@! TA.AperFunction,SMDPad,CuDef*
G36*
G01*
X181175000Y-117990000D02*
X181175000Y-117790000D01*
G75*
G02*
X181275000Y-117690000I100000J0D01*
G01*
X182550000Y-117690000D01*
G75*
G02*
X182650000Y-117790000I0J-100000D01*
G01*
X182650000Y-117990000D01*
G75*
G02*
X182550000Y-118090000I-100000J0D01*
G01*
X181275000Y-118090000D01*
G75*
G02*
X181175000Y-117990000I0J100000D01*
G01*
G37*
G04 #@! TD.AperFunction*
G04 #@! TA.AperFunction,SMDPad,CuDef*
G36*
G01*
X175450000Y-117990000D02*
X175450000Y-117790000D01*
G75*
G02*
X175550000Y-117690000I100000J0D01*
G01*
X176825000Y-117690000D01*
G75*
G02*
X176925000Y-117790000I0J-100000D01*
G01*
X176925000Y-117990000D01*
G75*
G02*
X176825000Y-118090000I-100000J0D01*
G01*
X175550000Y-118090000D01*
G75*
G02*
X175450000Y-117990000I0J100000D01*
G01*
G37*
G04 #@! TD.AperFunction*
G04 #@! TA.AperFunction,SMDPad,CuDef*
G36*
G01*
X175450000Y-117340000D02*
X175450000Y-117140000D01*
G75*
G02*
X175550000Y-117040000I100000J0D01*
G01*
X176825000Y-117040000D01*
G75*
G02*
X176925000Y-117140000I0J-100000D01*
G01*
X176925000Y-117340000D01*
G75*
G02*
X176825000Y-117440000I-100000J0D01*
G01*
X175550000Y-117440000D01*
G75*
G02*
X175450000Y-117340000I0J100000D01*
G01*
G37*
G04 #@! TD.AperFunction*
G04 #@! TA.AperFunction,SMDPad,CuDef*
G36*
G01*
X175450000Y-116690000D02*
X175450000Y-116490000D01*
G75*
G02*
X175550000Y-116390000I100000J0D01*
G01*
X176825000Y-116390000D01*
G75*
G02*
X176925000Y-116490000I0J-100000D01*
G01*
X176925000Y-116690000D01*
G75*
G02*
X176825000Y-116790000I-100000J0D01*
G01*
X175550000Y-116790000D01*
G75*
G02*
X175450000Y-116690000I0J100000D01*
G01*
G37*
G04 #@! TD.AperFunction*
G04 #@! TA.AperFunction,SMDPad,CuDef*
G36*
G01*
X175450000Y-116040000D02*
X175450000Y-115840000D01*
G75*
G02*
X175550000Y-115740000I100000J0D01*
G01*
X176825000Y-115740000D01*
G75*
G02*
X176925000Y-115840000I0J-100000D01*
G01*
X176925000Y-116040000D01*
G75*
G02*
X176825000Y-116140000I-100000J0D01*
G01*
X175550000Y-116140000D01*
G75*
G02*
X175450000Y-116040000I0J100000D01*
G01*
G37*
G04 #@! TD.AperFunction*
G04 #@! TA.AperFunction,SMDPad,CuDef*
G36*
G01*
X175450000Y-115390000D02*
X175450000Y-115190000D01*
G75*
G02*
X175550000Y-115090000I100000J0D01*
G01*
X176825000Y-115090000D01*
G75*
G02*
X176925000Y-115190000I0J-100000D01*
G01*
X176925000Y-115390000D01*
G75*
G02*
X176825000Y-115490000I-100000J0D01*
G01*
X175550000Y-115490000D01*
G75*
G02*
X175450000Y-115390000I0J100000D01*
G01*
G37*
G04 #@! TD.AperFunction*
G04 #@! TA.AperFunction,SMDPad,CuDef*
G36*
G01*
X175450000Y-114740000D02*
X175450000Y-114540000D01*
G75*
G02*
X175550000Y-114440000I100000J0D01*
G01*
X176825000Y-114440000D01*
G75*
G02*
X176925000Y-114540000I0J-100000D01*
G01*
X176925000Y-114740000D01*
G75*
G02*
X176825000Y-114840000I-100000J0D01*
G01*
X175550000Y-114840000D01*
G75*
G02*
X175450000Y-114740000I0J100000D01*
G01*
G37*
G04 #@! TD.AperFunction*
G04 #@! TA.AperFunction,SMDPad,CuDef*
G36*
G01*
X175450000Y-114090000D02*
X175450000Y-113890000D01*
G75*
G02*
X175550000Y-113790000I100000J0D01*
G01*
X176825000Y-113790000D01*
G75*
G02*
X176925000Y-113890000I0J-100000D01*
G01*
X176925000Y-114090000D01*
G75*
G02*
X176825000Y-114190000I-100000J0D01*
G01*
X175550000Y-114190000D01*
G75*
G02*
X175450000Y-114090000I0J100000D01*
G01*
G37*
G04 #@! TD.AperFunction*
G04 #@! TA.AperFunction,SMDPad,CuDef*
G36*
G01*
X175450000Y-113440000D02*
X175450000Y-113240000D01*
G75*
G02*
X175550000Y-113140000I100000J0D01*
G01*
X176825000Y-113140000D01*
G75*
G02*
X176925000Y-113240000I0J-100000D01*
G01*
X176925000Y-113440000D01*
G75*
G02*
X176825000Y-113540000I-100000J0D01*
G01*
X175550000Y-113540000D01*
G75*
G02*
X175450000Y-113440000I0J100000D01*
G01*
G37*
G04 #@! TD.AperFunction*
G04 #@! TA.AperFunction,SMDPad,CuDef*
G36*
G01*
X175450000Y-112790000D02*
X175450000Y-112590000D01*
G75*
G02*
X175550000Y-112490000I100000J0D01*
G01*
X176825000Y-112490000D01*
G75*
G02*
X176925000Y-112590000I0J-100000D01*
G01*
X176925000Y-112790000D01*
G75*
G02*
X176825000Y-112890000I-100000J0D01*
G01*
X175550000Y-112890000D01*
G75*
G02*
X175450000Y-112790000I0J100000D01*
G01*
G37*
G04 #@! TD.AperFunction*
G04 #@! TA.AperFunction,SMDPad,CuDef*
G36*
G01*
X175450000Y-112140000D02*
X175450000Y-111940000D01*
G75*
G02*
X175550000Y-111840000I100000J0D01*
G01*
X176825000Y-111840000D01*
G75*
G02*
X176925000Y-111940000I0J-100000D01*
G01*
X176925000Y-112140000D01*
G75*
G02*
X176825000Y-112240000I-100000J0D01*
G01*
X175550000Y-112240000D01*
G75*
G02*
X175450000Y-112140000I0J100000D01*
G01*
G37*
G04 #@! TD.AperFunction*
G04 #@! TA.AperFunction,SMDPad,CuDef*
G36*
G01*
X175450000Y-111490000D02*
X175450000Y-111290000D01*
G75*
G02*
X175550000Y-111190000I100000J0D01*
G01*
X176825000Y-111190000D01*
G75*
G02*
X176925000Y-111290000I0J-100000D01*
G01*
X176925000Y-111490000D01*
G75*
G02*
X176825000Y-111590000I-100000J0D01*
G01*
X175550000Y-111590000D01*
G75*
G02*
X175450000Y-111490000I0J100000D01*
G01*
G37*
G04 #@! TD.AperFunction*
G04 #@! TA.AperFunction,SMDPad,CuDef*
G36*
G01*
X175450000Y-110840000D02*
X175450000Y-110640000D01*
G75*
G02*
X175550000Y-110540000I100000J0D01*
G01*
X176825000Y-110540000D01*
G75*
G02*
X176925000Y-110640000I0J-100000D01*
G01*
X176925000Y-110840000D01*
G75*
G02*
X176825000Y-110940000I-100000J0D01*
G01*
X175550000Y-110940000D01*
G75*
G02*
X175450000Y-110840000I0J100000D01*
G01*
G37*
G04 #@! TD.AperFunction*
G04 #@! TA.AperFunction,SMDPad,CuDef*
G36*
G01*
X175450000Y-110190000D02*
X175450000Y-109990000D01*
G75*
G02*
X175550000Y-109890000I100000J0D01*
G01*
X176825000Y-109890000D01*
G75*
G02*
X176925000Y-109990000I0J-100000D01*
G01*
X176925000Y-110190000D01*
G75*
G02*
X176825000Y-110290000I-100000J0D01*
G01*
X175550000Y-110290000D01*
G75*
G02*
X175450000Y-110190000I0J100000D01*
G01*
G37*
G04 #@! TD.AperFunction*
G04 #@! TA.AperFunction,SMDPad,CuDef*
G36*
G01*
X175450000Y-109540000D02*
X175450000Y-109340000D01*
G75*
G02*
X175550000Y-109240000I100000J0D01*
G01*
X176825000Y-109240000D01*
G75*
G02*
X176925000Y-109340000I0J-100000D01*
G01*
X176925000Y-109540000D01*
G75*
G02*
X176825000Y-109640000I-100000J0D01*
G01*
X175550000Y-109640000D01*
G75*
G02*
X175450000Y-109540000I0J100000D01*
G01*
G37*
G04 #@! TD.AperFunction*
D21*
X211455000Y-135890000D03*
X244475000Y-139700000D03*
X177800000Y-132715000D03*
D15*
X248920000Y-147955000D03*
X160020000Y-147955000D03*
X160020000Y-94615000D03*
X248920000Y-94615000D03*
D22*
X229870000Y-149225000D03*
X229880000Y-144145000D03*
G04 #@! TA.AperFunction,ComponentPad*
G36*
G01*
X243065000Y-149705000D02*
X241315000Y-149705000D01*
G75*
G02*
X240440000Y-148830000I0J875000D01*
G01*
X240440000Y-147080000D01*
G75*
G02*
X241315000Y-146205000I875000J0D01*
G01*
X243065000Y-146205000D01*
G75*
G02*
X243940000Y-147080000I0J-875000D01*
G01*
X243940000Y-148830000D01*
G75*
G02*
X243065000Y-149705000I-875000J0D01*
G01*
G37*
G04 #@! TD.AperFunction*
G04 #@! TA.AperFunction,ComponentPad*
G36*
G01*
X238490000Y-152455000D02*
X236490000Y-152455000D01*
G75*
G02*
X235740000Y-151705000I0J750000D01*
G01*
X235740000Y-150205000D01*
G75*
G02*
X236490000Y-149455000I750000J0D01*
G01*
X238490000Y-149455000D01*
G75*
G02*
X239240000Y-150205000I0J-750000D01*
G01*
X239240000Y-151705000D01*
G75*
G02*
X238490000Y-152455000I-750000J0D01*
G01*
G37*
G04 #@! TD.AperFunction*
D23*
X237490000Y-144955000D03*
D24*
X220980000Y-100965000D03*
X205740000Y-100965000D03*
D25*
X210820000Y-100965000D03*
X218440000Y-100965000D03*
X208280000Y-100965000D03*
X223520000Y-100965000D03*
X215900000Y-100965000D03*
X213360000Y-100965000D03*
X226060000Y-100965000D03*
X228600000Y-100965000D03*
X236220000Y-100965000D03*
X241300000Y-100965000D03*
X238760000Y-100965000D03*
X233680000Y-100965000D03*
X231140000Y-100965000D03*
X251460000Y-100965000D03*
X248920000Y-100965000D03*
X246380000Y-100965000D03*
X243840000Y-100965000D03*
X251460000Y-126365000D03*
X248920000Y-126365000D03*
X246380000Y-126365000D03*
X243840000Y-126365000D03*
X241300000Y-126365000D03*
D24*
X238760000Y-126365000D03*
D25*
X236220000Y-126365000D03*
X233680000Y-126365000D03*
X231140000Y-126365000D03*
X228600000Y-126365000D03*
X226060000Y-126365000D03*
X223520000Y-126365000D03*
X220980000Y-126365000D03*
X218440000Y-126365000D03*
X215900000Y-126365000D03*
X213360000Y-126365000D03*
X210820000Y-126365000D03*
X208280000Y-126365000D03*
X205740000Y-126365000D03*
D17*
X188595000Y-131445000D03*
X191135000Y-139065000D03*
X191135000Y-131445000D03*
D26*
X188595000Y-139065000D03*
D16*
X172760000Y-120650000D03*
X175260000Y-120650000D03*
X173990000Y-146685000D03*
D26*
X173990000Y-144185000D03*
D16*
X194310000Y-147280000D03*
D26*
X194310000Y-144780000D03*
D16*
X185380000Y-120650000D03*
X182880000Y-120650000D03*
X202565000Y-147280000D03*
D26*
X202565000Y-144780000D03*
D16*
X222885000Y-149185000D03*
D26*
X222885000Y-146685000D03*
D16*
X224115000Y-143510000D03*
X221615000Y-143510000D03*
D27*
X179070000Y-111125000D03*
X203200000Y-97155000D03*
X200659990Y-97155000D03*
X213360000Y-117475000D03*
X208280000Y-112394964D03*
X217170000Y-117474990D03*
X208280000Y-108585000D03*
X187325000Y-114935000D03*
X186055000Y-114935000D03*
X184785000Y-114935000D03*
X169545000Y-114935000D03*
X170815000Y-114935000D03*
X172085000Y-114935000D03*
X173355000Y-114935000D03*
X188595000Y-114935000D03*
D28*
X179070000Y-111885000D02*
X179070000Y-111125000D01*
X181912500Y-113990000D02*
X181175000Y-113990000D01*
X181175000Y-113990000D02*
X179070000Y-111885000D01*
D29*
X232410000Y-136525000D02*
X229870000Y-139065000D01*
X241300000Y-136525000D02*
X232410000Y-136525000D01*
X244475000Y-139700000D02*
X241300000Y-136525000D01*
X193040000Y-146050000D02*
X194310000Y-144780000D01*
X186690000Y-146050000D02*
X193040000Y-146050000D01*
X220980000Y-139065000D02*
X216535000Y-143510000D01*
X229870000Y-139065000D02*
X220980000Y-139065000D01*
X216535000Y-143510000D02*
X221615000Y-143510000D01*
X219710000Y-143510000D02*
X222885000Y-146685000D01*
X216535000Y-143510000D02*
X219710000Y-143510000D01*
X210080278Y-149964722D02*
X216535000Y-143510000D01*
X190604722Y-149964722D02*
X210080278Y-149964722D01*
X186690000Y-146050000D02*
X190604722Y-149964722D01*
D28*
X178435000Y-114372122D02*
X178435000Y-119380000D01*
X177402878Y-113340000D02*
X178435000Y-114372122D01*
X178435000Y-119380000D02*
X179070000Y-120015000D01*
X176187500Y-113340000D02*
X177402878Y-113340000D01*
D30*
X182880000Y-120650000D02*
X179705000Y-120650000D01*
X182880000Y-123825000D02*
X179070000Y-120015000D01*
D29*
X221615000Y-133350000D02*
X241300000Y-133350000D01*
X211455000Y-143510000D02*
X221615000Y-133350000D01*
X211455000Y-143510000D02*
X211455000Y-135890000D01*
X203835000Y-143510000D02*
X202565000Y-144780000D01*
X211455000Y-143510000D02*
X203835000Y-143510000D01*
X172720000Y-139065000D02*
X167640000Y-139065000D01*
X172720000Y-142915000D02*
X173990000Y-144185000D01*
X172720000Y-139065000D02*
X172720000Y-142915000D01*
D31*
X177800000Y-133985000D02*
X172720000Y-139065000D01*
D30*
X177800000Y-120015000D02*
X177800000Y-133985000D01*
D28*
X177800000Y-114878586D02*
X177800000Y-120015000D01*
X176911414Y-113990000D02*
X177800000Y-114878586D01*
X176187500Y-113990000D02*
X176911414Y-113990000D01*
D30*
X177165000Y-120650000D02*
X175260000Y-120650000D01*
X177800000Y-120015000D02*
X177165000Y-120650000D01*
D29*
X237490000Y-139065000D02*
X240030000Y-139065000D01*
X232410000Y-144145000D02*
X237490000Y-139065000D01*
X229870000Y-144145000D02*
X232410000Y-144145000D01*
X181690000Y-140255000D02*
X182880000Y-139065000D01*
X181690000Y-146050000D02*
X181690000Y-140255000D01*
X182880000Y-139065000D02*
X188595000Y-139065000D01*
D28*
X171450000Y-78740000D02*
X170180000Y-80010000D01*
X180042855Y-78740000D02*
X171450000Y-78740000D01*
X188039035Y-70743820D02*
X180042855Y-78740000D01*
X180262218Y-76200000D02*
X186626308Y-69835910D01*
X171450000Y-76200000D02*
X180262218Y-76200000D01*
X170180000Y-77470000D02*
X171450000Y-76200000D01*
X180433360Y-73660000D02*
X185526595Y-68566765D01*
X171450000Y-73660000D02*
X180433360Y-73660000D01*
X170180000Y-74930000D02*
X171450000Y-73660000D01*
X180748191Y-71120000D02*
X184828987Y-67039204D01*
X171450000Y-71120000D02*
X180748191Y-71120000D01*
X170180000Y-72390000D02*
X171450000Y-71120000D01*
X181386983Y-68580000D02*
X184590001Y-65376982D01*
X171450000Y-68580000D02*
X181386983Y-68580000D01*
X170180000Y-69850000D02*
X171450000Y-68580000D01*
X171450000Y-66040000D02*
X170180000Y-67310000D01*
X182503757Y-66040000D02*
X171450000Y-66040000D01*
X184828997Y-63714760D02*
X182503757Y-66040000D01*
X183463137Y-63500000D02*
X171450000Y-63500000D01*
X184775933Y-62187204D02*
X183463137Y-63500000D01*
X171450000Y-63500000D02*
X170180000Y-64770000D01*
X185526615Y-62187204D02*
X184775933Y-62187204D01*
X171491934Y-60918066D02*
X186626336Y-60918066D01*
X170180000Y-62230000D02*
X171491934Y-60918066D01*
X171450000Y-58420000D02*
X170180000Y-59690000D01*
X186448905Y-58420000D02*
X171450000Y-58420000D01*
X188039069Y-60010164D02*
X186448905Y-58420000D01*
X187263310Y-57150000D02*
X172720000Y-57150000D01*
X189650361Y-59537051D02*
X187263310Y-57150000D01*
D29*
X233220000Y-149225000D02*
X237490000Y-144955000D01*
X229860000Y-149225000D02*
X233220000Y-149225000D01*
D31*
X200660000Y-129540000D02*
X191135000Y-139065000D01*
X217805000Y-129540000D02*
X200660000Y-129540000D01*
X220980000Y-126365000D02*
X217805000Y-129540000D01*
X203200000Y-93345000D02*
X203200000Y-97155000D01*
X203200000Y-93345000D02*
X208280000Y-93345000D01*
D28*
X200660000Y-97154990D02*
X200659990Y-97155000D01*
D31*
X200659990Y-93345010D02*
X200660000Y-93345000D01*
X200659990Y-97155000D02*
X200659990Y-93345010D01*
X243840000Y-95885000D02*
X241300000Y-93345000D01*
X243840000Y-100965000D02*
X243840000Y-95885000D01*
D28*
X223520000Y-101340762D02*
X223520000Y-100589238D01*
X176187500Y-112690000D02*
X177460000Y-112690000D01*
X177460000Y-112690000D02*
X179070000Y-114300000D01*
X179070000Y-114300000D02*
X179070000Y-118531458D01*
X179070000Y-118531458D02*
X179918542Y-119380000D01*
X179918542Y-119380000D02*
X207645000Y-119380000D01*
X207645000Y-119380000D02*
X223520000Y-103505000D01*
X223520000Y-103505000D02*
X223520000Y-100965000D01*
X226060000Y-104775000D02*
X213360000Y-117475000D01*
X226060000Y-100965000D02*
X226060000Y-104775000D01*
X183734352Y-112394964D02*
X208280000Y-112394964D01*
X182789316Y-113340000D02*
X183734352Y-112394964D01*
X181912500Y-113340000D02*
X182789316Y-113340000D01*
X228600000Y-106044990D02*
X217170000Y-117474990D01*
X228600000Y-100965000D02*
X228600000Y-106044990D01*
X186741414Y-108585000D02*
X208280000Y-108585000D01*
X182736404Y-112590010D02*
X186741414Y-108585000D01*
X182012490Y-112590010D02*
X182736404Y-112590010D01*
X181912500Y-112690000D02*
X182012490Y-112590010D01*
X218440000Y-104775000D02*
X218440000Y-100965000D01*
X181047120Y-118745000D02*
X204470000Y-118745000D01*
X179705000Y-117402880D02*
X181047120Y-118745000D01*
X179705000Y-116110000D02*
X179705000Y-117402880D01*
X181175000Y-114640000D02*
X179705000Y-116110000D01*
X204470000Y-118745000D02*
X218440000Y-104775000D01*
X181912500Y-114640000D02*
X181175000Y-114640000D01*
X171450000Y-93345000D02*
X172720000Y-92075000D01*
X171450000Y-107490654D02*
X171450000Y-93345000D01*
X175349346Y-111390000D02*
X171450000Y-107490654D01*
X176187500Y-111390000D02*
X175349346Y-111390000D01*
X173990000Y-93345000D02*
X175260000Y-92075000D01*
X173990000Y-109323534D02*
X173990000Y-93345000D01*
X175406466Y-110740000D02*
X173990000Y-109323534D01*
X176187500Y-110740000D02*
X175406466Y-110740000D01*
X176187500Y-110090000D02*
X175463586Y-110090000D01*
X176599999Y-93275001D02*
X177800000Y-92075000D01*
X176599999Y-106610001D02*
X176599999Y-93275001D01*
X174625000Y-108585000D02*
X176599999Y-106610001D01*
X174625000Y-109251414D02*
X174625000Y-108585000D01*
X175463586Y-110090000D02*
X174625000Y-109251414D01*
X179070000Y-93345000D02*
X180340000Y-92075000D01*
X179070000Y-106557500D02*
X179070000Y-93345000D01*
X176187500Y-109440000D02*
X179070000Y-106557500D01*
X181610000Y-93345000D02*
X182880000Y-92075000D01*
X181610000Y-109137500D02*
X181610000Y-93345000D01*
X181912500Y-109440000D02*
X181610000Y-109137500D01*
X175292226Y-112040000D02*
X176187500Y-112040000D01*
X168910000Y-105657774D02*
X175292226Y-112040000D01*
X168910000Y-93345000D02*
X168910000Y-105657774D01*
X170180000Y-92075000D02*
X168910000Y-93345000D01*
X184150000Y-93345000D02*
X185420000Y-92075000D01*
X184150000Y-108576414D02*
X184150000Y-93345000D01*
X182636414Y-110090000D02*
X184150000Y-108576414D01*
X181912500Y-110090000D02*
X182636414Y-110090000D01*
X186690000Y-93345000D02*
X187960000Y-92075000D01*
X186690000Y-106743534D02*
X186690000Y-93345000D01*
X182693534Y-110740000D02*
X186690000Y-106743534D01*
X181912500Y-110740000D02*
X182693534Y-110740000D01*
X189230000Y-104910654D02*
X189230000Y-93345000D01*
X189230000Y-93345000D02*
X190500000Y-92075000D01*
X182750654Y-111390000D02*
X189230000Y-104910654D01*
X181912500Y-111390000D02*
X182750654Y-111390000D01*
X185670000Y-116590000D02*
X187325000Y-114935000D01*
X181912500Y-116590000D02*
X185670000Y-116590000D01*
X185895002Y-114935000D02*
X186055000Y-114935000D01*
X184890002Y-115940000D02*
X185895002Y-114935000D01*
X181912500Y-115940000D02*
X184890002Y-115940000D01*
X184430000Y-115290000D02*
X184785000Y-114935000D01*
X181912500Y-115290000D02*
X184430000Y-115290000D01*
X171850000Y-117240000D02*
X169545000Y-114935000D01*
X176187500Y-117240000D02*
X171850000Y-117240000D01*
X172470000Y-116590000D02*
X170815000Y-114935000D01*
X176187500Y-116590000D02*
X172470000Y-116590000D01*
X173090000Y-115940000D02*
X172085000Y-114935000D01*
X176187500Y-115940000D02*
X173090000Y-115940000D01*
X173710000Y-115290000D02*
X173355000Y-114935000D01*
X176187500Y-115290000D02*
X173710000Y-115290000D01*
X186290000Y-117240000D02*
X188595000Y-114935000D01*
X181912500Y-117240000D02*
X186290000Y-117240000D01*
X180857267Y-80010000D02*
X189650324Y-71216943D01*
X172720000Y-80010000D02*
X180857267Y-80010000D01*
D29*
X172720000Y-123825000D02*
X170815000Y-123825000D01*
X167640000Y-120650000D02*
X167640000Y-94615000D01*
X170815000Y-123825000D02*
X167640000Y-120650000D01*
X251460000Y-126365000D02*
X251460000Y-133350000D01*
M02*
