M48
; DRILL file {KiCad (5.1.10)-1} date 08/30/21 10:02:10
; FORMAT={-:-/ absolute / metric / decimal}
; #@! TF.CreationDate,2021-08-30T10:02:10-04:00
; #@! TF.GenerationSoftware,Kicad,Pcbnew,(5.1.10)-1
FMAT,2
METRIC
T1C0.400
T2C0.762
T3C0.800
T4C1.000
T5C1.100
T6C1.300
T7C2.000
T8C3.200
%
G90
G05
T1
X169.545Y-114.935
X170.815Y-114.935
X172.085Y-114.935
X173.355Y-114.935
X179.07Y-111.125
X184.785Y-114.935
X186.055Y-114.935
X187.325Y-114.935
X188.595Y-114.935
X200.66Y-97.155
X203.2Y-97.155
X208.28Y-108.585
X208.28Y-112.395
X213.36Y-117.475
X217.17Y-117.475
T2
X205.74Y-100.965
X205.74Y-126.365
X208.28Y-100.965
X208.28Y-126.365
X210.82Y-100.965
X210.82Y-126.365
X213.36Y-100.965
X213.36Y-126.365
X215.9Y-100.965
X215.9Y-126.365
X218.44Y-100.965
X218.44Y-126.365
X220.98Y-100.965
X220.98Y-126.365
X223.52Y-100.965
X223.52Y-126.365
X226.06Y-100.965
X226.06Y-126.365
X228.6Y-100.965
X228.6Y-126.365
X231.14Y-100.965
X231.14Y-126.365
X233.68Y-100.965
X233.68Y-126.365
X236.22Y-100.965
X236.22Y-126.365
X238.76Y-100.965
X238.76Y-126.365
X241.3Y-100.965
X241.3Y-126.365
X243.84Y-100.965
X243.84Y-126.365
X246.38Y-100.965
X246.38Y-126.365
X248.92Y-100.965
X248.92Y-126.365
X251.46Y-100.965
X251.46Y-126.365
T3
X172.72Y-123.825
X172.76Y-120.65
X173.99Y-144.185
X173.99Y-146.685
X175.26Y-120.65
X182.88Y-120.65
X182.88Y-123.825
X184.59Y-65.377
X184.829Y-67.039
X184.829Y-63.715
X185.38Y-120.65
X185.527Y-68.567
X185.527Y-62.187
X186.626Y-69.836
X186.626Y-60.918
X188.039Y-70.744
X188.039Y-60.01
X188.595Y-131.445
X188.595Y-139.065
X189.65Y-71.217
X189.65Y-59.537
X191.135Y-131.445
X191.135Y-139.065
X191.33Y-71.217
X191.33Y-59.537
X192.941Y-70.744
X192.941Y-60.01
X194.31Y-144.78
X194.31Y-147.28
X194.354Y-69.836
X194.354Y-60.918
X195.453Y-68.567
X195.453Y-62.187
X196.151Y-67.039
X196.151Y-63.715
X196.39Y-65.377
X202.565Y-144.78
X202.565Y-147.28
X208.28Y-93.345
X218.44Y-93.345
X221.615Y-143.51
X222.885Y-146.685
X222.885Y-149.185
X224.115Y-143.51
X248.96Y-129.54
X251.46Y-129.54
T4
X167.64Y-92.075
X167.64Y-94.615
X170.18Y-57.15
X170.18Y-59.69
X170.18Y-62.23
X170.18Y-64.77
X170.18Y-67.31
X170.18Y-69.85
X170.18Y-72.39
X170.18Y-74.93
X170.18Y-77.47
X170.18Y-80.01
X170.18Y-92.075
X170.18Y-94.615
X172.72Y-57.15
X172.72Y-59.69
X172.72Y-62.23
X172.72Y-64.77
X172.72Y-67.31
X172.72Y-69.85
X172.72Y-72.39
X172.72Y-74.93
X172.72Y-77.47
X172.72Y-80.01
X172.72Y-92.075
X172.72Y-94.615
X175.26Y-92.075
X175.26Y-94.615
X177.8Y-92.075
X177.8Y-94.615
X180.34Y-92.075
X180.34Y-94.615
X182.88Y-92.075
X182.88Y-94.615
X185.42Y-92.075
X185.42Y-94.615
X187.96Y-92.075
X187.96Y-94.615
X190.5Y-92.075
X190.5Y-94.615
X200.66Y-93.345
X203.2Y-93.345
X229.87Y-149.225
X229.88Y-144.145
X241.3Y-93.345
T5
X167.64Y-139.065
X167.64Y-149.225
X172.72Y-139.065
X182.88Y-139.065
X211.455Y-143.51
X213.995Y-143.51
X216.535Y-143.51
X229.87Y-139.065
X240.03Y-139.065
X241.3Y-133.35
X251.46Y-133.35
T6
X181.69Y-146.05
X186.69Y-146.05
T7
X177.8Y-132.715
X211.455Y-135.89
X244.475Y-139.7
T8
X160.02Y-94.615
X160.02Y-147.955
X161.49Y-81.32
X248.92Y-94.615
X248.92Y-147.955
T4
X236.49Y-144.955G85X238.49Y-144.955
G05
X236.49Y-150.955G85X238.49Y-150.955
G05
X242.19Y-148.955G85X242.19Y-146.955
G05
T0
M30
