G04 #@! TF.GenerationSoftware,KiCad,Pcbnew,(5.1.10)-1*
G04 #@! TF.CreationDate,2021-09-26T16:33:56-04:00*
G04 #@! TF.ProjectId,schematics_main,73636865-6d61-4746-9963-735f6d61696e,rev?*
G04 #@! TF.SameCoordinates,Original*
G04 #@! TF.FileFunction,Legend,Top*
G04 #@! TF.FilePolarity,Positive*
%FSLAX46Y46*%
G04 Gerber Fmt 4.6, Leading zero omitted, Abs format (unit mm)*
G04 Created by KiCad (PCBNEW (5.1.10)-1) date 2021-09-26 16:33:56*
%MOMM*%
%LPD*%
G01*
G04 APERTURE LIST*
%ADD10C,0.150000*%
%ADD11C,0.300000*%
%ADD12C,0.120000*%
%ADD13R,1.524000X1.524000*%
%ADD14C,1.524000*%
%ADD15R,1.800000X1.800000*%
%ADD16O,1.800000X1.800000*%
%ADD17R,1.800000X2.800000*%
%ADD18R,1.700000X1.700000*%
%ADD19O,1.700000X1.700000*%
%ADD20C,2.600000*%
%ADD21O,1.905000X2.000000*%
%ADD22R,1.905000X2.000000*%
%ADD23C,1.600000*%
%ADD24O,1.600000X1.600000*%
%ADD25O,2.200000X2.200000*%
%ADD26R,2.200000X2.200000*%
%ADD27C,3.000000*%
%ADD28C,6.400000*%
%ADD29C,2.000000*%
%ADD30R,3.500000X3.500000*%
%ADD31R,1.600000X1.600000*%
G04 APERTURE END LIST*
D10*
X157742380Y-139215000D02*
X156742380Y-139215000D01*
X157218571Y-139215000D02*
X157218571Y-138643571D01*
X157742380Y-138643571D02*
X156742380Y-138643571D01*
X157742380Y-138167380D02*
X157075714Y-138167380D01*
X156742380Y-138167380D02*
X156790000Y-138215000D01*
X156837619Y-138167380D01*
X156790000Y-138119761D01*
X156742380Y-138167380D01*
X156837619Y-138167380D01*
X157742380Y-137691190D02*
X157075714Y-137691190D01*
X157266190Y-137691190D02*
X157170952Y-137643571D01*
X157123333Y-137595952D01*
X157075714Y-137500714D01*
X157075714Y-137405476D01*
X157742380Y-136929285D02*
X157694761Y-137024523D01*
X157647142Y-137072142D01*
X157551904Y-137119761D01*
X157266190Y-137119761D01*
X157170952Y-137072142D01*
X157123333Y-137024523D01*
X157075714Y-136929285D01*
X157075714Y-136786428D01*
X157123333Y-136691190D01*
X157170952Y-136643571D01*
X157266190Y-136595952D01*
X157551904Y-136595952D01*
X157647142Y-136643571D01*
X157694761Y-136691190D01*
X157742380Y-136786428D01*
X157742380Y-136929285D01*
X157075714Y-136310238D02*
X157075714Y-135929285D01*
X156742380Y-136167380D02*
X157599523Y-136167380D01*
X157694761Y-136119761D01*
X157742380Y-136024523D01*
X157742380Y-135929285D01*
X157742380Y-135453095D02*
X157694761Y-135548333D01*
X157647142Y-135595952D01*
X157551904Y-135643571D01*
X157266190Y-135643571D01*
X157170952Y-135595952D01*
X157123333Y-135548333D01*
X157075714Y-135453095D01*
X157075714Y-135310238D01*
X157123333Y-135215000D01*
X157170952Y-135167380D01*
X157266190Y-135119761D01*
X157551904Y-135119761D01*
X157647142Y-135167380D01*
X157694761Y-135215000D01*
X157742380Y-135310238D01*
X157742380Y-135453095D01*
X157742380Y-133929285D02*
X156742380Y-133929285D01*
X157742380Y-133357857D02*
X157170952Y-133786428D01*
X156742380Y-133357857D02*
X157313809Y-133929285D01*
X157742380Y-132500714D02*
X157218571Y-132500714D01*
X157123333Y-132548333D01*
X157075714Y-132643571D01*
X157075714Y-132834047D01*
X157123333Y-132929285D01*
X157694761Y-132500714D02*
X157742380Y-132595952D01*
X157742380Y-132834047D01*
X157694761Y-132929285D01*
X157599523Y-132976904D01*
X157504285Y-132976904D01*
X157409047Y-132929285D01*
X157361428Y-132834047D01*
X157361428Y-132595952D01*
X157313809Y-132500714D01*
X157742380Y-132024523D02*
X156742380Y-132024523D01*
X157361428Y-131929285D02*
X157742380Y-131643571D01*
X157075714Y-131643571D02*
X157456666Y-132024523D01*
X157075714Y-130786428D02*
X157742380Y-130786428D01*
X157075714Y-131215000D02*
X157599523Y-131215000D01*
X157694761Y-131167380D01*
X157742380Y-131072142D01*
X157742380Y-130929285D01*
X157694761Y-130834047D01*
X157647142Y-130786428D01*
X156837619Y-129595952D02*
X156790000Y-129548333D01*
X156742380Y-129453095D01*
X156742380Y-129215000D01*
X156790000Y-129119761D01*
X156837619Y-129072142D01*
X156932857Y-129024523D01*
X157028095Y-129024523D01*
X157170952Y-129072142D01*
X157742380Y-129643571D01*
X157742380Y-129024523D01*
X156742380Y-128405476D02*
X156742380Y-128310238D01*
X156790000Y-128215000D01*
X156837619Y-128167380D01*
X156932857Y-128119761D01*
X157123333Y-128072142D01*
X157361428Y-128072142D01*
X157551904Y-128119761D01*
X157647142Y-128167380D01*
X157694761Y-128215000D01*
X157742380Y-128310238D01*
X157742380Y-128405476D01*
X157694761Y-128500714D01*
X157647142Y-128548333D01*
X157551904Y-128595952D01*
X157361428Y-128643571D01*
X157123333Y-128643571D01*
X156932857Y-128595952D01*
X156837619Y-128548333D01*
X156790000Y-128500714D01*
X156742380Y-128405476D01*
X156837619Y-127691190D02*
X156790000Y-127643571D01*
X156742380Y-127548333D01*
X156742380Y-127310238D01*
X156790000Y-127215000D01*
X156837619Y-127167380D01*
X156932857Y-127119761D01*
X157028095Y-127119761D01*
X157170952Y-127167380D01*
X157742380Y-127738809D01*
X157742380Y-127119761D01*
X157742380Y-126167380D02*
X157742380Y-126738809D01*
X157742380Y-126453095D02*
X156742380Y-126453095D01*
X156885238Y-126548333D01*
X156980476Y-126643571D01*
X157028095Y-126738809D01*
X159297142Y-139738809D02*
X159344761Y-139786428D01*
X159392380Y-139929285D01*
X159392380Y-140024523D01*
X159344761Y-140167380D01*
X159249523Y-140262619D01*
X159154285Y-140310238D01*
X158963809Y-140357857D01*
X158820952Y-140357857D01*
X158630476Y-140310238D01*
X158535238Y-140262619D01*
X158440000Y-140167380D01*
X158392380Y-140024523D01*
X158392380Y-139929285D01*
X158440000Y-139786428D01*
X158487619Y-139738809D01*
X159392380Y-138881666D02*
X158868571Y-138881666D01*
X158773333Y-138929285D01*
X158725714Y-139024523D01*
X158725714Y-139215000D01*
X158773333Y-139310238D01*
X159344761Y-138881666D02*
X159392380Y-138976904D01*
X159392380Y-139215000D01*
X159344761Y-139310238D01*
X159249523Y-139357857D01*
X159154285Y-139357857D01*
X159059047Y-139310238D01*
X159011428Y-139215000D01*
X159011428Y-138976904D01*
X158963809Y-138881666D01*
X159392380Y-138262619D02*
X159344761Y-138357857D01*
X159249523Y-138405476D01*
X158392380Y-138405476D01*
X159392380Y-137738809D02*
X159344761Y-137834047D01*
X159249523Y-137881666D01*
X158392380Y-137881666D01*
X159392380Y-137357857D02*
X158725714Y-137357857D01*
X158392380Y-137357857D02*
X158440000Y-137405476D01*
X158487619Y-137357857D01*
X158440000Y-137310238D01*
X158392380Y-137357857D01*
X158487619Y-137357857D01*
X159344761Y-136929285D02*
X159392380Y-136834047D01*
X159392380Y-136643571D01*
X159344761Y-136548333D01*
X159249523Y-136500714D01*
X159201904Y-136500714D01*
X159106666Y-136548333D01*
X159059047Y-136643571D01*
X159059047Y-136786428D01*
X159011428Y-136881666D01*
X158916190Y-136929285D01*
X158868571Y-136929285D01*
X158773333Y-136881666D01*
X158725714Y-136786428D01*
X158725714Y-136643571D01*
X158773333Y-136548333D01*
X158725714Y-136215000D02*
X158725714Y-135834047D01*
X158392380Y-136072142D02*
X159249523Y-136072142D01*
X159344761Y-136024523D01*
X159392380Y-135929285D01*
X159392380Y-135834047D01*
X159392380Y-135357857D02*
X159344761Y-135453095D01*
X159297142Y-135500714D01*
X159201904Y-135548333D01*
X158916190Y-135548333D01*
X158820952Y-135500714D01*
X158773333Y-135453095D01*
X158725714Y-135357857D01*
X158725714Y-135215000D01*
X158773333Y-135119761D01*
X158820952Y-135072142D01*
X158916190Y-135024523D01*
X159201904Y-135024523D01*
X159297142Y-135072142D01*
X159344761Y-135119761D01*
X159392380Y-135215000D01*
X159392380Y-135357857D01*
X159011428Y-133834047D02*
X159011428Y-133072142D01*
X159392380Y-131834047D02*
X158392380Y-131834047D01*
X159106666Y-131500714D01*
X158392380Y-131167380D01*
X159392380Y-131167380D01*
X159392380Y-130262619D02*
X158868571Y-130262619D01*
X158773333Y-130310238D01*
X158725714Y-130405476D01*
X158725714Y-130595952D01*
X158773333Y-130691190D01*
X159344761Y-130262619D02*
X159392380Y-130357857D01*
X159392380Y-130595952D01*
X159344761Y-130691190D01*
X159249523Y-130738809D01*
X159154285Y-130738809D01*
X159059047Y-130691190D01*
X159011428Y-130595952D01*
X159011428Y-130357857D01*
X158963809Y-130262619D01*
X159392380Y-129786428D02*
X158725714Y-129786428D01*
X158392380Y-129786428D02*
X158440000Y-129834047D01*
X158487619Y-129786428D01*
X158440000Y-129738809D01*
X158392380Y-129786428D01*
X158487619Y-129786428D01*
X158725714Y-129310238D02*
X159392380Y-129310238D01*
X158820952Y-129310238D02*
X158773333Y-129262619D01*
X158725714Y-129167380D01*
X158725714Y-129024523D01*
X158773333Y-128929285D01*
X158868571Y-128881666D01*
X159392380Y-128881666D01*
X159392380Y-127643571D02*
X158392380Y-127643571D01*
X158392380Y-127262619D01*
X158440000Y-127167380D01*
X158487619Y-127119761D01*
X158582857Y-127072142D01*
X158725714Y-127072142D01*
X158820952Y-127119761D01*
X158868571Y-127167380D01*
X158916190Y-127262619D01*
X158916190Y-127643571D01*
X159297142Y-126072142D02*
X159344761Y-126119761D01*
X159392380Y-126262619D01*
X159392380Y-126357857D01*
X159344761Y-126500714D01*
X159249523Y-126595952D01*
X159154285Y-126643571D01*
X158963809Y-126691190D01*
X158820952Y-126691190D01*
X158630476Y-126643571D01*
X158535238Y-126595952D01*
X158440000Y-126500714D01*
X158392380Y-126357857D01*
X158392380Y-126262619D01*
X158440000Y-126119761D01*
X158487619Y-126072142D01*
X158868571Y-125310238D02*
X158916190Y-125167380D01*
X158963809Y-125119761D01*
X159059047Y-125072142D01*
X159201904Y-125072142D01*
X159297142Y-125119761D01*
X159344761Y-125167380D01*
X159392380Y-125262619D01*
X159392380Y-125643571D01*
X158392380Y-125643571D01*
X158392380Y-125310238D01*
X158440000Y-125215000D01*
X158487619Y-125167380D01*
X158582857Y-125119761D01*
X158678095Y-125119761D01*
X158773333Y-125167380D01*
X158820952Y-125215000D01*
X158868571Y-125310238D01*
X158868571Y-125643571D01*
D11*
X246614285Y-140378571D02*
X246900000Y-140378571D01*
X247042857Y-140307142D01*
X247114285Y-140235714D01*
X247257142Y-140021428D01*
X247328571Y-139735714D01*
X247328571Y-139164285D01*
X247257142Y-139021428D01*
X247185714Y-138950000D01*
X247042857Y-138878571D01*
X246757142Y-138878571D01*
X246614285Y-138950000D01*
X246542857Y-139021428D01*
X246471428Y-139164285D01*
X246471428Y-139521428D01*
X246542857Y-139664285D01*
X246614285Y-139735714D01*
X246757142Y-139807142D01*
X247042857Y-139807142D01*
X247185714Y-139735714D01*
X247257142Y-139664285D01*
X247328571Y-139521428D01*
X247757142Y-138878571D02*
X248257142Y-140378571D01*
X248757142Y-138878571D01*
X249257142Y-140378571D02*
X249257142Y-138878571D01*
X249614285Y-138878571D01*
X249828571Y-138950000D01*
X249971428Y-139092857D01*
X250042857Y-139235714D01*
X250114285Y-139521428D01*
X250114285Y-139735714D01*
X250042857Y-140021428D01*
X249971428Y-140164285D01*
X249828571Y-140307142D01*
X249614285Y-140378571D01*
X249257142Y-140378571D01*
X251614285Y-140235714D02*
X251542857Y-140307142D01*
X251328571Y-140378571D01*
X251185714Y-140378571D01*
X250971428Y-140307142D01*
X250828571Y-140164285D01*
X250757142Y-140021428D01*
X250685714Y-139735714D01*
X250685714Y-139521428D01*
X250757142Y-139235714D01*
X250828571Y-139092857D01*
X250971428Y-138950000D01*
X251185714Y-138878571D01*
X251328571Y-138878571D01*
X251542857Y-138950000D01*
X251614285Y-139021428D01*
X165207142Y-129988571D02*
X165707142Y-131488571D01*
X166207142Y-129988571D01*
X167207142Y-130702857D02*
X167421428Y-130774285D01*
X167492857Y-130845714D01*
X167564285Y-130988571D01*
X167564285Y-131202857D01*
X167492857Y-131345714D01*
X167421428Y-131417142D01*
X167278571Y-131488571D01*
X166707142Y-131488571D01*
X166707142Y-129988571D01*
X167207142Y-129988571D01*
X167350000Y-130060000D01*
X167421428Y-130131428D01*
X167492857Y-130274285D01*
X167492857Y-130417142D01*
X167421428Y-130560000D01*
X167350000Y-130631428D01*
X167207142Y-130702857D01*
X166707142Y-130702857D01*
X168707142Y-130702857D02*
X168921428Y-130774285D01*
X168992857Y-130845714D01*
X169064285Y-130988571D01*
X169064285Y-131202857D01*
X168992857Y-131345714D01*
X168921428Y-131417142D01*
X168778571Y-131488571D01*
X168207142Y-131488571D01*
X168207142Y-129988571D01*
X168707142Y-129988571D01*
X168850000Y-130060000D01*
X168921428Y-130131428D01*
X168992857Y-130274285D01*
X168992857Y-130417142D01*
X168921428Y-130560000D01*
X168850000Y-130631428D01*
X168707142Y-130702857D01*
X168207142Y-130702857D01*
X202470000Y-129348571D02*
X202970000Y-130848571D01*
X203470000Y-129348571D01*
X204827142Y-130705714D02*
X204755714Y-130777142D01*
X204541428Y-130848571D01*
X204398571Y-130848571D01*
X204184285Y-130777142D01*
X204041428Y-130634285D01*
X203970000Y-130491428D01*
X203898571Y-130205714D01*
X203898571Y-129991428D01*
X203970000Y-129705714D01*
X204041428Y-129562857D01*
X204184285Y-129420000D01*
X204398571Y-129348571D01*
X204541428Y-129348571D01*
X204755714Y-129420000D01*
X204827142Y-129491428D01*
X206327142Y-130705714D02*
X206255714Y-130777142D01*
X206041428Y-130848571D01*
X205898571Y-130848571D01*
X205684285Y-130777142D01*
X205541428Y-130634285D01*
X205470000Y-130491428D01*
X205398571Y-130205714D01*
X205398571Y-129991428D01*
X205470000Y-129705714D01*
X205541428Y-129562857D01*
X205684285Y-129420000D01*
X205898571Y-129348571D01*
X206041428Y-129348571D01*
X206255714Y-129420000D01*
X206327142Y-129491428D01*
X201398571Y-133970000D02*
X201327142Y-133898571D01*
X201184285Y-133684285D01*
X201112857Y-133541428D01*
X201041428Y-133327142D01*
X200970000Y-132970000D01*
X200970000Y-132684285D01*
X201041428Y-132327142D01*
X201112857Y-132112857D01*
X201184285Y-131970000D01*
X201327142Y-131755714D01*
X201398571Y-131684285D01*
X202684285Y-131898571D02*
X201970000Y-131898571D01*
X201898571Y-132612857D01*
X201970000Y-132541428D01*
X202112857Y-132470000D01*
X202470000Y-132470000D01*
X202612857Y-132541428D01*
X202684285Y-132612857D01*
X202755714Y-132755714D01*
X202755714Y-133112857D01*
X202684285Y-133255714D01*
X202612857Y-133327142D01*
X202470000Y-133398571D01*
X202112857Y-133398571D01*
X201970000Y-133327142D01*
X201898571Y-133255714D01*
X203184285Y-131898571D02*
X203684285Y-133398571D01*
X204184285Y-131898571D01*
X204684285Y-133398571D02*
X204684285Y-131898571D01*
X205041428Y-131898571D01*
X205255714Y-131970000D01*
X205398571Y-132112857D01*
X205470000Y-132255714D01*
X205541428Y-132541428D01*
X205541428Y-132755714D01*
X205470000Y-133041428D01*
X205398571Y-133184285D01*
X205255714Y-133327142D01*
X205041428Y-133398571D01*
X204684285Y-133398571D01*
X207041428Y-133255714D02*
X206970000Y-133327142D01*
X206755714Y-133398571D01*
X206612857Y-133398571D01*
X206398571Y-133327142D01*
X206255714Y-133184285D01*
X206184285Y-133041428D01*
X206112857Y-132755714D01*
X206112857Y-132541428D01*
X206184285Y-132255714D01*
X206255714Y-132112857D01*
X206398571Y-131970000D01*
X206612857Y-131898571D01*
X206755714Y-131898571D01*
X206970000Y-131970000D01*
X207041428Y-132041428D01*
X207541428Y-133970000D02*
X207612857Y-133898571D01*
X207755714Y-133684285D01*
X207827142Y-133541428D01*
X207898571Y-133327142D01*
X207970000Y-132970000D01*
X207970000Y-132684285D01*
X207898571Y-132327142D01*
X207827142Y-132112857D01*
X207755714Y-131970000D01*
X207612857Y-131755714D01*
X207541428Y-131684285D01*
D12*
X198300000Y-105915000D02*
X198300000Y-121415000D01*
X204500000Y-105915000D02*
X198300000Y-105915000D01*
X204500000Y-99715000D02*
X204500000Y-105915000D01*
X252700000Y-99715000D02*
X204500000Y-99715000D01*
X252700000Y-127615000D02*
X252700000Y-99715000D01*
X204500000Y-127615000D02*
X252700000Y-127615000D01*
X204500000Y-121415000D02*
X204500000Y-127615000D01*
X198300000Y-121415000D02*
X204500000Y-121415000D01*
X196325000Y-130115000D02*
X194675000Y-130115000D01*
X196325000Y-135315000D02*
X196325000Y-130115000D01*
X191025000Y-135315000D02*
X196325000Y-135315000D01*
X191025000Y-130115000D02*
X191025000Y-135315000D01*
X192675000Y-130115000D02*
X191025000Y-130115000D01*
X191265000Y-130145000D02*
X191265000Y-135245000D01*
X191175000Y-130115000D02*
X191175000Y-135315000D01*
X191075000Y-135315000D02*
X191075000Y-130115000D01*
X191375000Y-130115000D02*
X191375000Y-135315000D01*
X191475000Y-135315000D02*
X191475000Y-130115000D01*
X194675000Y-130115000D02*
G75*
G02*
X192675000Y-130115000I-1000000J0D01*
G01*
X239970000Y-94675000D02*
X242630000Y-94675000D01*
X239970000Y-94615000D02*
X239970000Y-94675000D01*
X242630000Y-94615000D02*
X242630000Y-94675000D01*
X239970000Y-94615000D02*
X242630000Y-94615000D01*
X239970000Y-93345000D02*
X239970000Y-92015000D01*
X239970000Y-92015000D02*
X241300000Y-92015000D01*
X204530000Y-94675000D02*
X204530000Y-92015000D01*
X201930000Y-94675000D02*
X204530000Y-94675000D01*
X201930000Y-92015000D02*
X204530000Y-92015000D01*
X201930000Y-94675000D02*
X201930000Y-92015000D01*
X200660000Y-94675000D02*
X199330000Y-94675000D01*
X199330000Y-94675000D02*
X199330000Y-93345000D01*
X189060000Y-146050000D02*
G75*
G03*
X189060000Y-146050000I-4870000J0D01*
G01*
X214670000Y-146780000D02*
X204430000Y-146780000D01*
X214670000Y-142139000D02*
X204430000Y-142139000D01*
X214670000Y-146780000D02*
X214670000Y-142139000D01*
X204430000Y-146780000D02*
X204430000Y-142139000D01*
X214670000Y-145270000D02*
X204430000Y-145270000D01*
X211400000Y-146780000D02*
X211400000Y-145270000D01*
X207699000Y-146780000D02*
X207699000Y-145270000D01*
X250839000Y-130460000D02*
X249581000Y-130460000D01*
X250839000Y-128620000D02*
X249581000Y-128620000D01*
X176435000Y-122455000D02*
X176435000Y-125195000D01*
X176435000Y-125195000D02*
X182975000Y-125195000D01*
X182975000Y-125195000D02*
X182975000Y-122455000D01*
X182975000Y-122455000D02*
X176435000Y-122455000D01*
X175665000Y-123825000D02*
X176435000Y-123825000D01*
X183745000Y-123825000D02*
X182975000Y-123825000D01*
X210090000Y-91975000D02*
X210090000Y-94715000D01*
X210090000Y-94715000D02*
X216630000Y-94715000D01*
X216630000Y-94715000D02*
X216630000Y-91975000D01*
X216630000Y-91975000D02*
X210090000Y-91975000D01*
X209320000Y-93345000D02*
X210090000Y-93345000D01*
X217400000Y-93345000D02*
X216630000Y-93345000D01*
X169110000Y-141425000D02*
X166170000Y-141425000D01*
X166170000Y-141425000D02*
X166170000Y-146865000D01*
X166170000Y-146865000D02*
X169110000Y-146865000D01*
X169110000Y-146865000D02*
X169110000Y-141425000D01*
X167640000Y-140405000D02*
X167640000Y-141425000D01*
X167640000Y-147885000D02*
X167640000Y-146865000D01*
X169110000Y-142325000D02*
X166170000Y-142325000D01*
X169110000Y-142445000D02*
X166170000Y-142445000D01*
X169110000Y-142205000D02*
X166170000Y-142205000D01*
X175080000Y-137595000D02*
X175080000Y-140535000D01*
X175080000Y-140535000D02*
X180520000Y-140535000D01*
X180520000Y-140535000D02*
X180520000Y-137595000D01*
X180520000Y-137595000D02*
X175080000Y-137595000D01*
X174060000Y-139065000D02*
X175080000Y-139065000D01*
X181540000Y-139065000D02*
X180520000Y-139065000D01*
X175980000Y-137595000D02*
X175980000Y-140535000D01*
X176100000Y-137595000D02*
X176100000Y-140535000D01*
X175860000Y-137595000D02*
X175860000Y-140535000D01*
X232230000Y-137595000D02*
X232230000Y-140535000D01*
X232230000Y-140535000D02*
X237670000Y-140535000D01*
X237670000Y-140535000D02*
X237670000Y-137595000D01*
X237670000Y-137595000D02*
X232230000Y-137595000D01*
X231210000Y-139065000D02*
X232230000Y-139065000D01*
X238690000Y-139065000D02*
X237670000Y-139065000D01*
X233130000Y-137595000D02*
X233130000Y-140535000D01*
X233250000Y-137595000D02*
X233250000Y-140535000D01*
X233010000Y-137595000D02*
X233010000Y-140535000D01*
X249100000Y-134820000D02*
X249100000Y-131880000D01*
X249100000Y-131880000D02*
X243660000Y-131880000D01*
X243660000Y-131880000D02*
X243660000Y-134820000D01*
X243660000Y-134820000D02*
X249100000Y-134820000D01*
X250120000Y-133350000D02*
X249100000Y-133350000D01*
X242640000Y-133350000D02*
X243660000Y-133350000D01*
X248200000Y-134820000D02*
X248200000Y-131880000D01*
X248080000Y-134820000D02*
X248080000Y-131880000D01*
X248320000Y-134820000D02*
X248320000Y-131880000D01*
X168215000Y-95945000D02*
X168215000Y-93345000D01*
X168215000Y-95945000D02*
X193735000Y-95945000D01*
X193735000Y-95945000D02*
X193735000Y-90745000D01*
X170815000Y-90745000D02*
X193735000Y-90745000D01*
X170815000Y-93345000D02*
X170815000Y-90745000D01*
X168215000Y-93345000D02*
X170815000Y-93345000D01*
X168215000Y-90745000D02*
X169545000Y-90745000D01*
X168215000Y-92075000D02*
X168215000Y-90745000D01*
X180955000Y-118625000D02*
X183265000Y-118625000D01*
X183265000Y-118625000D02*
X183265000Y-118350000D01*
X180955000Y-118625000D02*
X178645000Y-118625000D01*
X178645000Y-118625000D02*
X178645000Y-118350000D01*
X180955000Y-108705000D02*
X183265000Y-108705000D01*
X183265000Y-108705000D02*
X183265000Y-108980000D01*
X180955000Y-108705000D02*
X178645000Y-108705000D01*
X178645000Y-108705000D02*
X178645000Y-108980000D01*
X178645000Y-108980000D02*
X177355000Y-108980000D01*
X206170000Y-135890000D02*
G75*
G03*
X206170000Y-135890000I-1700000J0D01*
G01*
X246175000Y-139700000D02*
G75*
G03*
X246175000Y-139700000I-1700000J0D01*
G01*
X169340000Y-133985000D02*
G75*
G03*
X169340000Y-133985000I-1700000J0D01*
G01*
X232000000Y-142315000D02*
X232000000Y-151055000D01*
X232000000Y-142315000D02*
X227760000Y-142315000D01*
X227760000Y-151055000D02*
X232000000Y-151055000D01*
X227760000Y-151055000D02*
X227760000Y-142315000D01*
X233740000Y-143855000D02*
X232690000Y-143855000D01*
X232690000Y-144905000D02*
X232690000Y-143855000D01*
X242090000Y-149955000D02*
X242090000Y-158755000D01*
X242090000Y-158755000D02*
X232890000Y-158755000D01*
X239390000Y-144055000D02*
X242090000Y-144055000D01*
X242090000Y-144055000D02*
X242090000Y-145955000D01*
X232890000Y-158755000D02*
X232890000Y-144055000D01*
X232890000Y-144055000D02*
X235490000Y-144055000D01*
X176544000Y-121570000D02*
X175286000Y-121570000D01*
X176544000Y-119730000D02*
X175286000Y-119730000D01*
X177260000Y-145435000D02*
G75*
G03*
X177260000Y-145435000I-3270000J0D01*
G01*
X177220000Y-145435000D02*
X170760000Y-145435000D01*
X177220000Y-145475000D02*
X170760000Y-145475000D01*
X177220000Y-145515000D02*
X170760000Y-145515000D01*
X177218000Y-145555000D02*
X170762000Y-145555000D01*
X177217000Y-145595000D02*
X170763000Y-145595000D01*
X177214000Y-145635000D02*
X170766000Y-145635000D01*
X177212000Y-145675000D02*
X175030000Y-145675000D01*
X172950000Y-145675000D02*
X170768000Y-145675000D01*
X177208000Y-145715000D02*
X175030000Y-145715000D01*
X172950000Y-145715000D02*
X170772000Y-145715000D01*
X177205000Y-145755000D02*
X175030000Y-145755000D01*
X172950000Y-145755000D02*
X170775000Y-145755000D01*
X177201000Y-145795000D02*
X175030000Y-145795000D01*
X172950000Y-145795000D02*
X170779000Y-145795000D01*
X177196000Y-145835000D02*
X175030000Y-145835000D01*
X172950000Y-145835000D02*
X170784000Y-145835000D01*
X177191000Y-145875000D02*
X175030000Y-145875000D01*
X172950000Y-145875000D02*
X170789000Y-145875000D01*
X177185000Y-145915000D02*
X175030000Y-145915000D01*
X172950000Y-145915000D02*
X170795000Y-145915000D01*
X177179000Y-145955000D02*
X175030000Y-145955000D01*
X172950000Y-145955000D02*
X170801000Y-145955000D01*
X177172000Y-145995000D02*
X175030000Y-145995000D01*
X172950000Y-145995000D02*
X170808000Y-145995000D01*
X177165000Y-146035000D02*
X175030000Y-146035000D01*
X172950000Y-146035000D02*
X170815000Y-146035000D01*
X177157000Y-146075000D02*
X175030000Y-146075000D01*
X172950000Y-146075000D02*
X170823000Y-146075000D01*
X177149000Y-146115000D02*
X175030000Y-146115000D01*
X172950000Y-146115000D02*
X170831000Y-146115000D01*
X177140000Y-146156000D02*
X175030000Y-146156000D01*
X172950000Y-146156000D02*
X170840000Y-146156000D01*
X177131000Y-146196000D02*
X175030000Y-146196000D01*
X172950000Y-146196000D02*
X170849000Y-146196000D01*
X177121000Y-146236000D02*
X175030000Y-146236000D01*
X172950000Y-146236000D02*
X170859000Y-146236000D01*
X177111000Y-146276000D02*
X175030000Y-146276000D01*
X172950000Y-146276000D02*
X170869000Y-146276000D01*
X177100000Y-146316000D02*
X175030000Y-146316000D01*
X172950000Y-146316000D02*
X170880000Y-146316000D01*
X177088000Y-146356000D02*
X175030000Y-146356000D01*
X172950000Y-146356000D02*
X170892000Y-146356000D01*
X177076000Y-146396000D02*
X175030000Y-146396000D01*
X172950000Y-146396000D02*
X170904000Y-146396000D01*
X177064000Y-146436000D02*
X175030000Y-146436000D01*
X172950000Y-146436000D02*
X170916000Y-146436000D01*
X177051000Y-146476000D02*
X175030000Y-146476000D01*
X172950000Y-146476000D02*
X170929000Y-146476000D01*
X177037000Y-146516000D02*
X175030000Y-146516000D01*
X172950000Y-146516000D02*
X170943000Y-146516000D01*
X177023000Y-146556000D02*
X175030000Y-146556000D01*
X172950000Y-146556000D02*
X170957000Y-146556000D01*
X177008000Y-146596000D02*
X175030000Y-146596000D01*
X172950000Y-146596000D02*
X170972000Y-146596000D01*
X176992000Y-146636000D02*
X175030000Y-146636000D01*
X172950000Y-146636000D02*
X170988000Y-146636000D01*
X176976000Y-146676000D02*
X175030000Y-146676000D01*
X172950000Y-146676000D02*
X171004000Y-146676000D01*
X176960000Y-146716000D02*
X175030000Y-146716000D01*
X172950000Y-146716000D02*
X171020000Y-146716000D01*
X176942000Y-146756000D02*
X175030000Y-146756000D01*
X172950000Y-146756000D02*
X171038000Y-146756000D01*
X176924000Y-146796000D02*
X175030000Y-146796000D01*
X172950000Y-146796000D02*
X171056000Y-146796000D01*
X176906000Y-146836000D02*
X175030000Y-146836000D01*
X172950000Y-146836000D02*
X171074000Y-146836000D01*
X176886000Y-146876000D02*
X175030000Y-146876000D01*
X172950000Y-146876000D02*
X171094000Y-146876000D01*
X176866000Y-146916000D02*
X175030000Y-146916000D01*
X172950000Y-146916000D02*
X171114000Y-146916000D01*
X176846000Y-146956000D02*
X175030000Y-146956000D01*
X172950000Y-146956000D02*
X171134000Y-146956000D01*
X176824000Y-146996000D02*
X175030000Y-146996000D01*
X172950000Y-146996000D02*
X171156000Y-146996000D01*
X176802000Y-147036000D02*
X175030000Y-147036000D01*
X172950000Y-147036000D02*
X171178000Y-147036000D01*
X176780000Y-147076000D02*
X175030000Y-147076000D01*
X172950000Y-147076000D02*
X171200000Y-147076000D01*
X176756000Y-147116000D02*
X175030000Y-147116000D01*
X172950000Y-147116000D02*
X171224000Y-147116000D01*
X176732000Y-147156000D02*
X175030000Y-147156000D01*
X172950000Y-147156000D02*
X171248000Y-147156000D01*
X176706000Y-147196000D02*
X175030000Y-147196000D01*
X172950000Y-147196000D02*
X171274000Y-147196000D01*
X176680000Y-147236000D02*
X175030000Y-147236000D01*
X172950000Y-147236000D02*
X171300000Y-147236000D01*
X176654000Y-147276000D02*
X175030000Y-147276000D01*
X172950000Y-147276000D02*
X171326000Y-147276000D01*
X176626000Y-147316000D02*
X175030000Y-147316000D01*
X172950000Y-147316000D02*
X171354000Y-147316000D01*
X176597000Y-147356000D02*
X175030000Y-147356000D01*
X172950000Y-147356000D02*
X171383000Y-147356000D01*
X176568000Y-147396000D02*
X175030000Y-147396000D01*
X172950000Y-147396000D02*
X171412000Y-147396000D01*
X176538000Y-147436000D02*
X175030000Y-147436000D01*
X172950000Y-147436000D02*
X171442000Y-147436000D01*
X176506000Y-147476000D02*
X175030000Y-147476000D01*
X172950000Y-147476000D02*
X171474000Y-147476000D01*
X176474000Y-147516000D02*
X175030000Y-147516000D01*
X172950000Y-147516000D02*
X171506000Y-147516000D01*
X176440000Y-147556000D02*
X175030000Y-147556000D01*
X172950000Y-147556000D02*
X171540000Y-147556000D01*
X176406000Y-147596000D02*
X175030000Y-147596000D01*
X172950000Y-147596000D02*
X171574000Y-147596000D01*
X176370000Y-147636000D02*
X175030000Y-147636000D01*
X172950000Y-147636000D02*
X171610000Y-147636000D01*
X176333000Y-147676000D02*
X175030000Y-147676000D01*
X172950000Y-147676000D02*
X171647000Y-147676000D01*
X176295000Y-147716000D02*
X175030000Y-147716000D01*
X172950000Y-147716000D02*
X171685000Y-147716000D01*
X176255000Y-147756000D02*
X171725000Y-147756000D01*
X176214000Y-147796000D02*
X171766000Y-147796000D01*
X176172000Y-147836000D02*
X171808000Y-147836000D01*
X176127000Y-147876000D02*
X171853000Y-147876000D01*
X176082000Y-147916000D02*
X171898000Y-147916000D01*
X176034000Y-147956000D02*
X171946000Y-147956000D01*
X175985000Y-147996000D02*
X171995000Y-147996000D01*
X175934000Y-148036000D02*
X172046000Y-148036000D01*
X175880000Y-148076000D02*
X172100000Y-148076000D01*
X175824000Y-148116000D02*
X172156000Y-148116000D01*
X175766000Y-148156000D02*
X172214000Y-148156000D01*
X175704000Y-148196000D02*
X172276000Y-148196000D01*
X175640000Y-148236000D02*
X172340000Y-148236000D01*
X175571000Y-148276000D02*
X172409000Y-148276000D01*
X175499000Y-148316000D02*
X172481000Y-148316000D01*
X175422000Y-148356000D02*
X172558000Y-148356000D01*
X175340000Y-148396000D02*
X172640000Y-148396000D01*
X175252000Y-148436000D02*
X172728000Y-148436000D01*
X175155000Y-148476000D02*
X172825000Y-148476000D01*
X175049000Y-148516000D02*
X172931000Y-148516000D01*
X174930000Y-148556000D02*
X173050000Y-148556000D01*
X174792000Y-148596000D02*
X173188000Y-148596000D01*
X174623000Y-148636000D02*
X173357000Y-148636000D01*
X174392000Y-148676000D02*
X173588000Y-148676000D01*
X175829000Y-141934759D02*
X175829000Y-142564759D01*
X176144000Y-142249759D02*
X175514000Y-142249759D01*
X195400000Y-146015225D02*
X194900000Y-146015225D01*
X195150000Y-145765225D02*
X195150000Y-146265225D01*
X193959000Y-151171000D02*
X193391000Y-151171000D01*
X194193000Y-151131000D02*
X193157000Y-151131000D01*
X194352000Y-151091000D02*
X192998000Y-151091000D01*
X194480000Y-151051000D02*
X192870000Y-151051000D01*
X194590000Y-151011000D02*
X192760000Y-151011000D01*
X194686000Y-150971000D02*
X192664000Y-150971000D01*
X194773000Y-150931000D02*
X192577000Y-150931000D01*
X194853000Y-150891000D02*
X192497000Y-150891000D01*
X192635000Y-150851000D02*
X192424000Y-150851000D01*
X194926000Y-150851000D02*
X194715000Y-150851000D01*
X192635000Y-150811000D02*
X192356000Y-150811000D01*
X194994000Y-150811000D02*
X194715000Y-150811000D01*
X192635000Y-150771000D02*
X192292000Y-150771000D01*
X195058000Y-150771000D02*
X194715000Y-150771000D01*
X192635000Y-150731000D02*
X192232000Y-150731000D01*
X195118000Y-150731000D02*
X194715000Y-150731000D01*
X192635000Y-150691000D02*
X192175000Y-150691000D01*
X195175000Y-150691000D02*
X194715000Y-150691000D01*
X192635000Y-150651000D02*
X192121000Y-150651000D01*
X195229000Y-150651000D02*
X194715000Y-150651000D01*
X192635000Y-150611000D02*
X192070000Y-150611000D01*
X195280000Y-150611000D02*
X194715000Y-150611000D01*
X192635000Y-150571000D02*
X192022000Y-150571000D01*
X195328000Y-150571000D02*
X194715000Y-150571000D01*
X192635000Y-150531000D02*
X191976000Y-150531000D01*
X195374000Y-150531000D02*
X194715000Y-150531000D01*
X192635000Y-150491000D02*
X191932000Y-150491000D01*
X195418000Y-150491000D02*
X194715000Y-150491000D01*
X192635000Y-150451000D02*
X191890000Y-150451000D01*
X195460000Y-150451000D02*
X194715000Y-150451000D01*
X192635000Y-150411000D02*
X191849000Y-150411000D01*
X195501000Y-150411000D02*
X194715000Y-150411000D01*
X192635000Y-150371000D02*
X191811000Y-150371000D01*
X195539000Y-150371000D02*
X194715000Y-150371000D01*
X192635000Y-150331000D02*
X191774000Y-150331000D01*
X195576000Y-150331000D02*
X194715000Y-150331000D01*
X192635000Y-150291000D02*
X191738000Y-150291000D01*
X195612000Y-150291000D02*
X194715000Y-150291000D01*
X192635000Y-150251000D02*
X191704000Y-150251000D01*
X195646000Y-150251000D02*
X194715000Y-150251000D01*
X192635000Y-150211000D02*
X191671000Y-150211000D01*
X195679000Y-150211000D02*
X194715000Y-150211000D01*
X192635000Y-150171000D02*
X191640000Y-150171000D01*
X195710000Y-150171000D02*
X194715000Y-150171000D01*
X192635000Y-150131000D02*
X191610000Y-150131000D01*
X195740000Y-150131000D02*
X194715000Y-150131000D01*
X192635000Y-150091000D02*
X191580000Y-150091000D01*
X195770000Y-150091000D02*
X194715000Y-150091000D01*
X192635000Y-150051000D02*
X191553000Y-150051000D01*
X195797000Y-150051000D02*
X194715000Y-150051000D01*
X192635000Y-150011000D02*
X191526000Y-150011000D01*
X195824000Y-150011000D02*
X194715000Y-150011000D01*
X192635000Y-149971000D02*
X191500000Y-149971000D01*
X195850000Y-149971000D02*
X194715000Y-149971000D01*
X192635000Y-149931000D02*
X191475000Y-149931000D01*
X195875000Y-149931000D02*
X194715000Y-149931000D01*
X192635000Y-149891000D02*
X191451000Y-149891000D01*
X195899000Y-149891000D02*
X194715000Y-149891000D01*
X192635000Y-149851000D02*
X191428000Y-149851000D01*
X195922000Y-149851000D02*
X194715000Y-149851000D01*
X192635000Y-149811000D02*
X191407000Y-149811000D01*
X195943000Y-149811000D02*
X194715000Y-149811000D01*
X192635000Y-149771000D02*
X191385000Y-149771000D01*
X195965000Y-149771000D02*
X194715000Y-149771000D01*
X192635000Y-149731000D02*
X191365000Y-149731000D01*
X195985000Y-149731000D02*
X194715000Y-149731000D01*
X192635000Y-149691000D02*
X191346000Y-149691000D01*
X196004000Y-149691000D02*
X194715000Y-149691000D01*
X192635000Y-149651000D02*
X191327000Y-149651000D01*
X196023000Y-149651000D02*
X194715000Y-149651000D01*
X192635000Y-149611000D02*
X191310000Y-149611000D01*
X196040000Y-149611000D02*
X194715000Y-149611000D01*
X192635000Y-149571000D02*
X191293000Y-149571000D01*
X196057000Y-149571000D02*
X194715000Y-149571000D01*
X192635000Y-149531000D02*
X191277000Y-149531000D01*
X196073000Y-149531000D02*
X194715000Y-149531000D01*
X192635000Y-149491000D02*
X191261000Y-149491000D01*
X196089000Y-149491000D02*
X194715000Y-149491000D01*
X192635000Y-149451000D02*
X191247000Y-149451000D01*
X196103000Y-149451000D02*
X194715000Y-149451000D01*
X192635000Y-149411000D02*
X191233000Y-149411000D01*
X196117000Y-149411000D02*
X194715000Y-149411000D01*
X192635000Y-149371000D02*
X191220000Y-149371000D01*
X196130000Y-149371000D02*
X194715000Y-149371000D01*
X192635000Y-149331000D02*
X191207000Y-149331000D01*
X196143000Y-149331000D02*
X194715000Y-149331000D01*
X192635000Y-149291000D02*
X191195000Y-149291000D01*
X196155000Y-149291000D02*
X194715000Y-149291000D01*
X192635000Y-149250000D02*
X191184000Y-149250000D01*
X196166000Y-149250000D02*
X194715000Y-149250000D01*
X192635000Y-149210000D02*
X191174000Y-149210000D01*
X196176000Y-149210000D02*
X194715000Y-149210000D01*
X192635000Y-149170000D02*
X191164000Y-149170000D01*
X196186000Y-149170000D02*
X194715000Y-149170000D01*
X192635000Y-149130000D02*
X191155000Y-149130000D01*
X196195000Y-149130000D02*
X194715000Y-149130000D01*
X192635000Y-149090000D02*
X191147000Y-149090000D01*
X196203000Y-149090000D02*
X194715000Y-149090000D01*
X192635000Y-149050000D02*
X191139000Y-149050000D01*
X196211000Y-149050000D02*
X194715000Y-149050000D01*
X192635000Y-149010000D02*
X191132000Y-149010000D01*
X196218000Y-149010000D02*
X194715000Y-149010000D01*
X192635000Y-148970000D02*
X191125000Y-148970000D01*
X196225000Y-148970000D02*
X194715000Y-148970000D01*
X192635000Y-148930000D02*
X191119000Y-148930000D01*
X196231000Y-148930000D02*
X194715000Y-148930000D01*
X192635000Y-148890000D02*
X191114000Y-148890000D01*
X196236000Y-148890000D02*
X194715000Y-148890000D01*
X192635000Y-148850000D02*
X191110000Y-148850000D01*
X196240000Y-148850000D02*
X194715000Y-148850000D01*
X192635000Y-148810000D02*
X191106000Y-148810000D01*
X196244000Y-148810000D02*
X194715000Y-148810000D01*
X196248000Y-148770000D02*
X191102000Y-148770000D01*
X196251000Y-148730000D02*
X191099000Y-148730000D01*
X196253000Y-148690000D02*
X191097000Y-148690000D01*
X196254000Y-148650000D02*
X191096000Y-148650000D01*
X196255000Y-148610000D02*
X191095000Y-148610000D01*
X196255000Y-148570000D02*
X191095000Y-148570000D01*
X196295000Y-148570000D02*
G75*
G03*
X196295000Y-148570000I-2620000J0D01*
G01*
X183501000Y-119730000D02*
X184759000Y-119730000D01*
X183501000Y-121570000D02*
X184759000Y-121570000D01*
X196945000Y-140315000D02*
G75*
G03*
X196945000Y-140315000I-3270000J0D01*
G01*
X196905000Y-140315000D02*
X190445000Y-140315000D01*
X196905000Y-140355000D02*
X190445000Y-140355000D01*
X196905000Y-140395000D02*
X190445000Y-140395000D01*
X196903000Y-140435000D02*
X190447000Y-140435000D01*
X196902000Y-140475000D02*
X190448000Y-140475000D01*
X196899000Y-140515000D02*
X190451000Y-140515000D01*
X196897000Y-140555000D02*
X194715000Y-140555000D01*
X192635000Y-140555000D02*
X190453000Y-140555000D01*
X196893000Y-140595000D02*
X194715000Y-140595000D01*
X192635000Y-140595000D02*
X190457000Y-140595000D01*
X196890000Y-140635000D02*
X194715000Y-140635000D01*
X192635000Y-140635000D02*
X190460000Y-140635000D01*
X196886000Y-140675000D02*
X194715000Y-140675000D01*
X192635000Y-140675000D02*
X190464000Y-140675000D01*
X196881000Y-140715000D02*
X194715000Y-140715000D01*
X192635000Y-140715000D02*
X190469000Y-140715000D01*
X196876000Y-140755000D02*
X194715000Y-140755000D01*
X192635000Y-140755000D02*
X190474000Y-140755000D01*
X196870000Y-140795000D02*
X194715000Y-140795000D01*
X192635000Y-140795000D02*
X190480000Y-140795000D01*
X196864000Y-140835000D02*
X194715000Y-140835000D01*
X192635000Y-140835000D02*
X190486000Y-140835000D01*
X196857000Y-140875000D02*
X194715000Y-140875000D01*
X192635000Y-140875000D02*
X190493000Y-140875000D01*
X196850000Y-140915000D02*
X194715000Y-140915000D01*
X192635000Y-140915000D02*
X190500000Y-140915000D01*
X196842000Y-140955000D02*
X194715000Y-140955000D01*
X192635000Y-140955000D02*
X190508000Y-140955000D01*
X196834000Y-140995000D02*
X194715000Y-140995000D01*
X192635000Y-140995000D02*
X190516000Y-140995000D01*
X196825000Y-141036000D02*
X194715000Y-141036000D01*
X192635000Y-141036000D02*
X190525000Y-141036000D01*
X196816000Y-141076000D02*
X194715000Y-141076000D01*
X192635000Y-141076000D02*
X190534000Y-141076000D01*
X196806000Y-141116000D02*
X194715000Y-141116000D01*
X192635000Y-141116000D02*
X190544000Y-141116000D01*
X196796000Y-141156000D02*
X194715000Y-141156000D01*
X192635000Y-141156000D02*
X190554000Y-141156000D01*
X196785000Y-141196000D02*
X194715000Y-141196000D01*
X192635000Y-141196000D02*
X190565000Y-141196000D01*
X196773000Y-141236000D02*
X194715000Y-141236000D01*
X192635000Y-141236000D02*
X190577000Y-141236000D01*
X196761000Y-141276000D02*
X194715000Y-141276000D01*
X192635000Y-141276000D02*
X190589000Y-141276000D01*
X196749000Y-141316000D02*
X194715000Y-141316000D01*
X192635000Y-141316000D02*
X190601000Y-141316000D01*
X196736000Y-141356000D02*
X194715000Y-141356000D01*
X192635000Y-141356000D02*
X190614000Y-141356000D01*
X196722000Y-141396000D02*
X194715000Y-141396000D01*
X192635000Y-141396000D02*
X190628000Y-141396000D01*
X196708000Y-141436000D02*
X194715000Y-141436000D01*
X192635000Y-141436000D02*
X190642000Y-141436000D01*
X196693000Y-141476000D02*
X194715000Y-141476000D01*
X192635000Y-141476000D02*
X190657000Y-141476000D01*
X196677000Y-141516000D02*
X194715000Y-141516000D01*
X192635000Y-141516000D02*
X190673000Y-141516000D01*
X196661000Y-141556000D02*
X194715000Y-141556000D01*
X192635000Y-141556000D02*
X190689000Y-141556000D01*
X196645000Y-141596000D02*
X194715000Y-141596000D01*
X192635000Y-141596000D02*
X190705000Y-141596000D01*
X196627000Y-141636000D02*
X194715000Y-141636000D01*
X192635000Y-141636000D02*
X190723000Y-141636000D01*
X196609000Y-141676000D02*
X194715000Y-141676000D01*
X192635000Y-141676000D02*
X190741000Y-141676000D01*
X196591000Y-141716000D02*
X194715000Y-141716000D01*
X192635000Y-141716000D02*
X190759000Y-141716000D01*
X196571000Y-141756000D02*
X194715000Y-141756000D01*
X192635000Y-141756000D02*
X190779000Y-141756000D01*
X196551000Y-141796000D02*
X194715000Y-141796000D01*
X192635000Y-141796000D02*
X190799000Y-141796000D01*
X196531000Y-141836000D02*
X194715000Y-141836000D01*
X192635000Y-141836000D02*
X190819000Y-141836000D01*
X196509000Y-141876000D02*
X194715000Y-141876000D01*
X192635000Y-141876000D02*
X190841000Y-141876000D01*
X196487000Y-141916000D02*
X194715000Y-141916000D01*
X192635000Y-141916000D02*
X190863000Y-141916000D01*
X196465000Y-141956000D02*
X194715000Y-141956000D01*
X192635000Y-141956000D02*
X190885000Y-141956000D01*
X196441000Y-141996000D02*
X194715000Y-141996000D01*
X192635000Y-141996000D02*
X190909000Y-141996000D01*
X196417000Y-142036000D02*
X194715000Y-142036000D01*
X192635000Y-142036000D02*
X190933000Y-142036000D01*
X196391000Y-142076000D02*
X194715000Y-142076000D01*
X192635000Y-142076000D02*
X190959000Y-142076000D01*
X196365000Y-142116000D02*
X194715000Y-142116000D01*
X192635000Y-142116000D02*
X190985000Y-142116000D01*
X196339000Y-142156000D02*
X194715000Y-142156000D01*
X192635000Y-142156000D02*
X191011000Y-142156000D01*
X196311000Y-142196000D02*
X194715000Y-142196000D01*
X192635000Y-142196000D02*
X191039000Y-142196000D01*
X196282000Y-142236000D02*
X194715000Y-142236000D01*
X192635000Y-142236000D02*
X191068000Y-142236000D01*
X196253000Y-142276000D02*
X194715000Y-142276000D01*
X192635000Y-142276000D02*
X191097000Y-142276000D01*
X196223000Y-142316000D02*
X194715000Y-142316000D01*
X192635000Y-142316000D02*
X191127000Y-142316000D01*
X196191000Y-142356000D02*
X194715000Y-142356000D01*
X192635000Y-142356000D02*
X191159000Y-142356000D01*
X196159000Y-142396000D02*
X194715000Y-142396000D01*
X192635000Y-142396000D02*
X191191000Y-142396000D01*
X196125000Y-142436000D02*
X194715000Y-142436000D01*
X192635000Y-142436000D02*
X191225000Y-142436000D01*
X196091000Y-142476000D02*
X194715000Y-142476000D01*
X192635000Y-142476000D02*
X191259000Y-142476000D01*
X196055000Y-142516000D02*
X194715000Y-142516000D01*
X192635000Y-142516000D02*
X191295000Y-142516000D01*
X196018000Y-142556000D02*
X194715000Y-142556000D01*
X192635000Y-142556000D02*
X191332000Y-142556000D01*
X195980000Y-142596000D02*
X194715000Y-142596000D01*
X192635000Y-142596000D02*
X191370000Y-142596000D01*
X195940000Y-142636000D02*
X191410000Y-142636000D01*
X195899000Y-142676000D02*
X191451000Y-142676000D01*
X195857000Y-142716000D02*
X191493000Y-142716000D01*
X195812000Y-142756000D02*
X191538000Y-142756000D01*
X195767000Y-142796000D02*
X191583000Y-142796000D01*
X195719000Y-142836000D02*
X191631000Y-142836000D01*
X195670000Y-142876000D02*
X191680000Y-142876000D01*
X195619000Y-142916000D02*
X191731000Y-142916000D01*
X195565000Y-142956000D02*
X191785000Y-142956000D01*
X195509000Y-142996000D02*
X191841000Y-142996000D01*
X195451000Y-143036000D02*
X191899000Y-143036000D01*
X195389000Y-143076000D02*
X191961000Y-143076000D01*
X195325000Y-143116000D02*
X192025000Y-143116000D01*
X195256000Y-143156000D02*
X192094000Y-143156000D01*
X195184000Y-143196000D02*
X192166000Y-143196000D01*
X195107000Y-143236000D02*
X192243000Y-143236000D01*
X195025000Y-143276000D02*
X192325000Y-143276000D01*
X194937000Y-143316000D02*
X192413000Y-143316000D01*
X194840000Y-143356000D02*
X192510000Y-143356000D01*
X194734000Y-143396000D02*
X192616000Y-143396000D01*
X194615000Y-143436000D02*
X192735000Y-143436000D01*
X194477000Y-143476000D02*
X192873000Y-143476000D01*
X194308000Y-143516000D02*
X193042000Y-143516000D01*
X194077000Y-143556000D02*
X193273000Y-143556000D01*
X195514000Y-136814759D02*
X195514000Y-137444759D01*
X195829000Y-137129759D02*
X195199000Y-137129759D01*
X225245000Y-145380225D02*
X224745000Y-145380225D01*
X224995000Y-145130225D02*
X224995000Y-145630225D01*
X223804000Y-150536000D02*
X223236000Y-150536000D01*
X224038000Y-150496000D02*
X223002000Y-150496000D01*
X224197000Y-150456000D02*
X222843000Y-150456000D01*
X224325000Y-150416000D02*
X222715000Y-150416000D01*
X224435000Y-150376000D02*
X222605000Y-150376000D01*
X224531000Y-150336000D02*
X222509000Y-150336000D01*
X224618000Y-150296000D02*
X222422000Y-150296000D01*
X224698000Y-150256000D02*
X222342000Y-150256000D01*
X222480000Y-150216000D02*
X222269000Y-150216000D01*
X224771000Y-150216000D02*
X224560000Y-150216000D01*
X222480000Y-150176000D02*
X222201000Y-150176000D01*
X224839000Y-150176000D02*
X224560000Y-150176000D01*
X222480000Y-150136000D02*
X222137000Y-150136000D01*
X224903000Y-150136000D02*
X224560000Y-150136000D01*
X222480000Y-150096000D02*
X222077000Y-150096000D01*
X224963000Y-150096000D02*
X224560000Y-150096000D01*
X222480000Y-150056000D02*
X222020000Y-150056000D01*
X225020000Y-150056000D02*
X224560000Y-150056000D01*
X222480000Y-150016000D02*
X221966000Y-150016000D01*
X225074000Y-150016000D02*
X224560000Y-150016000D01*
X222480000Y-149976000D02*
X221915000Y-149976000D01*
X225125000Y-149976000D02*
X224560000Y-149976000D01*
X222480000Y-149936000D02*
X221867000Y-149936000D01*
X225173000Y-149936000D02*
X224560000Y-149936000D01*
X222480000Y-149896000D02*
X221821000Y-149896000D01*
X225219000Y-149896000D02*
X224560000Y-149896000D01*
X222480000Y-149856000D02*
X221777000Y-149856000D01*
X225263000Y-149856000D02*
X224560000Y-149856000D01*
X222480000Y-149816000D02*
X221735000Y-149816000D01*
X225305000Y-149816000D02*
X224560000Y-149816000D01*
X222480000Y-149776000D02*
X221694000Y-149776000D01*
X225346000Y-149776000D02*
X224560000Y-149776000D01*
X222480000Y-149736000D02*
X221656000Y-149736000D01*
X225384000Y-149736000D02*
X224560000Y-149736000D01*
X222480000Y-149696000D02*
X221619000Y-149696000D01*
X225421000Y-149696000D02*
X224560000Y-149696000D01*
X222480000Y-149656000D02*
X221583000Y-149656000D01*
X225457000Y-149656000D02*
X224560000Y-149656000D01*
X222480000Y-149616000D02*
X221549000Y-149616000D01*
X225491000Y-149616000D02*
X224560000Y-149616000D01*
X222480000Y-149576000D02*
X221516000Y-149576000D01*
X225524000Y-149576000D02*
X224560000Y-149576000D01*
X222480000Y-149536000D02*
X221485000Y-149536000D01*
X225555000Y-149536000D02*
X224560000Y-149536000D01*
X222480000Y-149496000D02*
X221455000Y-149496000D01*
X225585000Y-149496000D02*
X224560000Y-149496000D01*
X222480000Y-149456000D02*
X221425000Y-149456000D01*
X225615000Y-149456000D02*
X224560000Y-149456000D01*
X222480000Y-149416000D02*
X221398000Y-149416000D01*
X225642000Y-149416000D02*
X224560000Y-149416000D01*
X222480000Y-149376000D02*
X221371000Y-149376000D01*
X225669000Y-149376000D02*
X224560000Y-149376000D01*
X222480000Y-149336000D02*
X221345000Y-149336000D01*
X225695000Y-149336000D02*
X224560000Y-149336000D01*
X222480000Y-149296000D02*
X221320000Y-149296000D01*
X225720000Y-149296000D02*
X224560000Y-149296000D01*
X222480000Y-149256000D02*
X221296000Y-149256000D01*
X225744000Y-149256000D02*
X224560000Y-149256000D01*
X222480000Y-149216000D02*
X221273000Y-149216000D01*
X225767000Y-149216000D02*
X224560000Y-149216000D01*
X222480000Y-149176000D02*
X221252000Y-149176000D01*
X225788000Y-149176000D02*
X224560000Y-149176000D01*
X222480000Y-149136000D02*
X221230000Y-149136000D01*
X225810000Y-149136000D02*
X224560000Y-149136000D01*
X222480000Y-149096000D02*
X221210000Y-149096000D01*
X225830000Y-149096000D02*
X224560000Y-149096000D01*
X222480000Y-149056000D02*
X221191000Y-149056000D01*
X225849000Y-149056000D02*
X224560000Y-149056000D01*
X222480000Y-149016000D02*
X221172000Y-149016000D01*
X225868000Y-149016000D02*
X224560000Y-149016000D01*
X222480000Y-148976000D02*
X221155000Y-148976000D01*
X225885000Y-148976000D02*
X224560000Y-148976000D01*
X222480000Y-148936000D02*
X221138000Y-148936000D01*
X225902000Y-148936000D02*
X224560000Y-148936000D01*
X222480000Y-148896000D02*
X221122000Y-148896000D01*
X225918000Y-148896000D02*
X224560000Y-148896000D01*
X222480000Y-148856000D02*
X221106000Y-148856000D01*
X225934000Y-148856000D02*
X224560000Y-148856000D01*
X222480000Y-148816000D02*
X221092000Y-148816000D01*
X225948000Y-148816000D02*
X224560000Y-148816000D01*
X222480000Y-148776000D02*
X221078000Y-148776000D01*
X225962000Y-148776000D02*
X224560000Y-148776000D01*
X222480000Y-148736000D02*
X221065000Y-148736000D01*
X225975000Y-148736000D02*
X224560000Y-148736000D01*
X222480000Y-148696000D02*
X221052000Y-148696000D01*
X225988000Y-148696000D02*
X224560000Y-148696000D01*
X222480000Y-148656000D02*
X221040000Y-148656000D01*
X226000000Y-148656000D02*
X224560000Y-148656000D01*
X222480000Y-148615000D02*
X221029000Y-148615000D01*
X226011000Y-148615000D02*
X224560000Y-148615000D01*
X222480000Y-148575000D02*
X221019000Y-148575000D01*
X226021000Y-148575000D02*
X224560000Y-148575000D01*
X222480000Y-148535000D02*
X221009000Y-148535000D01*
X226031000Y-148535000D02*
X224560000Y-148535000D01*
X222480000Y-148495000D02*
X221000000Y-148495000D01*
X226040000Y-148495000D02*
X224560000Y-148495000D01*
X222480000Y-148455000D02*
X220992000Y-148455000D01*
X226048000Y-148455000D02*
X224560000Y-148455000D01*
X222480000Y-148415000D02*
X220984000Y-148415000D01*
X226056000Y-148415000D02*
X224560000Y-148415000D01*
X222480000Y-148375000D02*
X220977000Y-148375000D01*
X226063000Y-148375000D02*
X224560000Y-148375000D01*
X222480000Y-148335000D02*
X220970000Y-148335000D01*
X226070000Y-148335000D02*
X224560000Y-148335000D01*
X222480000Y-148295000D02*
X220964000Y-148295000D01*
X226076000Y-148295000D02*
X224560000Y-148295000D01*
X222480000Y-148255000D02*
X220959000Y-148255000D01*
X226081000Y-148255000D02*
X224560000Y-148255000D01*
X222480000Y-148215000D02*
X220955000Y-148215000D01*
X226085000Y-148215000D02*
X224560000Y-148215000D01*
X222480000Y-148175000D02*
X220951000Y-148175000D01*
X226089000Y-148175000D02*
X224560000Y-148175000D01*
X226093000Y-148135000D02*
X220947000Y-148135000D01*
X226096000Y-148095000D02*
X220944000Y-148095000D01*
X226098000Y-148055000D02*
X220942000Y-148055000D01*
X226099000Y-148015000D02*
X220941000Y-148015000D01*
X226100000Y-147975000D02*
X220940000Y-147975000D01*
X226100000Y-147935000D02*
X220940000Y-147935000D01*
X226140000Y-147935000D02*
G75*
G03*
X226140000Y-147935000I-2620000J0D01*
G01*
X222871000Y-142590000D02*
X224129000Y-142590000D01*
X222871000Y-144430000D02*
X224129000Y-144430000D01*
D10*
X216622380Y-114426904D02*
X217431904Y-114426904D01*
X217527142Y-114379285D01*
X217574761Y-114331666D01*
X217622380Y-114236428D01*
X217622380Y-114045952D01*
X217574761Y-113950714D01*
X217527142Y-113903095D01*
X217431904Y-113855476D01*
X216622380Y-113855476D01*
X217622380Y-112855476D02*
X217622380Y-113426904D01*
X217622380Y-113141190D02*
X216622380Y-113141190D01*
X216765238Y-113236428D01*
X216860476Y-113331666D01*
X216908095Y-113426904D01*
X193579761Y-129662619D02*
X193484523Y-129615000D01*
X193389285Y-129519761D01*
X193246428Y-129376904D01*
X193151190Y-129329285D01*
X193055952Y-129329285D01*
X193103571Y-129567380D02*
X193008333Y-129519761D01*
X192913095Y-129424523D01*
X192865476Y-129234047D01*
X192865476Y-128900714D01*
X192913095Y-128710238D01*
X193008333Y-128615000D01*
X193103571Y-128567380D01*
X193294047Y-128567380D01*
X193389285Y-128615000D01*
X193484523Y-128710238D01*
X193532142Y-128900714D01*
X193532142Y-129234047D01*
X193484523Y-129424523D01*
X193389285Y-129519761D01*
X193294047Y-129567380D01*
X193103571Y-129567380D01*
X194484523Y-129567380D02*
X193913095Y-129567380D01*
X194198809Y-129567380D02*
X194198809Y-128567380D01*
X194103571Y-128710238D01*
X194008333Y-128805476D01*
X193913095Y-128853095D01*
X240038095Y-90467380D02*
X240609523Y-90467380D01*
X240323809Y-91467380D02*
X240323809Y-90467380D01*
X240942857Y-91467380D02*
X240942857Y-90467380D01*
X241323809Y-90467380D01*
X241419047Y-90515000D01*
X241466666Y-90562619D01*
X241514285Y-90657857D01*
X241514285Y-90800714D01*
X241466666Y-90895952D01*
X241419047Y-90943571D01*
X241323809Y-90991190D01*
X240942857Y-90991190D01*
X242466666Y-91467380D02*
X241895238Y-91467380D01*
X242180952Y-91467380D02*
X242180952Y-90467380D01*
X242085714Y-90610238D01*
X241990476Y-90705476D01*
X241895238Y-90753095D01*
X198782380Y-93511666D02*
X198306190Y-93845000D01*
X198782380Y-94083095D02*
X197782380Y-94083095D01*
X197782380Y-93702142D01*
X197830000Y-93606904D01*
X197877619Y-93559285D01*
X197972857Y-93511666D01*
X198115714Y-93511666D01*
X198210952Y-93559285D01*
X198258571Y-93606904D01*
X198306190Y-93702142D01*
X198306190Y-94083095D01*
X198782380Y-92559285D02*
X198782380Y-93130714D01*
X198782380Y-92845000D02*
X197782380Y-92845000D01*
X197925238Y-92940238D01*
X198020476Y-93035476D01*
X198068095Y-93130714D01*
X183983333Y-150312380D02*
X183507142Y-150312380D01*
X183507142Y-149312380D01*
X184840476Y-150312380D02*
X184269047Y-150312380D01*
X184554761Y-150312380D02*
X184554761Y-149312380D01*
X184459523Y-149455238D01*
X184364285Y-149550476D01*
X184269047Y-149598095D01*
X208788095Y-140422380D02*
X208788095Y-141231904D01*
X208835714Y-141327142D01*
X208883333Y-141374761D01*
X208978571Y-141422380D01*
X209169047Y-141422380D01*
X209264285Y-141374761D01*
X209311904Y-141327142D01*
X209359523Y-141231904D01*
X209359523Y-140422380D01*
X209788095Y-140517619D02*
X209835714Y-140470000D01*
X209930952Y-140422380D01*
X210169047Y-140422380D01*
X210264285Y-140470000D01*
X210311904Y-140517619D01*
X210359523Y-140612857D01*
X210359523Y-140708095D01*
X210311904Y-140850952D01*
X209740476Y-141422380D01*
X210359523Y-141422380D01*
X246213333Y-129897142D02*
X246165714Y-129944761D01*
X246022857Y-129992380D01*
X245927619Y-129992380D01*
X245784761Y-129944761D01*
X245689523Y-129849523D01*
X245641904Y-129754285D01*
X245594285Y-129563809D01*
X245594285Y-129420952D01*
X245641904Y-129230476D01*
X245689523Y-129135238D01*
X245784761Y-129040000D01*
X245927619Y-128992380D01*
X246022857Y-128992380D01*
X246165714Y-129040000D01*
X246213333Y-129087619D01*
X246784761Y-129420952D02*
X246689523Y-129373333D01*
X246641904Y-129325714D01*
X246594285Y-129230476D01*
X246594285Y-129182857D01*
X246641904Y-129087619D01*
X246689523Y-129040000D01*
X246784761Y-128992380D01*
X246975238Y-128992380D01*
X247070476Y-129040000D01*
X247118095Y-129087619D01*
X247165714Y-129182857D01*
X247165714Y-129230476D01*
X247118095Y-129325714D01*
X247070476Y-129373333D01*
X246975238Y-129420952D01*
X246784761Y-129420952D01*
X246689523Y-129468571D01*
X246641904Y-129516190D01*
X246594285Y-129611428D01*
X246594285Y-129801904D01*
X246641904Y-129897142D01*
X246689523Y-129944761D01*
X246784761Y-129992380D01*
X246975238Y-129992380D01*
X247070476Y-129944761D01*
X247118095Y-129897142D01*
X247165714Y-129801904D01*
X247165714Y-129611428D01*
X247118095Y-129516190D01*
X247070476Y-129468571D01*
X246975238Y-129420952D01*
X179792333Y-126944380D02*
X179459000Y-126468190D01*
X179220904Y-126944380D02*
X179220904Y-125944380D01*
X179601857Y-125944380D01*
X179697095Y-125992000D01*
X179744714Y-126039619D01*
X179792333Y-126134857D01*
X179792333Y-126277714D01*
X179744714Y-126372952D01*
X179697095Y-126420571D01*
X179601857Y-126468190D01*
X179220904Y-126468190D01*
X180125666Y-125944380D02*
X180744714Y-125944380D01*
X180411380Y-126325333D01*
X180554238Y-126325333D01*
X180649476Y-126372952D01*
X180697095Y-126420571D01*
X180744714Y-126515809D01*
X180744714Y-126753904D01*
X180697095Y-126849142D01*
X180649476Y-126896761D01*
X180554238Y-126944380D01*
X180268523Y-126944380D01*
X180173285Y-126896761D01*
X180125666Y-126849142D01*
X213193333Y-91427380D02*
X212860000Y-90951190D01*
X212621904Y-91427380D02*
X212621904Y-90427380D01*
X213002857Y-90427380D01*
X213098095Y-90475000D01*
X213145714Y-90522619D01*
X213193333Y-90617857D01*
X213193333Y-90760714D01*
X213145714Y-90855952D01*
X213098095Y-90903571D01*
X213002857Y-90951190D01*
X212621904Y-90951190D01*
X213574285Y-90522619D02*
X213621904Y-90475000D01*
X213717142Y-90427380D01*
X213955238Y-90427380D01*
X214050476Y-90475000D01*
X214098095Y-90522619D01*
X214145714Y-90617857D01*
X214145714Y-90713095D01*
X214098095Y-90855952D01*
X213526666Y-91427380D01*
X214145714Y-91427380D01*
X165552380Y-144883095D02*
X164552380Y-144883095D01*
X164552380Y-144645000D01*
X164600000Y-144502142D01*
X164695238Y-144406904D01*
X164790476Y-144359285D01*
X164980952Y-144311666D01*
X165123809Y-144311666D01*
X165314285Y-144359285D01*
X165409523Y-144406904D01*
X165504761Y-144502142D01*
X165552380Y-144645000D01*
X165552380Y-144883095D01*
X164885714Y-143454523D02*
X165552380Y-143454523D01*
X164504761Y-143692619D02*
X165219047Y-143930714D01*
X165219047Y-143311666D01*
X170192380Y-139326904D02*
X169192380Y-139326904D01*
X170192380Y-138755476D02*
X169620952Y-139184047D01*
X169192380Y-138755476D02*
X169763809Y-139326904D01*
X177061904Y-137047380D02*
X177061904Y-136047380D01*
X177300000Y-136047380D01*
X177442857Y-136095000D01*
X177538095Y-136190238D01*
X177585714Y-136285476D01*
X177633333Y-136475952D01*
X177633333Y-136618809D01*
X177585714Y-136809285D01*
X177538095Y-136904523D01*
X177442857Y-136999761D01*
X177300000Y-137047380D01*
X177061904Y-137047380D01*
X177966666Y-136047380D02*
X178585714Y-136047380D01*
X178252380Y-136428333D01*
X178395238Y-136428333D01*
X178490476Y-136475952D01*
X178538095Y-136523571D01*
X178585714Y-136618809D01*
X178585714Y-136856904D01*
X178538095Y-136952142D01*
X178490476Y-136999761D01*
X178395238Y-137047380D01*
X178109523Y-137047380D01*
X178014285Y-136999761D01*
X177966666Y-136952142D01*
X172458095Y-137417380D02*
X172458095Y-136417380D01*
X173029523Y-137417380D02*
X172600952Y-136845952D01*
X173029523Y-136417380D02*
X172458095Y-136988809D01*
X234211904Y-142057380D02*
X234211904Y-141057380D01*
X234450000Y-141057380D01*
X234592857Y-141105000D01*
X234688095Y-141200238D01*
X234735714Y-141295476D01*
X234783333Y-141485952D01*
X234783333Y-141628809D01*
X234735714Y-141819285D01*
X234688095Y-141914523D01*
X234592857Y-142009761D01*
X234450000Y-142057380D01*
X234211904Y-142057380D01*
X235164285Y-141152619D02*
X235211904Y-141105000D01*
X235307142Y-141057380D01*
X235545238Y-141057380D01*
X235640476Y-141105000D01*
X235688095Y-141152619D01*
X235735714Y-141247857D01*
X235735714Y-141343095D01*
X235688095Y-141485952D01*
X235116666Y-142057380D01*
X235735714Y-142057380D01*
X229608095Y-137417380D02*
X229608095Y-136417380D01*
X230179523Y-137417380D02*
X229750952Y-136845952D01*
X230179523Y-136417380D02*
X229608095Y-136988809D01*
X248181904Y-136342380D02*
X248181904Y-135342380D01*
X248420000Y-135342380D01*
X248562857Y-135390000D01*
X248658095Y-135485238D01*
X248705714Y-135580476D01*
X248753333Y-135770952D01*
X248753333Y-135913809D01*
X248705714Y-136104285D01*
X248658095Y-136199523D01*
X248562857Y-136294761D01*
X248420000Y-136342380D01*
X248181904Y-136342380D01*
X249705714Y-136342380D02*
X249134285Y-136342380D01*
X249420000Y-136342380D02*
X249420000Y-135342380D01*
X249324761Y-135485238D01*
X249229523Y-135580476D01*
X249134285Y-135628095D01*
X251198095Y-135902380D02*
X251198095Y-134902380D01*
X251769523Y-135902380D02*
X251340952Y-135330952D01*
X251769523Y-134902380D02*
X251198095Y-135473809D01*
X166227380Y-93678333D02*
X166941666Y-93678333D01*
X167084523Y-93725952D01*
X167179761Y-93821190D01*
X167227380Y-93964047D01*
X167227380Y-94059285D01*
X166322619Y-93249761D02*
X166275000Y-93202142D01*
X166227380Y-93106904D01*
X166227380Y-92868809D01*
X166275000Y-92773571D01*
X166322619Y-92725952D01*
X166417857Y-92678333D01*
X166513095Y-92678333D01*
X166655952Y-92725952D01*
X167227380Y-93297380D01*
X167227380Y-92678333D01*
X180193095Y-107317380D02*
X180193095Y-108126904D01*
X180240714Y-108222142D01*
X180288333Y-108269761D01*
X180383571Y-108317380D01*
X180574047Y-108317380D01*
X180669285Y-108269761D01*
X180716904Y-108222142D01*
X180764523Y-108126904D01*
X180764523Y-107317380D01*
X181145476Y-107317380D02*
X181764523Y-107317380D01*
X181431190Y-107698333D01*
X181574047Y-107698333D01*
X181669285Y-107745952D01*
X181716904Y-107793571D01*
X181764523Y-107888809D01*
X181764523Y-108126904D01*
X181716904Y-108222142D01*
X181669285Y-108269761D01*
X181574047Y-108317380D01*
X181288333Y-108317380D01*
X181193095Y-108269761D01*
X181145476Y-108222142D01*
X229536666Y-151820571D02*
X229203333Y-151820571D01*
X229203333Y-152344380D02*
X229203333Y-151344380D01*
X229679523Y-151344380D01*
X230584285Y-152344380D02*
X230012857Y-152344380D01*
X230298571Y-152344380D02*
X230298571Y-151344380D01*
X230203333Y-151487238D01*
X230108095Y-151582476D01*
X230012857Y-151630095D01*
X240966666Y-142327380D02*
X240966666Y-143041666D01*
X240919047Y-143184523D01*
X240823809Y-143279761D01*
X240680952Y-143327380D01*
X240585714Y-143327380D01*
X241966666Y-143327380D02*
X241395238Y-143327380D01*
X241680952Y-143327380D02*
X241680952Y-142327380D01*
X241585714Y-142470238D01*
X241490476Y-142565476D01*
X241395238Y-142613095D01*
X173117142Y-120816666D02*
X173164761Y-120864285D01*
X173212380Y-121007142D01*
X173212380Y-121102380D01*
X173164761Y-121245238D01*
X173069523Y-121340476D01*
X172974285Y-121388095D01*
X172783809Y-121435714D01*
X172640952Y-121435714D01*
X172450476Y-121388095D01*
X172355238Y-121340476D01*
X172260000Y-121245238D01*
X172212380Y-121102380D01*
X172212380Y-121007142D01*
X172260000Y-120864285D01*
X172307619Y-120816666D01*
X172212380Y-120483333D02*
X172212380Y-119816666D01*
X173212380Y-120245238D01*
X173823333Y-150217142D02*
X173775714Y-150264761D01*
X173632857Y-150312380D01*
X173537619Y-150312380D01*
X173394761Y-150264761D01*
X173299523Y-150169523D01*
X173251904Y-150074285D01*
X173204285Y-149883809D01*
X173204285Y-149740952D01*
X173251904Y-149550476D01*
X173299523Y-149455238D01*
X173394761Y-149360000D01*
X173537619Y-149312380D01*
X173632857Y-149312380D01*
X173775714Y-149360000D01*
X173823333Y-149407619D01*
X174680476Y-149312380D02*
X174490000Y-149312380D01*
X174394761Y-149360000D01*
X174347142Y-149407619D01*
X174251904Y-149550476D01*
X174204285Y-149740952D01*
X174204285Y-150121904D01*
X174251904Y-150217142D01*
X174299523Y-150264761D01*
X174394761Y-150312380D01*
X174585238Y-150312380D01*
X174680476Y-150264761D01*
X174728095Y-150217142D01*
X174775714Y-150121904D01*
X174775714Y-149883809D01*
X174728095Y-149788571D01*
X174680476Y-149740952D01*
X174585238Y-149693333D01*
X174394761Y-149693333D01*
X174299523Y-149740952D01*
X174251904Y-149788571D01*
X174204285Y-149883809D01*
X197318333Y-148947142D02*
X197270714Y-148994761D01*
X197127857Y-149042380D01*
X197032619Y-149042380D01*
X196889761Y-148994761D01*
X196794523Y-148899523D01*
X196746904Y-148804285D01*
X196699285Y-148613809D01*
X196699285Y-148470952D01*
X196746904Y-148280476D01*
X196794523Y-148185238D01*
X196889761Y-148090000D01*
X197032619Y-148042380D01*
X197127857Y-148042380D01*
X197270714Y-148090000D01*
X197318333Y-148137619D01*
X198223095Y-148042380D02*
X197746904Y-148042380D01*
X197699285Y-148518571D01*
X197746904Y-148470952D01*
X197842142Y-148423333D01*
X198080238Y-148423333D01*
X198175476Y-148470952D01*
X198223095Y-148518571D01*
X198270714Y-148613809D01*
X198270714Y-148851904D01*
X198223095Y-148947142D01*
X198175476Y-148994761D01*
X198080238Y-149042380D01*
X197842142Y-149042380D01*
X197746904Y-148994761D01*
X197699285Y-148947142D01*
X187793333Y-121007142D02*
X187745714Y-121054761D01*
X187602857Y-121102380D01*
X187507619Y-121102380D01*
X187364761Y-121054761D01*
X187269523Y-120959523D01*
X187221904Y-120864285D01*
X187174285Y-120673809D01*
X187174285Y-120530952D01*
X187221904Y-120340476D01*
X187269523Y-120245238D01*
X187364761Y-120150000D01*
X187507619Y-120102380D01*
X187602857Y-120102380D01*
X187745714Y-120150000D01*
X187793333Y-120197619D01*
X188650476Y-120435714D02*
X188650476Y-121102380D01*
X188412380Y-120054761D02*
X188174285Y-120769047D01*
X188793333Y-120769047D01*
X198432142Y-140481666D02*
X198479761Y-140529285D01*
X198527380Y-140672142D01*
X198527380Y-140767380D01*
X198479761Y-140910238D01*
X198384523Y-141005476D01*
X198289285Y-141053095D01*
X198098809Y-141100714D01*
X197955952Y-141100714D01*
X197765476Y-141053095D01*
X197670238Y-141005476D01*
X197575000Y-140910238D01*
X197527380Y-140767380D01*
X197527380Y-140672142D01*
X197575000Y-140529285D01*
X197622619Y-140481666D01*
X197527380Y-140148333D02*
X197527380Y-139529285D01*
X197908333Y-139862619D01*
X197908333Y-139719761D01*
X197955952Y-139624523D01*
X198003571Y-139576904D01*
X198098809Y-139529285D01*
X198336904Y-139529285D01*
X198432142Y-139576904D01*
X198479761Y-139624523D01*
X198527380Y-139719761D01*
X198527380Y-140005476D01*
X198479761Y-140100714D01*
X198432142Y-140148333D01*
X223353333Y-152122142D02*
X223305714Y-152169761D01*
X223162857Y-152217380D01*
X223067619Y-152217380D01*
X222924761Y-152169761D01*
X222829523Y-152074523D01*
X222781904Y-151979285D01*
X222734285Y-151788809D01*
X222734285Y-151645952D01*
X222781904Y-151455476D01*
X222829523Y-151360238D01*
X222924761Y-151265000D01*
X223067619Y-151217380D01*
X223162857Y-151217380D01*
X223305714Y-151265000D01*
X223353333Y-151312619D01*
X223734285Y-151312619D02*
X223781904Y-151265000D01*
X223877142Y-151217380D01*
X224115238Y-151217380D01*
X224210476Y-151265000D01*
X224258095Y-151312619D01*
X224305714Y-151407857D01*
X224305714Y-151503095D01*
X224258095Y-151645952D01*
X223686666Y-152217380D01*
X224305714Y-152217380D01*
X227052142Y-143676666D02*
X227099761Y-143724285D01*
X227147380Y-143867142D01*
X227147380Y-143962380D01*
X227099761Y-144105238D01*
X227004523Y-144200476D01*
X226909285Y-144248095D01*
X226718809Y-144295714D01*
X226575952Y-144295714D01*
X226385476Y-144248095D01*
X226290238Y-144200476D01*
X226195000Y-144105238D01*
X226147380Y-143962380D01*
X226147380Y-143867142D01*
X226195000Y-143724285D01*
X226242619Y-143676666D01*
X227147380Y-142724285D02*
X227147380Y-143295714D01*
X227147380Y-143010000D02*
X226147380Y-143010000D01*
X226290238Y-143105238D01*
X226385476Y-143200476D01*
X226433095Y-143295714D01*
%LPC*%
D13*
X220980000Y-100965000D03*
X205740000Y-100965000D03*
D14*
X210820000Y-100965000D03*
X218440000Y-100965000D03*
X208280000Y-100965000D03*
X223520000Y-100965000D03*
X215900000Y-100965000D03*
X213360000Y-100965000D03*
X226060000Y-100965000D03*
X228600000Y-100965000D03*
X236220000Y-100965000D03*
X241300000Y-100965000D03*
X238760000Y-100965000D03*
X233680000Y-100965000D03*
X231140000Y-100965000D03*
X251460000Y-100965000D03*
X248920000Y-100965000D03*
X246380000Y-100965000D03*
X243840000Y-100965000D03*
X251460000Y-126365000D03*
X248920000Y-126365000D03*
X246380000Y-126365000D03*
X243840000Y-126365000D03*
X241300000Y-126365000D03*
D13*
X238760000Y-126365000D03*
D14*
X236220000Y-126365000D03*
X233680000Y-126365000D03*
X231140000Y-126365000D03*
X228600000Y-126365000D03*
X226060000Y-126365000D03*
X223520000Y-126365000D03*
X220980000Y-126365000D03*
X218440000Y-126365000D03*
X215900000Y-126365000D03*
X213360000Y-126365000D03*
X210820000Y-126365000D03*
X208280000Y-126365000D03*
X205740000Y-126365000D03*
X251460000Y-103505000D03*
X248920000Y-103505000D03*
X223520000Y-103505000D03*
X238760000Y-103505000D03*
X226060000Y-103505000D03*
X228600000Y-103505000D03*
X218440000Y-103505000D03*
X210820000Y-103505000D03*
X233680000Y-103505000D03*
X243840000Y-103505000D03*
X208280000Y-103505000D03*
X246380000Y-103505000D03*
X231140000Y-103505000D03*
X241300000Y-103505000D03*
X213360000Y-103505000D03*
D13*
X205740000Y-103505000D03*
D14*
X215900000Y-103505000D03*
X236220000Y-103505000D03*
D13*
X220980000Y-103505000D03*
D15*
X189865000Y-131445000D03*
D16*
X197485000Y-133985000D03*
D17*
X189865000Y-133485000D03*
D16*
X197485000Y-131445000D03*
D18*
X241300000Y-93345000D03*
D19*
X203200000Y-93345000D03*
D18*
X200660000Y-93345000D03*
D20*
X181690000Y-146050000D03*
X186690000Y-146050000D03*
D21*
X207010000Y-143510000D03*
X209550000Y-143510000D03*
D22*
X212090000Y-143510000D03*
D23*
X248960000Y-129540000D03*
X251460000Y-129540000D03*
D24*
X184785000Y-123825000D03*
D23*
X174625000Y-123825000D03*
D24*
X218440000Y-93345000D03*
D23*
X208280000Y-93345000D03*
D25*
X167640000Y-149225000D03*
D26*
X167640000Y-139065000D03*
D25*
X182880000Y-139065000D03*
D26*
X172720000Y-139065000D03*
D25*
X240030000Y-139065000D03*
D26*
X229870000Y-139065000D03*
D25*
X241300000Y-133350000D03*
D26*
X251460000Y-133350000D03*
D19*
X192405000Y-94615000D03*
X192405000Y-92075000D03*
X189865000Y-94615000D03*
X189865000Y-92075000D03*
X187325000Y-94615000D03*
X187325000Y-92075000D03*
X184785000Y-94615000D03*
X184785000Y-92075000D03*
X182245000Y-94615000D03*
X182245000Y-92075000D03*
X179705000Y-94615000D03*
X179705000Y-92075000D03*
X177165000Y-94615000D03*
X177165000Y-92075000D03*
X174625000Y-94615000D03*
X174625000Y-92075000D03*
X172085000Y-94615000D03*
X172085000Y-92075000D03*
X169545000Y-94615000D03*
D18*
X169545000Y-92075000D03*
G36*
G01*
X183080000Y-109540000D02*
X183080000Y-109340000D01*
G75*
G02*
X183180000Y-109240000I100000J0D01*
G01*
X184455000Y-109240000D01*
G75*
G02*
X184555000Y-109340000I0J-100000D01*
G01*
X184555000Y-109540000D01*
G75*
G02*
X184455000Y-109640000I-100000J0D01*
G01*
X183180000Y-109640000D01*
G75*
G02*
X183080000Y-109540000I0J100000D01*
G01*
G37*
G36*
G01*
X183080000Y-110190000D02*
X183080000Y-109990000D01*
G75*
G02*
X183180000Y-109890000I100000J0D01*
G01*
X184455000Y-109890000D01*
G75*
G02*
X184555000Y-109990000I0J-100000D01*
G01*
X184555000Y-110190000D01*
G75*
G02*
X184455000Y-110290000I-100000J0D01*
G01*
X183180000Y-110290000D01*
G75*
G02*
X183080000Y-110190000I0J100000D01*
G01*
G37*
G36*
G01*
X183080000Y-110840000D02*
X183080000Y-110640000D01*
G75*
G02*
X183180000Y-110540000I100000J0D01*
G01*
X184455000Y-110540000D01*
G75*
G02*
X184555000Y-110640000I0J-100000D01*
G01*
X184555000Y-110840000D01*
G75*
G02*
X184455000Y-110940000I-100000J0D01*
G01*
X183180000Y-110940000D01*
G75*
G02*
X183080000Y-110840000I0J100000D01*
G01*
G37*
G36*
G01*
X183080000Y-111490000D02*
X183080000Y-111290000D01*
G75*
G02*
X183180000Y-111190000I100000J0D01*
G01*
X184455000Y-111190000D01*
G75*
G02*
X184555000Y-111290000I0J-100000D01*
G01*
X184555000Y-111490000D01*
G75*
G02*
X184455000Y-111590000I-100000J0D01*
G01*
X183180000Y-111590000D01*
G75*
G02*
X183080000Y-111490000I0J100000D01*
G01*
G37*
G36*
G01*
X183080000Y-112140000D02*
X183080000Y-111940000D01*
G75*
G02*
X183180000Y-111840000I100000J0D01*
G01*
X184455000Y-111840000D01*
G75*
G02*
X184555000Y-111940000I0J-100000D01*
G01*
X184555000Y-112140000D01*
G75*
G02*
X184455000Y-112240000I-100000J0D01*
G01*
X183180000Y-112240000D01*
G75*
G02*
X183080000Y-112140000I0J100000D01*
G01*
G37*
G36*
G01*
X183080000Y-112790000D02*
X183080000Y-112590000D01*
G75*
G02*
X183180000Y-112490000I100000J0D01*
G01*
X184455000Y-112490000D01*
G75*
G02*
X184555000Y-112590000I0J-100000D01*
G01*
X184555000Y-112790000D01*
G75*
G02*
X184455000Y-112890000I-100000J0D01*
G01*
X183180000Y-112890000D01*
G75*
G02*
X183080000Y-112790000I0J100000D01*
G01*
G37*
G36*
G01*
X183080000Y-113440000D02*
X183080000Y-113240000D01*
G75*
G02*
X183180000Y-113140000I100000J0D01*
G01*
X184455000Y-113140000D01*
G75*
G02*
X184555000Y-113240000I0J-100000D01*
G01*
X184555000Y-113440000D01*
G75*
G02*
X184455000Y-113540000I-100000J0D01*
G01*
X183180000Y-113540000D01*
G75*
G02*
X183080000Y-113440000I0J100000D01*
G01*
G37*
G36*
G01*
X183080000Y-114090000D02*
X183080000Y-113890000D01*
G75*
G02*
X183180000Y-113790000I100000J0D01*
G01*
X184455000Y-113790000D01*
G75*
G02*
X184555000Y-113890000I0J-100000D01*
G01*
X184555000Y-114090000D01*
G75*
G02*
X184455000Y-114190000I-100000J0D01*
G01*
X183180000Y-114190000D01*
G75*
G02*
X183080000Y-114090000I0J100000D01*
G01*
G37*
G36*
G01*
X183080000Y-114740000D02*
X183080000Y-114540000D01*
G75*
G02*
X183180000Y-114440000I100000J0D01*
G01*
X184455000Y-114440000D01*
G75*
G02*
X184555000Y-114540000I0J-100000D01*
G01*
X184555000Y-114740000D01*
G75*
G02*
X184455000Y-114840000I-100000J0D01*
G01*
X183180000Y-114840000D01*
G75*
G02*
X183080000Y-114740000I0J100000D01*
G01*
G37*
G36*
G01*
X183080000Y-115390000D02*
X183080000Y-115190000D01*
G75*
G02*
X183180000Y-115090000I100000J0D01*
G01*
X184455000Y-115090000D01*
G75*
G02*
X184555000Y-115190000I0J-100000D01*
G01*
X184555000Y-115390000D01*
G75*
G02*
X184455000Y-115490000I-100000J0D01*
G01*
X183180000Y-115490000D01*
G75*
G02*
X183080000Y-115390000I0J100000D01*
G01*
G37*
G36*
G01*
X183080000Y-116040000D02*
X183080000Y-115840000D01*
G75*
G02*
X183180000Y-115740000I100000J0D01*
G01*
X184455000Y-115740000D01*
G75*
G02*
X184555000Y-115840000I0J-100000D01*
G01*
X184555000Y-116040000D01*
G75*
G02*
X184455000Y-116140000I-100000J0D01*
G01*
X183180000Y-116140000D01*
G75*
G02*
X183080000Y-116040000I0J100000D01*
G01*
G37*
G36*
G01*
X183080000Y-116690000D02*
X183080000Y-116490000D01*
G75*
G02*
X183180000Y-116390000I100000J0D01*
G01*
X184455000Y-116390000D01*
G75*
G02*
X184555000Y-116490000I0J-100000D01*
G01*
X184555000Y-116690000D01*
G75*
G02*
X184455000Y-116790000I-100000J0D01*
G01*
X183180000Y-116790000D01*
G75*
G02*
X183080000Y-116690000I0J100000D01*
G01*
G37*
G36*
G01*
X183080000Y-117340000D02*
X183080000Y-117140000D01*
G75*
G02*
X183180000Y-117040000I100000J0D01*
G01*
X184455000Y-117040000D01*
G75*
G02*
X184555000Y-117140000I0J-100000D01*
G01*
X184555000Y-117340000D01*
G75*
G02*
X184455000Y-117440000I-100000J0D01*
G01*
X183180000Y-117440000D01*
G75*
G02*
X183080000Y-117340000I0J100000D01*
G01*
G37*
G36*
G01*
X183080000Y-117990000D02*
X183080000Y-117790000D01*
G75*
G02*
X183180000Y-117690000I100000J0D01*
G01*
X184455000Y-117690000D01*
G75*
G02*
X184555000Y-117790000I0J-100000D01*
G01*
X184555000Y-117990000D01*
G75*
G02*
X184455000Y-118090000I-100000J0D01*
G01*
X183180000Y-118090000D01*
G75*
G02*
X183080000Y-117990000I0J100000D01*
G01*
G37*
G36*
G01*
X177355000Y-117990000D02*
X177355000Y-117790000D01*
G75*
G02*
X177455000Y-117690000I100000J0D01*
G01*
X178730000Y-117690000D01*
G75*
G02*
X178830000Y-117790000I0J-100000D01*
G01*
X178830000Y-117990000D01*
G75*
G02*
X178730000Y-118090000I-100000J0D01*
G01*
X177455000Y-118090000D01*
G75*
G02*
X177355000Y-117990000I0J100000D01*
G01*
G37*
G36*
G01*
X177355000Y-117340000D02*
X177355000Y-117140000D01*
G75*
G02*
X177455000Y-117040000I100000J0D01*
G01*
X178730000Y-117040000D01*
G75*
G02*
X178830000Y-117140000I0J-100000D01*
G01*
X178830000Y-117340000D01*
G75*
G02*
X178730000Y-117440000I-100000J0D01*
G01*
X177455000Y-117440000D01*
G75*
G02*
X177355000Y-117340000I0J100000D01*
G01*
G37*
G36*
G01*
X177355000Y-116690000D02*
X177355000Y-116490000D01*
G75*
G02*
X177455000Y-116390000I100000J0D01*
G01*
X178730000Y-116390000D01*
G75*
G02*
X178830000Y-116490000I0J-100000D01*
G01*
X178830000Y-116690000D01*
G75*
G02*
X178730000Y-116790000I-100000J0D01*
G01*
X177455000Y-116790000D01*
G75*
G02*
X177355000Y-116690000I0J100000D01*
G01*
G37*
G36*
G01*
X177355000Y-116040000D02*
X177355000Y-115840000D01*
G75*
G02*
X177455000Y-115740000I100000J0D01*
G01*
X178730000Y-115740000D01*
G75*
G02*
X178830000Y-115840000I0J-100000D01*
G01*
X178830000Y-116040000D01*
G75*
G02*
X178730000Y-116140000I-100000J0D01*
G01*
X177455000Y-116140000D01*
G75*
G02*
X177355000Y-116040000I0J100000D01*
G01*
G37*
G36*
G01*
X177355000Y-115390000D02*
X177355000Y-115190000D01*
G75*
G02*
X177455000Y-115090000I100000J0D01*
G01*
X178730000Y-115090000D01*
G75*
G02*
X178830000Y-115190000I0J-100000D01*
G01*
X178830000Y-115390000D01*
G75*
G02*
X178730000Y-115490000I-100000J0D01*
G01*
X177455000Y-115490000D01*
G75*
G02*
X177355000Y-115390000I0J100000D01*
G01*
G37*
G36*
G01*
X177355000Y-114740000D02*
X177355000Y-114540000D01*
G75*
G02*
X177455000Y-114440000I100000J0D01*
G01*
X178730000Y-114440000D01*
G75*
G02*
X178830000Y-114540000I0J-100000D01*
G01*
X178830000Y-114740000D01*
G75*
G02*
X178730000Y-114840000I-100000J0D01*
G01*
X177455000Y-114840000D01*
G75*
G02*
X177355000Y-114740000I0J100000D01*
G01*
G37*
G36*
G01*
X177355000Y-114090000D02*
X177355000Y-113890000D01*
G75*
G02*
X177455000Y-113790000I100000J0D01*
G01*
X178730000Y-113790000D01*
G75*
G02*
X178830000Y-113890000I0J-100000D01*
G01*
X178830000Y-114090000D01*
G75*
G02*
X178730000Y-114190000I-100000J0D01*
G01*
X177455000Y-114190000D01*
G75*
G02*
X177355000Y-114090000I0J100000D01*
G01*
G37*
G36*
G01*
X177355000Y-113440000D02*
X177355000Y-113240000D01*
G75*
G02*
X177455000Y-113140000I100000J0D01*
G01*
X178730000Y-113140000D01*
G75*
G02*
X178830000Y-113240000I0J-100000D01*
G01*
X178830000Y-113440000D01*
G75*
G02*
X178730000Y-113540000I-100000J0D01*
G01*
X177455000Y-113540000D01*
G75*
G02*
X177355000Y-113440000I0J100000D01*
G01*
G37*
G36*
G01*
X177355000Y-112790000D02*
X177355000Y-112590000D01*
G75*
G02*
X177455000Y-112490000I100000J0D01*
G01*
X178730000Y-112490000D01*
G75*
G02*
X178830000Y-112590000I0J-100000D01*
G01*
X178830000Y-112790000D01*
G75*
G02*
X178730000Y-112890000I-100000J0D01*
G01*
X177455000Y-112890000D01*
G75*
G02*
X177355000Y-112790000I0J100000D01*
G01*
G37*
G36*
G01*
X177355000Y-112140000D02*
X177355000Y-111940000D01*
G75*
G02*
X177455000Y-111840000I100000J0D01*
G01*
X178730000Y-111840000D01*
G75*
G02*
X178830000Y-111940000I0J-100000D01*
G01*
X178830000Y-112140000D01*
G75*
G02*
X178730000Y-112240000I-100000J0D01*
G01*
X177455000Y-112240000D01*
G75*
G02*
X177355000Y-112140000I0J100000D01*
G01*
G37*
G36*
G01*
X177355000Y-111490000D02*
X177355000Y-111290000D01*
G75*
G02*
X177455000Y-111190000I100000J0D01*
G01*
X178730000Y-111190000D01*
G75*
G02*
X178830000Y-111290000I0J-100000D01*
G01*
X178830000Y-111490000D01*
G75*
G02*
X178730000Y-111590000I-100000J0D01*
G01*
X177455000Y-111590000D01*
G75*
G02*
X177355000Y-111490000I0J100000D01*
G01*
G37*
G36*
G01*
X177355000Y-110840000D02*
X177355000Y-110640000D01*
G75*
G02*
X177455000Y-110540000I100000J0D01*
G01*
X178730000Y-110540000D01*
G75*
G02*
X178830000Y-110640000I0J-100000D01*
G01*
X178830000Y-110840000D01*
G75*
G02*
X178730000Y-110940000I-100000J0D01*
G01*
X177455000Y-110940000D01*
G75*
G02*
X177355000Y-110840000I0J100000D01*
G01*
G37*
G36*
G01*
X177355000Y-110190000D02*
X177355000Y-109990000D01*
G75*
G02*
X177455000Y-109890000I100000J0D01*
G01*
X178730000Y-109890000D01*
G75*
G02*
X178830000Y-109990000I0J-100000D01*
G01*
X178830000Y-110190000D01*
G75*
G02*
X178730000Y-110290000I-100000J0D01*
G01*
X177455000Y-110290000D01*
G75*
G02*
X177355000Y-110190000I0J100000D01*
G01*
G37*
G36*
G01*
X177355000Y-109540000D02*
X177355000Y-109340000D01*
G75*
G02*
X177455000Y-109240000I100000J0D01*
G01*
X178730000Y-109240000D01*
G75*
G02*
X178830000Y-109340000I0J-100000D01*
G01*
X178830000Y-109540000D01*
G75*
G02*
X178730000Y-109640000I-100000J0D01*
G01*
X177455000Y-109640000D01*
G75*
G02*
X177355000Y-109540000I0J100000D01*
G01*
G37*
D27*
X204470000Y-135890000D03*
X244475000Y-139700000D03*
X167640000Y-133985000D03*
D28*
X248920000Y-147955000D03*
X160020000Y-147955000D03*
X160020000Y-94615000D03*
X248920000Y-94615000D03*
D29*
X229870000Y-149225000D03*
X229880000Y-144145000D03*
G36*
G01*
X243065000Y-149705000D02*
X241315000Y-149705000D01*
G75*
G02*
X240440000Y-148830000I0J875000D01*
G01*
X240440000Y-147080000D01*
G75*
G02*
X241315000Y-146205000I875000J0D01*
G01*
X243065000Y-146205000D01*
G75*
G02*
X243940000Y-147080000I0J-875000D01*
G01*
X243940000Y-148830000D01*
G75*
G02*
X243065000Y-149705000I-875000J0D01*
G01*
G37*
G36*
G01*
X238490000Y-152455000D02*
X236490000Y-152455000D01*
G75*
G02*
X235740000Y-151705000I0J750000D01*
G01*
X235740000Y-150205000D01*
G75*
G02*
X236490000Y-149455000I750000J0D01*
G01*
X238490000Y-149455000D01*
G75*
G02*
X239240000Y-150205000I0J-750000D01*
G01*
X239240000Y-151705000D01*
G75*
G02*
X238490000Y-152455000I-750000J0D01*
G01*
G37*
D30*
X237490000Y-144955000D03*
D23*
X174665000Y-120650000D03*
X177165000Y-120650000D03*
X173990000Y-146685000D03*
D31*
X173990000Y-144185000D03*
X193675000Y-147320000D03*
D23*
X193675000Y-149820000D03*
X185380000Y-120650000D03*
X182880000Y-120650000D03*
X193675000Y-141565000D03*
D31*
X193675000Y-139065000D03*
X223520000Y-146685000D03*
D23*
X223520000Y-149185000D03*
X224750000Y-143510000D03*
X222250000Y-143510000D03*
M02*
