G04 #@! TF.GenerationSoftware,KiCad,Pcbnew,(5.1.10)-1*
G04 #@! TF.CreationDate,2021-09-29T14:01:46-04:00*
G04 #@! TF.ProjectId,schematics_main,73636865-6d61-4746-9963-735f6d61696e,rev?*
G04 #@! TF.SameCoordinates,Original*
G04 #@! TF.FileFunction,Soldermask,Top*
G04 #@! TF.FilePolarity,Negative*
%FSLAX46Y46*%
G04 Gerber Fmt 4.6, Leading zero omitted, Abs format (unit mm)*
G04 Created by KiCad (PCBNEW (5.1.10)-1) date 2021-09-29 14:01:46*
%MOMM*%
%LPD*%
G01*
G04 APERTURE LIST*
%ADD10R,1.905000X2.000000*%
%ADD11O,1.905000X2.000000*%
%ADD12O,2.400000X2.400000*%
%ADD13R,1.524000X1.524000*%
%ADD14C,1.524000*%
%ADD15C,1.700000*%
%ADD16R,1.800000X1.800000*%
%ADD17O,1.800000X1.800000*%
%ADD18R,1.800000X2.800000*%
%ADD19R,1.700000X1.700000*%
%ADD20O,1.700000X1.700000*%
%ADD21C,2.600000*%
%ADD22C,1.600000*%
%ADD23O,1.600000X1.600000*%
%ADD24O,2.200000X2.200000*%
%ADD25R,2.200000X2.200000*%
%ADD26C,3.000000*%
%ADD27C,6.400000*%
%ADD28C,2.000000*%
%ADD29R,3.500000X3.500000*%
%ADD30R,1.600000X1.600000*%
G04 APERTURE END LIST*
D10*
X212090000Y-143510000D03*
D11*
X209550000Y-143510000D03*
X207010000Y-143510000D03*
D12*
X209550000Y-148590000D03*
D13*
X220980000Y-100965000D03*
X205740000Y-100965000D03*
D14*
X210820000Y-100965000D03*
X218440000Y-100965000D03*
X208280000Y-100965000D03*
X223520000Y-100965000D03*
X215900000Y-100965000D03*
X213360000Y-100965000D03*
X226060000Y-100965000D03*
X228600000Y-100965000D03*
X236220000Y-100965000D03*
X241300000Y-100965000D03*
X238760000Y-100965000D03*
X233680000Y-100965000D03*
X231140000Y-100965000D03*
X251460000Y-100965000D03*
X248920000Y-100965000D03*
X246380000Y-100965000D03*
X243840000Y-100965000D03*
X251460000Y-126365000D03*
X248920000Y-126365000D03*
X246380000Y-126365000D03*
X243840000Y-126365000D03*
X241300000Y-126365000D03*
D13*
X238760000Y-126365000D03*
D14*
X236220000Y-126365000D03*
X233680000Y-126365000D03*
X231140000Y-126365000D03*
X228600000Y-126365000D03*
X226060000Y-126365000D03*
X223520000Y-126365000D03*
X220980000Y-126365000D03*
X218440000Y-126365000D03*
X215900000Y-126365000D03*
X213360000Y-126365000D03*
X210820000Y-126365000D03*
X208280000Y-126365000D03*
X205740000Y-126365000D03*
X251460000Y-103505000D03*
X248920000Y-103505000D03*
X223520000Y-103505000D03*
X238760000Y-103505000D03*
X226060000Y-103505000D03*
X228600000Y-103505000D03*
X218440000Y-103505000D03*
X210820000Y-103505000D03*
X233680000Y-103505000D03*
X243840000Y-103505000D03*
X208280000Y-103505000D03*
X246380000Y-103505000D03*
X231140000Y-103505000D03*
X241300000Y-103505000D03*
X213360000Y-103505000D03*
D13*
X205740000Y-103505000D03*
D14*
X215900000Y-103505000D03*
X236220000Y-103505000D03*
D13*
X220980000Y-103505000D03*
G36*
G01*
X172870000Y-115735000D02*
X172570000Y-115735000D01*
G75*
G02*
X172420000Y-115585000I0J150000D01*
G01*
X172420000Y-113835000D01*
G75*
G02*
X172570000Y-113685000I150000J0D01*
G01*
X172870000Y-113685000D01*
G75*
G02*
X173020000Y-113835000I0J-150000D01*
G01*
X173020000Y-115585000D01*
G75*
G02*
X172870000Y-115735000I-150000J0D01*
G01*
G37*
G36*
G01*
X174140000Y-115735000D02*
X173840000Y-115735000D01*
G75*
G02*
X173690000Y-115585000I0J150000D01*
G01*
X173690000Y-113835000D01*
G75*
G02*
X173840000Y-113685000I150000J0D01*
G01*
X174140000Y-113685000D01*
G75*
G02*
X174290000Y-113835000I0J-150000D01*
G01*
X174290000Y-115585000D01*
G75*
G02*
X174140000Y-115735000I-150000J0D01*
G01*
G37*
G36*
G01*
X175410000Y-115735000D02*
X175110000Y-115735000D01*
G75*
G02*
X174960000Y-115585000I0J150000D01*
G01*
X174960000Y-113835000D01*
G75*
G02*
X175110000Y-113685000I150000J0D01*
G01*
X175410000Y-113685000D01*
G75*
G02*
X175560000Y-113835000I0J-150000D01*
G01*
X175560000Y-115585000D01*
G75*
G02*
X175410000Y-115735000I-150000J0D01*
G01*
G37*
G36*
G01*
X176680000Y-115735000D02*
X176380000Y-115735000D01*
G75*
G02*
X176230000Y-115585000I0J150000D01*
G01*
X176230000Y-113835000D01*
G75*
G02*
X176380000Y-113685000I150000J0D01*
G01*
X176680000Y-113685000D01*
G75*
G02*
X176830000Y-113835000I0J-150000D01*
G01*
X176830000Y-115585000D01*
G75*
G02*
X176680000Y-115735000I-150000J0D01*
G01*
G37*
G36*
G01*
X177950000Y-115735000D02*
X177650000Y-115735000D01*
G75*
G02*
X177500000Y-115585000I0J150000D01*
G01*
X177500000Y-113835000D01*
G75*
G02*
X177650000Y-113685000I150000J0D01*
G01*
X177950000Y-113685000D01*
G75*
G02*
X178100000Y-113835000I0J-150000D01*
G01*
X178100000Y-115585000D01*
G75*
G02*
X177950000Y-115735000I-150000J0D01*
G01*
G37*
G36*
G01*
X179220000Y-115735000D02*
X178920000Y-115735000D01*
G75*
G02*
X178770000Y-115585000I0J150000D01*
G01*
X178770000Y-113835000D01*
G75*
G02*
X178920000Y-113685000I150000J0D01*
G01*
X179220000Y-113685000D01*
G75*
G02*
X179370000Y-113835000I0J-150000D01*
G01*
X179370000Y-115585000D01*
G75*
G02*
X179220000Y-115735000I-150000J0D01*
G01*
G37*
G36*
G01*
X180490000Y-115735000D02*
X180190000Y-115735000D01*
G75*
G02*
X180040000Y-115585000I0J150000D01*
G01*
X180040000Y-113835000D01*
G75*
G02*
X180190000Y-113685000I150000J0D01*
G01*
X180490000Y-113685000D01*
G75*
G02*
X180640000Y-113835000I0J-150000D01*
G01*
X180640000Y-115585000D01*
G75*
G02*
X180490000Y-115735000I-150000J0D01*
G01*
G37*
G36*
G01*
X181760000Y-115735000D02*
X181460000Y-115735000D01*
G75*
G02*
X181310000Y-115585000I0J150000D01*
G01*
X181310000Y-113835000D01*
G75*
G02*
X181460000Y-113685000I150000J0D01*
G01*
X181760000Y-113685000D01*
G75*
G02*
X181910000Y-113835000I0J-150000D01*
G01*
X181910000Y-115585000D01*
G75*
G02*
X181760000Y-115735000I-150000J0D01*
G01*
G37*
G36*
G01*
X183030000Y-115735000D02*
X182730000Y-115735000D01*
G75*
G02*
X182580000Y-115585000I0J150000D01*
G01*
X182580000Y-113835000D01*
G75*
G02*
X182730000Y-113685000I150000J0D01*
G01*
X183030000Y-113685000D01*
G75*
G02*
X183180000Y-113835000I0J-150000D01*
G01*
X183180000Y-115585000D01*
G75*
G02*
X183030000Y-115735000I-150000J0D01*
G01*
G37*
G36*
G01*
X184300000Y-115735000D02*
X184000000Y-115735000D01*
G75*
G02*
X183850000Y-115585000I0J150000D01*
G01*
X183850000Y-113835000D01*
G75*
G02*
X184000000Y-113685000I150000J0D01*
G01*
X184300000Y-113685000D01*
G75*
G02*
X184450000Y-113835000I0J-150000D01*
G01*
X184450000Y-115585000D01*
G75*
G02*
X184300000Y-115735000I-150000J0D01*
G01*
G37*
G36*
G01*
X185570000Y-115735000D02*
X185270000Y-115735000D01*
G75*
G02*
X185120000Y-115585000I0J150000D01*
G01*
X185120000Y-113835000D01*
G75*
G02*
X185270000Y-113685000I150000J0D01*
G01*
X185570000Y-113685000D01*
G75*
G02*
X185720000Y-113835000I0J-150000D01*
G01*
X185720000Y-115585000D01*
G75*
G02*
X185570000Y-115735000I-150000J0D01*
G01*
G37*
G36*
G01*
X186840000Y-115735000D02*
X186540000Y-115735000D01*
G75*
G02*
X186390000Y-115585000I0J150000D01*
G01*
X186390000Y-113835000D01*
G75*
G02*
X186540000Y-113685000I150000J0D01*
G01*
X186840000Y-113685000D01*
G75*
G02*
X186990000Y-113835000I0J-150000D01*
G01*
X186990000Y-115585000D01*
G75*
G02*
X186840000Y-115735000I-150000J0D01*
G01*
G37*
G36*
G01*
X188110000Y-115735000D02*
X187810000Y-115735000D01*
G75*
G02*
X187660000Y-115585000I0J150000D01*
G01*
X187660000Y-113835000D01*
G75*
G02*
X187810000Y-113685000I150000J0D01*
G01*
X188110000Y-113685000D01*
G75*
G02*
X188260000Y-113835000I0J-150000D01*
G01*
X188260000Y-115585000D01*
G75*
G02*
X188110000Y-115735000I-150000J0D01*
G01*
G37*
G36*
G01*
X189380000Y-115735000D02*
X189080000Y-115735000D01*
G75*
G02*
X188930000Y-115585000I0J150000D01*
G01*
X188930000Y-113835000D01*
G75*
G02*
X189080000Y-113685000I150000J0D01*
G01*
X189380000Y-113685000D01*
G75*
G02*
X189530000Y-113835000I0J-150000D01*
G01*
X189530000Y-115585000D01*
G75*
G02*
X189380000Y-115735000I-150000J0D01*
G01*
G37*
G36*
G01*
X189380000Y-106435000D02*
X189080000Y-106435000D01*
G75*
G02*
X188930000Y-106285000I0J150000D01*
G01*
X188930000Y-104535000D01*
G75*
G02*
X189080000Y-104385000I150000J0D01*
G01*
X189380000Y-104385000D01*
G75*
G02*
X189530000Y-104535000I0J-150000D01*
G01*
X189530000Y-106285000D01*
G75*
G02*
X189380000Y-106435000I-150000J0D01*
G01*
G37*
G36*
G01*
X188110000Y-106435000D02*
X187810000Y-106435000D01*
G75*
G02*
X187660000Y-106285000I0J150000D01*
G01*
X187660000Y-104535000D01*
G75*
G02*
X187810000Y-104385000I150000J0D01*
G01*
X188110000Y-104385000D01*
G75*
G02*
X188260000Y-104535000I0J-150000D01*
G01*
X188260000Y-106285000D01*
G75*
G02*
X188110000Y-106435000I-150000J0D01*
G01*
G37*
G36*
G01*
X186840000Y-106435000D02*
X186540000Y-106435000D01*
G75*
G02*
X186390000Y-106285000I0J150000D01*
G01*
X186390000Y-104535000D01*
G75*
G02*
X186540000Y-104385000I150000J0D01*
G01*
X186840000Y-104385000D01*
G75*
G02*
X186990000Y-104535000I0J-150000D01*
G01*
X186990000Y-106285000D01*
G75*
G02*
X186840000Y-106435000I-150000J0D01*
G01*
G37*
G36*
G01*
X185570000Y-106435000D02*
X185270000Y-106435000D01*
G75*
G02*
X185120000Y-106285000I0J150000D01*
G01*
X185120000Y-104535000D01*
G75*
G02*
X185270000Y-104385000I150000J0D01*
G01*
X185570000Y-104385000D01*
G75*
G02*
X185720000Y-104535000I0J-150000D01*
G01*
X185720000Y-106285000D01*
G75*
G02*
X185570000Y-106435000I-150000J0D01*
G01*
G37*
G36*
G01*
X184300000Y-106435000D02*
X184000000Y-106435000D01*
G75*
G02*
X183850000Y-106285000I0J150000D01*
G01*
X183850000Y-104535000D01*
G75*
G02*
X184000000Y-104385000I150000J0D01*
G01*
X184300000Y-104385000D01*
G75*
G02*
X184450000Y-104535000I0J-150000D01*
G01*
X184450000Y-106285000D01*
G75*
G02*
X184300000Y-106435000I-150000J0D01*
G01*
G37*
G36*
G01*
X183030000Y-106435000D02*
X182730000Y-106435000D01*
G75*
G02*
X182580000Y-106285000I0J150000D01*
G01*
X182580000Y-104535000D01*
G75*
G02*
X182730000Y-104385000I150000J0D01*
G01*
X183030000Y-104385000D01*
G75*
G02*
X183180000Y-104535000I0J-150000D01*
G01*
X183180000Y-106285000D01*
G75*
G02*
X183030000Y-106435000I-150000J0D01*
G01*
G37*
G36*
G01*
X181760000Y-106435000D02*
X181460000Y-106435000D01*
G75*
G02*
X181310000Y-106285000I0J150000D01*
G01*
X181310000Y-104535000D01*
G75*
G02*
X181460000Y-104385000I150000J0D01*
G01*
X181760000Y-104385000D01*
G75*
G02*
X181910000Y-104535000I0J-150000D01*
G01*
X181910000Y-106285000D01*
G75*
G02*
X181760000Y-106435000I-150000J0D01*
G01*
G37*
G36*
G01*
X180490000Y-106435000D02*
X180190000Y-106435000D01*
G75*
G02*
X180040000Y-106285000I0J150000D01*
G01*
X180040000Y-104535000D01*
G75*
G02*
X180190000Y-104385000I150000J0D01*
G01*
X180490000Y-104385000D01*
G75*
G02*
X180640000Y-104535000I0J-150000D01*
G01*
X180640000Y-106285000D01*
G75*
G02*
X180490000Y-106435000I-150000J0D01*
G01*
G37*
G36*
G01*
X179220000Y-106435000D02*
X178920000Y-106435000D01*
G75*
G02*
X178770000Y-106285000I0J150000D01*
G01*
X178770000Y-104535000D01*
G75*
G02*
X178920000Y-104385000I150000J0D01*
G01*
X179220000Y-104385000D01*
G75*
G02*
X179370000Y-104535000I0J-150000D01*
G01*
X179370000Y-106285000D01*
G75*
G02*
X179220000Y-106435000I-150000J0D01*
G01*
G37*
G36*
G01*
X177950000Y-106435000D02*
X177650000Y-106435000D01*
G75*
G02*
X177500000Y-106285000I0J150000D01*
G01*
X177500000Y-104535000D01*
G75*
G02*
X177650000Y-104385000I150000J0D01*
G01*
X177950000Y-104385000D01*
G75*
G02*
X178100000Y-104535000I0J-150000D01*
G01*
X178100000Y-106285000D01*
G75*
G02*
X177950000Y-106435000I-150000J0D01*
G01*
G37*
G36*
G01*
X176680000Y-106435000D02*
X176380000Y-106435000D01*
G75*
G02*
X176230000Y-106285000I0J150000D01*
G01*
X176230000Y-104535000D01*
G75*
G02*
X176380000Y-104385000I150000J0D01*
G01*
X176680000Y-104385000D01*
G75*
G02*
X176830000Y-104535000I0J-150000D01*
G01*
X176830000Y-106285000D01*
G75*
G02*
X176680000Y-106435000I-150000J0D01*
G01*
G37*
G36*
G01*
X175410000Y-106435000D02*
X175110000Y-106435000D01*
G75*
G02*
X174960000Y-106285000I0J150000D01*
G01*
X174960000Y-104535000D01*
G75*
G02*
X175110000Y-104385000I150000J0D01*
G01*
X175410000Y-104385000D01*
G75*
G02*
X175560000Y-104535000I0J-150000D01*
G01*
X175560000Y-106285000D01*
G75*
G02*
X175410000Y-106435000I-150000J0D01*
G01*
G37*
G36*
G01*
X174140000Y-106435000D02*
X173840000Y-106435000D01*
G75*
G02*
X173690000Y-106285000I0J150000D01*
G01*
X173690000Y-104535000D01*
G75*
G02*
X173840000Y-104385000I150000J0D01*
G01*
X174140000Y-104385000D01*
G75*
G02*
X174290000Y-104535000I0J-150000D01*
G01*
X174290000Y-106285000D01*
G75*
G02*
X174140000Y-106435000I-150000J0D01*
G01*
G37*
G36*
G01*
X172870000Y-106435000D02*
X172570000Y-106435000D01*
G75*
G02*
X172420000Y-106285000I0J150000D01*
G01*
X172420000Y-104535000D01*
G75*
G02*
X172570000Y-104385000I150000J0D01*
G01*
X172870000Y-104385000D01*
G75*
G02*
X173020000Y-104535000I0J-150000D01*
G01*
X173020000Y-106285000D01*
G75*
G02*
X172870000Y-106435000I-150000J0D01*
G01*
G37*
D15*
X192405000Y-93345000D03*
X189865000Y-93345000D03*
X187325000Y-93345000D03*
X184785000Y-93345000D03*
X182245000Y-93345000D03*
X179705000Y-93345000D03*
X177165000Y-93345000D03*
X174625000Y-93345000D03*
X172085000Y-93345000D03*
X169545000Y-93345000D03*
X192405000Y-95885000D03*
X189865000Y-95885000D03*
X187325000Y-95885000D03*
X184785000Y-95885000D03*
X182245000Y-95885000D03*
X179705000Y-95885000D03*
X177165000Y-95885000D03*
X174625000Y-95885000D03*
X172085000Y-95885000D03*
G36*
G01*
X170145000Y-96735000D02*
X168945000Y-96735000D01*
G75*
G02*
X168695000Y-96485000I0J250000D01*
G01*
X168695000Y-95285000D01*
G75*
G02*
X168945000Y-95035000I250000J0D01*
G01*
X170145000Y-95035000D01*
G75*
G02*
X170395000Y-95285000I0J-250000D01*
G01*
X170395000Y-96485000D01*
G75*
G02*
X170145000Y-96735000I-250000J0D01*
G01*
G37*
D16*
X182880000Y-131445000D03*
D17*
X190500000Y-133985000D03*
D18*
X182880000Y-133485000D03*
D17*
X190500000Y-131445000D03*
D19*
X241300000Y-93345000D03*
D20*
X203200000Y-93345000D03*
D19*
X200660000Y-93345000D03*
D21*
X181690000Y-146050000D03*
X186690000Y-146050000D03*
D22*
X248960000Y-129540000D03*
X251460000Y-129540000D03*
D23*
X162560000Y-115570000D03*
D22*
X162560000Y-105410000D03*
D23*
X218440000Y-93345000D03*
D22*
X208280000Y-93345000D03*
D24*
X167640000Y-149225000D03*
D25*
X167640000Y-139065000D03*
D24*
X182880000Y-139065000D03*
D25*
X172720000Y-139065000D03*
D24*
X240030000Y-139065000D03*
D25*
X229870000Y-139065000D03*
D24*
X241300000Y-133350000D03*
D25*
X251460000Y-133350000D03*
D26*
X207010000Y-137160000D03*
X244475000Y-139700000D03*
X167640000Y-133985000D03*
D27*
X248920000Y-147955000D03*
X160020000Y-147955000D03*
X160020000Y-94615000D03*
X248920000Y-94615000D03*
D28*
X229870000Y-149225000D03*
X229880000Y-144145000D03*
D29*
X237490000Y-144955000D03*
G36*
G01*
X238490000Y-152455000D02*
X236490000Y-152455000D01*
G75*
G02*
X235740000Y-151705000I0J750000D01*
G01*
X235740000Y-150205000D01*
G75*
G02*
X236490000Y-149455000I750000J0D01*
G01*
X238490000Y-149455000D01*
G75*
G02*
X239240000Y-150205000I0J-750000D01*
G01*
X239240000Y-151705000D01*
G75*
G02*
X238490000Y-152455000I-750000J0D01*
G01*
G37*
G36*
G01*
X243065000Y-149705000D02*
X241315000Y-149705000D01*
G75*
G02*
X240440000Y-148830000I0J875000D01*
G01*
X240440000Y-147080000D01*
G75*
G02*
X241315000Y-146205000I875000J0D01*
G01*
X243065000Y-146205000D01*
G75*
G02*
X243940000Y-147080000I0J-875000D01*
G01*
X243940000Y-148830000D01*
G75*
G02*
X243065000Y-149705000I-875000J0D01*
G01*
G37*
D22*
X168910000Y-113070000D03*
X168910000Y-115570000D03*
X173990000Y-146685000D03*
D30*
X173990000Y-144185000D03*
X193675000Y-147955000D03*
D22*
X193675000Y-150455000D03*
X168910000Y-105450000D03*
X168910000Y-107950000D03*
X193675000Y-142835000D03*
D30*
X193675000Y-140335000D03*
X223520000Y-146685000D03*
D22*
X223520000Y-149185000D03*
X224750000Y-143510000D03*
X222250000Y-143510000D03*
M02*
